<svg xmlns="http://www.w3.org/2000/svg" viewBox="0 0 329.22 278.37"><defs><style>.cls-1{fill:#fff;}.cls-2{fill:#2381a0;}</style></defs><g id="Layer_2" data-name="Layer 2"><g id="Layer_2-2" data-name="Layer 2"><path class="cls-1" d="M243.34,27S143.56-40.64,52,38.67C29,58.29-46.23,125.36,59.63,221.17a434.18,434.18,0,0,0,47.88,24.36l7.87,28,20.05-8s117.18,14.46,161.62-48.51C319.94,187,340.44,143.23,303,82.6,278,53.35,243.34,27,243.34,27Z"/><path class="cls-2" d="M243.34,27C177.88-19.63,60.32-6.44,16.07,71-27.85,147.89,23.39,230,107.51,245.53c5.47,1,7-7,1.62-8C30.46,222.09-17,146,23.67,73.72,65.71-1,177.42-11.47,242.52,28c.65.39,1.44-.51.82-1Z"/><path class="cls-2" d="M108.71,241.94c-2.49,11.78,0,23.44,3.49,34.38,1.2,3.78,7.73,1.16,6.46-2.61-3.49-10.36-4.34-21.11-6.22-31.87a1.92,1.92,0,0,0-3.73.1Z"/><path class="cls-2" d="M137.32,258.35c-7.71,4.34-14.87,9.93-21.94,15.13-3.12,2.29.49,6.6,3.4,4.17,6.82-5.71,14.1-11.42,20.1-17.87,1-1-.48-2-1.56-1.43Z"/><path class="cls-2" d="M252.15,34.38c48.09,35.29,97.67,108.7,52.16,168.67-34.4,45.33-112.26,73.72-165,54.66-5.24-1.9-9.13,5.89-3.86,7.74C192.9,285.66,279,254,313.2,202.51c42.22-63.6-6.39-135.65-60.23-169.08-.65-.4-1.44.5-.82,1Z"/><path class="cls-2" d="M298.84,188.8c-.12.95-.25,1.9-.37,2.86,0,0,0,0,0,0,.13-.95.25-1.9.38-2.85a0,0,0,0,0-.06,0Z"/><path class="cls-2" d="M126.6,14.84A157.34,157.34,0,0,0,63,40.61c-.89.61.07,1.79,1,1.17a154.86,154.86,0,0,1,62.72-26c.69-.12.62-1.09-.08-1Z"/><path class="cls-2" d="M97.57,28.25A128.06,128.06,0,0,0,58.06,49.84a.89.89,0,1,0,1.13,1.38A131.13,131.13,0,0,1,98,29.2a.51.51,0,1,0-.38-.95Z"/><path class="cls-2" d="M160.09,248.09c8.15,3.63,17.91,4.21,27.19,3.14a1,1,0,1,0-.16-1.93c-9.38,1.12-17.75-.1-26.54-2.18-.69-.16-1.13.69-.49,1Z"/><path class="cls-2" d="M167.66,245c20.32,3.05,41.13.8,61.24-5.9,1.35-.46.61-2.27-.74-1.83a140.94,140.94,0,0,1-60.2,6.24c-1-.11-1.31,1.34-.3,1.49Z"/></g></g></svg>