<svg xmlns="http://www.w3.org/2000/svg" viewBox="0 0 61.72 49.22"><defs><style>.cls-1{fill:#5996bf;}</style></defs><g id="Layer_2" data-name="Layer 2"><g id="Layer_1-2" data-name="Layer 1"><path class="cls-1" d="M28.37,11.37a19.36,19.36,0,0,0-4.05,0,11.14,11.14,0,0,0-8.2,5.53A16.25,16.25,0,0,0,13.9,28q1.2,9.1,11,14.1-6.85,6.16-13,7Q1.81,50.41.27,38.77q-1.48-11.28,5.22-22.2T21.34,4.45Q26.41,3.78,28.37,11.37ZM61.72,7a19.46,19.46,0,0,0-4.06,0,11.11,11.11,0,0,0-8.19,5.53,16.25,16.25,0,0,0-2.22,11.11q1.2,9.09,11,14.1-6.87,6.16-13,7Q35.17,46,33.62,34.37q-1.48-11.28,5.19-22.19T54.61.06C58.05-.4,60.41,1.91,61.72,7Z"/></g></g></svg>