<svg xmlns="http://www.w3.org/2000/svg" viewBox="0 0 33.14 32.99"><defs><style>.cls-1{fill:#2381a0;}</style></defs><g id="Layer_2" data-name="Layer 2"><g id="Layer_1-2" data-name="Layer 1"><path class="cls-1" d="M15.45,9.19a4,4,0,0,0-.77,2.8h0v2.18H11.94v3.09h2.74v8h3.17v-8h2.72L21,14.17h-3.1V12h0a1.26,1.26,0,0,1,1.38-1.3h1.86V7.78H18.31A3.78,3.78,0,0,0,15.45,9.19Z" transform="translate(0 0)"/><path class="cls-1" d="M28,26.76c-.45.14-.7.64-.92,1s-.57.77-.57,1.19a.22.22,0,0,0,.27.2c.4-.11.7-.58,1-.86s.75-.69.76-1.16A.42.42,0,0,0,28,26.76Z" transform="translate(0 0)"/><path class="cls-1" d="M32.84,17.67c2-7.94-6.23-16-13.69-17.37A16.15,16.15,0,0,0,7.29,2.54c-3,2-6.08,5.43-6.46,9.1a.36.36,0,0,0,.05.21c-2.36,6.07.22,13.7,5.4,17.55s13.61,5.16,19.08,1.17a.44.44,0,0,0-.45-.76l-.6.27a.41.41,0,0,0-.56-.16c-3.64,1.73-8.7.85-12.3-.43-.41-.14-.69.5-.3.69A16,16,0,0,0,20,31.69a12.87,12.87,0,0,1-4.28.37,17.65,17.65,0,0,1-8.31-3.12,13.46,13.46,0,0,1-6-7.86,16.2,16.2,0,0,1,0-9.13.38.38,0,0,0,.11-.11l.47-.9a14.31,14.31,0,0,0-.77,7.44C2,23.09,4.7,26.21,8.61,28.76c.47.31.94-.48.44-.74a14.31,14.31,0,0,1-6.81-9.85C1.6,14,3.14,10,5.65,6.62c.21-.28-.24-.6-.49-.37A12.14,12.14,0,0,0,4,7.49,15.21,15.21,0,0,1,6,5.06c-.17.29.11.74.47.51C7.39,5,8.27,4.36,9.22,3.83c.67-.38,1.39-.68,2.08-1a.77.77,0,0,0,.4,0c5-1.27,10-.72,14,3a.28.28,0,0,0,.43,0,.31.31,0,0,0,.3.4.33.33,0,0,0,0-.66.3.3,0,0,0-.25.13.26.26,0,0,0-.08-.22A15.09,15.09,0,0,0,21.29,2C26.58,4,31,8.69,31.62,14.17a14,14,0,0,0-2.19-5,.37.37,0,0,0-.65.37A18.43,18.43,0,0,1,31,18c.1,3.09-1.1,5.71-2.73,8.26a.29.29,0,0,0,.43.36.26.26,0,0,0,.32-.05,11.47,11.47,0,0,0,3.87-8.82Z" transform="translate(0 0)"/><path class="cls-1" d="M9.85,29.16a.42.42,0,0,0,.28.56,2,2,0,0,0,.53.15c.32,0,.44-.4.24-.59a2.41,2.41,0,0,0-.44-.33A.44.44,0,0,0,9.85,29.16Z" transform="translate(0 0)"/></g></g></svg>