<svg xmlns="http://www.w3.org/2000/svg" viewBox="0 0 32.92 32.77"><defs><style>.cls-1{fill:#2381a0;}</style></defs><g id="Layer_2" data-name="Layer 2"><g id="Layer_1-2" data-name="Layer 1"><path class="cls-1" d="M20,7.73H13.29A5.34,5.34,0,0,0,8,13.07v6.66a5.34,5.34,0,0,0,5.34,5.34H20a5.34,5.34,0,0,0,5.34-5.34V13.07A5.34,5.34,0,0,0,20,7.73Zm3.68,11.36a4.31,4.31,0,0,1-4.32,4.32H13.93a4.32,4.32,0,0,1-4.32-4.32V13.71a4.33,4.33,0,0,1,4.32-4.32h5.38a4.32,4.32,0,0,1,4.32,4.32Z"/><path class="cls-1" d="M16.85,11.86a4.57,4.57,0,1,0,4.57,4.57A4.57,4.57,0,0,0,16.85,11.86Zm0,7.32a2.75,2.75,0,1,1,2.75-2.75A2.75,2.75,0,0,1,16.85,19.18Z"/><path class="cls-1" d="M21.11,10.63a1.16,1.16,0,1,0,1.16,1.16A1.15,1.15,0,0,0,21.11,10.63Z"/><path class="cls-1" d="M27.81,26.58c-.45.14-.7.64-.92,1s-.56.76-.56,1.18a.2.2,0,0,0,.26.2c.4-.11.7-.58,1-.86s.74-.69.75-1.15A.42.42,0,0,0,27.81,26.58Z"/><path class="cls-1" d="M32.63,17.55C34.58,9.67,26.43,1.7,19,.3A16,16,0,0,0,7.24,2.52c-3,1.94-6,5.4-6.41,9.05a.28.28,0,0,0,.05.2c-2.35,6,.21,13.61,5.36,17.44s13.52,5.12,19,1.16a.44.44,0,0,0-.45-.76l-.59.27a.41.41,0,0,0-.56-.16C20,31.44,15,30.57,11.37,29.3c-.4-.15-.68.5-.29.68a15.86,15.86,0,0,0,8.75,1.5,12.61,12.61,0,0,1-4.24.37,17.55,17.55,0,0,1-8.26-3.1,13.4,13.4,0,0,1-5.92-7.81,16.09,16.09,0,0,1,0-9.07.29.29,0,0,0,.11-.11L2,10.87a14.11,14.11,0,0,0-.77,7.39C2,22.94,4.67,26,8.55,28.57c.47.31.93-.48.44-.74a14.17,14.17,0,0,1-6.76-9.78c-.64-4.19.89-8.13,3.38-11.47.22-.29-.24-.6-.48-.37A13.18,13.18,0,0,0,4,7.44,15.08,15.08,0,0,1,6,5c-.17.3.11.74.46.52C7.34,5,8.22,4.34,9.16,3.81c.67-.38,1.38-.68,2.07-1a.72.72,0,0,0,.39,0c5-1.27,10-.73,13.86,2.92a.26.26,0,0,0,.42,0,.32.32,0,0,0,.31.4.33.33,0,0,0,0-.65.27.27,0,0,0-.25.13.26.26,0,0,0-.08-.23A15.16,15.16,0,0,0,21.15,2c5.26,1.93,9.63,6.64,10.26,12.07a13.83,13.83,0,0,0-2.18-4.93.37.37,0,0,0-.64.37,18.47,18.47,0,0,1,2.18,8.35,14,14,0,0,1-2.72,8.19c-.17.26.22.57.43.36a.28.28,0,0,0,.32,0,11.42,11.42,0,0,0,3.84-8.77A.43.43,0,0,1,32.63,17.55Z"/><path class="cls-1" d="M9.79,29a.42.42,0,0,0,.27.57,2.44,2.44,0,0,0,.53.14c.31,0,.43-.39.24-.59a2.36,2.36,0,0,0-.44-.32A.43.43,0,0,0,9.79,29Z"/></g></g></svg>