<?xml version="1.0" encoding="utf-8"?>
<!-- Generator: Adobe Illustrator 26.2.1, SVG Export Plug-In . SVG Version: 6.00 Build 0)  -->
<svg version="1.1" id="Layer_1" xmlns="http://www.w3.org/2000/svg" xmlns:xlink="http://www.w3.org/1999/xlink" x="0px" y="0px"
	 viewBox="0 0 109 157" style="enable-background:new 0 0 109 157;" xml:space="preserve">
<style type="text/css">
	.st0{fill:#EE9C26;}
	.st1{fill:#B66B18;}
	.st2{fill:#F9D6AF;}
	.st3{fill:#FCC670;}
	.st4{fill:#F9B438;}
	.st5{fill:#C18448;}
</style>
<path d="M98.5,130.1L98.5,130.1L98.5,130.1L98.5,130.1z"/>
<path d="M106.1,117.1c-1.5-2.9-4.3-4.1-6.9-3.1c-2.3,0.9-3.1,3.4-2.1,6.7c0.5,1.7,1.1,3.4,1.3,5.2c0.2,2.4-1.2,3.9-3.6,3.8
	c-2.8,0-5.6-0.3-8.6-0.5c1.9-9.3,0-18.1-2.1-26.9c-0.2-0.7-0.3-1.4-0.5-2.1c-0.4,0.5-0.8,1-1.3,1.5l0.5,2.3c0.1,0.6,0.2,1.2,0.3,1.8
	v-0.1c2.3,7.9,3.2,15.9,1.4,24c-1.9,8.5-6.4,15-15.2,17.8c-4.4,1.4-8.5,0.4-12.7-1c-1.1-0.4-2.1-0.7-3.2-1.1c-2.3-0.1-4.5-0.4-6.7-1
	c2.6,1.1,5.2,2.2,7.8,3c3.5,1.2,6.3,3.1,8.8,5.7c1.4,1.4,3.1,2.5,4.9,3.3c2.4,1.1,5.2,0.3,6.5-1.5c1.3-1.7,0.9-4-0.9-6.3
	c-0.1-0.1-0.2-0.3-0.3-0.4c2.6-2.4,5.4-4.6,7.6-7.2c1.5-1.9,3.1-2.8,5.4-2.8c2.7,0,5.4,0.1,8,0.2c6.1,0.2,11.2-3,12.7-8.5
	C108.6,125.6,108.1,121.1,106.1,117.1z M74.4,151.3l-0.7,0.3l-0.8,3.1l-1.4,0.6l-1.3-2.7l-1.2,2.8l-6.7-5.3c3.1-0.5,6-1.3,8.8-1.4
	C72.1,148.9,73.2,150.5,74.4,151.3z M103.3,133.8c-0.6,0.5-1.5,0.7-2.2,1c-2,2.3-4.7,1.9-7.3,1.9c-3.1,0-6.2-0.2-9.4-0.3l1.8-5.5
	c2.5,0.2,5,0.5,7.5,0.4c1.6-0.1,3.1-0.8,4.7-1.2c1.6-1.9,2.1-3.9,1.2-6.3c-0.5-1.5-1-3-1.4-4.5c-0.4-1.5-0.2-2.9,1.2-3.7
	c1.6-0.9,3.3-0.7,4.2,0.8c1.2,2,2.2,4.2,2.5,6.5C106.7,126.8,106.4,130.8,103.3,133.8L103.3,133.8z"/>
<path d="M53.5,145.4c-3.7-1.2-7.5-2.4-11-4.1c-3.4-1.6-6.4-4-9.6-6.4c2.4,3.1,5.4,5.6,8.9,7.5c1.7,0.6,3.3,1.3,5,2
	C49,145,51.2,145.4,53.5,145.4L53.5,145.4z"/>
<path d="M32.9,135c-0.6-0.4-1.2-0.9-1.8-1.3c-1.2,1.1,0.8,1.9,1.3,2.7c0.6,1,1.8,1.7,2.8,2.7c-10.1-0.1-18.7-6.5-18.9-17.2
	c-0.1-7.1,2.6-13.1,6.7-18.8c0.1,1.6,0.2,3,0.2,4.3l0.6,0.1l0.1-0.1c-0.1-5.2,0.6-10.3,2-15.3c-1.4,5-2.1,10.1-2,15.3
	c0.3-0.3,0.7-0.6,0.7-0.9c0.7-7,1.3-13.9,2.1-20.9c0.4-3.9-1.6-7-3.5-10.1c-5.2-8.7-10.5-17.3-15.7-26c-0.7-1.2-1.2-2.6-1.7-3.9
	l0,0.1c-0.6-1.8-1.3-3.7-1.9-5.5c-2.5-3.8-2.9-8-2.2-12.2c0.2-1,1.6-2.3,2.6-2.5c1.5-0.3,2.8,0.5,3.3,2.5c0.4,1.7,1.9,3.1,2.7,4.8
	c0.7,1.4,1.1,3-0.1,4.4c0.4-0.4,0.8-0.8,1-1c3,4.1,5.5,8.3,8.8,11.9c3.7,4,8.1,7.4,12.2,11.1c0.3,0.2,0.8,0.2,1.2,0.3
	c0.2-1.8,2-1.2,3.6-2c-1-0.4-1.5-0.9-1.9-0.9c-4.6,0-7.7-2.9-10.1-6.1c-6.8-8.8-4.7-19.8,4.7-26.5c3-2.1,5.9-3.9,9.6-4.2l-0.1,0.1
	c10.6-2.8,19.9,0.9,22.2,11.9c0.4,1.9-0.1,4-0.4,6c-0.7,4.6-1.4,9.3-4.4,13.2c-0.2,0.3-0.1,0.9-0.2,1.3c0.4,0,0.8-0.1,1.2-0.2
	c0.2-0.2,0.5-0.4,0.6-0.6l6.4,3.2l0.4-0.8l-6-3.2c4.2-9.6,5-19.6,4.8-29.6c-0.1-4.1-1-8.2-1.5-12.4c-0.2-1.2-0.3-2.4-0.2-3.5
	c0.3-3.2,3.1-4.6,5.5-2.5c1.5,1.3,3,3.2,3.4,5.1c1.5,6.6,2.5,13.3,3.6,19.9c0.1,9.6,0.7,19.2,0.3,28.7c-0.3,7.9-0.2,15.7,1.9,23.4
	c0.8,3,1.6,6.1,2.3,9.1c0.6,0.1,1.1,0.3,1.7,0.5c-0.8-3.6-1.7-7.2-2.5-10.8c-0.9-4.2-2-8.4-2.1-12.7c-0.2-6.4,0.6-12.8,0.7-19.2
	c0.3-11.3-0.5-22.6-2.7-33.7C73.5,9,72.5,5.2,69.8,2.2c-1.8-2-4.5-2.7-6.4-1.8c-1.9,0.8-3,3-2.8,5.6c0.4,4.2,1.2,8.4,1.6,12.6
	c0.3,2.8,0.1,5.6,0.1,8.4l-0.9,0.1c-0.9-2.7-1.9-5.4-2.7-8.1c-1.5-5.2-3.2-5.7-7.6-2.7c-0.9,0.6-2.1,0.9-3.2,0.9
	c-8.9-0.5-16.8,1.7-22.8,8.5c-2.1,2.4-3.9,4.6-7.5,4.9c-2.4,0.2-3,2-2,4.2c0.6,1.3,1.4,2.6,2.3,3.8c1.7,2.5,2.1,3.5,2,7.1
	c-2.5-3.8-4.9-7.6-7.1-11.6c-1.4-2.5-2.5-5.3-3.9-7.8c-0.5-0.9-1.3-1.7-2.2-2.2c-1-0.4-2-0.6-3.1-0.3c-2.2,0.4-3,2.2-3.4,4.3
	C0,28.9,0,29.7,0,30.6C0.2,37.6,2.7,44,6.1,50c5,8.9,10.4,17.6,15.8,26.3c2.4,3.8,3.8,7.7,3.1,12.2c-0.4,2.4-0.6,4.8-0.7,7.3
	c0,2.5-1,4.5-2.5,6.4c-4.3,5.5-7.1,11.6-7.2,18.8c-0.1,4.7,1.4,9.3,4.3,13c-0.8,0.1-1.4,0.1-2,0.3c-2.1,0.4-3.3,1.6-3.7,3.7
	c-0.4,1.9,0.7,3.2,2.2,4c1.3,0.6,2.7,1.1,4.2,1.4c3.6,0.8,6.6-1.5,9.9-2c2.9-0.4,6.2-0.7,8.9,0.1c1.1,0.3,2.1,0.7,3.2,1.1
	C38.3,140.6,35.3,138.1,32.9,135z M57.4,20.6l-5.2-2.7C55.4,14.8,56,15.1,57.4,20.6z M19.4,37.3l-0.5,0.2l-2-4.8l4.1-1.7L19.4,37.3z
	 M20.6,142.2c-0.3-1-0.4-1.6-0.7-2.6c-0.7,0.8-1.2,1.3-1.8,1.9l-2.1-1.1c0.2-0.8,0.3-1.5,0.5-2.5l-2.1,0.4c0.5-0.8,0.9-1.9,1.4-2
	c1.7-0.3,3.7-0.9,5.3-0.3c2.5,0.9,4.6,2.6,7.2,4.1L20.6,142.2z"/>
<path d="M82.3,101.8c0.5-0.5,0.9-1,1.3-1.5c-0.9-3.7-1.8-7.5-2.7-11.2c-0.5-0.2-1.1-0.4-1.7-0.5C80.3,93,81.3,97.4,82.3,101.8z"/>
<path class="st0" d="M62.4,40.1c-0.7,3.2-1.7,6.3-2.9,9.4C62,46.7,63.4,43.2,62.4,40.1z"/>
<path class="st0" d="M83,105.8L83,105.8C83.1,105.9,83.1,105.8,83,105.8L83,105.8z"/>
<path class="st0" d="M22.1,59.1c-0.1,0-0.1,0.1-0.2,0.1l-0.1,0.2l0.2-0.1L22.1,59.1z"/>
<path class="st0" d="M39.4,19.6L39.4,19.6L39.4,19.6L39.4,19.6z"/>
<path class="st0" d="M83.1,105.8C83.1,105.8,83.1,105.9,83.1,105.8L83.1,105.8l-4.8,0.3C79.9,104.7,81.4,104.6,83.1,105.8
	L83.1,105.8c-0.1-0.6-0.1-1.1-0.3-1.7l-0.5-2.3c-1.9,1.9-4.4,3.1-6.3,5c0.2,0,0.4,0,0.6,0c-1.8,3.2-3.4,5.9-5,8.6
	c-0.2,0.3-0.8,0.4-1.2,0.6c-0.1-0.4-0.4-0.9-0.3-1.1c0.7-1.3,1.5-2.6,2.2-3.8c-0.4,0.2-0.7,0.5-0.9,0.8c-1.3,2.6-2.4,5.2-3.5,7.9
	c0.3-0.1,0.6-0.1,0.8-0.2c0.1,0.4,0.4,0.9,0.2,1.2c-2.8,5.9-5.5,11.8-8.4,17.6c-0.8,1.6-2.4,2.8-3.7,4.1l-0.9,1l-0.3-0.2
	c-0.7,0.8-1.5,1.5-2.2,2.2c1.1,0.3,2.1,0.7,3.2,1.1c4.1,1.5,8.3,2.4,12.7,1c8.8-2.7,13.3-9.2,15.2-17.8
	C86.3,121.7,85.4,113.7,83.1,105.8z M63.5,145.3l-4.1-3.3l0.4-0.6l4.2,3.2L63.5,145.3z M76.1,110.6l5.1,0.4l0,0.8l-5.2-0.4
	C76.1,111.2,76.1,110.9,76.1,110.6z M68.4,141l8,1.6C74.9,144,70.4,143.2,68.4,141z M70.5,133.4l11.2,2.2
	C79.6,137.4,72.8,136.2,70.5,133.4L70.5,133.4z M68.3,124.6l13.4,4C79.7,130.1,71.1,127.8,68.3,124.6L68.3,124.6z M74.5,118.5
	l10.3,2C82,121.8,76,120.7,74.5,118.5L74.5,118.5z"/>
<path class="st0" d="M29.1,89.6c-1,0.7-1.9,1.4-2.8,2.1c-0.5,4.9-0.9,9.8-1.4,14.7c0,0.3-0.4,0.6-0.7,0.9c0,1.6,0.1,3.1,0.3,4.7
	c0.3,0.3,0.5,0.6,0.6,1c0.3,5.7,1.8,11.3,4.4,16.4c0,0.1,0.1,0.2,0.1,0.3c0.4,0.7,0.8,1.5,1.3,2.2c-2.3-9-2.6-18.7-2.9-27.8
	C27.6,99.3,27.8,94.4,29.1,89.6z"/>
<path class="st0" d="M79.2,88.6c-0.1-0.3-0.1-0.6-0.2-1c-1.4-0.8-2.9-1.5-4.4-2.2c2,7.9,0.4,16-1.3,24c0.5-0.8,1-1.6,1.5-2.4
	c0.1-0.2,0.6-0.2,1.2-0.2c1.9-1.9,4.4-3.1,6.3-5C81.3,97.4,80.3,93,79.2,88.6z M77,102l3.1-4.3C80.4,99.4,79.6,100.6,77,102L77,102z
	"/>
<path class="st0" d="M29.4,131c-0.4-0.3-1.1-0.4-1.3-0.8c-1.2-2.6-2.2-5.2-3.3-7.8h0c-2.7,1.5-5-0.1-7.5-0.3l0.1-1.1l7.4,1.4
	c-0.5-3.1-1-6.1-1.4-9.2c-0.1-0.5,0.4-1.1,0.6-1.6c0.1,0.2,0.3,0.4,0.5,0.5c-0.2-1.6-0.2-3.1-0.3-4.7l-0.1,0.1l-0.6-0.1
	c-0.1-1.4-0.2-2.8-0.2-4.3c-4.2,5.7-6.9,11.7-6.7,18.8c0.2,10.7,8.8,17,18.9,17.2c-1.1-1-2.2-1.6-2.8-2.7c-0.5-0.8-2.5-1.6-1.3-2.7
	c0.6,0.4,1.2,0.9,1.8,1.3c-1.3-1.6-2.4-3.4-3.4-5.2C29.5,130.2,29.4,130.6,29.4,131z M18.1,115.4l4.8,0.9c0,0.2-0.1,0.4-0.1,0.6
	L18,116C18,115.8,18.1,115.6,18.1,115.4z M26.1,134l-4.1-0.4l0.1-0.9l4.1,0.3C26.1,133.3,26.1,133.7,26.1,134z M19.6,127.1l6.6,0.7
	C25,129.2,21.5,128.9,19.6,127.1z"/>
<path class="st0" d="M26.9,85.6c-0.2,2.1-0.4,4.1-0.6,6.2C40.9,79.6,62.6,78.4,79,87.6c-0.7-2.7-1.3-5.5-2.1-8.2
	c-2-7.7-2.2-15.4-1.9-23.4c0.4-9.6-0.2-19.1-0.3-28.7c-2.4-0.2-4.8-0.3-7.2-0.5c-0.7-0.1-1.4-0.4-1.9-0.9c2.1,0,4.2,0,6.3,0.2
	c1,0.1,1.8,0.8,2.7,1.2c-1.2-6.6-2.2-13.3-3.6-19.9c-0.4-1.9-1.9-3.7-3.4-5.1c-2.4-2.1-5.3-0.8-5.5,2.5c-0.1,1.2,0,2.4,0.2,3.5
	c0.5,4.1,1.4,8.2,1.5,12.4c0.2,6.5-0.1,13-1.5,19.4c1,3-0.4,6.5-2.9,9.4c-0.1,0.3-0.2,0.6-0.4,0.9l6,3.2l-0.4,0.8l-6.4-3.2
	c-0.2,0.2-0.4,0.4-0.6,0.6c-0.2,0.1-0.4,0.1-0.7,0.1c-1.1,0.9-2.3,1.6-3.5,2.2l-0.7,0.3l0.3,0.8c-2.2,0.7-4.5,1.5-6.7,2.1
	c-1.2,0.2-2.5,0.3-3.7,0.3c-0.2,0-0.3-0.1-0.4-0.2c-2,0.3-4,0.4-6,0.3c-1.2,0.3-2.4,0.2-2.6,1.6c-0.4-0.1-0.9-0.1-1.2-0.3
	c-1-0.9-2-1.8-3.1-2.6c-0.8-0.3-1.6-0.6-2.4-1c0.8,0.4,1.6,0.7,2.4,1l-2.5-2.1c-2.3-2-4.6-4.1-6.7-6.3c-3.3-3.6-5.9-7.8-8.8-11.9
	c-0.2,0.2-0.6,0.6-1,1l-6.2,3.1L6,45.5H6c0.2-0.4,0.4-0.9,0.8-1.1c1.6-0.8,3.3-1.5,4.9-2.2c0.2,1.5-2.2,2.9-5.7,3.3l0,0.1v-0.1
	c0.5,1.3,1.1,2.6,1.7,3.9c5.2,8.7,10.5,17.4,15.7,26C25.3,78.6,27.3,81.6,26.9,85.6z M74.3,72.7l-3.5-1.9l0.3-0.7l3.6,1.7L74.3,72.7
	z M74.4,32.9c-3.4,0.8-6.8,1.1-10-0.1l0.1-0.7L74.4,32.9z M71.2,20.4c-1.8,1.5-4.7,1.3-6.7-0.4L71.2,20.4z M70.8,14.4
	c-1.5,2.1-3,0.3-4.4,0h-0.7c0.2-0.1,0.5-0.1,0.7,0L70.8,14.4z M65.3,5.8c0.4,0.6,0.9,1.1,1,1.7c0.1,0.3-0.6,0.8-1.3,1.6
	c-0.4-1.1-0.8-1.7-0.8-2.3C64.3,6.5,64.9,6.2,65.3,5.8L65.3,5.8z M74.5,40.6c-1.1,1.5-8.9,0.8-11.5-1.4L74.5,40.6z M63.9,46.3
	l8.1,1.6C69.8,49.1,68.2,48.7,63.9,46.3L63.9,46.3z M64.7,57.4l5.5,4.5l-0.7,0.8l-5.4-4.6L64.7,57.4z M20.2,49.6
	c0.1,2-2.2,4.7-4.8,5.3L20.2,49.6z M16.4,62.2l5.4-2.9l0.1-0.2c0.1,0,0.1-0.1,0.2-0.1L25,54l0.7,0.5c-0.8,1.8-1.6,3.7-3.6,4.6
	L22,59.3l-0.2,0.1C20.7,61.4,18.5,62.7,16.4,62.2L16.4,62.2z M21.3,69.5l6.4-10.1l0.6,0.4C26.7,63.4,24.7,66.9,21.3,69.5L21.3,69.5z
	 M26.9,78.1l-1-0.3c1.5-4.2,3-8.5,4.5-12.7l1,0.3L26.9,78.1z"/>
<path class="st0" d="M65.7,14.5h0.7C66.2,14.4,65.9,14.4,65.7,14.5z"/>
<path class="st0" d="M39.7,21.6c0,0.1,0,0.1-0.1,0.2c-0.2,0.3-0.4,0.6-0.7,0.7l1,0.3C39.8,22.3,39.7,22,39.7,21.6z"/>
<path class="st0" d="M40,19.9c0-0.1,0-0.3,0-0.4l-0.6,0.1v0.1C39.6,19.7,39.8,19.8,40,19.9z"/>
<path class="st0" d="M61.6,31.5C59.3,20.7,50.3,17,40,19.4c0,0.2,0,0.3,0,0.4c0.9,0.6,1,1.6,0.4,2.5c-0.4,0.6-1.7,1-2.5,0.9
	c-1.2-0.1-2.2-0.8-3.4-1.2l0.3-0.8c-0.2-0.1-0.5-0.2-0.7-0.2c-1.5,0.8-2.9,1.7-4.3,2.7c-9.3,6.6-11.5,17.6-4.7,26.5
	c0.7,1,1.5,1.9,2.4,2.8c3.1-6.3,3.5-14.9,10.2-16.9c1.5-0.5,3-1,4.6-1.4c0.1-0.4,0.2-0.7,0.4-1c0.4-0.6,0.8-1.1,1.2-1.6
	c-0.3,0-0.5,0-0.8,0c0.3,0,0.6,0,0.8,0c0.2-0.3,0.4-0.6,0.7-0.9L43.9,31l-2.8-1.1c0.9-0.9,1.6-1.9,2.6-2.6c0.5-0.3,1.7-0.1,2.2,0.3
	c0.3,0.2-0.1,1.3,0.1,2c0.1,0.7,0.4,1.3,0.8,1.8c0.8-0.2,1.5-0.5,2.2-0.7c-0.7,0.2-1.4,0.4-2.2,0.7c0,0,0.1,0.1,0.1,0.1
	c0.5,0.4,1.3,0.4,2,0.6c-0.1,0.5-0.1,1.1-0.2,1.6c3.4-0.2,6.7,0.3,9.7,2c1,0.5,1.9,1.2,2.7,2.1l0-0.3C61.4,35.5,61.9,33.4,61.6,31.5
	z M31,33.9c-0.7-0.2-1.7-1.1-1.7-1.7c0.1-1.7,2-2.6,4.7-2c0.2,0.2,1.4,0.9,1.5,1.6C35.7,33.1,32.6,34.5,31,33.9L31,33.9z M54.5,25.2
	c-0.3,1.5-1.9,2.4-4.5,2c-0.2-0.3-0.8-0.9-0.8-1.5c0.1-1.4,2.1-2.5,3.6-2.2C53.7,23.6,54.7,23.8,54.5,25.2L54.5,25.2z"/>
<path class="st1" d="M34.8,21.3l2.2,0.7c0.6,0.2,1.2,0.3,1.9,0.5c0.3-0.1,0.6-0.4,0.7-0.7c0-0.1,0.1-0.1,0.1-0.2
	c-0.1-0.7-0.2-1.3-0.3-2l-0.1,0h0.1v-0.1c-1.8,0.2-3.6,0.7-5.3,1.5C34.3,21.1,34.6,21.2,34.8,21.3L34.8,21.3z"/>
<path class="st0" d="M6,45.5L6,45.5L6,45.5L6,45.5z"/>
<path class="st2" d="M37.2,57.3c-0.3,0.2-0.6,0.3-1,0.4c2,0.1,4,0,6-0.3c-0.1-0.1-0.2-0.2-0.3-0.4c-0.1-0.2,0.3-0.7,0.5-0.7
	c3.3-0.8,6.6-1.5,9.9-2.2c0.2,0,0.4,0.2,0.5,0.3l0.7-0.3c1.3-0.6,2.5-1.3,3.5-2.2c-0.2,0-0.4,0-0.5,0.1c0.1-0.4,0-1,0.2-1.3
	c3-3.8,3.7-8.4,4.4-12.9c-0.8-0.8-1.7-1.5-2.7-2.1c-3-1.7-6.3-2.2-9.7-2c-0.1,0.7-0.2,1.3-0.3,1.9c-0.3,1.6-1.7,2.3-3,1.5
	c-1.1-0.6-2.1-1.3-3-2.1c0,0,0-0.2,0-0.3c-1.6,0.4-3.1,0.9-4.6,1.4c-6.7,2-7.2,10.6-10.3,16.9c2,2,4.5,3.4,7.7,3.4
	C35.7,56.3,36.2,56.8,37.2,57.3z"/>
<path class="st3" d="M99.5,115.6c-1.5,0.9-1.6,2.2-1.2,3.7c0.1,0.5,0.3,1,0.4,1.5c2.3-0.2,4.7-0.3,6.8-0.6c-0.5-1.3-1.1-2.6-1.9-3.9
	C102.8,115,101.1,114.7,99.5,115.6z"/>
<path class="st0" d="M101.1,134.9c0.1-0.1,0.2-0.1,0.2-0.2C101.2,134.8,101.1,134.8,101.1,134.9L101.1,134.9z"/>
<path class="st3" d="M99.7,123.8c0.9,2.4,0.4,4.5-1.3,6.4c1,0.7,2.2,1.3,3.1,2.2c0.8,0.8,0.7,1.7-0.2,2.4c0.7-0.3,1.5-0.4,1.9-0.9
	c3.2-3,3.5-7,2.9-10.9c-0.1-0.9-0.4-1.8-0.7-2.6c-2.2,0.3-4.5,0.4-6.8,0.6C99,121.8,99.3,122.8,99.7,123.8z M101.8,125.9l3.6,0.3
	v0.7l-4.4,0.2L101.8,125.9z"/>
<path class="st2" d="M10.3,37l-6.2,3.1c-2.5-3.8-2.9-8-2.2-12.2c0.2-1,1.6-2.3,2.6-2.5c1.5-0.3,2.8,0.5,3.3,2.5
	c0.4,1.7,1.9,3.1,2.7,4.8C11.1,34,11.5,35.5,10.3,37z"/>
<path class="st4" d="M98.5,130.1c-1.6,0.4-3.2,1.2-4.8,1.2c-2.5,0.1-5-0.2-7.5-0.4l-1.8,5.5c3.2,0.1,6.3,0.3,9.4,0.3
	c2.6,0,5.3,0.4,7.3-1.9L98.5,130.1z"/>
<path class="st2" d="M15.8,136.4c-0.5,0.1-0.8,1.2-1.4,2l2.1-0.4c-0.2,1-0.3,1.7-0.5,2.5l2.1,1.1c0.6-0.6,1-1.1,1.8-1.9
	c0.3,1,0.4,1.6,0.7,2.6l7.8-2.1c-2.6-1.5-4.8-3.2-7.2-4.1C19.6,135.5,17.6,136,15.8,136.4z"/>
<path class="st2" d="M73.6,151.7l-0.8,3.1l-1.4,0.6l-1.3-2.7l-1.2,2.8l-6.7-5.3c3.1-0.5,6-1.3,8.8-1.4c1.1,0,2.2,1.6,3.3,2.4
	L73.6,151.7z"/>
<path class="st2" d="M21,31.1l-1.6,6.2l-0.5,0.2l-2-4.8L21,31.1z"/>
<path class="st2" d="M57.4,20.6l-5.2-2.7C55.4,14.8,56,15.1,57.4,20.6z"/>
<path class="st1" d="M101.1,134.9l-2.6-4.8l-0.1,0.1c1,0.7,2.2,1.3,3.1,2.2C102.4,133.3,102.2,134.2,101.1,134.9z"/>
<path d="M83.1,105.9L83.1,105.9l-0.1-0.1L83.1,105.9z"/>
<path class="st1" d="M78.3,106.1l4.7-0.3C81.4,104.6,79.9,104.7,78.3,106.1z"/>
<path d="M46,29.6c-0.2-0.7,0.2-1.7-0.1-2c-0.5-0.4-1.7-0.6-2.2-0.3c-1,0.6-1.7,1.7-2.6,2.6l2.8,1.1l0.8,0.2
	c-0.2,0.3-0.4,0.6-0.7,0.9c1-0.1,1.9-0.3,2.8-0.6C46.4,30.9,46.1,30.3,46,29.6z"/>
<path d="M46.8,31.4C45.9,31.7,45,31.9,44,32c-0.4,0.5-0.8,1.1-1.2,1.6c-0.3,0.4-0.5,1.2-0.4,1.3c1,0.8,2,1.5,3,2.1
	c1.3,0.8,2.7,0.1,3-1.5c0.2-1.1,0.3-2.2,0.4-3.5c-0.6-0.2-1.5-0.2-2-0.6C46.9,31.5,46.8,31.4,46.8,31.4z"/>
<path d="M56,143.5l0.9-1c1.2-1.4,2.9-2.6,3.7-4.1c3-5.8,5.7-11.7,8.4-17.6c0.1-0.3-0.1-0.8-0.2-1.2c-0.3,0.1-0.6,0.1-0.8,0.2
	c-3.3,8.5-6.2,17.1-12.2,23.5L56,143.5z"/>
<path d="M67.5,120c-0.5,0.9-0.9,1.9-1.3,2.8c-2.6,6.9-4.9,13.9-10.8,18.9c-0.1,0.1-0.2,0.3-0.2,0.4c0,0.2-0.1,0.3,0,0.5
	c0,0.2,0.3,0.3,0.6,0.6c6.1-6.5,8.9-15.1,12.2-23.5C67.8,119.8,67.6,119.8,67.5,120z"/>
<path d="M23.9,111.5c-0.2,0.6-0.6,1.1-0.6,1.6c0.4,3.1,1,6.2,1.4,9.2l0,0c1.1,2.6,2.2,5.2,3.3,7.8c0.2,0.4,0.8,0.6,1.3,0.8
	c0.1-0.4,0.1-0.8,0.2-1.2c-2.8-5.3-4.5-11.5-5.1-17.7C24.2,111.9,24,111.7,23.9,111.5z"/>
<path d="M25,113.1c-0.1-0.4-0.3-0.7-0.6-1c0.6,6.3,2.3,12.4,5.1,17.7c0-0.1,0-0.2-0.1-0.3C26.8,124.4,25.3,118.8,25,113.1z"/>
<path d="M34,30.3c0.2,0.2,1.4,0.9,1.5,1.6c0.2,1.2-2.9,2.6-4.6,2.1c-0.7-0.2-1.7-1.1-1.7-1.7C29.4,30.6,31.3,29.7,34,30.3z"/>
<path class="st1" d="M81.7,128.5l-13.4-4C71.1,127.8,79.7,130.1,81.7,128.5z"/>
<path d="M72.3,111c-0.8,1.3-1.5,2.5-2.2,3.8c-0.1,0.2,0.2,0.8,0.3,1.1c0.4-0.2,1-0.3,1.2-0.6c1.6-2.7,3.1-5.4,5-8.6
	c-0.2,0-0.4,0-0.6,0c-1,1-1.8,2.3-2.3,3.6C73.2,110.6,72.8,110.8,72.3,111z"/>
<path d="M72.3,111c0.4-0.2,0.9-0.4,1.3-0.5c0.5-1.4,1.3-2.6,2.3-3.6c-0.6,0-1.1,0-1.2,0.2C74,108.3,73.1,109.7,72.3,111z"/>
<path d="M26,77.8c1.5-4.2,3-8.5,4.5-12.7l1,0.3l-4.5,12.7L26,77.8z"/>
<path d="M49.9,27.2c-0.2-0.3-0.8-0.9-0.8-1.5c0.1-1.4,2.1-2.5,3.6-2.2c1,0.2,2,0.4,1.7,1.8C54.2,26.7,52.5,27.7,49.9,27.2z"/>
<path d="M53.1,55.2c-2.2,0.7-4.5,1.5-6.7,2.1c-1.2,0.2-2.5,0.3-3.7,0.3c-0.2,0-0.3-0.1-0.4-0.2c-0.1-0.1-0.2-0.2-0.3-0.4
	c-0.1-0.2,0.3-0.7,0.5-0.7c3.3-0.8,6.6-1.5,9.9-2.2c0.2,0,0.4,0.2,0.5,0.3L53.1,55.2z"/>
<path class="st1" d="M63,39.2l11.5,1.4C73.4,42.1,65.6,41.4,63,39.2z"/>
<path class="st1" d="M81.7,135.6l-11.1-2.1C72.8,136.2,79.6,137.4,81.7,135.6z"/>
<path class="st1" d="M21.3,69.5l6.4-10.1l0.6,0.4C26.7,63.4,24.7,66.9,21.3,69.5z"/>
<path class="st1" d="M84.8,120.5l-10.3-2C76,120.7,82,121.8,84.8,120.5z"/>
<path class="st1" d="M74.4,32.9c-3.4,0.8-6.8,1.1-10-0.1l0.1-0.7L74.4,32.9z"/>
<path class="st1" d="M74.7,27.3c-2.4-0.2-4.8-0.3-7.2-0.5c-0.7-0.1-1.4-0.4-1.9-0.9c2.1,0,4.2,0,6.3,0.2
	C72.9,26.2,73.8,26.9,74.7,27.3L74.7,27.3z"/>
<path class="st1" d="M76.4,142.5l-8-1.5C70.4,143.2,74.9,144,76.4,142.5z"/>
<path d="M39.3,19.6c0.9,0.3,2.3,0.8,1.1,2.8c-0.4,0.6-1.7,1-2.5,0.9c-1.2-0.1-2.2-0.8-3.4-1.2c0.1-0.3,0.2-0.5,0.3-0.8l2.2,0.7
	l2.8,0.8C39.6,21.5,39.5,20.5,39.3,19.6L39.3,19.6z"/>
<path class="st1" d="M63.9,46.3l8.1,1.6C69.8,49.1,68.2,48.7,63.9,46.3z"/>
<path d="M69.5,62.7l-5.4-4.6l0.6-0.7l5.5,4.5L69.5,62.7z"/>
<path class="st1" d="M17.2,122c2.5,0.2,4.8,1.8,7.5,0.3c-2.5-0.5-4.9-1-7.4-1.4L17.2,122z"/>
<path class="st1" d="M26.2,127.8l-6.6-0.7C21.5,128.9,25,129.2,26.2,127.8z"/>
<path class="st1" d="M64.5,20l6.7,0.4C69.4,21.9,66.5,21.7,64.5,20z"/>
<path class="st1" d="M15.4,54.8l4.8-5.3C20.3,51.5,18,54.2,15.4,54.8z"/>
<path class="st1" d="M6,45.6c0.3-0.4,0.4-1,0.8-1.2c1.6-0.8,3.3-1.5,4.9-2.2C11.9,43.7,9.5,45.1,6,45.6L6,45.6z"/>
<path class="st1" d="M22.8,116.9L18,116c0-0.2,0.1-0.4,0.1-0.6l4.8,0.9L22.8,116.9z"/>
<path class="st1" d="M21.9,59.2c-1.1,2.1-3.4,3.6-5.5,3.1L21.9,59.2L21.9,59.2z"/>
<path class="st1" d="M21.9,59.2L21.9,59.2C23,57.5,24,55.8,25,54l0.7,0.5C24.9,56.4,24.1,58.3,21.9,59.2z"/>
<path d="M59.4,142l4.1,3.3l0.6-0.7l-4.2-3.2L59.4,142z"/>
<path class="st1" d="M76.1,111.5l5.2,0.4l0-0.8l-5.1-0.4C76.1,110.9,76.1,111.2,76.1,111.5z"/>
<path class="st1" d="M22,133.6l4.1,0.4c0-0.3,0-0.7,0.1-1l-4.1-0.3L22,133.6z"/>
<path d="M80.1,97.7L77,102C79.6,100.6,80.4,99.4,80.1,97.7z"/>
<path class="st1" d="M65,9.2c-0.4-1.1-0.8-1.7-0.8-2.3c0-0.4,0.7-0.7,1-1c0.4,0.6,0.9,1.1,1,1.7C66.3,7.9,65.7,8.3,65,9.2z"/>
<path class="st1" d="M65.7,14.5l5-0.1C69,16.8,67.2,14.1,65.7,14.5z"/>
<path d="M74.3,72.7l-3.5-1.9l0.3-0.7l3.6,1.7L74.3,72.7z"/>
<path class="st5" d="M101,127.1l0.7-1.2l3.6,0.3c0,0.2,0,0.5,0,0.7L101,127.1z"/>
<path class="st2" d="M74.6,85.5c-14.3-36.7-24.7-29.2-32-27.9c-7.3,1.3-13.5,32.1-13.5,32.1c-1.3,4.7-1.5,9.7-1.2,14.6
	c0.3,9,0.6,18.8,2.9,27.8c0.7,1,1.4,2,2.1,3c3.2,2.3,6.2,4.7,9.6,6.4c3.5,1.7,7.3,2.8,11,4.1c0.8-0.7,1.5-1.4,2.2-2.2
	c-0.4-0.3-0.6-0.4-0.6-0.6s0-0.3,0-0.5c0-0.2,0.1-0.3,0.2-0.4c5.9-5,8.2-12.1,10.8-18.9c0.3-1,0.8-1.9,1.3-2.8
	c0.1-0.1,0.3-0.2,0.4-0.2c1.1-2.7,2.2-5.3,3.5-7.9c0.2-0.4,0.5-0.6,0.9-0.8c0.3-0.5,0.6-1,0.9-1.5c0.5-2.2,1-4.5,1.3-6.8
	C77.5,99.6,78,94.2,74.6,85.5z"/>
<path class="st1" d="M38.1,22.3l1.6-0.7l0.2,1.1L38.1,22.3z"/>
</svg>
