<?xml version="1.0" encoding="utf-8"?>
<!-- Generator: Adobe Illustrator 26.2.1, SVG Export Plug-In . SVG Version: 6.00 Build 0)  -->
<svg version="1.1" id="Layer_1" xmlns="http://www.w3.org/2000/svg" xmlns:xlink="http://www.w3.org/1999/xlink" x="0px" y="0px"
	 viewBox="0 0 206 103" style="enable-background:new 0 0 206 103;" xml:space="preserve">
<style type="text/css">
	.st0{clip-path:url(#SVGID_00000072974454041881260420000014706300408490174594_);}
	.st1{fill:#81BBDB;}
	.st2{fill:none;stroke:#FFFFFF;stroke-width:2;stroke-linecap:round;stroke-linejoin:round;}
</style>
<g>
	<defs>
		<rect id="SVGID_1_" y="0" width="206" height="103"/>
	</defs>
	<clipPath id="SVGID_00000125599720605186691100000002044454101176046474_">
		<use xlink:href="#SVGID_1_"  style="overflow:visible;"/>
	</clipPath>
	<g style="clip-path:url(#SVGID_00000125599720605186691100000002044454101176046474_);">
		<path class="st1" d="M16.1,76.7c1.4,0.8,3.2,1.5,5.4,2.2c0.5,0.2,0.8,0.6,0.9,1.1l1.4,21.9c0.1,1.3,1.8,1.6,2.3,0.5l10-19.7
			c0.2-0.5,0.7-0.7,1.2-0.7c47.3,6.2,148.8,1.6,161.5-14.5c9.8-12.4,10.3-47.6-3-58.1C177.7-5,30.5-2.7,10.6,15.6
			C-9.2,33.9,2.2,68.8,16.1,76.7L16.1,76.7z"/>
		<path class="st2" d="M199.8,47.6c-2.5,8.5,0,21.9-32.6,25.1"/>
		<path class="st2" d="M9.3,56.7c-5.9-16.6-1.4-34.5,11.9-40"/>
	</g>
</g>
</svg>
