<svg width="74" height="117" viewBox="0 0 74 117" fill="none" xmlns="http://www.w3.org/2000/svg">
<path d="M55.7653 5.53123C56.8876 4.31245 56.8095 2.41456 55.5907 1.29218C54.3719 0.169804 52.474 0.247958 51.3517 1.46674L55.7653 5.53123ZM47.2785 73.5948L47.3887 70.5969L47.2785 73.5948ZM9.79941 36.2049L11.6427 38.5718L9.79941 36.2049ZM67.9391 116.588L52.9598 85.3534L33.3992 113.943L67.9391 116.588ZM51.3517 1.46674C40.8396 12.8818 27.6219 30.3894 22.8199 45.5206C20.4284 53.0562 19.8913 60.7479 23.7822 66.7613C27.7233 72.852 35.5015 76.1638 47.1682 76.5928L47.3887 70.5969C36.5103 70.1969 31.1909 67.1665 28.8197 63.5018C26.3982 59.7596 26.3341 54.2824 28.5388 47.3356C32.929 33.5019 45.3965 16.7907 55.7653 5.53123L51.3517 1.46674ZM47.1682 76.5928C54.4374 76.8601 60.1169 76.0767 64.3098 74.3346C68.5806 72.5602 71.4313 69.7209 72.5578 66.0029C73.65 62.398 72.9505 58.5192 71.3411 54.9039C69.721 51.2647 67.066 47.6204 63.7836 44.2627C57.2287 37.5574 47.7936 31.6115 37.8112 28.9574C27.8018 26.2961 16.8926 26.8782 7.95606 33.838L11.6427 38.5718C18.6574 33.1087 27.4541 32.4121 36.2695 34.7559C45.112 37.1069 53.6208 42.4499 59.4931 48.4569C62.4243 51.4554 64.6039 54.5231 65.8597 57.3441C67.1262 60.1891 67.344 62.5188 66.8155 64.2631C66.3213 65.8944 65.0133 67.5451 62.0077 68.7938C58.9244 70.0749 54.2102 70.8477 47.3887 70.5969L47.1682 76.5928ZM7.95606 33.838C2.24412 38.2865 -0.186253 43.9226 0.140738 50.1482C0.455935 56.1494 3.31187 62.4027 7.44408 68.4752C15.726 80.6459 29.9796 93.2992 43.8466 103.736L47.4547 98.9421C33.7261 88.6095 20.1176 76.4344 12.4045 65.0997C8.53926 59.4195 6.36449 54.2508 6.13248 49.8335C5.91226 45.6408 7.41819 41.8619 11.6427 38.5718L7.95606 33.838Z" fill="#7FBBDD"/>
</svg>
