<svg width="96" height="93" viewBox="0 0 96 93" fill="none" xmlns="http://www.w3.org/2000/svg">
<path d="M30.9266 6.71905C30.4688 7.51867 28.0292 10.6875 27.2362 8.97471C26.8363 4.77058 27.5563 1.30097 30.9266 6.71905Z" fill="#232323"/>
<path d="M94.0706 61.3513C92.3422 57.6357 89.4359 54.5555 86.5258 51.5953C89.5477 48.6341 84.8601 44.6677 81.9832 43.348C66.3449 36.3556 73.0896 39.1751 70.1191 24.7965C69.142 20.8779 69.3834 16.4402 67.5802 12.806C65.691 11.5998 63.9098 13.7711 60.9881 12.2225C59.8415 8.87033 63.9314 -2.50883 56.3388 1.37155C52.8486 4.29405 49.2626 1.07785 45.1634 1.35297C41.2403 1.3664 37.0925 1.53497 33.5684 3.2884C30.0487 0.913049 25.3183 -1.69883 24.9475 4.57344C24.7512 8.32277 23.7462 11.932 22.8903 15.5845C17.959 17.2926 9.60693 11.4908 9.86613 14.4534C7.35463 19.3307 8.742 25.4631 9.42982 30.7513C-0.0105221 34.2398 -1.7465 38.3697 3.02792 46.7663C8.42753 57.3207 14.7061 67.8091 23.8516 75.9864C27.9554 80.0977 33.5933 82.6827 38.0423 86.148C41.8582 92.212 55.5648 95.1386 57.4936 86.4908C65.766 84.6196 73.7288 81.2736 81.2277 77.5218C87.4025 73.9118 99.1744 69.8993 94.0706 61.3513ZM53.9402 4.14115C62.0289 -0.422144 58.9016 2.39104 59.5236 11.5451C56.424 10.115 54.0942 7.41421 53.2669 4.29158C53.4936 4.27458 53.72 4.22876 53.9406 4.14114L53.9402 4.14115ZM26.4555 4.29785C26.3633 1.50882 28.7622 1.50039 30.5608 3.13464C31.3482 3.60078 32.2279 4.29552 33.1333 4.54711C31.7598 7.58051 29.316 10.6158 25.5223 10.8889C25.9783 8.71353 26.2716 6.51323 26.4555 4.29785ZM58.4044 8.84416C58.2845 7.95411 59.5461 3.78345 57.8619 4.23215C57.0339 5.05054 56.3812 6.26326 56.0468 7.33602C56.3263 7.97749 57.699 9.82801 58.4047 8.8438L58.4044 8.84381L58.4044 8.84416Z" fill="#232323"/>
<path d="M85.5855 47.9599C87.6358 51.2057 83.5055 50.9051 81.2152 51.1229C77.7654 51.8294 74.192 52.3879 71.0858 54.0562C67.0701 56.1654 64.1995 59.7203 60.1761 61.8154C57.2964 63.2516 53.9685 63.8253 51.3318 65.6922C46.3901 68.2039 42.2383 77.7987 35.963 75.6709C44.8939 69.1155 42.9603 64.3237 56.1647 60.4995C60.0697 58.9849 61.9552 55.2283 65.2472 52.9695C70.7494 49.1789 79.0949 46.6435 85.5855 47.9603L85.5855 47.9599Z" fill="#9DCFFC"/>
<path d="M84.6683 65.0783C85.1535 67.1333 86.6674 70.2572 83.4559 70.6941C81.3347 64.1852 80.0391 63.8976 82.9115 70.8138C79.782 71.4006 78.2599 65.1451 75.65 63.4064C78.8149 61.5041 82.469 60.367 86.2327 60.1215C86.653 63.0123 88.6648 67.0959 86.0219 69.4149C86.0343 68.8671 85.4938 63.5943 84.6687 65.0787L84.6683 65.0787L84.6683 65.0783Z" fill="#7F6A5C"/>
<path d="M77.194 71.6225C75.9875 66.5839 69.4916 67.0314 65.5774 65.2459C66.9703 63.2924 69.6195 62.3947 71.8968 61.6007C75.5807 64.3535 77.408 68.6637 80.511 71.7514C79.3552 72.2951 78.2195 72.8743 77.1057 73.4888C77.2818 72.895 77.3223 72.2663 77.194 71.6229L77.194 71.6225Z" fill="#CDEAFC"/>
<path d="M69.7781 70.999C71.6695 71.9084 73.5466 73.0553 74.6298 74.8049C73.8977 75.4572 73.0672 75.9159 72.1592 76.3273C71.8662 75.6503 64.9573 71.0861 65.8284 72.9792C68.0019 73.7808 69.9704 75.0073 71.6135 76.5491C68.25 78.0244 64.969 75.7805 61.6291 75.3632C62.6537 72.2319 64.615 69.4131 67.257 67.2563C70.9124 67.7305 78.3323 69.8923 75.0292 74.404C74.959 73.5963 69.2943 69.238 69.7785 70.999L69.7781 70.999Z" fill="#7F6A5C"/>
<path d="M44.9247 73.2474C45.2623 72.9204 45.5961 72.5892 45.9287 72.2562C51.8924 76.574 59.965 75.5426 66.7198 78.0532C62.6827 79.3818 58.714 80.8849 54.8265 82.5537C50.0713 81.1869 43.9158 78.9251 44.925 73.247L44.9247 73.2474Z" fill="#CDEAFC"/>
<path d="M75.2556 63.0369C74.2666 62.1608 73.5324 60.873 72.2544 60.3575C69.2859 60.3265 59.8745 65.3973 66.6228 67.1236C64.0261 69.3194 62.1018 72.1643 61.089 75.2941C56.2622 74.4664 50.9491 74.2492 46.9214 71.3286C51.5054 65.4379 57.8318 65.0426 63.6304 61.2058C68.6957 56.6701 74.4472 53.0434 81.6301 52.3808C83.8059 54.3825 85.2856 56.8845 86.0761 59.6319C82.2277 59.9018 78.4854 61.0754 75.256 63.0369L75.2556 63.0369Z" fill="#F0E6D5"/>
<path d="M70.5146 40.9724C70.5738 40.3431 70.6283 39.7123 70.6439 39.0819C75.137 42.1214 81.1108 43.2648 84.956 47.0844C71.5382 46.9168 66.1588 51.0827 57.3222 59.344C41.4481 65.2876 46.9029 65.4838 36.3724 74.8371C33.8164 76.3156 30.5224 70.9229 28.1964 69.6951C19.6944 64.77 24.6379 58.7702 28.2773 52.4551C36.924 58.0884 55.7016 59.8811 57.6476 47.2227C62.714 50.2798 70.5118 46.6802 70.515 40.9728L70.5146 40.9728L70.5146 40.9724Z" fill="#CDEAFC"/>
<path d="M10.0416 34.8911C11.2998 41.2719 10.2929 48.2262 12.8043 54.3105C14.5567 56.0437 18.7991 52.1638 22.3328 52.5971C17.9616 60.5318 19.3443 64.6495 26.6923 70.2613C29.4003 73.0403 33.8658 74.7033 33.9241 78.7702C20.8978 70.1606 11.2522 56.5241 6.03873 42.5757C4.28236 39.3708 8.05235 37.0589 10.042 34.8911L10.0416 34.8911Z" fill="#CDEAFC"/>
<path d="M58.3036 22.0374C58.7602 21.9146 59.2195 21.8014 59.6801 21.6951C59.6724 22.0352 59.6345 22.3794 59.5697 22.7213C57.7092 22.3839 56.8182 24.3632 59.092 24.1283C54.4694 30.1005 50.6239 21.634 46.0933 21.2826C39.9005 21.9868 36.1753 30.1097 29.0243 24.8582C29.4526 24.3287 28.6727 23.529 28.0537 23.9038C27.8474 23.6524 27.6617 23.3841 27.4975 23.1011C28.3183 22.7904 27.801 21.5675 26.954 21.8393C26.8825 21.5937 26.8296 21.3442 26.7944 21.0917C27.6351 20.8604 27.3308 19.6938 26.4762 19.739C28.1001 4.78735 59.8583 3.25188 59.6328 20.2938C59.0506 20.4223 58.4711 20.5624 57.8957 20.7173C56.9863 20.9621 57.3896 22.2829 58.3036 22.037L58.3036 22.0374Z" fill="#7F6A5C"/>
<path d="M58.9681 25.2092C59.5237 24.3386 59.8875 23.7865 61.0961 23.9869C60.9959 24.5664 60.8411 25.1358 60.623 25.6908C60.0699 25.5348 59.519 25.3726 58.9681 25.2092Z" fill="#F0E6D5"/>
<path d="M59.9835 26.9715C55.1123 32.8739 45.1795 31.0747 38.0602 31.4984C33.5077 31.36 27.6997 30.8789 25.512 26.5326C29.4171 23.6083 30.9401 28.1565 35.628 26.813C39.7762 26.2749 41.9599 21.7497 46.2481 21.7687C50.2865 22.5456 52.9206 28.4994 57.7351 26.18C58.3415 26.656 59.256 26.695 59.9835 26.9718L59.9835 26.9715Z" fill="#F0E6D5"/>
<path d="M26.9053 23.2232C27.0782 23.5356 27.2786 23.8344 27.5015 24.1186C26.5885 24.4924 25.6964 24.9042 24.8286 25.3562C24.5659 24.8104 24.3559 24.2471 24.1915 23.6652C25.0886 23.4814 25.9937 23.3335 26.9053 23.2232Z" fill="#F0E6D5"/>
<path d="M25.1669 28.545C28.957 34.8996 55.6464 34.0544 60.2743 28.8361C67.4134 30.9813 73.1747 40.2967 66.4892 45.6274C66.3574 42.4152 65.1266 39.2857 63.0172 36.7363C63.9481 37.0908 64.5878 35.7486 63.5761 35.5093C63.0584 35.3681 62.5026 35.4553 62.0156 35.2847C52.9829 31.3545 46.9493 34.9698 39.494 39.6468C37.8512 39.4009 36.2333 38.9989 34.6714 38.4617C31.1004 39.6918 39.3285 41.0032 40.3636 41.0511C37.3247 45.2583 38.9333 50.8958 40.6318 55.3361C25.5402 53.9133 14.8385 41.1154 25.1673 28.545L25.1669 28.545Z" fill="#F0E6D5"/>
<path d="M62.0458 43.5689C60.4587 43.9098 58.9028 44.36 57.3855 44.9078C57.1746 44.2504 56.8558 43.6264 56.4143 43.0715C57.8181 41.9528 59.4055 41.0316 61.107 40.356C61.9783 38.6683 56.4681 42.2207 56.0615 42.6692C55.731 42.3241 55.3382 42.0202 54.9342 41.7568C54.7652 38.3386 59.089 36.6251 62.2537 36.6393C67.3038 42.5316 67.9382 50.352 57.5964 45.7536C57.5765 45.6399 57.5528 45.5268 57.5269 45.4141C58.0187 44.944 63.6886 44.1264 62.0462 43.5693L62.0458 43.5693L62.0458 43.5689Z" fill="#7F6A5C"/>
<path d="M48.7119 50.588C51.0609 50.5577 53.5268 50.4937 55.6778 49.5642C53.3245 54.698 46.678 55.9208 41.2481 55.3677C40.5029 53.6573 39.9546 51.8736 39.6156 50.0567C39.0528 46.897 38.4159 40.0515 43.6051 41.2378C47.4941 41.3502 52.3602 40.7892 55.1983 43.8034C52.4333 44.6059 49.5471 44.9928 46.6428 44.9389C45.4069 46.4038 54.6283 44.6713 55.5283 44.2517C59.7403 52.3658 47.2985 48.8115 48.7126 50.5883L48.7119 50.5883L48.7119 50.588Z" fill="#7F6A5C"/>
<path d="M46.1719 39.9761C44.6514 39.9627 43.1286 39.9935 41.6103 39.8862C46.9191 36.9318 52.7652 32.9412 59.1224 35.7909C58.3226 36.03 57.5458 36.3487 56.8194 36.7418C52.9337 36.4172 49.3236 37.9829 46.1719 39.9761Z" fill="#9DCFFC"/>
<path d="M56.036 37.2055C54.6766 38.13 53.5765 39.4627 53.5603 41.0584C51.5939 40.2308 49.2877 40.0279 47.1677 39.9759C49.8357 38.38 52.8421 37.1277 56.036 37.2055Z" fill="#CDEAFC"/>
<path d="M24.5352 49.9952C25.5052 50.8593 26.6093 51.5821 27.7473 52.2424C25.5099 56.1105 22.7566 59.9796 22.7414 64.5397C18.6322 59.8083 23.7977 54.9054 24.5352 49.9952Z" fill="#9DCFFC"/>
<path d="M61.4739 27.3356C62.4406 27.5978 63.4105 27.8486 64.3848 28.0858C65.3012 28.3089 65.6753 26.987 64.7596 26.7638C63.8594 26.5444 62.9625 26.3124 62.0685 26.0719C62.321 25.4001 62.4941 24.7057 62.598 23.9973C63.6118 23.8219 65.3102 24.7485 65.8813 23.7037C65.9793 22.3099 63.6786 22.875 62.7199 22.6458C62.7397 22.1217 62.7319 21.5943 62.6992 21.0674C63.6404 20.7109 65.5673 21.2668 65.8119 20.0886C65.5346 18.77 63.5415 19.7482 62.5677 19.7077C62.3097 17.6638 61.7498 15.6935 61.3425 13.6772C63.8664 14.981 66.7005 13.0855 66.8745 14.0515C68.1952 20.9814 69.6001 27.9842 69.8913 35.0359C68.1272 31.7761 64.7414 29.2571 61.218 27.7528C61.3076 27.6149 61.3934 27.476 61.4743 27.3353L61.4739 27.3356Z" fill="#9DCFFC"/>
<path d="M61.2383 21.3253C61.2612 21.7606 61.2649 22.1953 61.2466 22.6274C60.8837 22.6284 60.5205 22.6372 60.1574 22.6502C60.2191 22.2811 60.2487 21.9073 60.2541 21.5316C60.5817 21.4608 60.909 21.3883 61.2383 21.3253Z" fill="#F0E6D5"/>
<path d="M30.6101 3.23398C28.8119 1.60053 26.4143 1.60861 26.5065 4.39687C26.3226 6.61164 26.0298 8.81134 25.5736 10.9861C29.3658 10.7131 31.8086 7.67863 33.1815 4.64607C32.2764 4.39454 31.3971 3.7 30.6101 3.23398ZM27.2362 8.97507C26.836 4.76966 27.5565 1.299 30.9291 6.71873C30.471 7.51859 28.0298 10.6884 27.2362 8.97507Z" fill="#7F6A5C"/>
<path d="M27.2362 8.97471C26.8363 4.77058 27.5563 1.30097 30.9266 6.71905C30.4688 7.51867 28.0292 10.6875 27.2362 8.97471Z" fill="white"/>
<path d="M54.0505 4.19534C53.8306 4.28255 53.6041 4.32835 53.3776 4.34569C54.2039 7.4664 56.5314 10.1659 59.6269 11.5947C59.0057 2.44631 62.1293 -0.36515 54.0502 4.19534L54.0505 4.19534ZM58.5091 8.89512C57.8041 9.87872 56.4331 8.02934 56.1538 7.38826C56.4882 6.31615 57.1398 5.10383 57.9669 4.28629C59.6494 3.83752 58.3889 8.00597 58.5087 8.89547L58.5091 8.89547L58.5091 8.89512Z" fill="#7F6A5C"/>
<path d="M56.1581 7.38673C56.4923 6.31482 57.1434 5.10273 57.9699 4.28534C59.6513 3.83665 58.3917 8.00432 58.5114 8.89366C57.8069 9.87708 56.4368 8.02804 56.1577 7.38708L56.1581 7.38708L56.1581 7.38673Z" fill="white"/>
<path d="M61.1142 20.0187C60.8036 20.0757 60.4958 20.1376 60.1849 20.2024C60.3424 2.58542 27.6184 4.1708 25.9207 19.6688C25.2349 19.5664 24.5468 19.4904 23.859 19.4401C23.9798 17.5631 24.4092 15.6947 24.856 13.8832C25.0821 13.0857 25.283 12.2834 25.4586 11.4786C25.4985 11.3036 25.5359 11.1311 25.5701 10.9559C29.368 10.6823 31.8144 7.64154 33.1894 4.60271C33.3752 4.6564 33.5634 4.68894 33.7517 4.69824C33.8528 4.70284 33.9535 4.69934 34.0575 4.68843C36.1509 3.57054 38.5525 3.12397 40.9376 2.93814C43.491 2.73813 46.1623 2.58734 48.6794 3.12331C50.0465 3.20285 51.4379 4.15636 52.764 4.32739C52.9578 4.35215 53.1514 4.36141 53.3451 4.34707C54.1733 7.47529 56.5061 10.1813 59.6086 11.6135L59.6086 11.616C59.625 11.8117 59.6387 12.0099 59.6551 12.2133C59.8447 14.4612 60.2627 17.0677 61.1142 20.0187Z" fill="#F0E6D5"/>
<path d="M26.2005 21.1043C26.2375 21.3828 26.2937 21.6569 26.37 21.9253C25.5446 22.0357 24.7248 22.1725 23.9114 22.3357C23.8372 21.8262 23.7982 21.3147 23.7864 20.8031C24.5953 20.8624 25.4008 20.9619 26.2008 21.1039L26.2005 21.1043Z" fill="#F0E6D5"/>
<path d="M13.3837 15.6948C16.1897 17.1471 19.452 17.4225 22.583 17.0073C22.4489 17.7955 22.3442 18.5867 22.2938 19.3813C18.3061 19.0185 18.0444 21.2672 22.2626 20.7464C22.2724 21.3816 22.3226 22.0238 22.4234 22.6538C21.5911 22.8568 20.7667 23.0878 19.9517 23.3521C19.0658 23.6394 19.4632 24.9584 20.3574 24.6686C21.1304 24.4179 21.9135 24.1946 22.704 23.9968C22.8958 24.7062 23.1533 25.3994 23.4862 26.0686C22.7243 26.7451 20.6209 27.2313 21.0211 28.4383C22.0027 29.4535 23.1872 27.5847 24.1763 27.2757C24.23 27.36 24.2875 27.4425 24.3427 27.526C20.4705 31.8193 18.7109 37.8236 20.3207 43.331C20.7548 46.3051 24.3704 48.279 22.7904 51.273C20.1554 51.5114 17.3856 51.7762 15.1751 53.2583C16.9128 47.1805 14.096 40.9245 14.5929 34.7652C15.7232 28.0513 14.7675 21.3516 11.8283 15.1129C12.3627 15.2505 12.8773 15.4682 13.3837 15.6955L13.3837 15.6948Z" fill="#9DCFFC"/>
<path d="M10.7764 15.3218C10.8149 15.1958 10.8109 15.0828 10.7821 14.9823C13.4749 18.8783 14.5927 24.8835 14.4258 29.7798C13.6431 35.1233 14.0424 40.4288 14.9487 45.7391C15.0018 48.1331 15.7112 51.8636 14.0959 53.5641C11.6644 48.0951 12.7484 41.2844 11.5515 35.3703C10.5546 28.7598 8.78713 21.9095 10.7768 15.3218L10.7764 15.3218Z" fill="#9FBDD3"/>
<path d="M26.1584 76.3072C18.9496 70.3137 13.5272 62.7515 8.93909 54.8983C6.12108 49.7641 2.54097 44.5846 1.62232 38.8154C1.96995 35.1749 6.4945 33.538 9.57514 32.1123C10.9702 36.873 2.18389 37.6602 5.85497 43.7861C9.59212 54.3813 16.7235 63.6476 24.5793 71.958C27.3406 74.8699 30.3909 77.6534 34.1194 79.462C34.4929 80.66 34.9948 81.8181 35.6195 82.9224C32.2627 80.9831 29.0919 78.7731 26.158 76.3068L26.1584 76.3068L26.1584 76.3072Z" fill="#9DCFFC"/>
<path d="M49.0712 90.527C41.4671 90.3935 35.9616 83.1208 34.924 76.6427C38.004 78.3513 41.2906 76.7844 43.4696 74.5848C43.4458 79.5422 48.521 82.1987 53.0859 83.3146C59.7574 85.4549 53.822 91.1991 49.0712 90.527Z" fill="#7F6A5C"/>
<path d="M93.2739 68.0709C83.4211 76.5746 70.0954 81.4675 57.3726 85.2026C57.1418 84.2445 56.4079 83.3605 55.4859 82.8456C60.7314 80.6051 65.966 78.4402 71.6673 77.9067C76.0055 76.8021 78.0116 71.5273 82.9195 72.1322C86.4212 71.7263 88.269 68.9373 90.1166 66.6174C91.0999 64.3672 89.1257 62.2566 88.1104 60.3245C86.5881 57.5983 85.8563 54.4152 83.3722 52.212C87.2364 51.0755 96.332 64.7174 93.2739 68.0709Z" fill="#9DCFFC"/>
<path d="M58.5117 8.89329C57.8073 9.87671 56.4371 8.02767 56.1581 7.38671C56.4923 6.31481 57.1434 5.10271 57.9699 4.28533C59.6513 3.83664 58.3917 8.00431 58.5114 8.89364L58.5117 8.89364L58.5117 8.89329Z" fill="#232323"/>
<path d="M56.7401 7.32332C57.1375 6.47988 57.6236 5.60881 58.173 4.83283C58.3255 6.08485 58.0277 7.35571 57.9476 8.60684C57.4987 8.22743 57.0507 7.80165 56.7397 7.32297L56.7401 7.32297L56.7401 7.32332Z" fill="#FCA2AB"/>
<path d="M30.9266 6.71905C30.4688 7.51867 28.0292 10.6875 27.2362 8.97471C26.8363 4.77058 27.5563 1.30097 30.9266 6.71905Z" fill="#232323"/>
<path d="M27.7321 6.76766C28.0387 2.9574 28.427 4.76578 30.3214 6.6543C30.0224 7.32345 28.9315 8.12582 28.3589 8.68932C27.3877 9.65284 27.8003 7.25693 27.7321 6.76801L27.7321 6.76766Z" fill="#FCA2AB"/>
<path d="M41.211 17.1893C37.9284 17.5914 34.6517 18.0503 31.3695 18.4615C28.7977 20.8478 37.2131 21.6284 38.7131 20.8028C40.3928 20.8368 44.5003 17.6349 41.2107 17.1893L41.211 17.1893Z" fill="#232323"/>
<path d="M33.1309 20.2596C29.589 18.8433 32.4238 18.8671 34.3751 18.5928C34.3619 19.3098 34.527 20.0655 35.0502 20.5911C34.3985 20.5539 33.7517 20.4551 33.1309 20.2596Z" fill="#63CDF7"/>
<path d="M41.4137 18.8524C40.918 19.3814 40.2565 19.7701 39.5504 20.0102C39.7056 19.3158 39.6198 18.5948 39.3267 17.936C40.3318 17.8414 42.9772 17.1595 41.4137 18.8524Z" fill="#63CDF7"/>
<path d="M46.8612 18.1056C47.2812 21.6441 59.7367 22.139 58.1436 18.3006C55.8106 17.983 53.42 17.7533 51.0665 17.4622C49.8338 17.5364 46.8876 16.2172 46.8612 18.1056Z" fill="#232323"/>
<path d="M54.3033 20.422C54.8134 19.89 54.959 19.1323 54.9275 18.4156C60.1062 18.566 57.4476 19.9978 54.3033 20.422Z" fill="#63CDF7"/>
<path d="M47.4003 17.9552C47.7647 17.2117 49.2243 17.9368 49.9645 17.8523C49.6879 18.5147 49.6207 19.2366 49.7935 19.9289C48.8286 19.58 47.6489 18.9584 47.4003 17.9552Z" fill="#63CDF7"/>
<path d="M49.6031 24.1002C48.1902 20.5005 35.7641 24.5467 45.7565 25.576C46.2737 26.9608 44.3857 27.0557 44.1613 28.0329C44.7503 28.4024 45.4236 27.3333 45.9882 27.1164C46.3913 27.374 46.6222 28.1939 47.1571 28.086C47.4769 27.294 45.8384 26.7858 46.3164 25.5588C48.1804 25.4514 49.6121 24.8359 49.6028 24.1006L49.6031 24.1006L49.6031 24.1002Z" fill="#232323"/>
<path d="M38.1694 21.8916C36.9665 22.3879 35.0991 21.7364 34.1992 22.3568C34.2744 23.0573 39.8461 22.5852 38.1694 21.8916Z" fill="#232323"/>
<path d="M37.8642 23.2288C37.137 22.8069 35.8791 23.6698 34.9208 23.3662C33.6342 24.2608 37.9871 23.9942 37.8642 23.2288Z" fill="#232323"/>
<path d="M54.3629 22.2766C53.5848 22.2225 52.8156 22.0934 52.0633 21.8981C50.2785 22.461 55.947 23.3273 54.3629 22.2766Z" fill="#232323"/>
<path d="M53.607 23.2355C53.0698 23.3574 52.2411 22.7022 51.9029 23.1742C51.7627 23.8521 54.846 23.964 53.607 23.2355Z" fill="#232323"/>
<path d="M39.0517 15.791C38.7316 15.3351 38.3597 14.9099 37.9431 14.5274C36.9463 14.2741 37.8692 15.2867 38.1777 15.5447C38.3399 15.9108 39.1486 16.6097 39.0513 15.7913L39.0517 15.7913L39.0517 15.791Z" fill="#232323"/>
<path d="M40.4588 15.2237C40.1389 14.8528 39.9565 13.8581 39.3463 13.9625C38.8646 14.2253 40.5481 16.4935 40.4588 15.2237Z" fill="#232323"/>
<path d="M51.3736 14.3036C50.6682 14.0672 50.3274 15.3193 50.1157 15.7997C50.1533 16.4413 50.784 15.9959 50.7831 15.5706C50.8423 15.1133 51.6366 14.7364 51.3736 14.3036Z" fill="#232323"/>
<path d="M53.1602 14.7425C52.5549 14.3222 51.0071 16.74 52.2455 16.1685C52.3934 15.6472 53.4188 15.2673 53.1602 14.7425Z" fill="#232323"/>
<path d="M33.9401 4.27789C33.8776 4.43198 33.8121 4.58609 33.7439 4.73776C33.0178 6.37603 32.078 7.95351 30.714 9.20787C29.3192 10.4888 27.5026 11.3816 25.5252 11.512C25.4999 11.5146 25.4776 11.5123 25.4578 11.5072C25.1657 11.4673 25.1856 11.0114 25.519 10.9909C25.5357 10.9908 25.5527 10.9882 25.5693 10.9853C29.3639 10.7122 31.8083 7.67612 33.1821 4.64203C33.2558 4.47485 33.3295 4.31014 33.3975 4.143C33.5255 3.83199 34.068 3.96407 33.9401 4.27754L33.9401 4.27789Z" fill="#232323"/>
<path d="M60.028 12.3368C59.9099 12.2909 59.7917 12.2421 59.6732 12.1934C56.2413 10.7323 53.6319 7.74245 52.7927 4.32385C52.7427 4.12386 52.6984 3.92348 52.6623 3.72058C52.6025 3.39307 53.1413 3.2485 53.2012 3.57882C53.2489 3.83612 53.3052 4.09125 53.3729 4.34314C54.1998 7.46483 56.529 10.1652 59.6267 11.5944L59.6268 11.5969C59.8491 11.6994 60.0745 11.7946 60.3054 11.884C60.6373 12.0118 60.3569 12.4643 60.028 12.3365L60.028 12.3368Z" fill="#232323"/>
</svg>
