<svg width="152" height="279" viewBox="0 0 152 279" fill="none" xmlns="http://www.w3.org/2000/svg">
<g filter="url(#filter0_d_1216_1805)">
<path d="M25.4705 44.2615C22.9504 48.336 18.7332 50.9951 15.2147 54.2467C8.76638 60.2122 4.51264 69.9669 8.41525 77.8343C9.67345 80.3726 11.6668 82.4794 13.0786 84.9336C15.2037 88.6277 15.9352 93.0973 15.1013 97.2742C13.9565 103.02 10.0538 107.899 8.71152 113.605C7.11316 120.408 9.47229 127.8 14.0589 133.071C18.6455 138.341 25.2327 141.618 32.0687 143.071C38.3268 144.402 44.9872 144.27 50.9746 142.01C56.9584 139.749 62.1997 135.236 64.7088 129.351C66.3474 125.507 67.2617 120.653 71.0876 118.967C72.4482 118.367 73.977 118.298 75.462 118.269C79.2 118.192 82.9417 118.312 86.6688 118.62C91.0725 118.985 95.5274 119.615 99.8762 118.843C105.513 117.841 110.523 114.527 114.569 110.478C117.882 107.161 120.776 102.991 120.915 98.3056C121.097 92.278 116.829 87.1903 113.537 82.1392C103.921 67.3993 101.072 48.4348 88.8889 35.7394C82.276 28.8486 73.3991 24.4449 64.1931 21.8955C58.3117 20.2679 52.2731 19.3755 46.2125 18.7574C42.3428 18.3623 37.1929 16.9761 33.3452 17.9746C29.1463 19.0646 28.2795 22.5539 28.1259 26.5589C27.8881 32.7402 28.9232 38.6691 25.4668 44.2615H25.4705Z" fill="#754B0E"/>
<path d="M83.9146 102.757C75.5461 105.731 66.1316 108.675 58.0703 104.959C58.7945 101.737 59.0652 98.2362 58.747 94.8274C58.5604 92.7974 58.1654 90.8041 57.5363 88.9241C56.1903 84.8971 53.2826 81.843 52.851 77.3991C52.5584 74.3816 53.6008 71.035 56.172 69.4256C57.8655 68.3686 59.9576 68.193 61.9546 68.2442C66.0548 68.3503 70.1293 69.3013 73.849 71.024C76.3983 72.2054 78.9001 73.8549 80.1583 76.3677C81.5445 79.1182 81.208 82.377 81.0581 85.4567C80.9081 88.4961 80.9849 91.5868 81.4458 94.597C81.881 97.4279 82.6564 100.186 83.9219 102.761L83.9146 102.757Z" fill="#FFBC91"/>
<path d="M58.6482 101.927C64.8661 106.334 73.8015 106.477 80.1547 102.27C81.1422 101.616 82.0932 100.859 83.216 100.478C83.9731 100.222 84.7742 100.153 85.5715 100.091C90.0374 99.7467 94.5252 99.6589 99.0021 99.8308C101.701 99.9333 104.452 100.145 106.957 101.155C110.074 102.409 112.594 104.823 114.678 107.461C119.729 113.861 122.619 121.937 122.765 130.09C122.857 135.17 121.924 140.229 122.034 145.305C122.158 150.857 123.526 156.304 124.126 161.823C125.011 169.961 124.232 178.293 126.057 186.277L129.067 186.124C128.083 188.099 129.868 190.363 131.777 191.467C133.687 192.572 136.002 193.34 137.074 195.268C137.202 195.502 137.348 195.776 137.611 195.82C137.875 195.867 138.087 195.414 137.831 195.344C139.319 204.748 140.717 214.356 142.205 223.76C142.308 224.411 142.41 225.084 142.245 225.724C142.063 226.426 141.576 227.008 141.06 227.52C137.461 231.071 132.121 232.121 127.085 232.531C105.63 234.272 83.4977 227.454 62.7959 233.346C56.7353 235.073 51.0149 237.845 44.9506 239.557C39.991 240.958 34.8302 241.634 29.6803 241.558C28.4404 241.539 27.1493 241.466 26.063 240.87C22.826 239.103 23.3454 234.389 24.1757 230.793C28.4185 212.403 28.7513 193.329 27.9101 174.474C27.3029 160.846 26.202 146.574 31.8383 134.15C34.0804 129.212 37.299 124.79 40.4957 120.408C43.0853 116.86 46.015 113.433 48.6082 109.893C51.2014 106.349 54.6212 103.66 58.6555 101.919L58.6482 101.927Z" fill="#16829B"/>
<path d="M81.4385 94.5933C79.3171 95.9503 76.9067 96.8829 74.4123 97.2706C70.6925 97.8485 66.8741 97.3036 63.2421 96.305C61.8632 95.9283 60.2941 95.4455 58.7469 94.8274C58.5604 92.7974 58.1654 90.8041 57.5363 88.9241C56.1903 84.8971 53.2826 81.843 52.851 77.3991C52.5584 74.3816 53.6008 71.035 56.172 69.4256C57.8655 68.3686 59.9576 68.193 61.9546 68.2442C66.0548 68.3503 70.1293 69.3013 73.849 71.024C76.3983 72.2054 78.9001 73.8549 80.1583 76.3677C81.5445 79.1182 81.208 82.377 81.0581 85.4567C80.9081 88.4961 80.9849 91.5868 81.4458 94.597L81.4385 94.5933Z" fill="#EF9B6C"/>
<path d="M93.3877 185.981C97.1074 185.835 100.977 185.784 104.368 187.323C108.512 189.211 111.35 193.3 112.645 197.663C112.926 198.622 113.146 199.646 112.875 200.608C112.433 202.18 110.853 203.113 109.382 203.83C100.359 208.23 90.3995 210.703 80.3668 211.032C79.4597 211.061 78.4722 211.046 77.7626 210.483C77.1701 210.011 76.8994 209.247 76.6763 208.523C75.7217 205.403 75.1255 202.173 74.8951 198.918C74.7268 196.515 74.0392 191.778 75.334 189.609C77.7626 185.535 89.2144 186.146 93.3877 185.981Z" fill="#FFBC91"/>
<path d="M95.3774 54.1151C97.3269 52.2643 98.2815 49.3602 97.5976 46.7597C96.9136 44.1628 94.5106 42.0488 91.8296 41.9061C91.0725 41.8659 90.3117 41.9866 89.5985 42.2426C87.6929 34.2801 84.5437 26.6285 77.8431 22.3199C73.9697 19.8291 69.3356 18.805 64.76 18.3075C46.7867 16.3617 31.4359 26.4822 31.0519 45.3662C30.9714 49.3858 31.3335 53.4421 32.1711 57.3849C30.9202 57.4471 29.684 57.8787 28.7074 58.6687C26.6189 60.3585 25.913 63.4784 26.8859 65.9838C27.8552 68.4893 30.335 70.2815 33.0014 70.6363C34.1462 70.7899 35.3495 70.6911 36.3919 70.1827C36.5346 70.1132 36.6699 70.0364 36.8052 69.9523C37.7964 71.7372 38.912 73.4489 40.1739 75.0656C46.666 83.3938 57.0279 88.9277 67.5763 88.4193C78.1247 87.9109 88.3732 80.7823 91.409 70.6692C92.8537 65.8631 92.6855 60.8011 92.0417 55.7792C92.1515 55.7683 92.2648 55.7573 92.3746 55.7354C93.5121 55.5342 94.5472 54.9087 95.3847 54.1114L95.3774 54.1151Z" fill="#FFBC91"/>
<path d="M147.472 130.064C148.697 145.192 148.295 168.242 140.706 181.387C136.485 188.699 131.28 196.515 123.102 198.603C117.784 199.96 110.992 200.578 106.965 196.848C85.0631 176.556 106.453 138.096 108.314 95.771C108.387 94.1251 108.479 92.428 109.17 90.9357C110.319 88.4669 113.106 87.2452 115.728 86.5174C120.007 85.3287 125.991 83.9717 130.197 85.9578C134.608 88.0389 144.019 87.4684 147.468 130.068L147.472 130.064Z" fill="#EFEFEF"/>
<path d="M118.68 76.3091L117.857 75.8739C124.13 63.9868 123.972 48.7092 117.454 36.9501C113.464 29.7484 106.968 23.3184 98.6802 18.3551C92.0125 14.361 84.1231 11.1826 73.8527 8.35166L74.1014 7.4519C84.4559 10.3048 92.4221 13.5161 99.163 17.5541C107.594 22.6052 114.203 29.1522 118.274 36.4966C124.941 48.5227 125.102 64.1478 118.683 76.3055L118.68 76.3091Z" fill="#372836"/>
<path d="M65.6597 33.6949C66.5156 35.4688 68.4322 36.5112 70.3597 36.9246C72.2836 37.3379 74.277 37.2318 76.2411 37.3452C83.249 37.7585 90.0337 41.149 94.5691 46.5074C94.997 42.3926 92.9671 38.4278 90.6409 35.008C86.0177 28.2159 79.9425 22.4187 72.942 18.1174C70.8206 16.8116 68.5456 15.6229 66.0694 15.3449C61.3365 14.8146 56.7719 17.7882 54.0214 21.6798C51.2746 25.5678 49.9798 30.2678 48.6667 34.8434C46.9769 40.7357 45.1225 46.6354 42.3355 52.1144C40.9675 54.8027 39.3765 57.3886 37.4819 59.7368C36.6077 60.8194 32.2662 64.1587 32.5478 65.523C33.4183 69.7438 44.0874 62.7835 45.5249 61.8143C50.1297 58.7126 54.2079 54.8283 57.5436 50.3917C59.4492 47.857 61.1134 45.1431 62.496 42.2865C63.1836 40.8674 66.373 35.1726 65.6597 33.6949Z" fill="#EF9B6C"/>
<path d="M57.3827 55.5561L55.2576 54.2979C55.1735 54.1187 55.0382 53.9577 54.8553 53.8517C54.3762 53.57 53.7617 53.7346 53.4837 54.2101C52.1487 56.4924 50.4772 57.8603 48.5131 58.2773C45.1042 58.9978 41.8124 56.668 41.7722 56.6387C41.326 56.3132 40.6969 56.4119 40.3714 56.8618C40.3311 56.9203 40.2946 56.9789 40.269 57.041C40.2616 57.052 40.2507 57.0593 40.2433 57.0703L38.6011 59.3709C38.3012 59.7915 38.3999 60.3731 38.8169 60.673C38.9815 60.79 39.1717 60.8449 39.3582 60.8449C39.6508 60.8449 39.9361 60.7096 40.119 60.4535L41.3443 58.7382C42.0502 59.1478 43.206 59.7294 44.6215 60.0914L44.2996 62.3628C44.2264 62.8712 44.5812 63.343 45.0933 63.4162C45.2944 63.4454 45.4883 63.4089 45.6529 63.3211C45.9126 63.1857 46.1028 62.9334 46.1467 62.6225L46.4612 60.3987C46.688 60.417 46.9184 60.4243 47.1525 60.4243C47.7267 60.4243 48.3156 60.3694 48.9154 60.2451C49.4714 60.128 50.009 59.9525 50.5248 59.7257L51.6147 61.6569C51.8671 62.1068 52.4377 62.264 52.8839 62.0117C53.0594 61.9129 53.1911 61.7666 53.2716 61.5947C53.3959 61.3314 53.3923 61.0132 53.2387 60.7425L52.1377 58.7894C53.0631 58.1054 53.908 57.2129 54.6578 56.1084L56.439 57.1617C56.8816 57.4251 57.4558 57.2788 57.7155 56.8326C57.8179 56.6607 57.8582 56.4668 57.8435 56.2803C57.8179 55.9913 57.6607 55.717 57.39 55.5561H57.3827Z" fill="#201600"/>
<path d="M62.9129 22.66C63.2384 27.6343 68.1542 30.9883 72.8432 32.6817C77.5322 34.3752 82.7625 35.3591 86.2957 38.874C91.27 43.8227 91.0578 51.7998 93.5011 58.3761C94.7995 61.8691 96.9173 65.0511 99.6385 67.5931C103.095 70.8264 108.351 73.021 112.539 70.8155C116.098 68.9428 117.575 64.5903 117.871 60.5816C118.446 52.7947 115.783 45.0992 112.184 38.1681C104.979 24.3023 93.4353 12.2762 78.8379 6.70208C64.2443 1.13527 46.538 2.82141 34.5705 12.8687C31.1433 15.7472 28.1332 19.4267 27.2297 23.8085C26.0557 29.5216 28.6087 35.3664 28.3234 41.1929C28.1259 45.2272 26.5787 49.0566 25.1559 52.8385C23.7331 56.6205 22.3945 60.5706 22.6468 64.6013C22.9102 68.855 25.9898 75.4496 30.8434 73.127C35.302 70.991 39.457 67.6992 43.0633 64.3525C50.4406 57.5056 56.1428 48.8518 59.526 39.3751C61.4426 34.0021 62.613 28.3585 62.9129 22.66Z" fill="#754B0E"/>
<path d="M87.0967 50.6989L84.9717 49.4407C84.8875 49.2615 84.7522 49.1005 84.5693 48.9945C84.0902 48.7128 83.4757 48.8774 83.1977 49.3529C81.8627 51.6352 80.1912 53.0032 78.2271 53.4201C74.8183 54.1407 71.5265 51.8108 71.4862 51.7815C71.04 51.456 70.4109 51.5548 70.0854 52.0046C70.0452 52.0632 70.0086 52.1217 69.983 52.1839C69.9757 52.1948 69.9647 52.2021 69.9574 52.2131L68.3151 54.5137C68.0152 54.9344 68.114 55.5159 68.5309 55.8158C68.6955 55.9329 68.8857 55.9914 69.0722 55.9914C69.3648 55.9914 69.6501 55.8561 69.833 55.6L71.0583 53.8846C71.7642 54.2943 72.92 54.8758 74.3355 55.2379L74.0136 57.5093C73.9405 58.0177 74.2952 58.4895 74.8073 58.5626C75.0085 58.5919 75.2023 58.5553 75.3669 58.4676C75.6266 58.3322 75.8168 58.0798 75.8607 57.769L76.1752 55.5452C76.402 55.5634 76.6324 55.5708 76.8665 55.5708C77.4407 55.5708 78.0296 55.5159 78.6294 55.3915C79.1854 55.2745 79.7231 55.0989 80.2388 54.8722L81.3287 56.8034C81.5811 57.2532 82.1517 57.4105 82.5979 57.1581C82.7735 57.0594 82.9051 56.9131 82.9856 56.7412C83.11 56.4778 83.1063 56.1596 82.9527 55.889L81.8518 53.9358C82.7771 53.2519 83.622 52.3594 84.3718 51.2548L86.1531 52.3082C86.5956 52.5716 87.1699 52.4253 87.4295 51.979C87.532 51.8071 87.5722 51.6133 87.5576 51.4267C87.532 51.1378 87.3747 50.8635 87.104 50.7026L87.0967 50.6989Z" fill="#201600"/>
<path d="M17.9578 118.042C9.41011 127.636 6.91931 141.161 6.33044 153.996C5.48921 172.368 7.84102 190.882 13.2506 208.461C15.8511 216.91 20.0829 226.079 28.4404 228.961C31.7615 230.106 35.3642 230.088 38.8644 229.806C50.1115 228.903 61.139 225.377 70.8242 219.59C73.0297 218.274 75.3194 216.643 76.0509 214.177C76.6141 212.279 76.1386 210.245 75.6595 208.325C74.5366 203.808 73.4138 199.291 72.2909 194.778C71.9105 193.241 71.4862 191.632 70.3963 190.487C67.1996 187.137 61.6657 190.111 57.0352 189.895C52.9863 189.705 49.4348 186.786 47.5219 183.212C45.609 179.639 45.086 175.491 44.9177 171.439C44.2703 155.825 48.546 140.046 56.9913 126.893C59.4565 123.053 62.3058 119.355 63.7249 115.017C72.3714 88.5803 25.6021 109.461 17.9542 118.046L17.9578 118.042Z" fill="#16829B"/>
<path d="M138.906 52.6887C139.115 54.159 139.33 57.63 139.44 61.1632C139.564 65.0476 139.564 69.0014 139.29 70.4608C138.164 76.536 136.145 81.4005 133.511 85.208C126.77 94.9481 119.002 95.4529 108.102 95.1566C92.2466 94.7287 88.2525 79.9741 85.3886 71.1996C82.5174 62.4251 81.4494 44.397 83.5342 43.2485C84.8766 42.5133 94.496 49.5834 97.2464 56.2877C97.7439 56.1487 98.2376 56.0061 98.7387 55.8634C100.18 55.4611 101.628 55.0588 103.084 54.6857C104.32 54.3675 105.567 54.0676 106.815 53.8006C108.834 53.369 110.856 53.0252 112.883 52.813C114.265 52.6631 115.651 52.5789 117.034 52.5789C118.789 52.5716 120.545 52.696 122.282 52.9886C122.974 53.102 123.665 53.2446 124.349 53.4092C124.755 53.5116 125.249 53.5921 125.53 53.2922C125.684 53.1312 131.598 38.0731 134.597 38.3401C135.409 38.4169 137.944 45.7869 138.906 52.685V52.6887Z" fill="#EFEFEF"/>
<path d="M139.44 61.1596C139.564 65.0439 139.564 68.9977 139.29 70.4571C138.164 76.5323 136.145 81.3968 133.511 85.2044C133.292 85.1788 133.072 85.1568 132.853 85.1276C128.204 84.4985 118.881 82.5087 120.037 79.6302C121.514 75.9434 119.825 72.5126 117.535 71.6714C116.807 71.4044 114.901 72.0262 114.378 71.4483C112.583 69.4439 112.407 66.1704 113.987 63.9905C115.048 62.5202 116.73 61.6094 118.431 60.9803C123.778 58.9979 129.726 59.2905 135.3 60.5049C136.693 60.8121 138.043 61.0389 139.436 61.1632L139.44 61.1596Z" fill="#312A20"/>
<path d="M94.9166 57.0338C93.256 55.0331 91.5589 53.0471 89.8326 51.0793C88.9365 50.0588 88.0148 49.0311 86.7419 48.2483C86.5517 48.1313 86.3067 48.0179 86.058 48.0874C85.8861 48.135 85.7727 48.252 85.6812 48.3654C85.1728 49.0164 85.1107 49.7699 85.0851 50.4868C84.9717 53.5884 85.2789 56.6644 85.9958 59.6636C86.2189 60.6036 86.1677 60.8925 87.3491 60.1574C88.0733 59.7038 88.8377 59.2869 89.6351 58.9065C90.0923 58.687 94.6605 56.7266 94.9202 57.0375L94.9166 57.0338Z" fill="#C8C7C7"/>
<path d="M127.718 53.5226C128.771 51.0537 129.894 48.6214 131.009 46.1745C131.587 44.9054 132.187 43.6215 133.12 42.5389C133.259 42.378 133.445 42.2061 133.668 42.2317C133.818 42.25 133.935 42.3524 134.031 42.4621C134.568 43.0656 134.744 43.8629 134.89 44.631C135.508 47.9448 135.768 51.3134 135.676 54.6784C135.647 55.7317 135.739 56.0317 134.627 55.4684C133.943 55.1209 133.233 54.8173 132.502 54.5577C132.081 54.4077 127.886 53.1422 127.725 53.5262L127.718 53.5226Z" fill="#C8C7C7"/>
<path d="M100.194 68.7308C100.337 70.5157 99.0057 72.0811 97.2208 72.2237C95.4359 72.3664 93.8705 71.035 93.7279 69.2501C93.5852 67.4653 94.9166 65.8998 96.7015 65.7572C98.4864 65.6145 100.052 66.9459 100.194 68.7308Z" fill="#201600"/>
<path d="M128.127 67.0884C128.27 68.8733 126.939 70.4388 125.154 70.5814C123.369 70.7241 121.803 69.3927 121.661 67.6078C121.518 65.8229 122.849 64.2575 124.634 64.1148C126.419 63.9722 127.985 65.3035 128.127 67.0884Z" fill="#201600"/>
<path d="M101.292 76.2434C101.292 76.2434 101.262 76.2434 101.248 76.2434L91.003 75.1937C90.875 75.179 90.7799 75.0656 90.7945 74.9376C90.8091 74.8096 90.9225 74.7145 91.0505 74.7291L101.295 75.7789C101.423 75.7935 101.518 75.9069 101.504 76.0349C101.493 76.1483 101.401 76.2361 101.292 76.2434Z" fill="#201600"/>
<path d="M91.4638 80.3251C91.3431 80.3361 91.2334 80.2483 91.2151 80.1276C91.1968 79.9996 91.281 79.8826 91.409 79.8606L101.668 78.2623C101.8 78.2403 101.913 78.3281 101.935 78.4561C101.954 78.5841 101.87 78.7012 101.742 78.7231L91.4821 80.3215C91.4821 80.3215 91.4712 80.3215 91.4638 80.3215V80.3251Z" fill="#201600"/>
<path d="M93.5706 84.9191C93.4792 84.9264 93.3877 84.8789 93.3438 84.7911C93.2853 84.6741 93.3329 84.5351 93.4499 84.4802L101.983 80.2228C102.096 80.1643 102.239 80.2118 102.294 80.3289C102.352 80.4459 102.305 80.5849 102.188 80.6398L93.6547 84.8972C93.6291 84.9118 93.5999 84.9191 93.5706 84.9228V84.9191Z" fill="#201600"/>
<path d="M123.182 74.6779C123.182 74.6779 123.211 74.6779 123.226 74.6706L133.171 71.9933C133.295 71.9604 133.369 71.8323 133.336 71.708C133.303 71.5836 133.175 71.5105 133.05 71.5434L123.105 74.2207C122.981 74.2537 122.908 74.3817 122.941 74.506C122.97 74.6158 123.076 74.6852 123.186 74.6779H123.182Z" fill="#201600"/>
<path d="M133.54 77.1359C133.661 77.1249 133.756 77.0261 133.756 76.9018C133.756 76.7738 133.65 76.6677 133.522 76.6714L123.138 76.7335C123.007 76.7335 122.904 76.8396 122.908 76.9676C122.908 77.0956 123.014 77.2017 123.142 77.198L133.526 77.1359C133.526 77.1359 133.537 77.1359 133.544 77.1359H133.54Z" fill="#201600"/>
<path d="M132.194 82.0077C132.286 82.0004 132.37 81.9382 132.399 81.8431C132.436 81.7187 132.37 81.5907 132.246 81.5505L123.138 78.7159C123.018 78.6793 122.886 78.7451 122.846 78.8695C122.809 78.9938 122.875 79.1219 122.999 79.1621L132.107 81.9967C132.136 82.004 132.165 82.0077 132.194 82.0077Z" fill="#201600"/>
<path d="M99.4373 67.1799C99.4812 67.7469 99.0606 68.2443 98.4937 68.2882C97.9268 68.3321 97.4293 67.9115 97.3854 67.3445C97.3415 66.7776 97.7622 66.2802 98.3291 66.2363C98.896 66.1924 99.3934 66.613 99.4373 67.1799Z" fill="white"/>
<path d="M127.458 65.5011C127.502 66.068 127.081 66.5655 126.514 66.6094C125.947 66.6532 125.45 66.2326 125.406 65.6657C125.362 65.0988 125.783 64.6014 126.35 64.5575C126.917 64.5136 127.414 64.9342 127.458 65.5011Z" fill="white"/>
<path d="M109.642 73.0942C108.775 71.6824 114.28 70.929 114.777 72.0189C115.194 72.937 111.928 76.8944 109.642 73.0942Z" fill="#201600"/>
<path d="M109.539 78.5257C107.601 78.683 105.454 77.8783 105.333 77.8308C105.213 77.7832 105.154 77.6515 105.198 77.5308C105.242 77.4101 105.377 77.3516 105.498 77.3955C105.538 77.4101 109.455 78.8805 111.255 77.465C112.001 76.8798 112.286 75.852 112.103 74.4109C112.089 74.2829 112.177 74.1659 112.305 74.1512C112.433 74.1366 112.55 74.2244 112.564 74.3524C112.769 75.9691 112.425 77.1395 111.544 77.8344C110.988 78.2697 110.278 78.4708 109.539 78.5293V78.5257Z" fill="#201600"/>
<path d="M115.337 78.1856C114.803 78.2294 114.28 78.1709 113.815 77.9551C112.817 77.4906 112.25 76.3934 112.129 74.6889C112.122 74.5609 112.217 74.4512 112.341 74.4402C112.469 74.4329 112.583 74.528 112.59 74.656C112.696 76.1776 113.171 77.1468 114.005 77.5345C115.973 78.4489 119.364 75.98 119.397 75.9544C119.499 75.8776 119.645 75.8996 119.722 76.0056C119.799 76.1081 119.777 76.2544 119.671 76.3312C119.554 76.419 117.345 78.0246 115.326 78.1892L115.337 78.1856Z" fill="#201600"/>
<path d="M97.6158 211.836C97.6634 217.443 99.9347 223.069 98.6948 228.54C97.9267 231.935 95.8712 234.894 94.7812 238.196C92.2648 245.822 95.1689 254.158 98.9582 261.239C100.575 264.257 102.451 267.289 105.319 269.161C108.186 271.034 112.283 271.422 114.898 269.213C117.652 266.883 117.82 262.574 116.529 259.205C115.238 255.837 112.813 253.05 110.929 249.974C109.046 246.898 107.674 243.138 108.804 239.714C109.704 236.982 112.067 234.89 112.835 232.118C114.444 226.302 108.57 219.832 111.361 214.481C112.616 212.078 115.275 210.779 117.048 208.731C119.609 205.779 120.037 201.167 118.065 197.795C109.935 183.882 97.539 202.974 97.6158 211.844V211.836Z" fill="#EFEFEF"/>
<path d="M96.5003 152.679C92.6818 153.619 89.7302 157.01 88.7682 160.824C87.8026 164.636 88.6439 168.758 90.4982 172.225C91.6284 174.343 93.1463 176.303 93.7279 178.633C90.1361 178.82 86.5773 179.551 83.2051 180.798C81.3324 181.493 79.1891 182.898 79.4853 184.873C79.8328 187.184 82.9454 187.59 85.2789 187.517C92.5684 187.294 99.8872 188.139 106.935 190.008C107.97 190.282 109.031 190.582 110.095 190.458C111.416 190.301 112.583 189.503 113.515 188.549C116.785 185.202 117.531 180.14 117.462 175.458C117.374 169.398 115.984 163.249 111.972 158.542C108.563 154.544 101.753 151.388 96.504 152.675L96.5003 152.679Z" fill="#EFEFEF"/>
<path d="M104.412 159.486C101.76 174.46 104.558 189.902 109.064 204.426C111.222 211.376 114.561 219.024 121.445 221.386C124.898 222.571 128.701 222.173 132.242 221.28C135.581 220.439 138.884 219.133 141.47 216.858C145.658 213.175 147.454 207.356 147.472 201.782C147.49 196.208 145.943 190.758 144.411 185.4C142.915 180.169 141.419 174.939 139.923 169.709C137.728 162.039 135.534 154.369 133.266 146.721C131.763 141.648 129.17 135.664 123.91 135.108C121.357 134.837 110.622 136.593 108.702 138.594C106.924 140.444 107.407 145.302 106.943 147.749C106.193 151.681 105.11 155.539 104.412 159.482V159.486Z" fill="#16829B"/>
<path d="M83.8561 210.772C81.1751 212.462 78.4905 214.148 75.8095 215.838C75.5315 216.013 75.2316 216.193 74.9061 216.167C74.544 216.138 74.255 215.86 74.0063 215.593C68.6809 209.825 67.6641 201.409 66.9033 193.592C66.8082 192.594 66.7131 191.555 67.0716 190.615C67.6604 189.064 69.2844 188.212 70.7803 187.495C77.6895 184.182 79.35 186.127 79.5073 192.843C79.5402 194.284 82.6784 211.511 83.8561 210.768V210.772Z" fill="#77C6C6"/>
<path d="M95.4798 101.221C94.741 102.764 94.2765 104.421 93.8449 106.078C92.3782 111.685 91.2078 117.365 90.3336 123.093C89.8911 125.997 89.5473 129.069 90.6775 131.78C91.8076 134.49 94.9385 136.589 97.689 135.558C99.8799 134.739 101.047 132.299 101.343 129.98C101.639 127.661 101.281 125.302 101.504 122.972C101.881 119.029 103.896 115.419 106.292 112.267C107.868 110.193 109.642 108.236 110.853 105.928C112.063 103.62 112.659 100.826 111.716 98.3971C110.359 94.9115 107.008 92.4353 103.505 93.8947C100.041 95.3394 97.1257 97.7936 95.4798 101.217V101.221Z" fill="#C8C7C7"/>
<path d="M131.379 117.493C133.387 113.02 135.186 107.947 133.584 103.313C133.394 102.761 133.134 102.194 132.652 101.861C131.236 100.87 129.47 102.519 128.603 104.015C126.854 107.04 125.435 110.251 124.378 113.583C122.688 109.593 120.684 105.734 118.398 102.055C118.146 101.649 117.871 101.224 117.447 101.001C116.8 100.661 116.01 100.884 115.318 101.129C109.13 103.335 103.45 106.956 98.8375 111.637C98.1938 112.292 97.5317 113.046 97.4659 113.964C97.4001 114.874 97.9414 115.712 98.4973 116.436C102.33 121.44 108.179 125.467 109.232 131.681C109.324 132.226 109.386 132.8 109.693 133.257C110.333 134.205 111.697 134.241 112.835 134.139C116.379 133.813 123.884 133.44 126.591 130.767C129.053 128.342 129.835 120.909 131.368 117.493H131.379Z" fill="#FFBC91"/>
<path d="M107.894 93.3716C104.499 94.1031 101.058 94.9005 98.0218 96.5866C95.3957 98.046 93.1683 100.12 90.9993 102.201C88.0221 105.058 85.0448 108.031 83.1612 111.7C82.6747 112.643 82.2651 113.645 82.159 114.703C81.8627 117.705 84.3572 120.569 87.3198 121.129C90.2824 121.688 93.4097 120.211 95.2714 117.837C96.2479 116.593 96.9173 115.141 97.8353 113.858C99.5763 111.422 102.129 109.699 104.69 108.148C110.114 104.86 115.841 102.08 121.781 99.8565C123.914 99.0591 126.525 98.0826 127.004 95.5479C127.359 93.6679 126.353 92.4133 124.638 91.7915C119.836 90.0506 112.67 92.3402 107.894 93.368V93.3716Z" fill="#EFEFEF"/>
<path d="M68.4358 46.6134C68.1249 46.6134 67.8104 46.5037 67.558 46.2805C67.013 45.7977 66.9655 44.9602 67.4483 44.4152C67.5105 44.3457 73.86 37.3744 83.4428 41.6793C84.1085 41.9792 84.4047 42.7583 84.1048 43.424C83.8049 44.0897 83.0258 44.3859 82.3602 44.086C74.5257 40.5638 69.4709 46.1123 69.4197 46.1672C69.16 46.4598 68.7979 46.6097 68.4322 46.6097L68.4358 46.6134Z" fill="#754B0E"/>
<path d="M41.3479 52.685C41.0736 52.685 40.7956 52.5862 40.5725 52.3924C40.0897 51.9644 40.0495 51.2293 40.4738 50.7465C40.5286 50.6843 46.1357 44.5286 54.5956 48.3288C55.1845 48.5922 55.4442 49.2834 55.1808 49.8687C54.9175 50.4539 54.2262 50.7172 53.641 50.4539C46.7246 47.3449 42.2587 52.2424 42.2148 52.2936C41.9844 52.5533 41.6661 52.685 41.3443 52.685H41.3479Z" fill="#754B0E"/>
<path d="M107.963 141.937C115.019 141.757 122.056 140.792 128.899 139.066C129.195 138.992 129.517 138.897 129.696 138.652C129.868 138.418 129.872 138.1 129.865 137.807C129.78 134.64 129.437 131.48 128.837 128.371C128.756 127.947 128.654 127.5 128.347 127.197C127.71 126.571 126.657 126.919 125.83 127.252C120.761 129.271 115.212 128.978 110.019 130.441C104.909 131.882 106.314 137.818 107.959 141.937H107.963Z" fill="#77C6C6"/>
<path d="M64.8075 66.4776C64.504 66.4776 64.1967 66.4118 63.9078 66.2764C63.2055 65.9546 62.7483 65.2999 62.6788 64.5318C62.4374 61.7703 63.0117 57.8933 63.0373 57.7287C63.0812 57.4288 63.3591 57.2203 63.6627 57.2679C63.9626 57.3118 64.1675 57.5934 64.1236 57.8933C64.1163 57.9335 63.542 61.8069 63.7724 64.4367C63.8054 64.8098 64.0285 65.1243 64.365 65.2816C64.7124 65.4425 65.1038 65.4023 65.4183 65.1792C65.8719 64.8537 66.3254 64.5025 66.7643 64.1331C66.9948 63.9356 67.3422 63.9685 67.5361 64.1989C67.7299 64.4294 67.7007 64.7768 67.4702 64.9707C67.0094 65.3584 66.5339 65.7278 66.0584 66.068C65.6817 66.3386 65.2464 66.4739 64.8075 66.4739V66.4776Z" fill="#EF9B6C"/>
<path d="M66.6985 79.462C64.0797 79.462 61.6145 78.7012 60.0344 77.9185C59.4931 77.6479 59.27 76.9895 59.537 76.4482C59.804 75.9069 60.4624 75.6837 61.0073 75.9507C61.3548 76.1227 69.3502 79.9485 73.6076 73.8111C73.9514 73.3136 74.6354 73.1893 75.1328 73.5368C75.6303 73.8806 75.7546 74.5645 75.4071 75.062C73.0919 78.3977 69.7855 79.462 66.6948 79.462H66.6985Z" fill="#D4584D"/>
<path d="M17.6433 102.808C17.625 101.696 17.8042 100.639 17.9761 99.6188C18.1919 98.346 18.3967 97.139 18.2321 95.8698C17.903 93.3278 16.5497 90.6322 14.2161 87.8561C13.3493 86.8247 12.3947 85.8152 11.473 84.8423C9.39182 82.6404 7.24118 80.3618 5.83667 77.5966C3.32759 72.6553 3.39342 66.0863 6.00858 60.0294C8.50669 54.2468 12.786 49.5651 16.6411 45.7466C17.0032 45.3882 17.3726 45.0261 17.7384 44.6676C20.701 41.7672 23.7624 38.768 25.4705 35.019C26.3922 32.9927 26.9079 30.7579 27.4053 28.5963C27.7235 27.2138 28.0527 25.78 28.4916 24.3974C29.3109 21.8042 31.3189 17.2469 35.58 15.8314L35.8726 16.7165C32.0029 18.0004 30.1448 22.2541 29.3804 24.6754C28.9561 26.0214 28.6306 27.4332 28.316 28.8011C27.8076 31.0066 27.281 33.289 26.319 35.3994C24.5414 39.3056 21.4142 42.367 18.3894 45.326C18.0237 45.6844 17.6579 46.0429 17.2958 46.4013C13.5029 50.154 9.29673 54.7552 6.86445 60.3915C4.35902 66.1997 4.28221 72.4688 6.66694 77.1687C8.00926 79.8131 10.1124 82.0406 12.1496 84.1949C13.0786 85.1788 14.0406 86.1992 14.9257 87.249C17.3763 90.1604 18.7991 93.0206 19.1539 95.7418C19.3367 97.15 19.11 98.4813 18.8942 99.7651C18.7296 100.745 18.5577 101.758 18.576 102.783L17.6433 102.797V102.808Z" fill="#754B0E"/>
<path d="M11.3303 71.4409L10.5183 70.9837C13.6602 65.3803 15.7048 59.0454 16.4363 52.663C16.685 50.4941 16.7911 48.2666 16.8898 46.1087C17.0252 43.2119 17.1678 40.2127 17.6579 37.2939C18.9893 29.3534 22.9394 21.9285 28.7769 16.3873C34.6144 10.8425 42.2331 7.28364 50.2285 6.36194L50.3346 7.2873C42.5366 8.18706 35.1081 11.6581 29.417 17.064C23.7258 22.4698 19.878 29.7082 18.576 37.4512C18.0932 40.3187 17.9542 43.285 17.8188 46.1562C17.7164 48.3251 17.6104 50.5709 17.358 52.7727C16.6155 59.2759 14.527 65.7315 11.3267 71.4446L11.3303 71.4409Z" fill="#754B0E"/>
<path d="M98.3766 24.3645C93.545 21.475 90.3007 16.7129 87.1625 12.108C86.3176 10.8681 85.4435 9.58427 84.5547 8.36265C82.5613 5.62313 80.0559 2.66782 76.5958 1.50472C73.71 0.535467 70.5865 0.978032 68.1871 1.4718C64.0358 2.32767 60.0381 3.77972 56.3074 5.78772L55.8648 4.96843C59.676 2.91654 63.7615 1.43157 68.0006 0.56107C70.5133 0.0453538 73.7942 -0.415499 76.8921 0.623248C80.5972 1.87048 83.227 4.95746 85.3082 7.81401C86.2043 9.04295 87.0821 10.3341 87.9343 11.5813C91.014 16.102 94.1997 20.7764 98.8558 23.5598L98.3766 24.3608V24.3645Z" fill="#754B0E"/>
<path d="M48.3778 191.976C48.1327 191.976 47.884 191.976 47.6389 191.976C45.0348 191.958 41.8381 191.639 40.2251 189.317C39.1132 187.715 39.1351 185.597 39.1497 184.05C39.2302 175.839 39.435 167.518 39.7532 159.314C39.9471 154.376 39.8813 149.676 36.9991 146.494C36.8272 146.304 36.8418 146.008 37.032 145.836C37.2222 145.664 37.5185 145.678 37.6904 145.869C40.8066 149.31 40.8834 154.212 40.6823 159.35C40.3641 167.543 40.1592 175.857 40.0788 184.057C40.0605 185.901 40.1153 187.528 40.9895 188.783C42.3574 190.754 45.2652 191.025 47.6426 191.043C53.2972 191.087 58.9993 190.648 64.5881 189.748C64.8441 189.708 65.0819 189.88 65.1221 190.136C65.1623 190.392 64.9904 190.63 64.7344 190.67C59.3395 191.537 53.8385 191.98 48.3741 191.98L48.3778 191.976Z" fill="white"/>
<path d="M40.3604 159.877C40.269 159.877 40.1739 159.852 40.0934 159.793C39.8813 159.647 39.83 159.354 39.98 159.142C42.1599 156.037 43.4401 152.237 43.5864 148.447C43.5973 148.191 43.8095 147.979 44.0692 148.001C44.3252 148.012 44.5264 148.228 44.5154 148.484C44.3618 152.452 43.0194 156.428 40.7408 159.68C40.6493 159.808 40.5067 159.877 40.3604 159.877Z" fill="white"/>
<path d="M33.2538 230.358C31.8858 230.358 30.5764 230.194 29.3987 229.554C29.1719 229.429 29.0878 229.148 29.2121 228.921C29.3365 228.694 29.6181 228.61 29.8449 228.734C31.264 229.506 33.0087 229.477 34.8192 229.371C42.2404 228.939 50.8247 227.996 58.2422 224.254C58.4726 224.137 58.7506 224.232 58.8676 224.459C58.9847 224.689 58.8896 224.971 58.6628 225.084C51.0917 228.903 42.3903 229.861 34.8741 230.296C34.3254 230.329 33.7841 230.355 33.2538 230.355V230.358Z" fill="white"/>
<path d="M69.9537 105.815C65.7183 105.815 61.4609 104.498 58.0191 102.044C57.8106 101.894 57.7594 101.601 57.9094 101.393C58.0593 101.184 58.3519 101.133 58.5604 101.283C62.9056 104.385 68.6151 105.577 73.8344 104.483C74.0904 104.429 74.3355 104.593 74.3867 104.846C74.4379 105.098 74.277 105.347 74.0246 105.398C72.6859 105.679 71.318 105.815 69.9501 105.815H69.9537Z" fill="white"/>
<path d="M62.5398 88.7741C62.5179 88.7741 62.4959 88.7741 62.474 88.7704C55.8282 87.8268 49.4824 84.769 44.6032 80.1605C44.4166 79.985 44.4057 79.6887 44.5849 79.5022C44.7604 79.3156 45.0567 79.3083 45.2432 79.4839C49.9834 83.9607 56.1501 86.9307 62.6057 87.8487C62.8617 87.8853 63.0373 88.1194 63.0007 88.3754C62.9678 88.6095 62.7666 88.7777 62.5398 88.7777V88.7741Z" fill="white"/>
<path d="M57.0755 44.2799C56.984 44.2799 56.8889 44.2506 56.8085 44.1958C56.5963 44.0458 56.5488 43.7569 56.6951 43.5447C57.401 42.5426 57.8362 41.3429 58.2568 40.1798C59.6906 36.226 61.1719 32.1368 61.9839 27.9489C62.8873 23.2855 62.8178 19.0683 61.7791 15.4144C61.7096 15.1657 61.8522 14.9097 62.1009 14.8365C62.3497 14.767 62.6057 14.9097 62.6788 15.1584C63.7578 18.955 63.8346 23.3184 62.9019 28.1281C62.0753 32.3855 60.5831 36.5112 59.1347 40.498C58.6921 41.716 58.2386 42.9742 57.4595 44.0824C57.3681 44.2104 57.2254 44.2799 57.0791 44.2799H57.0755Z" fill="white"/>
<path d="M84.584 38.3656C84.456 38.3656 84.3316 38.3144 84.2365 38.212C82.6089 36.4125 80.1839 35.4542 78.026 34.7556C77.609 34.6203 77.1847 34.4886 76.7641 34.3569C74.8146 33.7498 72.7956 33.1207 71.0181 32.0088C70.7986 31.8734 70.7328 31.5845 70.8718 31.3651C71.0071 31.1456 71.296 31.0798 71.5155 31.2187C73.1907 32.2685 75.1475 32.8793 77.0421 33.4681C77.4664 33.5998 77.8906 33.7315 78.3149 33.8705C80.5863 34.6093 83.1502 35.6261 84.9278 37.5902C85.0997 37.7804 85.0851 38.0767 84.8949 38.2486C84.8071 38.329 84.6937 38.3693 84.584 38.3693V38.3656Z" fill="white"/>
<path d="M25.6241 47.6852C25.4851 47.6852 25.3498 47.623 25.2583 47.5096C25.0974 47.3084 25.134 47.0158 25.3351 46.8549C27.782 44.9164 28.7952 41.9282 29.2121 39.7592C29.6693 37.3964 29.6693 34.9203 29.6693 32.5246C29.6693 32.1113 29.6693 31.6943 29.6693 31.281C29.684 28.611 29.7827 25.5203 30.8105 22.6492C31.6956 20.173 33.2976 17.7627 35.7116 15.2792C35.8908 15.0926 36.1871 15.089 36.37 15.2682C36.5529 15.4474 36.5602 15.7437 36.381 15.9266C34.0621 18.3113 32.5295 20.6119 31.6883 22.9601C30.7117 25.6886 30.6166 28.6878 30.602 31.281C30.602 31.6943 30.602 32.1076 30.602 32.5173C30.602 34.9569 30.602 37.4806 30.1302 39.9311C29.6803 42.2537 28.5867 45.465 25.9167 47.5791C25.8326 47.6486 25.7301 47.6815 25.6277 47.6815L25.6241 47.6852Z" fill="white"/>
<path d="M24.2196 103.514C24.1391 103.514 24.055 103.492 23.9818 103.448C23.7624 103.317 23.6892 103.031 23.8209 102.808C25.0389 100.771 25.4668 98.1008 25.1303 94.6444C24.9109 92.395 24.4354 90.1712 23.7258 88.0279C23.3454 86.8868 22.8919 85.7419 22.4493 84.6374C21.8239 83.0683 21.1765 81.448 20.7266 79.7801C20.0792 77.3844 19.6293 73.9024 21.1619 70.8996C21.2789 70.6691 21.5605 70.5777 21.791 70.6947C22.0214 70.8118 22.1128 71.0934 21.9958 71.3238C20.5986 74.0597 21.0229 77.3003 21.63 79.5351C22.0689 81.1517 22.7053 82.7464 23.3198 84.2899C23.766 85.4091 24.2269 86.5649 24.6146 87.7317C25.3498 89.9408 25.8362 92.2341 26.063 94.5494C26.4214 98.2069 25.9533 101.063 24.6292 103.28C24.5414 103.426 24.3878 103.507 24.2269 103.507L24.2196 103.514Z" fill="white"/>
<path d="M71.7861 219.013C71.6398 219.013 71.4935 218.943 71.4058 218.815C71.2595 218.603 71.307 218.314 71.5191 218.164L77.3676 214.06C79.0171 212.901 80.7252 211.705 82.6308 210.871C85.7324 209.518 89.1084 209.229 92.3709 208.947C92.6269 208.921 92.8537 209.115 92.8756 209.371C92.8976 209.627 92.7074 209.854 92.4514 209.876C89.262 210.15 85.9629 210.436 83.0039 211.727C81.1861 212.52 79.5182 213.691 77.9052 214.821L72.0568 218.925C71.9763 218.983 71.8812 219.009 71.7898 219.009L71.7861 219.013Z" fill="white"/>
<path d="M126.979 221.745C122.996 221.745 119.005 220.348 116.028 217.634C114.817 216.533 113.786 215.253 112.787 214.013C111.932 212.952 110.966 211.752 110.655 210.26C110.604 210.008 110.765 209.763 111.017 209.708C111.266 209.657 111.515 209.817 111.569 210.07C111.833 211.339 112.725 212.447 113.515 213.424C114.492 214.634 115.501 215.885 116.657 216.939C121.646 221.489 129.652 222.107 135.281 218.383C135.497 218.241 135.786 218.299 135.929 218.515C136.071 218.731 136.013 219.02 135.797 219.163C133.182 220.893 130.084 221.737 126.982 221.737L126.979 221.745Z" fill="white"/>
<path d="M98.2303 97.0548C98.0548 97.0548 97.8865 96.956 97.8097 96.7878C97.7 96.5537 97.7987 96.2757 98.0328 96.166C104.755 92.9985 111.88 90.7747 119.21 89.5531C119.462 89.5092 119.704 89.6811 119.748 89.9371C119.792 90.1895 119.62 90.4309 119.364 90.4748C112.118 91.6818 105.074 93.88 98.4315 97.0109C98.3657 97.0401 98.2998 97.0548 98.234 97.0548H98.2303Z" fill="white"/>
<path d="M111.844 104.93C111.697 104.93 111.555 104.86 111.463 104.736C111.313 104.527 111.361 104.235 111.573 104.085C115.373 101.371 120.205 100.156 124.835 100.76C125.091 100.793 125.271 101.027 125.238 101.283C125.205 101.539 124.967 101.718 124.715 101.685C120.315 101.115 115.724 102.263 112.114 104.842C112.034 104.9 111.939 104.93 111.844 104.93Z" fill="white"/>
<path d="M133.277 123.122C133.277 123.122 133.259 123.122 133.255 123.122C133.043 123.111 132.867 122.972 132.798 122.771C132.728 122.563 132.794 122.336 132.959 122.201C132.992 122.175 133.028 122.153 133.065 122.135C134.846 118.013 135.775 113.474 135.757 108.99C135.757 108.734 135.965 108.521 136.221 108.521C136.477 108.521 136.686 108.73 136.686 108.986C136.708 113.682 135.717 118.433 133.818 122.731C133.665 123.082 133.387 123.122 133.273 123.122H133.277Z" fill="white"/>
<path d="M136.426 131.158C136.36 131.158 136.295 131.143 136.229 131.114C135.995 131.004 135.896 130.726 136.002 130.496C137.673 126.908 138.39 122.921 138.068 118.975C138.047 118.719 138.24 118.492 138.496 118.474C138.749 118.452 138.979 118.642 138.998 118.901C139.33 123.009 138.588 127.157 136.847 130.891C136.766 131.059 136.598 131.162 136.423 131.162L136.426 131.158Z" fill="white"/>
<path d="M100.429 180.883C100.355 180.883 100.282 180.868 100.216 180.831C98.3876 179.888 96.1492 179.441 93.5669 179.522C91.2407 179.591 88.9035 180.06 86.6395 180.509C86.3835 180.561 86.1421 180.396 86.0909 180.144C86.0397 179.891 86.2043 179.646 86.4566 179.595C88.7572 179.134 91.1347 178.659 93.5377 178.589C96.2808 178.512 98.6692 178.984 100.641 180.001C100.871 180.118 100.959 180.4 100.842 180.63C100.758 180.791 100.597 180.883 100.429 180.883Z" fill="white"/>
<path d="M17.336 130.507C17.3068 130.507 17.2775 130.507 17.2483 130.499C16.9959 130.452 16.8313 130.207 16.8789 129.955C17.4531 126.992 19.1392 124.219 21.5093 122.347C21.7105 122.186 22.0031 122.222 22.164 122.424C22.325 122.625 22.2884 122.917 22.0872 123.078C19.8927 124.812 18.3272 127.383 17.7969 130.13C17.753 130.353 17.5592 130.507 17.3397 130.507H17.336Z" fill="white"/>
<path d="M28.349 117.801C28.21 117.801 28.071 117.738 27.9759 117.618C27.8186 117.413 27.8589 117.12 28.0637 116.963C30.0095 115.485 32.1199 114.216 34.34 113.199C34.5741 113.093 34.8521 113.196 34.9582 113.43C35.0642 113.664 34.9618 113.942 34.7278 114.048C32.5698 115.039 30.5179 116.268 28.6269 117.705C28.5428 117.771 28.4441 117.801 28.3453 117.801H28.349Z" fill="white"/>
<path d="M27.5297 126.023C27.4236 126.023 27.3139 125.986 27.2261 125.909C27.0322 125.741 27.0103 125.448 27.1785 125.251C28.861 123.298 30.9934 121.718 33.3525 120.679C33.5866 120.577 33.8646 120.679 33.967 120.917C34.0694 121.151 33.967 121.429 33.7292 121.531C31.4981 122.515 29.4791 124.011 27.8881 125.858C27.7967 125.964 27.665 126.019 27.5333 126.019L27.5297 126.023Z" fill="white"/>
<path d="M21.7251 216.866C21.5971 216.866 21.4691 216.814 21.3776 216.708C19.8378 214.982 18.9344 212.667 18.8942 210.355C18.8905 210.099 19.0953 209.887 19.3514 209.88H19.3587C19.611 209.88 19.8195 210.084 19.8232 210.337C19.8598 212.429 20.6754 214.521 22.0689 216.083C22.2408 216.277 22.2225 216.569 22.0324 216.741C21.9446 216.822 21.8312 216.858 21.7215 216.858L21.7251 216.866Z" fill="white"/>
<path d="M30.5911 226.185C30.5691 226.185 30.5508 226.185 30.5289 226.181C28.082 225.86 25.8289 224.546 24.3476 222.571C24.194 222.367 24.2342 222.074 24.439 221.917C24.6439 221.763 24.9365 221.803 25.0937 222.008C26.4068 223.756 28.4843 224.967 30.6496 225.252C30.9056 225.285 31.0848 225.519 31.0519 225.775C31.0226 226.01 30.8215 226.181 30.5911 226.181V226.185Z" fill="white"/>
<path d="M31.5566 219.865C31.5127 219.865 31.4652 219.857 31.4177 219.843C29.0293 219.108 26.9554 217.557 25.5729 215.476C25.4302 215.26 25.4887 214.971 25.7045 214.828C25.9203 214.686 26.2093 214.744 26.3519 214.96C27.5955 216.833 29.545 218.288 31.6956 218.95C31.9407 219.027 32.0797 219.287 32.0029 219.532C31.9407 219.733 31.7578 219.861 31.5566 219.861V219.865Z" fill="white"/>
<path d="M123.837 215.008C121.401 215.008 118.976 213.526 118.032 211.237C117.934 210.999 118.047 210.725 118.285 210.629C118.522 210.531 118.797 210.644 118.896 210.882C119.879 213.263 122.89 214.645 125.337 213.841C125.582 213.76 125.845 213.892 125.925 214.137C126.006 214.382 125.874 214.645 125.629 214.726C125.048 214.916 124.444 215.008 123.841 215.008H123.837Z" fill="white"/>
<path d="M134.287 213.336C134.126 213.336 133.972 213.256 133.884 213.106C133.753 212.882 133.826 212.597 134.049 212.465C136.445 211.05 138.335 208.848 139.367 206.266C139.462 206.028 139.733 205.911 139.974 206.006C140.212 206.101 140.329 206.372 140.234 206.613C139.126 209.389 137.099 211.752 134.524 213.27C134.451 213.314 134.367 213.336 134.287 213.336Z" fill="white"/>
<path d="M128.094 210.293C127.22 210.293 126.346 210.136 125.541 209.806C125.304 209.708 125.187 209.437 125.285 209.199C125.38 208.962 125.655 208.845 125.892 208.943C128.028 209.81 130.684 209.309 132.352 207.718C132.538 207.539 132.835 207.546 133.01 207.733C133.189 207.919 133.182 208.215 132.995 208.391C131.701 209.627 129.89 210.293 128.094 210.293Z" fill="white"/>
</g>
<defs>
<filter id="filter0_d_1216_1805" x="0" y="0" width="152" height="278.722" filterUnits="userSpaceOnUse" color-interpolation-filters="sRGB">
<feFlood flood-opacity="0" result="BackgroundImageFix"/>
<feColorMatrix in="SourceAlpha" type="matrix" values="0 0 0 0 0 0 0 0 0 0 0 0 0 0 0 0 0 0 127 0" result="hardAlpha"/>
<feOffset dy="4"/>
<feGaussianBlur stdDeviation="2"/>
<feComposite in2="hardAlpha" operator="out"/>
<feColorMatrix type="matrix" values="0 0 0 0 0 0 0 0 0 0 0 0 0 0 0 0 0 0 0.25 0"/>
<feBlend mode="normal" in2="BackgroundImageFix" result="effect1_dropShadow_1216_1805"/>
<feBlend mode="normal" in="SourceGraphic" in2="effect1_dropShadow_1216_1805" result="shape"/>
</filter>
</defs>
</svg>
