<svg width="33" height="33" viewBox="0 0 33 33" fill="none" xmlns="http://www.w3.org/2000/svg">
<path d="M17.545 11.1857C17.545 11.1857 16.8138 11.5505 16.3493 13.1222L15.875 14.756L13.7957 14.1525L13.1234 16.4684L15.2027 17.072L13.4665 23.0528L15.8645 23.749L17.6007 17.7681L19.6648 18.3673L20.6254 16.1351L18.273 15.4522L18.7473 13.8183C18.7995 13.6384 19.1255 12.8554 20.0849 13.1502L21.4888 13.5577L22.1219 11.3767L20.0123 10.7643C20.0123 10.7643 18.7006 10.351 17.5374 11.1835L17.545 11.1857Z" fill="#2381A0"/>
<path d="M23.2361 27.1241C22.8642 27.1299 22.5581 27.4473 22.3139 27.6934C22.0838 27.9191 21.7138 28.1449 21.6224 28.4597C21.592 28.5646 21.6764 28.6704 21.7838 28.6691C22.1113 28.6748 22.4412 28.3886 22.7222 28.2426C23.0325 28.0808 23.4414 27.8907 23.5513 27.5406C23.6079 27.3458 23.4487 27.1289 23.2361 27.1241Z" fill="#2381A0"/>
<path d="M28.8943 21.3797C32.1167 15.8628 27.639 8.04551 22.2772 5.34317C19.3356 3.85538 15.9343 3.46936 12.7898 4.40937C10.0868 5.21749 6.99458 7.13971 5.91314 9.81631C5.89574 9.87626 5.89568 9.93313 5.90757 9.97722C2.78843 14.0045 3.08621 20.2914 6.18484 24.3277C9.26182 28.3253 15.3826 31.191 20.4016 29.4056C20.8247 29.2521 20.6821 28.6662 20.2255 28.7368C20.0541 28.7602 19.8828 28.7836 19.719 28.8092C19.6801 28.6598 19.5447 28.5311 19.3289 28.5659C16.1903 29.0607 12.5419 27.2865 10.0885 25.5341C9.80786 25.3388 9.45614 25.7568 9.71075 25.9852C10.9654 27.1051 12.4242 27.9756 14.0242 28.5294C14.6887 28.763 15.3782 28.9387 16.0753 29.0598C14.9693 29.0151 13.8721 28.8266 12.7567 28.389C10.4879 27.5029 8.67945 26.0515 7.12725 24.2275C5.30642 22.0818 4.29247 19.8208 4.31676 17.0161C4.33963 14.5848 4.98921 12.2054 6.33136 10.1896C6.36824 10.176 6.40512 10.1623 6.43118 10.1292C6.61787 9.93962 6.80455 9.75002 6.98365 9.55822C5.78181 11.119 5.01123 13.0082 4.78061 14.9648C4.34776 18.6667 5.68208 21.5813 8.09221 24.3613C8.38143 24.6972 8.90997 24.2087 8.58929 23.8962C6.35639 21.7527 5.17899 18.0141 5.57215 15.0158C6.00463 11.7119 8.02944 9.07354 10.6728 7.1104C10.8952 6.93931 10.6212 6.60784 10.3814 6.72515C9.98547 6.92713 9.6079 7.15071 9.24657 7.40338C9.87381 6.88659 10.5379 6.413 11.2876 6.01301C11.0857 6.1982 11.2079 6.59936 11.5235 6.50408C12.3424 6.26234 13.1451 5.99152 13.9813 5.80357C14.5724 5.66636 15.1841 5.60012 15.7914 5.49201C15.8662 5.54622 15.9649 5.57485 16.0874 5.57792C20.1829 5.72664 23.8575 7.24031 26.0316 10.8619C26.1149 10.9999 26.2722 10.9968 26.3687 10.9192C26.2992 11.0453 26.3272 11.2322 26.517 11.2873C26.8433 11.382 26.9847 10.8948 26.6584 10.8001C26.5673 10.7737 26.4957 10.7935 26.4404 10.8425C26.4556 10.79 26.4654 10.7279 26.4275 10.66C25.7337 9.3371 24.7318 8.11171 23.5345 7.1059C27.1343 9.72744 29.442 14.2493 28.7354 18.4974C28.8126 17.0977 28.6339 15.6725 28.1548 14.2901C28.0348 13.9383 27.5055 14.0609 27.5887 14.4264C28.1005 16.6879 27.9965 18.9737 27.4229 21.2045C26.8287 23.5349 25.3459 25.2417 23.5487 26.7842C23.3632 26.9416 23.5917 27.2598 23.7967 27.1487C23.8617 27.2082 23.9528 27.2346 24.058 27.1839C26.3352 26.0571 28.3681 23.9574 28.9062 21.4238C28.9105 21.4088 28.9127 21.4013 28.9095 21.3841L28.8943 21.3797Z" fill="#2381A0"/>
<path d="M8.95051 24.9193C8.8224 25.0771 8.86884 25.2857 9.03897 25.4082C9.16251 25.4928 9.27087 25.573 9.40853 25.6374C9.64266 25.7378 9.82945 25.4345 9.72661 25.2502C9.65624 25.1242 9.54682 25.0193 9.45474 24.9113C9.32585 24.7601 9.07208 24.7839 8.95592 24.929L8.95051 24.9193Z" fill="#2381A0"/>
</svg>
