<svg width="62" height="65" viewBox="0 0 62 65" fill="none" xmlns="http://www.w3.org/2000/svg">
<path d="M49.6691 50.718C49.6691 54.6699 49.6691 58.6183 49.6655 62.5703C49.6655 63.1898 49.3461 63.5019 48.7073 63.5068C48.6241 63.5068 48.5446 63.5067 48.4614 63.5104C48.1143 63.5104 47.9516 63.1741 47.5973 63.109C45.8183 62.7872 44.0213 63.1379 42.2388 62.9029C41.042 62.7474 39.8199 62.7691 38.605 62.8848C38.605 62.1147 38.605 61.3482 38.605 60.4695C38.8038 60.7733 38.605 61.0625 38.9702 61.3301C38.7966 60.8673 38.8653 60.5129 38.7605 60.1586C38.4712 59.1932 38.5327 58.2097 38.7207 57.2299C38.7822 57.3203 38.8436 57.4143 38.9087 57.5047C38.9268 57.454 38.9485 57.4034 38.9666 57.3528C39.1365 57.1901 39.2811 57.0274 38.9666 56.8647C38.8906 56.7417 38.8075 56.7309 38.7243 56.8574C38.4567 56.4308 38.6628 55.9607 38.6014 55.516C38.7858 55.5486 38.9702 55.5847 39.0895 55.3822C39.3607 55.2774 39.3354 55.0966 39.2124 54.8941C39.169 54.688 39.1293 54.4819 39.0859 54.2758V54.048C39.0099 53.7552 39.2847 53.3791 38.8725 53.1694C38.652 52.6632 38.3953 52.1606 38.5869 51.5785C38.6158 51.5496 38.6411 51.5207 38.6737 51.499C38.6845 51.4917 38.7207 51.4917 38.7279 51.499C38.8472 51.6364 38.5941 51.8388 38.8255 51.9798C39.1003 51.4194 39.0823 50.8192 39.0895 50.2262C39.0931 50.0491 39.0967 49.8755 38.8545 49.8502C38.7532 49.3042 39.2052 48.8486 39.0931 48.2954C38.8472 47.0878 39.0931 45.8476 38.84 44.64C38.6339 43.6637 38.4531 42.6911 37.7408 41.8956C37.2165 41.3063 36.6742 40.7314 36.1608 40.1275C35.622 39.4948 34.8519 38.9994 34.1396 38.6849C33.261 38.298 32.2305 38.1064 31.2217 38.0521C30.4118 37.875 29.5982 37.969 28.7919 38.0521C26.8322 38.2582 25.1654 39.0898 23.8854 40.5904C22.9743 41.657 22.3451 42.9116 21.9185 44.2458C21.8064 44.5966 21.4773 44.7557 21.4231 45.1245C21.2857 46.0718 21.3689 47.0336 21.4412 47.9556C21.5641 49.485 21.3797 51.0072 21.499 52.5258C21.6039 53.9106 21.358 55.2846 21.3797 56.6694C21.3833 56.9587 21.3363 57.2805 21.5207 57.501C21.763 57.7867 21.6798 58.0723 21.6111 58.3471C21.4882 58.8316 21.5207 59.3198 21.5063 59.8079C21.4737 60.8347 21.434 61.858 21.3978 62.8848H20.3276C20.5373 63.1669 20.8229 63.0765 21.0145 63.2681C19.3513 62.9138 17.6808 62.733 15.9598 62.7908C16.0936 62.968 16.4262 62.78 16.4443 63.0801C16.4479 63.1632 16.3792 63.2392 16.2888 63.2356C16.0972 63.2356 15.8007 63.3621 15.7428 63.1705C15.6669 62.9029 15.4427 62.9029 15.3162 62.8812C14.6907 62.7691 14.0543 62.7041 13.4215 62.6462C13.1865 62.6245 12.966 62.6607 12.7273 62.7908C12.3441 62.9969 12.0331 62.9101 11.6968 62.5016C11.0894 61.7712 11.6932 60.8528 11.1943 60.1478C11.187 60.1369 11.1943 60.1007 11.2051 60.0899C11.8017 59.4246 11.6245 58.7268 11.3353 58C11.2774 57.8554 11.0894 57.6348 11.3244 57.4577C11.5341 57.4649 11.3425 57.8084 11.6643 57.7578C11.6643 57.4287 11.7583 57.0527 11.6426 56.7598C11.4691 56.3223 11.5052 55.8884 11.4401 55.4582C11.3931 55.1508 11.7149 55.1436 11.6932 54.8833C11.6318 54.0697 11.8017 53.2562 11.7077 52.4282C11.6571 51.9618 11.5016 51.4483 11.592 51.0253C11.7909 50.1141 11.4763 49.1885 11.7728 48.2991C11.8017 48.2159 11.8017 48.1219 11.7077 48.093C11.2087 47.9447 11.3931 47.5542 11.5269 47.3373C11.6824 47.0806 11.5884 46.8889 11.592 46.6539C11.592 46.3466 11.2485 46.0139 11.592 45.7391C11.8089 45.5656 11.8017 45.3631 11.8053 45.1389C11.8125 44.1048 11.686 43.0888 11.4112 42.0945C11.3606 41.9173 11.3172 41.751 11.3425 41.5557C11.4618 40.6916 11.5558 39.8274 11.3244 38.9633C11.2883 38.8331 11.2738 38.6415 11.3425 38.5511C11.5631 38.2691 11.5739 38.2835 11.5631 38.0774C11.5486 37.875 11.5667 37.6869 11.6715 37.4881C11.8595 37.1265 11.9138 36.7252 11.9138 36.313C11.6535 36.36 11.7764 36.7035 11.5269 36.7469C11.3678 36.5878 11.3931 36.3672 11.4437 36.2262C11.7945 35.3078 11.3172 34.3026 11.7692 33.4023C11.7908 33.3589 11.78 33.2505 11.7511 33.236C11.3859 33.0588 11.5739 32.7334 11.5631 32.4803C11.5377 31.8295 11.4582 31.1859 11.31 30.5531H19.9117C19.6406 30.8785 19.9479 31.0991 20.1106 31.3775C19.8864 31.3992 19.7165 31.4173 19.5466 31.4317C19.7418 31.5185 19.9515 31.4824 20.1215 31.5511C20.4613 31.6848 20.5915 31.5728 20.6747 31.2437C20.7795 30.8352 20.3022 31.1931 20.3022 30.8966C20.8446 31.0015 21.3363 30.9075 21.7558 30.5459C23.231 30.5459 24.7026 30.5459 26.1778 30.5459C26.2139 30.658 26.3043 30.8207 26.1344 30.8569C25.5486 30.9798 24.9593 31.2835 24.3591 30.8569C24.1566 30.7122 23.7263 30.7195 23.6685 30.8279C23.3322 31.4571 22.7284 31.1967 22.1499 31.3522C22.356 31.4173 22.497 31.5149 22.6127 31.4896C23.3684 31.3341 24.1096 31.4137 24.858 31.5258C25.1184 31.5655 25.5342 31.6378 25.6282 31.5077C25.9934 31.0196 26.4634 31.2871 26.8792 31.1931C27.4505 31.0629 27.7759 31.5728 28.3219 31.5655C29.2945 31.5547 30.2635 31.4968 31.2325 31.4137C32.6752 31.2907 34.1179 31.6812 35.5606 31.4137C35.716 31.3847 35.8896 31.4064 36.0487 31.4426C36.9526 31.6632 37.8891 31.6668 38.8038 31.7463C40.0983 31.8584 41.3891 31.5438 42.6799 31.4028C42.9547 31.3739 43.1391 31.1353 43.479 31.1931C44.5637 31.3703 45.6665 31.5004 46.762 31.3884C47.3731 31.3269 47.9841 31.2473 48.588 31.3052C48.9459 31.3377 49.3509 31.2473 49.6618 31.5366C49.6618 32.0283 49.6582 32.5165 49.6546 33.0082C49.4774 33.1709 49.5425 33.3842 49.5389 33.5795C49.5317 34.5919 49.5317 35.6043 49.5389 36.6167C49.5389 36.8119 49.4738 37.0253 49.6546 37.188C49.6582 37.3109 49.6655 37.4338 49.6691 37.5568C49.6691 37.9292 49.6691 38.298 49.6691 38.6704C49.6655 39.4912 49.6763 40.3156 49.651 41.1363C49.6365 41.6244 49.9258 42.0186 50.0198 42.4669C49.8137 42.7055 49.9077 42.9586 49.9258 43.2624C50.1427 43.0743 50.1572 42.9008 50.1463 42.7164C50.4464 42.9659 50.5838 43.2768 50.5043 43.6818C50.291 43.6239 50.4898 43.407 50.3416 43.3347C49.7269 43.642 49.7486 43.6456 49.7088 44.3869C49.6004 46.408 49.6871 48.4328 49.6655 50.4576C49.6655 50.5444 49.6655 50.6348 49.6655 50.7216L49.6691 50.718ZM39.0931 58.8244C38.7207 59.0196 38.9195 59.1968 39.0678 59.4716C39.2305 59.1896 39.028 59.0088 39.0895 58.8244C39.2558 58.6906 39.2305 58.5496 39.0895 58.4194C39.0244 58.3616 38.9268 58.3544 38.8834 58.4411C38.7858 58.6508 39.0244 58.6942 39.0931 58.828V58.8244ZM19.3441 31.3667C18.9066 31.2365 18.5378 31.392 18.3787 30.987C18.3317 30.8641 18.0822 31.0232 17.9412 31.0846C17.8038 31.1425 17.8074 31.2835 17.8616 31.3992C17.9339 31.5691 18.1111 31.5619 18.2304 31.5185C18.5342 31.4137 18.856 31.4245 19.3441 31.3667ZM12.5321 30.7484C12.8973 30.9762 13.1504 30.9256 13.4035 30.8207C13.1576 30.6363 12.9009 30.6399 12.5321 30.7484ZM16.1586 31.7246C16.3864 31.9741 16.6178 31.8946 16.8456 31.8403C16.6395 31.7752 16.466 31.58 16.1586 31.7246ZM23.0466 30.9436C22.8152 30.9364 22.6344 30.846 22.544 31.081C22.7501 31.204 22.873 31.11 23.0466 30.9436Z" fill="#FDD699"/>
<path d="M19.9117 30.5531C17.0445 30.5531 14.1772 30.5531 11.31 30.5531H10.3193C6.88071 30.5531 3.44217 30.5459 7.62939e-06 30.5387C0.238645 30.2567 0.4809 29.971 0.719537 29.689C1.78979 29.5624 2.49847 28.8248 3.18184 28.127C4.02068 27.2665 4.88484 26.4385 5.79238 25.6539C6.3022 25.2127 6.85179 24.7969 7.26398 24.2763C7.69063 23.7375 8.08836 23.1771 8.6271 22.7541C9.16584 22.3274 9.71543 21.9297 10.077 21.3295C10.2939 21.4994 10.4313 21.3475 10.5687 21.2029C11.0966 20.9137 11.263 20.3026 11.6788 19.9266C13.3095 18.4514 14.5966 16.6543 16.1948 15.1502C16.4443 14.9152 16.5311 14.5138 16.9035 14.4126C17.4422 14.268 17.6411 13.8522 17.8689 13.4038C18.0894 12.9663 18.3498 12.3842 18.8162 12.2974C19.6189 12.1455 20.1287 11.5526 20.2372 11.003C20.3782 10.2979 20.7759 10.0521 21.2676 9.84596C22.1679 9.46631 22.7935 8.80463 23.3539 8.04895C23.5311 8.04895 23.6938 7.96579 23.7444 7.80669C23.8059 7.61144 23.5708 7.63676 23.4768 7.55359C23.5962 7.28965 23.7733 6.87746 23.9903 6.92085C24.6989 7.06909 24.981 6.58097 25.3462 6.19047C25.7005 5.81082 26.4526 5.7819 26.373 5.01175C26.3658 4.93582 26.5177 4.82012 26.6189 4.75865C27.154 4.44047 27.6458 4.06081 28.1411 3.6884C28.8751 3.14242 29.0125 2.16618 29.8116 1.74676C29.9381 1.68168 29.6922 1.33095 30.0574 1.46473C30.419 1.59852 30.8891 1.53705 31.0554 2.01071C30.9216 1.9854 30.8312 1.80823 30.5998 2.07579C30.8167 2.25296 31.012 2.51329 31.2651 2.59645C32.1871 2.9074 32.6246 3.73902 33.0187 4.45131C33.5032 5.31908 34.3638 5.69874 34.9748 6.38572C35.6654 7.1631 36.526 7.81031 37.1406 8.68531C37.2274 8.80825 37.2997 8.8191 37.4696 8.82271C38.2904 8.84441 38.1856 9.99059 38.9738 10.128C39.0823 10.1461 39.2992 10.4028 39.0859 10.627C38.9629 10.5004 38.84 10.3666 38.6158 10.3811C38.7135 10.6378 38.9051 10.6197 39.0859 10.6233C39.8379 11.4043 40.6298 12.1347 41.5807 12.6734C41.8519 12.8253 42.0363 13.0495 42.2352 13.2809C42.6871 13.8124 43.1825 14.3041 43.6887 14.785C43.808 14.9007 44.1551 14.926 44.137 15.0454C44.043 15.6492 44.5673 15.7504 44.8638 16.0324C44.8349 16.5314 45.1024 16.8677 45.4748 17.1425C45.5074 17.2292 45.5399 17.316 45.5797 17.3992C45.5833 17.41 45.6665 17.3992 45.6701 17.3956C45.6918 17.2256 45.5978 17.1135 45.4785 17.0123C45.5255 16.893 45.2724 16.6724 45.5978 16.6471C45.8834 16.9906 46.1474 17.3558 46.4583 17.674C46.6608 17.8801 46.6246 18.2742 47.0079 18.3284C47.3695 18.379 47.496 18.643 47.572 18.9648C47.6226 19.1709 47.6045 19.5252 48.0095 19.2902C48.1179 19.2251 48.1866 19.3336 48.2626 19.4023C49.0761 20.1616 49.792 21.033 50.8225 21.5283C51.0141 21.6187 51.1407 21.767 51.26 21.9405C51.8168 22.7577 52.4242 23.4917 53.292 24.0521C53.7621 24.3558 54.3116 24.5294 54.7347 24.8656C54.7058 25.0826 54.3442 24.9488 54.4599 25.1079C54.9299 25.7443 55.2698 26.4927 56.011 26.9013C56.6872 27.2737 57.4031 27.5919 57.9888 28.1125C58.0648 28.1812 58.2528 28.1993 58.1335 28.3765C58.0322 28.5247 57.9093 28.5284 57.7683 28.4416C57.5152 28.0222 57.0777 27.8377 56.6872 27.5919C56.9547 28.0547 57.5116 28.2246 57.7647 28.6947C58.4082 28.9514 58.7554 29.5588 59.3592 29.9457C58.1335 30.0072 56.9403 29.6673 55.9206 30.47C55.8917 30.4953 55.8447 30.517 55.8086 30.5134C55.6314 30.5134 55.4398 30.7665 55.2807 30.4736C55.1469 30.2313 55.1794 30.047 55.4325 29.9168C55.5518 29.924 55.6856 29.8951 55.7652 30.0108C56.105 30.5061 56.1593 30.0108 56.3111 29.8011H55.4325C55.1866 29.8083 54.9444 29.8119 54.6985 29.8192C54.8359 30.3217 54.4924 30.0686 54.3297 30.0397C53.9898 29.9783 53.6464 29.7468 53.3535 30.1518C53.3065 30.2169 53.1582 30.2675 53.1076 30.1265C52.9883 29.7975 52.7967 29.9674 52.6159 30.0397C52.4966 30.0867 52.3772 30.141 52.2796 30.0216C52.0301 29.7143 51.6866 29.8011 51.3685 29.8011C50.7791 29.8011 50.2693 30.0686 49.745 30.3001C49.5389 30.3904 49.2388 30.5785 49.1376 30.2639C48.9604 29.7215 48.7181 29.9095 48.418 30.1048C48.1794 30.2603 47.9299 30.3941 47.684 30.5387C47.3586 30.5387 47.0296 30.5387 46.7042 30.5351C47.0441 30.1699 47.6045 30.1952 47.9624 29.8662C47.1128 29.1466 46.2848 29.5444 45.4568 29.8662C45.8906 29.8842 46.3173 29.7288 46.8271 29.8047C46.339 30.1482 45.8219 30.206 45.3121 30.2928C44.8674 30.3687 44.8782 30.1265 44.9939 29.8806C44.0213 29.6709 43.0632 30.141 42.0652 29.595C42.1665 29.9168 42.2243 30.1048 42.2858 30.2928C42.2532 30.5495 42.0616 30.5351 41.8772 30.5351C41.4795 30.5351 41.0781 30.5351 40.6804 30.5387C40.5249 30.2856 40.9443 30.2603 40.8937 30.1084C40.214 29.6637 39.5595 30.3181 38.8942 30.0578C38.8255 30.0289 38.6773 30.0867 38.6231 30.1482C38.2579 30.5857 37.7553 30.6038 37.2816 30.517C36.6127 30.3941 35.9474 30.4158 35.2785 30.4194C34.841 30.4194 34.4288 30.3615 34.0383 30.1735C33.8322 30.0795 33.6298 29.9349 33.4237 30.1663C33.1597 30.1916 32.8777 30.1084 32.5776 30.2603C32.7439 30.4519 32.9066 30.4049 33.0549 30.4121C33.2284 30.4049 33.402 30.4411 33.5538 30.2892C33.731 30.112 33.8286 30.2675 33.9118 30.4158C33.8322 30.4591 33.7491 30.5025 33.6659 30.5423C32.5993 30.5423 31.5326 30.5423 30.466 30.5423C29.2475 30.3724 28.0254 30.423 26.8033 30.4194C26.5863 30.4194 26.3477 30.3398 26.1669 30.5351C24.6917 30.5351 23.2201 30.5351 21.7449 30.5351C21.1302 30.5351 20.5156 30.5351 19.8973 30.5423L19.9117 30.5531ZM37.3756 25.1368C37.3323 25.1802 37.2853 25.2272 37.2419 25.2706C37.0936 25.003 36.9309 24.7427 36.8007 24.4679C36.4102 23.6327 34.6675 22.8914 33.8359 23.2964C33.1272 23.6399 32.4438 24.0557 31.8725 24.6198C31.4206 25.0681 31.4929 25.5888 31.7279 26.0877C31.934 26.5289 32.3823 26.6916 32.809 26.5976C33.1959 26.5108 33.4201 26.6482 33.6768 26.8579C33.9841 27.1074 34.3421 27.3858 34.7289 27.1725C35.1845 26.923 35.4774 27.0965 35.8245 27.3424C36.3415 27.7076 37.1153 27.722 37.4733 27.4039C38.1096 26.847 38.1458 26.6048 37.7408 25.7515C37.7914 25.6502 37.8818 25.6322 37.9831 25.6322C38.3953 25.8961 38.7424 25.737 38.8834 25.3538C39.028 24.9669 39.3715 24.4607 38.9087 24.1208C38.5435 23.8496 38.0735 24.0521 37.7336 24.3269C37.4986 24.5185 37.3359 24.7969 37.3756 25.1368ZM21.2568 16.0505C21.2857 16.3759 21.6039 16.4266 21.7847 16.6073C22.0089 16.8387 22.3198 16.8496 22.5801 16.723C22.8405 16.5965 23.0176 16.3651 22.9959 16.0324C22.9779 15.7287 23.0068 15.4178 22.9815 15.1141C22.9417 14.6512 22.5982 14.3837 22.2222 14.2354C21.8281 14.0763 21.5352 14.3439 21.2893 14.6476C21.0362 14.955 20.9639 15.2912 21.0398 15.6709C20.8699 15.9348 21.1809 15.924 21.2568 16.0505ZM28.3906 15.6853C27.6783 14.9839 26.7961 14.8176 25.856 14.955C25.1654 15.0562 24.388 15.067 23.8818 15.613C23.3684 16.1698 22.9634 16.8351 22.5404 17.4751C22.3777 17.721 22.2583 18.0102 22.1679 18.2923C21.9546 18.9756 22.1824 19.6626 22.7899 20.1218C23.2816 20.4942 23.9071 20.5015 24.341 20.1833C24.8255 19.8253 25.1979 19.894 25.6752 20.0676C26.3405 20.3098 26.9009 20.1471 27.3348 19.5578C27.4939 19.3444 27.5698 19.3372 27.8012 19.4095C28.5171 19.6301 29.2331 19.8109 29.9526 19.3625C30.3178 19.1383 30.8457 18.4044 30.8276 17.9922C30.795 17.3558 30.3358 16.8026 29.7393 16.6363C29.3307 16.5206 28.9655 16.3109 28.763 15.9059C28.6907 15.7396 28.5714 15.6564 28.387 15.6781L28.3906 15.6853ZM23.5925 13.2303C23.5781 13.411 23.6251 13.628 23.7119 13.8377C24.0481 14.6766 24.8725 14.8899 25.4293 14.2897C25.7981 13.8883 25.6535 13.4581 25.5667 13.0242C25.4619 12.4818 24.8942 11.9611 24.4459 11.9937C24.012 12.0226 23.6034 12.5975 23.5962 13.2303H23.5925ZM31.2217 15.3093C31.2217 14.4921 30.918 13.9751 30.4443 13.9968C29.8224 14.0221 29.1354 14.8501 29.1246 15.5805C29.1173 16.1807 29.4681 16.394 30.4986 16.4121C30.9939 16.4193 31.2145 16.0831 31.2181 15.3129L31.2217 15.3093ZM28.7702 13.3604C28.7919 12.9808 28.6545 12.6301 28.5135 12.2974C28.3725 11.9684 28.0363 11.8888 27.7398 11.9792C27.1721 12.1492 26.7274 13.5593 27.0926 14.0402C27.2155 14.2029 27.2046 14.503 27.4903 14.5283C28.2966 14.6079 28.7775 14.1667 28.7702 13.3604ZM35.7016 21.738C35.6365 21.3982 35.5208 21.0077 35.011 20.9643C34.5988 20.9317 34.1938 21.3765 34.1721 21.8429C34.1396 22.4576 34.4071 22.8987 34.8229 22.9168C35.3364 22.9421 35.6763 22.5118 35.7016 21.7344V21.738ZM33.3116 22.472C33.2718 22.143 33.1453 21.7706 32.6644 21.7489C32.2739 21.7308 31.7604 22.2479 31.7568 22.6022C31.7568 23.1373 32.1907 23.7556 32.5704 23.752C32.9066 23.7484 33.3152 23.0939 33.3152 22.472H33.3116ZM36.4356 22.9855C36.4247 23.4302 36.685 23.6724 37.1623 23.6688C37.607 23.6688 37.9433 23.1699 37.9686 22.4756C37.9795 22.1466 37.8276 21.8971 37.4986 21.8682C37.0828 21.832 36.4428 22.5371 36.4356 22.9855ZM49.246 29.7505C49.5751 30.0253 49.8137 29.783 50.1717 29.7722C49.7992 29.4467 49.5389 29.6456 49.246 29.7505ZM20.4794 10.6342C20.5047 10.6776 20.53 10.7246 20.559 10.768C20.7361 10.6848 20.9856 10.7065 21.0109 10.2979C20.794 10.4353 20.6385 10.5329 20.4794 10.6306V10.6342ZM32.3136 30.0072C32.0895 29.9891 31.9485 30.0036 31.8291 30.1627C32.0099 30.1735 32.1654 30.2422 32.3136 30.0072Z" fill="#FCAC9C"/>
<path d="M34.0528 30.1843C34.4433 30.376 34.8555 30.4338 35.293 30.4302C35.9619 30.4302 36.6272 30.4049 37.2961 30.5278C37.7697 30.6146 38.2723 30.5965 38.6375 30.159C38.6918 30.094 38.8364 30.0397 38.9087 30.0686C39.574 30.3326 40.2284 29.6781 40.9082 30.1193C40.9552 30.2747 40.5358 30.2964 40.6949 30.5495C41.0022 30.8894 41.4542 30.799 41.8338 30.9075C42.3509 31.0557 42.4666 30.8822 42.3002 30.3037C42.2424 30.1156 42.1809 29.9276 42.0797 29.6058C43.0812 30.1518 44.0394 29.6818 45.0084 29.8915C44.8927 30.1373 44.8819 30.3796 45.3266 30.3037C45.8364 30.2169 46.3535 30.159 46.8416 29.8155C46.3354 29.7396 45.9087 29.8951 45.4712 29.877C46.2992 29.5552 47.1272 29.1575 47.9769 29.877C47.619 30.2097 47.0585 30.1843 46.7186 30.5459C46.4728 30.5821 46.2631 30.6833 46.057 30.8713C46.6933 31.0955 47.2068 30.8858 47.6985 30.5495C47.9444 30.4049 48.1939 30.2711 48.4325 30.1156C48.7326 29.9204 48.9748 29.7324 49.152 30.2747C49.2533 30.5893 49.5534 30.4013 49.7595 30.3109C50.2801 30.0795 50.7936 29.8119 51.3829 29.8119C51.7011 29.8119 52.0446 29.7251 52.2941 30.0325C52.3917 30.1482 52.511 30.0976 52.6303 30.0506C52.8075 29.9782 53.0028 29.8083 53.1221 30.1373C53.1727 30.2784 53.3209 30.2277 53.3679 30.1626C53.6608 29.7577 54.0043 29.9855 54.3442 30.0506C54.5069 30.0795 54.8504 30.3326 54.713 29.83C54.9589 29.8228 55.2011 29.8192 55.447 29.8119C55.447 29.8517 55.447 29.8915 55.447 29.9276C55.1975 30.0578 55.1649 30.2422 55.2951 30.4844C55.4542 30.7773 55.6495 30.5206 55.823 30.5242C55.8592 30.5242 55.9026 30.5025 55.9351 30.4808C56.9547 29.6781 58.1479 30.018 59.3736 29.9566C58.7698 29.5697 58.4227 28.9622 57.7791 28.7055C57.7791 28.6224 57.7791 28.5356 57.7791 28.4524C57.9201 28.5392 58.0467 28.5356 58.1443 28.3873C58.2636 28.2102 58.0756 28.1885 57.9997 28.1234C57.4139 27.6027 56.7016 27.2845 56.0219 26.9121C55.2807 26.5035 54.9408 25.7551 54.4707 25.1187C54.355 24.9633 54.7166 25.0934 54.7455 24.8765C54.3225 24.5438 53.7729 24.3667 53.3029 24.0629C52.4351 23.5025 51.8276 22.7649 51.2708 21.9514C51.1515 21.7778 51.025 21.6296 50.8333 21.5392C49.8028 21.0438 49.0833 20.1724 48.2734 19.4131C48.1975 19.3444 48.1324 19.236 48.0203 19.301C47.6153 19.5361 47.6334 19.1853 47.5828 18.9756C47.5069 18.6538 47.3803 18.3899 47.0187 18.3393C46.6355 18.285 46.6716 17.8909 46.4692 17.6848C46.1582 17.3666 45.8943 17.0015 45.6086 16.658C45.5038 16.2855 45.1639 16.1915 44.871 16.0397C44.5745 15.7576 44.0502 15.6564 44.1443 15.0526C44.1623 14.9333 43.8152 14.9043 43.6959 14.7923C43.1933 14.3114 42.6944 13.8196 42.2424 13.2881C42.0435 13.0531 41.8591 12.8325 41.5879 12.6807C40.637 12.1455 39.8416 11.4152 39.0931 10.6306C39.31 10.4064 39.0931 10.1497 38.981 10.1316C38.1928 9.9942 38.2976 8.84802 37.4769 8.82632C37.3069 8.82271 37.2346 8.81186 37.1478 8.68892C36.5332 7.81754 35.6726 7.17032 34.982 6.38933C34.371 5.70234 33.5104 5.3227 33.0259 4.45492C32.6318 3.74624 32.1907 2.91102 31.2723 2.60006C31.0192 2.51329 30.824 2.25295 30.607 2.0794C30.8384 1.81184 30.9324 1.98901 31.0626 2.01432C30.8963 1.54066 30.4262 1.60574 30.0647 1.46834C29.6995 1.33095 29.9417 1.68167 29.8188 1.75037C29.0197 2.17341 28.8823 3.14604 28.1483 3.69201C27.653 4.06081 27.1612 4.44408 26.6261 4.76226C26.5249 4.82373 26.3694 4.93943 26.3803 5.01536C26.4598 5.78551 25.7077 5.81805 25.3534 6.19408C24.9882 6.58458 24.7026 7.0727 23.9975 6.92446C23.7806 6.87745 23.5998 7.29326 23.4841 7.55721C23.3358 7.6946 23.1912 7.83562 23.3647 8.05256C22.8043 8.80824 22.1788 9.46992 21.2785 9.84957C20.7867 10.0557 20.389 10.2979 20.248 11.0066C20.1395 11.5562 19.6261 12.1492 18.827 12.301C18.3606 12.3914 18.1003 12.9699 17.8797 13.4074C17.6519 13.8594 17.4531 14.2752 16.9143 14.4162C16.5419 14.5138 16.4551 14.9188 16.2056 15.1538C14.6075 16.6543 13.3203 18.455 11.6896 19.9302C11.2738 20.3062 11.1075 20.9173 10.5796 21.2065C10.3518 21.004 10.2289 21.2065 10.0878 21.3331C9.72627 21.9333 9.17669 22.331 8.63794 22.7577C8.10282 23.1807 7.70148 23.7411 7.27482 24.2799C6.86263 24.8005 6.31304 25.22 5.80323 25.6575C4.89568 26.4421 4.03153 27.2701 3.19268 28.1306C2.50931 28.8321 1.80063 29.5697 0.73038 29.6926H0.12294C0.365193 29.3817 0.520667 29.1358 0.723147 28.9297C1.78617 27.8377 2.74795 26.6446 3.95198 25.6936C5.15963 24.7391 6.10333 23.517 7.18081 22.4286C7.99073 21.6115 8.84766 20.8486 9.58526 19.9302C10.3301 19.0009 11.2449 18.1404 12.1994 17.3558C13.0383 16.6688 13.8084 15.8842 14.5243 15.0562C14.9329 14.5825 15.4283 14.1884 16.0212 13.9498C16.4696 13.769 16.5817 13.2953 16.8528 12.9735C17.8327 11.7912 18.9066 10.7173 20.0528 9.70494C20.3348 9.45545 20.6421 9.27467 20.671 8.78293C20.6855 8.51899 21.0652 8.20442 21.3906 8.08148C21.8353 7.91155 22.0631 7.57529 22.2728 7.19564C22.403 7.18479 22.5404 7.2101 22.6344 7.07993C22.7103 6.94977 22.7862 6.8196 22.8622 6.68944C22.9562 6.61712 22.9128 6.40018 23.1297 6.45441C23.419 6.52673 23.6215 6.18685 23.607 6.11815C23.4985 5.63726 23.9071 5.49987 24.1349 5.27931C25.3895 4.07527 26.6876 2.91824 27.9242 1.69975C28.4954 1.13931 29.2222 0.774127 29.7356 0.152224C29.8043 0.0690627 29.873 -0.0285617 30.0321 0.0871412C30.2165 0.220923 30.4515 0.380014 30.6468 0.0473681C30.7119 -0.0611033 30.8384 0.0437541 30.9144 0.0943741C31.5254 0.492103 32.2052 0.795823 32.6535 1.41411C33.4996 2.57837 34.6819 3.42806 35.5569 4.56701C36.1427 5.32631 36.8767 5.93737 37.5456 6.60989C38.3555 7.42704 39.4004 8.04894 39.9826 9.03603C40.6045 10.0846 41.7904 10.5293 42.3906 11.5923C42.6401 12.0371 43.1969 12.3372 43.6634 12.6264C43.9888 12.8289 44.2636 13.0784 44.4516 13.3713C45.0518 14.2933 46.0027 14.7959 46.8199 15.4575C47.1019 15.6853 47.5647 15.7974 47.4165 16.3325C47.4056 16.3723 47.5249 16.5025 47.5611 16.4952C48.2264 16.3362 48.1649 16.8532 48.2409 17.2256C48.3385 17.6921 48.7217 17.9632 48.9459 18.332C49.387 19.0516 50.0885 19.4565 50.6815 19.9844C50.8839 20.1652 51.0358 20.3785 51.2021 20.581C51.9434 21.4994 52.9304 22.1502 53.791 22.9385C54.2429 23.3543 54.6877 23.7665 55.0637 24.251C55.3783 24.6559 55.6495 25.0753 56.2677 25.0428C56.5064 25.0319 56.7342 25.2019 56.868 25.4261C57.4103 26.3481 58.1334 27.1725 58.8674 27.8956C59.8618 28.8755 60.7512 29.9529 61.7745 30.9003C61.8287 30.9509 61.8576 31.0232 61.948 31.1678C60.9754 31.1317 60.0859 31.2293 59.1965 31.0847C58.0864 30.9039 56.9764 31.0015 55.8736 31.1787C55.7073 31.2076 55.5301 31.3414 55.4759 31.034C55.4614 30.9473 55.3132 30.9328 55.2047 30.9436C53.7187 31.0521 52.2507 31.3811 50.7502 31.2257C50.5188 31.2004 50.5332 31.3667 50.5332 31.5041C50.5405 32.1368 50.5043 32.7732 50.5802 33.3987C50.6815 34.2195 50.5875 34.9679 50.3344 35.767C50.15 36.3455 50.0306 37.0506 50.5513 37.6833C50.7899 37.9726 50.5332 38.5041 50.5115 38.9271C50.5007 39.1296 50.4501 39.3285 50.4211 39.5273C50.3777 39.7696 50.5115 40.0408 50.309 40.2613C50.2403 40.0191 50.309 39.7479 49.933 39.6177C49.7522 39.5563 49.9656 39.1694 49.933 38.9271C50.3886 38.5945 50.1644 38.1895 50.0559 37.7954C50.0776 37.4266 50.0053 37.0904 49.7197 36.7686C49.7016 36.9349 49.6871 37.065 49.6763 37.1952C49.4991 37.0325 49.5642 36.8192 49.5606 36.6239C49.5534 35.6115 49.5534 34.5991 49.5606 33.5867C49.5606 33.3915 49.4955 33.1782 49.6763 33.0154C49.7522 33.3083 49.8679 33.5976 49.7739 33.9085C49.698 34.1472 49.6257 34.3822 49.8426 34.5847C49.9005 34.6389 49.9836 34.7004 50.0559 34.6353C50.2729 34.4436 50.2982 34.1797 50.2874 33.9121C50.2874 33.8326 50.2657 33.7531 50.2476 33.6735C50.1102 33.0625 49.8715 32.4731 49.9258 31.8295C49.9402 31.6668 49.8607 31.5583 49.6835 31.5475C49.3726 31.2582 48.964 31.3486 48.6097 31.3161C48.0058 31.2618 47.3948 31.3378 46.7837 31.3992C45.6882 31.5113 44.5854 31.3811 43.5007 31.204C43.1608 31.1497 42.9728 31.3848 42.7016 31.4137C41.4108 31.5547 40.12 31.8693 38.8255 31.7572C37.9108 31.6776 36.9743 31.674 36.0704 31.4535C35.9149 31.4173 35.7413 31.3956 35.5822 31.4245C34.1396 31.6885 32.6969 31.298 31.2542 31.4245C30.2852 31.5077 29.3198 31.5655 28.3436 31.5764C27.7976 31.5836 27.4722 31.0738 26.9009 31.204C26.4851 31.298 26.0114 31.0304 25.6499 31.5185C25.5559 31.6487 25.1401 31.5764 24.8797 31.5366C24.1313 31.4245 23.3864 31.3414 22.6344 31.5005C22.5187 31.5258 22.3777 31.4282 22.1716 31.3631C22.7501 31.204 23.3539 31.4679 23.6902 30.8388C23.748 30.7303 24.1783 30.7231 24.3808 30.8677C24.981 31.298 25.5703 30.9943 26.1561 30.8677C26.326 30.8316 26.2356 30.6688 26.1995 30.5568C26.3839 30.3615 26.6225 30.4411 26.8358 30.4411C28.0579 30.4447 29.2837 30.3941 30.4985 30.564C30.0466 30.9979 29.5295 30.5893 29.0486 30.6797C28.8968 30.7086 28.6871 30.6472 28.6907 30.893C28.6907 31.0955 28.8534 31.1606 29.0306 31.1678C29.3958 31.1859 29.7537 31.1678 30.1117 31.0485C30.5889 30.8894 31.0662 30.7231 31.5941 30.8533C32.3281 31.0377 33.0332 30.9219 33.7021 30.5604C33.7816 30.517 33.8648 30.4736 33.9479 30.4338C34.0492 30.3832 34.0709 30.2928 34.0745 30.1916L34.0528 30.1843ZM54.8432 24.627C54.9878 24.9162 55.1179 25.0536 55.4036 25.1332C55.2879 24.8801 55.1433 24.7535 54.8432 24.627Z" fill="#FCDBA6"/>
<path d="M10.3156 30.5603H11.3063C11.4546 31.1894 11.5341 31.8294 11.5594 32.4838C11.5703 32.7369 11.3787 33.0623 11.7475 33.2395C11.7764 33.254 11.7872 33.3624 11.7655 33.4058C11.3136 34.3061 11.7909 35.3149 11.4401 36.2297C11.3859 36.3707 11.3642 36.5913 11.5233 36.7504C11.7692 36.707 11.6462 36.3635 11.9102 36.3165C11.9102 36.7287 11.8596 37.13 11.6679 37.4916C11.5631 37.6904 11.545 37.8785 11.5594 38.0809C11.5739 38.287 11.5594 38.2726 11.3389 38.5546C11.2702 38.645 11.2847 38.8366 11.3208 38.9668C11.5522 39.8309 11.4582 40.6951 11.3389 41.5593C11.3136 41.7545 11.357 41.9172 11.4076 42.098C11.6824 43.0923 11.8089 44.1083 11.8017 45.1424C11.8017 45.3666 11.8053 45.5655 11.5884 45.7426C11.2485 46.0174 11.5956 46.3501 11.5884 46.6574C11.5884 46.8924 11.6788 47.0841 11.5233 47.3408C11.3895 47.5577 11.2015 47.9482 11.7041 48.0965C11.7945 48.1218 11.7945 48.2194 11.7692 48.3026C11.4727 49.192 11.7872 50.1177 11.5884 51.0288C11.498 51.4519 11.6498 51.9653 11.7041 52.4317C11.7945 53.2597 11.6245 54.0696 11.6896 54.8868C11.7113 55.1471 11.3895 55.1543 11.4365 55.4617C11.5016 55.8956 11.4654 56.3258 11.639 56.7633C11.7547 57.0562 11.6607 57.4322 11.6607 57.7613C11.3389 57.8119 11.5305 57.4684 11.3208 57.4612C11.0858 57.6383 11.2738 57.8589 11.3317 58.0035C11.6209 58.7303 11.7981 59.4281 11.2015 60.0934C11.1906 60.1079 11.1834 60.1404 11.1906 60.1513C11.686 60.8563 11.0858 61.7747 11.6932 62.5051C12.0331 62.9137 12.3441 63.0004 12.7237 62.7943C12.9623 62.6642 13.1829 62.628 13.4179 62.6497C14.0507 62.7076 14.687 62.7727 15.3126 62.8847C15.4391 62.9064 15.6633 62.9064 15.7392 63.174C15.7934 63.3692 16.0936 63.2355 16.2852 63.2391C16.3792 63.2391 16.4479 63.1668 16.4407 63.0836C16.4226 62.7835 16.0899 62.9715 15.9562 62.7943C17.6772 62.7365 19.3477 62.9209 21.0109 63.2716C20.8193 63.08 20.53 63.1704 20.3239 62.8884C20.7108 62.8884 21.0543 62.8884 21.3942 62.8884C21.3942 62.9281 21.3942 62.9643 21.3942 63.0041C21.3002 63.2102 21.1555 63.4126 21.387 63.626C21.4701 63.7778 21.5316 63.9369 21.4954 64.1177C21.0507 64.0743 20.5987 64.0635 20.1576 63.9839C19.7707 63.9116 19.5068 64.2081 19.1669 64.2406C18.3895 64.3093 17.5941 63.861 16.8312 64.3383C16.6468 63.6983 15.9634 64.642 15.7681 64.0056C15.7573 63.9767 15.562 63.9658 15.4753 64.0056C14.3905 64.4865 13.2769 64.1864 12.1705 64.1466C11.6173 64.1249 11.0677 64.1141 10.5145 64.1249C10.2036 64.1285 10.0842 64.0273 10.0806 63.7019C10.0625 62.4147 10.0951 61.1311 10.312 59.8584C10.3337 59.721 10.4096 59.6776 10.5 59.5981C10.623 59.486 10.7134 59.2943 10.623 59.0991C10.0541 57.8794 9.86488 56.591 10.0553 55.2339C10.0842 55.0314 10.0806 54.8253 10.0698 54.6228C9.99746 53.4224 10.0264 52.2365 10.2469 51.0433C10.3301 50.5877 10.0734 50.0815 10.0951 49.6006C10.1421 48.6063 9.98299 47.6047 10.0987 46.6213C10.2578 45.2654 9.97938 43.9095 10.2325 42.5536C10.3193 42.0944 10.1565 41.5846 10.0698 41.1037C9.97215 40.5577 9.96491 40.0262 10.0698 39.473C10.2614 38.4425 9.85283 37.4518 9.79498 36.4358C9.78052 36.1574 9.71905 35.9151 9.95407 35.7127C10.0915 35.5933 10.1204 35.4596 9.96492 35.3619C9.65758 35.1739 9.74797 34.9497 9.90345 34.74C10.5145 33.9193 10.2506 32.9249 10.4494 32.021C10.4964 31.8077 10.4494 31.7968 9.76605 31.6956C10.0047 31.4136 10.3952 31.2328 10.3229 30.7953C10.3229 30.7157 10.3229 30.6362 10.3229 30.5566L10.3156 30.5603Z" fill="#FCDBA6"/>
<path d="M21.4954 64.1104C21.5316 63.9297 21.4701 63.7742 21.387 63.6187C21.481 63.4126 21.6111 63.2065 21.3942 62.9968C21.3942 62.957 21.3942 62.9209 21.3942 62.8811C21.4303 61.8542 21.4701 60.831 21.5027 59.8041C21.5171 59.316 21.4846 58.8279 21.6075 58.3434C21.6762 58.0686 21.7594 57.7829 21.5171 57.4973C21.3327 57.2804 21.3797 56.9549 21.3761 56.6657C21.3508 55.2809 21.6003 53.9033 21.4954 52.5221C21.3797 50.9999 21.5641 49.4813 21.4376 47.9518C21.3616 47.0298 21.2785 46.068 21.4195 45.1207C21.4737 44.7483 21.8028 44.5928 21.9149 44.2421C22.3415 42.9079 22.9743 41.6532 23.8818 40.5866C25.1618 39.0861 26.8286 38.2509 28.7883 38.0484C29.5946 37.9652 30.4082 37.8712 31.2181 38.0484C31.1783 38.1315 31.1349 38.2111 31.0951 38.2943C30.8746 38.7137 30.5094 38.5871 30.1514 38.5727C29.0523 38.5293 28.0001 38.7101 27.0383 39.2777C26.8141 39.0969 26.59 39.0246 26.3694 39.2777C26.2609 39.4007 26.1597 39.5236 26.0548 39.6501C25.809 40.0985 25.3534 40.254 24.9231 40.442C24.8363 40.4818 24.7062 40.4167 24.6483 40.5288C24.2868 41.2411 23.654 41.7834 23.2888 42.4559C22.4789 43.9492 22.4789 45.6703 22.215 47.3118C22.0125 48.5448 22.5476 49.7488 22.3379 51.036C22.1933 51.9291 22.3704 52.927 22.3849 53.8744C22.3921 54.3661 22.6199 54.9048 22.3523 55.3676C22.0342 55.9245 22.5151 56.4994 22.1933 57.1177C22.0378 57.4141 22.1607 58.0867 22.2366 58.5712C22.3849 59.5076 22.2764 60.4513 22.3234 61.3878C22.3487 61.894 22.2728 62.44 22.2294 62.9679C22.1824 63.5392 22.5801 63.7778 22.967 63.7163C23.654 63.6115 24.3048 63.5826 25.0063 63.6404C25.5197 63.6838 26.0838 63.6476 26.6153 63.6079C27.935 63.503 29.2692 63.4126 30.5781 63.4379C31.84 63.4632 33.1127 63.4054 34.3674 63.5428C35.0833 63.6187 35.792 63.6006 36.5043 63.6187C37.0105 63.6332 37.5058 63.6802 37.9795 63.8754C37.9795 63.9188 37.9867 63.9622 37.9903 64.0056C38.0229 64.0743 38.0554 64.143 38.0879 64.2117C36.3669 64.4214 34.6422 64.1936 32.9175 64.2478C31.0011 64.3057 29.074 64.4142 27.1685 64.2804C25.9464 64.1972 24.7423 64.3382 23.5311 64.2442C23.2093 64.2189 22.8947 64.2551 22.5693 64.3274C22.215 64.4069 21.7919 64.4756 21.4882 64.1177L21.4954 64.1104Z" fill="#B9A492"/>
<path d="M38.0952 64.2045C38.0626 64.1358 38.0301 64.0671 37.9975 63.9984C38.4784 64.0599 38.6737 63.8574 38.605 63.3729C38.5833 63.2138 38.605 63.0475 38.605 62.8848C39.8162 62.7727 41.0384 62.7474 42.2388 62.9028C44.0249 63.1379 45.8183 62.7871 47.5973 63.1089C47.948 63.174 48.1143 63.5103 48.4614 63.5103C48.5735 63.6513 48.6892 63.7887 48.8447 63.9839C48.1179 64.1828 47.3984 64.143 46.6897 64.0671C46.4041 64.0382 46.1691 63.9767 45.887 64.1575C45.5905 64.3491 45.2109 64.2334 44.8674 64.2009C42.6871 63.9912 40.5069 64.1322 38.3266 64.1322C38.2506 64.1322 38.1711 64.1792 38.0952 64.2045Z" fill="#FCDBA7"/>
<path d="M10.3156 30.5604C10.3156 30.6399 10.3156 30.7195 10.3156 30.799C9.29239 30.517 8.25107 30.7412 7.21697 30.6688C7.03619 31.1823 6.62761 31.2184 6.17926 31.1606C6.10695 31.1497 6.03825 31.1244 5.90809 31.0883C6.1178 30.8171 6.47937 31.0087 6.65654 30.7014C6.47214 30.6905 6.30943 30.6725 6.14311 30.6725C4.30632 30.6725 2.46954 30.6725 0.632758 30.6688C0.41943 30.6688 0.177178 30.7556 7.62939e-06 30.5459C3.43855 30.5531 6.8771 30.5567 10.3193 30.564L10.3156 30.5604Z" fill="#FCECD3"/>
<path d="M50.0415 37.788C50.15 38.1822 50.3741 38.5871 49.9186 38.9198C49.839 38.8366 49.7558 38.7534 49.6763 38.6703C49.6763 38.2979 49.6763 37.9291 49.6763 37.5566C50.2078 37.7049 49.5931 38.0954 49.8499 38.3051C50.0451 38.1894 50.027 37.9833 50.0451 37.7917L50.0415 37.788Z" fill="#FCF4E6"/>
<path d="M50.3994 45.551C49.9764 45.6414 50.0704 45.3015 50.0415 45.099C50.0162 44.9074 50.0559 44.7881 50.3163 44.9291C50.4464 45.0014 50.3344 44.7194 50.4645 44.6724C50.6742 44.9508 50.4934 45.2509 50.5151 45.5438C50.4754 45.5438 50.4356 45.551 50.3994 45.551Z" fill="#FCDFB2"/>
<path d="M50.2946 40.2504C50.4971 40.0299 50.3633 39.7587 50.4067 39.5164C50.4645 39.4405 50.5224 39.3646 50.6779 39.1621C50.4862 39.8419 50.5115 40.3987 50.5368 41.0387C50.2874 40.7675 50.2765 40.5144 50.2946 40.2541V40.2504Z" fill="#FCDFB1"/>
<path d="M50.1463 57.3491C50.1897 57.7252 50.2295 58.1012 50.291 58.6472C49.9041 58.141 50.0849 57.7288 50.0415 57.3491H50.1427H50.1463Z" fill="#FCE3BB"/>
<path d="M49.6691 50.718C49.6691 50.6312 49.6691 50.5408 49.6691 50.4541C49.886 50.3022 49.698 49.9515 50.0704 49.7852C49.8282 50.107 50.1463 50.5481 49.6691 50.718Z" fill="#FCE2B9"/>
<path d="M50.4031 46.4045C50.5694 46.6757 50.5188 46.9215 50.291 47.1963C50.3163 46.8564 50.1825 46.5527 50.4067 46.2852C50.4067 46.3249 50.4067 46.3647 50.4067 46.4045H50.4031Z" fill="#FCEBD1"/>
<path d="M50.1536 42.7163C50.1644 42.9007 50.15 43.0779 49.933 43.2623C49.9149 42.9549 49.8209 42.7054 50.027 42.4668C50.0379 42.5644 50.0523 42.6657 50.1536 42.7163Z" fill="#FCF1DF"/>
<path d="M50.4464 54.5976C50.215 54.3734 50.2982 54.1999 50.4645 53.9648C50.5441 54.2035 50.5621 54.3807 50.4464 54.5976Z" fill="#FCE4BF"/>
<path d="M50.6453 53.5455C50.2367 53.5853 50.356 53.2888 50.4175 53.1189C50.5007 52.8911 50.5585 53.1912 50.6489 53.1659V53.5455H50.6453Z" fill="#FDE9CA"/>
<path d="M22.6235 7.07985C22.5331 7.21001 22.3921 7.1847 22.262 7.19555C22.2547 6.93883 22.4211 6.80867 22.6163 6.7002C22.6561 6.82675 22.4681 6.95691 22.6235 7.07985Z" fill="#FBE5C1"/>
<path d="M9.09714 31.5222C8.88382 31.5222 8.70303 31.7355 8.46801 31.6162C8.59818 31.5077 8.72834 31.3992 8.8585 31.2908C8.93805 31.3667 9.0176 31.4462 9.10076 31.5222H9.09714Z" fill="#FCEBCF"/>
<path d="M50.121 40.746C50.0126 40.5905 49.8607 40.4314 50.0596 40.2036C50.2404 40.3736 50.1066 40.5688 50.121 40.746Z" fill="#FCDFB1"/>
<path d="M50.1463 57.3491H50.0451C50.0451 57.0707 50.0451 56.7923 50.0451 56.5139C50.0776 56.5139 50.1138 56.5139 50.1463 56.5139V57.3528V57.3491Z" fill="#FCE1B6"/>
<path d="M50.526 45.6704C50.9563 45.7717 50.6778 46.2128 50.8839 46.4225C50.8514 46.4189 50.8152 46.4152 50.7827 46.4116C50.5332 46.2742 50.7574 45.938 50.526 45.797V45.6704Z" fill="#FCF1E0"/>
<path d="M50.7863 46.4116C50.8189 46.4116 50.855 46.4152 50.8876 46.4225C50.8767 46.6466 50.9599 46.8889 50.7285 47.0841C50.7465 46.86 50.7682 46.6358 50.7863 46.4116Z" fill="#FCDCA9"/>
<path d="M50.4031 50.0998C50.5875 50.3023 50.6236 50.5518 50.6706 50.87C50.3886 50.6205 50.4031 50.3565 50.4067 50.0962H50.4031V50.0998Z" fill="#FCE6C3"/>
<path d="M50.526 45.6705V45.797C50.4898 46.0031 50.6128 46.2382 50.3994 46.4045C50.3994 46.3647 50.3994 46.3249 50.3994 46.2852C50.3994 46.0393 50.3994 45.797 50.3994 45.5512C50.4392 45.5512 50.479 45.5476 50.5151 45.5439C50.5151 45.5873 50.5224 45.6271 50.526 45.6705Z" fill="#FCEBD0"/>
<path d="M22.6235 7.07989C22.4681 6.95696 22.6561 6.82679 22.6163 6.70024C22.6886 6.56285 22.7718 6.67855 22.8513 6.6894C22.7754 6.81956 22.6995 6.94973 22.6235 7.07989Z" fill="#FCF6ED"/>
<path d="M50.6453 53.5454V53.1658C50.9129 53.2923 50.7538 53.4912 50.7321 53.6647L50.6453 53.5454Z" fill="#FCE2B9"/>
<path d="M49.9656 46.9866C50.0704 47.1674 50.0487 47.3337 49.9981 47.5289C49.8535 47.3445 49.8932 47.1782 49.9656 46.9866Z" fill="#FCDDAC"/>
<path d="M3.64103 31.1065C3.78927 31.0305 3.91221 30.9402 4.09299 30.9799C3.98452 31.1969 3.83266 31.186 3.64103 31.1065Z" fill="#FCF1DE"/>
<path d="M5.00054 31.0918C5.19579 31.0087 5.36573 31.0195 5.56821 31.0918C5.36573 31.1894 5.19579 31.2039 5.00054 31.0918Z" fill="#FCDCA9"/>
<path d="M50.4067 50.096C50.0415 50.0309 50.3452 49.8537 50.2223 49.5825C50.4537 49.8356 50.385 49.973 50.4031 50.0996H50.4067V50.096Z" fill="#FDE9CC"/>
<path d="M50.1102 50.8879C50.168 50.9964 50.2114 51.0578 50.2367 51.1265C50.2548 51.1808 50.2331 51.2567 50.168 51.2242C50.1102 51.1952 50.0704 51.1157 50.0451 51.047C50.0343 51.0181 50.074 50.9638 50.1102 50.8843V50.8879Z" fill="#FDDEAF"/>
<path d="M50.479 49.1848C50.4537 49.1124 50.4139 49.0618 50.4247 49.0257C50.4356 48.9823 50.4934 48.9497 50.5296 48.9136C50.5549 48.9533 50.6091 49.0004 50.6019 49.0365C50.5911 49.0835 50.5368 49.1197 50.4826 49.1848H50.479Z" fill="#FDE9CB"/>
<path d="M50.8297 48.6644C50.667 48.6065 50.6272 48.5089 50.6923 48.3462C50.808 48.4257 50.8876 48.5089 50.8297 48.6644Z" fill="#FCF2E0"/>
<path d="M49.839 56.7997C49.7848 56.5936 49.745 56.4707 49.8607 56.355C49.9402 56.4888 49.933 56.6153 49.839 56.7997Z" fill="#FDE9CA"/>
<path d="M50.4681 42.5645C50.5405 42.6585 50.6851 42.7705 50.573 42.8609C50.4971 42.926 50.4356 42.7705 50.4211 42.6765C50.4175 42.644 50.4464 42.6078 50.4645 42.5645H50.4681Z" fill="#FCDFB1"/>
<path d="M50.0053 59.3162C50.1789 59.5186 50.2042 59.6199 50.1789 59.7356C50.1789 59.7392 50.0921 59.7356 50.0885 59.7284C50.0632 59.6416 50.0523 59.5512 50.0053 59.3162Z" fill="#FDF0DC"/>
<path d="M9.09714 31.5221C9.0176 31.4462 8.93805 31.3666 8.85489 31.2907C9.00675 31.2871 9.18392 31.2473 9.25262 31.4245C9.28516 31.5077 9.16945 31.5185 9.09352 31.5221H9.09714Z" fill="#FCE1B8"/>
<path d="M37.9903 63.8683C37.5167 63.6731 37.0249 63.6261 36.5151 63.6116C35.8028 63.5899 35.0941 63.6116 34.3782 63.5357C33.1236 63.4019 31.8508 63.4598 30.5889 63.4308C29.2801 63.4019 27.9459 63.4959 26.6261 63.6008C26.0946 63.6442 25.5306 63.6767 25.0171 63.6333C24.3193 63.5718 23.6649 63.6008 22.9779 63.7092C22.591 63.7707 22.1933 63.5321 22.2403 62.9608C22.2837 62.4329 22.3596 61.8905 22.3343 61.3807C22.2836 60.4443 22.3957 59.5042 22.2475 58.5641C22.1716 58.0796 22.0522 57.4071 22.2041 57.1106C22.5259 56.4923 22.045 55.9174 22.3632 55.3606C22.6308 54.8941 22.403 54.359 22.3957 53.8673C22.3777 52.9199 22.2041 51.922 22.3487 51.0289C22.5548 49.7454 22.0233 48.5413 22.2258 47.3047C22.4934 45.6632 22.4897 43.9421 23.2997 42.4488C23.6649 41.7763 24.2976 41.2304 24.6592 40.5217C24.717 40.4096 24.8472 40.471 24.934 40.4349C25.3606 40.2469 25.8198 40.0914 26.0657 39.6431C26.4381 39.6431 26.7382 39.4406 27.0492 39.2742C28.0109 38.7066 29.0667 38.5258 30.1623 38.5692C30.5202 38.5836 30.8854 38.7066 31.106 38.2908C31.2398 38.5692 31.3265 38.8801 31.7749 38.7138C31.934 38.656 32.1654 38.7391 32.3462 38.8078C33.2899 39.1585 34.2264 39.5274 35.1628 39.8889C35.058 40.1167 34.8193 39.8889 34.6675 40.048C34.7723 40.3445 35.0688 40.7386 35.2532 40.5723C35.622 40.236 35.6726 40.7133 35.8787 40.688C35.7558 41.2557 36.3886 41.375 36.5296 41.7763C36.6597 42.1451 36.8333 41.9716 37.0177 41.8486C37.0538 41.892 37.0936 41.9354 37.1298 41.9788C37.4082 42.2825 37.0538 42.7092 37.3756 43.0382C38.1747 43.859 38.4893 44.8424 38.2543 45.9922C38.2109 46.2128 38.2868 46.4731 38.5074 46.6322C38.5363 46.719 38.5688 46.8058 38.5978 46.8889C38.3953 47.1095 38.5182 47.3807 38.4857 47.6265C38.4857 48.3678 38.482 49.109 38.4784 49.8502C38.5363 50.4215 38.3519 51.0109 38.5869 51.5713C38.3953 52.1534 38.652 52.656 38.8725 53.1622C38.7171 53.3828 38.37 53.5274 38.5869 53.889C38.4025 54.1023 38.482 54.3554 38.482 54.594C38.4748 57.483 38.4748 60.3756 38.482 63.2645C38.482 63.6225 38.4893 63.9406 37.9903 63.8647V63.8683Z" fill="#AF9783"/>
<path d="M37.0141 41.8524C36.8297 41.9753 36.6525 42.1452 36.5259 41.78C36.3849 41.3751 35.7522 41.2594 35.8751 40.6917C35.669 40.717 35.6184 40.2398 35.2496 40.576C35.0652 40.7423 34.7723 40.3482 34.6639 40.0517C34.8157 39.8963 35.058 40.124 35.1592 39.8963C35.3147 39.9143 35.387 40.1964 35.6365 40.0264C35.4846 39.889 35.387 39.6865 35.1592 39.8963C34.2191 39.5347 33.2826 39.1659 32.3426 38.8152C32.1618 38.7465 31.9304 38.6633 31.7713 38.7211C31.3229 38.8875 31.2362 38.5765 31.1024 38.2981C31.1421 38.215 31.1855 38.1354 31.2253 38.0522C32.2341 38.1065 33.2646 38.2981 34.1432 38.685C34.8555 38.9996 35.6256 39.4949 36.1644 40.1277C36.6778 40.7315 37.2202 41.3064 37.7444 41.8957C38.4567 42.6912 38.6375 43.6602 38.8436 44.6401C39.0967 45.8477 38.8508 47.0879 39.0967 48.2956C39.2088 48.8488 38.7568 49.3043 38.8581 49.8503C38.8581 49.9732 38.8581 50.0998 38.8545 50.2227C38.8147 50.2227 38.7749 50.2227 38.7351 50.2191C38.7315 50.1432 38.7279 50.0636 38.7207 49.9877C38.6737 49.8829 38.5833 49.8575 38.482 49.8575C38.482 49.1163 38.4857 48.3751 38.4893 47.6339C38.652 47.7713 38.5869 47.9629 38.6122 48.1329C38.6303 48.3136 38.511 48.5414 38.7785 48.6607C38.9159 48.4474 38.8328 48.2269 38.84 48.0172C38.6954 47.7424 38.7315 47.4423 38.7207 47.1458C38.7135 46.9288 38.7134 46.7119 38.6918 46.4986C38.6845 46.4407 38.6158 46.3322 38.529 46.4154C38.4893 46.4552 38.5146 46.5636 38.5074 46.6396C38.2868 46.4805 38.2072 46.2201 38.2543 45.9996C38.4893 44.8498 38.1711 43.8663 37.3756 43.0455C37.0538 42.7129 37.4082 42.2899 37.1298 41.9861C37.1985 41.9934 37.2961 42.1055 37.3286 41.9934C37.3503 41.9211 37.2889 41.78 37.2238 41.7294C37.1045 41.639 37.0611 41.7692 37.0177 41.856L37.0141 41.8524Z" fill="#B9A492"/>
<path d="M37.9903 63.8683C38.4929 63.9443 38.4857 63.6261 38.482 63.2681C38.4748 60.3792 38.4784 57.4866 38.482 54.5976C38.482 54.3626 38.4025 54.1059 38.5869 53.8926C38.5905 54.3048 38.5978 54.7206 38.6014 55.1328C38.6773 55.2593 38.6701 55.3859 38.6014 55.5088C38.6628 55.9535 38.4567 56.4236 38.7243 56.8502C38.7243 56.9768 38.7243 57.0997 38.7243 57.2263C38.5363 58.2061 38.4748 59.1896 38.7641 60.155C38.8725 60.5129 38.8038 60.8637 38.9738 61.3265C38.6086 61.0589 38.8075 60.7733 38.6086 60.4659C38.6086 61.3446 38.6086 62.1147 38.6086 62.8812C38.6086 63.044 38.5833 63.2103 38.6086 63.3694C38.6773 63.8539 38.482 64.0563 38.0012 63.9949C38.0012 63.9515 37.9939 63.9081 37.9939 63.8647L37.9903 63.8683Z" fill="#DCBE95"/>
<path d="M49.6691 31.5366C49.8462 31.5474 49.9258 31.6559 49.9113 31.8186C49.8571 32.4622 50.0957 33.0552 50.2331 33.6626C50.2512 33.7422 50.2693 33.8217 50.2729 33.9012C50.2837 34.1688 50.2584 34.4328 50.0415 34.6244C49.9692 34.6895 49.886 34.628 49.8282 34.5738C49.6112 34.3713 49.6835 34.1363 49.7595 33.8976C49.8571 33.5903 49.7378 33.2974 49.6618 33.0046C49.6618 32.5128 49.6655 32.0247 49.6691 31.533V31.5366Z" fill="#FBFAF6"/>
<path d="M19.9117 30.5531C20.5264 30.5531 21.1411 30.5495 21.7594 30.5459C21.3399 30.9075 20.8446 31.0015 20.3059 30.8966C20.3059 31.1967 20.7831 30.8388 20.6783 31.2437C20.5951 31.5728 20.4649 31.6848 20.1251 31.5511C19.9551 31.4824 19.7454 31.5185 19.5502 31.4317C19.7201 31.4137 19.8937 31.3992 20.1142 31.3775C19.9479 31.0991 19.6406 30.8785 19.9154 30.5495L19.9117 30.5531Z" fill="#FDDAA5"/>
<path d="M38.7315 50.2153C38.7713 50.2153 38.8111 50.2189 38.8509 50.2189C38.9304 50.2189 39.0099 50.2189 39.0895 50.2189C39.0823 50.8119 39.1003 51.4121 38.8255 51.9725C38.5941 51.8315 38.8472 51.6326 38.7279 51.4916C38.7207 51.4808 38.6845 51.4808 38.6737 51.4916C38.6411 51.5133 38.6158 51.5459 38.5869 51.5712C38.3519 51.0107 38.5363 50.4214 38.4784 49.8501C38.5797 49.8501 38.6701 49.8754 38.7171 49.9803C38.5327 50.1285 38.6194 50.2876 38.7062 50.4467C38.7135 50.3671 38.7207 50.2912 38.7315 50.2117V50.2153Z" fill="#CFB594"/>
<path d="M38.605 55.1364C38.6014 54.7242 38.5941 54.3084 38.5905 53.8962C38.3772 53.531 38.7207 53.3864 38.8762 53.1694C39.2883 53.3791 39.0135 53.7552 39.0859 54.048C38.8038 54.0336 38.6158 54.0842 38.8436 54.4132C39.0027 54.735 38.9557 54.9881 38.6014 55.14L38.605 55.1364Z" fill="#F5D198"/>
<path d="M19.3477 31.3666C18.8596 31.4244 18.5378 31.4136 18.2341 31.5185C18.1111 31.5618 17.9376 31.5691 17.8652 31.3991C17.8146 31.2798 17.811 31.1424 17.9448 31.0846C18.0894 31.0231 18.3353 30.8676 18.3823 30.9869C18.5414 31.3919 18.9066 31.24 19.3477 31.3666Z" fill="#FDDAA3"/>
<path d="M50.0415 37.7883C50.0234 37.9799 50.0415 38.186 49.8462 38.3017C49.5895 38.092 50.2078 37.7015 49.6727 37.5533C49.6691 37.4303 49.6618 37.3074 49.6582 37.1845C49.6727 37.0543 49.6871 36.9241 49.7016 36.7578C49.9872 37.076 50.0596 37.4159 50.0379 37.7847L50.0415 37.7883Z" fill="#FDF7EF"/>
<path d="M38.605 55.1364C38.9593 54.9846 39.0063 54.7315 38.8472 54.4097C38.9304 54.3663 39.0099 54.3193 39.0931 54.2759C39.1365 54.482 39.1763 54.6881 39.2197 54.8942C38.793 54.9593 39.1582 55.2232 39.0967 55.3823C38.9774 55.5848 38.793 55.5486 38.6086 55.5161C38.6773 55.3895 38.6809 55.263 38.6086 55.14L38.605 55.1364Z" fill="#E7C797"/>
<path d="M12.5357 30.7483C12.9045 30.6399 13.1612 30.6399 13.4071 30.8207C13.1504 30.9255 12.9009 30.9725 12.5357 30.7483Z" fill="#FCD9A1"/>
<path d="M38.7243 57.2262C38.7243 57.0996 38.7243 56.9767 38.7243 56.8501C38.8111 56.7272 38.8906 56.7344 38.9666 56.8574C38.9666 57.0201 38.9666 57.1828 38.9666 57.3455C38.9485 57.3961 38.9268 57.4467 38.9087 57.4974C38.8472 57.407 38.7858 57.3129 38.7207 57.2226L38.7243 57.2262Z" fill="#FCD599"/>
<path d="M16.1586 31.7246C16.466 31.5763 16.6395 31.7752 16.8456 31.8403C16.6142 31.8945 16.3828 31.9777 16.1586 31.7246Z" fill="#FDDAA3"/>
<path d="M39.0931 58.8208C39.0316 59.0088 39.2341 59.186 39.0714 59.468C38.9196 59.1968 38.7243 59.016 39.0967 58.8208H39.0931Z" fill="#E3C497"/>
<path d="M39.0967 58.8244C39.0316 58.6943 38.7894 58.6472 38.887 58.4375C38.9268 58.3508 39.028 58.358 39.0931 58.4158C39.2377 58.546 39.263 58.6834 39.0931 58.8208L39.0967 58.8244Z" fill="#D3B895"/>
<path d="M23.0466 30.9435C22.873 31.1098 22.7501 31.2038 22.544 31.0809C22.6344 30.8458 22.8188 30.9362 23.0466 30.9435Z" fill="#FCDBA6"/>
<path d="M39.0931 55.3787C39.1546 55.2197 38.7894 54.9557 39.216 54.8906C39.339 55.0931 39.3643 55.2739 39.0931 55.3787Z" fill="#DCBE95"/>
<path d="M39.0895 54.2722C39.0063 54.3156 38.9268 54.3626 38.8436 54.406C38.6158 54.0806 38.8002 54.03 39.0859 54.0444C39.0859 54.1203 39.0859 54.1963 39.0895 54.2722Z" fill="#BEA794"/>
<path d="M39.0895 50.2225C39.0099 50.2225 38.9304 50.2225 38.8509 50.2225C38.8509 50.0996 38.8509 49.973 38.8545 49.8501C39.0967 49.8718 39.0931 50.049 39.0895 50.2261V50.2225Z" fill="#E6C697"/>
<path d="M38.9702 57.3492C38.9702 57.1865 38.9702 57.0238 38.9702 56.8611C39.2847 57.0238 39.1401 57.1865 38.9702 57.3492Z" fill="#DBBE95"/>
<path d="M28.7666 15.9095C28.9691 16.3144 29.3343 16.5241 29.7429 16.6399C30.3395 16.8098 30.7986 17.3594 30.8312 17.9957C30.8529 18.4079 30.325 19.1383 29.9562 19.3661C29.233 19.8108 28.5171 19.6337 27.8048 19.4131C27.5734 19.3408 27.4975 19.348 27.3384 19.5613C26.9045 20.1507 26.3405 20.3134 25.6788 20.0712C25.2015 19.8976 24.8291 19.8289 24.3446 20.1869C23.9107 20.505 23.2852 20.4978 22.7935 20.1254C22.186 19.6626 21.9582 18.9756 22.1716 18.2958C22.262 18.0102 22.3777 17.7246 22.544 17.4787C22.967 16.8423 23.372 16.177 23.8854 15.6166C24.388 15.0706 25.169 15.0598 25.8596 14.9585C26.7961 14.8211 27.6819 14.9875 28.3942 15.6889C28.4629 15.8589 28.4521 16.159 28.7702 15.9167L28.7666 15.9095ZM25.6896 18.3754C25.5703 18.285 25.715 17.9777 25.4836 18.0355C25.2775 18.0861 25.5016 18.3067 25.4474 18.4441C25.4402 18.4622 25.4474 18.4839 25.4474 18.5019C25.3932 18.643 25.2521 18.7876 25.4149 18.9394C25.498 19.019 25.6101 18.9937 25.686 18.9214C25.8741 18.7478 25.8053 18.5598 25.6896 18.379V18.3754ZM28.0037 16.0433C27.9639 16.0722 27.8265 16.0143 27.8663 16.1409C27.888 16.2168 27.9929 16.271 28.0688 16.3253C28.076 16.3289 28.1556 16.2602 28.1736 16.2132C28.2387 16.0613 28.1194 16.0613 28.0037 16.0433ZM25.5739 17.4678C25.3064 17.5944 25.1835 17.6522 25.1581 17.8403C25.3534 17.8403 25.4221 17.7209 25.5739 17.4678ZM27.1902 15.6672C27.154 15.6455 27.1142 15.6021 27.0672 15.5877C26.9985 15.5696 26.9515 15.6238 26.9732 15.6853C26.9877 15.7251 27.0492 15.7612 27.0962 15.7757C27.154 15.7902 27.2046 15.7648 27.1938 15.6672H27.1902Z" fill="#9E8678"/>
<path d="M37.7408 25.7515C38.1458 26.6048 38.106 26.8471 37.4733 27.4039C37.1117 27.7221 36.3379 27.7076 35.8245 27.3424C35.4774 27.0965 35.1845 26.9194 34.7289 27.1725C34.3421 27.3858 33.9841 27.1038 33.6768 26.8579C33.4201 26.6518 33.1959 26.5144 32.809 26.5976C32.3823 26.6916 31.934 26.5289 31.7279 26.0878C31.4929 25.5888 31.4206 25.0681 31.8725 24.6198C32.4438 24.0557 33.1272 23.6399 33.8359 23.2964C34.6675 22.8951 36.4102 23.6327 36.8007 24.4679C36.9309 24.7427 37.0936 25.003 37.2419 25.2706C37.3395 25.502 37.5058 25.6647 37.7408 25.7515ZM34.2987 25.9467C34.2697 25.831 34.248 25.69 34.0926 25.7153C33.9516 25.7407 33.8576 25.8636 33.8286 26.0118C33.7997 26.1601 33.8937 26.2541 34.0166 26.2685C34.2444 26.2975 34.2227 26.0769 34.2987 25.9467ZM34.5807 26.923C34.4469 26.8181 34.3348 26.6988 34.1215 26.8001C34.2806 26.9049 34.3927 27.0315 34.5807 26.923ZM32.451 26.283C32.6391 26.2722 32.7511 26.283 32.8343 26.1818C32.7114 26.095 32.5993 26.0986 32.451 26.283ZM37.1442 26.1854C37.1695 26.3589 37.2021 26.4602 37.3539 26.5361C37.3539 26.3806 37.3684 26.2613 37.1442 26.1854Z" fill="#9D8778"/>
<path d="M23.5925 13.2265C23.5998 12.5938 24.0083 12.0189 24.4422 11.99C24.8942 11.9574 25.4582 12.4781 25.5631 13.0204C25.6463 13.4543 25.7945 13.8882 25.4257 14.2859C24.8725 14.8862 24.0481 14.6728 23.7082 13.834C23.6251 13.6243 23.5745 13.4073 23.5889 13.2265H23.5925Z" fill="#9F8778"/>
<path d="M31.2217 15.3055C31.2217 16.0757 31.0011 16.4156 30.5022 16.4047C29.4681 16.3866 29.1173 16.1769 29.1282 15.5731C29.139 14.8427 29.826 14.0183 30.4479 13.9894C30.918 13.9677 31.2253 14.4884 31.2253 15.3019L31.2217 15.3055Z" fill="#9F8778"/>
<path d="M21.0398 15.6708C20.9639 15.2912 21.0398 14.9549 21.2893 14.6476C21.5388 14.3439 21.8317 14.0763 22.2222 14.2354C22.5946 14.3873 22.9381 14.6512 22.9815 15.114C23.0068 15.4177 22.9815 15.7251 22.9959 16.0324C23.014 16.3651 22.8405 16.5965 22.5801 16.723C22.3162 16.8496 22.0089 16.8423 21.7847 16.6073C21.6075 16.4229 21.2857 16.3723 21.2568 16.0505C21.264 15.8769 21.2893 15.6962 21.0398 15.6708Z" fill="#9F8778"/>
<path d="M28.7702 13.3568C28.7775 14.1631 28.2966 14.6042 27.4903 14.5246C27.2046 14.4957 27.2155 14.1992 27.0926 14.0365C26.7274 13.5556 27.1721 12.1455 27.7398 11.9755C28.0363 11.8888 28.3725 11.9647 28.5135 12.2937C28.6545 12.63 28.7956 12.9771 28.7739 13.3568H28.7702Z" fill="#9F8778"/>
<path d="M35.7016 21.7342C35.6763 22.5116 35.3364 22.9383 34.8229 22.9166C34.4071 22.8985 34.1396 22.4574 34.1721 21.8427C34.1974 21.3763 34.5988 20.9315 35.011 20.9641C35.5208 21.0039 35.6365 21.398 35.7016 21.7378V21.7342Z" fill="#9F8778"/>
<path d="M33.3116 22.4682C33.3116 23.0865 32.9066 23.741 32.5667 23.7482C32.1907 23.7518 31.7496 23.1335 31.7532 22.5984C31.7532 22.2441 32.2703 21.727 32.6608 21.7451C33.1453 21.7704 33.2682 22.1392 33.308 22.4682H33.3116Z" fill="#A08778"/>
<path d="M37.3756 25.1368C37.3359 24.797 37.4986 24.5186 37.7336 24.3269C38.0735 24.0521 38.5435 23.8497 38.9087 24.1208C39.3679 24.4607 39.028 24.9669 38.8834 25.3538C38.7424 25.7371 38.3953 25.8998 37.9831 25.6322C37.7661 25.484 37.5094 25.3827 37.3756 25.1368Z" fill="#9F8778"/>
<path d="M36.4356 22.9819C36.4464 22.5371 37.0864 21.8321 37.4986 21.8646C37.8276 21.8935 37.9795 22.1394 37.9686 22.4721C37.9433 23.1663 37.6071 23.6616 37.1623 23.6652C36.6814 23.6652 36.4247 23.4266 36.4356 22.9819Z" fill="#9F8778"/>
<path d="M33.6804 30.5532C33.0151 30.9112 32.3064 31.0269 31.5724 30.8461C31.0445 30.7159 30.5673 30.8823 30.09 31.0413C29.732 31.1607 29.3741 31.1787 29.0089 31.1607C28.8317 31.1534 28.6726 31.0847 28.669 30.8859C28.669 30.64 28.8751 30.7015 29.027 30.6725C29.5078 30.5785 30.0249 30.9907 30.4769 30.5568C31.5435 30.5568 32.6101 30.5568 33.6768 30.5568L33.6804 30.5532Z" fill="#FCD59A"/>
<path d="M42.2966 30.3071C42.463 30.8856 42.3472 31.0592 41.8302 30.911C41.4506 30.8025 40.9986 30.8929 40.6913 30.553C41.089 30.553 41.4903 30.553 41.8881 30.5494C42.0725 30.5494 42.2641 30.5638 42.2966 30.3071Z" fill="#FCD79B"/>
<path d="M47.6985 30.5532C47.2068 30.8858 46.6897 31.0955 46.057 30.875C46.2631 30.687 46.4764 30.5857 46.7186 30.5496C47.0441 30.5496 47.3731 30.5496 47.6985 30.5532Z" fill="#FDD69A"/>
<path d="M44.871 16.0396C45.1639 16.1914 45.5002 16.2854 45.6086 16.6578C45.2796 16.6832 45.5363 16.9037 45.4893 17.023V17.1532C45.1133 16.8748 44.8457 16.5421 44.8746 16.0432L44.871 16.0396Z" fill="#FCD0A4"/>
<path d="M57.7791 28.4525C57.7791 28.5356 57.7791 28.6224 57.7791 28.7056C57.526 28.2355 56.9692 28.0656 56.7016 27.6028C57.0921 27.8487 57.526 28.0331 57.7827 28.4525H57.7791Z" fill="#FCD0A4"/>
<path d="M55.4434 29.9311C55.4434 29.8914 55.4434 29.8516 55.4434 29.8154H56.322C56.1701 30.0288 56.1159 30.5205 55.776 30.0251C55.6965 29.9094 55.5591 29.942 55.4434 29.9311Z" fill="#FCD3A5"/>
<path d="M49.246 29.7469C49.5389 29.642 49.7992 29.4432 50.1717 29.7686C49.8137 29.7794 49.5751 30.0217 49.246 29.7469Z" fill="#FCD8A6"/>
<path d="M34.0528 30.1845C34.0492 30.2857 34.0275 30.3761 33.9262 30.4267C33.8431 30.2785 33.7455 30.123 33.5683 30.3002C33.4164 30.452 33.2429 30.4159 33.0693 30.4231C33.1923 30.3399 33.3152 30.2604 33.4381 30.1772C33.6442 29.9458 33.8503 30.0905 34.0528 30.1845Z" fill="#FCCEA3"/>
<path d="M23.3575 8.05248C23.1876 7.83554 23.3322 7.69814 23.4768 7.55713C23.5708 7.64029 23.8059 7.61498 23.7444 7.81023C23.6974 7.96932 23.5347 8.04886 23.3539 8.05248H23.3575Z" fill="#FDD6A5"/>
<path d="M33.4381 30.1771C33.3152 30.2602 33.1923 30.3398 33.0693 30.4229C32.9211 30.4157 32.7548 30.4627 32.5921 30.2711C32.8922 30.1192 33.1742 30.2024 33.4381 30.1771Z" fill="#FCD4A5"/>
<path d="M37.3756 25.1367C37.5094 25.3862 37.7661 25.4838 37.9831 25.6321C37.8818 25.6321 37.7914 25.6501 37.7408 25.7514C37.5022 25.6646 37.3359 25.5019 37.2419 25.2705C37.2852 25.2271 37.3323 25.1801 37.3756 25.1367Z" fill="#DB9F8F"/>
<path d="M20.4794 10.6305C20.6349 10.5329 20.794 10.4316 21.0109 10.2979C20.9856 10.7028 20.7361 10.6847 20.559 10.7679C20.5337 10.7245 20.5083 10.6775 20.4794 10.6341V10.6305Z" fill="#FCCFA4"/>
<path d="M32.3136 30.0036C32.1654 30.2386 32.0063 30.1735 31.8291 30.1591C31.9521 30 32.0931 29.9855 32.3136 30.0036Z" fill="#FCD5A5"/>
<path d="M28.7666 15.9094C28.4484 16.1552 28.4593 15.8515 28.3906 15.6816C28.575 15.6563 28.6943 15.743 28.7666 15.9094Z" fill="#BF9483"/>
<path d="M10.077 21.3294C10.218 21.2028 10.341 21.0004 10.5687 21.2028C10.4313 21.3475 10.2939 21.4993 10.077 21.3294Z" fill="#FCBCA0"/>
<path d="M21.0398 15.6709C21.2893 15.6962 21.264 15.877 21.2568 16.0505C21.1809 15.924 20.8699 15.9348 21.0398 15.6709Z" fill="#C59686"/>
<path d="M39.0931 10.6306C38.9123 10.6306 38.7207 10.645 38.6231 10.3883C38.8472 10.3703 38.9666 10.5076 39.0931 10.6342V10.6306Z" fill="#FCD0A4"/>
<path d="M45.4857 17.1534V17.0232C45.605 17.1244 45.699 17.2401 45.6809 17.4065C45.6809 17.4137 45.5978 17.4209 45.5905 17.4101C45.5508 17.3269 45.5182 17.2365 45.4857 17.1534Z" fill="#FDC5A2"/>
<path d="M54.8468 24.627C55.1469 24.7535 55.2915 24.8801 55.4072 25.1332C55.1216 25.0572 54.9914 24.9198 54.8468 24.627Z" fill="#FBF3E4"/>
<path d="M21.3942 63.0005C21.6075 63.2102 21.4773 63.4163 21.387 63.6224C21.1555 63.4127 21.3038 63.2066 21.3942 63.0005Z" fill="#E7CBA0"/>
<path d="M27.0455 39.2778C26.7346 39.4441 26.4345 39.6466 26.0621 39.6466C26.1669 39.5236 26.2682 39.3971 26.3766 39.2742C26.6008 39.0211 26.825 39.097 27.0455 39.2742V39.2778Z" fill="#B39D8A"/>
<path d="M38.6086 48.1292C38.5833 47.9592 38.6484 47.7676 38.4857 47.6302C38.5182 47.3843 38.3953 47.1131 38.5977 46.8926C38.6014 46.9902 38.6194 47.0842 38.7171 47.1421C38.7279 47.4349 38.6918 47.735 38.8364 48.0134C38.7605 48.0532 38.6845 48.093 38.6086 48.1292Z" fill="#EBC998"/>
<path d="M38.7171 47.1421C38.6195 47.0879 38.605 46.9939 38.5978 46.8926C38.5652 46.8059 38.5363 46.7191 38.5074 46.6359C38.511 46.56 38.4857 46.4515 38.5291 46.4118C38.6158 46.325 38.6845 46.4335 38.6918 46.4949C38.7135 46.7082 38.7135 46.9288 38.7207 47.1421H38.7171Z" fill="#EFCD98"/>
<path d="M37.0141 41.8522C37.0575 41.7618 37.1008 41.6353 37.2202 41.7257C37.2889 41.7763 37.3467 41.9137 37.325 41.9896C37.2925 42.1017 37.1949 41.9896 37.1262 41.9824C37.09 41.939 37.0502 41.8956 37.0141 41.8522Z" fill="#E9C796"/>
<path d="M38.6086 48.1291C38.6845 48.0894 38.7605 48.0496 38.8364 48.0134C38.8328 48.2268 38.9123 48.4473 38.7749 48.657C38.5074 48.5377 38.6267 48.3135 38.6086 48.1291Z" fill="#F4D099"/>
<path d="M35.1592 39.8924C35.3906 39.6827 35.4882 39.8888 35.6365 40.0226C35.387 40.1925 35.3147 39.9105 35.1592 39.8924Z" fill="#EECB97"/>
<path d="M38.7315 50.2153C38.7243 50.2948 38.7171 50.3708 38.7062 50.4503C38.6194 50.2876 38.5327 50.1285 38.7171 49.9839C38.7207 50.0598 38.7243 50.1394 38.7315 50.2153Z" fill="#EFCD98"/>
<path d="M25.6896 18.3754C25.8053 18.5562 25.8741 18.7442 25.686 18.9178C25.6065 18.9901 25.498 19.0154 25.4149 18.9359C25.2521 18.784 25.3932 18.643 25.4474 18.4984C25.5269 18.455 25.6101 18.4152 25.6896 18.3718V18.3754Z" fill="#F5AA9A"/>
<path d="M28.0037 16.0432C28.1194 16.0613 28.2387 16.0613 28.1736 16.2132C28.152 16.2602 28.076 16.3289 28.0688 16.3252C27.9929 16.271 27.888 16.2168 27.8663 16.1408C27.8302 16.0143 27.9639 16.0721 28.0037 16.0432Z" fill="#F8AB9B"/>
<path d="M25.6897 18.3754C25.6101 18.4188 25.5269 18.4586 25.4474 18.5019C25.4474 18.4839 25.4402 18.4585 25.4474 18.4441C25.5016 18.3067 25.2775 18.0861 25.4836 18.0355C25.715 17.9777 25.5703 18.285 25.6897 18.3754Z" fill="#BA9281"/>
<path d="M25.5776 17.4714C25.4257 17.7282 25.357 17.8475 25.1618 17.8439C25.1871 17.6558 25.31 17.5944 25.5776 17.4714Z" fill="#BF9484"/>
<path d="M27.1938 15.6672C27.2082 15.7613 27.154 15.7902 27.0962 15.7757C27.0492 15.7649 26.9877 15.7251 26.9732 15.6853C26.9515 15.6239 26.9985 15.5732 27.0672 15.5877C27.1142 15.5985 27.1576 15.6419 27.1902 15.6672H27.1938Z" fill="#B08E7F"/>
<path d="M34.2987 25.9466C34.2227 26.0804 34.2444 26.3009 34.0166 26.2684C33.8937 26.2539 33.7997 26.1599 33.8286 26.0117C33.8576 25.8634 33.9479 25.7405 34.0926 25.7152C34.248 25.6862 34.2697 25.8309 34.2987 25.9466Z" fill="#D49C8C"/>
<path d="M34.5843 26.9231C34.3963 27.0351 34.2842 26.905 34.1251 26.8001C34.3384 26.6989 34.4505 26.8182 34.5843 26.9231Z" fill="#C09584"/>
<path d="M32.4547 26.2829C32.6029 26.0985 32.7114 26.0949 32.8379 26.1817C32.7584 26.2829 32.6427 26.2721 32.4547 26.2829Z" fill="#B08E7F"/>
<path d="M37.1478 26.1853C37.372 26.2576 37.3612 26.3806 37.3576 26.536C37.2057 26.4601 37.1732 26.3589 37.1478 26.1853Z" fill="#BF9484"/>
</svg>
