<svg width="30" height="31" viewBox="0 0 30 31" fill="none" xmlns="http://www.w3.org/2000/svg">
<path d="M16.0604 8.69786L11.234 9.85861C9.09613 10.3728 7.77671 12.5048 8.28595 14.6222L9.43564 19.4026C9.94488 21.52 12.0895 22.819 14.2273 22.3048L19.0537 21.1441C21.1915 20.6299 22.5109 18.4979 22.0017 16.3805L20.852 11.6001C20.3427 9.48265 18.1982 8.18371 16.0604 8.69786ZM20.6882 16.2104C21.1008 17.9259 20.0353 19.6476 18.3033 20.0641L14.4045 21.0018C12.6725 21.4183 10.9407 20.3694 10.5281 18.6539L9.59941 14.7923C9.18856 13.084 10.2523 11.3551 11.9843 10.9386L15.8831 10.0009C17.6079 9.58611 19.3469 10.6333 19.7595 12.3488L20.6882 16.2104Z" fill="#2381A0"/>
<path d="M14.534 12.2008C12.7078 12.64 11.5743 14.4616 12.0111 16.2775C12.4478 18.0935 14.2856 19.2005 16.1118 18.7613C17.938 18.3221 19.0697 16.4933 18.6347 14.6846C18.1997 12.8758 16.3602 11.7616 14.534 12.2008ZM15.7976 17.4549C14.6961 17.7198 13.5924 17.0514 13.33 15.9603C13.0676 14.8693 13.7466 13.7721 14.8482 13.5072C15.9497 13.2423 17.0534 13.9107 17.3158 15.0018C17.5781 16.0928 16.8991 17.19 15.7976 17.4549Z" fill="#2381A0"/>
<path d="M17.4015 10.5772C16.9377 10.6888 16.6507 11.1527 16.7612 11.612C16.8716 12.0714 17.3382 12.354 17.802 12.2425C18.2658 12.1309 18.5529 11.6671 18.4424 11.2077C18.3319 10.7483 17.8653 10.4657 17.4015 10.5772Z" fill="#2381A0"/>
<path d="M25.0104 20.8581C24.7068 21.0298 24.6136 21.4394 24.5271 21.7488C24.4498 22.0331 24.2469 22.4008 24.3177 22.6951C24.3401 22.7884 24.4606 22.843 24.5479 22.7916C24.8188 22.6429 24.955 22.2533 25.1169 22.0018C25.2952 21.7235 25.534 21.3775 25.4619 21.0456C25.417 20.859 25.1851 20.7553 25.0177 20.8563L25.0104 20.8581Z" fill="#2381A0"/>
<path d="M26.9446 13.5365C26.9974 7.54055 19.721 3.23141 14.1094 3.51799C11.027 3.67465 8.08033 4.93761 5.94856 7.1663C4.12389 9.07815 2.50364 12.095 2.86558 14.7793C2.87939 14.8368 2.90597 14.8835 2.93634 14.9142C2.27426 19.6519 5.43796 24.6465 9.83849 26.4962C14.1959 28.326 20.5128 27.8166 23.7715 24.0261C24.0479 23.7091 23.6569 23.2944 23.3142 23.559C23.1848 23.6585 23.0627 23.7562 22.9333 23.8557C22.8314 23.7511 22.6675 23.707 22.4998 23.8384C20.1734 25.7039 16.3853 25.9544 13.5699 25.6596C13.2559 25.6288 13.1635 26.137 13.4789 26.2054C15.0218 26.5328 16.6169 26.5668 18.1722 26.2763C18.8258 26.1571 19.4656 25.9804 20.0861 25.7553C19.1664 26.2346 18.1867 26.5917 17.0755 26.7527C14.8169 27.0833 12.6724 26.741 10.5562 25.9743C8.07834 25.0745 6.19845 23.6967 4.91789 21.4003C3.80198 19.406 3.23095 17.1592 3.3829 14.8903C3.40671 14.8618 3.43051 14.8333 3.43638 14.7939C3.50054 14.5507 3.5647 14.3075 3.62334 14.0732C3.37334 15.9025 3.62478 17.8086 4.34103 19.5117C5.70693 22.7367 8.15351 24.4945 11.4038 25.6414C11.7961 25.7749 11.9949 25.1348 11.5949 25.0336C8.77881 24.3214 6.08402 21.8184 5.00773 19.1919C3.8189 16.2888 4.24925 13.2013 5.47715 10.37C5.57927 10.1252 5.19965 9.98115 5.06543 10.1881C4.83391 10.5323 4.63103 10.9 4.45162 11.2696C4.71623 10.553 5.0402 9.86004 5.46874 9.18751C5.39561 9.4253 5.6762 9.69949 5.89014 9.47341C6.44948 8.89849 6.97293 8.30184 7.56264 7.75759C7.98258 7.36807 8.45257 7.02725 8.88493 6.65751C8.97155 6.66705 9.06576 6.64439 9.16756 6.58954C12.5645 4.80827 16.2684 4.3351 19.7175 6.277C19.8504 6.35134 19.9777 6.27516 20.0205 6.16617C20.0226 6.30234 20.1313 6.43564 20.3124 6.39207C20.6168 6.31887 20.5046 5.85231 20.2002 5.92551C20.1133 5.94643 20.0639 5.99626 20.0415 6.0624C20.0294 6.01215 20.0084 5.95647 19.9456 5.91843C18.767 5.16165 17.3817 4.62922 15.9392 4.36872C20.0842 4.83727 24.0714 7.45461 25.467 11.2495C24.884 10.0685 24.065 8.98992 23.0361 8.09082C22.7749 7.86513 22.397 8.20656 22.6362 8.46794C24.1051 10.0812 25.0792 11.9958 25.6574 14.0814C26.2581 16.2604 25.8463 18.3412 25.1018 20.4412C25.0235 20.6575 25.3597 20.812 25.4756 20.6247C25.5567 20.6431 25.6436 20.6222 25.7006 20.5402C27.0255 18.5587 27.7041 15.8974 26.9712 13.5832C26.9677 13.5689 26.966 13.5617 26.9553 13.5491L26.9446 13.5365Z" fill="#2381A0"/>
<path d="M12.3625 25.707C12.3315 25.8967 12.4671 26.0463 12.6548 26.0619C12.7956 26.0736 12.9219 26.0888 13.0558 26.0718C13.2946 26.0447 13.3074 25.7152 13.1352 25.6047C13.0258 25.5323 12.887 25.4973 12.7611 25.4517C12.5847 25.3878 12.388 25.5262 12.3608 25.6998L12.3625 25.707Z" fill="#2381A0"/>
</svg>
