<?xml version="1.0" encoding="utf-8"?>
<!-- Generator: Adobe Illustrator 26.2.1, SVG Export Plug-In . SVG Version: 6.00 Build 0)  -->
<svg version="1.1" id="Layer_1" xmlns="http://www.w3.org/2000/svg" xmlns:xlink="http://www.w3.org/1999/xlink" x="0px" y="0px"
	 viewBox="0 0 8 13" style="enable-background:new 0 0 8 13;" xml:space="preserve">
<style type="text/css">
	.st0{fill:#88BDD0;}
</style>
<path class="st0" d="M-0.3,3.2l5,5c0.3,0.3,0.3,0.7,0,1l0,0c-0.3,0.3-0.7,0.3-1,0l-5-5c-0.3-0.3-0.3-0.7,0-1l0,0
	C-1,2.9-0.6,2.9-0.3,3.2z"/>
<path class="st0" d="M9.7,4.2l-5,5c-0.3,0.3-0.7,0.3-1,0l0,0c-0.3-0.3-0.3-0.7,0-1l5-5c0.3-0.3,0.7-0.3,1,0l0,0
	C9.9,3.5,9.9,3.9,9.7,4.2z"/>
</svg>
