<?xml version="1.0" encoding="utf-8"?>
<!-- Generator: Adobe Illustrator 26.2.1, SVG Export Plug-In . SVG Version: 6.00 Build 0)  -->
<svg version="1.1" id="Layer_1" xmlns="http://www.w3.org/2000/svg" xmlns:xlink="http://www.w3.org/1999/xlink" x="0px" y="0px"
	 viewBox="0 0 320 242" style="enable-background:new 0 0 320 242;" xml:space="preserve">
<style type="text/css">
	.st0{fill:#5882F9;}
	.st1{fill:#907A49;}
	.st2{fill:#E4E1E3;}
	.st3{fill:#FDFDFD;}
	.st4{fill:#5996F6;}
	.st5{fill:#664D48;}
	.st6{fill:#BAA49D;}
	.st7{fill:#3D565C;}
	.st8{fill:#5DB1D2;}
	.st9{fill:#F4F3EE;}
</style>
<path class="st0" d="M170.5,45.7c-0.6,0-2.6,4-3,4.5c-0.4,0.6-2.4,4.5-3.1,4.5c-6.6,0.1-8.9-6.4-8.2-12c0.7-5.8,3.5-11.1,3.7-17
	c0.2-5.2-1.4-10.8-5.8-14.1c-4.5-3.4-10.5-2.8-15.8-2.3l13.1-4.8l-7.1-4.2c5.5-0.6,11.6-1.1,16.2,2.6c4.1,3.3,5.6,8.7,5.4,13.7
	c-0.2,6.1-3.2,11.6-3.8,17.6C161.8,39.8,164.3,45.8,170.5,45.7L170.5,45.7z"/>
<path class="st1" d="M120,51.8l13.2,57.1h47.9c0,0-0.3,2.1,4.6,1.5c4.9-0.7,4.5-3.5,4.5-3.5l34.6-25.7L206.7,29l-36.9,21.5
	c0,0-4.3-1.9-6.3,0.9C163.5,51.4,138.5,42.6,120,51.8L120,51.8z"/>
<path class="st2" d="M128.1,42.5l-6.4,9.5l13.5,54.2l46.6,1.5c0,0,2.2,1.2,4.3,0.6c2.1-0.5,3.4-2.8,3.4-2.8l32.9-24.8l-16.4-50.3
	l-8.3-0.6l-30.8,22.6L128.1,42.5z"/>
<path class="st3" d="M128.1,42.5l16.5,55.6c0,0,25.3-5.8,39.6,8.2c0,0,2.2-14.9,31.4-25.7l-18.1-50.7c0,0-18.9,5.2-32.2,19.3
	C165.4,49.2,150.5,37.1,128.1,42.5L128.1,42.5z"/>
<path class="st2" d="M165.4,49.2c6.9,18.8,13.2,37.9,18.9,57.1C177.3,87.5,171,68.4,165.4,49.2z"/>
<path class="st2" d="M165,56.2c-13.2-10.2-28.5-2.6-28.6-2.5l-0.5-0.9c0.2-0.1,16-8,29.7,2.6L165,56.2L165,56.2z"/>
<path class="st2" d="M139.4,62.7l-0.5-0.9c0.1-0.1,14-8.6,27.8-1.1l-0.5,0.9C152.9,54.4,139.5,62.6,139.4,62.7z"/>
<path class="st2" d="M142.6,71.2l-0.4-1c0.6-0.2,14.8-5.3,26-1l-0.4,1C157,66,142.7,71.1,142.6,71.2z"/>
<path class="st2" d="M146,80.5l-0.3-1c0.7-0.2,16.9-4.3,24.9-1.2l-0.4,1C162.7,76.2,146.2,80.4,146,80.5L146,80.5z"/>
<path class="st2" d="M148.7,89.6l-0.4-1c0.7-0.2,16.1-5.7,25.2,0l-0.6,0.9C164.4,84.1,148.9,89.6,148.7,89.6L148.7,89.6z"/>
<path class="st2" d="M171.4,54.1l-0.9-0.5c0.1-0.1,8.2-13,25.6-15.5l0.1,1C179.4,41.5,171.5,54,171.4,54.1L171.4,54.1z"/>
<path class="st2" d="M173.7,60.5l-0.8-0.7c0.1-0.1,11.3-13.2,25.6-13.5l0,1C184.7,47.6,173.8,60.4,173.7,60.5L173.7,60.5z"/>
<path class="st2" d="M177.3,67.7l-0.8-0.7c0.5-0.6,12-13.5,24.8-11.8l-0.1,1C188.9,54.6,177.4,67.6,177.3,67.7z"/>
<path class="st2" d="M180.9,76.3l-0.8-0.7c0.1-0.1,10.1-11,24.6-11.9l0.1,1C190.8,65.5,181,76.1,180.9,76.3L180.9,76.3z"/>
<path class="st2" d="M183.9,85.9l-0.7-0.8c0.5-0.5,13.5-12.5,24.6-12l0,1C197.1,73.7,184.1,85.8,183.9,85.9z"/>
<path class="st4" d="M320,55.3l-16.2,69.8h-58.6c0,0,0.4,2.6-5.6,1.8c-6-0.8-5.5-4.3-5.5-4.3l-42.3-31.5L214,27.4l44.8,22.8
	c0,0,5.2-2.3,7.7,1.1C266.4,51.3,297.3,44,320,55.3L320,55.3z"/>
<path class="st2" d="M310.1,43.9l7.8,11.7l-16.5,66.4l-57,1.8c0,0-2.7,1.4-5.3,0.8s-4.1-3.4-4.1-3.4l-40.2-30.4l20.1-61.6l10.2-0.7
	l37.7,27.6L310.1,43.9z"/>
<path class="st3" d="M310.1,43.9l-20.2,68c0,0-30.9-7.1-48.5,10c0,0-2.7-18.3-38.5-31.5l22.1-62c0,0,23.1,6.3,39.4,23.6
	C264.5,52.1,282.6,37.3,310.1,43.9L310.1,43.9z"/>
<path class="st2" d="M264.5,52.1c-8.5,22.9-16.2,46.3-23.1,69.8C249.9,98.9,257.6,75.6,264.5,52.1z"/>
<path class="st2" d="M264.9,60.6c16.1-12.4,34.8-3.1,35-3.1l0.6-1.1c-0.2-0.1-19.6-9.7-36.4,3.2L264.9,60.6z"/>
<path class="st2" d="M296.3,68.6l0.7-1.1c-0.2-0.1-17.2-10.5-34.1-1.3l0.6,1.1C279.8,58.4,296.1,68.4,296.3,68.6z"/>
<path class="st2" d="M292.4,79l0.4-1.2c-0.7-0.3-18.1-6.5-31.8-1.2l0.5,1.2C274.8,72.6,292.2,78.9,292.4,79z"/>
<path class="st2" d="M288.2,90.3l0.3-1.2c-0.8-0.2-20.7-5.3-30.4-1.4l0.5,1.2C267.8,85.1,287.9,90.3,288.2,90.3z"/>
<path class="st2" d="M284.9,101.6l0.4-1.2c-0.8-0.3-19.7-7-30.8,0.1l0.7,1.1C265.7,94.8,284.7,101.5,284.9,101.6L284.9,101.6z"/>
<path class="st2" d="M257.1,58.1l1.1-0.7c-0.1-0.2-10-16-31.3-19l-0.2,1.2C247.4,42.7,257,57.9,257.1,58.1L257.1,58.1z"/>
<path class="st2" d="M254.3,65.9l1-0.8c-0.1-0.2-13.8-16.2-31.3-16.6l0,1.3C240.9,50.2,254.2,65.7,254.3,65.9L254.3,65.9z"/>
<path class="st2" d="M249.9,74.8l0.9-0.8c-0.6-0.7-14.7-16.5-30.3-14.4l0.2,1.2C235.7,58.7,249.8,74.6,249.9,74.8z"/>
<path class="st2" d="M245.5,85.2l0.9-0.8c-0.1-0.1-12.4-13.5-30.1-14.6l-0.1,1.3C233.4,72.1,245.3,85.1,245.5,85.2z"/>
<path class="st2" d="M241.8,97l0.9-0.9c-0.7-0.6-16.5-15.3-30.1-14.7l0,1.3C225.7,82.1,241.6,96.8,241.8,97L241.8,97z"/>
<path class="st0" d="M294.4,26.4c-0.5,3.6-2.1,7.3-3.2,10.7c-0.1,0.4-0.2,0.7-0.4,1c0,0.1-0.1,0.2-0.1,0.3c0,0,0-0.1,0-0.1
	c-1.1,2.6-2.7,4.1-5.7,5c-7.3,2.2-16.9,2.2-20.8,9.5c-0.6,1.6-1.2,3.3-1.6,4.9c0.8-3.3,1.9-6.6,2.9-9.9c0-0.1,0-0.2,0.1-0.2
	c0-0.1,0-0.2,0.1-0.2c0.3-1,0.5-1.5,0.5-1.6c1-3,2.1-5.8,4.9-7.6c3.7-2.4,8.7-3.1,12.9-4.1c2.4-0.6,4.9-1,6.9-2.2
	c-1.1-5.5-5.4-10.3-10.7-12.3c-6.3-2.4-19.5-4.5-22.4,3.6c0-0.1,0.1-0.3,0.1-0.4v0l0,0c0.1-0.4,0.3-0.9,0.4-1.3c2.5-6.1,12-10,12-10
	c-4-1.6-9.1,1.1-9.1,1.1c3.4-7.3,14.8-5.6,21.2-3.6C289.9,11.3,295.5,18.4,294.4,26.4L294.4,26.4z"/>
<path class="st3" d="M30.1,240.1h78.6c-0.5-0.5-3.2-3.9-3.4-9.6c-0.2-6.3,3-10.2,3.4-10.6H30.1V240.1L30.1,240.1z"/>
<path class="st2" d="M108.5,222.4H29.5v1.2h78.9V222.4z"/>
<path class="st2" d="M108.5,225.3H29.5v1.2h78.9V225.3z"/>
<path class="st2" d="M108.5,228.1H29.5v1.2h78.9V228.1z"/>
<path class="st2" d="M108.5,231H29.5v1.2h78.9V231z"/>
<path class="st2" d="M108.5,233.8H29.5v1.2h78.9V233.8z"/>
<path class="st2" d="M108.5,236.7H29.5v1.2h78.9V236.7z"/>
<path class="st5" d="M110,219.2v1.4l-77.3-0.2c-0.6,1.3-2.1,4.5-2.2,9.2c-0.1,5.4,1.6,9.3,2.2,10.5H110v1.9H32.7L2.2,223.6
	c-0.7-1.6-2-5-2.2-9.6c-0.2-5.5,1.3-9.6,1.9-11.2c10.3,5.3,20.7,10.5,31,15.8L110,219.2z"/>
<path class="st6" d="M110,219.2l-36.8-17.8L2,202.8l30.6,16.4H110z"/>
<path class="st3" d="M79,215.7H8.8c0.4-0.3,2.9-2.5,3-6.1c0.2-4-2.7-6.5-3-6.8H79V215.7z"/>
<path class="st2" d="M79.6,204.3H9.1v0.8h70.5V204.3z"/>
<path class="st2" d="M79.6,206.2H9.1v0.8h70.5V206.2z"/>
<path class="st2" d="M79.6,208H9.1v0.8h70.5V208z"/>
<path class="st2" d="M79.6,209.8H9.1v0.8h70.5V209.8z"/>
<path class="st2" d="M79.6,211.7H9.1v0.8h70.5V211.7z"/>
<path class="st2" d="M79.6,213.5H9.1v0.8h70.5V213.5z"/>
<path class="st7" d="M7.8,202.3v0.9l69-0.1c0.6,0.8,1.9,2.9,2,5.9c0.1,3.5-1.5,5.9-2,6.7h-69v1.2h69l27.3-11.8
	c0.6-1,1.8-3.2,1.9-6.2c0.2-3.5-1.1-6.1-1.7-7.2c-9.2,3.4-18.4,6.7-27.7,10.1L7.8,202.3L7.8,202.3z"/>
<path class="st4" d="M7.8,202.3l32.9-11.4l63.6,0.9l-27.4,10.5H7.8z"/>
<path class="st8" d="M71.7,122.3l-51,8.9l12.1,70l51-8.9L71.7,122.3z"/>
<path class="st2" d="M67.4,191.3l-19.7,3.4l0-0.2c-1-6-7.9-10.9-13.9-9.8l-0.2,0l-6.6-38.5l0.2,0c6-1,10.8-7.9,9.8-13.8l0-0.2
	l19.7-3.4l0,0.2c1,6,7.6,10.7,13.6,9.7l0.2,0l6.6,38.5l-0.2,0c-5.8,1-10.6,7.9-9.5,13.9L67.4,191.3L67.4,191.3z M48,194.3l19-3.3
	c-0.9-6,3.7-12.8,9.5-14.1c0,0,0.1,0,0.1,0l-6.5-37.8c-6,0.9-12.6-3.8-13.8-9.8l-19,3.3c0.9,6-3.9,12.8-9.9,14l6.5,37.8
	C40,183.4,46.9,188.3,48,194.3z"/>
<path class="st2" d="M27.5,145.6c-0.1,0-0.3,0.1-0.4,0.1l-0.2,0L25,134.4l11.3-2l0,0.2C37.3,138.6,33.4,144.4,27.5,145.6L27.5,145.6
	z M27.3,145.3c5.8-1.1,9.6-6.6,8.7-12.4l-10.6,1.8L27.3,145.3L27.3,145.3z"/>
<path class="st2" d="M70.4,138.1l-0.2,0c-6.1,1.1-11.9-3.1-13-9.2l0-0.2l11.3-2L70.4,138.1L70.4,138.1z M57.6,129.1
	c0.5,2.8,2.1,5.3,4.4,6.9c2.3,1.6,5.2,2.3,8,1.9l-1.8-10.6L57.6,129.1L57.6,129.1z"/>
<path class="st2" d="M47,194.9l-11.3,2l-1.9-11.3l0.2,0c6.1-1.1,11.9,3.1,13,9.2L47,194.9L47,194.9z M36.1,196.4l10.6-1.8
	c-1.1-5.8-6.6-9.7-12.4-8.8L36.1,196.4L36.1,196.4z"/>
<path class="st2" d="M79.2,189.3l-11.3,2l0-0.2c-1.1-6.1,3.1-12,9.2-13.1l0.2,0L79.2,189.3L79.2,189.3z M68.2,190.8l10.6-1.8
	L77,178.4C71.2,179.5,67.3,185,68.2,190.8L68.2,190.8z"/>
<path class="st7" d="M63.2,147l-26.1,2.1l0.8,10.6l26.1-2.1L63.2,147z"/>
<path class="st9" d="M59.8,147.5L39.6,151l1.4,8.2l20.2-3.5L59.8,147.5z"/>
<path class="st7" d="M20.7,131.2l12.1,70l-4.9-1l-11.6-69.9L20.7,131.2z"/>
<path class="st7" d="M16.2,130.3L50.9,110l1.2,0.2l-35,20.2L16.2,130.3z"/>
<path class="st3" d="M17.1,130.5l34.4-19.9l19.4,11.9l-50.1,8.7L17.1,130.5z"/>
<path class="st2" d="M54.2,111.4l-38,19.2l0.2,0.3l38-19.2L54.2,111.4z"/>
<path class="st2" d="M57.4,113.4l-40.6,17.4l0.1,0.3l40.6-17.4L57.4,113.4z"/>
<path class="st2" d="M60.8,115.5l-43,15.5l0.1,0.4l43-15.5L60.8,115.5z"/>
<path class="st2" d="M64.8,117.9l-46.3,13.2l0.1,0.4l46.3-13.2L64.8,117.9z"/>
<path class="st2" d="M68.6,120.2l-49.2,11.1l0.1,0.4l49.2-11.1L68.6,120.2z"/>
</svg>
