<svg xmlns="http://www.w3.org/2000/svg" viewBox="0 0 480.39 323.32"><defs><style>.cls-1{fill:#fff;}.cls-2{fill:#2381a0;}</style></defs><g id="Layer_2" data-name="Layer 2"><g id="Layer_1-2" data-name="Layer 1"><path class="cls-1" d="M282.93,3.86q-9,.11-18,.9a279.4,279.4,0,0,0-77,18.53C173.15,29.1,158.49,36,145.55,45.14a433.17,433.17,0,0,1,41.6-17.69C217.94,16.15,250.21,6.85,282.93,3.86Z"/><path class="cls-1" d="M244.32,316.6c1.56-.16,3.11-.3,4.66-.47,13.88-1.56,27.47-4.12,41-6.89-15.15,2.13-30.26,5.23-45.24,7.31Z"/><path class="cls-1" d="M387.58,26.24A181,181,0,0,1,404,37.09,129,129,0,0,0,387.58,26.24Z"/><path class="cls-1" d="M20.14,203.52c1.07-45.9,23.13-82.71,54.8-111.66C51.51,107,29.16,124.72,15.72,148c-23.84,41.2-8.8,92.79,23.48,124.17.75.73,1.52,1.44,2.28,2.15C26.76,254.32,19.55,229.24,20.14,203.52Z"/><path class="cls-1" d="M335.74,304.23c9.61,1.09,19.11,2.86,28.63,4.6-7.47-2.83-15-5.18-23.47-4.95C339.18,303.93,337.46,304.05,335.74,304.23Z"/><path class="cls-1" d="M457.9,196.85a114.45,114.45,0,0,0,7-11.68c11.72-22.87,8.13-43.62-2.26-65.87-1-2.1-2-4.18-3-6.25A135.8,135.8,0,0,1,457.9,196.85Z"/><path class="cls-1" d="M425,242.67A110.32,110.32,0,0,0,438,227.48C433.6,232.39,429,237.39,425,242.67Z"/><path class="cls-1" d="M390.36,32.46a183.59,183.59,0,0,0-61-24.23c-27.67-3.35-56.23-.67-83.68,5.49a1.61,1.61,0,0,1-1.2,2.07c-40.6,11.49-80.28,26.27-117.69,45.77-1.83,2-3.61,4.12-5.28,6.32-1.34,1.77-3.86.08-3.34-1.71-1.76,1-3.52,1.92-5.27,2.9a2.13,2.13,0,0,1-2.9-.82l-1.35.88a1.61,1.61,0,0,1-.37,2.6C102.59,75.07,96.72,78.49,90.8,82c-28.72,22.7-51.28,51.22-61.44,86.81-11.48,40.16-5,87.3,26.72,116.43q1.83,1.68,3.74,3.25c29.68,19.31,66.44,27.77,102,29.44,25.44,1.2,51-1.05,76.26-4.36,24.92-3.27,49.79-9.21,74.92-10.32,2.18-.1,4.34-.11,6.5-.09q4.6-.92,9.24-1.75c10.94-2,21.32-1.74,31.84,1.75,8.65,2.87,16.82,6.5,25.43,9.19.78.11,1.56.22,2.35.31,25.81,3.16,52.28-.21,77.1-8.26a96.17,96.17,0,0,1-38.92-22.32c-2.53-2.4-5.08-5-7.48-7.75a23.14,23.14,0,0,1-4.4-5.49,53.73,53.73,0,0,1-4.45-7.13c-2.84-5.55-.36-6.69,4.28-10.13.34-.25.68-.52,1-.79a71.28,71.28,0,0,1,7.44-11c8.24-10.4,17.51-20.26,25.89-30.69a134.64,134.64,0,0,0,11.49-75.74C454.27,91,426.26,55.1,390.36,32.46Z"/><path class="cls-1" d="M423.3,317a125.88,125.88,0,0,0,35.58-6.57A195,195,0,0,1,423.3,317Z"/><path class="cls-1" d="M472.67,302a216.7,216.7,0,0,1-29.52-11.87,95,95,0,0,0,28.79,12.13Z"/><path class="cls-1" d="M134.59,53.82a107.18,107.18,0,0,0-7.78,7.74c37.41-19.5,77.09-34.28,117.69-45.77a1.61,1.61,0,0,0,1.2-2.07c-2.43.54-4.84,1.1-7.25,1.7C204.78,23.76,168,36.13,134.59,53.82Z"/><path class="cls-1" d="M112.92,69.07c1.75-1,3.51-1.94,5.27-2.9a2,2,0,0,1,.34-.66c1.31-1.73,2.69-3.4,4.11-5.05q-6.42,3.75-12.62,7.79A2.13,2.13,0,0,0,112.92,69.07Z"/><path class="cls-1" d="M476.78,303.24a2.12,2.12,0,0,1,.67.24l.2.06c.05-1.18.1-2.35.14-3.53q-2.54,1-5.12,1.95l3.87,1.23Z"/><path class="cls-1" d="M476.54,303.19,472.67,302l-.73.26C473.46,302.58,475,302.9,476.54,303.19Z"/><path class="cls-1" d="M121.53,67.88c1.67-2.2,3.45-4.29,5.28-6.32q-4.34,2.27-8.62,4.61C117.67,68,120.19,69.65,121.53,67.88Z"/><path class="cls-1" d="M328.7,301.45q-4.63.84-9.24,1.75a154.49,154.49,0,0,1,16.28,1c1.72-.18,3.44-.3,5.16-.35,8.43-.23,16,2.12,23.47,4.95,7.17,1.32,14.35,2.6,21.6,3.56-8.61-2.69-16.78-6.32-25.43-9.19C350,299.71,339.64,299.49,328.7,301.45Z"/><path class="cls-1" d="M476.78,303.24l-.24-.05.91.29A2.12,2.12,0,0,0,476.78,303.24Z"/><path class="cls-1" d="M238,313.61c-25.27,3.31-50.82,5.56-76.26,4.36-35.52-1.67-72.28-10.13-102-29.44,30.55,25.32,74.31,30.19,113.19,30.9a592,592,0,0,0,71.31-2.83l.44-.05c15-2.08,30.09-5.18,45.24-7.31,9.81-2,19.59-4.12,29.46-6-2.16,0-4.32,0-6.5.09C287.83,304.4,263,310.34,238,313.61Z"/><path class="cls-1" d="M450.58,90.83c-11-21.21-27.3-39.4-46.6-53.74,25,19.42,41.57,46.75,55.64,76A130.24,130.24,0,0,0,450.58,90.83Z"/><path class="cls-1" d="M29.36,168.85C39.52,133.26,62.08,104.74,90.8,82c-5.28,3.16-10.6,6.43-15.86,9.82-31.67,29-53.73,65.76-54.8,111.66-.59,25.72,6.62,50.8,21.34,70.77a137.3,137.3,0,0,0,18.34,14.24q-1.91-1.57-3.74-3.25C24.38,256.15,17.88,209,29.36,168.85Z"/><path class="cls-1" d="M245.7,13.72c27.45-6.16,56-8.84,83.68-5.49a215.85,215.85,0,0,0-46.45-4.37c-32.72,3-65,12.29-95.78,23.59a433.17,433.17,0,0,0-41.6,17.69,120.4,120.4,0,0,0-9.87,7.7C170.09,35.9,206.2,22.69,243.15,12.23A2,2,0,0,1,245.7,13.72Z"/><path class="cls-1" d="M417.34,265.54a22.08,22.08,0,0,0,6.23,7.92A88.56,88.56,0,0,1,417.34,265.54Z"/><path class="cls-1" d="M472.12,306.19l-1.55-.37c-3.83,1.72-7.74,3.24-11.69,4.58Q465.57,308.52,472.12,306.19Z"/><path class="cls-1" d="M476.11,307l-.21-2.2q-1.87.7-3.78,1.38C473.44,306.49,474.77,306.76,476.11,307Z"/><path class="cls-1" d="M108.67,69.13Q99.42,75.24,90.8,82c5.92-3.55,11.79-7,17.5-10.31A1.61,1.61,0,0,0,108.67,69.13Z"/><path class="cls-1" d="M475.9,304.81l-.13-1.46c-1.72.86-3.46,1.68-5.2,2.47l1.55.37Q474,305.52,475.9,304.81Z"/><path class="cls-1" d="M423.3,317a121.66,121.66,0,0,1-27.23-2,89.4,89.4,0,0,1-10.1-2.58c-7.25-1-14.43-2.24-21.6-3.56,4.79,1.82,9.53,3.84,14.43,5.52,1.67.57,3.35,1.09,5,1.58a163.88,163.88,0,0,0,18.56,1.7A180,180,0,0,0,423.3,317Z"/><path class="cls-1" d="M414.62,268.88a23.14,23.14,0,0,0,4.4,5.49C417.47,272.6,416,270.77,414.62,268.88Z"/><path class="cls-1" d="M476.11,307c-1.34-.25-2.67-.52-4-.82q-6.54,2.32-13.24,4.21A125.88,125.88,0,0,1,423.3,317a180,180,0,0,1-20.9.66,163.88,163.88,0,0,1-18.56-1.7,121.66,121.66,0,0,0,25.37,4.63,129.13,129.13,0,0,0,67.91-13.66A2,2,0,0,0,478,304c-.7.28-1.4.54-2.11.81Z"/><path class="cls-1" d="M476.54,303.19c-1.55-.29-3.08-.61-4.6-1-2.16.78-4.33,1.51-6.52,2.22,1.7.51,3.42,1,5.15,1.38,1.74-.79,3.48-1.61,5.2-2.47l.13,1.46c.71-.27,1.41-.53,2.11-.81a1.65,1.65,0,0,0-.56-.52Z"/><path class="cls-1" d="M335.74,304.23a154.49,154.49,0,0,0-16.28-1c-9.87,1.92-19.65,4-29.46,6a209,209,0,0,1,30.94-2.32A121.28,121.28,0,0,1,335.74,304.23Z"/><path class="cls-1" d="M443.15,290.09A216.7,216.7,0,0,0,472.67,302q2.58-.94,5.12-1.95c0,1.18-.09,2.35-.14,3.53l-.2-.06a1.65,1.65,0,0,1,.56.52l1.13-.43c1.45-.57,1.82-3,.14-3.53A220.56,220.56,0,0,1,442.88,285c-5.72-3-13.61-6.65-19.31-11.52A90.88,90.88,0,0,0,443.15,290.09Z"/><path class="cls-1" d="M388.32,312.7c-.79-.09-1.57-.2-2.35-.31a89.4,89.4,0,0,0,10.1,2.58,121.66,121.66,0,0,0,27.23,2,195,195,0,0,0,35.58-6.57c3.95-1.34,7.86-2.86,11.69-4.58-1.73-.42-3.45-.87-5.15-1.38C440.6,312.49,414.13,315.86,388.32,312.7Z"/><path class="cls-1" d="M438,227.48A110.32,110.32,0,0,1,425,242.67a71,71,0,0,0-6.78,10.56c-.11.23-.21.45-.31.68.27-.18.54-.37.81-.58a86,86,0,0,0,6.71-5.79,116.92,116.92,0,0,0,12.38-13.48A126.07,126.07,0,0,0,452.07,211c-2.82,3.51-5.72,7-8.63,10.37C441.71,223.39,439.89,225.43,438,227.48Z"/><path class="cls-1" d="M432.43,59.15C407.47,27.64,370.9,9.75,331,4.52a191,191,0,0,1,30.57,9.09,186.59,186.59,0,0,1,26,12.63A129,129,0,0,1,404,37.09c19.3,14.34,35.56,32.53,46.6,53.74a130.24,130.24,0,0,1,9,22.22c1,2.07,2,4.15,3,6.25,10.39,22.25,14,43,2.26,65.87a114.45,114.45,0,0,1-7,11.68c-.93,2.69-1.94,5.35-3,8-.87,2.07-1.8,4.11-2.78,6.14A159.92,159.92,0,0,0,466,191.11c11.54-20,13.47-40.64,5.21-61.9C461.7,104.83,448.74,79.76,432.43,59.15Z"/><path class="cls-1" d="M457.9,196.85c-2.83,4.21-5.9,8.28-9.1,12.26A120.64,120.64,0,0,1,438,227.48c1.86-2,3.68-4.09,5.41-6.13,2.91-3.41,5.81-6.86,8.63-10.37,1-2,1.91-4.07,2.78-6.14C456,202.2,457,199.54,457.9,196.85Z"/><path class="cls-1" d="M414.53,261.24c.9,1.47,1.84,2.89,2.81,4.3a13.81,13.81,0,0,1,.53-11.63C414.4,256.25,411.73,256.66,414.53,261.24Z"/><path class="cls-1" d="M425,242.67a104.5,104.5,0,0,1-9.49,8.16c-3.17,6.15-4.15,12.15-.85,18,1.37,1.89,2.85,3.72,4.4,5.49.59.57,1.22,1.14,1.92,1.7a120,120,0,0,0,22.21,14,90.88,90.88,0,0,1-19.58-16.63,22.08,22.08,0,0,1-6.23-7.92c-1-1.41-1.91-2.83-2.81-4.3-2.8-4.58-.13-5,3.34-7.33.1-.23.2-.45.31-.68A71,71,0,0,1,425,242.67Z"/><path class="cls-1" d="M290,309.24c-13.55,2.77-27.14,5.33-41,6.89-1.55.17-3.1.31-4.66.47-26.26,3.63-52.77,6.2-79.25,5.3-36.86-1.25-75.12-9.59-106.13-29.34A99.89,99.89,0,0,0,73,302.11c35.33,19.71,78.11,21.54,118.08,21.17a561.27,561.27,0,0,0,77.12-5.82q20.22-3,40.19-7.53c4.16-.95,8.32-2,12.51-3A209,209,0,0,0,290,309.24Z"/><path class="cls-1" d="M364.37,308.83c-9.52-1.74-19-3.51-28.63-4.6a121.28,121.28,0,0,0-14.8,2.69c2.22,0,4.43.08,6.65.21,19,1.1,37.46,6.1,56.25,8.8-1.69-.49-3.37-1-5-1.58C373.9,312.67,369.16,310.65,364.37,308.83Z"/><path class="cls-1" d="M415.47,250.83a104.5,104.5,0,0,0,9.49-8.16c4-5.28,8.64-10.28,13.07-15.19a120.64,120.64,0,0,0,10.77-18.37c-8.38,10.43-17.65,20.29-25.89,30.69A71.28,71.28,0,0,0,415.47,250.83Z"/><path class="cls-1" d="M282.93,3.86a215.85,215.85,0,0,1,46.45,4.37,170.17,170.17,0,0,1,44.31,11.31,130.16,130.16,0,0,1,13.89,6.7,186.59,186.59,0,0,0-26-12.63A191,191,0,0,0,331,4.52c-3.42-.44-6.86-.81-10.32-1.07A225.71,225.71,0,0,0,282.93,3.86Z"/><path class="cls-1" d="M329.38,8.23a183.59,183.59,0,0,1,61,24.23C426.26,55.1,454.27,91,460.29,133.37a134.64,134.64,0,0,1-11.49,75.74c3.2-4,6.27-8.05,9.1-12.26a135.8,135.8,0,0,0,1.72-83.8C445.55,83.84,429,56.51,404,37.09a181,181,0,0,0-16.4-10.85,130.16,130.16,0,0,0-13.89-6.7A170.17,170.17,0,0,0,329.38,8.23Z"/><path class="cls-1" d="M244.32,316.6A592,592,0,0,1,173,319.43c-38.88-.71-82.64-5.58-113.19-30.9a137.3,137.3,0,0,1-18.34-14.24,99.19,99.19,0,0,0,17.46,18.27c31,19.75,69.27,28.09,106.13,29.34C191.55,322.8,218.06,320.23,244.32,316.6Z"/><path class="cls-1" d="M465.42,304.44c2.19-.71,4.36-1.44,6.52-2.22a95,95,0,0,1-28.79-12.13,120,120,0,0,1-22.21-14c-.7-.56-1.33-1.13-1.92-1.7,2.4,2.75,5,5.35,7.48,7.75A96.17,96.17,0,0,0,465.42,304.44Z"/><path class="cls-1" d="M410.17,261.75a53.73,53.73,0,0,0,4.45,7.13c-3.3-5.9-2.32-11.9.85-18-.34.27-.68.54-1,.79C409.81,255.06,407.33,256.2,410.17,261.75Z"/><path class="cls-1" d="M39.2,272.14C6.92,240.76-8.12,189.17,15.72,148c13.44-23.25,35.79-41,59.22-56.11a248.41,248.41,0,0,1,22.16-18c-36,21.14-77,46.89-91.52,86.58C-9.74,202.3,8.07,249.12,39.71,277.92a141.4,141.4,0,0,0,19.23,14.64,99.19,99.19,0,0,1-17.46-18.27C40.72,273.58,40,272.87,39.2,272.14Z"/><path class="cls-1" d="M90.8,82q8.6-6.8,17.87-12.91a2,2,0,0,0-2.64-.46q-4.4,2.56-8.93,5.23a248.41,248.41,0,0,0-22.16,18C80.2,88.47,85.52,85.2,90.8,82Z"/><path class="cls-1" d="M108.67,69.13l1.35-.88a1.53,1.53,0,0,1,.63-2.24q6.72-3.78,13.56-7.34,2.25-2.49,4.67-4.85A311.81,311.81,0,0,0,97.1,73.9q4.53-2.67,8.93-5.23A2,2,0,0,1,108.67,69.13Z"/><path class="cls-1" d="M135.68,52.84a120.4,120.4,0,0,1,9.87-7.7q-8.43,4.13-16.67,8.68-2.41,2.35-4.67,4.85Q129.91,55.69,135.68,52.84Z"/><path class="cls-1" d="M187.94,23.29A279.4,279.4,0,0,1,265,4.76q9-.79,18-.9a225.71,225.71,0,0,1,37.77-.41c3.46.26,6.9.63,10.32,1.07-30.52-6.39-62.64-5.74-93.4.31-37.31,7.33-80.58,21.39-108.74,49q8.24-4.56,16.67-8.68C158.49,36,173.15,29.1,187.94,23.29Z"/><path class="cls-1" d="M124.21,58.67q-6.83,3.57-13.56,7.34a1.53,1.53,0,0,0-.63,2.24q6.2-4,12.62-7.79C123.16,59.86,123.68,59.26,124.21,58.67Z"/><path class="cls-1" d="M122.64,60.46c-1.42,1.65-2.8,3.32-4.11,5.05a2,2,0,0,0-.34.66q4.29-2.34,8.62-4.61a107.18,107.18,0,0,1,7.78-7.74Q128.53,57,122.64,60.46Z"/><path class="cls-1" d="M134.59,53.82c.36-.33.72-.66,1.09-1q-5.76,2.83-11.47,5.83c-.53.59-1,1.19-1.57,1.79Q128.54,57,134.59,53.82Z"/><path class="cls-1" d="M238.45,15.42c2.41-.6,4.82-1.16,7.25-1.7a2,2,0,0,0-2.55-1.49c-37,10.46-73.06,23.67-107.47,40.61-.37.32-.73.65-1.09,1C168,36.13,204.78,23.76,238.45,15.42Z"/><path class="cls-2" d="M110.65,66c41.73-23.47,86.47-40.75,132.5-53.78,2.4-.67,3.77,2.88,1.35,3.56-45.67,12.92-90.16,30-131.58,53.28-2.16,1.22-4.46-1.83-2.27-3.06Z"/><path class="cls-2" d="M118.53,65.51c26.93-35.46,76.83-52.38,119.09-60.68,41.26-8.11,85-6.53,124,8.78,37.47,14.72,70.52,41.75,89,77.22,18.2,35,19.72,77.25,4.27,114a127.38,127.38,0,0,1-17.08,29.22,116.92,116.92,0,0,1-12.38,13.48,86,86,0,0,1-6.71,5.79c-3.84,2.88-7.16,3-4.15,7.91,13.5,22.1,36.43,37.25,62.25,42,2,.37,2,2.82.34,3.66a129.13,129.13,0,0,1-67.91,13.66,122.4,122.4,0,0,1-30.41-6.21c-12.57-4.31-24.09-10.84-37.9-10.47-11,.3-21.78,3.62-32.47,6.05q-19.95,4.53-40.19,7.53a561.27,561.27,0,0,1-77.12,5.82c-40,.37-82.75-1.46-118.08-21.17-35.85-20-53.83-58.54-52.9-98.59,2.14-91.68,88-147.09,167-176.07,42.59-15.62,88-27.46,133.55-24,43.86,3.33,84.64,21.49,111.73,55.7,16.31,20.61,29.27,45.68,38.76,70.06,8.26,21.26,6.33,41.9-5.21,61.9-6.29,10.89-14.38,20.67-22.54,30.24-8.53,10-19.25,20.12-25.26,31.88-8.34,16.31,12.84,25.65,24.7,31.75A220.56,220.56,0,0,0,479.28,300c1.68.52,1.31,3-.14,3.53-24.37,9.64-50.58,14.79-76.74,14.06-25.36-.71-49.56-9-74.81-10.5-27.72-1.62-55.47,5.63-82.83,9.42-26.41,3.65-53.07,6.26-79.69,5.35-44.93-1.53-91.94-13.56-125.36-44C8.07,249.12-9.74,202.3,5.58,160.48c15.75-43,62.61-69.66,100.45-91.81,2.15-1.26,4.43,1.79,2.27,3.06C74.8,91.34,35.57,113.65,15.72,148c-23.84,41.2-8.8,92.79,23.48,124.17,32,31.12,78.27,43.74,122.58,45.83,25.44,1.2,51-1.05,76.26-4.36,24.92-3.27,49.79-9.21,74.92-10.32,25.78-1.14,50.09,6.32,75.36,9.41,30.15,3.69,61.2-1.5,89.47-12.69,0,1.18-.09,2.35-.14,3.53-19.42-6-40.94-14.6-56.71-27.47-14.27-11.65-8.06-23.6,2-36.27,14.19-17.92,31.46-34.19,41.94-54.63,11.72-22.87,8.13-43.62-2.26-65.87C443,77.22,419,38.12,373.69,19.54,331,2,283,4.39,238.45,15.42,155.79,35.89,54.54,80.66,29.36,168.85c-11.48,40.16-5,87.3,26.72,116.43,30.64,28.17,76.44,33.41,116.93,34.15a588,588,0,0,0,76-3.3c27.06-3,53-9.88,79.72-14.68,10.94-2,21.32-1.74,31.84,1.75,11.95,4,23,9.39,35.53,11.77a125.36,125.36,0,0,0,79.7-11.62c.11,1.22.22,2.44.34,3.66a97.33,97.33,0,0,1-49.61-24.89c-6.15-5.82-12.47-12.82-16.33-20.37-2.84-5.55-.36-6.69,4.28-10.13,36.37-27,51.94-75.4,45.84-118.25-6-42.37-34-78.27-69.93-100.91C353.37,9.14,308.82.85,265,4.76a279.4,279.4,0,0,0-77,18.53c-25.11,9.87-49.88,22.83-66.41,44.59-1.51,2-4.51-.39-3-2.37Z"/></g></g></svg>