<svg xmlns="http://www.w3.org/2000/svg" viewBox="0 0 318.44 266"><defs><style>.cls-1{fill:#fff;}.cls-2{fill:#2381a0;}</style></defs><g id="Layer_2" data-name="Layer 2"><g id="Layer_2-2" data-name="Layer 2"><path class="cls-1" d="M11,82.74a2.13,2.13,0,0,1-2.72,1.08c-6.26,40.3,9.16,79.75,55,99.94,2.64,1.17,2.09,3.74.28,5a1.43,1.43,0,0,1,1.09,1.47c-2.05,21,6.77,40.73,29.63,51.42,22.43,10.5,58.15,7.46,67.71-15.25a4.11,4.11,0,0,1,3.9-2.36c-.23-.59-.46-1.17-.67-1.77-.39-1.12,1.67-1.89,2.29-.81,14.46,25.26,41.89,39.23,74.45,38.62-17.11-8.28-28.54-24.57-25.31-41.4a3.39,3.39,0,0,1,2.42-5.29C308.56,200.1,335.91,95.94,282.1,42.23,253.51,13.68,208.8,5.74,166,6.37c-46.08.68-90,17.8-105.83,56-.6,1.44-3,.84-2.69-.62h0a3.35,3.35,0,0,1-.84-.16C36.5,54.63,16,66,11,82.74Zm272.54-1c-3.38-13.33-10.43-24.92-20.77-35.41-.43-.44.3-1.08.77-.64A74.27,74.27,0,0,1,285,81.38C285.22,82.2,283.7,82.55,283.49,81.73ZM262.86,37.65c23.84,22.13,34.68,52,33.88,81.47,0,1.37-2.59,1.37-2.54,0,1-30.31-11-56.69-32-81C261.86,37.76,262.53,37.34,262.86,37.65ZM136.58,236.2a28.16,28.16,0,0,1-12,1.13c-.67-.07-.51-1.06.16-1a27,27,0,0,0,11.46-1.16A.54.54,0,1,1,136.58,236.2Zm-13.21-4.32a22.13,22.13,0,0,0,13.86-1.95c1.09-.56,2.1.89,1,1.43A21.16,21.16,0,0,1,123,233C122.2,232.71,122.53,231.76,123.37,231.88ZM48.29,157.72C25.86,142.33,14.21,119,18,94.83c.08-.53,1.09-.56,1,0-2.65,24,8.11,46.49,30.68,61.72C50.68,157.21,49.27,158.39,48.29,157.72Zm12.79.13c1,.44.12,1.71-.89,1.28C41.33,151,29.31,135.5,27.42,117.92c0-.42.72-.41.77,0C30.38,135.28,42.67,149.79,61.08,157.85Z"/><path class="cls-2" d="M11,82.74C16,66,36.5,54.63,56.68,61.56A2.43,2.43,0,1,0,58.19,57C36.92,50,8.55,62.29,7,82.29c-.15,1.91,3.42,2.28,4,.45Z"/><path class="cls-2" d="M60.21,62.35C76,24.17,120,7.05,166,6.37c42.76-.63,87.47,7.31,116.07,35.86,53.8,53.71,26.45,157.87-63.1,171.14-4.62.68-3.61,7.41,1.12,6.92,45.13-4.63,77.83-39.89,91.18-74,14.29-36.5,7.24-77-22.21-107C256.63,6.37,203-2.82,154,.71c-42.29,3-89,22.62-96.46,61-.29,1.46,2.09,2.06,2.69.62Z"/><path class="cls-2" d="M216.77,217.72c-4.4,19.62,11.34,38.72,33,45.43,4.41,1.37,6.31-4.52,1.94-5.88C231.49,251,220.47,235.5,219.35,218c-.08-1.16-2.29-1.57-2.58-.29Z"/><path class="cls-2" d="M165.16,222.25c10,29.09,48.39,48.46,83.94,42.75,3.5-.56,2.75-5.51-.84-5.24-35.33,2.66-65.42-11.43-80.81-38.32-.62-1.08-2.68-.31-2.29.81Z"/><path class="cls-2" d="M7.13,78.41C-14.52,118.66,16.07,169.25,59.54,189c4.13,1.88,7.83-3.44,3.68-5.27C15.59,162.78.8,121,9.05,79.09c.18-.9-1.39-1.67-1.92-.68Z"/><path class="cls-2" d="M60.62,189.77c-6.91,25.07,9.25,50.79,37.84,60.39,26.74,9,61.08,2.3,71.44-21.95,1.78-4.19-6.21-6-8-1.83-9.56,22.71-45.28,25.75-67.71,15.25-22.86-10.69-31.68-30.44-29.63-51.42.19-1.9-3.46-2.29-4-.44Z"/><path class="cls-2" d="M18,94.83c-3.77,24.17,7.88,47.5,30.31,62.89,1,.67,2.39-.51,1.4-1.17C27.12,141.32,16.36,118.86,19,94.83c.06-.56-1-.53-1,0Z"/><path class="cls-2" d="M27.42,117.92C29.31,135.5,41.33,151,60.19,159.13c1,.43,1.91-.84.89-1.28-18.41-8.06-30.7-22.57-32.89-39.93-.05-.41-.81-.42-.77,0Z"/><path class="cls-2" d="M124.63,237.33a28.16,28.16,0,0,0,12-1.13.54.54,0,1,0-.33-1,27,27,0,0,1-11.46,1.16c-.67-.07-.83.92-.16,1Z"/><path class="cls-2" d="M123,233a21.16,21.16,0,0,0,15.21-1.6c1.1-.54.09-2-1-1.43a22.13,22.13,0,0,1-13.86,1.95c-.84-.12-1.17.83-.35,1.08Z"/><path class="cls-2" d="M262.72,46.32c10.34,10.49,17.39,22.08,20.77,35.41.21.82,1.73.47,1.51-.35a74.27,74.27,0,0,0-21.51-35.7c-.47-.44-1.2.2-.77.64Z"/><path class="cls-2" d="M262.16,38.1c21,24.32,33.07,50.71,32,81-.05,1.37,2.51,1.37,2.54,0,.8-29.43-10-59.34-33.88-81.47-.33-.31-1,.11-.7.45Z"/></g></g></svg>