<?xml version="1.0" encoding="utf-8"?>
<!-- Generator: Adobe Illustrator 26.2.1, SVG Export Plug-In . SVG Version: 6.00 Build 0)  -->
<svg version="1.1" id="Layer_1" xmlns="http://www.w3.org/2000/svg" xmlns:xlink="http://www.w3.org/1999/xlink" x="0px" y="0px"
	 viewBox="0 0 480.4 323.3" style="enable-background:new 0 0 480.4 323.3;" xml:space="preserve">
<style type="text/css">
	.st0{fill:#FFFFFF;}
	.st1{fill:#2381A0;}
</style>
<path class="st0" d="M142.7,78.1c0,0,35.4-124.7,178.8-40.5c15,17,15,17,15,17l42.1-9.3c0,0,86.9,13,58.1,91.7
	c-2.8,8.6,86.4,78.4-25.7,134.6c-11.6,4.5-59.9-5.2-59.9-5.2c-5.4-2.4-29.6,19.5-29.6,19.5s-2.2,22.7,24.6,32.3
	c-11.9-5.7-32.2,9.8-62.2-18.3c-18.4-2.4-107.7,9-131.9-33c-18.1,10-97.8,32.7-111-36.7c-0.2-28.9,7.6-33.9,11.2-32.6
	s-43.8-3.2-42.1-48c7.6-29.9,34-74.4,123.8-70.1"/>
<path class="st1" d="M454.6,154.4c-4.6-5.2-10.3-10.7-16.9-14.4c0.7-1.3,1.4-2.5,2-3.8c2.8-5.5,4.7-11.4,5.6-17.4
	c1.9-11.8,0.5-24.1-4.7-35.2c-10.4-22.2-35-36.4-62-38.1c-14.9-0.9-29.7,1.8-42.1,9.3c-0.9,0.5-0.3,1.8,0.8,1.4
	c22.3-9.1,49.3-8.6,70.6,2.5c22.2,11.6,33.6,33.4,31.8,55.7c-0.5,6.2-2,12.4-4.6,18.1c-0.8,1.8-1.8,3.6-2.8,5.2
	c-2.5-0.1-4.6,2.8-3.1,4.6c-1.6,2.1-3.2,4.2-4.9,6.4c-2.3,3,1.6,5,4.3,2.7c2-1.6,3.7-3.6,5.3-5.6c1.7,1.1,3.4,2.3,4.9,3.5
	c2.8,2.2,5.5,4.6,7.9,7.1c5,5.2,9.2,11,12.3,17.2c6.3,12.4,8.7,26.2,6.1,39.7c-5.2,27.4-28.7,50.6-59.8,56.9
	c-9,1.8-18.1,2.5-27.3,1.8c-9.3-0.7-18.2-2.9-27-5.4c5.1-4.3,10.1-8.8,14.1-13.9c2.4-3-1.9-5.4-4.5-2.8c-4.9,4.9-9.6,9.8-15,14.3
	c-5.3,4.4-11.1,8.5-17.2,12.1c-2.5,1.5-5.1,3.1-7.8,4.4c-2.1,1-4.2,1.7-4.6,4c-0.3,1.8,0.7,3.4,1.2,5.1c0.4,1.7,0.9,3.4,1.6,5.1
	c1.5,3.6,3.6,6.9,6.3,10c2.6,2.9,5.6,5.6,9,7.8c2.8,1.9,6.3,3.7,9.9,4.6c-12,1-24-0.7-35.1-4.8c-5.7-2.1-11.1-4.9-15.9-8.3
	c-3.1-2.1-6.1-4.4-9.3-6.5c-1.3-0.8-2.6-1.7-4.1-2c-2.2-0.4-4.5,0.6-6.7,0.9c-2.5,0.4-5,0.8-7.5,1c-25.1,2.9-51.1,0-74.7-8.3
	c-14.4-5.1-28.1-12.4-38.8-22.4c2.3-1.7,4.5-3.6,6.5-5.6c2.9-2.9-1.9-5.5-4.6-3c-1.9,1.8-4,3.5-6.2,5.1c-0.7,0.1-1.3,0.5-1.5,1
	c-16.7,11.5-39.4,15.8-59.9,10c-22.2-6.3-41.8-23.6-45.2-44.3c-1.5-9.3,0-19.6,6.8-27.1c2,0.3,4,0.4,6.1,0c1.8-0.3,4.3-3.1,1.9-4.3
	c-1.2-0.5-2.3-0.9-3.5-1.3c-0.3-0.5-1-0.8-1.8-0.5c-1.4-0.4-2.9-0.7-4.3-1.2c-3.2-1.1-6.2-2.5-9-4.2c-5.8-3.5-10.7-8-14.5-13.1
	c-7.9-10.8-10.6-23.8-7.6-36.3c6.7-28,35.4-48.3,65.5-56.2c17-4.5,35.3-5.4,52.9-3.2c-0.7,4.4,5.3,4.3,7.4,1.3
	c0.9-1.2,1.6-2.4,2.4-3.7c0.6-1.1,0.3-2-0.5-2.5c1.6-5.2,3.4-10.3,6.1-15.3c3.5-6.4,7.8-12.5,12.9-18.1
	C172,33.5,185.1,24.3,200,18.3c30.8-12.5,66.4-9.4,95.4,5.5c16.4,8.4,30.1,20.5,39.6,35c0.6,0.9,2.6-0.1,2.1-1
	c-14.7-28.1-47.2-47.4-81.7-51.9c-35.6-4.6-71.1,8.1-95.1,31.2c-6.7,6.4-12.4,13.6-17,21.4c-3.9,6.5-7.4,13.9-9.1,21.2
	c-33.5-6.9-70.7,1.2-96.9,20.7c-13.1,9.8-23.5,22.3-28.4,36.8c-4.7,13.9-3.3,28.5,4.4,41.3c4,6.7,9.5,12.7,16.4,17.2
	c3.5,2.3,7.3,4.2,11.4,5.6c1,0.4,2.1,0.7,3.2,1c-14.2,15.3-8.5,39.5,4.2,54.6c16.1,19.2,43.7,28.9,70.5,24.2
	c11-1.9,21.6-6.1,30.5-12.1c8.5,9.8,20.2,17,32.8,22.3c15.5,6.5,32.5,10.6,49.6,12c16.2,1.3,32.4,0.3,48-2.9
	c0.1,0.2,0.2,0.4,0.3,0.5c3.5,4,9.6,7.2,14.6,9.6c5.2,2.6,10.7,4.6,16.4,6.1c11.4,2.9,23.5,3.5,35.2,1.6c0.5-0.1,0.8-0.6,0.6-0.9
	c0.1-0.2,0.2-0.4-0.1-0.5c-3.4-2-6.7-3.8-9.8-6.1c-3.1-2.4-5.8-5.1-8.1-8.2c-2.2-3-4.1-6.3-5.4-9.7c-0.6-1.6-1.1-3.3-1.5-5
	c-0.1-0.6-0.2-1.3-0.3-2c1.7-0.8,3.3-1.7,4.9-2.6c7.3-4,14.2-8.6,20.6-13.6c0.6-0.5,1.2-0.9,1.8-1.4c0.1,0.1,0.1,0.2,0.3,0.2
	c14.5,8.1,33.6,9.7,50.3,7.6c17.2-2.1,33.3-9.1,45.9-19.5c24.8-20.3,34.4-52.5,22.9-80.6C465.1,168.3,460.5,160.9,454.6,154.4z"/>
</svg>
