<svg width="19" height="19" viewBox="0 0 19 19" fill="none" xmlns="http://www.w3.org/2000/svg">
<path fill-rule="evenodd" clip-rule="evenodd" d="M1.34367 15.6542C0.88523 16.1127 0.885231 16.856 1.34367 17.3144C1.80211 17.7728 2.54539 17.7728 3.00384 17.3144L9.32901 10.9892L16.1404 17.8006C16.5989 18.2591 17.3422 18.2591 17.8006 17.8006C18.259 17.3422 18.259 16.5989 17.8006 16.1405L10.9892 9.32905L18.3142 2.00399C18.7727 1.54555 18.7727 0.802273 18.3142 0.343831C17.8558 -0.11461 17.1125 -0.114611 16.6541 0.343831L9.32901 7.66889L2.4902 0.830081C2.03176 0.37164 1.28848 0.37164 0.830037 0.830082C0.371596 1.28852 0.371595 2.0318 0.830037 2.49024L7.66885 9.32905L1.34367 15.6542Z" fill="#87BCCF"/>
</svg>
