<?xml version="1.0" encoding="UTF-8"?><svg xmlns="http://www.w3.org/2000/svg" viewBox="0 0 103.62 39.35"><g id="a"/><g id="b"><g id="c"><g><rect x="0" y="0" width="103.62" height="39.35" rx="19.68" ry="19.68" fill="#d2edf9"/><g><path d="M90.15,20.94c-.09-1.37-.21-2.73-.35-4.09-.13-1.28-.28-2.55-.46-3.82-.12-.87-.24-1.75-.46-2.6-.07-.26-.14-.52-.29-.75-.58-.85-1.45-1.32-2.45-1.47-.87-.13-1.75-.03-2.63-.02-.91,0-1.83,.03-2.74,.07-1.3,.05-2.59,.11-3.89,.19-1.52,.09-3.05,.2-4.57,.33-1.52,.13-3.03,.28-4.55,.47-1.36,.17-2.71,.36-4.06,.62-1.05,.2-2.1,.43-3.11,.8-.33,.12-.66,.26-.96,.44-.35,.22-.59,.47-.78,.85-1.05,1.99-.76,4.33-.53,6.48,.13,1.28,.29,2.55,.47,3.83,.17,1.2,.39,2.4,.58,3.6,.13,.83,.24,1.66,.56,2.44,.33,.82,.95,1.47,1.78,1.78,1.18,.44,2.47,.15,3.69,.11,1.27-.04,2.54-.1,3.81-.18,2.56-.17,5.11-.41,7.65-.73,2.53-.31,5.05-.69,7.56-1.11,.63-.11,1.26-.21,1.9-.33,.49-.09,.98-.16,1.46-.27,.49-.12,.99-.27,1.43-.52,.23-.13,.46-.29,.66-.47,.06-.05,.11-.11,.15-.17,.15-.24,.18-.54,.21-.82,.04-.38,.05-.77,.05-1.16,0-1.17-.06-2.33-.14-3.5Zm-2.8-10.94s0,.02,0,0h0Zm.02-.04h0Zm-1.11-.88h0s0,0,0,0Zm-10.25,11.26s-.04,0-.05,0h.05Zm-14.55,8.37h0Zm.05,.01h0Zm.24,.3v.03s0-.03,0-.04h0v0h0v-.02h0v.02s0,.03,0,0Z" fill="#fff"/><path d="M89.33,25.94s-.02,.02-.02,.03h0v-.02h.02v-.02Z" fill="#fff"/><polygon points="73.85 20.15 73.86 20.15 73.85 20.15 73.85 20.15" fill="#fff"/><path d="M76.05,17.01s0-.01,0-.03v.03Zm-.75-.88s0,0,0,0c0,0,0,0,0,0Zm-.04-.18l-.02-.05s.01,.03,.02,.05Zm-1.39-.05s0-.01,0-.02v.02Zm0,.06s0,.04,0,.06c0-.02,0-.04,0-.06Zm.02,.16h0Zm.53,.43h0Zm.23-.04h0Zm2.36-1.93v0Z" fill="#fff"/><g><path d="M83.45,9.03c.88,0,1.77-.11,2.65,.03,.06,0,.11,.02,.17,.03,.05,0,0,0,0,0,.03,0,.05,.01,.08,.02,.11,.03,.21,.06,.32,.09,.23,.08,.33,.13,.52,.25,.21,.14,.32,.24,.48,.41,.08,.09,.15,.18,.22,.27,.02,.03,.04,.06,.06,.08,0,0-.04-.06-.02-.04,0,0,0,.01,.01,.02,.01,.03,.03,.07,.05,.1,0,.02,.01,.04,.02,.06,0-.02-.04-.12-.02-.06v.04c.05,.13,.08,.26,.11,.38,.09,.37,.16,.75,.22,1.13,.19,1.1,.33,2.21,.46,3.33,.16,1.33,.29,2.67,.41,4,.06,.66,.11,1.32,.15,1.97,0,.02,.01,.16,0,.04v.11c.01,.08,.02,.16,.02,.24,0,.15,.02,.31,.03,.46,.02,.29,.03,.58,.04,.87,.03,.88,.07,1.78-.02,2.66,0,.07-.02,.14-.03,.2,0,.03,0,.06-.01,.09-.02,.11,.03-.12,0-.01-.01,.05-.02,.09-.04,.14,0,.02-.02,.04-.02,.05-.02,.06,.07-.12,.02-.05-.04,.06-.02-.03,.04-.04-.02,0-.04,.04-.06,.06-.05,.05-.11,.09-.16,.14-.17,.13-.34,.23-.55,.33-.42,.2-.87,.31-1.35,.4-1.12,.22-2.25,.4-3.38,.58-1.23,.2-2.47,.4-3.7,.58-2.47,.36-4.94,.67-7.43,.9-2.47,.23-4.95,.39-7.43,.46-1.14,.03-2.39,.35-3.47-.13l-.06-.03c-.06-.03,.05,.03-.01,0-.04-.02-.08-.04-.12-.07-.09-.05-.17-.11-.25-.18-.01-.01-.12-.11-.06-.05-.03-.03-.06-.06-.09-.09-.07-.07-.13-.14-.19-.22-.03-.03-.05-.07-.08-.1,.05,.07-.03-.04-.04-.06-.05-.08-.1-.17-.14-.26-.04-.08-.08-.17-.11-.25-.02-.04-.03-.08-.05-.12,0-.02-.02-.05-.03-.07,.02,.06,0,0,0-.02-.24-.76-.32-1.56-.46-2.34-.22-1.25-.42-2.49-.59-3.75-.17-1.23-.31-2.46-.44-3.69-.11-1.04-.2-2.05-.14-3.1,.03-.53,.1-1.02,.24-1.51,.12-.43,.28-.85,.52-1.2,.01-.02,.03-.04,.04-.06,.04-.06-.09,.09,0,0,.04-.04,.09-.08,.13-.12,.02-.02,.05-.04,.08-.06l.04-.03c.07-.05-.09,.06-.03,.02,.06-.04,.13-.08,.19-.11,.15-.08,.3-.15,.46-.22,.09-.04,.18-.07,.27-.11,.04-.02,.09-.03,.13-.05,.03,0,.05-.02,.08-.03-.07,.02-.06,.02,0,0,.46-.15,.93-.28,1.41-.39,1.2-.28,2.41-.49,3.63-.66,1.44-.21,2.88-.37,4.32-.52,1.5-.15,2.99-.27,4.49-.38,.18-.01,.37-.03,.55-.04l.26-.02h.12s.18-.02,.08-.01c.36-.02,.71-.05,1.07-.07,.66-.04,1.32-.07,1.98-.11,1.1-.05,2.19-.1,3.29-.12,.37,0,.75-.01,1.12-.02,.23,0,.43-.15,.45-.39,.01-.21-.16-.45-.39-.45-.91,0-1.83,.03-2.74,.07-1.3,.05-2.59,.11-3.89,.19-1.52,.09-3.05,.2-4.57,.33-1.52,.13-3.03,.28-4.55,.47-1.36,.17-2.71,.36-4.06,.62-1.05,.2-2.1,.43-3.11,.8-.33,.12-.66,.26-.96,.44-.35,.22-.59,.47-.78,.85-1.05,1.99-.76,4.33-.53,6.48,.13,1.28,.29,2.55,.47,3.83,.17,1.2,.39,2.4,.58,3.6,.13,.83,.24,1.66,.56,2.44,.33,.82,.95,1.47,1.78,1.78,1.18,.44,2.47,.15,3.69,.11,1.27-.04,2.54-.1,3.81-.18,2.56-.17,5.11-.41,7.65-.73,2.53-.31,5.05-.69,7.56-1.11,.63-.11,1.26-.21,1.9-.33,.49-.09,.98-.16,1.46-.27,.49-.12,.99-.27,1.43-.52,.23-.13,.46-.29,.66-.47,.06-.05,.11-.11,.15-.17,.15-.24,.18-.54,.21-.82,.04-.38,.05-.77,.05-1.16,0-1.17-.06-2.33-.14-3.5-.09-1.37-.21-2.73-.35-4.09-.13-1.28-.28-2.55-.46-3.82-.12-.87-.24-1.75-.46-2.6-.07-.26-.14-.52-.29-.75-.58-.85-1.45-1.32-2.45-1.47-.87-.13-1.75-.03-2.63-.02-.23,0-.43,.15-.45,.39-.01,.21,.16,.45,.39,.45Z" fill="#2381a0"/><path d="M59.18,12.64c.82,.69,1.66,1.35,2.51,2,1.09,.82,2.2,1.61,3.34,2.35,1.25,.81,2.54,1.56,3.87,2.23,1.24,.62,2.53,1.17,3.88,1.54,1.16,.32,2.42,.55,3.63,.39,1.06-.14,2.08-.6,2.99-1.15,1.06-.64,2.03-1.42,2.94-2.26,.94-.87,1.81-1.82,2.62-2.8,.72-.86,1.4-1.76,2.02-2.69,.46-.68,.9-1.38,1.25-2.12,.05-.11,.1-.22,.14-.34,.08-.21-.05-.46-.26-.54-.22-.08-.46,.04-.54,.26-.04,.11-.09,.23-.14,.34-.01,.03-.03,.06-.05,.09l-.02,.05v.02c-.04,.06,0-.03,.01-.04-.04,.07-.07,.14-.11,.21-.19,.35-.39,.69-.6,1.02-.56,.89-1.18,1.74-1.83,2.56-.37,.47-.76,.93-1.15,1.39l-.07,.08c-.07,.08,.02-.02-.03,.04-.05,.06-.11,.12-.16,.18-.1,.11-.21,.23-.31,.34-.21,.23-.43,.45-.65,.67-.87,.87-1.79,1.69-2.8,2.39-.05,.04-.11,.07-.16,.11-.06,.04,.05-.03-.03,.02l-.1,.06c-.12,.08-.24,.16-.37,.23-.24,.14-.48,.28-.72,.4-.24,.12-.48,.23-.72,.32-.06,.02-.12,.04-.18,.07l-.08,.03c.09-.03,0,0-.03,.01-.12,.04-.23,.07-.35,.1-.23,.06-.47,.11-.71,.14-.06,0-.11,.01-.17,.02-.02,0-.06,.01-.08,0,0,0,.09,0,.05,0-.02,0-.04,0-.07,0-.13,0-.25,0-.38,0-.29,0-.59-.03-.88-.07-.15-.02-.31-.04-.46-.07-.07-.01-.15-.03-.22-.04l-.1-.02h-.05s.05,0,0,0c-1.32-.28-2.59-.76-3.81-1.32-.16-.07-.32-.15-.47-.22-.08-.04-.16-.08-.24-.12l-.11-.05s-.15-.07-.08-.04c-.32-.16-.64-.33-.96-.5-.63-.35-1.26-.71-1.87-1.1-1.18-.73-2.32-1.51-3.44-2.33-.92-.67-1.82-1.37-2.7-2.09-.17-.14-.34-.28-.51-.42-.17-.15-.46-.06-.58,.11-.14,.2-.06,.44,.11,.58h0Z" fill="#2381a0"/><path d="M70.46,19.46c-1.42,1.15-2.8,2.36-4.13,3.61-1.33,1.25-2.62,2.55-3.86,3.89-.37,.4-.73,.8-1.09,1.2-.16,.18-.35,.35-.43,.58-.04,.13-.06,.27-.03,.4,.06,.24,.24,.37,.48,.41,.22,.03,.44-.18,.45-.39,0-.24-.16-.41-.39-.45,.08,.01,.16,.04,.21,.11l.05,.07c.02,.08,.03,.1,.02,.06,.02,.12,0,.1,0,.06,0-.04,.03-.04-.01,.05,0-.02,.01-.04,.02-.05,.02-.05,.05-.05-.02,.03,.02-.03,.04-.06,.07-.09,.07-.08,.14-.16,.21-.24l.06-.07s-.06,.07-.01,.01l.14-.15c.29-.33,.59-.65,.88-.97,.59-.64,1.2-1.27,1.82-1.9,1.24-1.25,2.52-2.46,3.84-3.62,.75-.65,1.5-1.29,2.27-1.92,.17-.14,.19-.43,.04-.59-.16-.17-.41-.19-.59-.04h0Z" fill="#2381a0"/><path d="M80.24,19.39c1.22,.71,2.42,1.47,3.59,2.26,1.21,.82,2.4,1.67,3.57,2.55,.62,.47,1.24,.95,1.85,1.44,.17,.14,.47,.07,.58-.11,.13-.21,.07-.44-.11-.58-1.1-.89-2.23-1.74-3.37-2.57-1.19-.85-2.39-1.68-3.62-2.46-.66-.42-1.33-.83-2-1.22-.19-.11-.46-.09-.58,.11-.11,.18-.09,.47,.11,.58h0Z" fill="#2381a0"/><path d="M75.97,15.52s-.04,.05-.06,.07c-.01,.01-.07,.08-.03,.03,.05-.05-.03,.03-.04,.04-.02,.03-.05,.05-.07,.08-.09,.09-.17,.17-.27,.25-.1,.08-.2,.16-.3,.23l-.03,.02c-.06,.04,.01,0,.02-.01-.02,.01-.05,.03-.07,.04-.06,.04-.12,.07-.18,.1-.05,.03-.11,.05-.16,.08-.03,.01-.06,.02-.09,.04-.01,0-.03,0-.04,.01,.02,0,.08-.02,.03-.01-.06,.02-.12,.03-.18,.04-.02,0-.05,0-.08,.01,0,0,.11,0,.03,0-.02,0-.03,0-.05,0-.03,0-.06,0-.09,0-.02,0-.11-.02-.04,0,.07,.01-.01,0-.03-.01-.03,0-.05-.02-.08-.03-.06-.02,.08,.05,.02,.01-.02-.01-.04-.02-.06-.04-.02-.01-.04-.03-.06-.04-.05-.04,.07,.07,.01,.01-.03-.03-.07-.07-.1-.11-.01-.01-.05-.08-.01-.01,.04,.06,0-.02-.02-.03-.02-.04-.04-.08-.06-.12,0-.01-.01-.03-.01-.04,0,0,.03,.1,.02,.05,0-.03-.02-.05-.02-.08,0-.03-.03-.1-.02-.13,0-.01,0,.11,0,.06,0,0,0-.02,0-.03,0-.03,0-.05,0-.08,0-.02,0-.05,0-.07,0-.05-.01,.07-.01,.06,0-.01,0-.03,0-.04,.01-.05,.03-.09,.05-.14,.03-.06-.05,.08-.01,.02,.01-.02,.03-.04,.04-.06,.01-.02,.03-.04,.04-.06,0,0,.01-.02,.02-.02,.03-.04-.08,.08-.02,.03,.03-.03,.07-.06,.1-.09,.02-.01,.03-.03,.05-.04,.04-.03-.08,.05-.04,.02l.04-.02s.08-.04,.12-.06c.02,0,.05-.02,.07-.03,.04-.01-.05,.02-.05,.02h.05s.09-.04,.14-.04c.02,0,.11-.01,.03,0-.08,0,0,0,.03,0,.05,0,.1,0,.15,.01h.03s-.06,0-.06,0c.01,.01,.06,.02,.08,.02,.05,.01,.09,.03,.13,.05,.05,.02-.08-.05-.04-.02l.03,.02s.05,.03,.07,.05c.02,.01,.04,.03,.05,.04,.01,0,.02,.02,.03,.03,0,0-.07-.07-.04-.03,.04,.04,.07,.07,.11,.11,.02,.02,.03,.04,.05,.06l.02,.03s-.05-.08-.02-.03c.03,.05,.05,.09,.08,.14,.01,.02,.02,.05,.03,.07v.03s0-.06,0-.05c.02,.05,.03,.11,.04,.16,0,.02,0,.04,.01,.07v.04s0-.06,0-.06c0,0,0,.16,0,.17-.03,.3-.11,.58-.06,.89,.05,.31,.25,.58,.53,.72,.15,.08,.34,.11,.51,.06,.19-.05,.33-.16,.46-.31,.16-.19,.28-.43,.4-.66,.14-.26,.26-.53,.37-.8,.21-.52,.39-1.08,.35-1.65-.03-.53-.28-1.02-.66-1.39-.74-.72-1.82-1.11-2.85-1.11-.82,0-1.61,.24-2.25,.77-.48,.39-.85,.92-1.07,1.5-.23,.61-.28,1.29-.12,1.92,.21,.8,.7,1.46,1.32,1.99,.17,.15,.35,.28,.53,.4,.18,.12,.46,.08,.58-.11,.12-.19,.08-.45-.11-.58-.19-.13-.37-.26-.54-.41l-.03-.02s.07,.06,.04,.03l-.06-.05s-.08-.07-.11-.11c-.07-.07-.14-.14-.21-.22-.06-.07-.12-.14-.17-.22-.03-.03-.05-.07-.07-.1-.04-.05,.06,.09,.01,.02l-.04-.06c-.09-.14-.17-.29-.23-.45-.01-.04-.03-.07-.04-.11,0-.02-.03-.09,0-.01,.03,.08,0,0,0-.01-.02-.08-.04-.15-.06-.23-.02-.07-.03-.15-.04-.22,0-.04,0-.07-.01-.11v-.06s0,.09,0,.07c0-.01,0-.02,0-.03,0-.15,0-.29,.01-.44,0-.07,.02-.14,.03-.21,0,0,0-.03,0-.03,0,0-.02,.11-.01,.07v-.05s.03-.07,.04-.11c.04-.13,.08-.27,.14-.39,.01-.03,.03-.07,.04-.1l.02-.04c.04-.08-.04,.07-.01,.03,.03-.06,.07-.12,.1-.18,.07-.12,.15-.23,.24-.34,.02-.03,.04-.05,.06-.08l.03-.04s-.08,.09-.03,.03c.05-.05,.1-.1,.15-.15,.1-.09,.2-.18,.3-.26,.03-.02,.05-.04,.08-.05,0,0,.02-.01,.02-.02,0,0-.09,.06-.06,.04l.05-.03c.05-.03,.11-.07,.17-.1,.06-.03,.11-.06,.17-.08,.03-.01,.05-.02,.08-.04l.05-.02h.04c.09-.05-.07,0-.01,0,.23-.07,.46-.13,.7-.15,.03,0,.06,0,.09,0,0,0-.09,0-.05,0h.05c.06,0,.12,0,.19,0,.12,0,.24,0,.36,.02,.06,0,.12,.01,.17,.02,.03,0,.06,0,.09,.02,.03,0,.14,.04,.02,0,.12,.03,.24,.06,.35,.09,.12,.04,.23,.08,.34,.12,.05,.02,.11,.05,.16,.07,.03,.01,.06,.03,.08,.04,0,0-.08-.04-.04-.02l.06,.03c.19,.1,.38,.22,.55,.36,.01,.01,.02,.02,.04,.03,0,0-.07-.06-.04-.03,.02,.02,.04,.03,.05,.05,.04,.04,.08,.08,.12,.13,.03,.04,.07,.08,.1,.12,.01,.02,.03,.04,.04,.06,.06,.08-.04-.07,0,0,.06,.09,.1,.19,.14,.28,.03,.07-.03-.09,0,0,0,.03,.02,.06,.02,.08,.02,.06,.03,.13,.03,.19v.04s0-.04,0-.04c0,0,0,.09,0,.1,0,.07,0,.13-.01,.2,0,.06-.01,.12-.03,.18,0,.02,0,.04-.01,.06,0,0,.02-.09,0-.04,0,.03-.01,.07-.02,.1-.06,.26-.15,.51-.25,.75-.05,.12-.1,.24-.16,.36-.03,.06-.06,.12-.09,.18l-.02,.04s.02-.03,.02-.03c-.01,.04-.04,.07-.05,.1-.06,.12-.13,.23-.19,.34-.03,.05-.06,.1-.09,.15-.02,.02-.03,.05-.05,.07-.06,.07,.05-.04,0,0-.01,.01-.09,.07-.03,.03,.05-.04,.02-.01,0,0-.06,.03,.03-.01,.04-.01,0,0-.03,0-.03,0-.04,.01,.07-.01,.06,0,0,0-.04,0-.04,0,0,0,.11,.03,.05,0-.06-.02,.08,.05,.02,.01-.01,0-.09-.07-.03-.02,.06,.05-.01-.02-.02-.03-.04-.05,.04,.08,0,0-.01-.02-.02-.06-.04-.07,0,0,.03,.09,.02,.05v-.03s-.02-.05-.02-.08c0-.05,0,.04,0,.04,0,0,0-.07,0-.07,0-.13,.03-.26,.05-.39,.04-.25,.05-.51-.02-.76-.07-.25-.19-.48-.35-.69-.34-.41-.86-.61-1.39-.55-.46,.05-.92,.35-1.13,.76-.14,.26-.19,.52-.16,.81,.02,.21,.1,.43,.21,.61,.15,.23,.34,.41,.6,.53,.25,.12,.55,.14,.83,.09,.27-.05,.53-.16,.76-.3,.23-.14,.45-.3,.65-.48,.2-.18,.39-.38,.56-.59,.14-.17,.07-.47-.11-.58-.21-.13-.44-.07-.58,.11h0Z" fill="#2381a0"/></g></g><g><path d="M17.21,14.89c.09,.75,.21,1.5,.39,2.23,.2,.81,.41,1.62,.63,2.43,.42,1.51,.91,3.01,1.46,4.48,.58,1.53,1.24,3.04,1.94,4.52,.34,.71,.67,1.41,1.14,2.05,.43,.58,.94,1.11,1.51,1.56,1.14,.89,2.47,1.44,3.91,1.61,1.41,.17,2.91,.07,4.22-.5,.63-.28,1.24-.66,1.77-1.11,.5-.43,.89-1.03,.99-1.7,.09-.64-.08-1.31-.22-1.93-.12-.56-.23-1.12-.37-1.67-.17-.66-.4-1.3-.68-1.93-.28-.65-.84-1.09-1.49-1.34-.64-.25-1.36-.27-2.02-.06-.38,.12-.75,.25-1.14,.32-.03,0-.09,.01-.16,.02-.08,0-.16,.02-.24,.02-.07,0-.13,0-.2,0-.04,0-.08,0-.11,0-.02,0-.06,0-.07,0-.12-.02-.24-.05-.36-.09-.01,0-.04-.01-.05-.02-.03-.01-.05-.02-.08-.04-.06-.03-.12-.06-.17-.1-.01,0-.05-.04-.07-.04l-.05-.04c-.06-.05-.11-.09-.16-.15-.13-.13-.18-.2-.28-.34-.41-.59-.66-1.24-.9-1.91-.27-.77-.49-1.55-.7-2.33-.08-.31-.17-.62-.22-.94v-.08s-.02-.08-.03-.12c0-.09-.02-.18-.02-.27,0-.08,0-.15,0-.23v-.05s.03-.09,.04-.14c0-.01,.02-.06,.02-.07,0-.01,.03-.05,.03-.07,.02-.03,.03-.05,.05-.08,0,0,.04-.04,.05-.05,.02-.02,.04-.04,.07-.07l.03-.02h.01c.06-.05,.12-.09,.18-.12,.03-.02,.06-.03,.09-.05l.04-.02h.02c.07-.04,.14-.06,.21-.09,.15-.06,.3-.1,.45-.16,.29-.1,.6-.21,.86-.4,.22-.16,.4-.35,.54-.57,.29-.44,.41-.96,.45-1.48,.05-.56,0-1.12-.07-1.67-.16-1.1-.47-2.17-.83-3.22-.16-.46-.34-.92-.63-1.32-.36-.5-.82-.93-1.37-1.23-.61-.33-1.31-.47-2-.43-.95,.07-1.91,.11-2.85,.3-.92,.18-1.84,.52-2.53,1.17-.83,.77-1.17,1.89-1.26,2.99-.06,.72-.02,1.46,.02,2.18,.04,.79,.1,1.58,.2,2.37Zm8.21,2.95s0,0,0,0h0Zm-.03-.66s0-.01,0,0h0Zm-7.68-7.05h0s0,0,0,0Z" fill="#fff"/><path d="M23.66,6.58c.64-.04,1.22,.09,1.77,.41,.45,.27,.84,.66,1.12,1.1,.07,.1,.13,.21,.18,.32,.01,.03,.02,.05,.04,.08,.03,.06-.02-.05,.01,.03,.02,.05,.04,.1,.06,.15,.07,.19,.14,.38,.2,.58,.17,.49,.32,.99,.45,1.49,.07,.27,.14,.55,.19,.83,.03,.14,.05,.28,.08,.41l.02,.1c0-.06,0,.04,0,.06,.01,.07,.02,.14,.03,.21,.03,.27,.06,.55,.06,.83,0,.13,0,.27,0,.4,0,.06,0,.12-.01,.18v.04s0-.06,0-.02c0,.03,0,.07-.01,.1-.02,.12-.04,.24-.07,.36-.01,.05-.03,.11-.05,.16,0,.03-.02,.05-.03,.08,0,.01-.04,.1-.02,.06,.02-.04-.02,.04-.02,.05-.01,.02-.02,.05-.03,.07-.02,.05-.05,.1-.08,.15-.03,.04-.05,.09-.08,.13-.02,.03,.01-.02,.02-.02l-.02,.03s-.04,.05-.07,.08c-.03,.04-.07,.07-.11,.11-.02,.02-.04,.03-.06,.05-.03,.03,.02-.01,.02-.02-.02,.01-.03,.02-.05,.03-.05,.04-.11,.07-.17,.11-.03,.02-.07,.04-.1,.05-.01,0-.11,.05-.06,.03-.28,.12-.57,.2-.85,.31-.61,.23-1.17,.6-1.28,1.29-.11,.68,.09,1.37,.26,2.03,.21,.76,.42,1.52,.67,2.27,.24,.69,.51,1.38,.9,1.99,.34,.54,.8,1,1.42,1.2,.59,.19,1.25,.1,1.84-.04,.39-.09,.75-.27,1.15-.34-.05,0,.03,0,.05,0,.04,0,.08,0,.12-.01,.08,0,.15,0,.23,0,.07,0,.14,0,.22,.01-.05,0,.04,0,.05,0,.05,0,.1,.02,.14,.03,.15,.03,.29,.07,.43,.12,.04,.01,0,0,0,0l.05,.02s.07,.03,.1,.05c.08,.04,.15,.08,.22,.12,.14,.09,.18,.12,.31,.23,.13,.12,.17,.17,.26,.3,.04,.06,.07,.12,.1,.18,0,0,.03,.05,.01,.02-.02-.04,.02,.04,.02,.04,.03,.06,.05,.12,.08,.19,.07,.17,.14,.35,.21,.52,.11,.29,.21,.58,.29,.87,.15,.53,.25,1.08,.37,1.62,.07,.3,.13,.6,.19,.9,.03,.17,.04,.24,.06,.41,.02,.15,.03,.29,.03,.44,0,.03,0,.06,0,.09,0,.01,0,.1,0,.05,0-.05,0,.04,0,.05,0,.05-.02,.1-.04,.15-.04,.17-.07,.24-.14,.39-.03,.06-.07,.13-.11,.19-.02,.04-.04,.07-.07,.1-.01,.01-.02,.03-.03,.04,.02-.03,0,0-.01,.01-.09,.12-.19,.22-.3,.33-.22,.21-.46,.37-.74,.55-.27,.17-.55,.34-.84,.48,.04-.02-.04,.02-.05,.02-.03,.01-.07,.03-.1,.04-.08,.03-.15,.06-.23,.09-.16,.06-.32,.1-.48,.15-.33,.09-.64,.15-.95,.18-.35,.04-.69,.06-1.04,.06-.18,0-.36,0-.53-.02-.14,0-.35-.03-.46-.04-.34-.04-.69-.1-1.02-.19-.16-.04-.31-.08-.46-.13-.08-.02-.16-.05-.23-.08-.04-.01-.07-.03-.1-.04l-.05-.02c-.06-.02,.04,.02-.02,0-1.27-.52-2.38-1.41-3.16-2.51-.45-.63-.77-1.33-1.1-2.02-.34-.72-.68-1.45-.99-2.18-.6-1.41-1.14-2.84-1.62-4.3-.49-1.51-.91-3.05-1.29-4.59-.35-1.44-.5-2.92-.57-4.41-.04-.71-.07-1.42-.03-2.13,0-.08,0-.15,.02-.23,0-.04,0-.07,.01-.11,0-.04,0,0,0,0v-.07c.03-.15,.06-.3,.09-.44,.03-.14,.07-.27,.11-.41,.02-.06,.04-.12,.06-.17,.01-.03,.02-.06,.03-.08-.02,.06,0-.02,.02-.04,.09-.22,.21-.43,.34-.62,0-.01,.06-.08,.04-.05-.03,.04,.02-.03,.03-.04,.04-.04,.07-.09,.11-.13,.07-.08,.15-.16,.23-.24,.04-.03,.08-.07,.11-.1,.03-.02,.06-.04,0,0,.02-.02,.05-.04,.07-.05,.09-.07,.18-.13,.27-.18,.09-.06,.18-.11,.27-.16,.05-.03,.1-.05,.15-.07,.01,0,.08-.04,.04-.02-.04,.02,.04-.02,.05-.02,.41-.17,.84-.29,1.28-.37,.06-.01,.11-.02,.17-.03h.08s.1-.03,.03-.02c.12-.02,.23-.03,.35-.05,.23-.03,.46-.05,.69-.07,.44-.04,.87-.06,1.31-.09,.19-.01,.35-.16,.34-.36,0-.18-.17-.36-.36-.34-.95,.07-1.91,.11-2.85,.3-.92,.18-1.84,.52-2.53,1.17-.83,.77-1.17,1.89-1.26,2.99-.06,.72-.02,1.46,.02,2.18,.04,.79,.1,1.58,.2,2.37,.09,.75,.21,1.5,.39,2.23,.2,.81,.41,1.62,.63,2.43,.42,1.51,.91,3.01,1.46,4.48,.58,1.53,1.24,3.04,1.94,4.52,.34,.71,.67,1.41,1.14,2.05,.43,.58,.94,1.11,1.51,1.56,1.14,.89,2.47,1.44,3.91,1.61,1.41,.17,2.91,.07,4.22-.5,.63-.28,1.24-.66,1.77-1.11,.5-.43,.89-1.03,.99-1.7,.09-.64-.08-1.31-.22-1.93-.12-.56-.23-1.12-.37-1.67-.17-.66-.4-1.3-.68-1.93-.28-.65-.84-1.09-1.49-1.34-.64-.25-1.36-.27-2.02-.06-.38,.12-.75,.25-1.14,.32-.03,0-.09,.01-.16,.02-.08,0-.16,.02-.24,.02-.07,0-.13,0-.2,0-.04,0-.08,0-.11,0-.02,0-.12-.01-.05,0-.13-.02-.26-.05-.39-.09-.02,0-.08-.03-.03,0-.03-.01-.06-.03-.1-.04-.06-.03-.12-.06-.17-.1-.01,0-.09-.06-.07-.04,.02,.02-.04-.03-.05-.04-.06-.05-.11-.09-.16-.15-.13-.13-.18-.2-.28-.34-.41-.59-.66-1.24-.9-1.91-.27-.77-.49-1.55-.7-2.33-.08-.31-.17-.62-.22-.94-.01-.07,0-.04,0-.02v-.06s-.02-.08-.02-.12c0-.09-.02-.18-.02-.27,0-.08,0-.15,0-.23,0-.04,0,0,0,0v-.05s.03-.09,.04-.14c0-.02,.03-.09,.02-.07,0,.02,.03-.05,.03-.06,.02-.03,.04-.07,.06-.1-.04,.05,.02-.02,.04-.04,.02-.02,.04-.04,.07-.07,.01-.01,.02-.02,.04-.03-.01,.01-.05,.03,0,0,.06-.04,.12-.08,.18-.11,.03-.02,.06-.03,.09-.05,0,0,.07-.03,.04-.02-.03,.01,.02,0,.02,0,.07-.03,.14-.06,.21-.08,.15-.06,.3-.1,.45-.16,.29-.1,.6-.21,.86-.4,.22-.16,.4-.35,.54-.57,.29-.44,.41-.96,.45-1.48,.05-.56,0-1.12-.07-1.67-.16-1.1-.47-2.17-.83-3.22-.16-.46-.34-.92-.63-1.32-.36-.5-.82-.93-1.37-1.23-.61-.33-1.31-.47-2-.43-.19,.01-.35,.16-.34,.36,0,.18,.17,.35,.36,.34Z" fill="#2381a0"/></g><path d="M43.18,28.71c-.2,0-.4-.08-.61-.24-.2-.16-.3-.36-.3-.61,0-.15,.04-.29,.12-.42l8.4-17.02c.09-.19,.21-.33,.35-.42s.3-.14,.48-.14c.19,0,.38,.07,.58,.22,.2,.15,.29,.36,.29,.63,0,.15-.03,.3-.1,.45l-8.4,17.02c-.1,.17-.21,.31-.34,.4-.13,.09-.29,.14-.47,.14Z" fill="#2381a0"/></g></g></g></svg>