<?xml version="1.0" encoding="UTF-8"?><svg xmlns="http://www.w3.org/2000/svg" viewBox="0 0 52.74 32.29"><defs><style>.d{fill:#2381a0;}</style></defs><g id="a"/><g id="b"><g id="c"><path class="d" d="M0,18.65c0-2.91,.79-5.79,2.38-8.62,1.59-2.83,3.64-5.21,6.17-7.14C11.08,.96,13.76,0,16.59,0c.94,0,1.95,.39,3.02,1.16,1.07,.77,1.61,2.1,1.61,3.99s-.62,3.04-1.87,3.47c-1.24,.43-2.29,.86-3.15,1.29-1.12,.6-1.99,1.31-2.64,2.12-.64,.82-.96,1.82-.96,3.02,0,.86,.45,1.67,1.35,2.44,.9,.77,2.08,1.16,3.54,1.16,.51,0,1.11-.06,1.8-.19,.69-.13,1.29-.36,1.8-.71,.94,.34,1.71,.86,2.32,1.54,.6,.69,.9,1.76,.9,3.22,0,2.66-1.22,4.95-3.67,6.88-2.44,1.93-5.3,2.89-8.55,2.89-3.69,0-6.62-1.24-8.81-3.73-2.19-2.49-3.28-5.79-3.28-9.91Zm28.43,0c0-2.91,.79-5.79,2.38-8.62,1.59-2.83,3.64-5.21,6.17-7.14,2.53-1.93,5.21-2.89,8.04-2.89,.94,0,1.95,.39,3.02,1.16,1.07,.77,1.61,2.1,1.61,3.99s-.62,3.04-1.87,3.47c-1.24,.43-2.29,.86-3.15,1.29-1.12,.6-1.99,1.31-2.64,2.12-.64,.82-.96,1.82-.96,3.02,0,.86,.45,1.67,1.35,2.44,.9,.77,2.08,1.16,3.54,1.16,.51,0,1.11-.06,1.8-.19,.69-.13,1.29-.36,1.8-.71,.94,.34,1.71,.86,2.32,1.54,.6,.69,.9,1.76,.9,3.22,0,2.66-1.22,4.95-3.67,6.88-2.44,1.93-5.3,2.89-8.55,2.89-3.69,0-6.63-1.24-8.81-3.73-2.19-2.49-3.28-5.79-3.28-9.91Z"/></g></g></svg>