<?xml version="1.0" encoding="UTF-8"?><svg xmlns="http://www.w3.org/2000/svg" viewBox="0 0 1752.13 738.82"><g id="a"/><g id="b"><g id="c"><g><polygon points="296.44 432.59 690.69 515.53 1383.91 486.94 1390.96 237.93 819.76 293.14 289.8 201.12 296.44 432.59" fill="#003472"/><polygon points="0 143.59 702.75 341.73 1749.9 240.52 1751.21 204.91 951.07 37.72 .56 105.97 0 143.59" fill="#001d3f"/><polygon points="2.02 105.86 711.25 284.19 1752.13 204.97 953.09 0 2.02 105.86" fill="#195193"/><path d="M1555.9,405.86c1.07-.21,2.11-.54,3.13-1.01,6.88-3.16,9.89-11.31,6.73-18.22-3.69-8.09-38.01-148.91-98.08-173.93-11.87-4.94-649.41-81.94-654.16-82.18-7.53-.36-14,5.4-14.4,13.01-.41,7.57,5.41,14.04,12.98,14.43,26.56,2.46,627.54,76.04,646.5,80.62,48.29,20.22,78.45,151.22,82.25,159.52,2.68,5.87,8.99,8.94,15.05,7.76Z"/><path d="M1545.36,434.8l41.11-12.43s.58,1,1.48,2.59c24.69,25.22,111.73,153.22,135.57,268.89,.41,2.1-.61,4.04-2.14,4.5-1.74,.24-3.73-1.36-4.19-3.61-17.53-85.17-73.11-182.32-109.01-233.29,39.05,71.93,115.74,221.97,100.75,264.59-.94,2.69-5.47,4.93-11.52,6.8-8.71-28.2-20.2-62.6-30.28-77.31,9.39,30.32,17.83,56.86,21.58,79.45-22.83,4.61-57.54,5.04-64.55-.25-23.35-17.62-42.6-89.19-56.25-157.99,.84,36.11,7.67,83.29,28.58,157.13,.62,2.2-.24,4.4-1.89,4.86-1.68,.48-3.54-1.01-4.25-3.18-37.71-116.37-45-300.75-45-300.75Z" fill="#ffb600"/><path d="M1545.17,449.91l49.54-18.1-11.8-32.3c-5.05-13.69-20.34-20.65-34-15.6-13.65,5.05-20.52,20.21-15.47,33.9l11.73,32.1Z"/></g></g></g></svg>