<?xml version="1.0" encoding="UTF-8"?>
<svg xmlns="http://www.w3.org/2000/svg" xmlns:xlink="http://www.w3.org/1999/xlink" viewBox="0 0 48 48" width="48px" height="48px">
<g id="surface272103">
<path style=" stroke:none;fill-rule:nonzero;fill:rgb(15.294118%,50.980395%,63.137257%);fill-opacity:1;" d="M 22.511719 2.972656 C 19.445312 3.128906 16.691406 3.722656 14.140625 5.488281 C 7.539062 10.070312 4.058594 17.886719 3.515625 25.730469 C 3.386719 27.597656 3.417969 29.507812 3.988281 31.289062 C 4.675781 33.425781 6.097656 35.25 7.683594 36.839844 C 10.609375 39.769531 14.222656 42.070312 18.226562 43.136719 C 23.402344 44.511719 29.878906 44.601562 34.359375 41.667969 C 39.472656 38.320312 43.535156 32.84375 45.054688 26.925781 C 45.863281 23.773438 44.773438 17.527344 43.324219 14.613281 C 41.304688 10.539062 39.621094 8.554688 35.90625 6.453125 C 31.828125 4.144531 27.132812 3.292969 22.511719 2.972656 "/>
<path style=" stroke:none;fill-rule:nonzero;fill:rgb(83.92157%,89.803922%,89.803922%);fill-opacity:1;" d="M 27.5625 43.609375 C 27.242188 42.691406 27.414062 41.316406 27.386719 40.335938 C 27.355469 39.152344 27.335938 37.96875 27.332031 36.785156 C 27.332031 35.335938 27.351562 33.886719 27.394531 32.4375 C 27.417969 31.714844 27.460938 30.992188 27.480469 30.265625 C 27.496094 29.707031 27.433594 29.488281 28.050781 29.464844 C 29.316406 29.414062 30.59375 29.394531 31.867188 29.386719 C 31.929688 29.386719 31.996094 29.386719 32.046875 29.347656 C 32.105469 29.304688 32.125 29.230469 32.140625 29.15625 C 32.242188 28.59375 32.203125 28.015625 32.207031 27.441406 C 32.222656 26.199219 32.453125 24.957031 32.890625 23.792969 C 31.46875 23.6875 30.035156 23.6875 28.613281 23.796875 C 28.292969 23.820312 27.914062 23.921875 27.597656 23.894531 C 27.191406 23.859375 27.210938 23.886719 27.121094 23.457031 C 26.980469 22.785156 26.992188 22.042969 26.964844 21.355469 C 26.933594 20.511719 27.035156 19.628906 27.492188 18.917969 C 27.921875 18.253906 28.625 17.804688 29.367188 17.535156 C 30.472656 17.136719 31.714844 16.980469 32.878906 16.996094 C 32.90625 16.132812 32.941406 15.273438 32.984375 14.410156 C 33.015625 13.828125 33.335938 12.765625 32.773438 12.402344 C 32.492188 12.222656 32.046875 12.148438 31.722656 12.070312 C 30.976562 11.894531 30.203125 11.824219 29.4375 11.835938 C 27.910156 11.863281 26.398438 12.222656 24.976562 12.773438 C 23.988281 13.15625 22.996094 13.660156 22.363281 14.511719 C 21.90625 15.128906 21.675781 15.878906 21.496094 16.625 C 21.203125 17.835938 21.03125 19.074219 20.980469 20.320312 C 20.953125 20.941406 20.960938 21.5625 20.992188 22.1875 C 21.015625 22.585938 21.273438 23.421875 20.890625 23.722656 C 20.609375 23.949219 19.71875 23.886719 19.363281 23.921875 C 18.203125 24.035156 17.035156 24.097656 15.871094 24.109375 C 16.097656 25.960938 16.320312 27.808594 16.546875 29.660156 C 17.46875 29.707031 18.390625 29.742188 19.3125 29.765625 C 19.785156 29.777344 20.53125 29.609375 20.835938 30.050781 C 21.257812 30.667969 20.875 31.855469 20.859375 32.546875 C 20.839844 33.757812 20.824219 34.964844 20.832031 36.171875 C 20.851562 38.550781 20.886719 41.398438 21.191406 43.753906 "/>
<path style=" stroke:none;fill-rule:nonzero;fill:rgb(0.392157%,0.392157%,0.392157%);fill-opacity:1;" d="M 21.191406 44.253906 C 20.945312 44.253906 20.730469 44.070312 20.699219 43.816406 C 20.398438 41.492188 20.355469 38.765625 20.335938 36.175781 C 20.324219 34.960938 20.339844 33.746094 20.363281 32.535156 C 20.367188 32.316406 20.402344 32.050781 20.445312 31.769531 C 20.515625 31.28125 20.613281 30.609375 20.425781 30.332031 C 20.34375 30.21875 19.929688 30.238281 19.683594 30.253906 C 19.550781 30.257812 19.421875 30.261719 19.300781 30.261719 C 18.375 30.242188 17.449219 30.203125 16.523438 30.15625 C 16.28125 30.144531 16.085938 29.960938 16.054688 29.71875 L 15.375 24.167969 C 15.359375 24.023438 15.402344 23.882812 15.496094 23.777344 C 15.589844 23.671875 15.726562 23.605469 15.867188 23.605469 C 17.011719 23.59375 18.171875 23.535156 19.3125 23.421875 C 19.417969 23.410156 19.5625 23.40625 19.726562 23.402344 C 19.949219 23.398438 20.464844 23.390625 20.597656 23.320312 C 20.636719 23.230469 20.570312 22.785156 20.539062 22.597656 C 20.519531 22.449219 20.5 22.316406 20.492188 22.210938 C 20.460938 21.574219 20.453125 20.929688 20.480469 20.292969 C 20.535156 19.023438 20.710938 17.746094 21.007812 16.503906 C 21.1875 15.765625 21.441406 14.914062 21.960938 14.210938 C 22.707031 13.203125 23.867188 12.664062 24.796875 12.304688 C 26.386719 11.6875 27.945312 11.359375 29.425781 11.332031 C 30.269531 11.320312 31.082031 11.402344 31.839844 11.582031 L 32.019531 11.625 C 32.339844 11.695312 32.738281 11.78125 33.042969 11.976562 C 33.75 12.433594 33.617188 13.390625 33.53125 14.027344 C 33.507812 14.175781 33.488281 14.316406 33.484375 14.433594 C 33.441406 15.292969 33.40625 16.152344 33.375 17.011719 C 33.367188 17.28125 33.144531 17.492188 32.875 17.492188 C 32.828125 17.492188 32.773438 17.492188 32.726562 17.492188 C 31.566406 17.492188 30.46875 17.667969 29.535156 18.003906 C 29.023438 18.1875 28.328125 18.542969 27.914062 19.183594 C 27.578125 19.710938 27.429688 20.410156 27.464844 21.332031 L 27.480469 21.773438 C 27.492188 22.308594 27.507812 22.859375 27.609375 23.351562 C 27.613281 23.363281 27.617188 23.378906 27.617188 23.390625 C 27.8125 23.398438 28 23.371094 28.179688 23.347656 C 28.3125 23.324219 28.449219 23.304688 28.574219 23.296875 C 30.023438 23.183594 31.488281 23.183594 32.929688 23.289062 C 33.085938 23.304688 33.230469 23.390625 33.3125 23.519531 C 33.398438 23.652344 33.414062 23.820312 33.359375 23.964844 C 32.941406 25.078125 32.71875 26.25 32.707031 27.441406 L 32.710938 27.851562 C 32.714844 28.300781 32.71875 28.769531 32.632812 29.242188 C 32.613281 29.339844 32.566406 29.582031 32.347656 29.746094 C 32.160156 29.882812 31.953125 29.882812 31.867188 29.882812 C 30.398438 29.890625 29.191406 29.914062 28.070312 29.960938 C 28.035156 29.960938 28.011719 29.964844 27.988281 29.964844 C 27.984375 30.011719 27.984375 30.070312 27.984375 30.117188 L 27.980469 30.28125 C 27.96875 30.671875 27.953125 31.058594 27.933594 31.449219 C 27.921875 31.785156 27.90625 32.117188 27.894531 32.453125 C 27.851562 33.882812 27.832031 35.339844 27.832031 36.785156 C 27.835938 37.964844 27.855469 39.140625 27.886719 40.320312 C 27.894531 40.605469 27.886719 40.925781 27.878906 41.257812 C 27.855469 42.015625 27.832031 42.871094 28.035156 43.445312 C 28.125 43.703125 27.988281 43.988281 27.726562 44.082031 C 27.464844 44.175781 27.179688 44.035156 27.089844 43.773438 C 26.828125 43.027344 26.855469 42.074219 26.878906 41.230469 C 26.886719 40.917969 26.894531 40.617188 26.886719 40.347656 C 26.851562 39.160156 26.832031 37.976562 26.832031 36.789062 C 26.828125 35.328125 26.851562 33.859375 26.894531 32.421875 C 26.90625 32.082031 26.921875 31.746094 26.933594 31.40625 C 26.953125 31.023438 26.96875 30.636719 26.980469 30.253906 L 26.980469 30.105469 C 26.988281 29.667969 27 29.003906 28.027344 28.964844 C 29.109375 28.921875 30.273438 28.898438 31.675781 28.890625 C 31.714844 28.554688 31.710938 28.21875 31.707031 27.863281 L 31.707031 27.4375 C 31.71875 26.351562 31.886719 25.28125 32.207031 24.25 C 31.027344 24.191406 29.832031 24.207031 28.648438 24.296875 C 28.546875 24.304688 28.4375 24.320312 28.324219 24.339844 C 28.089844 24.375 27.816406 24.414062 27.550781 24.390625 C 26.898438 24.335938 26.753906 24.136719 26.640625 23.597656 C 26.511719 22.984375 26.492188 22.382812 26.480469 21.804688 L 26.464844 21.375 C 26.421875 20.238281 26.621094 19.347656 27.074219 18.644531 C 27.640625 17.769531 28.539062 17.300781 29.199219 17.066406 C 30.144531 16.722656 31.242188 16.53125 32.394531 16.5 C 32.421875 15.796875 32.449219 15.089844 32.484375 14.386719 C 32.492188 14.242188 32.515625 14.074219 32.539062 13.894531 C 32.582031 13.582031 32.671875 12.929688 32.503906 12.824219 C 32.347656 12.722656 32.046875 12.65625 31.804688 12.605469 L 31.605469 12.558594 C 30.933594 12.398438 30.210938 12.324219 29.445312 12.335938 C 28.082031 12.359375 26.640625 12.664062 25.160156 13.238281 C 24.355469 13.550781 23.359375 14.007812 22.765625 14.808594 C 22.351562 15.363281 22.144531 16.066406 21.984375 16.742188 C 21.699219 17.917969 21.53125 19.128906 21.480469 20.339844 C 21.457031 20.941406 21.460938 21.554688 21.492188 22.15625 C 21.496094 22.238281 21.515625 22.339844 21.53125 22.449219 C 21.605469 22.945312 21.722656 23.699219 21.207031 24.113281 C 20.890625 24.363281 20.382812 24.394531 19.746094 24.40625 C 19.613281 24.410156 19.496094 24.410156 19.410156 24.417969 C 18.425781 24.515625 17.425781 24.574219 16.433594 24.597656 L 16.996094 29.179688 C 17.769531 29.21875 18.550781 29.246094 19.324219 29.265625 C 19.421875 29.269531 19.523438 29.261719 19.632812 29.257812 C 20.117188 29.230469 20.855469 29.191406 21.25 29.769531 C 21.65625 30.367188 21.535156 31.226562 21.433594 31.914062 C 21.402344 32.152344 21.367188 32.371094 21.363281 32.554688 C 21.34375 33.761719 21.328125 34.964844 21.335938 36.167969 C 21.355469 38.730469 21.398438 41.421875 21.691406 43.691406 C 21.726562 43.964844 21.53125 44.214844 21.257812 44.25 C 21.234375 44.253906 21.214844 44.253906 21.191406 44.253906 Z M 21.191406 44.253906 "/>
<path style=" stroke:none;fill-rule:nonzero;fill:rgb(0.392157%,0.392157%,0.392157%);fill-opacity:1;" d="M 25.105469 44.621094 C 22.859375 44.621094 20.480469 44.308594 18.082031 43.671875 C 14.195312 42.640625 10.464844 40.414062 7.289062 37.230469 C 5.300781 35.234375 4.082031 33.402344 3.460938 31.457031 C 2.808594 29.421875 2.851562 27.308594 2.964844 25.695312 C 3.570312 16.933594 7.527344 9.402344 13.828125 5.035156 C 16.164062 3.410156 18.835938 2.605469 22.484375 2.417969 C 22.507812 2.414062 22.527344 2.417969 22.550781 2.417969 C 28.269531 2.816406 32.597656 3.945312 36.179688 5.96875 C 39.886719 8.066406 41.671875 10.027344 43.824219 14.363281 C 45.324219 17.390625 46.449219 23.730469 45.59375 27.0625 C 44.0625 33.019531 39.976562 38.652344 34.664062 42.132812 C 32.148438 43.777344 28.800781 44.621094 25.105469 44.621094 Z M 22.507812 3.527344 C 19.09375 3.707031 16.609375 4.453125 14.457031 5.945312 C 8.4375 10.121094 4.652344 17.347656 4.070312 25.769531 C 3.914062 28.023438 4.050781 29.671875 4.515625 31.117188 C 5.082031 32.886719 6.214844 34.582031 8.074219 36.445312 C 11.109375 39.488281 14.671875 41.617188 18.367188 42.601562 C 24.398438 44.203125 30.265625 43.679688 34.054688 41.203125 C 39.144531 37.871094 43.054688 32.484375 44.515625 26.789062 C 45.292969 23.761719 44.234375 17.699219 42.828125 14.855469 C 40.789062 10.753906 39.109375 8.902344 35.632812 6.933594 C 32.207031 4.996094 28.035156 3.914062 22.507812 3.527344 Z M 22.507812 3.527344 "/>
</g>
</svg>
