<?xml version="1.0" encoding="utf-8"?>
<!-- Generator: Adobe Illustrator 26.2.1, SVG Export Plug-In . SVG Version: 6.00 Build 0)  -->
<svg version="1.1" id="Layer_1" xmlns="http://www.w3.org/2000/svg" xmlns:xlink="http://www.w3.org/1999/xlink" x="0px" y="0px"
	 viewBox="0 0 1074.2 613.6" style="enable-background:new 0 0 1074.2 613.6;" xml:space="preserve">
<style type="text/css">
	.st0{fill:#FFFFFF;stroke:#5996BF;stroke-miterlimit:10;}
	.st1{fill:#7FBBDD;stroke:#FFFFFF;stroke-width:8;stroke-miterlimit:10;}
	.st2{fill:none;stroke:#5996BF;stroke-miterlimit:10;}
	.st3{fill:#F7E3E2;}
	.st4{fill:#EFEFEF;}
	.st5{fill:#C69E99;}
	.st6{fill:#C7A09B;}
	.st7{fill:#EB817C;}
	.st8{fill:#F7BAA6;}
	.st9{fill:#DD8C8F;}
	.st10{fill:#FAA0A0;}
	.st11{fill:#F6F3F3;}
	.st12{fill:#F69F9F;}
	.st13{fill:#FBF9F9;}
	.st14{fill:#F79F9F;}
	.st15{fill:#F9F7F7;}
	.st16{fill:#C9A4A0;}
	.st17{fill:#F9F7F6;}
	.st18{fill:#FAF8F7;}
	.st19{fill:#F8F6F6;}
	.st20{fill:#EDE9E8;}
	.st21{fill:#F4A2A1;}
	.st22{fill:#E9E4E3;}
	.st23{fill:#F3EBEA;}
	.st24{fill:#F7A2A2;}
	.st25{fill:#CAA4A1;}
	.st26{fill:#D5BCB9;}
	.st27{fill:#CFB0AC;}
	.st28{fill:#E6DEDD;}
	.st29{fill:#EEAFAA;}
	.st30{fill:#CCA9A5;}
	.st31{fill:#CFAFAC;}
	.st32{fill:#EEBAB6;}
	.st33{fill:#F1E6E5;}
	.st34{fill:#CFAFAB;}
	.st35{fill:#F8F6F5;}
	.st36{fill:#D0AFAB;}
	.st37{fill:#EFE2E1;}
	.st38{fill:#CCA9A4;}
	.st39{fill:#EDA09A;}
	.st40{fill:#FBFBFB;}
	.st41{fill:#CFB2AD;}
	.st42{fill:#E7DFDE;}
	.st43{fill:#D6BCB9;}
	.st44{fill:#EDA29E;}
	.st45{fill:#E1A0A3;}
	.st46{fill:#D0B2AE;}
	.st47{fill:#EC8E86;}
	.st48{fill:#E4B2B3;}
	.st49{fill:#EECFCD;}
	.st50{fill:#EECBC8;}
	.st51{fill:#CAA7A2;}
	.st52{fill:#CBA8A4;}
	.st53{fill:#E6DDDC;}
	.st54{fill:#D1B4B1;}
	.st55{fill:#ECA7A7;}
	.st56{fill:#CCABA7;}
	.st57{fill:#EC857F;}
	.st58{fill:#E2D6D4;}
	.st59{fill:#EEAAA6;}
	.st60{fill:#D1B3AF;}
	.st61{fill:#EED2D0;}
	.st62{fill:#D7C0BE;}
	.st63{fill:#EEBBB8;}
	.st64{fill:#CEADA9;}
	.st65{fill:#CDACA9;}
	.st66{fill:#D4BAB7;}
	.st67{fill:#C9A29F;}
	.st68{fill:#D6BDBA;}
	.st69{fill:#D3B5B1;}
	.st70{fill:#EEEDED;}
	.st71{fill:#F2EAE9;}
	.st72{fill:#DAC0BD;}
	.st73{fill:#E3D1CE;}
	.st74{fill:#D6BBB7;}
	.st75{fill:#D1B2AD;}
	.st76{fill:#E7D8D6;}
	.st77{fill:#EADDDB;}
	.st78{fill:#DDC6C3;}
	.st79{fill:#CBA7A3;}
	.st80{fill:#CEACA7;}
	.st81{fill:#F1E9E8;}
	.st82{fill:#E8D8D6;}
	.st83{fill:#ECE0DF;}
	.st84{fill:#CFADA9;}
	.st85{fill:#ECE0DE;}
	.st86{fill:#E4D4D2;}
	.st87{fill:#D9BFBC;}
	.st88{fill:#F0E7E6;}
	.st89{fill:#EDE2E0;}
	.st90{fill:#E2CFCC;}
	.st91{fill:#EDE2E1;}
	.st92{fill:#D6B9B5;}
	.st93{fill:#D6BBB8;}
	.st94{fill:#E1CDCA;}
	.st95{fill:#C9A29E;}
	.st96{fill:#EEE3E2;}
	.st97{fill:#DEC8C5;}
	.st98{fill:#DAC3C0;}
	.st99{fill:#E7D7D6;}
	.st100{fill:#E1CCCA;}
	.st101{fill:#DFC9C6;}
	.st102{fill:#E6D6D4;}
	.st103{fill:#CFAEA9;}
	.st104{fill:#F6F2F1;}
	.st105{fill:#F1E8E7;}
	.st106{fill:#EFE4E3;}
	.st107{fill:#D4B6B2;}
	.st108{fill:#E4D2D0;}
	.st109{fill:#D8BDB9;}
	.st110{fill:#E8DDDC;}
	.st111{fill:#F7F3F3;}
	.st112{fill:#E8D9D8;}
	.st113{fill:#DBC4C1;}
	.st114{fill:#E8DBDA;}
	.st115{fill:#FCFCFC;}
	.st116{fill:#F5F1F1;}
	.st117{fill:#FC9E9E;}
	.st118{fill:#FB9E9E;}
	.st119{fill:#FC9F9F;}
	.st120{fill:#EEEEEE;}
	.st121{fill:#FA9E9E;}
	.st122{fill:#F59E9E;}
	.st123{fill:#F8A09F;}
	.st124{fill:#EDECEC;}
	.st125{fill:#CD9E9A;}
	.st126{fill:#F69E9E;}
	.st127{fill:#EEEAEA;}
	.st128{fill:#DF9E9C;}
	.st129{fill:#CF9E9A;}
	.st130{fill:#F49E9E;}
	.st131{fill:#F39E9E;}
	.st132{fill:#F19E9D;}
	.st133{fill:#E69E9C;}
	.st134{fill:#D79E9B;}
	.st135{fill:#EE9E9D;}
	.st136{fill:#D09E9A;}
	.st137{fill:#D0ACA8;}
	.st138{fill:#EF9E9D;}
	.st139{fill:#ED9E9D;}
	.st140{fill:#E9E0DF;}
	.st141{fill:#D29E9A;}
	.st142{fill:#DB9E9C;}
	.st143{fill:#E79F9D;}
	.st144{fill:#EB9E9D;}
	.st145{fill:#E49E9C;}
	.st146{fill:#E8E1E1;}
	.st147{fill:#ECE8E7;}
	.st148{fill:#F09E9D;}
	.st149{fill:#E59E9C;}
	.st150{fill:#EA9E9D;}
	.st151{fill:#E7E0DF;}
	.st152{fill:#DECECC;}
	.st153{fill:#DC9E9C;}
	.st154{fill:#D29E9B;}
	.st155{fill:#E5DCDB;}
	.st156{fill:#D99E9B;}
	.st157{fill:#DA9E9B;}
	.st158{fill:#E09E9C;}
	.st159{fill:#E19E9C;}
	.st160{fill:#EDDEDE;}
	.st161{fill:#D69E9B;}
	.st162{fill:#DB9E9B;}
	.st163{fill:#EAE5E5;}
	.st164{fill:#F0DFDF;}
	.st165{fill:#DE9E9C;}
	.st166{fill:#E99E9D;}
	.st167{fill:#E7C3C1;}
	.st168{fill:#E4DBDA;}
	.st169{fill:#DC9E9B;}
	.st170{fill:#F19E9E;}
	.st171{fill:#F0E8E8;}
	.st172{fill:#ED9993;}
	.st173{fill:#EDADA8;}
	.st174{fill:#EE9A94;}
	.st175{fill:#EFEAE9;}
	.st176{fill:#F0ECEC;}
	.st177{fill:#EEBDBA;}
	.st178{fill:#F0EAE8;}
	.st179{fill:#F1EDED;}
	.st180{fill:#F0ECEB;}
	.st181{fill:#F0E7E4;}
	.st182{fill:#F4CFC3;}
	.st183{fill:#F3D2C8;}
	.st184{fill:#F3D7CE;}
	.st185{fill:#F4CBBE;}
	.st186{fill:#F5C9BB;}
	.st187{fill:#F1E5E1;}
	.st188{fill:#F3D6CC;}
	.st189{fill:#F4D0C5;}
	.st190{fill:#F2E3DF;}
	.st191{fill:#F4D0C4;}
	.st192{fill:#F3D7CD;}
	.st193{fill:#EFEDED;}
	.st194{fill:#EDE6E6;}
	.st195{fill:#EDE5E5;}
	.st196{fill:#EBD5D5;}
	.st197{fill:#ECE0E0;}
	.st198{fill:#E2A7A9;}
	.st199{fill:#E8D0D0;}
	.st200{fill:#E6BCBD;}
	.st201{fill:#E5B9BA;}
	.st202{fill:#EFEBEB;}
	.st203{fill:#E3AFB1;}
	.st204{fill:#E7C1C2;}
	.st205{fill:#E4B2B2;}
	.st206{fill:#FA9F9F;}
	.st207{fill:#E9E2E1;}
	.st208{fill:#ECE1E0;}
	.st209{fill:#C99E9A;}
	.st210{fill:#DECCCA;}
	.st211{fill:#D3B8B5;}
	.st212{fill:#D4B9B6;}
	.st213{fill:#EBCFCE;}
	.st214{fill:#D4BAB8;}
	.st215{fill:#F39E9D;}
	.st216{fill:#ED9892;}
	.st217{fill:#EEB7B3;}
	.st218{fill:#ED938D;}
	.st219{fill:#EED4D2;}
	.st220{fill:#EEC6C3;}
	.st221{fill:#CBA6A2;}
	.st222{fill:#D7BCB8;}
	.st223{fill:#CCA8A3;}
	.st224{fill:#D2B4B0;}
	.st225{fill:#D4B7B3;}
	.st226{fill:#E8DAD8;}
	.st227{fill:#D5B7B3;}
	.st228{fill:#C89E9A;}
	.st229{fill:#CB9E9A;}
	.st230{fill:#D49E9B;}
	.st231{fill:#E89E9D;}
	.st232{fill:#E39E9C;}
	.st233{fill:#D59E9B;}
	.st234{fill:#D19E9B;}
	.st235{fill:#CC9E9A;}
	.st236{fill:#D2B0AC;}
	.st237{fill:#D19E9A;}
	.st238{fill:#CBA7A2;}
	.st239{fill:#C8A19C;}
	.st240{fill:#F5CABC;}
	.st241{fill:#F2DBD3;}
	.st242{fill:#F6C6B6;}
	.st243{fill:#D2B7B3;}
	.st244{fill:#ECDAD9;}
</style>
<path class="st0" d="M1047.9,5.1C1047.9,5.1,37.6-6.4,23,7S0.5,174.3,0.5,174.3v438.7h1073.2V174.3
	C1072.9,89.1,1047.9,5.1,1047.9,5.1z"/>
<path class="st1" d="M909.6,74.6h-745c-13.2,0-24,10.8-24,24v32.6l394.8,391.9L933.6,131V98.6C933.6,85.4,922.8,74.7,909.6,74.6z"/>
<path class="st2" d="M535.4,516.1l513.3-505.6c0.3-1.1,0.5-2.2,0.8-3.3L24.7,9.1L535.4,516.1z"/>
<g id="paw">
	<circle class="st3" cx="515.8" cy="484.2" r="85.1"/>
	<path class="st4" d="M520.2,563.7h-6.2c-1.5-0.2-3-0.1-4.4-0.3c-6.2-0.8-12.2-2.6-17.9-5.2c-5.4-2.5-10.5-5.6-15.3-9.1
		c-6-4.3-10.2-10.8-11.8-18c-1.4-5.7-2.7-11.4-3.6-17.2c-0.2-1.1-0.4-2.2-0.6-3.3c0-1.6-0.7-3.1-0.8-4.8c-0.1-2.4-0.6-4.7-0.8-7.1
		c0.3-1.5-0.2-3-0.2-4.5c0-0.7-0.1-1.4-0.1-2.1s-0.3-1.3-0.2-2c0.1-1.3,0.1-2.6,0-3.9c-0.1-0.4-0.1-0.8,0-1.2
		c0.2-1.2,0.2-2.4,0.3-3.6c0.4-5.6,1.2-11,3.9-16c1.8-3.6,5-6.4,8.9-7.7c4.4-1.5,8.5-3.4,12.8-5.2c0.5-0.3,1.2,0.1,1.6-0.4
		s1.3-0.6,1.8-1c0.2-0.1,0.4-0.2,0.7-0.3c0.5-0.1,0.9-0.3,1.2-0.6c0.2-0.2,0.5-0.4,0.8-0.3c1.6-0.5,3.1-1.1,4.5-1.9
		c0.7-0.3,1.3-0.7,2-1c1.5-0.6,2.8-1.9,3.4-3.4c0.1-0.2,0.2-0.4,0.3-0.6c1.2-2.2,2.4-2.8,4.9-2.4c1,0.2,2,0.3,3,0.3
		c1.2-0.1,2.3-0.7,3-1.6c1-0.2,2,0,2.8,0.4c0.5,0.2,1,0.2,1.5,0.1c0.7-0.1,1.4,0.1,2,0.5c1.4,1,3.1,1.8,4.8,2.3
		c0.5,0.1,1,0.5,1.3,0.9c0.3,0.3,0.5,0.9,1,1c0.7,0.7,1.3,1.6,1.6,2.5c0.4,0.7,0.8,1.4,1.3,2c0.2,0.4,0.7,0.6,1.1,0.5
		c0.1,0,0.3,0.1,0.3,0.2c0.1,0.2-0.4,0.4,0,0.7c0.4,0.8,1.1,1.5,2,1.8c0.5,0.2,0.8,0.2,0.8-0.5c-0.2-1.9,1-3.6,2.8-4.1
		c2.5-0.9,5.1-1.7,7.6-2.4c0.3-0.1,0.7,0.1,0.8-0.2c0.7-0.6,1.3,0.2,1.9,0c0.2,0,0.4,0.1,0.5,0.2c0.2,0.6,0.6,0.6,1,0.4
		c0.2-0.1,0.5,0,0.6,0.2c0.1,0.7,0.7,0.5,1.1,0.6c1.2,1.3,2.2,2.8,3,4.4c1.2,2.2,2.4,4.4,3.7,6.6c0.1,0.1,0.1,0.3,0.3,0.3
		c0.5,0.8,0.9,1.6,1.4,2.4c0.1,0.2,0.3,0.4,0.5,0.6c0.1,0.3,0,0.6,0.1,0.9c0.2,0.3,0.3,0.7,0.3,1.1c-0.1,0.2,0,0.5,0.1,0.7
		c0.7,1.2,1.2,2.4,1.5,3.7c0.2-0.5,0.4-0.9,1-1c0.5,0.2,0.6,1,1.2,1.2c0.2,0.4,0.4,0.7,0.7,1c0.1,0.4,0.8,0.1,0.8,0.6
		c0.2,0.8,0.8,1.5,1.5,2c1.3,1.2,2.8,2.1,4.5,2.7c2.2,0.7,4.1,2.2,5.2,4.2c0,0.4,0.2,0.7,0.4,1c0.8,1.6,1.2,3.4,1.1,5.2
		c0.2,2.8-0.1,5.6-0.2,8.4c-0.4,0.8-0.7,1.7-0.8,2.7c-0.2,1.7-1,3.3-0.8,5.1c0.3,0.9,0.1,1.9-0.4,2.7c0.5,1-0.5,1.4-0.7,2.1
		c-0.1,0.3-0.2,0.7-0.3,1c-0.1,0.4-0.1,0.8-0.5,1.1s0.2,0.9-0.2,1.3c-0.2,0.2-0.3,0.4-0.3,0.6c0,0.1-0.1,0.2-0.1,0.2
		c-0.2,0.2-0.2,0.4-0.1,0.6c0,0.1,0.1,0.3,0,0.4c-0.9,0.5-0.8,1.5-1,2.3c-0.1,0.5-0.1,1-0.6,1.3s-0.2,0.7-0.3,1
		c-0.3,0.3-0.1,0.6,0,0.9s0.2,0.8-0.3,1.1c-0.3,0-0.6,0.1-0.9,0.2c0.3,0,0.5,0,0.6,0.3c-0.4,0.9-0.6,1.8-0.7,2.8
		c0,0.9-0.4,1.7-1,2.3c-0.2,0.2-0.3,0.4-0.3,0.6c0,0.1-0.1,0.2-0.1,0.2c-0.4,0.3-0.1,0.9-0.4,1.2c-0.4,0.1-0.5,0.3-0.4,0.7
		c-0.1,1.4-1,2.3-1.6,3.5c-0.1,0.4-0.6,0.4-0.8,0.8c-0.2,0.2-0.5,0.3-0.4,0.7c-0.1,0.6-0.6,1-0.6,1.6c0,0.1,0,0.2-0.1,0.3
		c-1.3,2.9-2.1,6-2.5,9.1c-0.3,2.3-1.6,4.1-3.1,5.8c-3.6,4.2-8.1,7.6-13,10.2c-4.7,2.5-9.7,4.4-14.8,5.5c-2.4,0.6-4.9,0.9-7.4,0.9
		C520.9,563.6,520.5,563.5,520.2,563.7z"/>
	<path class="st5" d="M455.9,480c-0.4-0.7-0.4-1.6,0-2.4c0.3-0.7,0.4-1.4,0.4-2.2c-0.2-0.3,0-0.5,0.2-0.7c0-0.3,0-0.7,0-1
		s-0.4-0.9,0.3-1c0.1-0.3,0.2-0.5,0.1-0.8c-0.4-0.6-0.1-1.1,0-1.7c0.9-3.6,2.3-7.1,4.3-10.3c0.8-1.1,1.7-2.1,2.7-3.1
		c0.1-0.1,0.5-0.9,0.7,0l0.4-0.1c0.5-0.2,0.5-0.7,0.7-1.1c-0.1-0.1-0.3-0.2-0.2-0.5c0.8-2.1,2.6-3,4.5-3.9c2.7-1.2,5.4-2.4,8.4-2
		c1.9,0.3,3.7,0,5.6,0.3c0.3,0.1,0.7,0,0.9-0.3c1-0.9,2.2-1.7,3.4-2.4c1.4-0.7,2.2-2,3.5-2.6c1.9-1,3.1-2.8,4.8-4
		c0.1-0.1,0.2-0.2,0.3-0.2c2-0.9,3.5-2.6,5.4-3.6c0.9-0.5,1.6-1.3,2.8-0.6c0.4,0.2,0.7-0.6,1.1-0.9h0.6c0.6,0.7,1.5,1.2,2.4,1.3
		c1,0.1,1.9,0.4,2.8,0.8c0.4,0.1,0.8,0.7,1.2,0c0.1-0.2,0.3,0,0.4,0.1c1.2,0.4,2.5,0.9,3.7,1.3c1.8,0.6,3.6,1.2,5.4,2
		c1,0.5,2,1.1,2.9,1.9c0.1,0.2,0.3,0.3,0.2,0.6c0.5,0.5,1.2,0.7,1.5,1.4c0,0.1,0.2,0.2,0.3,0.2c1.1,0,1.8,0.4,1.7,1.6
		c0,0.2,0.2,0.4,0.5,0.3c0.7-0.1,1.4-0.3,2-0.7c0.4-0.3,0.9-0.5,1.3-0.6c2.5-0.9,5-2,7.7-2c2.2,0,4.5,0.1,6.7,0.4h0.1
		c0.2,1.4,1.9,0.7,2.6,1.7c0.5,0.6,1.2,1.1,1.9,1.5c1.4,0.9,2.5,2.1,3.1,3.6c0.2,0.3,0.2,0.7,0.7,0.6s0.9,0.3,0.9,0.9
		c-0.2,0.2-0.2,0.2,0.2,0.8c0.3,1.2,0.7,2.3,1.3,3.3c1.2,2.2,1.9,4.5,2.1,7c0.3,1.4,1.5,2.5,2.9,2.8c3.1,0.6,6.1,1.5,8.4,3.8
		c1,1,1.9,2.1,2.8,3.1c0,0.2,0.3,0.4,0.2,0.6c0.4,0.9,0.8,1.7,1.2,2.6c0.9,2.3,1.5,4.7,2,7.2c0.2,1,0.2,2,0,3c0,0.5-0.5,0.9-0.6,1.6
		s0.2,1.6,0.1,2.3c-0.1,0.5,0.7,0.6,0.6,1.1c-0.4,1.9-0.6,3.8-0.6,5.7c-0.2,0.1-0.3,0-0.2-0.2c-0.1-0.7-0.1-1.4-0.2-2
		c-0.2,2.1-0.7,4.1-0.5,6.1c0.1,0.1,0.1,0.3,0.1,0.4c-0.7,0.8-1,1.9-0.8,3c-0.1,0.4,0.6,0.4,0.5,0.8s-0.2,0.6-0.6,0.8
		c-0.2,0.1-0.4,0.1-0.4,0.4c-0.4,1-1.1,1.9-1.1,3c-0.1,1.2-0.5,2.4-1.1,3.5c-0.4,0.8-0.2,1.8-1,2.5c0,0.1,0,0.1,0,0.2
		c0.5,0.6,0.2,1.1-0.2,1.4c-0.7,0.7,0,1.6-0.4,2.3c-0.3,0.3-0.8-0.1-1.2,0.2c-0.5,0.7-0.9,1.6-1,2.5c-0.1,0.3,0,0.7-0.3,0.9
		s-0.3,0.3,0,0.5c0.9,0.5,0.1,0.9-0.1,1.1c-0.5,0.4-0.9,0.8-0.7,1.5c0,0.2,0,0.5-0.4,0.4c-0.4,0-0.7,0.3-0.8,0.8
		c-0.1,0.8-0.7,1.5-0.6,2.3c-0.3,0.3,0.1,0.7-0.2,1s-0.5,0.6-0.3,1.1c0.1,0.2,0.1,0.4-0.1,0.4c-1.1,0.2-0.5,1-0.4,1.5
		c0.2,0.5,0,1-0.3,1.3c-0.8,0.8-1.3,1.9-1.2,3.1c0,0.4-0.2,0.8-0.5,1.1c0,0-0.1-0.1-0.1,0c0,0.1,0.1,0.2,0.1,0.2
		c0,0.1,0.2,0.3,0,0.4s-0.2,0.7-0.4,1c-0.3-0.1-0.3-0.6-0.6-0.6c-0.1,0-0.3,0-0.4-0.2c0.3-0.5,0.9-0.9-0.3-1.1
		c-0.6-0.1,0.1-0.7,0.1-1c0.2-0.1,0.3,0.1,0.4,0.2c0.7,0.2,1,0.3,0.7-0.7c-0.2-0.5,0.1-1.2-0.7-1.4c-0.1-0.2,0.1-0.3,0.2-0.4
		c0.1-0.2,0.3-0.5,0.4-0.7c0.3-0.3,0.4-0.5,0-0.8s-0.3-0.6-0.4-0.9c0.1-0.2,0.2-0.3,0.4-0.2s0.6,0.5,1,0.4c0.2-0.2,0.2-0.4,0-0.5
		c-0.5-0.2-1-0.4-1.6-0.4c0-0.1,0-0.1,0-0.2c0.2-0.2,0.2-0.5,0.4-0.7c0.2-0.1,0.4-0.2,0.6-0.3c-0.2-0.1-0.3,0.2-0.5,0
		c-0.1-0.1-0.1-0.3,0-0.4c-0.4-0.6,0-0.7,0.5-0.8c0.1-0.1,0.2-0.1,0.2-0.1c0.3,0.3,0.6,0.6,1,0.9c-0.2-0.4-0.9-0.5-0.9-1.1
		c0.1-0.1,0.2-0.1,0.3-0.1c0,0,0.2,0.1,0.2-0.1c-0.1-0.1-0.1-0.2-0.1-0.4c-0.2-0.8,0.6-1.1,0.8-1.7s0.5-1.3,0.8-1.9
		c0.1-0.2,0.2-0.4,0.4-0.6c0.4-0.4-0.2-1,0.4-1.4c0.2,0.1,0.2,0.3,0.3,0.4c-0.1-0.1-0.1-0.3-0.1-0.4c0-0.2-0.4-0.5,0-0.7
		c0.6-0.4,1-0.8,0.6-1.5c1-0.6,0.3-1.7,0.7-2.5c0.2-0.4,0.4-0.8,0.7-1.1c0.1-0.3-0.2-0.7,0.4-0.8c0.5-0.2,0.1-0.7,0.2-1
		s-0.2-0.5,0-0.8c0.1-0.5-0.2-0.9,0.5-1.2s0.3-1.2,0.5-1.8s0.2-1.3,1-1.5c0-0.1,0-0.2,0-0.4c-0.1-0.3,0.1-0.4,0.2-0.6s0-0.1,0-0.2
		c0.1-0.2,0.2-0.4,0.4-0.6c0-0.2,0.3-0.5,0-0.7c-0.2-0.2-0.2-0.4-0.1-0.6c0.9-0.6,0.7-1.6,1-2.4c0.1-0.5,0.5-0.8,1-0.9
		c-0.2-0.5-1.1-0.9,0-1.3c0.2-0.1,0.2-0.2,0.1-0.3c-0.7-0.7,0.3-1.3,0-2c-0.3-0.8,0-1.5-0.1-2.2c-0.1-0.4,0.3-0.5,0.3-0.7
		c0.2-1.1,0.5-2.2,0.6-3.2c0-0.6,0.3-1.1,0.8-1.4c1.7-0.6,1.3-1.8,1-3c0-0.1,0-0.2-0.1-0.4c-0.1,0.1,0,0.2-0.1,0.3s-0.2,0.2-0.4,0.1
		c-0.4-0.5-0.5-1.2-0.3-1.8c0.1-0.8,0.1-1.6,0.1-2.5c0-0.3,0.1-0.7,0.3-0.9c0.9-0.3,1-0.4,0.8-1.4c-0.1-0.4-0.3-0.9-0.5-1.3
		c-0.5-1-0.8-2.1-0.9-3.2c-0.1-1.4-1-2.7-2.3-3.2c-0.3-0.1-0.6-0.2-0.7-0.6c-0.7-2.1-2.4-3.4-4-4.7c-0.3-0.2-0.6-0.3-0.9-0.2
		c-1.2,0.5-2.3,0-3.5-0.1c-0.2,0-0.5,0-0.7-0.1c-0.3-0.1-0.6-0.2-0.6-0.6s-0.4-0.2-0.6-0.2c-0.6,0-0.2-0.2-0.1-0.4
		c0.3-0.3,0.5-0.5,0.1-0.9c-0.2-0.2-0.4-0.4-0.6-0.6c-0.3-0.4-0.6-0.9-1.3-0.8c-0.6,0.3-0.9,0.9-0.9,1.5c-0.8-1.4-1.1-3-1.9-4.3
		c-0.1-0.2,0.1-0.4,0-0.6l-0.4-1.2c0.5-0.2,0.6-0.5,0.3-1c-0.3-0.6-0.6-1.1-1-1.6c0.2,0.4,0.5,0.7,0.4,1.1c0,0.1-0.1,0.3-0.3,0.2
		c-0.6-0.8-1.1-1.7-1.4-2.6c-0.4-0.4,0-0.8-0.1-1.2c0-0.2-0.1-0.4,0.2-0.5s0.4,0,0.5,0.2c0.8,0.7,1.5,1.5,2.4,2.4
		c-0.3-1.1-1.1-2-2.1-2.6c-0.3-0.2-0.7-0.4-1-0.6s-0.7-0.7-0.4-1.1c0.6-0.8,0-1.1-0.5-1.5c-1-0.6-1.8-1.4-2.4-2.3
		c-0.1-0.2-0.3-0.4-0.3-0.6c0-0.6-0.5-0.9-0.8-1.3c-0.6-0.8-1.7-1-2.1-2c0-0.1-0.2-0.2-0.3-0.1c0,0,0,0,0,0
		c-0.5,0.4-0.9-0.1-1.3-0.3c-0.1,0,0.2-0.2,0.3-0.3c0.4-1.1,0.4-1.1-0.6-1c-0.5,0.1-0.9,0.2-1.4,0.1c-0.4,0-0.8,0.3-1.2-0.1
		c-0.2-0.2-0.6-0.1-0.8,0.1c-1.6,0.4-3.2,0.6-4.8,0.8c-0.9,0.1-1.9,0.4-2.7,0.9c-0.5,0-1,0.2-1.4,0.5c-0.7,0.2-1,1.1-1.8,1.2
		c-0.3,0-0.6,0-0.8-0.3s0.2-0.3,0.2-0.6c-1.1,0.4-1.8,1.5-2.9,1.8c-0.5,0.5-0.8,0.4-1.2-0.2c-0.9-1.3-1.7-2.6-2.3-4
		c-0.2-0.3-0.4-0.5-0.6-0.7c-0.1,0-0.2,0-0.2-0.1s0.1-0.2,0.2-0.3c0.3-0.2,0.7,0.2,1,0s0.4,0,0.5,0.2c0.1,0,0,0.3,0.2,0.1
		c-0.1-0.3-0.3-0.6-0.7-0.3c-0.1,0-0.3,0-0.4,0c-0.5-0.1-1-0.6-1.6-0.5c-0.4-0.6-1-0.9-1.6-1c-1.5-0.2-2.7-1.1-3.9-1.9
		c-0.8-0.6-1.8-0.9-2.7-0.7c-1.1,0.2-2.1-0.6-3.3-0.6c-0.3,0-0.5,0-0.8-0.1c-0.3,0.3-0.6,0.1-0.9,0s-0.6-0.2-0.8,0.1
		c-0.1,0.1-0.3,0.2-0.5,0.1c-1.7-0.8-3.5-0.3-5.2,0c-0.6-0.1-1,0.4-1.4,0.7c-0.6,0.5-1.2,1.3-2.2,1.1c-0.2,0-0.3,0.2-0.5,0.3
		c-1.2,1.1-2.5,2-3.9,2.8c-0.3,0.1-0.6,0.4-0.7,0.6c-1.1,1.6-2.5,2.9-4.1,4c-0.3,0.2-0.6,0.3-0.9,0.3c-0.5-0.1-0.8,0.3-1.1,0.6
		s-0.5,0.7-0.9,0.9l-0.6,0.2c-0.7,0.1-1.3,0.5-1.8,1c0.2,0.3,0,0.4-0.2,0.4h-1.3c-1,0.4-2.1,0.5-3.2,0.2c-1.9-0.4-3.8-0.3-5.6,0.4
		c-0.9,0.3-1.8,0.4-2.7,0.4c-0.9,0.1-1.8,0.5-2.4,1.2c-0.4,0.5-0.9,0.9-1.4,1.2c-0.4,0.2-0.5,0.2-0.7-0.4c-0.6,1.3-1.6,2.3-2.8,3
		c-0.2,0.1-0.4,0.3-0.5,0.6c-0.1,0.3-0.2,0.6-0.5,0.9c-0.6,0.5-1,1.2-1,2c0,0.4-0.2,0.7-0.5,1c-0.3,0.4-0.6,0.9-0.7,1.4
		c-0.2,0.6-0.6,1.1-1,1.5c-0.5,0.4-0.7,1-0.5,1.6c0.1,0.2,0.1,0.5,0,0.8c-0.4,1.1-0.9,2.2-1.2,3.4c-0.1,0.2-0.5,0.2-0.5,0.5
		c0,0.2-0.1,0.4-0.2,0.6c-0.2,0.2-0.5,0.2-0.4,0.5c0,0.1,0,0.2,0,0.3c-0.2,0.5,0.1,0.3,0.3,0.2c0.1,0,0.2,0,0.3,0
		c0.2,0.3,0.3,0.8,0.2,1.2c-0.4,2.1-0.4,4.3-1.3,6.4c-0.1,0.3-0.1,0.6,0,0.9c0-0.2,0-0.4,0-0.5c0-0.2,0.1-0.4,0.4-0.4
		c0.2,0,0.4,0.2,0.4,0.4c0,0,0,0.1,0,0.1c-0.3,1,0,2.1-0.1,3.1v1.2c0,0.3,0.3,0.7-0.3,0.8c-0.2,0-0.1,0.5,0,0.8
		c0.2,0.8,0.2,1.6,0.4,2.3l0.4,1.8c-0.2,0.7-0.2,1.4-0.1,2.1c0.2,1.5,0.1,3.1,0.3,4.7c0.5,2.5,0.8,5.1,1,7.6
		c0.1,1.2,0.6,2.3,0.7,3.5c0,0.3,0.2,0.6-0.1,0.8c-0.6,0.6,0,1.2,0,1.8c0.1,0.3,0.1,0.6,0.2,0.9c0,2,0.3,3.9,0.9,5.8
		c0.3,1.4,0.4,2.9,0.5,4.3c0.2,2.3,0.6,4.5,1.2,6.7c0.4,1.3,0,2.6,0.4,3.9c0.1,0.5-0.5,1.2-0.8,1.9c-0.1,0.2-0.3,0.3-0.5,0.3
		c-0.2,0-0.2-0.3-0.2-0.4c-0.3-1.3-1-2.5-0.8-3.9c0-0.1,0-0.2,0-0.3c-1.6-1.5-0.9-3.6-1.3-5.5c-0.6-2.9-1.1-5.8-1.5-8.8
		c-0.3-1.5-0.5-3-0.5-4.5c0-0.4-0.1-0.9-0.3-1.2c-0.5-0.7-0.6-1.7-0.3-2.5c0.2-0.6-0.5-0.7-0.5-1.2c0-1.8-0.2-3.5-0.3-5.2
		c-0.2-2-0.2-4-0.5-5.9c-0.3-1.2-0.1-2.4,0.5-3.5c0.1-0.1,0.1-0.3,0-0.5c-1.2-3.7-0.9-7.5-0.7-11.3c0-0.5-0.1-1-0.2-1.4h-0.1
		C455.9,479.8,455.9,479.9,455.9,480z"/>
	<path class="st6" d="M578,488.4c-0.3-0.2-0.7-0.4-0.5-0.9c0.4,0,0.2,0.4,0.5,0.5V488.4z"/>
	<path class="st5" d="M537.5,535.7c-0.6,0.5-1.3,0.2-1.9,0.3c-0.7,0.2-1.5,0.4-2.2,0.7c-0.7,0.3-1.3,0.9-1.8-0.2
		c-0.1-0.2-0.3,0-0.5,0.1s-0.5,0.2-0.6-0.2c0-0.2-0.2-0.3-0.3-0.2c0,0-0.1,0-0.1,0.1c-0.7,0.8-1.3,0-1.9-0.2
		c-0.5-0.2-0.9-0.5-1.4-0.6c-0.5-0.1-0.9-0.4-1.3-0.8c-0.7-0.6-1.6-0.8-2.4-0.6c-0.2,0-0.3,0.2-0.4,0.4c-0.3,0.5-0.6,0.9-1.2,0.7
		c-0.2-0.1-0.5-0.1-0.5,0c0.1,1.2-1.1,0.7-1.5,1.3c-0.1-0.1-0.2-0.1-0.3-0.2c0.1,0.1,0.3,0,0.4,0.1c-0.7,0.9-1.9,1.3-3,0.9
		c-0.3-0.1-0.7-0.2-0.8,0.2s0.5,0.1,0.6,0.5c-0.4,0.1-0.8,0.2-1.3,0.2c-0.3,0-0.8,0.3-0.9-0.5c-0.1-0.4-0.7-0.3-1.1-0.1
		s-0.7,0.2-1.1-0.3c-0.5-0.6-1.1-1.1-1.7-1.4c-0.8-0.4-1.5-1-1.9-1.8c-0.3-0.5-0.6-1-1-1.4c-0.2-0.1-0.2-0.4-0.1-0.6c0,0,0,0,0,0
		c0.4-0.6-0.3-1.1-0.6-1.1c-1.5,0-2.8-0.6-4.1-0.9c-0.2,0.2-0.2,0.7-0.6,0.4c-0.1-0.1-0.1-0.3-0.1-0.4c0.3-0.9,1.3-1.3,1.5-2.3
		c0.7-0.4,1.6-0.4,2.4-0.1c0.5,0.2,0.8,0.1,0.8-0.5c0-0.8,0.1-1.5,0.2-2.3c0.1-1,1-1.8,2-1.8c0.9,0,1,0.3,1.1,1.1
		c0,1.2-0.4,2.4-0.3,3.6c0,0.8,0.5,1.2,1.2,1.5c0.3,0.2,0.2-0.2,0.4-0.3c0.3-0.1,0.5-0.2,0.8-0.1c0.3,0.1,0.5,0.1,0.8,0.2
		c0.1,0,0.1,0.1,0.2,0.2c0,0.1,0,0.2-0.1,0.2c-0.3,0.2-0.7,0.5-0.4,0.9c0.4,0.5,0.8-0.1,1.2-0.1c0.5-0.2,1-0.3,1.5-0.5
		c1.8,0.4,3.6,0.5,5.5,0.7c0.3,0.1,0.7,0.2,1,0.3c0.9,0.4,2,0.3,2.8-0.3c0.2-0.2,0.6-0.4,0.9-0.4c1-0.1,1.2-0.7,0.8-1.6
		c-0.1-0.2-0.2-0.3-0.3-0.5c-0.7-1.2-0.5-2.8,0.5-3.8c0.2-0.2,0.4-0.4,0.6-0.6c0.2-0.4,0.2-0.9-0.2-1.2c-0.4-0.3-0.5,0.2-0.7,0.5
		c-0.8,1.5-2,2.6-3.6,3.3c-1,0.5-2,1-3,1.4c-1.4,0.4-2.9-0.2-3.4-1.6c-0.5-1.1-0.6-2.3-0.1-3.5c0.4-1.1,0-1.9-1.1-2.1
		c-0.2,0-0.5-0.3-0.6,0.3c0,0.3-0.6,0.1-0.9,0c-1.5-0.7-3-1.5-3.5-3.3c0-0.1-0.1-0.1-0.2-0.1c-0.4,0.2-0.2,0.6-0.2,1
		c0,0.4-0.2,0.7-0.4,1.1c-0.1,0.2-0.3,0.3-0.6,0.2c0-0.2-0.2-0.3-0.3-0.5c-0.2-0.4-0.6-0.1-0.9-0.2c-0.1,0-0.3-0.1-0.4-0.1
		c-1.6-0.1-2.3,0.5-2.2,2.2c0,0.3-0.4,0.8,0.2,1c0.1,0.1,0.2,0.2,0.2,0.3c0.1,0.6-0.3,1.3-1,1.4c0,0,0,0,0,0
		c-0.5,0.1-0.3,0.8-0.7,1.1c-0.1,0-0.2,0.1-0.3,0.1c-0.5-0.1-0.9-0.3-1.2-0.6c0-0.4-0.8-0.6-0.2-1.1c0.1,0,0.2,0,0.2,0h-0.3
		c-0.9-0.5-0.9-0.6,0-1.1c0.1-0.1,0-0.2,0-0.3c0-0.1,0-0.3,0.1-0.4c0.4,0,0.7,0.3,1.1,0.3c-0.3-0.1-0.7-0.2-1-0.4
		c-0.5-0.4-0.5-0.7,0.2-0.7c0.2,0,0.2,0-0.1-0.3c-0.6-0.1-0.7-0.4-0.3-0.9c0.2-0.2,0.3-0.5,0.4-0.7c-0.6-0.1-1.2-0.3-1.7-0.7
		c-0.3-0.2-0.7-0.2-1,0c-0.9,0.5-2,0.8-3,0.9c-0.4,0.1-0.8,0-1.1-0.2c-1.4-0.7-2.3-2.1-2.4-3.7c-0.1-0.7-0.1-1.4,0-2.1
		c0.1-0.4,0-0.7-0.5-0.5c-0.9,0.1-1.7,0.3-2.5,0.5c-0.9,0.4-1.9,0.4-2.7-0.1c-0.5-0.3-1-0.3-1.5,0c-1.1,0.6-2.2,1.4-3.2,2.1
		c-1.6,0.8-3.5,0.2-4.5-1.3c-1.3-1.7-1.6-3.9-0.8-5.9c0.2-0.4,0.3-0.8,0.4-1.2c-1.2,1.1-2.4,2.4-4.2,2.6c-0.8-0.4-1.1-1.2-1.7-1.8
		c-0.2-0.2-0.2-0.6,0-0.8c0.4-0.5,0.6-1.1,1.3-1.3c0.3,0.3,0.5,0,0.7-0.1c0.4-0.3,0.6-0.7,0.7-1.2c0.1-0.5,0.7-0.9,1.2-1.2
		c1.1-0.9,2.3-1.8,3.6-2.5c1.2-0.5,2.1-1.4,2.8-2.6c2.2-2.9,5.3-4.7,8.5-6.3c1.7-0.8,3.6-1.3,5.5-1.3c0.5,0,0.9-0.2,1.3-0.5
		c1.4-1.1,3-1.8,4.7-2.2c1.1-0.1,2.3-0.1,3.4-0.1c-0.7-0.4-0.8-0.6-0.1-1.1c0.5-0.4,1-0.7,1.6-0.9c0.2,0,0.4,0,0.5-0.2
		c0.6-1,1.6-0.8,2.5-0.9c2.4-0.2,4.7-0.6,7.1,0c0.5,0.1,0.7,0,0.6-0.5c0-0.2,0-0.3,0.1-0.5c0-0.2,0.1-0.4,0.3-0.5
		c0.8-0.7,1.3-1.6,1.6-2.6c0.3,0.4,0.8,0.6,1.3,0.5c0.9-0.7,1.7-0.1,2.6,0c1,0.1,2,0.4,3.1,0.6c0.2,0.1,0.5,0,0.8,0.1
		c0.2,0.1,0.5,0.2,0.7,0.2c-0.3,0-0.5-0.1-0.7-0.2c-0.2,0-0.4-0.1-0.6-0.3c-0.6-0.3-1.3-0.5-1.9-0.6c-0.9-0.1-1.6-0.6-2-1.4
		c-0.7-0.2-1.5-0.2-2.2,0c-1-0.6-2.1-0.9-3.3-0.9c0.7-0.5,1.7,0.1,1.9-0.9c0-0.2,0.5,0.1,0.6,0.3c0.3,0.6,1.1,0.8,1.7,0.5
		c0.2-0.1,0.4-0.3,0.5-0.6c0.2-0.3,0.5-0.1,0.8,0l2.2,0.9c0,0.2,0,0.3-0.2,0.2c-0.3,0-0.6,0.3-0.6,0.6c0,0,0,0,0,0.1
		c0.1,0.4,0.4,0.6,0.8,0.6c0,0,0,0,0,0c1-0.2,2,0.1,2.8,0.7c0.6,0.4,1.3,0.3,1.9,0c0.5-0.3,0.6,0,0.9,0.2c1.1,0.8,1.7,2.2,3.1,2.7
		c1.3,0.5,2.8,0.1,3.6-1c0.4-0.6,2-0.9,2.4-0.2c0.5,1,1.6,1.7,1.6,2.9s0.4,2.4,0.5,3.6c0,0.1,0,0.2,0,0.3c-0.1,1.2,0.7,2.3,1.9,2.6
		c1.6,0.5,3.1,1.4,4.1,2.8c1.2,1.7,2.7,3.2,2.7,5.5c0,0.8,0.1,1.6,0.3,2.4c0.2,1.4,0.2,2.7,0,4.1c0,0.6,0.1,1.2,0.4,1.7
		c0.9,2.3,2.2,4.4,3.7,6.3c0,0.1,0.1,0.1,0.1,0.2c0.6,2.2,1.8,4.3,1.9,6.6c0,1.1,0.3,2.1,0.4,3.2c0,0.1,0,0.2-0.1,0.2c0,0,0,0,0,0
		c-0.2,0.1-0.5,0.1-0.3,0.5s0.4,0,0.6,0.1c0.4,0.1,0.6,0.5,0.5,0.9c0,0.1-0.1,0.2-0.2,0.3c-0.3,0.3-0.8,0.3-1.1,0.1
		c-0.1-0.1-0.1-0.2-0.2-0.3c-0.1-0.4-0.6-0.6-1-0.4c-0.1,0-0.2,0.1-0.2,0.1l1.5,1.3c-0.2,0.4-0.6,0.1-0.9,0.2c0,0.1-0.1,0.2,0,0.2
		c0.7,1.4,0.7,1.5-0.5,2.5c-0.3,0.2-0.2,1-0.9,0.7c-0.1,0.2-0.2,0.3-0.4,0.2s-0.4-0.4-0.7-0.3c0,0.1-0.1,0.1-0.1,0.2
		c0.2,0.6,0.3,1.2-0.4,1.6s-1,0.9-1.8,0.8c-0.6-0.1-1.2,0.4-1.8,0.4c-0.6,0.1-1.2,0.1-1.8,0c0.4-0.3,1.3-0.1,1-0.7
		c-0.2-0.4-0.8,0-1.2,0.2c-0.7,0.3-1.3,0.5-1.7-0.3c0-0.1-0.2-0.2-0.2-0.2c-0.9,0.1-1.8,0.4-2.5,0.8c-0.5,0.4-1,0.8-1.4,1.2
		c-0.6,0.6-1.5,1-2.4,0.9C538,535.4,537.7,535.4,537.5,535.7z"/>
	<path class="st7" d="M548.6,474c-1.5,1.2-3.5,1.9-5.4,2c-0.1,0-0.1,0-0.2,0.1c0,0,0,0.1,0,0.2s0.1,0.1,0.1,0.1s0,0-0.1,0l-1.2,0.1
		c-0.1,0-0.2-0.1-0.4-0.1c-0.3-0.1-0.6-0.1-0.8,0c-0.2,0-0.3,0.2-0.4,0.4c-0.5,0.2-1.1,0.2-1.7,0.3c-0.2,0-0.1,0.6-0.5,0.6
		c-0.2-0.5-0.7-0.2-1-0.4c-0.6-0.2-1.1-0.5-1.5-0.9c-0.3-0.2-0.7-0.4-1.1-0.5c-0.4,0.1-0.3-0.3-0.4-0.4c-1.2-0.7-2-2-2.2-3.4
		c0.2-0.3-0.1-0.5-0.2-0.8c-0.2-1.9-0.4-3.7-0.5-5.6c-0.1-2,0.5-3.9,1.5-5.6c0.6-1.1,1.6-2,2.8-2.5c1.5-0.8,3.2-1.3,4.9-1.7
		c2.5-0.4,5,0.4,6.8,2.2c0.6,0.6,1.3,1.1,2.1,1.4c0.1,0,0.2,0.1,0.2,0.2c0.2,0.3,0.5,0.5,0.7,0.8c1.4,1.4,2.1,3.4,1.7,5.4
		c-0.1,0.7-0.2,1.5-0.3,2.2c0,1.2-0.4,2.3-1.1,3.2c-0.4,0.4-0.6,1-0.6,1.6C549.5,473.5,549.2,474,548.6,474z"/>
	<path class="st8" d="M497.9,458.5c0-2.2,1-4.2,2.9-5.5c1.3-0.9,1.8-2.3,2.8-3.4c1.4-1.7,3.2-2.9,5.5-2.2c1.4,0.3,2.9,0.5,4.3,0.7
		c2.8,0.6,5.2,2.5,6.4,5.2c1.9,4,1.8,8-0.9,11.6c-0.8,1.2-2,2.1-3.3,2.6c-0.5,0.2-0.9,0.5-1.3,0.9c-2.6,2.2-6.3,2.5-9.2,0.7
		c-1.2-0.5-2.3-1.2-3.3-1.9c-1.2-0.8-2-2.2-2.1-3.6c0-0.2-0.1-0.5-0.2-0.6C498.1,461.7,498,460.2,497.9,458.5z"/>
	<path class="st9" d="M469.4,477.4c-1.2-3-0.5-5.6,1.2-8.2c1.5-2,3.4-3.7,5.7-4.8c2-1.2,4.5-1.2,6.6-0.2c1.4,0.7,2.9,1.1,4.1,2.3
		c0.7,0.8,1.2,1.8,1.3,2.9c0.6,2.2,0.6,4.4,0.1,6.6c-1.4,4.4-3.7,6.6-8.2,6.9c-1.4,0.1-2.8-0.5-4.2-0.5c-3-0.1-4.4-2.3-6.1-4.1
		C469.8,477.9,469.8,477.5,469.4,477.4z"/>
	<path class="st5" d="M503.1,527.9c0.1,0.6-0.3,1-0.7,1.4s-0.5,0.5-0.7,0.8c-0.1,0.1-0.2,0.1-0.3,0.2c-0.4,0-0.7,0-1.1-0.2
		c-1.3-0.6-2.6-0.9-4-1c-1.6-0.1-3.3-0.3-4.8-0.8c-1.1-0.3-2.2-0.4-3.3-0.3c-2.9,0.2-5.8,0.7-8.6-0.1c-0.5-0.1-0.9-0.1-1.4-0.1
		c-2.1-0.1-3.6-1.5-5.5-2.1c-0.3-0.1-0.6-0.4-0.5-0.8c0-0.2-0.1-0.5-0.3-0.6c-2.4-2.4-3-5.5-3.2-8.7c-0.1-1.1,0-2.2,0.4-3.3
		c0.2-0.8-0.3-1.6-1.1-1.9c-0.4-0.1-0.6-0.2-0.6-0.6s-0.1-0.5-0.4-0.6c-1-1.6-1.2-3.6-0.5-5.4c0-0.1,0.2-0.1,0.3-0.2
		c0.3,0.5,0.2,0.9,0.1,1.4c0.2-0.4-0.1-1,0.5-1.4c0.5-0.5,0.9-1.1,1.2-1.8c0.7-1.7,2.4-2.4,3.9-3.2c2.1-1.2,4.5-2,6.5-3.3
		c2-1.2,3.8-2.8,5.3-4.6c0.6-0.7,1-1.5,1.9-1.8c0.6-0.1,0.1-0.7,0.5-1c0.5-0.4,1.1-0.9,1.6-1.3c1.6-1.1,3.2-2.1,5-2.9
		c2-0.9,3.9-2.2,6.3-2.1c1.5-0.4,2.9-1.2,4-2.4c0.4-0.3,0.8-0.5,1.3-0.5c0.3,0,0.3-0.3,0.5-0.4l0.2-0.1c0.9,0,1.8-0.3,2.6-0.8
		l0.4-0.1c0,0,0.1,0,0.1,0c0.5,0.9,0.9,1,1.6,0.2c0.4-0.4,0.8,0.2,1.2,0.5c1,0.2,2,0.4,3.1,0.4h0.2c0.6,0.5,0.7,1.5,1.7,1.4
		c0.4,0,0.7,0,1,0.2l0,0c0.2,0.2,0.5,0.3,0.8,0.2h0.8c0.2,0.9-0.2,1.7-0.9,2.2c-0.3,0.2-0.7,0.5-0.7,1c-0.2,0.1-0.3,0-0.5-0.1
		c-0.2-0.2-0.4-0.3-0.7-0.4c-0.4-0.1-0.8,0-1.2,0.1c-0.7,0.1-1.5,0-2.2,0.1c-0.3,0-0.7,0.1-0.8-0.2s0.3-0.5,0.5-0.6
		c0.2,0,0.5,0,0.7,0.1c-0.2-0.1-0.3-0.1-0.5-0.2c-1-0.2-2-0.7-3-0.3c-0.2,0.1-0.3,0.3-0.5,0.5c-1,0.5-2.1,0.5-3.2,0.1
		c-0.4-0.2-1-0.1-1.4,0.2c-0.9,0.8-2.2,1.2-3.4,1c-0.3,0-0.5-0.1-0.8,0c-1.5,0.6-3.1,0.8-4.4,1.6c-1.7,1-3.4,2.1-4.9,3.3
		c-1,0.6-1.8,1.3-2.5,2.2c-0.5,0.8-1.2,1.4-2.1,1.7c-0.3,0.1-0.4,0.3-0.6,0.5c-1.5,1.8-3.4,3-5.2,4.5c-0.9,0.7-1.9,1.2-3,1.6
		c-1,0.3-2,0.7-3,1.2c-0.3,0.2-0.6,0.3-0.9,0.4c-1.1,0.4-2.1,1.1-2.7,2.1c-0.5,0.7-1.3,1-1.7,1.7c-0.2,0.3-0.3,0.5-0.5,0.8
		c-0.4,0.4-0.9,0.8-1.4,1.1l-0.2,0.1c-0.1,0.1-0.3,0.2-0.3,0.3c0.1,0,0.1-0.2,0.3-0.2c0.8,0.1,0.4,0.9,0.7,1.3
		c0,0.1,0.1,0.2,0.1,0.2c0,0.2-0.1,0.5,0.2,0.6c0.1,0,0.3,0,0.4,0.1c1.2,0.4,1.5,1.4,1.8,2.4c0.1,0.3,0.2,0.7,0.3,1.1
		c0,0.3,0,0.7,0.1,1c0,0.1,0,0.2,0,0.3c0,0.3,0,0.6,0,0.9c0,0.2,0,0.4-0.1,0.5s0,0.5,0,0.7s0.2,0.7-0.2,0.7s-0.7-0.3-0.7-0.8
		s0.3-1,0-1.5c-0.5,0.5-0.6,1.2-0.4,1.8c0.5,1.3,0.7,2.6,0.9,4c0.3,1.3,1.3,2.3,2.5,2.6c0.3,0,0.6,0.2,0.8,0.4
		c0.9,1.2,2.3,2.1,3.8,2.3c0.3,0.1,0.7,0.1,1,0.2c0.6,0.2,1.2,0.1,1.7-0.3c0.5-0.5,1.2-0.6,1.8-0.4c0.2,0.1,0.5,0.1,0.7,0
		c0.8-0.2,1.6-0.2,2.3,0c0.2,0.1,0.5,0.3,0.3,0.5c-0.8,0.9,0,1,0.6,1.2l0.2,0.1c1.1,0.4,1.2,0.3,1.2-0.9c0-0.2-0.1-0.4-0.1-0.6
		c-0.1-0.5,0.1-0.9,0.6-0.6c1.4,0.7,2.9,0.5,4.3,0.8c0.6,0.2,1,0.4,1.1,1c0.6,0.2,1.2,0.2,1.8,0c0.1,0,0.3-0.1,0.4-0.1
		c-0.7-0.2-1.5,0.2-2.2-0.5c1.4-0.3,2.7-0.9,4-0.2c0.3,0.2,0.3,0.6,0.7,0.6c0.3,0,0.6,0.2,0.7,0.5c0,0.2-0.2,0.4-0.4,0.4
		c-1.3,0.3-2.5,0.8-3.6,1c1.6,0.5,3.1-0.3,4.5-1c0.4-0.3,1-0.2,1.3,0.2c0,0,0,0,0,0.1c0.1,0.7,0.4,0.9,1.1,0.7
		C502.2,527.8,502.7,527.5,503.1,527.9z"/>
	<path class="st7" d="M563.3,501.3c-0.8,0-1.6,0.1-2.4,0.2c-0.1-0.1-0.3-0.1-0.5-0.1c-0.2,0-0.5,0.1-0.7,0.1c-0.2,0-0.5,0.1-0.6,0.3
		c-1,0.9-1.9,0.6-2.7-0.3c-0.6-0.6-1.3-1-2-1.5c-0.8-0.7-1.2-1.6-1.3-2.6c-0.3-2.2-0.5-4.5-0.4-6.7c0.3-3.1,1.5-5.7,4.7-6.6
		c0.8-0.2,1.5-0.7,2.3-0.9c2.1-0.4,3.7,0.5,5.2,1.7c0.6,0.5,1.2,1.1,1.8,1.6c1.4,0.9,2.2,2.5,2.1,4.2c0,1.6-0.2,3.2-0.5,4.8
		c-0.6,1.7-1.6,3.2-2.9,4.4c-0.2,0.4-0.7,0.5-1,0.8l-0.8,0.3C563.6,501,563.3,500.9,563.3,501.3z"/>
	<path class="st10" d="M503.5,479.4c0.3,0.4,0,0.7-0.2,0.8c-1,0.5-1.9,1-2.8,1.7c-0.3,0.2-0.6-0.1-0.9-0.1c1.2-1,2.6-1.8,4-2.5
		C503.5,479.2,503.6,479.3,503.5,479.4C503.5,479.4,503.6,479.4,503.5,479.4z"/>
	<path class="st11" d="M459,498.7c-0.3-0.5-0.5-1.1-0.4-1.7c0.1-1.2,0-2.5-0.2-3.7c-0.2-0.5,0-1.1,0.4-1.4c0.1,1.7,0.2,3.5,0.4,5.2
		C459.4,497.6,459.3,498.2,459,498.7z"/>
	<path class="st12" d="M511.3,478.2c-0.4-0.2-0.5-1.2-1.2-0.2c-0.5,0.7-1.2,0.3-1.6-0.8l2.3-0.1c0.4-0.2,0.6-0.1,0.9,0.2h0.4
		C512.1,478,511.6,478,511.3,478.2z"/>
	<path class="st13" d="M556.6,460.1c-0.1-0.6-0.7-1-0.7-1.7c1,0.6,1.8,1.7,2,2.9c-0.1,0.7-0.6,0-0.8,0.2c-0.4-0.3,0.1-0.6,0-0.8
		C556.7,460.6,556.7,460.4,556.6,460.1z"/>
	<path class="st14" d="M511.3,478.2c0-0.5,0.7-0.3,0.8-0.8h0.2c0.1-0.1,0.2-0.1,0.4,0c0,0,0,0,0,0l1.8,1c-0.3,0.1-0.6,0.7-1.1,0.1
		c-0.4-0.1-0.8-0.1-1.1,0C511.9,478.7,511.5,478.6,511.3,478.2z"/>
	<path class="st13" d="M458.5,490.1c-0.7-0.9-0.4-2-0.7-2.9c0-0.2,0.1-0.4,0.3-0.5c0,0,0,0,0,0c0.6,0.1,0.1-0.4,0.4-0.5
		C458.7,487.5,458.7,488.8,458.5,490.1z"/>
	<path class="st15" d="M530.2,449.2l-0.2,0.2c-0.3-0.1-0.6,0.5-1,0.2l-0.2-0.2c0.8-0.7,1.7-1.4,2.6-2c0.1-0.1,0.3-0.5,0.6,0
		s0,0.6-0.4,0.7c-0.2,0.3-0.5,0.5-0.8,0.6C530.5,448.9,530.3,449.1,530.2,449.2z"/>
	<path class="st10" d="M517.5,480c-0.5-0.1-1,0.2-1.5,0.1c-0.8-0.2-1.1-0.9-1.3-1.7C515.7,478.8,516.6,479.3,517.5,480z"/>
	<path class="st16" d="M514.7,477.5c-0.1-0.2-0.2-0.4-0.2-0.7c-0.1-0.6-0.2-1.1,0.7-0.8c0.5,0.2,1-0.4,1.4,0.2
		c-0.4,0.4-1,0.6-1.6,0.4c0.6,0.6-0.1,0.7-0.3,1C514.6,477.6,514.6,477.6,514.7,477.5C514.6,477.5,514.6,477.5,514.7,477.5z"/>
	<path class="st17" d="M490.2,449.6c0,0.1,0,0.2,0,0.4c-0.5-0.1-0.5,0.5-0.9,0.6c-0.3,0.3-0.8,0.4-1.2,0.4c0.4-0.6,0.8-1.2,1.4-1.6
		c0.2-0.2,0.5-0.4,0.7,0C490.3,449.5,490.3,449.6,490.2,449.6z"/>
	<path class="st18" d="M561.5,466.7c0.3,0.2,0.6,0.4,0.8,0.7s0.6,0.3,0.4,0.7s-0.5,0.2-0.8,0.2c-0.6-0.1-0.8-0.5-0.8-1
		C561.3,467.1,561.3,466.9,561.5,466.7z"/>
	<path class="st19" d="M546.4,444.7c0.4,0,0.9-0.5,1.2,0c0.2,0.4,0.1,0.9-0.3,1.1c-0.1,0-0.1,0-0.2,0.1l-0.6-0.2
		c-0.2-0.1-0.4-0.3-0.4-0.5C546.1,444.9,546.3,444.8,546.4,444.7z"/>
	<path class="st13" d="M561.5,466.7c0,0.3-0.1,0.5-0.4,0.6c-0.5-0.2-0.9-0.7-1-1.2C561.1,465.1,561.1,466.4,561.5,466.7z"/>
	<path class="st20" d="M520,479c0.7-0.8,1.5-0.5,2.2,0C521.6,479.5,520.6,479.5,520,479z"/>
	<path class="st21" d="M508.1,477.5c-0.5,0.9-1.6,1.2-2.6,0.8C506.4,477.9,507.2,477.6,508.1,477.5z"/>
	<path class="st22" d="M556.8,524.9c-0.3,0.1,0.2,0.7-0.3,0.5c-0.4-0.1-0.8-0.5-0.7-1c0-0.3,0.2-0.4,0.5-0.3c0.1,0,0.2,0,0.4,0
		C556.9,524.3,556.8,524.6,556.8,524.9z"/>
	<path class="st11" d="M485.8,452.2l-0.2-0.1c0.5-0.6,1.3-0.9,2.1-0.9C487.2,451.9,486.4,451.8,485.8,452.2z"/>
	<path class="st23" d="M524.6,444.3c-0.1,0.1-0.1,0.1,0,0.2c-0.7,0.2-0.6-0.7-1-0.8c0.7-0.5,1.1,0.1,1.6,0.4
		C525.1,444.3,524.8,444.1,524.6,444.3z"/>
	<path class="st24" d="M503.5,479.4v-0.2c0.5-0.4,1.1-0.7,1.8-0.8l0.2,0.7C504.8,479,504.1,479.1,503.5,479.4z"/>
	<path class="st25" d="M512.7,477.5h-0.4c-0.4-0.3-0.3-0.6,0-0.9s0.5-0.2,0.6,0C513,476.9,512.9,477.2,512.7,477.5z"/>
	<path class="st26" d="M537.5,535.7c0.1-0.5,0.5-0.4,0.8-0.4c-0.7,0.7,0.4,0.5,0.3,1C538.2,536.2,537.7,536.4,537.5,535.7z"/>
	<path class="st27" d="M546.2,445.1l0.2,0.6c-0.4,0.7-0.9-0.4-1.3,0.1l0.4-0.4C545.7,445,545.9,444.9,546.2,445.1z"/>
	<path class="st28" d="M467.4,503.7c-0.2,0.5-0.1,1.1-0.6,1.7v-1.7L467.4,503.7z"/>
	<path class="st29" d="M537.1,477.3c0.3,0.1,1.1-0.9,1,0.4C537.7,477.8,537.3,477.8,537.1,477.3z"/>
	<path class="st30" d="M529.3,479.8c-0.6,0.4-0.9,0-1.4-0.3C528.4,479.3,529,479.4,529.3,479.8z"/>
	<path class="st31" d="M568.7,516.6l-0.4,0.8c-0.2-0.3-0.5-0.1-0.9-0.3C567.9,516.9,568.2,516.5,568.7,516.6z"/>
	<path class="st32" d="M548.6,474c0.3-0.4,0.7-0.7,1.2-1C549.6,473.6,549.4,474.2,548.6,474z"/>
	<path class="st33" d="M566.4,523.1c0.3,0.2,0.5,0.6,0.4,0.9c-0.7,0-0.7-0.4-0.7-0.9L566.4,523.1z"/>
	<path class="st34" d="M553.4,530.7l0.4-0.2c0.7,0.7,0.2,1-0.4,1.2c-0.1-0.1-0.1-0.3,0-0.4c0,0,0,0,0,0
		C553.8,531.1,553.4,530.9,553.4,530.7z"/>
	<path class="st35" d="M562.5,530.3l0.1,0.3c0.1,0.2-0.1,0.3-0.2,0.5c0.2,0.4,0,0.5-0.4,0.6C561.8,531.1,562.2,530.8,562.5,530.3z"
		/>
	<path class="st36" d="M529,449.6c0.3,0,0.6-0.5,1-0.2c-0.3,0.3-0.7,0.6-1.2,0.8C528.6,449.9,528.8,449.8,529,449.6z"/>
	<path class="st37" d="M564.5,500.7c0.2-0.4,0.7-0.5,1-0.8C565.6,500.8,565,500.6,564.5,500.7z"/>
	<path class="st38" d="M501.8,530.5c0.3,0,0.4-0.3,0.6-0.4c-0.2,0.8-0.6,1.1-1.2,0.4C501.3,530.3,501.6,530.3,501.8,530.5
		C501.7,530.5,501.7,530.5,501.8,530.5z"/>
	<path class="st39" d="M543.1,476.4c0,0,0-0.1,0-0.1h2v0.1H543.1z"/>
	<path class="st30" d="M524.2,478.5l0.2-0.2l1,0.5C524.8,479.2,524.5,478.6,524.2,478.5z"/>
	<path class="st40" d="M563.7,528.7l0.3,0.4c0,0.2,0,0.3-0.2,0.2h-0.3c-0.1,0.1-0.1,0.2-0.2,0.2h-0.2
		C562.8,528.8,563.5,529.1,563.7,528.7z"/>
	<path class="st11" d="M546.2,445.1l-0.8,0.2c-0.2,0-0.3,0-0.4-0.2c0.4-0.2,0.9-0.3,1.4-0.4L546.2,445.1z"/>
	<path class="st41" d="M511.7,477.4l-0.9-0.2c-0.1-0.3-0.4-0.1-0.5-0.3C510.9,476.9,511.4,476.7,511.7,477.4z"/>
	<path class="st42" d="M568.9,514.8c0,0.3,0.8,0.5,0,0.8C568.9,515.3,568.3,515.1,568.9,514.8z"/>
	<path class="st43" d="M510,476.2c0.3-0.4,0.5-0.4,0.8-0.2c0,0.1,0,0.1,0,0.2C510.5,476.3,510.3,476.2,510,476.2z"/>
	<path class="st40" d="M565.7,524.5c0,0.3,0,0.6-0.4,0.6C565,524.6,565.3,524.5,565.7,524.5z"/>
	<path class="st44" d="M559.2,501.9c0-0.5,0.2-0.6,0.6-0.4c0.1-0.1,0.3-0.1,0.4,0c0.1,0.1,0.1,0.2,0,0.2
		C559.8,501.5,559.5,502.1,559.2,501.9z"/>
	<path class="st45" d="M477.5,483.1h1.6C478.6,483.2,478,483.2,477.5,483.1z"/>
	<path class="st46" d="M467,509.2c0.2,0,0.4-0.2,0.5,0c0.1,0.2,0.1,0.5-0.1,0.6C467.2,509.7,467,509.5,467,509.2z"/>
	<path class="st34" d="M468.2,511.6l-0.3,0.5c-0.2-0.6-0.2-0.9,0.5-0.7C468.4,511.5,468.3,511.6,468.2,511.6z"/>
	<path class="st44" d="M531.8,471.3c0.2,0.2,0.9,0.4,0.2,0.8C531.8,471.8,531.6,471.6,531.8,471.3z"/>
	<path class="st47" d="M541.6,476.3l0.2,0.2c-0.4,0.2-0.8,0.5-1.2,0.1c0.1-0.2,0.2-0.2,0.4-0.3S541.5,476.5,541.6,476.3z"/>
	<path class="st48" d="M469.4,477.4c0.8-0.1,0.5,0.5,0.5,0.8C469.7,478,469.5,477.7,469.4,477.4z"/>
	<path class="st49" d="M566.8,499.2c0,0.4-0.3,0.5-0.6,0.9C566.2,499.5,566.5,499.5,566.8,499.2z"/>
	<path class="st50" d="M563.3,501.3l-0.5-0.4c0.3,0.1,0.6-0.3,0.9,0C563.7,501.2,563.5,501.3,563.3,501.3z"/>
	<path class="st51" d="M556.3,528c-0.1,0-0.2-0.2-0.2-0.3c0-0.2,0.1-0.3,0.3-0.3s0.1,0.2,0.1,0.3S556.5,528.1,556.3,528z"/>
	<path class="st52" d="M517.9,477.4c-0.4,0.1-0.6,0.1-0.8-0.2C517.5,477,517.7,477.2,517.9,477.4z"/>
	<path class="st53" d="M519.5,477.2c0.4-0.2,0.5,0,0.9,0.1C520.1,477.5,519.7,477.5,519.5,477.2z"/>
	<path class="st54" d="M528,479c-0.1,0-0.2,0.1-0.3,0.1c-0.1,0-0.3,0-0.2-0.2s0.2-0.2,0.3-0.1C527.9,478.7,528,478.9,528,479z"/>
	<path class="st55" d="M518.2,480.3c-0.4,0.3-0.6,0.1-0.8-0.2C517.7,479.9,518.1,480,518.2,480.3z"/>
	<path class="st56" d="M468.2,511.6l0.2-0.2c0.2,0.1,0.4,0.3,0.2,0.5C468.3,512.1,468.3,511.8,468.2,511.6z"/>
	<path class="st57" d="M560.2,501.7c0-0.1,0-0.1,0-0.2c0.1-0.2,0.3-0.2,0.4-0.2c0.2-0.1,0.4-0.1,0.3,0.2
		C560.7,501.6,560.4,501.7,560.2,501.7z"/>
	<path class="st58" d="M571.5,508.4c0.1,0,0.3,0.1,0.2,0.1s-0.4,0.3-0.6,0.5C571.1,508.7,571.1,508.5,571.5,508.4z"/>
	<path class="st59" d="M549.4,459.8l-0.2-0.2l-0.1-0.4c0.1,0,0.2,0,0.3,0S549.7,459.6,549.4,459.8z"/>
	<path class="st60" d="M573.9,477.9c0.1,0.2,0.3,0.5,0.2,0.8C573.8,478.4,573.5,478.2,573.9,477.9z"/>
	<path class="st61" d="M541.1,476.5l-0.4,0.2l-0.4,0.2c0-0.2-0.1-0.5,0.2-0.6C540.7,476.4,541,476.2,541.1,476.5z"/>
	<path class="st62" d="M501.8,530.5h-0.6c-0.2,0-0.3-0.1-0.4-0.2c0.2-0.2,0.5,0,0.8-0.2h0.2C501.8,530.2,501.8,530.4,501.8,530.5z"
		/>
	<path class="st20" d="M501.5,530.1c-0.2,0.3-0.5,0.1-0.8,0.2c-0.1,0-0.3,0-0.4-0.2H501.5z"/>
	<path class="st63" d="M534.1,475.5l0.4,0.4c-0.1,0.1-0.3,0.2-0.4,0.1c0,0,0,0,0,0C533.9,475.8,534.1,475.6,534.1,475.5z"/>
	<path class="st64" d="M507.6,476.6c-0.2,0-0.3,0-0.5,0c-0.1,0-0.2-0.1-0.1-0.2c0.1-0.1,0.2-0.1,0.2-0.1
		C507.4,476.4,507.5,476.5,507.6,476.6z"/>
	<path class="st65" d="M571.1,509.2c-0.1,0.2-0.1,0.4-0.2,0.6C570.5,509.5,570.7,509.3,571.1,509.2z"/>
	<path class="st66" d="M514.1,477.6l-0.5-0.3c0.2-0.2,0.5-0.1,0.7,0.1C514.3,477.5,514.2,477.6,514.1,477.6z"/>
	<path class="st67" d="M553.4,531.3v0.4c-0.4,0.1-0.4-0.3-0.3-0.5S553.3,531.2,553.4,531.3z"/>
	<path class="st68" d="M557.4,462.7c0.4,0.2,0.1,0.4,0,0.6C557.1,463.1,557.1,463,557.4,462.7z"/>
	<path class="st69" d="M556.6,460.1l0.4,0.6c-0.3,0-0.5-0.1-0.5-0.4L556.6,460.1z"/>
	<path class="st70" d="M526.8,481.4c-0.3,0-0.6,0-0.8-0.2l0.2-0.2l0.6,0.2C526.8,481.2,526.9,481.3,526.8,481.4
		C526.8,481.4,526.8,481.4,526.8,481.4z"/>
	<path class="st5" d="M514.1,477.6l0.2-0.2h0.4c0,0.1,0,0.1,0,0.2C514.5,477.7,514.3,477.9,514.1,477.6z"/>
	<path class="st71" d="M556.8,452.6c-0.4-0.2-0.6-0.6-0.7-1c0.3-0.2,0.3,0.5,0.6,0.2C556.9,452,556.8,452.4,556.8,452.6z"/>
	<path class="st72" d="M574.5,473.3c0-0.2-0.7-0.2-0.2-0.6C574.5,472.8,574.8,473,574.5,473.3z"/>
	<path class="st73" d="M525.6,442.9l-0.2-0.6c0.2,0.1,0.4,0.2,0.5,0.5S525.7,442.9,525.6,442.9z"/>
	<path class="st15" d="M575.4,504.3c-0.1,0-0.4,0-0.3-0.1c0.4-0.9-0.1-2.2,1.1-2.9c0,0,0-0.1,0-0.1c0.3,0.4,0.3,0.4,0,1.4
		c0,0.3,0.1,0.6-0.2,0.8s0,0.5-0.2,0.7S575.6,504.4,575.4,504.3z"/>
	<path class="st74" d="M562.3,541.8c0-1-0.7-0.6-1.1-0.5s-0.3,0-0.2-0.3c0.2-0.2,0.4-0.2,0.6,0c0,0,0,0,0,0c0.1,0,0.2,0,0.3-0.1
		c0.3-0.1,0.7-0.1,0.9,0.1c0.3,0.3-0.3,0.4-0.2,0.7C562.5,541.9,562.4,541.9,562.3,541.8C562.3,541.8,562.3,541.8,562.3,541.8z"/>
	<path class="st75" d="M571.3,521.4c-0.2-0.3-0.3-0.7-0.2-1.1c0.2,0.1,0.6,0,0.7,0.2C572,520.9,571.6,521.1,571.3,521.4z"/>
	<path class="st76" d="M575.7,508.1l0.2-1.6c0.2,0.8,0.2,1.6,0,2.4C575.6,508.6,575.9,508.3,575.7,508.1z"/>
	<path class="st77" d="M570.1,519.4c0.3-0.4,0.8-0.1,1.2-0.2c-0.2,0.5-0.4,1.1-0.4,1.6C570.2,520.4,571.5,519.2,570.1,519.4z"/>
	<path class="st78" d="M573,516.1c-0.2-0.5-0.1-1.1,0.3-1.5C573.1,515.2,573.6,515.6,573,516.1z"/>
	<path class="st79" d="M576.2,502.7c-0.2-0.5,0.3-1,0-1.4v-0.4c0.5,0.4,0.6,1.2,0.2,1.7C576.4,502.6,576.3,502.6,576.2,502.7z"/>
	<path class="st80" d="M561.6,541H561c0-0.3-0.4-0.7,0.1-0.7S561.8,540.5,561.6,541z"/>
	<path class="st81" d="M575.4,504.3l0.4-0.2c0.2,0.1,0.1,0.3,0.2,0.4s0.3,0.4,0,0.6C575.8,504.9,575.3,504.8,575.4,504.3z"/>
	<path class="st82" d="M575.1,507.5c0.1-0.4,0.1-0.8,0.2-1.2c0-0.2,0-0.3,0.2-0.2c0.2,0.5,0.1,1-0.2,1.4
		C575.2,507.5,575.1,507.5,575.1,507.5z"/>
	<path class="st75" d="M566.8,529.8c-0.4-0.6,0-0.9,0.3-1.3C567.1,528.9,567,529.4,566.8,529.8z"/>
	<path class="st83" d="M562.7,540.4c0-0.4-0.1-0.8,0.4-1c0.2,0.5-0.3,0.8-0.2,1.3C562.7,540.8,562.8,540.5,562.7,540.4z"/>
	<path class="st84" d="M570.2,522.9c-0.2-0.5,0.1-0.7,0.3-1.1C570.8,522.3,570.5,522.6,570.2,522.9z"/>
	<path class="st85" d="M574.7,510.2c-0.3-0.4-0.2-0.7,0.1-1.1C574.9,509.5,574.9,509.9,574.7,510.2z"/>
	<path class="st86" d="M563.1,539c-0.2-0.1-0.5-0.1-0.5-0.5c0-0.1,0.2-0.2,0.3-0.2c0.3,0,0.2,0.3,0.2,0.5
		C563.1,538.9,563.1,538.9,563.1,539z"/>
	<path class="st87" d="M565.9,530.3c0-0.3-0.2-0.7,0.2-1c-0.1,0.4,0.1,0.7,0.6,0.9L565.9,530.3z"/>
	<path class="st36" d="M562.3,541.8h0.2c-0.1,0.5-0.1,0.5-0.8,0C562,541.6,562.1,541.9,562.3,541.8z"/>
	<path class="st88" d="M574.2,511.7v0.8c-0.4,0-0.3-0.2-0.3-0.4C573.9,511.9,574,511.8,574.2,511.7z"/>
	<path class="st78" d="M573,514.4c-0.2-0.3-0.1-0.7,0.2-0.8C573.3,513.8,573.4,514.1,573,514.4z"/>
	<path class="st25" d="M575.1,507.5h0.2c0,0.4,0.1,0.8-0.5,1L575.1,507.5z"/>
	<path class="st89" d="M575.5,506l-0.2,0.2h-0.2c0-0.2-0.5-0.2-0.3-0.5s0.5,0.1,0.7,0.1V506z"/>
	<path class="st90" d="M562.2,544.8c0.1,0.1,0.2,0.2,0.2,0.2c0,0.2-0.1,0.3-0.2,0.4c-0.1,0.1-0.2,0-0.2-0.2
		C562.1,545.2,562.1,545,562.2,544.8z"/>
	<path class="st91" d="M563.1,543.2c-0.3,0.2-0.5,0.3-0.9,0.1C562.5,543.2,562.7,543,563.1,543.2z"/>
	<path class="st92" d="M561.8,539.6l0.4,0.2c0,0.2,0,0.5-0.2,0.5S561.8,539.8,561.8,539.6z"/>
	<path class="st93" d="M562.1,535c-0.1,0.1-0.1,0.3-0.2,0.4s-0.4,0.2-0.4,0C561.5,535.1,561.9,535.2,562.1,535z"/>
	<path class="st88" d="M567.5,526.3l0.4-0.4c0.3,0.2,0.2,0.5,0,0.6S567.6,526.4,567.5,526.3z"/>
	<path class="st94" d="M561.4,546.8c0-0.1-0.1-0.2-0.1-0.3c0-0.1,0.1-0.2,0.2-0.2c0.1,0.1,0.1,0.2,0.1,0.2
		C561.7,546.7,561.6,546.8,561.4,546.8C561.5,546.8,561.4,546.8,561.4,546.8z"/>
	<path class="st95" d="M575.7,508.1c0.3,0.2,0.1,0.5,0.2,0.8c-0.2,0.2-0.4,0.3-0.4-0.1C575.5,508.5,575.6,508.3,575.7,508.1z"/>
	<path class="st34" d="M562,537.6l-0.4-0.2c0.1-0.2,0.1-0.5,0.3-0.5S561.9,537.4,562,537.6z"/>
	<path class="st96" d="M563.5,532.3c0.2,0.1,0.5,0,0.5,0.3s-0.3,0.2-0.5,0.2V532.3z"/>
	<path class="st97" d="M577,496.7l0.2,0.2c0,0.2,0,0.5-0.3,0.5S576.8,496.9,577,496.7z"/>
	<path class="st98" d="M576.7,500.2c0.2,0.2,0.3,0.5,0.2,0.8C576.6,500.8,576.6,500.5,576.7,500.2z"/>
	<path class="st84" d="M567.4,528c-0.1-0.3-0.1-0.4,0.1-0.5C567.8,527.7,567.4,527.8,567.4,528z"/>
	<path class="st99" d="M562.5,532.5l-0.4,0.2c-0.1-0.1-0.2-0.2-0.1-0.3S562.4,532.3,562.5,532.5z"/>
	<path class="st100" d="M570.6,523c0,0.3-0.1,0.5-0.3,0.6C570.2,523.3,570.3,523.2,570.6,523z"/>
	<path class="st101" d="M576,504.5c-0.2-0.1-0.2-0.2-0.2-0.4s0-0.5,0.2-0.6V504.5z"/>
	<path class="st102" d="M574.7,512.2v-0.9C574.9,511.6,574.9,511.8,574.7,512.2z"/>
	<path class="st90" d="M461.7,535.5c0.3,0.3,0.3,0.6,0,0.8C461.6,536.1,461.6,535.8,461.7,535.5z"/>
	<path class="st103" d="M456.4,474.8c-0.1,0.2-0.1,0.4-0.2,0.7c-0.3-0.4-0.4-0.8-0.2-1.3C456.4,474.3,456.1,474.7,456.4,474.8z"/>
	<path class="st69" d="M465.4,455.2l0.2,0.5l-0.6,0.1C465,455.4,465.2,455.3,465.4,455.2z"/>
	<path class="st75" d="M503.8,439.3c-0.2,0.2-0.2,0.4,0.2,0.4c0.1,0.2,0.6-0.2,0.6,0.4c-0.4,0.1-0.9,0.1-1.3,0.3
		c-0.3,0.1-0.6,0-0.8-0.2C502.7,439.7,503,439.1,503.8,439.3z"/>
	<path class="st91" d="M459.3,473.1c0.2,0.7,0.1,1.4-0.2,2c0-0.4,0.2-0.8-0.1-1.1c-0.3-0.1-0.4-0.4-0.6-0.6
		c-0.1-0.5,0.1-0.7,0.5-0.4c0.1,0,0.2,0.1,0.2,0.1C459.1,473.1,459.2,473.2,459.3,473.1z"/>
	<path class="st104" d="M563.1,529.5l0.2-0.2c0.3,0.7,1.3,0.8,1.6,1.9C564.2,530.8,563.6,530.2,563.1,529.5z"/>
	<path class="st91" d="M562.3,531.1l0.2-0.5c0.2-0.1,0.1-0.5,0.4-0.5s0.5,0.4,0.6,0.9C563.1,530.9,562.7,530.9,562.3,531.1z"/>
	<path class="st13" d="M458.3,473.3c0.4,0,0.5,0.3,0.6,0.6s-0.4,0.2-0.5,0.5C458.2,474,458.2,473.6,458.3,473.3z"/>
	<path class="st105" d="M535.3,446.6c-0.4,0.2-0.6,0.9-1.2,0.4C534.5,446.8,534.8,446.3,535.3,446.6z"/>
	<path class="st106" d="M525.6,444c-0.1-0.1-0.1-0.3-0.1-0.4c0.4,0.2,1.1,0.2,0.9,1c-0.2,0.1-0.3,0-0.4-0.2L525.6,444L525.6,444z"/>
	<path class="st107" d="M530.7,448.6l0.8-0.5c0.2,0.2,0.5,0.1,0.8,0.2c-0.4,0.3-1,0.2-1.4,0.6C530.9,448.8,530.8,448.8,530.7,448.6z
		"/>
	<path class="st69" d="M575.8,485.2c-0.2-0.5-0.2-1.1-0.2-1.6c0.1,0,0.1,0,0.2,0c0.1,0.1,0,0.3,0.1,0.4v0.4
		C575.8,484.6,575.9,485,575.8,485.2z"/>
	<path class="st108" d="M459.4,471.9c0,0.2,0,0.5-0.2,0.6c-0.1,0-0.1,0-0.2,0c-0.1-0.1,0-0.3-0.2-0.4
		C458.8,471.5,459.2,471.8,459.4,471.9z"/>
	<path class="st109" d="M567.4,522.1c0.2,0.2,0.5,0.2,0.6,0.5c0,0-0.2,0.2-0.3,0.1C567.3,522.7,567.3,522.4,567.4,522.1z"/>
	<path class="st110" d="M572.5,505.3c0.2-0.2,0.4-0.4,0.7-0.2c0.1,0,0.1,0.2,0.1,0.2C573,505.5,572.7,505.4,572.5,505.3z"/>
	<path class="st111" d="M526,444.4l0.4,0.2c0,0.2,0,0.4-0.3,0.3S525.7,444.7,526,444.4z"/>
	<path class="st112" d="M576.5,489.4l-0.4,0.2c0-0.3,0-0.5,0.1-0.8C576.4,488.8,576.4,489.1,576.5,489.4z"/>
	<path class="st113" d="M490.2,449.6v-0.2c0.3-0.1,0.4-0.4,0.8-0.4C490.9,449.4,490.6,449.6,490.2,449.6z"/>
	<path class="st114" d="M563.7,529.3l0.2-0.2c0.2,0.1,0.4,0.3,0.3,0.4S563.9,529.5,563.7,529.3z"/>
	<path class="st115" d="M458.9,472.1c0.1,0.1,0.1,0.3,0.2,0.4s0.1,0.4,0,0.6l-0.2-0.2C458.8,472.6,458.9,472.4,458.9,472.1z"/>
	<path class="st116" d="M564.8,527c0.2-0.1,0.4-0.1,0.5,0.1c0,0,0,0.1,0.1,0.1C565.1,527.4,565,527.1,564.8,527z"/>
	<path class="st106" d="M524.6,444.3c0.2-0.2,0.4-0.2,0.6-0.2h0.3l0,0.1C525.3,444.4,524.9,444.2,524.6,444.3z"/>
	<path class="st117" d="M539.7,495.7c0,0.3-0.1,0.7,0.2,0.9c0.6,0.5,0.8,1.5,1.8,1.3c1.1,0.8,2.1,1.7,2.9,2.8c0.4,0.6,1,1.1,1.6,1.6
		c0.5,0.3,0.2,0.7,0.4,1c0.5,1,0.8,2.2,0.8,3.3c-0.4-0.1-0.1-0.5-0.3-0.6c-0.2,0.1,0,0.4-0.1,0.6c-0.5,0.1-0.1-0.5-0.4-0.6
		c-0.1-0.1-0.1-0.2-0.2-0.3c0,0.1,0.1,0.2,0.2,0.3c0.1,0.2,0,0.5,0.2,0.8c0.3,1.3,0.8,2.5,1.5,3.7c0.5,1.3,1.8,1.6,2.2,2.8
		s1.2,2.2,1.6,3.3c0.1,0.2,0.8,0.5,0.2,0.9s-1.2,0.1-1.2-0.2c-0.2-0.7-0.7-0.5-1.1-0.7c-0.9-0.2-0.5-0.6-0.1-1
		c0.4,0,0.4-0.2,0.2-0.4s-0.4-0.4-0.7-0.6s-0.6-0.8-0.9,0.1c-0.2,0.3-0.5,0.4-0.8,0.2c0,0,0,0,0,0c-0.2-0.1-0.6-0.1-0.4-0.6
		c0.1-0.2-0.1-0.8-0.6-0.2c-0.2,0.2-0.4,0.1-0.7,0.1c-0.1-0.1-0.2-0.1-0.2,0c-0.1,0.1,0,0.2,0,0.2c0.6,0.3,0.7,1.1,1.4,1.4
		c0.4,0.3,1,0.2,1.2,0.8c0.4,0.4,0.9,0.7,1.3,0.9c1.2,0.8,2,2,2.2,3.4c0.2,1.1,0.6,2-0.6,2.6c0.1,1-0.3,1.6-1.3,1.7
		c-0.1,0-0.1,0.1-0.1,0.1c-0.5,1.5-1.7,2.6-3.2,3.1c-0.2,0.1-0.3,0.2-0.4,0.3c-1.2,1.7-3.1,1.2-4.8,1.5c-0.5,0.1-1,0.3-1.5,0.5
		c-0.8,0.5-1.7,0.6-2.7,0.5c-0.1,0.1-0.1,0.1-0.2,0.1c-0.2-0.1-0.3-0.2-0.2-0.5c1.5,0,2.5-1,3.4-2c1-1.1,0.9-2.7-0.2-3.7
		c-0.1-0.1-0.3-0.2-0.5-0.3c-0.7-0.5-0.6-0.8-0.2-1.3c0.8-0.8,1.5-1.7,2.1-2.6c0.6-0.8,0.7-1.8,0.2-2.7c-0.1-0.3-0.2-0.7-0.3-1
		c-0.7-0.4,0.2-0.8,0-1.2c-0.4-0.8-0.7-1.7-0.9-2.6c-0.4-0.9-1.1-1.5-2-1.7c0.1-0.6-0.3,0-0.4-0.2l0,0c-0.1,0-0.3-0.1-0.3-0.2
		c-0.5-1.3-1.5-2.4-1.8-3.7l-2.7-4.7c-0.1-0.2-0.3-0.3-0.2-0.6c0.6-1.4,0.4-2.9-0.5-4.1c0-0.1-0.1-0.1-0.1-0.2
		c-0.1-0.3-0.4-0.5-0.2-0.8s0.5,0,0.8,0.1s0.2,0.1,0.4,0c-0.2-0.5-0.7-0.5-1-0.7c-0.1-0.1-0.7-0.2-0.1-0.5c0.6,0.1,1.2,0.3,1.7,0.7
		c-0.4-0.5-1.1-0.5-1.5-0.9c-0.3-0.1-0.7-0.1-0.8-0.5c-0.1-1.9-1.5-3-2.5-4.3c0-0.1-0.1-0.1-0.1-0.2c0.2-0.2,0.4,0,0.5,0.1
		s0.1,0.1,0.1,0.1c0,0-0.1-0.1-0.1-0.1c-0.2-0.2-0.5-0.2-0.7-0.4c-0.8-0.7-1.8-0.5-2.9-0.6c0.4-0.5,0.9-1,1.5-1.2
		c0.3-0.2,1.2-0.3,0.3-0.9c-0.3-0.2-0.1-0.5,0.1-0.5s0.4-0.6,0.7-0.1s0.6,0.5,1,0.1s0.7-0.5,1-0.2c0.3,0.3,0.4,0.8,0.2,1.2
		c-0.5,1.3-0.4,2.8,0.3,4.1c0.6,1.1,1.9,1.6,3.1,1.2c0.3-0.1,1-0.5,1-0.4c0,0.6,0.5,1.1,0.3,1.8c-0.2,0.5-0.3,0.9-0.5,1.4
		s-0.1,0.6,0.5,0.5c0.9-0.3,1.8-0.5,2.8-0.7c0.4-0.1,0.4-0.2,0.3-0.5c-0.2-0.6,0.1-0.6,0.5-0.4C539.5,495.3,539.6,495.5,539.7,495.7
		z"/>
	<path class="st117" d="M497.6,525.7c-1.2-0.3-2.5-0.3-3.7,0.2h2.7c-0.2,0.5-0.8,0.7-1.3,0.6c-0.7,0.1-1.3,0.1-2,0
		c-0.7-0.2-0.2-0.5-0.1-0.8c-1,0.1-1.8-0.5-2.8-0.4s-1.8-0.5-2.8-0.8c0,0.4,0.4,0.7,0.3,1.1c-0.6,0.2-1-0.2-1.5-0.4s-0.6-0.5-1-0.4
		c-1.2-0.3-2.4,0.3-3.6,0c-0.3-0.1-0.7,0-1,0.3c-0.6,0.5-1.2,1-2.1,0.5c-0.2-0.2-0.4-0.2-0.6-0.3c-2.3-1.6-4.1-3.7-5.5-6.1
		c-0.4-1.1-0.6-2.3-0.6-3.5c0.1-0.8,0.1-1.5,0.1-2.3c0.1-1.2,0.3-2.4,0.4-3.5c0-0.3,0.2-0.7,0.5-0.8c1.8-0.6,3.1-2,4.7-3.3
		c-0.1,0.9-0.3,1.8-0.8,2.6c-0.8,1.8,0.4,5.3,2.2,6.3s3.1,0,4.3-1.1c0.7-0.7,1.9-0.6,2.4-1.5c0.2-0.3,0.4,0.1,0.5,0.2
		c1,0.7,2.3,0.8,3.4,0.2c0.9-0.3,1.8-0.5,2.8-0.5c0.5-0.1,0.2,0.4,0.2,0.6c-0.1,1.2-0.4,2.5,0.3,3.7c1.3,2.5,2,2.4,4.4,2
		c0.2,0,0.4-0.1,0.6-0.2c0.9-0.6,1.8-0.9,2.7,0c0.4,0.4,1.1,0.2,1.8,0.4c-0.6,0.4-1,0.9-1.3,1.5h0.6c0,0.1,0,0.2,0,0.2
		c-0.9,0.3-0.7,1-0.4,1.6c0.2,0,0.5,0.1,0.4,0.3c-0.2,0.4-0.6,0.2-1,0.2c0,0.3,0.2,0.6,0.5,0.7c0.1,0,0.1,0.1,0.1,0.1s0,0.1-0.1,0.1
		c-0.4,0.4,0.5,0.6,0.2,1l-0.1,0.1c-0.5,0-0.9-0.1-1.3-0.4c-0.1-0.1-0.1-0.1-0.2-0.2s0.1,0.1,0.1,0.1c0.2,0.3,0.5,0.3,0.7,0.6
		c0.1,1-0.8,0.8-1.3,1.1c-0.4,0-0.8-0.2-1.3,0c-0.7-0.3-1.3-0.9-1.7-1.5C496.6,524.8,497.5,525,497.6,525.7z"/>
	<path class="st117" d="M508.9,528.1c-0.1-0.9,0-1.7,0.2-2.5c0.2-0.6,0-1.2,0.1-1.8c0.1-0.4-1.1-0.6-1.6-0.2
		c-0.5,0.3-0.9,0.8-0.9,1.5c0,0.8-0.1,1.6-0.2,2.3c-1.3,0-2.5-0.1-3.8-0.3l-0.3-0.1c-0.1-0.1-0.2-0.2-0.1-0.3
		c0.5-0.3,0.4-0.8,0.4-1.3c0-0.1,0.1-0.3,0.2-0.3c0.1-0.2,0.2-0.5,0.3-0.7c0-0.5,0-0.7,0.6-0.6c0.4,0.1,0.5-0.2,0.4-0.6
		s0.2-0.4,0.5-0.5c0.2-0.3,0.6-0.2,0.7-0.3c-0.2,0.1-0.5,0-0.9,0.1s-0.8,0-0.5-0.6c0.1-0.3,0.1-0.6,0.1-0.8c-0.1-1,0.7-2,1.7-2.1
		c0,0,0,0,0,0c0.3,0,0.6-0.4,0.9,0c-0.1,0.2,0,0.4-0.2,0.5c0.2,0,0.3-0.2,0.5-0.2c0.1,0,0.3,0.1,0.3,0.2c0.1,0.1,0.1,0.2,0.2,0.4
		c0.2,0.4,0.5,0.6,0.9,0.4c0.3-0.2,0.7-0.2,1-0.1c0.1,0.1,0.1,0.3,0.1,0.4c-0.4,0.4-0.8,0.8-1.1,1.2c0.4-0.3,0.9-0.2,1.5-0.2
		c-0.4-0.1-0.8,0.1-0.8-0.2c0-0.5,0.6-0.5,0.9-0.8c0.3-0.5,0.1-0.8-0.3-1c-0.2-0.1-0.3-0.3-0.4-0.5c-0.1-0.1-0.1-0.2-0.1-0.3
		c-0.4-0.5-0.2-1,0.1-1.3s0.5-0.4,0.7,0.2c0.6,1.9,1.8,2.9,4,3.5c0-0.3-0.4-0.2-0.4-0.5c1-0.4,1.8,0.2,2.6,0.5
		c-0.1,0.4-0.4-0.1-0.5,0.3c0.9,0.2,0.8,0.7,0.5,1.3c-0.5,1-0.5,2.1-0.2,3.1c0.6,1.7,1.9,2.5,3.6,1.9c1.4-0.5,2.7-1.2,4-2.1
		c1-0.6,1.7-1.5,2.2-2.6c0.1-0.3,0.3-0.7,0.7-0.7s0.4,0.5,0.6,0.7c0.4,0.6,0.3,1-0.3,1.5c-1.3,0.9-1.6,2.6-0.7,3.9
		c0.1,0.1,0.1,0.2,0.2,0.3c0.5,0.6,0.2,1.1,0,1.7s-0.6,0.3-1,0.3c-0.3,0-0.5,0.1-0.7,0.3c-0.8,0.9-2.2,1.1-3.2,0.4
		c-0.9-0.3-1.8-0.4-2.7-0.5c-0.8-0.1-1.7-0.2-2.5-0.2c-0.4,0-0.6-0.5-1.1-0.4c-0.2,0-0.4,0-0.6-0.1c-0.5-0.2-1.2,0-1.6-0.7l0,0
		c-0.3-0.2-0.6-0.1-0.9-0.3c-0.3-0.1-0.5-0.1-0.8-0.1C510.1,528.8,509.5,528.5,508.9,528.1z"/>
	<path class="st117" d="M491,488.6c1.6-1.3,3.3-2.4,5.1-3.4c1.3-0.9,3-1.1,4.5-1.6c0.5-0.2,1.2,0.2,1.8,0.1c0.8-0.1,1.5-0.4,2.1-1
		c0.4-0.6,1.2-0.7,1.7-0.3c0,0,0,0,0.1,0c0.9,0.6,2,0.1,3,0c0.3-0.3,0.7-0.1,1.1-0.2c-0.3-0.1-0.8,0.2-0.9-0.4
		c1.1-0.4,2.4-0.2,3.4,0.4c0,0,0.1,0.1,0,0.1s0,0.1,0,0.1l-0.6,0.5c1-0.1,2-0.1,3,0c0.8,0,1.3,0.5,2,0.8c0.1,0.3,0.6,0.5,0.3,1
		s-0.6,0.1-1,0c-1.5-0.4-3.1-0.5-4.6-0.3c-1.2,0.1-2.4,0.2-3.5,0.4c-0.5,0-0.9,0-1,0.6s-0.5,0.4-0.8,0.4c-0.4,0-0.7,0.1-1,0.4
		c-1.1,0.9-1.2,0.9,0.3,1.7c-1.2-0.1-2.4-0.1-3.5,0c-1.5,0-3,0.5-4.2,1.5c-1.1,0.9-2.5,1.4-4,1.5c-1.5,0.1-2.9,0.5-4.2,1.2
		C489.8,490.6,490.2,489.4,491,488.6z"/>
	<path class="st117" d="M507.9,514.8c0.1-0.5,0.1-0.9,0.2-1.4c0-0.1,0-0.3,0.1-0.4c-0.2,0-0.2,0.2-0.2,0.2s-0.1,0.4-0.2,0.5
		c-0.1,0.4-0.1,0.8-0.6,0.8s-0.6-0.3-0.7-0.6c-0.3-0.8,0.6-0.4,0.8-0.9c-0.3-0.2-0.6-0.5-0.1-0.9c2.7-2.8,4.6-6.1,6.7-9.2
		c0.8-0.9,2.1-1.1,3.2-0.7c0.4,0.2,0.1,0.6,0.3,0.9c0.7,0.7,0.6,1.7,0.8,2.6c0.3,0.8,0.1,1.8-0.5,2.5c-0.7,1.4-1.8,2.4-3.2,3
		c-1.5,0.6-2.7,1.5-3.7,2.7c-0.6,0.7-1.4,1.2-2.3,1.4C507.9,515.3,507.8,515.2,507.9,514.8z"/>
	<path class="st117" d="M533.1,506.5c0.7,1.7,1.6,3.4,2.7,5c-0.6,0-1.3-0.1-1.9-0.2c-1.9,0.1-3.8-0.1-5.5,1c-0.5,0.2-1,0.4-1.6,0.5
		c-0.3,0.1-0.6,0-0.7-0.2c-0.8-1.2-2-2.1-3.3-2.5c2-0.5,3.9-1.4,5.5-2.8c0.4-0.3,0.9-0.4,1.4-0.5c1.2-0.3,1.6-1.5,2.7-1.9
		c0.1,0-0.2-0.3,0-0.4c0.5,0.3,0.8,0.9,0.8,1.5C533.2,506,533,506.2,533.1,506.5z"/>
	<path class="st117" d="M523.6,489.8l1.1,0.6c-0.4,0.5-1.1,0.2-1.6,0.5c0.4,0.5,0.9-0.2,1.2,0.2c-0.3,0.4-0.8,0.7-1.4,0.8
		c-1.9,0.3-3.5,1.4-4.5,3.1c-0.2,0.4-0.6,0.6-1,0.4c-0.1,0-0.1-0.1-0.2-0.1c-0.6-0.3-0.2-0.7-0.1-1.1c0.7-1.5,0.9-3.2,0.6-4.9
		c-0.3-1.3-1.4-2.3-2.7-2.4c-0.1,0-0.1-0.1-0.1-0.1s0-0.1,0.1-0.1c1.1,0,2.1,0.4,3.1,1c0.3,0.2,0.8,0.8,1.2-0.1
		c0.1-0.3,1,0.1,1.5,0.2c0.2,0,0.3,0.1,0.5,0.2c0.2,0,0.4,0.1,0.7,0c-0.3-0.3-0.7-0.5-1.1-0.6c-0.8-0.6-0.4-1.5-0.3-2.2
		c0-0.3,0.5-0.5,0.7-0.3s1.2,0.3,0.9,0.8c-0.4,0.8,0.2,1,0.5,1.4c0.5,0.5,1,1,1,1.9c0.1,0.2,0,0.3-0.1,0.4
		C523.2,489.6,523.6,489.6,523.6,489.8z"/>
	<path class="st4" d="M472.9,509.2c-0.2,1.5-0.4,2.9-0.6,4.4c-0.2,0.3,0.1,0.7-0.3,0.9s-0.5-0.1-0.7-0.3c-0.2-0.2-0.3-0.4-0.4-0.6
		l0,0c-0.2-0.3,0-0.7-0.2-1s-0.2-0.8-0.3-1.2c-0.1-1-0.8-1.9-1.7-2.3c-0.3-0.2-0.3-0.6-0.6-0.8c-0.6-0.3-0.1-1.1-0.6-1.4
		c-0.1-0.1-0.1-0.3,0-0.4c0,0,0,0,0,0c0.4-0.4,0.9-0.7,1.4-1c0.1-0.1,0.2,0,0.3,0.1s0.1,0.2,0.1,0.1c0-0.2,0-0.4,0-0.6
		c0-0.1,0-0.2,0-0.4c1.4-1.4,2.4-3.4,4.6-4c0.2,0.2,0.3,0.5,0.2,0.7c-0.1,1.2-0.3,2.4-0.6,3.5c-0.2,0.3-0.5,0.5-0.8,0.5
		c-0.5,0.3-0.8,0.9-1.2,1.3s-0.2,0.6,0.1,0.9C472.1,508.1,472.5,508.7,472.9,509.2z"/>
	<path class="st117" d="M515.3,514c0.3,0,0.4-0.2,0.7-0.3c0.4-0.1,0.1,0.2,0.1,0.3c-0.1,0.3-0.3,0.6-0.5,0.8
		c0.2-0.3,0.4-0.6,0.7-0.8c0.5-0.1,1-0.3,1.4-0.6c0.3-0.2,0.7-0.3,1.1-0.2c0.6,0.1,1.2,0.2,1.7,0.1c0.3,0,0.9-0.4,1.1,0.2
		s0.4,1.2,0,1.7c-1.3,1.2-2.4,2.6-3.4,4c-0.2,0.2-0.5,0.4-0.9,0.5c-0.6,0.2-0.6-0.1-0.4-0.5c-0.5,0.2-0.8-0.4-1.3-0.4
		c-1-0.1-1.9-0.5-2.6-1.2l0,0c0.4-0.7,0.2-1.7,0.9-2.3c0.3-0.3,0.5-0.6,0.7-1C514.9,514.2,515.1,514.1,515.3,514z"/>
	<path class="st117" d="M534.2,515.8c-0.2-0.5-0.7-0.4-0.7-0.9c1.1-0.2,2.1,0.3,2.6,1.3c0.2,0.4,0,0.9-0.4,1.1c0,0-0.1,0-0.1,0
		c-2.6,0.7-4.9,2-6.8,3.9c-0.1,0.1-0.3,0.3-0.4,0.4s-0.1,0-0.4,0.1c0.4-1.1,0-2.1,1-3.1c0.7-0.7,1.2-1.7,1.8-2.4
		c0.6-0.9,1.8-1.2,2.7-0.7c0,0,0,0,0,0C533.8,515.6,534,515.7,534.2,515.8z"/>
	<path class="st118" d="M506.9,503.1c-0.8,0.3-1.4,0.9-1.7,1.6c-0.1,0.1-0.1,0.4-0.3,0.4c-0.9,0.2-1.3,1.2-2,1.6
		c-1.1,0.7-2,1.5-2.9,2.5c-0.6,0.5-1.3,0.9-2.1,1.2c-0.4,0.1-0.8,0.2-0.9-0.2s0.5-0.7,0.7-0.6c1.4,0.3,2.1-0.8,2.9-1.5
		c1.6-1.6,3-3.2,4.4-5c1-1.2,1.3-2.6,2.2-3.9s2-1.3,3.1-1.7c0.3-0.1,0.4,0.1,0.3,0.4c-0.6,1.9-1.6,3.6-2.7,5.2
		c-0.2,0.3-0.8,0.2-0.9,0.7l0,0c0-0.1-0.7,0.2-0.2-0.3c0.1-0.1,0.2-0.3,0.2-0.5c0.8-1.1,1.6-2.3,2.2-3.5
		C508.5,500.6,508.2,502.1,506.9,503.1z"/>
	<path class="st4" d="M510.4,531.5c0.6,0,1.2-0.3,1.6,0.4c0.1,0.2,0.3,0.2,0.4,0.1c2.1-0.1,4.2,0.3,6.2,1.1
		c-0.8,0.6-1.1,1.8-2.5,1.6c-0.5,1.4-1.7,0.6-2.6,0.7c-0.3,0.1-0.6,0-0.8-0.2c-0.6-1.1-1.9-1.7-2.2-3.1
		C510.5,532,510.5,531.8,510.4,531.5z"/>
	<path class="st4" d="M546.7,503.4c-1.4-1.6-2.8-3.1-4.2-4.6c-0.2-0.2-0.5-0.5-0.7-0.8c0.4,0,1.1,0.3,0.7-0.7
		c0.1-0.4,0.2-0.9,0.2-1.3c0-0.3,0.5-0.5,0.9-0.4c1.2,0.3,2.2,1.2,2.6,2.4c0.3,1,1,2,0.4,3.2c-0.1,0.1-0.1,0.2,0,0.4
		C547.5,502.4,547.5,502.6,546.7,503.4z"/>
	<path class="st117" d="M527.5,498.9c0.2,0,0.4,0,0.4,0.2c0.5,0.8,1.2,1.6,0.6,2.7c-0.2,0.3-0.3,0.7-0.4,1c-1,2-1.8,2.2-3.7,1
		c-0.8-0.4-1.1-1.4-0.7-2.2c0.1-0.2,0.3-0.5,0.6-0.6c0.7-0.4,1.4-0.9,2-1.5C526.7,499.3,527.1,499.1,527.5,498.9z"/>
	<path class="st119" d="M473.3,505.1c0.2-1.5,0.4-2.9,0.6-4.4c0.2-0.3,0.6-0.2,0.8-0.4c1.1-0.5,2.2-0.9,3.3-1.3l2.7-1
		c0.3-0.1,0.6-0.4,1-0.1c-0.6,1.5-1.9,2.1-3.1,2.8c-1.5,0.8-2.9,1.9-4.1,3.1c-0.4,0.5-0.5,1.2-1.1,1.5
		C473.3,505.4,473.2,505.2,473.3,505.1C473.3,505.1,473.3,505.1,473.3,505.1z"/>
	<path class="st117" d="M481.5,508.8c0.6,0.5,1.4,0.8,2.2,0.8c0.3,0,0.7-0.1,0.4,0.5c-0.6,1.2-1.5,2.1-2.7,2.8
		c-0.6,0.4-1.4,0.3-1.8-0.3c-0.1-0.1-0.2-0.3-0.2-0.5c-0.5-1.1-0.6-2.3-0.2-3.4c0.2-0.8,1-0.5,1.6-0.8
		C481.1,508.1,481.3,508.5,481.5,508.8z"/>
	<path class="st120" d="M481.7,497.9l-3.8,1.2c-0.2,0.1-0.2,0-0.2-0.2c2.2-0.6,3.7-2.2,5.4-3.6c0.6-0.5,1.2-1,1.8-1.3
		c0.2-0.1,0.4-0.3,0.5-0.5c0.3-0.6,0.6-1.2,1.5-1.3c0.6,0,1.1-0.9,1.5-1.5c0.7-0.9,1.5-1.6,2.5-2.1c-0.4,1-0.7,2.1-1,3.2
		C486.8,493.2,484,495.3,481.7,497.9z"/>
	<path class="st117" d="M496.4,503.9c-0.6,1.3-1.2,2.6-1.9,3.9c-0.1,0.2-0.3,0.4-0.4,0.4c-0.9-0.3-1.4,0.4-1.9,0.9
		c-0.8,0.8-2,1.1-3.1,1c-0.1,0-0.3-0.1-0.4,0s-0.2,0.6-0.6,0.2c-0.3-0.3-0.4-0.6-0.2-1c0.1-0.4,0.4-0.4,0.7-0.4c1.8,0,3.1-1,4.3-2.2
		S495.3,505,496.4,503.9z"/>
	<path class="st117" d="M498.6,512.7c0,0.6-0.1,1.2-0.2,1.8c-0.1,0.7-0.7,1.2-1.5,1.2c-0.8,0-0.7-0.7-0.9-1.3
		c-0.6,0.3-0.7,0.9-1.2,1.3c-0.3,0.2-0.5,0.5-1,0.4s-0.3-0.5-0.4-0.8c-0.1-0.5-0.1-0.9,0-1.4c0.1-1.2,0.6-1.6,1.7-1.3
		C496.4,512.9,497.5,512.9,498.6,512.7z"/>
	<path class="st118" d="M505.3,495.3l1.2-1.1c-0.6,1.5-0.7,3.2-2.5,3.9c-1,0.4-1.7,1.4-2.9,1.8c0.7-2.1,1.6-4,2.7-5.9
		c0.2-0.4,0.6-0.2,0.9-0.1c0.3,0,0.5,0.3,0.5,0.7c0,0,0,0.1,0,0.1c0,0.2-0.1,0.5-0.2,0.7c-0.2,0.4-0.5,0.6-0.9,0.9
		c-0.7,0.1-1.3,0.7-1.4,1.4c-0.1,0.2,0.1,0.2,0,0.2s0,0,0-0.1c0.3-0.7,0.8-1.2,1.4-1.5C504.7,495.9,504.9,495.6,505.3,495.3z"/>
	<path class="st117" d="M525.2,494.5l1.6,2.6c0.2,0.3,0.4,0.8-0.2,0.7c-1.4-0.2-2.2,0.8-3.2,1.4c-0.5,0.3-0.7,0.2-0.6-0.3
		c0.3-1.6,0.7-3.3,2.2-4.4C525,494.5,525.1,494.5,525.2,494.5C525.2,494.5,525.2,494.5,525.2,494.5z"/>
	<path class="st118" d="M512.1,492.2c-0.2,1-0.3,1.8-0.5,2.7c-0.1,0.3-1.6,0.9-1.9,0.8s-0.1-0.3-0.1-0.5c0.3-1,0.5-2.1,0.3-3.2
		c0-0.8,0.8-0.8,0.8-1.3c0.5,0.1,0.9,0.5,1.1,1C512,491.9,512,492.1,512.1,492.2z"/>
	<path class="st118" d="M534.6,529.3c-0.7,1-1.3,0.3-1.9,0.1c0-0.2,0.1-0.4,0.2-0.4c1.3-0.5,2.3-1.4,3.6-1.8
		c0.5-0.2,1.2-0.5,1.6,0.5h-2.1c0.5,0.7,1.4,1.4,0.9,2.3c-0.3,0.6-1.1,0.3-1.7,0.2C534.8,530.1,534.3,530,534.6,529.3z"/>
	<path class="st118" d="M506.6,487.6c2.5-0.4,4.7-1.7,7.3-0.7c-1.8,0-2.9,1.3-4.4,1.8c-0.5,0.3-1.1,0.2-1.5-0.2
		C507.6,488.2,507.1,487.9,506.6,487.6z"/>
	<path class="st120" d="M548.3,530.8c0.2-0.4,0.6-0.4,0.9-0.6s0.8-0.2,0.7-0.9c0-0.3,0.5-0.5,0.9-0.7c0.7-0.4,1.5-0.7,1.8-1.5
		c0.1-0.2,0.2-0.3,0.5-0.2s0.2,0.2,0.2,0.5c-0.1,1.4-1.1,2.1-2,3C550.3,530.9,549.3,531,548.3,530.8z"/>
	<path class="st118" d="M523.5,484c0.6,0.1,1.1,0.5,1.5-0.1c0.2-0.3,0.8,0,1.1,0.2c0.5,0.3,1.1,0.7,1.5,1.1c0.2,0.1,0.4,0.4,0.2,0.6
		s-0.4,0.5-0.6,0c-0.3,0.1-0.6,0.3-0.9,0.5c-0.1,0.1-0.1,0.3-0.4,0.4c-0.7,0.3-0.9,0-1.1-0.6C524.6,485.3,523.8,484.9,523.5,484z"/>
	<path class="st118" d="M507.1,510.2c1.3-2.1,1.8-4.6,3.5-6.5l0.5,0.3c-0.4,2-1.4,3.9-2.8,5.4c-0.4,0.3-0.7,0.6-1,1
		C507.1,510.5,507,510.4,507.1,510.2z"/>
	<path class="st70" d="M502.6,526.7c1.3,0,2.7,0.2,3.9,0.6c0,0.7-0.1,1.1-0.9,0.7c-0.8-0.3-1.7-0.3-2.5-0.1c-0.5,0-1,0.1-1.5,0.3
		c-1,0.2-1.1,0.1-1.1-0.9c0.1-0.2,0.3-0.3,0.5-0.3C501.5,527,502.1,527.2,502.6,526.7z"/>
	<path class="st118" d="M521.2,505.8c0-0.4,0.2-0.7,0.5-0.9c0.4-0.3,0.6,0.2,0.8,0.4c0.4,0.4,0.9,0.6,1.4,0.7
		c0.3,0.1,0.8,0.2,0.8,0.5s-0.5,0.4-0.7,0.6c-0.2,0.1-0.4,0.2-0.7,0.2C522,507.8,521.3,507.2,521.2,505.8z"/>
	<path class="st118" d="M525.2,494.5H525c0.2-0.3,0.7-0.4,0.7-0.9c0-0.2,0.2-0.3,0.4-0.3c1.4-0.3,2.7,0.6,2.9,2c0,0,0,0,0,0
		L525.2,494.5z"/>
	<path class="st121" d="M538.1,511.6l0.2,0.2c-0.4,0.3-1.1,0.2-1.4-0.2c0,0,0,0,0-0.1c-0.7-0.8-1.3-1.8-1.7-2.8
		c-0.1-0.2-0.4-0.6-0.1-0.8c0.3-0.2,0.6-0.1,0.8,0.1c0.6,0.4,0.8,1.1,1.1,1.7C537.3,510.4,537.7,511,538.1,511.6z"/>
	<path class="st122" d="M515.1,500.7c0.4-1.2,0.8-2.3,1.4-3.4c0.2,0.4-0.3,0.6-0.1,1c0.1-0.2,0.2-0.3,0.3-0.4s0.2-0.4,0.4-0.2
		s0.3,0.3,0.2,0.5c-0.1,0.5-0.2,1-0.1,1.5c0,0.5-0.3,0.6-0.7,0.6C516,500.3,515.5,500.5,515.1,500.7z"/>
	<path class="st118" d="M501.4,511.2c0.3-0.5,0.8-0.6,1.2-1s0.5,0.1,0.7,0.2s0,0.3,0,0.4c-0.5,1-1.3,1.8-2.2,2.4
		c-0.2,0.2-0.4-0.1-0.5-0.2c-0.1-0.1-0.1-0.2-0.1-0.2c0.1-0.3,0.2-0.6,0.4-0.8C501,511.6,501.1,511.4,501.4,511.2z"/>
	<path class="st121" d="M519.8,523.5c-0.1-0.2,0.4-0.4,0-0.7c-0.6-0.6-0.2-1,0.5-1c0.9,0,1.7-0.1,2.6-0.4c-0.5,0.6-0.6,1.5-1.7,1.4
		c-0.5-0.1-0.7,0.8-1.2,0.9C519.9,523.7,519.9,523.6,519.8,523.5z"/>
	<path class="st123" d="M528.4,532.3c-0.3-0.3-0.1-0.4,0.2-0.4c0.6,0,1.2,0,1.8-0.1c-0.8-0.6-1.7,0.3-2.5-0.3
		c1.5-0.8,2.9-0.4,4.4,0.2c-0.8,0.4-1.6,0.7-2.5,0.9C529.3,532.3,528.8,532.7,528.4,532.3z"/>
	<path class="st121" d="M532.6,521c0.7-0.7,1.6-1.2,2.5-1.6c0.2-0.1,0.4-0.1,0.5,0.1c0.1,0.2-0.1,0.3-0.2,0.4
		C535,521,533.7,521.5,532.6,521z"/>
	<path class="st121" d="M502.6,494l-2.4,3.2C500.1,495.6,500.6,494.8,502.6,494z"/>
	<path class="st121" d="M502.9,491c-0.9,0.3-1.7,0.8-2.4,1.4c-0.2,0.1-0.6,0.5-0.9,0.2s0.2-0.5,0.4-0.7c0.7-0.9,1.7-0.8,2.6-1
		C503,490.7,503,490.8,502.9,491z"/>
	<path class="st121" d="M528.4,497.7c-0.1-0.5-0.6-0.8-0.7-1.3c1.5-0.2,1.7-0.1,1.7,1.5c-0.2,0.2-0.6,0.2-0.8,0
		C528.4,497.9,528.4,497.8,528.4,497.7z"/>
	<path class="st122" d="M501,517.6c-0.3,0-0.6,0-0.7-0.3s0.3-0.4,0.4-0.5c0.2-0.2,0.4-0.3,0.6-0.4c0.3-0.2,0.6-0.4,1-0.3
		c-0.2,0.3,0,0.6-0.1,0.9c-0.2,0.4-0.5,0.3-0.9,0.3c-0.2,0-0.4-0.1-0.6-0.1c0,0.3,0.3,0.3,0.5,0.3
		C501.4,517.8,501.2,517.7,501,517.6z"/>
	<path class="st124" d="M513.3,530.7c-0.1,0.1-0.3,0.1-0.5,0.2c-0.4,0-0.8,0.6-1.1,0s-0.2-1.3,0.7-1.4c0.6,0.1,0.6,0.6,0.9,1
		C513.3,530.5,513.3,530.6,513.3,530.7z"/>
	<path class="st125" d="M506.9,503.1c1.1-1.3,1.8-2.9,2.8-4.2c-0.7,1.5-1.3,3.1-2.6,4.2L506.9,503.1z"/>
	<path class="st126" d="M500.6,512.8v0.2c-0.3,0.3-0.5,0.8-1.1,1c0.3-1.2,0.5-2.5,1.9-2.8c0,0.3-0.2,0.6-0.4,0.8
		C500.7,512.2,500.7,512.6,500.6,512.8z"/>
	<path class="st127" d="M508.9,528.1c0.7,0,1.3,0.5,1.9,0.6c0.1,0.2-0.1,0.3-0.2,0.4c0.1,0.2,0.3,0.3,0.2,0.8
		C510.2,529.3,509.1,529.3,508.9,528.1z"/>
	<path class="st128" d="M509.1,518.8l0.4,0.4c0.2,0.3,0.3,0.7-0.2,0.8c-0.4,0.2-0.8,0.2-1.2,0.5c-0.6,0.4-0.5-0.6-0.9-0.7
		c0.3-0.2,0.6-0.5,1-0.2c0.1,0.2,0.3,0.2,0.4,0S508.9,519,509.1,518.8z"/>
	<path class="st129" d="M538.1,511.6c-1.3-0.8-1.3-2.5-2.2-3.6l0.2-0.2C536.9,509,537.6,510.3,538.1,511.6z"/>
	<path class="st122" d="M514.2,497.1c-0.1,1-0.4,2-1,2.8C512.8,498.8,513.8,498,514.2,497.1z"/>
	<path class="st130" d="M510.1,503.9c0-1,0.8-1.4,1.2-2.1C511.5,503,511.5,503.1,510.1,503.9z"/>
	<path class="st131" d="M523.4,489.4l0.2-0.4c0.4,0.2,0.4-0.1,0.3-0.4s-0.3-0.8-0.6-1.3c0.8,0.4,1.3,1.2,1.2,2.1
		c-0.2,0.2-0.4,0.2-0.6,0.2h-0.4C523.5,489.6,523.4,489.5,523.4,489.4z"/>
	<path class="st132" d="M513.3,489.7c1-0.8,1.1-0.8,1.4,0.2c0.1,0.3,0.4,0.5,0.2,1C514.5,490.3,514.2,489.6,513.3,489.7z"/>
	<path class="st126" d="M495.8,498.7c-0.2,0.6-0.6,1.2-1,1.7C494.4,499.1,494.5,499,495.8,498.7z"/>
	<path class="st131" d="M504.9,492.3c-0.3,1-1.1,1.2-1.7,1.8C503.2,493.3,503.2,493.3,504.9,492.3z"/>
	<path class="st126" d="M528.6,514.8c-0.2,0.6-0.6,1.1-1.1,1.4C527.2,515.2,527.4,515,528.6,514.8z"/>
	<path class="st133" d="M528.4,497.7c0.3,0.2,0.7,0.2,1,0.2v1.7C528.8,498.9,528.3,498.5,528.4,497.7z"/>
	<path class="st134" d="M501.4,521.9c-0.7-1-0.7-1.2,0.4-1.8c0.3,0.1,0.5,0.4,0.5,0.7s-0.5,0.1-0.8,0.1c-0.5,0,0,0.3-0.1,0.4
		s0.1,0.1,0.1,0.1s0,0.1-0.1,0.1L501.4,521.9z"/>
	<path class="st126" d="M495,495.7c-0.2,0.1-0.3,0.2-0.4,0.4c0,0.2-0.2,0.3-0.4,0.4c-0.2,0.2-0.3,0.6-0.7,0.7
		c-0.1-0.6-0.2-1.1,0.5-1.2C494.4,496,494.5,495.2,495,495.7L495,495.7z"/>
	<path class="st131" d="M548.4,516.8c-0.3-0.4-1-0.2-1.2-0.8c0.2-0.4,0.4-0.5,0.8-0.3S548.8,516.2,548.4,516.8z"/>
	<path class="st126" d="M495,495.7l1.7-1.5c0,0.8-0.7,1.5-1.6,1.5C495.1,495.7,495,495.7,495,495.7L495,495.7z"/>
	<path class="st135" d="M516.8,501.4l-2.3,0.2C515.2,501,516.1,500.9,516.8,501.4z"/>
	<path class="st125" d="M520.8,487.4c0.8-0.3,1.1,0.3,1.7,1c-0.6-0.1-1,0.2-1.3-0.4L520.8,487.4z"/>
	<path class="st134" d="M517.2,483.6c-0.9,0.3-1.3-0.7-2-0.8c0.4-0.2,0.8-0.4,1.2,0c0.1,0.2,0.4,0.2,0.6,0.4l0.4,0.2L517.2,483.6z"
		/>
	<path class="st135" d="M520,500.1l0.4,1.9l-0.3,0.1C519.9,501.4,519.5,500.8,520,500.1z"/>
	<path class="st136" d="M532.7,496.1c0.9,0.2,1.7,0.7,2.2,1.4l-2.4-1.2L532.7,496.1z"/>
	<path class="st137" d="M513.3,530.5c-0.5-0.1-0.3-0.8-0.8-1c0,0,0-0.1,0-0.1c0.5,0.2,1,0.5,1.6,0.2c0.1-0.1,0.1,0.2,0,0.3
		C513.9,530.2,513.6,530.3,513.3,530.5z"/>
	<path class="st134" d="M518,505.7l-0.8-2.6l0.2-0.2c0.6,0.3,0.2,1,0.6,1.4l0.2,0.4c-0.2,0.2,0,0.5-0.2,0.6L518,505.7z"/>
	<path class="st138" d="M535.5,531.5c-0.8,0.4-1.6-0.1-2.4-0.2h2.8C535.9,531.7,535.7,531.6,535.5,531.5z"/>
	<path class="st139" d="M507.9,514.8c0,0.2,0.1,0.4,0.3,0.4c0,0,0,0,0.1,0c-0.3,0.2-0.5,0.3-0.8,0.5s-0.4,0.1-0.4,0
		c0-0.2,0-0.3,0.1-0.5c0.1-0.1,0.2-0.4,0.3-0.2C507.9,515.6,507.7,514.6,507.9,514.8z"/>
	<path class="st122" d="M538.8,522.2c-0.1,0.3-0.2,0.6-0.6,0.8c-0.2,0.1-0.3-0.1-0.3-0.3c0.1-0.3,0.2-0.6,0.5-0.7
		C538.7,521.9,538.8,522,538.8,522.2z"/>
	<path class="st140" d="M513.3,530.5c0.2-0.3,0.5-0.5,0.8-0.6c0.2,0,0.5,0,0.6,0.3c-0.5,0.3-0.9,0.4-1.4,0.6V530.5z"/>
	<path class="st132" d="M507,508c-0.4-0.8,0.3-1.1,0.5-1.6C507.5,507,507.4,507.6,507,508z"/>
	<path class="st121" d="M518,504.3c-0.5-0.3-0.2-1-0.6-1.4c0-0.2-0.1-0.6,0.4-0.4c0.3,0.1,0.4,0.4,0.3,0.7c0,0,0,0.1-0.1,0.1
		C517.7,503.6,518.2,503.9,518,504.3z"/>
	<path class="st135" d="M541.7,516.4c0.6,0.4-0.4,0.8,0,1.2c-0.2,0.1-0.5,0.2-0.5-0.1S541.1,516.5,541.7,516.4z"/>
	<path class="st141" d="M516.3,514c-0.2,0.6-0.7,1-1.3,1.3c0.3-0.4,0.5-1,1-1.3H516.3z"/>
	<path class="st142" d="M502.9,524.9v0.4c-0.3,0.1-0.3,0.6-0.7,0.5c-0.3-0.1-0.5-0.3-0.7-0.5c0-0.1,0-0.3,0.1-0.4
		c0.3-0.4,0.7,0,1.1-0.1L502.9,524.9z"/>
	<path class="st143" d="M537.1,531.1l0.2,0.4c0,0.2-0.2,0.2-0.2,0.4c-0.1,0.2-0.3,0.4-0.5,0.5c-0.2-0.2,0.2-0.5-0.1-0.7
		c-0.1-0.2,0.1-0.3,0.2-0.4C536.8,531.1,537,531.1,537.1,531.1z"/>
	<path class="st144" d="M502.7,524.9c-0.3,0.3-0.7-0.2-1,0.2c-0.1,0-0.2-0.1-0.3-0.3c-0.1-0.2,0-0.4,0.1-0.5l0,0L502.7,524.9z"/>
	<path class="st145" d="M507.7,513.8c0-0.5,0-0.9,0.5-1.1c0.1,0.2,0.1,0.6-0.2,0.7L507.7,513.8z"/>
	<path class="st145" d="M501,517.6c0.2,0,0.3-0.1,0.4-0.2l1,0.1C502,517.8,501.4,517.9,501,517.6z"/>
	<path class="st146" d="M535.5,532.5c0.2,0,0.3,0,0.3,0.3c0,0.2-0.2,0.3-0.4,0.3c0,0,0,0,0,0c-0.2,0-0.3-0.1-0.3-0.3
		S535.3,532.5,535.5,532.5z"/>
	<path class="st147" d="M536.6,483.5c0.2,0.1,0.4,0.1,0.4,0.3s-0.2,0.3-0.4,0.3s-0.1-0.2-0.2-0.3S536.4,483.5,536.6,483.5z"/>
	<path class="st148" d="M512.2,489.9c0,0.2-0.2,0.3-0.4,0.2s-0.4-0.1-0.4-0.3s0.2-0.2,0.4-0.2C512,489.6,512.2,489.7,512.2,489.9z"
		/>
	<path class="st149" d="M502.9,491l-0.2-0.2c0.4-0.3,0.9-0.5,1.5-0.4L502.9,491z"/>
	<path class="st150" d="M507.1,519.4l-0.2-0.2c0,0-0.1-0.1,0-0.1s0-0.1,0.1-0.1c0.3,0,0.8-0.5,1,0.2
		C507.7,519.5,507.5,519.6,507.1,519.4z"/>
	<path class="st151" d="M519.4,536.2l-0.4,0.1c-0.2,0.1-0.5,0-0.5-0.3c0-0.1,0.1-0.2,0.2-0.3c0.2-0.2,0.3,0.1,0.5,0.2
		C519.3,536.1,519.3,536.2,519.4,536.2L519.4,536.2z"/>
	<path class="st152" d="M528.4,532.3c0.5,0.1,0.9-0.2,1.4,0.2C529.3,532.5,528.8,533,528.4,532.3z"/>
	<path class="st128" d="M506.9,519c0,0.1,0,0.1,0,0.2c-0.1,0.1-0.2,0.2-0.3,0.2s0,0.4-0.3,0.3s-0.2-0.4,0-0.5l0.4-0.4L506.9,519z"/>
	<path class="st153" d="M501.4,521.5v-0.2c0.5,0.1,0.9,0.2,1.3,0.5C502.1,522.1,501.8,521.7,501.4,521.5z"/>
	<path class="st126" d="M536.7,531.3l-0.2,0.4c-0.3-0.1-0.8,0.4-1-0.2c0.2,0,0.3-0.1,0.4-0.2L536.7,531.3z"/>
	<path class="st125" d="M507.1,519.4c0.3,0,0.6-0.1,0.8-0.2c0,0.2,0.4,0.1,0.2,0.4l-1,0.2L507.1,519.4z"/>
	<path class="st154" d="M550,515.4c0.3,0.2,0.5,0.4,0.7,0.7c-0.4,0.2-0.6-0.2-0.9-0.3L550,515.4z"/>
	<path class="st117" d="M513.1,517.6c-0.6-0.1-0.7-0.4-0.3-1L513.1,517.6L513.1,517.6z"/>
	<path class="st134" d="M481.5,508.8c-0.3-0.2-0.6-0.5-0.8-0.8C481.5,507.8,481.5,508.3,481.5,508.8z"/>
	<path class="st155" d="M473.3,505.1v0.4c-0.2,0.1-0.4,0.6-0.6,0C472.8,505.2,473.1,505,473.3,505.1z"/>
	<path class="st125" d="M509.1,518.8c0.1,0.5-0.2,0.7-0.6,0.8c0.1-0.3,0.3-0.7,0.4-1L509.1,518.8z"/>
	<path class="st156" d="M538.3,511.8c0.2-0.1,0.2-0.4,0.2-0.6c0.4,0.2,0.6,0.5,0.2,0.8C538.5,512,538.4,512,538.3,511.8z"/>
	<path class="st144" d="M506.9,492.9c0.2,0,0.2,0.1,0.2,0.2s-0.2,0.3-0.4,0.3c-0.1,0-0.2,0-0.2-0.2c0,0,0-0.1,0-0.1
		C506.5,493,506.7,493,506.9,492.9z"/>
	<path class="st133" d="M507.1,510.2l0.2,0.2c-0.2,0.2-0.4,0.5-0.6,0.7l-0.2-0.1L507.1,510.2z"/>
	<path class="st139" d="M537,523.4c0.1,0.3-0.1,0.5-0.3,0.6c0,0-0.2-0.1-0.2-0.2C536.5,523.6,536.7,523.4,537,523.4z"/>
	<path class="st153" d="M504.5,522.3c0.3-0.3,0.6-0.2,1,0l-0.8,0.2L504.5,522.3z"/>
	<path class="st157" d="M530,491.4l-0.6-0.2c-0.1-0.1-0.5-0.1-0.2-0.4c0.3,0,0.6,0.2,0.8,0.4C530.1,491.2,530.1,491.2,530,491.4
		C530,491.3,530,491.4,530,491.4z"/>
	<path class="st158" d="M505.3,495.3c-0.2,0.4-0.5,0.7-1,0.8l0,0c0.2-0.3,0.5-0.6,0.8-0.8H505.3z"/>
	<path class="st149" d="M500.9,500.1c0,0.2-0.1,0.3-0.3,0.3c-0.1,0-0.1-0.1-0.1-0.2c0.1-0.1,0.1-0.3,0.3-0.4S500.9,500,500.9,500.1z
		"/>
	<path class="st157" d="M505.8,518.3l1.1-0.5C506.8,518.2,506.5,518.3,505.8,518.3z"/>
	<path class="st121" d="M518,503.3c0-0.3-0.1-0.6-0.2-0.8c0.7,0,0.3,0.5,0.4,0.8C518.2,503.3,518.1,503.3,518,503.3
		C518.1,503.3,518.1,503.3,518,503.3z"/>
	<path class="st159" d="M515.1,486.8v0.2c-0.3,0-0.7,0-0.7-0.4C514.7,486.4,514.8,486.9,515.1,486.8z"/>
	<path class="st144" d="M531,503.1c-0.1-0.2-0.1-0.4,0-0.6c0,0,0.2,0,0.2,0.1C531.4,502.8,531.2,503,531,503.1z"/>
	<path class="st159" d="M533.1,506.5c-0.4-0.2-0.5-0.4,0-0.6C533.4,506.1,533.4,506.3,533.1,506.5z"/>
	<path class="st160" d="M510.7,529.1c0.1-0.1,0.1-0.3,0.2-0.4l0.8,0.2c0.1,0,0.1,0.1,0.1,0.1s0,0.1-0.1,0.1L510.7,529.1z"/>
	<path class="st161" d="M545.8,514.6c-0.2,0-0.4-0.2-0.4-0.4c0,0,0-0.1,0-0.1c0.3,0,0.5,0.1,0.6,0.3L545.8,514.6z"/>
	<path class="st158" d="M494.2,496.5c0.1-0.2,0.2-0.3,0.4-0.4c0.1,0,0.4,0,0.2,0.2C494.7,496.6,494.5,496.7,494.2,496.5
		C494.3,496.6,494.2,496.5,494.2,496.5z"/>
	<path class="st138" d="M501.4,523.3v-0.2c0.3,0,0.7-0.1,0.8,0.4C501.8,523.7,501.6,523.2,501.4,523.3z"/>
	<path class="st159" d="M524,489.6c0.1-0.2,0.4-0.2,0.6-0.2c0,0.2,0,0.4-0.1,0.5C524.3,489.8,524.1,489.8,524,489.6z"/>
	<path class="st162" d="M523.4,489.4l0.2,0.2v0.2c-0.2-0.1-0.3-0.1-0.4-0.2c-0.1-0.1-0.3-0.1-0.2-0.3S523.2,489.3,523.4,489.4z"/>
	<path class="st163" d="M539.2,486.5c0,0.2-0.1,0.2-0.2,0.2s-0.2-0.2-0.2-0.3c0-0.1,0.1-0.2,0.1-0.2L539.2,486.5z"/>
	<path class="st150" d="M519.8,523.5l0.2,0.2c-0.2,0.2-0.5,0.5-0.6,0.2S519.8,523.8,519.8,523.5z"/>
	<path class="st117" d="M537.1,531.9c-0.3-0.3-0.1-0.4,0.2-0.4h0.2C537.5,531.7,537.4,531.9,537.1,531.9
		C537.2,531.9,537.1,531.9,537.1,531.9z"/>
	<path class="st164" d="M539.7,495.7l-0.4-0.4c0.1-0.1,0.2-0.2,0.4-0.1S539.9,495.5,539.7,495.7z"/>
	<path class="st161" d="M486.2,501.2c-0.1,0.1-0.1,0.2-0.2,0.2c0,0-0.2,0-0.2-0.1s0.1-0.2,0.2-0.2S486.1,501,486.2,501.2z"/>
	<path class="st165" d="M517.8,499.4v0.8C517.5,499.8,517.7,499.6,517.8,499.4z"/>
	<path class="st133" d="M502.7,512.8c0-0.3,0.1-0.6,0.4-0.7C503.1,512.4,503,512.6,502.7,512.8z"/>
	<path class="st134" d="M530.5,527.5c-0.1,0.1-0.2,0.1-0.3,0.2c-0.1,0-0.2-0.1-0.2-0.2c0.1-0.1,0.2-0.2,0.3-0.2
		C530.5,527.2,530.5,527.3,530.5,527.5z"/>
	<path class="st166" d="M517.8,500.8c0.1,0.1,0.2,0.2,0.2,0.4c0,0.1-0.1,0.2-0.2,0.1c-0.1-0.1-0.1-0.2-0.2-0.3
		C517.7,500.9,517.7,500.8,517.8,500.8z"/>
	<path class="st167" d="M511.7,529.1v-0.2c0.2,0.2,0.6,0.1,0.8,0.4C512.2,529.3,511.9,529.4,511.7,529.1z"/>
	<path class="st153" d="M515.3,514c-0.1,0.3-0.3,0.3-0.6,0.2C514.8,514,515,513.8,515.3,514z"/>
	<path class="st168" d="M526.8,481.4c0-0.1,0-0.1,0-0.2l0.8,0.3C527.2,481.7,527,481.6,526.8,481.4z"/>
	<path class="st169" d="M546.7,506l0.4,0.6l-0.2,0.2C546.6,506.6,546.7,506.3,546.7,506z"/>
	<path class="st170" d="M507.1,503.9c0.1,0,0.4,0,0.2,0.2s-0.2,0.3-0.3,0.2S507.1,504,507.1,503.9L507.1,503.9z"/>
	<path class="st135" d="M518,505.2c0-0.2,0-0.5,0.2-0.6C518,504.8,518.9,505.3,518,505.2z"/>
	<path class="st171" d="M549.6,466.9c-0.2-0.9-0.4-1.8-0.7-2.7c-0.1-0.2-0.2-0.5,0.1-0.6s0.4,0.2,0.5,0.4
		C549.9,464.9,550,466,549.6,466.9z"/>
	<path class="st172" d="M542.9,463.9c0.2,0.4,0.2,0.9-0.2,1.1c0,0-0.1,0-0.1,0.1C542.3,464.5,543.1,464.4,542.9,463.9z"/>
	<path class="st173" d="M535.9,466c0,0.2-0.1,0.3-0.3,0.3s-0.2-0.1-0.2-0.3s0.1-0.4,0.3-0.4S535.9,465.8,535.9,466z"/>
	<path class="st174" d="M537.7,475.9c-0.3,0-0.5-0.1-0.6-0.4C537.4,475.4,537.6,475.5,537.7,475.9z"/>
	<path class="st175" d="M541.1,476.5c-0.2,0-0.5,0-0.6-0.2c0.4-0.1,0.8-0.1,1.1,0C541.5,476.5,541.3,476.4,541.1,476.5z"/>
	<path class="st176" d="M541.1,469.1c0,0.1,0,0.3-0.2,0.2c-0.1,0-0.1-0.1-0.1-0.2c0-0.1,0-0.3,0.2-0.2S541,469.1,541.1,469.1z"/>
	<path class="st177" d="M542.4,466.4c-0.2-0.2-0.1-0.5-0.2-0.9C542.5,465.8,542.5,466.1,542.4,466.4z"/>
	<path class="st4" d="M509.9,455.6c0,1.1-0.3,2.1-0.8,3c-0.2,0.3-0.6,0.3-0.8,0.5c0.1,0.1,0.6-0.5,0.6,0.1c-0.2,0.5-0.3,1.1-0.4,1.7
		c-0.3,1.4-1.5,2.2-2.5,3c-0.7,0.5-1.2-0.5-1.6-1c-0.5-1-0.4-2.2,0.3-3.1c0.4,0,0.3,0.2,0.3,0.2c-0.2-0.9-0.1-1.9,0.1-2.8
		c0.1-0.5,0.3-1,0.6-1.4c0.3-0.4,0.7-0.7,1.1-0.8c0.4-0.3,0.9-0.4,1.4-0.4c1,0.4,1,0.5,0.5,1.2c-0.6,0.4-1.1,0.8-1.6,1.2
		c0.5-0.4,1.1-0.8,1.6-1.1C509.1,455.6,509.4,455,509.9,455.6z"/>
	<path class="st178" d="M516.1,452c1,1.7,2.1,3.3,2.3,5.3c0,0.2,0.1,0.4-0.2,0.5c-0.5-0.6-0.5-1.5-0.8-2.2c-0.4-0.9-0.9-1.8-1.5-2.6
		c-0.2-0.3-0.3-0.5-0.1-0.8C515.8,452,515.9,452,516.1,452z"/>
	<path class="st179" d="M512.3,460.8c-0.4,0.7-1.1,1.2-1.8,1.5l1-3.1c0.4-0.5,0.7-0.5,1,0.1C512.7,459.8,512.6,460.3,512.3,460.8z"
		/>
	<path class="st178" d="M516.1,452l-0.2,0.2c-1.2-0.7-2.3-1.6-3.3-2.6C514.5,449.6,515.1,451.1,516.1,452z"/>
	<path class="st180" d="M507.1,453.8c0.6-0.4,1.2-0.8,2-0.3c0.6,0.4,1.2,0.7,1,1.5c-0.2,0.2-0.5,0.1-0.7-0.1c-0.4-0.5-1-0.7-1.6-0.7
		C507.5,454.2,507.1,454.3,507.1,453.8z"/>
	<path class="st181" d="M512.3,460.8c0-0.6,0.5-1.1-0.2-1.7c-0.3-0.3-0.4-0.1-0.6,0.1c0-0.7,0.6-1,0.7-1.7
		C512.9,458.4,513,459.7,512.3,460.8z"/>
	<path class="st182" d="M505.1,457.2c0.1,1.1,0.1,2.1,0,3.2c-0.3-0.1-0.1-0.5-0.4-0.6C504,458.8,504.7,458,505.1,457.2z"/>
	<path class="st180" d="M506.1,455.2c0.1-0.4,0.3-0.7,0.6-1c0.4-0.2,0.8,0,1.1-0.1c0.5,0,1.1,0,1.3,0.6c-0.3,0.3-0.6-0.1-0.9-0.1
		s-0.8-0.1-1.1,0.2C506.8,455,506.5,455.3,506.1,455.2z"/>
	<path class="st183" d="M508.3,454.6l0.8,0.2c0.1-0.1,0.3-0.1,0.4,0l0.6,0.2c0,0.2,0,0.5-0.2,0.6c-0.5-0.3-0.7,0.2-1,0.4
		c-0.1,0-0.2-0.1-0.2-0.2c0.6-0.6,0.1-0.8-0.4-1C508.2,454.7,508.2,454.7,508.3,454.6C508.3,454.6,508.3,454.6,508.3,454.6z"/>
	<path class="st184" d="M514.4,461.7c0.1-1.2,0.9-2,0.9-3.2C515.7,459.9,515.1,460.7,514.4,461.7z"/>
	<path class="st185" d="M506.1,455.2c0.3-0.1,0.6-0.4,1-0.4c0.1,0.2-0.1,0.3-0.2,0.4l-1.2,0.6C505.7,455.5,505.9,455.3,506.1,455.2z
		"/>
	<path class="st186" d="M508.9,459.2c-0.4-0.4-0.7,0.2-1.2,0.1c0.4-0.3,0.9-0.5,1.4-0.7C509.1,458.8,509.1,459,508.9,459.2z"/>
	<path class="st187" d="M508.1,447.9c0.4,0,0.9-0.2,1.3,0.2C508.9,448.4,508.5,448.1,508.1,447.9z"/>
	<path class="st188" d="M508.1,448.5c0.1,0,0.2,0.1,0.2,0.2s-0.1,0.2-0.2,0.2s-0.3-0.1-0.3-0.2S507.9,448.5,508.1,448.5z"/>
	<path class="st189" d="M507.9,454.2h-1.2c0.1-0.1,0.3-0.3,0.4-0.4c0.2,0.3,0.5,0.2,0.8,0.2C508,454,508,454.1,507.9,454.2
		C507.9,454.2,507.9,454.2,507.9,454.2z"/>
	<path class="st190" d="M517.4,464.1c0-0.4,0.3-0.8,0.6-1C517.9,463.7,517.8,464,517.4,464.1z"/>
	<path class="st191" d="M517.4,464.1c0,0.3-0.2,0.5-0.5,0.7C516.9,464.5,517.1,464.3,517.4,464.1z"/>
	<path class="st192" d="M511.6,452.7c0.2,0.2,0.3,0.3,0.2,0.5c0,0-0.1,0-0.1,0C511.5,453.1,511.5,453,511.6,452.7z"/>
	<path class="st193" d="M475.5,469.6c-0.4,1.5-0.5,3.1-0.4,4.7c0,1.8,0.2,3.5,1.7,4.9C473.3,477.5,472.7,473.5,475.5,469.6z"/>
	<path class="st120" d="M481,472.2c-0.2,1.7-0.2,3.3-0.2,5c0,0.3-0.2,0.7-0.6,0.7s-0.6-0.4-0.7-0.8
		C479.2,475.3,479.7,473.5,481,472.2z"/>
	<path class="st194" d="M480.7,466.4c1-0.2,2,0.2,2.4,1.1c0.1,0.2,0.2,0.3,0,0.4s-0.2,0-0.3-0.1c-0.3-0.2-0.6-0.5-0.9-0.7
		S481.2,466.8,480.7,466.4z"/>
	<path class="st195" d="M477,474.1c0-1.1,0.3-2.2,1-3.1c-0.2,1.2-0.8,2.2-0.5,3.5c-0.1,0-0.2,0-0.2,0
		C477.1,474.4,477,474.2,477,474.1z"/>
	<path class="st196" d="M479.5,468.5c-0.1,0.9-0.9,1.1-1.5,1.5c-0.2,0.1-0.3-0.1-0.3-0.3c0.1-0.6,0.7-0.6,1-1
		C478.9,468.6,479.2,468.4,479.5,468.5z"/>
	<path class="st197" d="M479.5,468.5c-0.3,0.1-0.6,0.1-0.8,0.4c-0.2,0-0.3,0.5-0.6,0c0.6-0.7,1.6-1,2.5-0.6c0,0.2,0,0.3-0.2,0.2
		L479.5,468.5z"/>
	<path class="st198" d="M477.3,474.5h0.2c0.4,0.3,0.2,0.7,0.2,1s-0.1,0.3-0.2,0.4c-0.4-0.2-0.5-0.4-0.2-0.8
		C477.1,475,477.1,474.7,477.3,474.5C477.3,474.5,477.3,474.5,477.3,474.5z"/>
	<path class="st199" d="M478.1,468.9c0.2,0.1,0.4-0.1,0.6,0c-0.1,0.5-0.7,0.5-1,0.8C477.4,469.2,477.9,469.1,478.1,468.9z"/>
	<path class="st200" d="M478.7,473.4v1.6C478.5,474.5,478.5,473.9,478.7,473.4z"/>
	<path class="st127" d="M477.3,474.5v0.6c-0.6-0.2-0.4-0.6-0.4-1L477.3,474.5z"/>
	<path class="st201" d="M480.5,468.5l0.2-0.2c0.2,0.1,0.4,0.2,0.4,0.5c0,0.1-0.1,0.2-0.1,0.2C480.6,469,480.6,468.7,480.5,468.5z"/>
	<path class="st202" d="M484.1,469.9c-0.2-0.1-0.4-0.3-0.4-0.5c0,0,0.2-0.1,0.2-0.1C484.1,469.4,484.2,469.6,484.1,469.9z"/>
	<path class="st203" d="M477.2,477.5c-0.4-0.4-0.5-0.6-0.4-0.9C477.1,476.8,477.1,477,477.2,477.5z"/>
	<path class="st204" d="M477.5,475.9l0.2-0.4c0.2,0.1,0.3,0.4,0.1,0.6c0,0.1-0.1,0.1-0.1,0.1c0,0-0.1-0.1-0.1-0.1c0,0,0-0.1,0-0.1
		L477.5,475.9z"/>
	<path class="st205" d="M477.7,476v0.2c0.1,0.1,0.1,0.2,0.1,0.4c0,0.1-0.1,0.1-0.2,0C477.5,476.4,477.5,476.2,477.7,476
		C477.7,476,477.7,476,477.7,476z"/>
	<path class="st4" d="M472.2,516c0.1,4.4,3.1,6.8,6.1,9.3c0,0.5-0.4,0.2-0.6,0.2c-1.6-0.1-3.1-1-4-2.4c-0.1-0.2-0.1-0.3-0.3-0.3
		c-1.8-0.2-3.2-1.8-3.1-3.7c-0.1-0.8-0.3-1.6-0.6-2.4c-0.3-0.8-0.4-1.6-0.1-2.4c0.1-0.3,0.2-0.6,0.6-0.5c0.3,0.1,0.5,0.4,0.4,0.7
		c0,0.4-0.1,0.7-0.2,1.1c-0.1,0.5,0,0.8,0.6,0.9c-0.2-0.5-0.3-1-0.2-1.5c0.3-0.1,0.4,0.2,0.5,0.3C471.5,515.6,471.8,515.8,472.2,516
		z"/>
	<path class="st120" d="M501,527.1l-0.4,0.2c-0.3-0.4-0.9-0.4-1.2-0.1c-0.8,0.4-1.7,0.8-2.5,1c-0.9,0.3-1.6-0.2-2.5-0.2
		c1.1-0.5,2.3-0.9,3.5-1.1c0.3-0.1,0.7-0.1,1-0.4c0.5-0.4,1.2-0.5,1.7-0.2c0.2,0.1,0.3,0.2,0.4,0.4C501,526.8,501,527,501,527.1z"/>
	<path class="st120" d="M485.3,524.9c0.3-0.4,0.6,0,0.9,0.1c0.6,0.2,1.1,0.5,1.7,0.7c0,1.6-0.1,1.7-1.6,1c0,0,0-0.1,0-0.1
		c-0.1-0.1-0.1,0.1-0.1,0.1l-0.5-0.2c-1.1-0.4-1.1-0.4-0.3-1.2C485.4,525.2,485.4,525,485.3,524.9z"/>
	<path class="st206" d="M500.5,526.5c-0.6-0.1-1.2-0.1-1.8,0l-0.8-0.2c-0.5-0.4-0.2-0.6,0.2-0.7c0.3-0.1,0.7-0.1,1,0
		c0.6-0.1,1.2-0.4,1.7-0.8c0.2-0.1,0.4,0,0.6,0.1l0.2,0.2l-0.2,0.2c0,0.1-0.1,0.2-0.1,0.3c0,0.3,0.2,0.5,0.1,0.8
		c0,0.1-0.1,0.1-0.2,0.2C501.1,526.8,500.8,526.7,500.5,526.5z"/>
	<path class="st207" d="M472.2,516c-0.6,0.3-0.7-0.3-1-0.6c-0.1-0.3,0-0.6-0.2-0.8c-0.2-0.3-0.2-0.7,0-1c0.2,0.1,0.3,0.2,0.4,0.4
		c0.1,0.2,0.2,0.4,0.4,0.5c0.2,0.2,0.1-0.1,0.2-0.1c0.3-0.2,0.1-0.6,0.4-0.8C472.4,514.4,472.4,515.2,472.2,516z"/>
	<path class="st136" d="M498.2,525.7c-0.3,0.1-0.4,0.3-0.2,0.6c-0.5,0-0.7-0.1-0.4-0.6c-0.4-0.8-1.5-1.2-1.6-2.5
		c0.8,0.9,1.1,2,2.2,2.3C498.2,525.6,498.3,525.6,498.2,525.7C498.2,525.7,498.2,525.7,498.2,525.7z"/>
	<path class="st208" d="M477.7,498.9l0.2,0.2c-1,0.5-2.1,0.9-3.2,1.2C475.6,499.5,476.7,499.4,477.7,498.9z"/>
	<path class="st209" d="M509.5,481.8c0.5,0.5,1.3-0.1,1.7,0.6h-1.9C509.3,482.2,509.3,482,509.5,481.8z"/>
	<path class="st68" d="M467.6,506.5c0,0.1,0,0.3,0,0.4c-0.2,0.1-0.1,0.4-0.3,0.6C466.8,506.9,467.1,506.7,467.6,506.5z"/>
	<path class="st210" d="M493.2,526.5h2C494.6,526.8,493.8,526.8,493.2,526.5z"/>
	<path class="st152" d="M469.2,505.7l-0.2-0.2c-0.1-0.3,0.1-0.6,0.4-0.8l0.2,0.2C469.4,505.1,469.7,505.6,469.2,505.7z"/>
	<path class="st211" d="M468.2,508.2c0-0.2,0.1-0.5,0.3-0.1c0.1,0.3,0.2,0.6,0.3,0.9h-0.4C468.1,508.8,468.4,508.4,468.2,508.2
		L468.2,508.2z"/>
	<path class="st212" d="M471,514.6c0.4,0.2,0.4,0.5,0.2,0.8l-0.4-0.4L471,514.6z"/>
	<path class="st144" d="M512.9,482.4v-0.2l1,0.3C513.4,482.6,513.1,482.7,512.9,482.4z"/>
	<path class="st147" d="M468.2,508.2c0.3,0.2,0.2,0.5,0.2,0.8C468,509,468,509,468.2,508.2z"/>
	<path class="st213" d="M477.7,525.5c0.2,0,0.5,0,0.6-0.2c0.2,0,0.4,0.2,0.4,0.4C478.4,525.7,478,525.8,477.7,525.5z"/>
	<path class="st214" d="M486,526.7c0.1-0.2-0.1-0.5,0.2-0.7c0.3,0.3-0.1,0.5,0,0.8C486.1,526.7,486.1,526.7,486,526.7z"/>
	<path class="st207" d="M470.8,512.6c0.3,0.3,0.1,0.7,0.2,1C470.7,513.3,470.8,513,470.8,512.6z"/>
	<path class="st215" d="M517,483.2c-0.3,0-0.6,0-0.6-0.4C516.7,482.8,517,483,517,483.2z"/>
	<path class="st216" d="M561.4,491.4c0.1-0.2,0.2-0.7,0.4-0.5s0.2,0.8-0.2,1C561.3,491.8,561.5,491.5,561.4,491.4z"/>
	<path class="st217" d="M567,491.7c-0.2-0.2-0.5-0.5-0.1-0.9C567.3,491.1,567,491.5,567,491.7z"/>
	<path class="st218" d="M558,500.8c-0.1,0.2-0.4,0.3-0.6,0.1c0,0-0.1,0-0.1-0.1c0,0,0-0.1,0-0.1C557.6,500.5,557.9,500.6,558,500.8
		C558,500.8,558,500.8,558,500.8z"/>
	<path class="st219" d="M560.6,501.3l-0.4,0.2h-0.4C560,501.2,560.2,501,560.6,501.3z"/>
	<path class="st220" d="M561.4,491.4c0.2,0.1,0.2,0.4,0.2,0.6s0,0.4-0.2,0.1C561.3,491.8,561.3,491.6,561.4,491.4z"/>
	<path class="st221" d="M459,473.1c0-0.2,0-0.4,0-0.6h0.2c0,0.2,0,0.4,0,0.6s0,0.2-0.1,0.2S459.1,473.2,459,473.1z"/>
	<path class="st222" d="M576,484l-0.2-0.4c-0.3-0.3,0.1-0.7-0.2-1s-0.1-0.8-0.2-1.3C576.3,482.1,576,483.1,576,484z"/>
	<path class="st223" d="M573.3,475.6c0.5,0.4,0.7,1.1,0.6,1.7c-0.3-0.5-0.6-1-0.8-1.5C573,475.7,573.1,475.6,573.3,475.6z"/>
	<path class="st224" d="M573.3,475.6l-0.2,0.2l-0.5-0.4C572.8,475.4,573.2,475.2,573.3,475.6z"/>
	<path class="st6" d="M575.6,482.6c0.1-0.1,0.1-0.4,0.2-0.1c0,0.3,0,0.7,0,1h-0.2C575.7,483.3,575.7,483,575.6,482.6z"/>
	<path class="st225" d="M576.2,491.4c-0.2-0.3-0.1-0.5-0.1-0.8C576.3,490.8,576.3,491.2,576.2,491.4z"/>
	<path class="st226" d="M504.5,440.1l-0.6-0.4c0.3,0,0.5,0,0.8,0c0.1,0,0.4,0.1,0.2,0.3S504.6,440.1,504.5,440.1z"/>
	<path class="st38" d="M553.6,453.8c-0.1-0.1-0.2-0.1-0.3-0.2c-0.2-0.2-0.4-0.5-0.1-0.7s0.4,0.2,0.6,0.4c0.1,0.1,0.1,0.2,0.1,0.3
		C553.9,453.8,553.8,453.9,553.6,453.8z"/>
	<path class="st227" d="M553.6,453.8l0.3-0.3c0.3,0.2,0.3,0.5,0.2,0.8C553.7,454.3,553.8,454,553.6,453.8z"/>
	<path class="st36" d="M530.7,448.6l0.2,0.2c-0.2,0.2-0.5,0.4-0.8,0.4C530.2,448.9,530.5,448.8,530.7,448.6z"/>
	<path class="st228" d="M534.7,500.3c0.2-0.6-0.5-1.3,0.2-1.9c0.3,0.4,0,0.9,0.4,1.2c0.5-0.2,0.3-0.7,0.4-1c0.2,0.1,0.2,0.3,0.1,0.4
		c0,0,0,0,0,0c-0.3,0.7,0.1,1.1,0.6,1.4c1,0.5,1.1,1.5,1.6,2.3c0.1,0,0.2,0.1,0.2,0.1s0-0.2,0-0.3l-0.2-0.8c-0.1-0.2,0-0.2,0.2-0.2
		c0.1,0.3,0.3,0.5,0.6,0.6c0.2,0.5,0.2,1.1,0,1.6c0,0.2-0.1,0.5-0.3,0.5s-0.6-0.3-0.7-0.6c-0.2-0.9-0.7-1.6-1.4-2.2
		c-0.5-0.3-1-0.8-1.4-1.3C535,500.1,535,500.4,534.7,500.3z"/>
	<path class="st209" d="M536.3,503.3c0.6,0.4,0.5,1.2,0.8,1.8c0,0.1,0,0.3-0.2,0.3s-0.3-0.3-0.4-0.5
		C535.6,504.4,535.5,503.8,536.3,503.3z"/>
	<path class="st153" d="M536.3,503.3c-0.8,0.6-0.2,1.1,0.2,1.6c-0.4,0.5,0.3,0.7,0.2,1.1c-1-1-1.1-1.3-0.9-3.5
		C536,502.7,535.8,503.3,536.3,503.3z"/>
	<path class="st229" d="M544.7,512.4c0.4-0.5,0.8-1.1,1.4-0.2c0.1,0.2,0.5,0.3,0.3,0.5c-0.2,0.2-0.6,0.2-0.8,0c0,0,0,0,0,0
		c-0.5-1-0.5,0.2-0.7,0.2S544.5,512.6,544.7,512.4z"/>
	<path class="st136" d="M538.9,503.7v-1.6c0.8,0.5,1.2,1.3,1.2,2.2c0.1,0.2,0.3,0.5-0.2,0.6c-0.1-0.7-0.3-1.4-0.6-2
		C539,503.1,539.2,503.5,538.9,503.7z"/>
	<path class="st230" d="M544.1,511.6c-0.8-0.6-0.3-1.4-0.4-2.2c0.2,0.5,0,1.2,0.8,1.3c0.2,0,0.2,0.4-0.2,0.4
		S544.1,511.4,544.1,511.6L544.1,511.6z"/>
	<path class="st154" d="M536.6,499.1c-0.5-0.7-0.2-1.4-0.2-2.1C536.9,497.7,537,498.5,536.6,499.1z"/>
	<path class="st153" d="M544.7,512.4l0.2,0.4c-0.7,0.6-0.8,0-0.9-0.4c-0.1-0.2,0.1-0.5,0.1-0.8l0,0
		C544.3,511.8,544.2,512.3,544.7,512.4z"/>
	<path class="st231" d="M534.7,500.3c0.2,0,0.1-0.4,0.4-0.2c0,0.8,0,1.6,0.2,2.4C534.9,501.8,535,501,534.7,500.3z"/>
	<path class="st153" d="M539.6,501.9c-0.6-0.2-1.1-0.6-1.3-1.1C538.8,501.1,539.2,501.4,539.6,501.9z"/>
	<path class="st232" d="M539.9,504.9c0.2-0.1,0.2-0.4,0.2-0.6c0.3,0.6,0.3,1.4,0,2l0,0C540.1,505.8,540,505.3,539.9,504.9z"/>
	<path class="st166" d="M543.9,507.2c0.3-0.1,0.4,0.5,0.8,0.2c0.1,0,0.1,0.1,0.1,0.1c0,0,0,0.1-0.1,0.1c-0.7,0.7-0.8,0-1-0.4
		C543.7,507.1,543.8,507.1,543.9,507.2z"/>
	<path class="st142" d="M544,502.4c0.5,0.2,0.8,0.7,0.6,1.2C544.4,503.2,544.3,502.9,544,502.4z"/>
	<path class="st141" d="M538.6,505.7c0.1,0.1,0.2,0.2,0.2,0.4c0.1,0.2,0.1,0.3-0.2,0.4s-0.3,0-0.3-0.2
		C538.4,506,538.5,505.9,538.6,505.7z"/>
	<path class="st233" d="M546.7,506c-0.4-0.2-0.5-0.5-0.3-0.9C546.8,505.4,546.6,505.8,546.7,506z"/>
	<path class="st234" d="M543.1,509.8c0,0.1,0,0.3-0.2,0.3s-0.2-0.2-0.2-0.3s0-0.3,0.2-0.3S543,509.7,543.1,509.8z"/>
	<path class="st144" d="M538.3,502.5c0.3,0.2,0.2,0.5,0.3,0.7c-0.4,0-0.4-0.3-0.5-0.5L538.3,502.5z"/>
	<path class="st133" d="M530,491.4v-0.2c0.2,0.1,0.5,0.3,0.5,0.7C530.2,491.8,530.1,491.6,530,491.4z"/>
	<path class="st165" d="M538.3,501.5l-0.2,0.2c-0.2-0.1-0.3-0.4-0.3-0.6C538.1,501,538.2,501.3,538.3,501.5z"/>
	<path class="st134" d="M544.7,509.6c-0.1-0.1-0.2-0.2-0.2-0.2s0-0.3,0.2-0.2s0.1,0.1,0.1,0.2S544.7,509.5,544.7,509.6z"/>
	<path class="st139" d="M540.1,506.2c-0.2,0.3-0.5,0.4-0.8,0.3C539.5,506.3,539.8,506.2,540.1,506.2z"/>
	<path class="st144" d="M537.4,507.4c-0.3-0.1-0.4-0.3-0.4-0.6C537.3,506.9,537.4,507.1,537.4,507.4z"/>
	<path class="st153" d="M543.9,507.2h-0.2l-0.3-0.4c0.1,0,0.2-0.1,0.2-0.1C543.8,506.9,543.8,507,543.9,507.2z"/>
	<path class="st141" d="M544.7,507.6v-0.2c0.1-0.1,0.2-0.2,0.3-0.3s0.1,0.1,0.1,0.1C545.1,507.5,544.9,507.7,544.7,507.6
		C544.7,507.6,544.7,507.6,544.7,507.6z"/>
	<path class="st133" d="M534.2,495.2c0.2-0.1,0.2-0.2,0.2-0.2c0.1,0.1,0.2,0.1,0.3,0.2c0,0.1,0,0.2-0.1,0.1
		C534.4,495.3,534.3,495.2,534.2,495.2z"/>
	<path class="st230" d="M546.2,514c-0.1-0.1-0.1-0.1-0.1-0.2c0-0.1,0.1-0.2,0.2-0.2c0.1,0,0.1,0.1,0.2,0.2
		C546.4,514,546.4,514.1,546.2,514z"/>
	<path class="st154" d="M486.1,523.5c0-0.2,0-0.4,0.3-0.2c0.7,0.4,1.5,0.8,2.3,1C487.7,524.4,486.8,524.1,486.1,523.5L486.1,523.5z"
		/>
	<path class="st5" d="M501.5,524.9H501c-0.1-0.1-0.2-0.3-0.4-0.4l-0.6-0.6c0-0.1,0.1-0.1,0.2,0c0,0,0,0,0,0l1.4,0.4L501.5,524.9z"/>
	<path class="st129" d="M500.2,522.6c-0.3-0.2-0.3-0.3-0.3-0.3c-0.1-0.4-0.5-0.7-0.2-1.2c0,0,0.2,0,0.2,0
		C500.4,521.5,500.1,522,500.2,522.6z"/>
	<path class="st157" d="M500.6,524.5c0.2,0,0.4,0.1,0.4,0.3c0,0,0,0,0,0.1c-0.4,0.6-1,0.6-1.6,0.8c-0.1,0-0.1-0.1-0.1-0.1
		s0-0.1,0.1-0.1C499.7,525.1,500.6,525.4,500.6,524.5z"/>
	<path class="st144" d="M480.3,519.6c0.1,0.2,0.4,0.1,0.6,0.3l-1.7,0.2c0.1-0.5,0.7-0.2,0.9-0.6
		C480.1,519.5,480.2,519.5,480.3,519.6C480.3,519.5,480.3,519.6,480.3,519.6z"/>
	<path class="st235" d="M481.2,519.1c-0.5,0-0.9,0.1-1.2-0.2C480.5,518.8,480.5,518.8,481.2,519.1z"/>
	<path class="st209" d="M499.4,525.5c0,0.1,0,0.1,0,0.2h-1.2v-0.2C498.6,524.9,499,525.5,499.4,525.5z"/>
	<path class="st154" d="M487.1,517.9c-0.1-0.3,0-0.5,0.2-0.6c0.1,0,0.2,0,0.2,0.1C487.5,517.6,487.5,517.8,487.1,517.9z"/>
	<path class="st233" d="M475.6,518.7c0,0,0.1-0.5,0.4-0.3c0.1,0,0.1,0.2,0.1,0.2C475.9,518.9,475.6,518.7,475.6,518.7z"/>
	<path class="st133" d="M483.1,520c0.4-0.7,0.7,0,1.2,0.1c-0.5,0.2-0.9-0.2-1.2,0.1C483,520.2,483,520.1,483.1,520
		C483,520,483,520,483.1,520z"/>
	<path class="st235" d="M483.1,520v0.2h-0.9C482.5,519.6,482.8,519.8,483.1,520z"/>
	<path class="st165" d="M480.3,519.6h-0.2c-0.1,0-0.2,0-0.3,0c-0.2-0.2,0-0.2,0.1-0.2h1C480.7,519.7,480.5,519.5,480.3,519.6z"/>
	<path class="st125" d="M474.9,519.8c-0.4,0.1-0.7-0.2-0.8-0.8C474.5,519.2,474.8,519.4,474.9,519.8z"/>
	<path class="st157" d="M474.9,518.8c-0.4,0-0.6-0.1-0.7-0.4C474.6,518.3,474.8,518.5,474.9,518.8z"/>
	<path class="st149" d="M494.8,519c0.3,0.2,0.6,0.6,0.6,1C495.1,519.8,494.8,519.4,494.8,519z"/>
	<path class="st235" d="M476.4,520c-0.1-0.1-0.3-0.1-0.3-0.2c-0.1-0.2,0.2-0.2,0.3-0.3s0.2,0,0.2,0.1
		C476.5,519.7,476.5,519.9,476.4,520z"/>
	<path class="st229" d="M474.9,519.8c0.2,0,0.5,0,0.7,0.2c0,0-0.1,0.2-0.2,0.2C475,520.3,475.1,519.9,474.9,519.8z"/>
	<path class="st153" d="M500.2,523.9H500c-0.3-0.2-0.5-0.4-0.6-0.8C499.7,523.3,500,523.6,500.2,523.9z"/>
	<path class="st161" d="M486.1,523.5c-0.3,0.3-0.4,0-0.6-0.2C485.8,523.2,485.9,523.5,486.1,523.5L486.1,523.5z"/>
	<path class="st134" d="M473.6,517.3c0.1,0,0.3,0.1,0.3,0.2c0,0.1,0,0.2-0.2,0.1c-0.1,0-0.2-0.1-0.2-0.2
		C473.5,517.5,473.5,517.3,473.6,517.3z"/>
	<path class="st144" d="M473.2,516.4c0.1,0.1,0.2,0.1,0.3,0.2s-0.1,0.1-0.1,0.1c-0.1-0.1-0.2-0.1-0.3-0.2L473.2,516.4z"/>
	<path class="st144" d="M501.5,526.5c0-0.3-0.6-0.5-0.2-1c0.3,0,0.5,0.1,0.8,0.2l0.8-0.4c-0.3,0.4,0.4,0.5,0.3,0.8
		c-0.3,0.1-0.7,0.3-0.9,0.6C502,526.8,501.7,526.9,501.5,526.5z"/>
	<path class="st165" d="M510.1,520.6c-0.3,0.2-0.8,0.2-1,0.5c0.4,0.2,0.8,0,1.2-0.1c-0.6,0.8-1.8,0.3-2.5,0.9l1.6-1.5
		C509.6,520.3,510,519.9,510.1,520.6z"/>
	<path class="st236" d="M501.5,526.5l0.8,0.2h0.2c-0.3,1.1-1,0.4-1.6,0.4l-0.2-0.2c-0.1-0.3,0.1-0.3,0.3-0.3
		C501.3,526.7,501.4,526.6,501.5,526.5L501.5,526.5z"/>
	<path class="st144" d="M510.1,520.6c-0.2-0.3-0.6,0-0.8-0.2V520c0.3-0.2,0.2-0.5,0.2-0.8C510.3,519.4,510.3,519.9,510.1,520.6z"/>
	<path class="st149" d="M506.6,522.2c0.1-0.4,0.3-0.6,0.6-0.6C507.1,521.9,507,522,506.6,522.2z"/>
	<path class="st159" d="M504.1,486.9c-0.1,0.1-0.2,0.1-0.3,0.2c0,0-0.2-0.1-0.2-0.2c0-0.1,0.1-0.2,0.2-0.2c0,0,0,0,0,0
		C503.9,486.7,504,486.8,504.1,486.9z"/>
	<path class="st149" d="M504.6,486c-0.1,0-0.1,0.1-0.2,0.1c-0.1,0-0.2,0-0.1-0.1c0-0.1,0.1-0.1,0.2-0.1
		C504.6,485.8,504.7,485.9,504.6,486z"/>
	<path class="st237" d="M515.2,509.5c-0.1,0-0.1,0.2-0.2,0.2s-0.3,0-0.2-0.2c0.1-0.1,0.1-0.2,0.3-0.2
		C515.1,509.3,515.2,509.4,515.2,509.5z"/>
	<path class="st238" d="M471.9,514.4c0.1,0.2,0.4,0.4,0.1,0.7c-0.3-0.3-0.5-0.7-0.6-1.1L471.9,514.4z"/>
	<path class="st239" d="M469.2,505.7c0.3-0.2,0.1-0.6,0.4-0.8c0.1,0.5,0,1-0.4,1.4V505.7z"/>
	<path class="st125" d="M516.6,514.8c-0.5,0.8-0.7,1.7-1.8,1.9C515.4,516.1,515.8,515.2,516.6,514.8z"/>
	<path class="st158" d="M514,516.5c0-0.3,0.1-0.5,0.4-0.6C514.5,516.2,514.2,516.3,514,516.5z"/>
	<path class="st159" d="M535.6,516.3c0,0.1,0,0.2-0.1,0.2s-0.1-0.1-0.2-0.2s0.1-0.1,0.1-0.2L535.6,516.3z"/>
	<path class="st209" d="M504.3,496.1c-0.7,0.7-1.2,1.5-1.7,2.4C502.7,496.5,502.9,496.2,504.3,496.1z"/>
	<path class="st150" d="M500.6,512.8c0-0.6,0.1-0.7,0.4-0.8C500.9,512.3,500.8,512.6,500.6,512.8z"/>
	<path class="st118" d="M502.1,525.7c-0.3,0.2-0.6,0.2-0.8-0.2l0.2-0.2C501.8,525.3,502.1,525.5,502.1,525.7z"/>
	<path class="st240" d="M508.7,455.8l0.2,0.2c-0.8,0.4-1.4,1.1-2.2,1.5C507.2,456.7,507.9,456.2,508.7,455.8z"/>
	<path class="st241" d="M506.9,455.2l0.2-0.4c0.4-0.4,0.8-0.1,1.2-0.2v0.2C507.8,454.7,507.4,455,506.9,455.2z"/>
	<path class="st242" d="M507.9,454.2V454c0.6-0.1,1.3,0.2,1.6,0.8h-0.4C508.8,454.4,508.4,454.2,507.9,454.2z"/>
	<path class="st79" d="M472,520.8c0.5,0.4,0.8,0.9,1.1,1.5C472.4,522,472,521.4,472,520.8z"/>
	<path class="st243" d="M471.5,521.4c-0.3-0.3-0.6-0.7-0.6-1.1C471.3,520.5,471.6,520.9,471.5,521.4z"/>
	<path class="st64" d="M471.8,519.6c0.4,0,0.6,0.3,0.6,0.8L471.8,519.6z"/>
	<path class="st244" d="M501.5,526.5c0,0.6-0.6,0-0.8,0.4c-0.1-0.1-0.2-0.2-0.2-0.4L501.5,526.5z"/>
</g>
</svg>
