<svg xmlns="http://www.w3.org/2000/svg" viewBox="0 0 1024.8 729.86"><defs><style>.cls-1,.cls-7{fill:#6b3c03;}.cls-2{fill:#f2b0a5;}.cls-3{fill:#d8b498;}.cls-4{fill:#f4c7bd;}.cls-5{fill:#b66b18;}.cls-6{fill:#ee9c26;}.cls-7{opacity:0.25;}.cls-8{fill:#f7cea6;}.cls-9{fill:#eee;}.cls-10{fill:#fff;}.cls-11{fill:#1e0e00;}.cls-12{fill:#7b5743;}.cls-13{fill:#ff9b6a;}.cls-14{fill:#ec7a66;}.cls-15{fill:#392333;}.cls-16{fill:#1d1d1b;}.cls-17{fill:#e64041;}.cls-18{fill:#30261a;}.cls-19{fill:#ec8cb3;}.cls-20{fill:#5996bf;}.cls-21{fill:#e7eff2;}.cls-22{fill:#4c4f4f;}.cls-23{fill:#593e39;}.cls-24{fill:#30211f;}.cls-25{fill:#e3c8c4;}</style></defs><g id="Layer_2" data-name="Layer 2"><g id="Layer_1-2" data-name="Layer 1"><path class="cls-1" d="M599.49,117c3.28,7.52,9.79,13.06,15,19.43,4.61,5.68,10.16,35.29,5.78,41.65-2.75,4-6.64,7.08-9.64,10.9a30.8,30.8,0,0,0-6.44,20.43c.54,10,6,19.25,6.85,29.25,1.06,11.92-4.75,23.88-13.81,31.7s-21,11.77-33,12.57c-10.94.73-22.2-1.12-31.8-6.41s-17.39-14.22-20.2-24.81c-1.85-6.92-2.21-15.37-8.29-19.16a19.51,19.51,0,0,0-7.24-2.26,188.44,188.44,0,0,0-19.1-2.13c-7.55-.45-15.26-.47-22.44-2.84-9.32-3.07-17-9.91-22.88-17.76-4.81-6.44-8.69-14.21-7.79-22.19,1.16-10.27,9.63-17.85,16.45-25.61,19.89-22.65,29.35-54.12,53.11-72.67,12.89-10.08,29-15.38,45.24-17.46a185.38,185.38,0,0,1,31.25-.94c6.66.28,29.49,10.81,28.77,17.64C598.2,96.83,595,106.63,599.49,117Z"/><path class="cls-1" d="M566.58,50.82c-8,2.06-16.31.34-24.52.19-7.32-.13-34.06,13.73-36.37,21.1-1.45,4.63-1.49,9.6-2.65,14.31a30.79,30.79,0,0,1-12.13,17.66c-8.23,5.75-18.84,7.15-27.26,12.61-10,6.52-15.89,18.46-16.47,30.41s3.68,23.82,10.41,33.72c6.16,9.07,14.55,16.8,24.63,21.1s21.91,4.94,32,.64c6.59-2.81,13.47-7.73,20.2-5.28a19.49,19.49,0,0,1,6.24,4.32,185.26,185.26,0,0,1,13.44,13.73c5,5.67,9.77,11.73,16.06,15.93,8.16,5.45,18.28,7.29,28.09,7.08,8-.17,16.54-1.9,22.28-7.52,7.37-7.24,8.13-18.59,10-28.74,5.59-29.62,24.56-56.45,24.54-86.6,0-16.36-5.76-32.33-14.12-46.39a184.64,184.64,0,0,0-18.51-25.2c-4.31-5.08-26.67-16.57-31.61-11.8C583.24,39.45,577.49,48,566.58,50.82Z"/><path class="cls-1" d="M622.78,217.27l1.56.33a84.52,84.52,0,0,1,13.2-30.22c2.15-3.06,4.54-6,6.86-8.92a130.45,130.45,0,0,0,9-12.18,64,64,0,0,0-6.67-76.66l-1.19,1.07a62.4,62.4,0,0,1,6.51,74.74,127.3,127.3,0,0,1-8.92,12c-2.33,2.9-4.74,5.9-6.92,9A85.86,85.86,0,0,0,622.78,217.27Z"/><path class="cls-2" d="M376.75,145.31c-.72-4.3-1.09-8.65-1.46-13q-.89-10.29-1.75-20.6a3.53,3.53,0,0,0-.44-1.7c-.89-1.34-2.93-.89-4.43-.29-4.22,1.71-8.57,3.5-11.73,6.78-4,4.13-5.52,10.17-5.33,15.91s1.94,11.31,3.73,16.77c4.48,13.67,9.46,27.42,17.93,39a5.61,5.61,0,0,0,7,2.87c3.62-.74,10.36-2.36,12-6.23s-3.62-8.88-5.48-12A80.62,80.62,0,0,1,376.75,145.31Z"/><path class="cls-3" d="M375.07,187.89l16.13-10.1S446.33,226.37,524.52,197l13.42,46.89L435.1,257.36l-47.4-43.45Z"/><path class="cls-4" d="M583.4,212.49c-22.32,3.78-46.9,5.16-65.94-7.07a3.59,3.59,0,0,1-1.53-1.53,3.79,3.79,0,0,1,.53-2.93,71.48,71.48,0,0,0,3.85-10A75.67,75.67,0,0,0,523,160.06c-.89-7.45-1.14-9.05,6-12.14A159.55,159.55,0,0,1,549.47,141c5.17-1.43,10.5-2.65,15.84-2.21s10.76,2.73,13.83,7.13c2.34,3.34,3,7.31,3,11.43a90,90,0,0,1-.94,10.76A133,133,0,0,0,583.4,212.49Z"/><path class="cls-2" d="M582.16,157.34l-.24.6c-3.7,8.94-12,15.14-20.47,19.77-7.15,3.89-25.72,11.8-41.14,13.28A75.67,75.67,0,0,0,523,160.06c-.89-7.45-1.14-9.05,6-12.14A159.55,159.55,0,0,1,549.47,141c5.17-1.43,10.5-2.65,15.84-2.21s10.76,2.73,13.83,7.13C581.48,149.25,582.17,153.22,582.16,157.34Z"/><path class="cls-5" d="M324.6,198c5.07,3.78,10.58,7.3,14.13,12.54s4.55,12.88.36,17.62a34.93,34.93,0,0,0-3.4,3.6c-1.67,2.52-1.41,5.92-.19,8.68s3.27,5.06,5.17,7.41c11.13,13.77,18.05,31,31.29,42.75,3.69,3.27,8.17,6.18,13.1,6.14a7.56,7.56,0,0,0,3.88-1c2.33-1.41,3.25-4.36,3.32-7.09.26-8.8-6.07-16.24-12-22.77s-12.13-14.11-11.62-22.9c.44-7.54,5.85-14,7.07-21.43,1.25-7.63-2-15.17-4.14-22.6a54,54,0,0,1-2.31-20.87c.65-5.86,2.6-11.54,2.91-17.43.68-12.72-6.72-25.11-17.37-32.11s-24.06-9-36.69-7.33a40,40,0,0,0-14.1,4.23c-10.45,5.78-14.42,16.92-14.21,28.26.1,5.47,3.43,9.83,6.4,14.29a121.27,121.27,0,0,0,28.38,30Z"/><path class="cls-6" d="M423.42,57.44A55,55,0,0,1,412,84.19c-4.83,6-11,10.49-17.54,14.41q-1.94,1.17-3.9,2.26c-11.64,6.5-33.68,13.62-39.17,26.74-7,16.72-4.27,37-17.46,51.11-4.79,5.11-11.12,8.51-17.57,11.22s-13.54,4.83-20.33,3.25c-6.05-1.41-11.12-5.62-14.95-10.51-5.9-7.55-9.25-16.73-12.39-25.79-.41-1.18-.83-2.37-1.22-3.56a107.7,107.7,0,0,1-4.91-18.72,71,71,0,0,1-.71-7.83,95.9,95.9,0,0,1,1.16-18c.22-1.44.46-2.86.73-4.26,1.84-9.79,4.81-18.53,9.93-26.32a62.59,62.59,0,0,1,19.49-18.56,108.18,108.18,0,0,1,17.68-8.86,183.83,183.83,0,0,1,19.11-6.4c2.35-.66,5.32-1.46,8.76-2.33C343,41,348,39.8,353.47,38.7,384.25,32.45,427.58,28.57,423.42,57.44Z"/><path class="cls-5" d="M318.05,61.76c3.43,5.2,7,10.94,6.42,17.13-4.25.81-7.8-3-10.83-6.08a54.43,54.43,0,0,0-20.51-13.16,108.18,108.18,0,0,1,17.68-8.86Q314.43,56.3,318.05,61.76Z"/><path class="cls-5" d="M356.07,67c-.81,2.35-3.16,4.36-5.6,3.91-3.05-.57-4.25-4.22-4.82-7.28-1.36-7.29-2.52-14.91-6.64-21.08l-.33-.48C343,41,348,39.8,353.47,38.7c1,7.14,1.68,14.31,2.69,20.94C356.53,62.09,356.88,64.65,356.07,67Z"/><path class="cls-6" d="M350.38,77.64c2,7.4,3.89,14.8,5.81,22.21a11.65,11.65,0,0,0,1.63,4.08,4,4,0,0,0,3.81,1.73c.62-.13,1.25-.46,1.84-.24a2.07,2.07,0,0,1,1,1.44c1.88,5.61,2.66,11.79.89,17.44s-6.5,10.59-12.36,11.44a4.09,4.09,0,0,1-1.56,0,3.81,3.81,0,0,1-1.77-1.28c-2.73-3.19-3.11-7.7-3.36-11.89q-1.11-18.18-2.21-36.36c-.23-3.86-2.62-13.51-.38-16.74C347.37,64.23,349.79,75.43,350.38,77.64Z"/><path class="cls-6" d="M311.1,216.8c5.08,3.78,10.58,7.29,14.13,12.53s4.55,12.88.36,17.63a37.24,37.24,0,0,0-3.4,3.6c-1.66,2.52-1.41,5.92-.19,8.68s3.27,5.05,5.17,7.4c11.13,13.78,18.05,31,31.29,42.75,3.69,3.28,8.17,6.18,13.1,6.14a7.55,7.55,0,0,0,3.88-1c2.33-1.42,3.25-4.37,3.33-7.09.25-8.8-6.08-16.24-12-22.77s-12.13-14.11-11.62-22.9c.45-7.54,5.85-14,7.07-21.43,1.25-7.63-2-15.18-4.14-22.6a53.81,53.81,0,0,1-2.3-20.88c.64-5.86,2.59-11.54,2.91-17.42.68-12.72-6.73-25.12-17.38-32.11s-24.06-9-36.69-7.33a39.69,39.69,0,0,0-14.09,4.23c-10.46,5.78-14.43,16.91-14.22,28.26.1,5.46,3.44,9.82,6.4,14.29a121.27,121.27,0,0,0,28.38,30Z"/><path class="cls-5" d="M428,130.81c2.37,9,4.75,18.16,4.71,27.48,0,5.7-1.77,12.43-7.13,14.38-3.92,1.42-8.41-.43-11.29-3.44s-4.47-7-6-10.85q-5.82-14.72-11.65-29.41c-3-7.67-6.11-15.54-6.33-23.79s3-17.1,10.07-21.37c3.83-2.32,9-3,12.68-.38,5.14,3.69,6.19,14.09,7.69,19.81Q424.38,117,428,130.81Z"/><path class="cls-4" d="M617.26,112.4c-5.49,19.27-17.87,36.68-34.82,47.38s-38.4,14.34-57.7,8.91c-8.81-2.49-17.46-7.11-22.38-14.82-3-4.7-4.43-10.23-5.24-15.74-2.87-19.38,1.42-39.6,11.16-56.59,1.25-2.17,2.65-4.39,4.19-6.63C520.85,62.79,533.41,50.19,547.4,43c13.42-6.89,28.12-8.8,41.71-.53,11.71,7.13,19.57,19.23,25.12,31.77a60.16,60.16,0,0,1,5.28,17.45C620.29,98.65,619.17,105.68,617.26,112.4Z"/><path class="cls-6" d="M375.24,147.7c1.85,13.05,2.85,26.36,7.25,38.78.9,2.54,2.08,5.2,4.39,6.57a8,8,0,0,0,6.18.58c4.6-1.31,7.82-5.65,9.12-10.25s1-9.48.7-14.25L398.44,100c-.39-6.06-1-12.57-4.86-17.22-4.88-5.8-14-6.78-20.8-3.36-9.93,5-18.57,21.54-11.32,31.68,3.53,4.94,6.67,8,8.79,14.1A120,120,0,0,1,375.24,147.7Z"/><path class="cls-4" d="M310.92,106.33a16.7,16.7,0,0,1-.09-3.62,3.1,3.1,0,0,1,6-.74L322,116.26a239.33,239.33,0,0,1-4.8-44.57,3.81,3.81,0,0,1,3.66-3.93c2.32,0,3.16,2.29,3.65,4.25q4,15.88,6.5,32.11a164.89,164.89,0,0,1-2-39.38,2.52,2.52,0,0,1,4.85-.74,25,25,0,0,1,.89,2.79,301.57,301.57,0,0,1,7.16,34.85q-1.37-15.51-2.74-31a18.53,18.53,0,0,1,0-3.64,3.74,3.74,0,0,1,7.28-.57,61.43,61.43,0,0,1,1.73,10.69A153.16,153.16,0,0,0,358,116.53a1.07,1.07,0,0,0,1.74.47,26.52,26.52,0,0,1,4.67-3.19c1.69-.67,1.56,2.13,1.59,4.64a15.08,15.08,0,0,1-1.2,6c-6.61,15.89,1.49,33.51,4.78,50.36.39,2,.67,4.23-.45,5.93a8,8,0,0,1-2.22,2c-7.19,4.93-18.34,12.21-27.4,12.25-9.79,0-11.79-10.3-13.92-17.95A541.42,541.42,0,0,1,310.92,106.33Z"/><path class="cls-2" d="M597.1,121.42A27.6,27.6,0,0,1,587.81,135c-2.44-2.66-1.39-6.82-.69-10.35,1.85-9.3-.19-19.8-7.1-26.3a30.58,30.58,0,0,0-9.24-5.7c-17.24-7.21-37.8-4.28-54.2-13.24a22,22,0,0,1-5-3.64c8.38-12.11,20.94-24.71,34.93-31.89,11,4.07,21.14,11.25,29.47,19.69,12,12.22,21.39,28,22.42,45.11A36,36,0,0,1,597.1,121.42Z"/><path class="cls-7" d="M396.81,36s-35.47,7.74-7.32,57.62c7.56,11.29,29.23,8.37,29.23,8.37Z"/><path class="cls-6" d="M472.91,81.76A34.07,34.07,0,0,1,459.4,95.32c-9.9,5.41-25.63,7.63-38.66,6a45.68,45.68,0,0,1-18.06-4,33.68,33.68,0,0,1-5.93-3.57,29.36,29.36,0,0,1-8-9.06,27.24,27.24,0,0,1-3-8.33c-.06-.36-.14-.74-.2-1.12-.38-2-.76-4.23-1-6.64a43.29,43.29,0,0,1,.07-9.5,41.46,41.46,0,0,1,2.13-8.91,54.36,54.36,0,0,1,5.42-11,57.91,57.91,0,0,1,6.05-14.32c5.13-8.17,6.66-13.58,12.94-19.15,2.21-2,6.35-1.38,6.72,1,.16,1,.32,2.13.47,3.24A164.33,164.33,0,0,1,420,32.77c0,.29,0,.58,0,.87,5-3.82,11.62-5.68,17.15-6.51-.95-9.17-1.21-14.06-2.21-24A2.61,2.61,0,0,1,436.67.21a3.6,3.6,0,0,1,3.66.88c11,8.47,18.85,19,25.44,29.75C475.25,46.42,482.31,64.6,472.91,81.76Z"/><path class="cls-2" d="M609.6,137.88c2.7.25,5.55.91,7.43,2.87,3,3.14,2.27,8.62-.6,11.91s-7.21,4.87-11.45,5.94a69.42,69.42,0,0,1-8,1.53c-4,.52-8.54.54-11.76-2a9.05,9.05,0,0,1-3.32-8.35C583.5,139.83,601.74,137.15,609.6,137.88Z"/><path class="cls-8" d="M318.62,187.75s43-8.66,52.56-18c0,0,27.67,49,69.87,50.1S516.46,201,516.46,201s51.79,6.45,63.88-13.09c0,0,52.57,77.95,28.67,158.82,0,0-30.72-3.67-86.92,7.45S424,326.92,424,326.92L439.4,302S333.62,287.66,318.62,187.75Z"/><path class="cls-9" d="M420.06,69.41H420L404.21,68a.35.35,0,0,1-.32-.38.35.35,0,0,1,.39-.33l15.78,1.38a.34.34,0,0,1,.32.38A.35.35,0,0,1,420.06,69.41Z"/><path class="cls-9" d="M405,75.92a.35.35,0,0,1-.38-.3.35.35,0,0,1,.29-.41l15.74-2.7a.35.35,0,0,1,.42.29.37.37,0,0,1-.29.42l-15.75,2.7Z"/><path class="cls-9" d="M408.39,82.94a.38.38,0,0,1-.36-.19.36.36,0,0,1,.16-.49l13-6.75a.36.36,0,0,1,.48.16.36.36,0,0,1-.15.48l-13,6.75Z"/><path class="cls-9" d="M453.7,66.49h.06L469,62.13a.36.36,0,0,0-.2-.69l-15.23,4.35a.36.36,0,0,0-.25.44A.36.36,0,0,0,453.7,66.49Z"/><path class="cls-9" d="M469.69,70a.36.36,0,0,0,0-.72l-16,.34a.36.36,0,0,0,0,.72l16-.34Z"/><path class="cls-9" d="M467.73,77.56a.38.38,0,0,0,.31-.26.36.36,0,0,0-.24-.45L453.73,72.7a.37.37,0,0,0-.45.25.35.35,0,0,0,.24.44l14.08,4.15A.3.3,0,0,0,467.73,77.56Z"/><path class="cls-5" d="M397.49,72.53a3.78,3.78,0,0,1-.44,2.24,14.24,14.24,0,0,1-4.75,5.68,33,33,0,0,1-3-10.79,23.74,23.74,0,0,0,3,.33,10.3,10.3,0,0,1,3.08.4A3,3,0,0,1,397.49,72.53Z"/><path class="cls-5" d="M400.35,57.62c-.15.88-1.18,1.29-2.05,1.48a28.87,28.87,0,0,1-6.14.67c-.86,0-1.73,0-2.58,0,.26-2,.57-4.26,1-6.64,2.61,1.25,6.07,1,8.59,2.65C399.85,56.19,400.48,56.86,400.35,57.62Z"/><path class="cls-5" d="M409.37,50.09a2,2,0,0,1-.9.63c-3,1.16-6.42-.19-9.07-2-2.14-1.5-4.08-3.35-6.31-4.66a51.46,51.46,0,0,1,3.72-8,17.23,17.23,0,0,0,2.9,2.21,55.46,55.46,0,0,1,6.47,4.19c2,1.67,3.52,4,3.46,6.61A1.85,1.85,0,0,1,409.37,50.09Z"/><path class="cls-5" d="M296.19,200.44c-.35-5.54-6.66-4.92-11.28-2.14a57.62,57.62,0,0,1,4.33,14.24C293.39,211.21,296.13,205.4,296.19,200.44Z"/><path class="cls-5" d="M288.76,274.92c-2.22-7-8.14-8.27-15.34-8.57a25,25,0,0,0,1.45,11.78c1.73,4.42,4.85,8.08,7.61,12C287.09,286.8,290.16,280.89,288.76,274.92Z"/><path class="cls-6" d="M303.22,289.72c-3.11-4.47-6.84-8.72-8.34-14-2.48-8.63,1.6-17.62,5.52-25.69,4.68-9.64,9.37-19.71,9.51-30.43.12-9.22-3.15-18.11-6.4-26.74q-6.48-17.21-13-34.37c-1.47-3.84-3-7.81-6-10.64-6-5.66-15.29-2.31-15.76,6.1-.34,5.92,3.67,15.47,5.67,21.06,2.79,7.81,7.17,15.4,10.53,23.24,4.62-2.78,10.93-3.4,11.28,2.14-.06,5-2.8,10.77-6.95,12.1a36.65,36.65,0,0,1,.35,7.93,42.86,42.86,0,0,1-3.37,13.13,67.1,67.1,0,0,1,9.5,1.41c4.91,2.54,1.83,10.89-.67,13.33-4.48,3.26-12.26,4.82-17.52,3.51a49.36,49.36,0,0,0-4.11,14.5c7.2.3,13.12,1.59,15.34,8.57,1.4,6-1.67,11.88-6.28,15.17.89,1.26,1.75,2.54,2.51,3.88a31.68,31.68,0,0,1,4.08,15c0,.26,0,.52,0,.78a28.36,28.36,0,0,1,20.57-6A37.9,37.9,0,0,0,303.22,289.72Z"/><path class="cls-5" d="M295.05,248.34c2.5-2.44,5.58-10.79.67-13.33a67.1,67.1,0,0,0-9.5-1.41c-2.12,5.17-4.88,10.17-7.3,15.21-.48,1-.94,2-1.39,3C282.79,253.16,290.57,251.6,295.05,248.34Z"/><path class="cls-5" d="M292.7,323.38c2.57,1.78,6.15,1.48,8.95.08,5.73-2.87,8.72-9.69,8.47-16.09a23.9,23.9,0,0,0-.47-3.68,28.36,28.36,0,0,0-20.57,6C289.1,314.73,288.65,320.56,292.7,323.38Z"/><path class="cls-5" d="M267.44,153.32a107.7,107.7,0,0,1-4.91-18.72,71,71,0,0,1-.71-7.83,122.12,122.12,0,0,0,16.6,2.56c3.78.32,8.54,1.23,9.37,4.93.7,3.07-1.94,5.8-4.39,7.77"/><path class="cls-5" d="M303.25,96.81c.42,2.14-1.22,4.25-3.23,5.13s-4.27.82-6.45.79a197.47,197.47,0,0,0-29.86,1.8c1.84-9.79,4.81-18.53,9.93-26.32.46.31.91.6,1.37.88,8.58,5.17,19,7.55,26.17,14.53A6.39,6.39,0,0,1,303.25,96.81Z"/><path class="cls-10" d="M543.71,73.9l-.18,0a49.78,49.78,0,0,1-15.95-9.32,31.09,31.09,0,0,1-9.67-15.76.84.84,0,0,1,.63-1,.82.82,0,0,1,1,.63A29.49,29.49,0,0,0,528.7,63.3a48.29,48.29,0,0,0,15.42,9,.84.84,0,0,1-.41,1.61Z"/><path class="cls-10" d="M589,142.47a.83.83,0,0,1-.66-.53.82.82,0,0,1,.48-1.08,50.94,50.94,0,0,1,20.95-3.33.84.84,0,0,1-.09,1.68,49,49,0,0,0-20.26,3.21A.77.77,0,0,1,589,142.47Z"/><path class="cls-10" d="M530.44,171.75a50.83,50.83,0,0,1-26.66-12.45.84.84,0,0,1-.06-1.18.83.83,0,0,1,1.18-.06,49,49,0,0,0,32.76,12.51.87.87,0,0,1,.85.84.85.85,0,0,1-.84.84A49.91,49.91,0,0,1,530.44,171.75Z"/><path class="cls-10" d="M552.59,202.61a.85.85,0,0,1-.7-.65.84.84,0,0,1,.64-1,94.63,94.63,0,0,0,15-4.14A30.47,30.47,0,0,0,580,188.24a.84.84,0,1,1,1.3,1.06,32.11,32.11,0,0,1-13.13,9.07,95.49,95.49,0,0,1-15.25,4.23A1,1,0,0,1,552.59,202.61Z"/><path class="cls-10" d="M342.28,183.19a.84.84,0,0,1-.08-1.65,123.21,123.21,0,0,0,18.47-5.89.84.84,0,0,1,.63,1.55,122.77,122.77,0,0,1-18.72,6A.76.76,0,0,1,342.28,183.19Z"/><path class="cls-10" d="M432.6,218.8h0c-5.08-1-10.83-2.19-16.12-4.61a67.82,67.82,0,0,1-10.67-6.5c-8.37-5.93-17.89-13.29-25.07-22.89a.84.84,0,0,1,1.34-1c7,9.41,16.44,16.67,24.7,22.52a65.72,65.72,0,0,0,10.39,6.34c5.12,2.35,10.77,3.49,15.76,4.5a.84.84,0,0,1,.66,1A.85.85,0,0,1,432.6,218.8Z"/><path class="cls-10" d="M318.78,91.37a.84.84,0,0,1-.71-.7,133.9,133.9,0,0,1-1.62-17.1,9.47,9.47,0,0,1,.4-3.62,3.92,3.92,0,0,1,3.07-2.66.84.84,0,1,1,.19,1.67,2.31,2.31,0,0,0-1.69,1.57,8.12,8.12,0,0,0-.29,3,129.22,129.22,0,0,0,1.6,16.89.84.84,0,0,1-.7,1Z"/><path class="cls-11" d="M553.79,110.53a2.17,2.17,0,0,0-.36,0,1.82,1.82,0,0,0-1.53,2.08c.05.33,1.27,8,7.29,11.43,3.79,2.18,8.5,2.18,14,0a1.82,1.82,0,0,0-1.35-3.39c-4.42,1.75-8.06,1.83-10.84.23-4.51-2.59-5.49-8.75-5.5-8.82A1.85,1.85,0,0,0,553.79,110.53Z"/><path class="cls-11" d="M511.77,91a2.17,2.17,0,0,0-.36,0,1.82,1.82,0,0,0-1.53,2.08c.05.32,1.27,8,7.29,11.43,3.79,2.18,8.5,2.18,14,0a1.82,1.82,0,1,0-1.34-3.39c-4.42,1.75-8.07,1.82-10.84.23-4.51-2.6-5.49-8.76-5.5-8.82A1.84,1.84,0,0,0,511.77,91Z"/><path class="cls-12" d="M577.93,114.09a2.41,2.41,0,0,0,2.07-3.61c-.27-.47-6.76-11.36-21.74-11.07a2.41,2.41,0,1,0,.09,4.82c12.08-.18,17.27,8.31,17.48,8.67A2.44,2.44,0,0,0,577.93,114.09Z"/><path class="cls-12" d="M537.18,94a2.51,2.51,0,0,0,1.2-.34,2.41,2.41,0,0,0,.83-3.3c-.27-.46-6.9-11.27-21.87-10.8a2.41,2.41,0,1,0,.14,4.82c12.08-.33,17.37,8.1,17.59,8.46A2.43,2.43,0,0,0,537.18,94Z"/><path class="cls-13" d="M529.06,126.57a31,31,0,0,0,5.18-.2,1.09,1.09,0,0,0-.27-2.17,27.92,27.92,0,0,1-8.46-.24,1.87,1.87,0,0,1-1.15-.49,2,2,0,0,1,.42-.53c2.35-2.46,3.73-4,5.07-5.43s2.7-3,5-5.39a1.09,1.09,0,0,0-1.58-1.51c-2.35,2.46-3.73,4-5.07,5.42s-2.69,3-5,5.39a3.1,3.1,0,0,0-1,2c0,1.35,1.08,2.39,3,2.73A32.77,32.77,0,0,0,529.06,126.57Z"/><path class="cls-10" d="M524.68,124.83a.73.73,0,0,0,.82-.57,8.19,8.19,0,0,1,2.11-3.74,26.4,26.4,0,0,1,3.51-3,.74.74,0,0,0-.89-1.17,27.4,27.4,0,0,0-3.69,3.17,9.51,9.51,0,0,0-2.46,4.42.73.73,0,0,0,.55.87Z"/><path class="cls-14" d="M514.46,140.08c-.05-.62.53-1.24,1.5-1.52a2.7,2.7,0,0,1,2.93.71c1.39,2.35,6.26,8.65,12,9.54a9,9,0,0,0,5.33-.87,3.13,3.13,0,0,1,3.17.24c.7.63.41,1.54-.64,2a16,16,0,0,1-9.29,1.42c-8.85-1.38-14.26-10.15-14.85-11.15A1.05,1.05,0,0,1,514.46,140.08Z"/><path class="cls-10" d="M329.29,79.57a.82.82,0,0,1-.69-.6,27.28,27.28,0,0,1,.17-15.53.84.84,0,0,1,1.6.5,25.54,25.54,0,0,0-.16,14.57.83.83,0,0,1-.92,1.06Z"/><path class="cls-10" d="M319.6,149.48a.84.84,0,0,1-.68-.55,62.73,62.73,0,0,1-2-7.71l-6.88-32.61a15.6,15.6,0,0,1-.43-6.35.85.85,0,0,1,1-.65.84.84,0,0,1,.65,1,14.12,14.12,0,0,0,.42,5.67l6.88,32.61a59.34,59.34,0,0,0,1.92,7.5.85.85,0,0,1-.52,1.07A.86.86,0,0,1,319.6,149.48Z"/><path class="cls-10" d="M402.45,291.67l-.13,0c-10.23-3.15-19.31-8.66-29.78-15.95-9.12-6.35-19.42-14-26.17-24.56a.84.84,0,1,1,1.41-.91c6.59,10.3,16.73,17.84,25.72,24.09,10.34,7.21,19.29,12.64,29.32,15.73a.84.84,0,0,1-.37,1.63Z"/><path class="cls-10" d="M439.1,303.53a.83.83,0,0,1-.72-.75.84.84,0,0,1,.76-.91c10.58-.92,21.27-2.15,31.78-3.67,2.76-.4,6-.88,9.1-1.53,11.25-2.37,22-7.07,32.34-11.62a.84.84,0,0,1,.67,1.54c-10.45,4.58-21.25,9.32-32.67,11.72-3.17.66-6.41,1.15-9.2,1.55-10.54,1.52-21.26,2.76-31.87,3.68Z"/><path class="cls-10" d="M495.55,295.47l-3.42-.53a.84.84,0,0,1-.7-1,.85.85,0,0,1,.95-.7h0A73.73,73.73,0,0,0,503,294.45a23.54,23.54,0,0,0,10.16-1.92.84.84,0,0,1,.71,1.52A25.18,25.18,0,0,1,503,296.12,55.73,55.73,0,0,1,495.55,295.47Z"/><path class="cls-10" d="M405,276.07a.61.61,0,0,1-.18-.05,32.18,32.18,0,0,1-11.64-7.78.84.84,0,0,1,0-1.18.85.85,0,0,1,1.19,0,30.65,30.65,0,0,0,11,7.38.84.84,0,0,1,.48,1.08A.86.86,0,0,1,405,276.07Z"/><path class="cls-10" d="M424.82,284.05a.66.66,0,0,1-.2-.06c-3.78-1.53-7.66-2.94-11.54-4.2a.84.84,0,0,1,.52-1.6c3.91,1.27,7.83,2.7,11.65,4.25a.83.83,0,0,1,.46,1.09A.84.84,0,0,1,424.82,284.05Z"/><path class="cls-10" d="M413.87,287.19h0a33.86,33.86,0,0,1-10.22-3.47.84.84,0,0,1,.78-1.48,32.19,32.19,0,0,0,9.72,3.29.84.84,0,0,1-.26,1.66Z"/><path class="cls-10" d="M606.65,262.74a.84.84,0,0,1-.71-.66,142.34,142.34,0,0,0-10.26-31.68.84.84,0,0,1,1.52-.7,144,144,0,0,1,10.39,32.05.84.84,0,0,1-.66,1A.67.67,0,0,1,606.65,262.74Z"/><path class="cls-10" d="M609.41,314.75a.83.83,0,0,1-.71-.89,161.76,161.76,0,0,0-1.19-34.7.84.84,0,0,1,.71-1,.85.85,0,0,1,.95.71,162.53,162.53,0,0,1,1.2,35.06.85.85,0,0,1-.9.78Z"/><path class="cls-10" d="M600.5,283a.83.83,0,0,1-.71-.7c-.77-4.94-1.75-9.91-2.91-14.77a.84.84,0,0,1,1.63-.38c1.17,4.9,2.16,9.91,2.93,14.89a.84.84,0,0,1-.7,1Z"/><path class="cls-10" d="M595.86,258.32a.84.84,0,0,1-.68-.58l-1.4-4.41a.85.85,0,0,1,.55-1.05.83.83,0,0,1,1,.55l1.39,4.41a.83.83,0,0,1-.54,1.05A.79.79,0,0,1,595.86,258.32Z"/><path class="cls-10" d="M602.06,308.61a.84.84,0,0,1-.72-.91,52.74,52.74,0,0,0-.62-14.52.83.83,0,0,1,.67-1,.85.85,0,0,1,1,.68,54.51,54.51,0,0,1,.64,15,.84.84,0,0,1-.91.76Z"/><path class="cls-1" d="M567.54,62.26c-2.45,8.18-11.94,11.9-20.42,12.94s-17.58.67-24.83,5.19c-10.2,6.36-12.89,19.76-19.49,29.81a41.62,41.62,0,0,1-13.78,13c-7,4.08-16.62,5.73-22.77.45-5.23-4.49-6-12.32-5-19.13,2-13.22,9.41-25,18.07-35.25C496.66,48.92,520.53,33.25,547,29.53s55.43,5.87,71.57,27.22c4.62,6.12,8.24,13.41,8.07,21.08-.23,10-6.73,18.77-8.48,28.61-1.21,6.82-.09,13.8.84,20.66s1.65,14-.31,20.6c-2.07,7-9.73,16.83-17,11.1-6.63-5.27-12.3-12.36-17-19.33a108.3,108.3,0,0,1-17.94-48A101.05,101.05,0,0,1,567.54,62.26Z"/><path class="cls-10" d="M601.21,132.22a.81.81,0,0,1-.39-.17.8.8,0,0,1-.12-1.13c2.56-3.16,3.94-7.58,4.21-13.52a52.71,52.71,0,0,0-.77-11.56c-.37-2-.86-4.08-1.34-6.06a76.53,76.53,0,0,1-1.74-8.65c-.52-4.22-.43-10.24,2.9-14.95a.8.8,0,0,1,1.11-.2.81.81,0,0,1,.2,1.12c-3,4.3-3.11,9.89-2.63,13.83a75.77,75.77,0,0,0,1.71,8.48c.48,2,1,4.08,1.36,6.15a54,54,0,0,1,.79,11.91c-.28,6.3-1.77,11-4.56,14.46A.79.79,0,0,1,601.21,132.22Z"/><path class="cls-10" d="M570.81,115.51a.91.91,0,0,0,.48-.1.81.81,0,0,0,.31-1.09,24,24,0,0,1-2.06-6c-1.72-7-3.51-14.23-4.13-21.51-.7-8.11.18-15.28,2.62-21.31a.8.8,0,0,0-.45-1,.78.78,0,0,0-1,.44c-2.53,6.27-3.45,13.69-2.73,22,.63,7.4,2.43,14.7,4.17,21.75a25.25,25.25,0,0,0,2.21,6.41A.79.79,0,0,0,570.81,115.51Z"/><path class="cls-1" d="M611.76,243.24a28.63,28.63,0,0,0,1.85-5.17,21.49,21.49,0,0,1,2.38-6c2.4-3.68,6.48-6.84,12.15-9.4,2.1-.95,4.32-1.8,6.47-2.62,4.84-1.86,9.86-3.78,14.07-7,7.54-5.78,12.3-16,12.76-27.26.43-10.79-2.71-21.19-5.84-29.94-.29-.83-.59-1.65-.89-2.48-2.43-6.68-4.93-13.58-4.79-20.63a56.59,56.59,0,0,1,1.77-11.35c.53-2.38,1.08-4.83,1.43-7.29.66-4.61.94-13.14-4.6-18.48l-1.1,1.15c5,4.84,4.74,12.8,4.12,17.1-.34,2.4-.89,4.82-1.41,7.16a59.11,59.11,0,0,0-1.81,11.67c-.15,7.36,2.41,14.4,4.88,21.21l.9,2.48c3.07,8.61,6.16,18.82,5.74,29.34-.43,10.82-5,20.56-12.13,26-4,3.09-8.93,5-13.67,6.79-2.17.83-4.41,1.69-6.56,2.66-6,2.68-10.26,6-12.82,10a22.57,22.57,0,0,0-2.58,6.41,28,28,0,0,1-1.75,4.89Z"/><path class="cls-10" d="M493.22,82.09a.76.76,0,0,1-.32-.61.8.8,0,0,1,.78-.82c5.34-.12,9.82-3.16,12.63-5.69a66.13,66.13,0,0,0,8.1-9.41l1.29-1.7c2.78-3.63,6.11-7.75,10.47-10.61,3.77-2.47,8.45-4.1,14.31-5a.79.79,0,0,1,.91.67.8.8,0,0,1-.66.91,33.91,33.91,0,0,0-13.68,4.76c-4.16,2.72-7.38,6.71-10.08,10.24l-1.29,1.69a66.47,66.47,0,0,1-8.3,9.64c-3,2.71-7.83,6-13.67,6.1A.77.77,0,0,1,493.22,82.09Z"/><path class="cls-15" d="M459.42,135.23l1.5-.54c-7.74-21.69-3.75-47.55,10.17-65.9,8.52-11.23,21.1-20.55,36.37-26.95,12.27-5.15,26.43-8.61,44.53-10.91l-.2-1.58c-18.25,2.31-32.54,5.81-44.95,11-15.53,6.51-28.33,16-37,27.47C455.58,86.59,451.5,113.05,459.42,135.23Z"/><path class="cls-1" d="M517,44.58c9.42-2.08,17.27-8.07,24.86-13.86,2-1.56,4.16-3.17,6.26-4.67,4.72-3.38,10.39-6.83,16.64-6.85,5.22,0,10.06,2.39,13.69,4.49a74.81,74.81,0,0,1,17,13.44l1.16-1.1a76.46,76.46,0,0,0-17.34-13.72c-3.81-2.2-8.89-4.72-14.49-4.7-6.7,0-12.64,3.62-17.57,7.14-2.12,1.51-4.25,3.13-6.3,4.7C533.46,35.14,525.75,41,516.68,43Z"/><polygon class="cls-4" points="443.67 26.5 440.67 8.5 455.67 25.5 443.67 26.5"/><polygon class="cls-4" points="411.12 11.77 401.67 30.5 412.67 33.5 411.12 11.77"/><path class="cls-16" d="M424.67,60.19c-.46-2.47-3.62-4.54-6.12-4.35a5.09,5.09,0,0,0-4.43,4.67,2.44,2.44,0,0,1-4.87-.17,9.19,9.19,0,0,1,9.17-9c4.95.13,7.61,4.21,7.66,8.76a.72.72,0,0,1-1.41.13Z"/><path class="cls-16" d="M444.71,57.79c.68-4.77,5.2-9.48,10.11-9.72,4.5-.22,8.67,3,8.84,7.6.11,2.77-4.27,2.64-4.32-.15,0-2.54-3.27-3.71-5.4-3.28-3.49.7-5.14,4-7.41,6.37-.61.63-2,.13-1.82-.82Z"/><path class="cls-17" d="M440,80.41a10.88,10.88,0,0,1-3.29,9.8,4.49,4.49,0,0,1-2.22-5.95c1.17-2.29,2.31-4.55,3.25-7C439.38,78.93,438.4,78.79,440,80.41Z"/><path class="cls-16" d="M436.74,73c.31,2.88.05,6.45-2.23,8.53-1.6,1.47-4.51,2.06-6.15.33-1-1.06-2.74.34-1.76,1.45,2.33,2.63,6.37,2.49,9,.34,3.2-2.62,3.05-7.32,1.64-10.8a.26.26,0,0,0-.49.15Z"/><path class="cls-16" d="M437.24,73.48c-.1,2.76.66,6.53,3.07,8.23,2.17,1.53,5.38,1.6,7.09-.63,1-1.3-1-2.72-2-1.47-1.19,1.46-3.39.83-4.62-.23-1.8-1.55-2.08-3.92-2.9-6a.31.31,0,0,0-.59.1Z"/><path class="cls-16" d="M440.49,70.83c-2-1.11-7.74-1.16-7.1,2.45a3.09,3.09,0,0,0,3.24,2.41,7.58,7.58,0,0,0,4.69-2.1,1.53,1.53,0,0,0,0-2.13,4.38,4.38,0,0,0-7,.38c-.92,1.41,1.18,3.1,2.34,1.85a1.63,1.63,0,0,1,2.45-.14l0-2.13a5.35,5.35,0,0,1-2,1.39c-.24.09-1.48.47-1.48-.06,0-.3,1.65-.66,1.92-.71a9,9,0,0,1,2.48,0c.66.07.87-.91.34-1.21Z"/><path class="cls-10" d="M135.88,495.22a1,1,0,0,1-1.21.18,53.23,53.23,0,0,1-24.5-29.93,1,1,0,0,1,.65-1.26,1,1,0,0,1,1.26.64,51.22,51.22,0,0,0,23.56,28.8A1,1,0,0,1,136,495,1,1,0,0,1,135.88,495.22Z"/><path class="cls-10" d="M191.67,499.5c-15.22,13.43-3.2,38.87,2.36,59.84,13.21-9,26-18.64,38.82-28.25,13.17-9.9,26.39-19.84,38.34-31.21q2.12-2,4.19-4.09a60.69,60.69,0,0,0-14.71-8.29C236.67,477.5,209.67,484.5,191.67,499.5Z"/><path class="cls-18" d="M317.65,401.37c-7.22-5.66-17.14-6.35-26.3-5.67-3.46.25-6.93.66-10.39,1-5.71.54-11.42.85-17-.15-2.76-.49-5.48-1.29-8.27-1.18a18,18,0,0,0-8.63,3c-12.69,7.93-18.6,24.25-31.81,31.29-5.87,3.13-12.12,2.3-18.07,4.51-4.16,1.55-6,5.5-8.74,8.69-5.63,6.49-13.22,10.91-21.14,14.62-1.7,4.56-2.16,9.94-4.59,14-4,10-10,19-22,21-9.58,1.59-20.42,5.09-28.48.86a63.49,63.49,0,0,0-10.56,26c-2.77,17.63,2.84,36.6,15.51,49.16a84.59,84.59,0,0,0,15.47,11.62c4.59,2.81,9.7,5.56,15,5,3-.32,5.83-1.69,8.54-3.06A349.68,349.68,0,0,0,194,559.34c-5.56-21-17.58-46.41-2.36-59.84,18-15,45-22,69-12a60.69,60.69,0,0,1,14.71,8.29c9-9,17.43-18.71,26.15-28.07s18.17-18.88,22.89-30.88S327.81,409.34,317.65,401.37Z"/><path class="cls-11" d="M281,396.68c2.45,4.26,4.47,8.82,3.94,13.61a20.16,20.16,0,0,1-3.09,8.17c-3.19,5.31-7.54,9.81-11.84,14.25l-11.24,11.63a50.93,50.93,0,0,1-9.17,8.07c-6.77,4.25-15.17,5.09-23.14,4.49s-15.79-2.5-23.74-3.27a34.33,34.33,0,0,0-13,.76c-3.71,1.1-7,3.18-10.65,4.59-4.93,1.93-12.61,3.37-18.34,1.43,10.19-4.34,20.55-9.26,27.73-17.54,2.76-3.19,4.58-7.14,8.74-8.69,6-2.21,12.2-1.38,18.07-4.51,13.21-7,19.12-23.36,31.81-31.29a18,18,0,0,1,8.63-3c2.79-.11,5.51.69,8.27,1.18C269.54,397.53,275.25,397.22,281,396.68Z"/><path class="cls-18" d="M247.69,361.69c10,10.06,15.66,20.26,18.05,30.07,4.45,18.18-2.4,35-14.08,47.24-4.32,4.51-10.3,7.14-17,8.47-14.12,2.83-31.34-.19-42.4-3.49-16.28-4.86-31.1-13.76-44.5-24.2-3.21-2.51-6.42-5.16-8.63-8.57-.68-1-1.28-2.37-.76-3.51.64-1.41,2.52-1.62,4.08-1.63a185.26,185.26,0,0,1,39.69,4.35c.3-.9.61-1.8.92-2.7.9-2.61,1.81-5.22,2.78-7.82.81-2.2,1.66-4.38,2.57-6.56a107.36,107.36,0,0,1,4.86-10.21,70.61,70.61,0,0,1,4-6.52,57.09,57.09,0,0,1,6.12-7.5c.9-.94,1.84-1.83,2.8-2.69.58-.5,1.23-1.16,1.07-1.91-.08-.4-15.63-13.25-22.76-25.16-.5-.84-5.09-8.23-3.07-10.16,2.38-2.26,7.34-.5,9.05.28,11.65,5.3,18.44,8.4,29.88,14.17C225.52,346.22,244,358,247.69,361.69Z"/><path class="cls-10" d="M179,415.77q-9.39-1.09-18.79-2a35.92,35.92,0,0,0-9.77,0c-.47.09-1,.25-1.18.71a1.28,1.28,0,0,0,.13,1,11.12,11.12,0,0,0,3.73,4,126.06,126.06,0,0,0,20.46,12.67c2.26,1.11,2.8,1.62,2.7-1.14a37.6,37.6,0,0,1,.17-5.09C176.59,425,178.07,415.66,179,415.77Z"/><path class="cls-10" d="M210,362.17c-4.08-4.8-8-9.67-12-14.56a36,36,0,0,1-5.42-8.12,1.42,1.42,0,0,1-.07-1.38,1.33,1.33,0,0,1,.86-.42,11.2,11.2,0,0,1,5.45.85,125.63,125.63,0,0,1,21.9,10c2.18,1.25,2.91,1.42.56,2.88a35.49,35.49,0,0,0-4.14,3C216.45,355,209.41,361.43,210,362.17Z"/><path class="cls-9" d="M216.6,425.22l0,.06-12.33,14.39a.43.43,0,1,1-.65-.56l12.32-14.39a.43.43,0,0,1,.7.5Z"/><path class="cls-9" d="M212.47,444.36a.43.43,0,0,1-.76-.4l8.34-17.19a.42.42,0,0,1,.57-.2.43.43,0,0,1,.2.57l-8.33,17.19Z"/><path class="cls-9" d="M221.63,446a.44.44,0,0,1-.43.21.42.42,0,0,1-.36-.49l2.5-17.37a.44.44,0,0,1,.49-.36.42.42,0,0,1,.36.48l-2.51,17.37A.3.3,0,0,1,221.63,446Z"/><path class="cls-9" d="M237.18,390.47a.15.15,0,0,0,0-.07l6.38-17.84a.43.43,0,0,0-.26-.55.42.42,0,0,0-.55.26l-6.37,17.84a.43.43,0,0,0,.77.36Z"/><path class="cls-9" d="M251.75,377.38a.43.43,0,0,0-.13-.57.44.44,0,0,0-.6.12L240.24,392.7a.41.41,0,0,0,.11.59.42.42,0,0,0,.6-.11l10.78-15.77Z"/><path class="cls-9" d="M257.71,384.53a.43.43,0,0,0-.64-.56l-13.83,10.8a.43.43,0,0,0,.53.68l13.83-10.8A.41.41,0,0,0,257.71,384.53Z"/><path class="cls-18" d="M202,422.52a1.9,1.9,0,1,1-2.59.69A1.9,1.9,0,0,1,202,422.52Z"/><path class="cls-10" d="M265.74,391.76c4.45,18.18-2.4,35-14.08,47.24-4.32,4.51-10.3,7.14-17,8.47-.21-.28-.42-.58-.62-.88a34.3,34.3,0,0,1-4.65-10.45c-.9-3.6-1.4-7.68-4.21-10.11-1.66-1.42-3.9-2-5.57-3.47-2.18-1.88-3-4.82-4.52-7.27-1.6-2.64-3.94-4.7-6.12-6.87s-4.28-4.58-5.18-7.52c-1.17-3.84.11-8.47,4.49-8.6,5-.14,9.73,2.28,14.76,2,4-.19,8-1.83,11.89-.73,3.43,1,6.17,4.05,9.73,4.22a11.86,11.86,0,0,0,5.46-1.46C255.13,394.08,260.37,391.34,265.74,391.76Z"/><path class="cls-18" d="M94.74,532.43C89,519.89,86.81,505.94,87,492.16c.14-10,1.52-20.09.34-30.05s-5.43-20.19-13.91-25.55c-9.29-5.87-21.16-4.65-32.13-4s-23.4,0-30.73-8.19a12.28,12.28,0,0,1-3.36-7c-.3-3.65,1.75-7.2,4.62-9.47a24.2,24.2,0,0,1,10-4.21c13.83-3,28.32-.67,41.77,3.7,18.25,5.94,36.61,17.25,42.61,35.48,4.08,12.41,1.77,25.87.39,38.86s-1.47,27.17,6.12,37.81c3.67,5.15,8.84,9,13.36,13.42s8.59,9.89,9,16.2c.66,9.75-7.94,16.18-16.3,11.58C108.1,554.85,99.72,543.36,94.74,532.43Z"/><path class="cls-10" d="M236.18,344.35a1,1,0,0,1-1,.28,52,52,0,0,1-22.4-11.6,1,1,0,0,1-.09-1.41,1,1,0,0,1,1.41-.09,50.06,50.06,0,0,0,21.54,11.15,1,1,0,0,1,.74,1.21A1,1,0,0,1,236.18,344.35Z"/><path class="cls-10" d="M140.67,492.5c12-2,18-11,22-21,2.43-4.07,2.89-9.45,4.59-14-2.18,1-4.39,2-6.59,2.92-3.12,1.33-6.22,2.61-9.21,3.91-7.46,3.25-14.91,6.69-21.63,11.32a69.11,69.11,0,0,0-17.64,17.72C120.25,497.59,131.09,494.09,140.67,492.5Z"/><path d="M121.5,495.88A20.17,20.17,0,0,1,112,493.8l-.5-.26.32-.47a69.92,69.92,0,0,1,17.77-17.84c6.93-4.78,14.53-8.24,21.71-11.37,1.8-.78,3.65-1.56,5.51-2.34l3.7-1.57c2.53-1.07,4.62-2,6.58-2.92l1.1-.51-.42,1.14a51.24,51.24,0,0,0-1.58,5.46,31.81,31.81,0,0,1-3.06,8.64c-3.47,8.69-9.18,19-22.34,21.23h0c-1.78.3-3.65.67-5.46,1A73,73,0,0,1,121.5,495.88Zm-8.57-2.71c6.32,3,14.37,1.42,22.17-.13,1.81-.36,3.69-.73,5.48-1h0c12.67-2.11,18.21-12.17,21.62-20.7a31.05,31.05,0,0,0,3-8.43c.37-1.48.75-3,1.22-4.44-1.66.76-3.45,1.55-5.53,2.43l-3.71,1.57c-1.86.78-3.7,1.56-5.5,2.34-7.14,3.11-14.68,6.54-21.55,11.28A69,69,0,0,0,112.93,493.17Z"/><path class="cls-10" d="M230,391.56a10.65,10.65,0,0,0,5.53-7.17,15,15,0,0,0-1-9.16c-1.15-2.74-3.15-5.33-6-6.24a5.81,5.81,0,0,1,1.7,3.15c1.06,4,1.15,8.36-.79,12s-6.25,6.11-10.21,5.05c1.38.37,2.93,2.34,4.54,2.85A8.63,8.63,0,0,0,230,391.56Z"/><path d="M232.74,390.83a10.26,10.26,0,0,1-2.39,1.59,9.6,9.6,0,0,1-6.87.5,8.87,8.87,0,0,1-2.69-1.67,6.62,6.62,0,0,0-1.81-1.17h0l.49-1.84h0c3.65,1,7.5-1.55,9.14-4.58s1.85-7,.7-11.28a5,5,0,0,0-1.38-2.65l-4-3.23,4.92,1.58c2.76.89,5.1,3.3,6.57,6.79a16,16,0,0,1,1,9.74A12.11,12.11,0,0,1,232.74,390.83Zm-10.17-.6a5.17,5.17,0,0,0,1.48.87,7.59,7.59,0,0,0,5.48-.4h0a9.57,9.57,0,0,0,5-6.53,14.05,14.05,0,0,0-.91-8.57,12.28,12.28,0,0,0-2.55-3.91,1.17,1.17,0,0,1,0,.2c1.28,4.76,1,9.26-.87,12.67A10.91,10.91,0,0,1,222.57,390.23Z"/><path class="cls-10" d="M198.06,427.55a9.43,9.43,0,0,0,7.48-2.87,13.24,13.24,0,0,0,3.49-7.36c.39-2.6.07-5.48-1.65-7.47a5.12,5.12,0,0,1-.16,3.16c-1,3.48-3,6.85-6.11,8.68s-7.53,1.74-10-.88c.87.91,1.14,3.12,2.12,4.24A7.6,7.6,0,0,0,198.06,427.55Z"/><path d="M205.65,425.83a10.2,10.2,0,0,1-7.68,2.62h0a8.47,8.47,0,0,1-5.46-2.8,7.89,7.89,0,0,1-1.28-2.52,6.05,6.05,0,0,0-.81-1.69h0l1.31-1.26h0c2.3,2.39,6.33,2.25,8.92.73s4.59-4.41,5.69-8.15a4.45,4.45,0,0,0,.19-2.61l-1.68-4.64,3.22,3.74c2.28,2.66,2.14,6.29,1.85,8.21a14,14,0,0,1-3.73,7.86Zm-12.42-2.56a4.34,4.34,0,0,0,.65,1.18,6.7,6.7,0,0,0,4.27,2.19h0a8.56,8.56,0,0,0,6.74-2.6,12.3,12.3,0,0,0,3.24-6.85,11.24,11.24,0,0,0-.07-3.86c-1.22,4.15-3.52,7.4-6.48,9.15A9.83,9.83,0,0,1,193.23,423.27Z"/><path d="M231.6,425.91a.77.77,0,0,1-1,0,.76.76,0,0,1-.16-1.07,6.87,6.87,0,0,0,1.3-5.35c-1-5.74-8.24-10.85-8.31-10.9l.84-1.28c4.84,3,13.3,7.2,15.42,5.83.14-.09.54-.33.39-1.48a.77.77,0,0,1,.67-.86.76.76,0,0,1,.85.66c.23,1.73-.43,2.57-1.08,3-2.14,1.39-7.12-.53-11.21-2.56a15.81,15.81,0,0,1,3.94,7.37,8.36,8.36,0,0,1-1.58,6.52Z"/><path class="cls-19" d="M222.68,400.45a2.31,2.31,0,0,1,1.9-.44,2.37,2.37,0,0,1,1.18.9,7.47,7.47,0,0,1,1.16,4.5,32.33,32.33,0,0,0,0,4.72,30.07,30.07,0,0,1-5.67.75,6.91,6.91,0,0,1-2.4-.23,3.19,3.19,0,0,1-2-1.58,3.74,3.74,0,0,1,1.93-4.29,4,4,0,0,1,2.05-.5A4.32,4.32,0,0,1,222.68,400.45Z"/><path class="cls-10" d="M836.67,601.5a504.54,504.54,0,0,1,0-55h3c1-20-3-42-16-57-5-6-13-13-19-14-25.61-5.43-50-3-74.14,1.58a287.63,287.63,0,0,0,13.66,29.54q2.67,5.06,5.5,10c9.48,16.67,20.2,32.75,31.08,48.44,6.34,9.15,12.83,18.3,21,25.85,1.22,1.14,2.49,2.24,3.81,3.28a48.16,48.16,0,0,0,10.68,6.64c7.59,3.36,15.86,4.23,24.15,3.55a10.92,10.92,0,0,1-.74-2.91Z"/><path d="M835.33,605.12a47.21,47.21,0,0,1-19.27-3.8,48.53,48.53,0,0,1-10.79-6.71c-1.27-1-2.56-2.12-3.84-3.3-7.94-7.33-14.24-16.08-21.08-25.93-9.7-14-21-30.72-31.09-48.48-1.89-3.33-3.75-6.71-5.51-10a290,290,0,0,1-13.69-29.59l-.22-.56.6-.11c21.26-4.07,46.72-7.44,74.33-1.58,6,1,14,7.84,19.28,14.17,15.62,18,16.8,43.66,16.12,57.34l0,.48h-3a506.61,506.61,0,0,0,0,54h3l0,.44a10.46,10.46,0,0,0,.72,2.78l.25.63-.68.06C838.71,605.05,837,605.12,835.33,605.12ZM731.22,477.46a290.57,290.57,0,0,0,13.41,28.92c1.76,3.34,3.61,6.71,5.5,10,10.08,17.73,21.35,34.42,31,48.41,6.8,9.8,13.07,18.5,20.93,25.77,1.26,1.16,2.53,2.26,3.78,3.25a48.4,48.4,0,0,0,10.57,6.58c6.74,3,14.56,4.18,23.25,3.55a11.67,11.67,0,0,1-.48-2h-3l0-.47a505.64,505.64,0,0,1,0-55.06l0-.47h3c.62-13.64-.69-38.62-15.9-56.17-5.17-6.2-12.95-12.88-18.71-13.84C777.38,470.22,752.26,473.46,731.22,477.46Z"/><path class="cls-18" d="M895.76,513.61c-.22-.4-.44-.81-.68-1.2-21.31-37.71-56.18-66.21-93.55-88.17-11.66-6.86-24.59-13-35.66-21.2a87.45,87.45,0,0,1-6.83-5.55c-5.73-5.17-6.85-8.15-14.59-3.42-6.06,3.7-10.7,9.57-15.09,15-4.66,5.8-9.5,12-10.53,19.36-.58,4.16.1,8.39.92,12.51q1.56,7.83,3.76,15.45c2,7,4.36,13.88,7,20.66,24.13-4.62,48.53-7,74.14-1.58,6,1,14,8,19,14,13,15,17,37,16,57h-3a504.54,504.54,0,0,0,0,55h3a10.92,10.92,0,0,0,.74,2.91,89.44,89.44,0,0,0,20.31-4.31c.5-.17,1-.33,1.51-.51,14.64-5,29.34-13.43,37.71-26a41.47,41.47,0,0,0,5.36-11.32C910.12,546,904,528.47,895.76,513.61Z"/><path class="cls-18" d="M719.75,441q1.56,7.83,3.76,15.45a52.42,52.42,0,0,0,9.47-4.53,67.63,67.63,0,0,0,17-14.55A72.21,72.21,0,0,0,765.87,403a87.45,87.45,0,0,1-6.83-5.55c-5.73-5.17-6.85-8.15-14.59-3.42-6.06,3.7-10.7,9.57-15.09,15-4.66,5.8-9.5,12-10.53,19.36C718.25,432.62,718.93,436.85,719.75,441Z"/><polyline class="cls-10" points="1024.45 729.51 513.67 222.5 0.35 728.08"/><polygon class="cls-20" points="1024.1 729.86 513.66 223.2 0.7 728.44 0 727.72 513.67 221.8 514.02 222.15 1024.8 729.15 1024.1 729.86"/><path class="cls-18" d="M890.79,683.63c6,3,14.57,1.66,17.7-4.3a7.51,7.51,0,0,0,.9-4.35,10.55,10.55,0,0,0-1.66-4.06c-5.23-8.73-12.83-16.12-16.39-25.66-4.28-11.5-2-24.41,1.95-36s9-24.61,11.56-36.61c.87-4.06,1.95-6.35,1.87-10.53a42.09,42.09,0,0,0-1.1-9c-.83-3.49-5-16.9-9.78-15.59a7.53,7.53,0,0,0-3.54,2.66A36.4,36.4,0,0,0,883.79,561c-.42,6.14.73,12.29.44,18.43a56.79,56.79,0,0,1-3.05,14.85c-2.14,6.6-5,13.08-6.88,19.75a80,80,0,0,0,3.85,54.36C880.91,674.55,884.76,680.63,890.79,683.63Z"/><path class="cls-18" d="M682.76,366.73c-.33-.2-6.92-18.84-15.46-29.39-.6-.75-5.85-7.46-8.31-6.26-2.88,1.42-2.93,6.58-2.79,8.41.95,12.51,1.51,19.8,3,32.26.65,5.58,5.23,26.54,7.4,31.17A70.92,70.92,0,0,0,680.19,423c16.39-15,23.07-40.2,24.26-62.86a72.6,72.6,0,0,0-7.19,1.46C686.22,364.46,684.3,367.71,682.76,366.73Z"/><path class="cls-18" d="M755.78,406.7a110,110,0,0,0,5.12-27c1.76-28.75-12.25-74.5-18.07-58.58a181.06,181.06,0,0,0-9.38,38c-9.3-.25-19.22-.36-28.5,1C716.41,382.9,733.09,407.07,755.78,406.7Z"/><path class="cls-10" d="M705,360.11l-.5.06c-1.19,22.66-7.87,47.83-24.26,62.86,16.67,16.84,38.24,17.41,56.12,9.6,9.54-4.18,15.69-14.61,19.47-25.93C733.09,407.07,716.41,382.9,705,360.11Z"/><path d="M714.22,437.94a47.73,47.73,0,0,1-34.39-14.55l-.37-.37.39-.35C688,415.18,702,397.1,704,360.15l0-.41.4-.06.29,0,.56-.08.16.32c15.68,31.16,32,46.33,49.87,46.33h1.22l-.23.67c-4.5,13.48-11.33,22.55-19.74,26.22A55.64,55.64,0,0,1,714.22,437.94Zm-33.31-14.89c14.79,14.67,34.88,18,55.2,9.12,8-3.5,14.56-12.13,19-25C737,407.11,720.6,392,704.9,361.13,702.77,397.25,689.16,415.32,680.91,423.05Z"/><path class="cls-10" d="M739.42,358q2.18-9,4.54-17.95a35.35,35.35,0,0,1,3.29-9c.25-.41.58-.85,1.06-.85a1.26,1.26,0,0,1,.82.44,10.71,10.71,0,0,1,2.47,4.8,123.67,123.67,0,0,1,4.76,23.08c.26,2.45.55,3.12-2,2.1a35.52,35.52,0,0,0-4.74-1.56C748.74,358.88,739.65,357.1,739.42,358Z"/><path class="cls-10" d="M679.69,368.47c-3-5.37-6.19-10.63-9.35-15.93a35.52,35.52,0,0,0-5.64-7.72c-.34-.32-.79-.66-1.24-.52a1.25,1.25,0,0,0-.68.64,10.75,10.75,0,0,0-1,5.3,122.56,122.56,0,0,0,1.77,23.5c.42,2.42.33,3.15,2.46,1.48a35.56,35.56,0,0,1,4.12-2.8C670.91,371.93,679.22,367.64,679.69,368.47Z"/><path class="cls-11" d="M735.45,395.75l.08,0,17.38-6.49a.42.42,0,0,0,.25-.54.41.41,0,0,0-.54-.24l-17.39,6.48a.41.41,0,0,0-.24.54A.43.43,0,0,0,735.45,395.75Z"/><path class="cls-10" d="M735.38,396.25a.91.91,0,0,1-.86-.59.92.92,0,0,1,.54-1.19L752.44,388a.9.9,0,0,1,.7,0,.93.93,0,0,1,.49.52.94.94,0,0,1,0,.7.86.86,0,0,1-.51.48l-17.55,6.53Zm.07-.5-.1-.49Z"/><path class="cls-11" d="M754.45,398.4a.41.41,0,0,0,.34-.45.42.42,0,0,0-.46-.38l-18.61,1.87a.42.42,0,0,0-.38.46.42.42,0,0,0,.46.38l18.62-1.87Z"/><path class="cls-10" d="M735.76,400.78a.92.92,0,0,1-.71-1.51.91.91,0,0,1,.62-.33l18.61-1.87a.93.93,0,0,1,1,.83.91.91,0,0,1-.75,1h-.08l-18.61,1.87Z"/><path class="cls-11" d="M752.86,407.37a.4.4,0,0,0,.33-.32.42.42,0,0,0-.32-.5L736.05,403a.42.42,0,0,0-.17.82l16.82,3.55Z"/><path class="cls-10" d="M752.78,407.88l-.19,0-16.81-3.55a.91.91,0,0,1-.71-1.09.89.89,0,0,1,.4-.58.88.88,0,0,1,.69-.13L753,406.06a.92.92,0,0,1,.71,1.09.92.92,0,0,1-.74.72Z"/><path class="cls-11" d="M696.57,403h-.08l-18.55-.15a.44.44,0,0,1-.42-.43.41.41,0,0,1,.42-.41l18.56.15a.42.42,0,0,1,.42.42A.41.41,0,0,1,696.57,403Z"/><path class="cls-10" d="M696.49,403.47l-18.56-.16a.92.92,0,0,1-.91-.92.88.88,0,0,1,.28-.65.85.85,0,0,1,.65-.26l18.55.15a.92.92,0,0,1,.16,1.82Zm-18.55-1Zm18.55,0h0Z"/><path class="cls-11" d="M679.62,412a.44.44,0,0,1-.48-.31.42.42,0,0,1,.31-.51l18.13-4.61a.41.41,0,0,1,.51.31.42.42,0,0,1-.3.51l-18.14,4.6Z"/><path class="cls-10" d="M679.55,412.45a.92.92,0,0,1-.22-1.81l18.13-4.6a.91.91,0,0,1,.7.1.89.89,0,0,1,.42.56,1,1,0,0,1-.1.7.93.93,0,0,1-.57.42l-18.2,4.62Zm.07-.5-.09-.5Zm18-5.1Z"/><path class="cls-11" d="M684.18,419.83a.42.42,0,0,1-.29-.77L698.48,410a.42.42,0,0,1,.58.14.43.43,0,0,1-.13.58l-14.6,9.08A.33.33,0,0,1,684.18,419.83Z"/><path class="cls-10" d="M684.11,420.34a.93.93,0,0,1-.78-.43.91.91,0,0,1,.29-1.27l14.6-9.08a.93.93,0,0,1,.69-.12,1,1,0,0,1,.57.41.91.91,0,0,1-.29,1.27L684.6,420.2a1,1,0,0,1-.33.13h-.16Zm14.55-10.07Z"/><path class="cls-21" d="M698.6,384.45a10.57,10.57,0,0,1,0,2.45,10.94,10.94,0,0,1-20.88,3.27,10.95,10.95,0,1,0,20.88-5.72Z"/><path d="M677.08,390.25l-.49-4.2,1.73,3.86a10.34,10.34,0,0,0,8.29,6A10.32,10.32,0,0,0,698,386.83a10.4,10.4,0,0,0,0-2.3l-.49-4.21,1.73,3.87a11.59,11.59,0,1,1-22.11,6.06ZM695,394.76a11.55,11.55,0,0,1-8.52,2.49,11.79,11.79,0,0,1-6.75-3.15A10.29,10.29,0,0,0,698.83,390a9.34,9.34,0,0,0,.07-1.18A11.6,11.6,0,0,1,695,394.76Z"/><path class="cls-10" d="M699.58,390.46a10.95,10.95,0,1,1-9.7-12.06A11,11,0,0,1,699.58,390.46Z"/><path d="M677.17,388a11.59,11.59,0,1,1,23.05,2.51h0A11.59,11.59,0,1,1,677.17,388Zm12.64-9a10.3,10.3,0,1,0,9.12,11.35h0A10.32,10.32,0,0,0,689.81,379Z"/><path class="cls-22" d="M687.47,400.52a11.31,11.31,0,1,1,12.46-10A11.32,11.32,0,0,1,687.47,400.52Zm2.37-21.77a10.59,10.59,0,1,0,9.38,11.67A10.6,10.6,0,0,0,689.84,378.75Z"/><path d="M679.38,396.77a11.9,11.9,0,1,1,1.62,1.66A12.13,12.13,0,0,1,679.38,396.77Zm10.39-17.37a9.94,9.94,0,0,0-10.95,8.8,10,10,0,0,0,8.8,11,10,10,0,0,0,11-8.81h0a9.95,9.95,0,0,0-8.8-11Z"/><path class="cls-23" d="M696.44,390.56a7.16,7.16,0,1,1-6.35-7.9A7.17,7.17,0,0,1,696.44,390.56Z"/><path d="M683.23,394.68a7.73,7.73,0,1,1,1.06,1.09A8.41,8.41,0,0,1,683.23,394.68ZM690,383.31a6.52,6.52,0,0,0-7.18,5.77,6.52,6.52,0,1,0,7.18-5.77Z"/><path class="cls-24" d="M688.78,396.14a25,25,0,0,0,2.41-6.35,11.76,11.76,0,0,0-.45-6.7s-.78.64-.83.7a4.75,4.75,0,0,0-.72,1.64,17.07,17.07,0,0,0-.86,3.52,18.26,18.26,0,0,0-.15,3.62,16.73,16.73,0,0,0,.22,1.87C688.45,394.73,688.89,395.91,688.78,396.14Z"/><path d="M687.91,395.1c-.07-.24-.13-.45-.15-.56a15.62,15.62,0,0,1-.22-1.93,18.81,18.81,0,0,1,.14-3.75,19.45,19.45,0,0,1,.89-3.65l.11-.32a4,4,0,0,1,.76-1.56l.36-.3c.18-.15.4-.31.47-.38l.45.42.62-.23a12.3,12.3,0,0,1,.49,7.08,25.58,25.58,0,0,1-2.48,6.51s0,0,0,0l-.81-.42h-.4A6.82,6.82,0,0,0,687.91,395.1Zm2.47-10.87a3.38,3.38,0,0,0-.46,1.06l-.12.36a17.24,17.24,0,0,0-1,6.88c0,.55.09,1.1.17,1.64a20.8,20.8,0,0,0,1.54-4.51,11.4,11.4,0,0,0-.12-5.47Z"/><path class="cls-10" d="M683.36,389.53a1.69,1.69,0,0,0,.15.7.77.77,0,0,0,.52.46.87.87,0,0,0,.87-.48,3.58,3.58,0,0,0,.29-1,6.29,6.29,0,0,1,1.18-2.57c1-1.27-1.09-1.19-1.71-.5A4.77,4.77,0,0,0,683.36,389.53Z"/><path class="cls-10" d="M687.43,385.33a1,1,0,0,0,.8-.18,2.28,2.28,0,0,0,.58-.62c.08-.13.16-.29.07-.41a.38.38,0,0,0-.13-.09,1.74,1.74,0,0,0-1.62.26A.62.62,0,0,0,687.43,385.33Z"/><path class="cls-21" d="M741.71,377.51a11.24,11.24,0,0,1,0,2.46,10.95,10.95,0,0,1-20.88,3.27,10.95,10.95,0,1,0,20.88-5.73Z"/><path d="M720.18,383.31l-.48-4.2,1.73,3.86a10.37,10.37,0,0,0,8.29,6,10.3,10.3,0,0,0,11.35-9.12,10.49,10.49,0,0,0,0-2.31l-.48-4.19,1.72,3.85a11.6,11.6,0,1,1-22.12,6.06Zm17.92,4.51a11.55,11.55,0,0,1-8.52,2.49,11.67,11.67,0,0,1-6.81-3.21,10.31,10.31,0,0,0,19.18-4,9.55,9.55,0,0,0,0-1.19A11.52,11.52,0,0,1,738.1,387.82Z"/><path class="cls-10" d="M742.69,383.53a10.95,10.95,0,1,1-9.7-12.07A10.94,10.94,0,0,1,742.69,383.53Z"/><path d="M722.76,389.6a11.6,11.6,0,1,1,20.57-6h0a11.59,11.59,0,0,1-20.57,6Zm10.16-17.5A10.3,10.3,0,1,0,742,383.46h0a10.25,10.25,0,0,0-2.21-7.57,10.51,10.51,0,0,0-1.4-1.43A10.26,10.26,0,0,0,732.92,372.1Z"/><path class="cls-22" d="M730.58,393.58a11.31,11.31,0,1,1,12.46-10A11.32,11.32,0,0,1,730.58,393.58ZM733,371.82a10.59,10.59,0,1,0,9.38,11.67A10.59,10.59,0,0,0,733,371.82Z"/><path d="M722.49,389.83a11.83,11.83,0,0,1-2.57-8.78,12,12,0,0,1,23.77,2.59h0a12,12,0,0,1-13.18,10.59,11.84,11.84,0,0,1-6.39-2.73A12.26,12.26,0,0,1,722.49,389.83Zm17.06-13.71a9.93,9.93,0,1,0,2.14,7.3h0A9.92,9.92,0,0,0,739.55,376.12Z"/><path class="cls-23" d="M739.55,383.62a7.16,7.16,0,1,1-6.35-7.89A7.17,7.17,0,0,1,739.55,383.62Z"/><path d="M726.34,387.74a7.73,7.73,0,1,1,1.06,1.09A7.29,7.29,0,0,1,726.34,387.74Zm6.79-11.37a6.51,6.51,0,1,0,4.37,2.39,6.81,6.81,0,0,0-.88-.9A6.42,6.42,0,0,0,733.13,376.37Z"/><path class="cls-24" d="M731.89,389.21a25.26,25.26,0,0,0,2.41-6.36,11.77,11.77,0,0,0-.45-6.7s-.78.64-.83.7a4.71,4.71,0,0,0-.72,1.65,17,17,0,0,0-.86,3.51,18.29,18.29,0,0,0-.15,3.62,16.73,16.73,0,0,0,.22,1.87C731.56,387.8,732,389,731.89,389.21Z"/><path d="M731,388.17c-.07-.24-.13-.45-.15-.56-.11-.64-.18-1.28-.23-1.94a19.66,19.66,0,0,1,.15-3.75,18.42,18.42,0,0,1,.89-3.64l.11-.32a4,4,0,0,1,.73-1.53l.44-.38c.17-.14.35-.28.41-.34l.45.42.63-.23a12.23,12.23,0,0,1,.48,7.08,26,26,0,0,1-2.46,6.52h0l-.81-.43h-.39A5.74,5.74,0,0,0,731,388.17Zm2.48-10.87a3,3,0,0,0-.47,1.05l-.12.36a17.48,17.48,0,0,0-1,6.88c0,.55.1,1.1.18,1.64a21,21,0,0,0,1.54-4.51,11.35,11.35,0,0,0-.12-5.46Z"/><path class="cls-10" d="M726.47,382.6a1.81,1.81,0,0,0,.14.69.81.81,0,0,0,.53.46.86.86,0,0,0,.87-.48,3.52,3.52,0,0,0,.29-1,6.39,6.39,0,0,1,1.18-2.58c1-1.27-1.09-1.19-1.71-.5A4.79,4.79,0,0,0,726.47,382.6Z"/><path class="cls-10" d="M730.54,378.39a1,1,0,0,0,.8-.18,2.24,2.24,0,0,0,.57-.62c.09-.12.17-.29.08-.41a1,1,0,0,0-.13-.09,1.72,1.72,0,0,0-1.62.27A.61.61,0,0,0,730.54,378.39Z"/><path class="cls-25" d="M723.77,413.29a.33.33,0,0,0-.43-.16,7.45,7.45,0,0,1-5.57,0,6.73,6.73,0,0,1-3.46-4.77l-.09-.44v-.24a23,23,0,0,0-.34-4.54c-.08-.4-.71-.3-.64.1,0,.23.08.46.11.69a.34.34,0,0,0-.17.34,26.89,26.89,0,0,0,.4,3.68,21.65,21.65,0,0,1-.33,3,5.52,5.52,0,0,1-.53,1.67,5.86,5.86,0,0,1-1.06,1.32,11.23,11.23,0,0,1-2.84,2,10.89,10.89,0,0,1-3.76,1,.32.32,0,0,0-.26.37.33.33,0,0,0,.37.27,11.53,11.53,0,0,0,6.6-2.87,7.74,7.74,0,0,0,1.25-1.37,5.19,5.19,0,0,0,.73-1.69,14.93,14.93,0,0,0,.33-1.89,8.33,8.33,0,0,0,.8,1.61,6.23,6.23,0,0,0,2.36,2.2,6.63,6.63,0,0,0,2.92.72,9,9,0,0,0,3.45-.59A.33.33,0,0,0,723.77,413.29Z"/><path d="M704.16,417.43a1,1,0,0,1,.2-.77.94.94,0,0,1,.65-.35,10.43,10.43,0,0,0,3.53-1,10.29,10.29,0,0,0,2.67-1.87,5.12,5.12,0,0,0,.94-1.15,5.06,5.06,0,0,0,.46-1.47,24.33,24.33,0,0,0,.33-2.78,27.31,27.31,0,0,1-.41-3.77,1,1,0,0,1,.13-.58l-.06-.36a1,1,0,0,1,1.92-.33,23.11,23.11,0,0,1,.34,4.77l.08.4c.3,1.24,1.14,3.46,3.1,4.34a6.78,6.78,0,0,0,5.07,0,1,1,0,0,1,1.25.5,1,1,0,0,1,0,.78,1,1,0,0,1-.54.52,9.85,9.85,0,0,1-3.68.64,7.46,7.46,0,0,1-3.21-.8,7.09,7.09,0,0,1-2.56-2.35h0a5.54,5.54,0,0,1-.83,1.92,8.16,8.16,0,0,1-1.35,1.47,12.1,12.1,0,0,1-7,3,1,1,0,0,1-.62-.15A1,1,0,0,1,704.16,417.43Zm1,.17h0Zm18.45-3.86h0Z"/><path class="cls-25" d="M708.23,397.4a1.89,1.89,0,0,0-1.2,2.68,7,7,0,0,0,3,3.22,31.16,31.16,0,0,1,3.75,2.42,28.12,28.12,0,0,0,3.5-4.13,6.44,6.44,0,0,0,1.05-2,3,3,0,0,0-.25-2.4,3.53,3.53,0,0,0-4.39-.65,3.71,3.71,0,0,0-1.45,1.38A4.07,4.07,0,0,0,708.23,397.4Z"/><path d="M713.35,406.21a15.9,15.9,0,0,0-2.44-1.62c-.42-.24-.81-.47-1.24-.74a7.4,7.4,0,0,1-3.25-3.55,2.84,2.84,0,0,1-.13-1.82A2.8,2.8,0,0,1,708,396.8h0a4.82,4.82,0,0,1,4.07.19,6.17,6.17,0,0,1,1.26-1,4.16,4.16,0,0,1,5.28.8,3.56,3.56,0,0,1,.35,3,7.14,7.14,0,0,1-1.13,2.24,28.1,28.1,0,0,1-3.58,4.22l-.43.42Zm.57-9.08a3,3,0,0,0-1.11,1l-.35.74-.64-.52a3.41,3.41,0,0,0-3.33-.39h0a1.25,1.25,0,0,0-.85,1.85,6.16,6.16,0,0,0,2.73,2.9l1.19.72a20.26,20.26,0,0,1,2.17,1.38,28.57,28.57,0,0,0,3-3.63,6,6,0,0,0,1-1.83,2.47,2.47,0,0,0-.14-1.84,1.75,1.75,0,0,0-.48-.39A2.87,2.87,0,0,0,713.92,397.13Z"/></g></g></svg>