<svg xmlns="http://www.w3.org/2000/svg" viewBox="0 0 1074.18 613.59"><defs><style>.cls-1{fill:#fff;}.cls-2{fill:#5996bf;}.cls-3{fill:#7fbbdd;}.cls-4{fill:#f7e3e2;}.cls-5{fill:#efefef;}.cls-6{fill:#c69e99;}.cls-7{fill:#c7a09b;}.cls-8{fill:#eb817c;}.cls-9{fill:#f7baa6;}.cls-10{fill:#dd8c8f;}.cls-11{fill:#faa0a0;}.cls-12{fill:#f6f3f3;}.cls-13{fill:#f69f9f;}.cls-14{fill:#fbf9f9;}.cls-15{fill:#f79f9f;}.cls-16{fill:#f9f7f7;}.cls-17{fill:#c9a4a0;}.cls-18{fill:#f9f7f6;}.cls-19{fill:#faf8f7;}.cls-20{fill:#f8f6f6;}.cls-21{fill:#ede9e8;}.cls-22{fill:#f4a2a1;}.cls-23{fill:#e9e4e3;}.cls-24{fill:#f3ebea;}.cls-25{fill:#f7a2a2;}.cls-26{fill:#caa4a1;}.cls-27{fill:#d5bcb9;}.cls-28{fill:#cfb0ac;}.cls-29{fill:#e6dedd;}.cls-30{fill:#eeafaa;}.cls-31{fill:#cca9a5;}.cls-32{fill:#cfafac;}.cls-33{fill:#eebab6;}.cls-34{fill:#f1e6e5;}.cls-35{fill:#cfafab;}.cls-36{fill:#f8f6f5;}.cls-37{fill:#d0afab;}.cls-38{fill:#efe2e1;}.cls-39{fill:#cca9a4;}.cls-40{fill:#eda09a;}.cls-41{fill:#fbfbfb;}.cls-42{fill:#cfb2ad;}.cls-43{fill:#e7dfde;}.cls-44{fill:#d6bcb9;}.cls-45{fill:#eda29e;}.cls-46{fill:#e1a0a3;}.cls-47{fill:#d0b2ae;}.cls-48{fill:#ec8e86;}.cls-49{fill:#e4b2b3;}.cls-50{fill:#eecfcd;}.cls-51{fill:#eecbc8;}.cls-52{fill:#caa7a2;}.cls-53{fill:#cba8a4;}.cls-54{fill:#e6dddc;}.cls-55{fill:#d1b4b1;}.cls-56{fill:#eca7a7;}.cls-57{fill:#ccaba7;}.cls-58{fill:#ec857f;}.cls-59{fill:#e2d6d4;}.cls-60{fill:#eeaaa6;}.cls-61{fill:#d1b3af;}.cls-62{fill:#eed2d0;}.cls-63{fill:#d7c0be;}.cls-64{fill:#eebbb8;}.cls-65{fill:#ceada9;}.cls-66{fill:#cdaca9;}.cls-67{fill:#d4bab7;}.cls-68{fill:#c9a29f;}.cls-69{fill:#d6bdba;}.cls-70{fill:#d3b5b1;}.cls-71{fill:#eeeded;}.cls-72{fill:#f2eae9;}.cls-73{fill:#dac0bd;}.cls-74{fill:#e3d1ce;}.cls-75{fill:#d6bbb7;}.cls-76{fill:#d1b2ad;}.cls-77{fill:#e7d8d6;}.cls-78{fill:#eadddb;}.cls-79{fill:#ddc6c3;}.cls-80{fill:#cba7a3;}.cls-81{fill:#ceaca7;}.cls-82{fill:#f1e9e8;}.cls-83{fill:#e8d8d6;}.cls-84{fill:#ece0df;}.cls-85{fill:#cfada9;}.cls-86{fill:#ece0de;}.cls-87{fill:#e4d4d2;}.cls-88{fill:#d9bfbc;}.cls-89{fill:#f0e7e6;}.cls-90{fill:#ede2e0;}.cls-91{fill:#e2cfcc;}.cls-92{fill:#ede2e1;}.cls-93{fill:#d6b9b5;}.cls-94{fill:#d6bbb8;}.cls-95{fill:#e1cdca;}.cls-96{fill:#c9a29e;}.cls-97{fill:#eee3e2;}.cls-98{fill:#dec8c5;}.cls-99{fill:#dac3c0;}.cls-100{fill:#e7d7d6;}.cls-101{fill:#e1ccca;}.cls-102{fill:#dfc9c6;}.cls-103{fill:#e6d6d4;}.cls-104{fill:#cfaea9;}.cls-105{fill:#f6f2f1;}.cls-106{fill:#f1e8e7;}.cls-107{fill:#efe4e3;}.cls-108{fill:#d4b6b2;}.cls-109{fill:#e4d2d0;}.cls-110{fill:#d8bdb9;}.cls-111{fill:#e8dddc;}.cls-112{fill:#f7f3f3;}.cls-113{fill:#e8d9d8;}.cls-114{fill:#dbc4c1;}.cls-115{fill:#e8dbda;}.cls-116{fill:#fcfcfc;}.cls-117{fill:#f5f1f1;}.cls-118{fill:#fc9e9e;}.cls-119{fill:#fb9e9e;}.cls-120{fill:#fc9f9f;}.cls-121{fill:#eee;}.cls-122{fill:#fa9e9e;}.cls-123{fill:#f59e9e;}.cls-124{fill:#f8a09f;}.cls-125{fill:#edecec;}.cls-126{fill:#cd9e9a;}.cls-127{fill:#f69e9e;}.cls-128{fill:#eeeaea;}.cls-129{fill:#df9e9c;}.cls-130{fill:#cf9e9a;}.cls-131{fill:#f49e9e;}.cls-132{fill:#f39e9e;}.cls-133{fill:#f19e9d;}.cls-134{fill:#e69e9c;}.cls-135{fill:#d79e9b;}.cls-136{fill:#ee9e9d;}.cls-137{fill:#d09e9a;}.cls-138{fill:#d0aca8;}.cls-139{fill:#ef9e9d;}.cls-140{fill:#ed9e9d;}.cls-141{fill:#e9e0df;}.cls-142{fill:#d29e9a;}.cls-143{fill:#db9e9c;}.cls-144{fill:#e79f9d;}.cls-145{fill:#eb9e9d;}.cls-146{fill:#e49e9c;}.cls-147{fill:#e8e1e1;}.cls-148{fill:#ece8e7;}.cls-149{fill:#f09e9d;}.cls-150{fill:#e59e9c;}.cls-151{fill:#ea9e9d;}.cls-152{fill:#e7e0df;}.cls-153{fill:#dececc;}.cls-154{fill:#dc9e9c;}.cls-155{fill:#d29e9b;}.cls-156{fill:#e5dcdb;}.cls-157{fill:#d99e9b;}.cls-158{fill:#da9e9b;}.cls-159{fill:#e09e9c;}.cls-160{fill:#e19e9c;}.cls-161{fill:#eddede;}.cls-162{fill:#d69e9b;}.cls-163{fill:#db9e9b;}.cls-164{fill:#eae5e5;}.cls-165{fill:#f0dfdf;}.cls-166{fill:#de9e9c;}.cls-167{fill:#e99e9d;}.cls-168{fill:#e7c3c1;}.cls-169{fill:#e4dbda;}.cls-170{fill:#dc9e9b;}.cls-171{fill:#f19e9e;}.cls-172{fill:#f0e8e8;}.cls-173{fill:#ed9993;}.cls-174{fill:#edada8;}.cls-175{fill:#ee9a94;}.cls-176{fill:#efeae9;}.cls-177{fill:#f0ecec;}.cls-178{fill:#eebdba;}.cls-179{fill:#f0eae8;}.cls-180{fill:#f1eded;}.cls-181{fill:#f0eceb;}.cls-182{fill:#f0e7e4;}.cls-183{fill:#f4cfc3;}.cls-184{fill:#f3d2c8;}.cls-185{fill:#f3d7ce;}.cls-186{fill:#f4cbbe;}.cls-187{fill:#f5c9bb;}.cls-188{fill:#f1e5e1;}.cls-189{fill:#f3d6cc;}.cls-190{fill:#f4d0c5;}.cls-191{fill:#f2e3df;}.cls-192{fill:#f4d0c4;}.cls-193{fill:#f3d7cd;}.cls-194{fill:#efeded;}.cls-195{fill:#ede6e6;}.cls-196{fill:#ede5e5;}.cls-197{fill:#ebd5d5;}.cls-198{fill:#ece0e0;}.cls-199{fill:#e2a7a9;}.cls-200{fill:#e8d0d0;}.cls-201{fill:#e6bcbd;}.cls-202{fill:#e5b9ba;}.cls-203{fill:#efebeb;}.cls-204{fill:#e3afb1;}.cls-205{fill:#e7c1c2;}.cls-206{fill:#e4b2b2;}.cls-207{fill:#fa9f9f;}.cls-208{fill:#e9e2e1;}.cls-209{fill:#ece1e0;}.cls-210{fill:#c99e9a;}.cls-211{fill:#deccca;}.cls-212{fill:#d3b8b5;}.cls-213{fill:#d4b9b6;}.cls-214{fill:#ebcfce;}.cls-215{fill:#d4bab8;}.cls-216{fill:#f39e9d;}.cls-217{fill:#ed9892;}.cls-218{fill:#eeb7b3;}.cls-219{fill:#ed938d;}.cls-220{fill:#eed4d2;}.cls-221{fill:#eec6c3;}.cls-222{fill:#cba6a2;}.cls-223{fill:#d7bcb8;}.cls-224{fill:#cca8a3;}.cls-225{fill:#d2b4b0;}.cls-226{fill:#d4b7b3;}.cls-227{fill:#e8dad8;}.cls-228{fill:#d5b7b3;}.cls-229{fill:#c89e9a;}.cls-230{fill:#cb9e9a;}.cls-231{fill:#d49e9b;}.cls-232{fill:#e89e9d;}.cls-233{fill:#e39e9c;}.cls-234{fill:#d59e9b;}.cls-235{fill:#d19e9b;}.cls-236{fill:#cc9e9a;}.cls-237{fill:#d2b0ac;}.cls-238{fill:#d19e9a;}.cls-239{fill:#cba7a2;}.cls-240{fill:#c8a19c;}.cls-241{fill:#f5cabc;}.cls-242{fill:#f2dbd3;}.cls-243{fill:#f6c6b6;}.cls-244{fill:#d2b7b3;}.cls-245{fill:#ecdad9;}</style></defs><g id="Layer_2" data-name="Layer 2"><g id="Layer_1-2" data-name="Layer 1"><path class="cls-1" d="M1047.87,5.1S37.59-6.36,23,7,.5,174.35.5,174.35V613.09H1073.68V174.35C1072.89,89.12,1047.87,5.1,1047.87,5.1Z"/><path class="cls-2" d="M1074.18,613.59H0V174.35C.33,168,8.11,20,22.67,6.62,28.17,1.59,170,0,346.41,0c290.75,0,675.79,4.31,701.47,4.6h.36l.11.35c.25.84,25.05,85.07,25.83,169.39ZM1,612.59H1073.18V174.35c-.76-81.39-23.93-162.71-25.69-168.76-24.08-.27-1010-11.2-1024.14,1.77S1.08,172.83,1,174.37Z"/><path class="cls-3" d="M909.59,74.66h-745a24.07,24.07,0,0,0-24,24v32.55L535.44,523.14,933.59,131V98.66A24.07,24.07,0,0,0,909.59,74.66Z"/><path class="cls-1" d="M535.43,528.77,532.62,526l-396-393.1V98.66a28,28,0,0,1,28-28h745a28,28,0,0,1,28,28v34l-1.19,1.17ZM144.59,129.54l390.86,388,394.14-388.2V98.66a20,20,0,0,0-20-20h-745a20,20,0,0,0-20,20Z"/><path class="cls-2" d="M535.44,516.85l-.35-.35L23.45,8.64h1.21L1050.15,6.74l-.14.61c-.26,1.11-.51,2.22-.77,3.33l0,.14-.11.1ZM25.87,9.63,535.44,515.44,1048.3,10.31c.2-.86.4-1.71.59-2.57Z"/><circle class="cls-4" cx="515.82" cy="484.28" r="85.11" transform="translate(-191.36 506.58) rotate(-45)"/><path class="cls-5" d="M520.22,563.69h-6.15c-1.47-.21-3-.12-4.43-.3a62.52,62.52,0,0,1-17.85-5.17,84.84,84.84,0,0,1-15.31-9.13,30.28,30.28,0,0,1-11.81-18c-1.36-5.7-2.66-11.41-3.59-17.19-.18-1.11-.43-2.19-.63-3.29,0-1.64-.71-3.15-.8-4.77-.15-2.38-.56-4.72-.78-7.09.26-1.52-.16-3-.19-4.53,0-.68-.09-1.37-.13-2.06s-.26-1.32-.24-2a22.74,22.74,0,0,0-.05-3.87,2.83,2.83,0,0,1,0-1.16c.2-1.2.24-2.42.33-3.64.41-5.56,1.24-11,3.92-16a15.43,15.43,0,0,1,8.9-7.7c4.35-1.47,8.55-3.34,12.76-5.18.51-.3,1.19.09,1.65-.4s1.26-.56,1.79-1a3.19,3.19,0,0,1,.66-.28,2,2,0,0,0,1.18-.64.87.87,0,0,1,.78-.33,31.78,31.78,0,0,0,4.55-1.88c.7-.29,1.34-.72,2.05-1a6.33,6.33,0,0,0,3.42-3.4l.31-.61c1.16-2.21,2.37-2.8,4.85-2.42a11.28,11.28,0,0,0,2.95.28,4.14,4.14,0,0,0,3-1.59,4.33,4.33,0,0,1,2.85.41,2.37,2.37,0,0,0,1.51.06,3,3,0,0,1,2,.48,15.28,15.28,0,0,0,4.77,2.31,2.16,2.16,0,0,1,1.27.91c.34.33.5.86,1,1a6.5,6.5,0,0,1,1.62,2.52,16.32,16.32,0,0,0,1.26,2,1,1,0,0,0,1.08.46.45.45,0,0,1,.32.25c.06.23-.41.43,0,.69a3.66,3.66,0,0,0,2,1.82c.49.23.84.2.8-.49a3.92,3.92,0,0,1,2.79-4.1,75,75,0,0,1,7.64-2.36c.28-.08.66.14.85-.24.65-.59,1.29.19,1.93,0a1,1,0,0,1,.49.25c.18.6.59.56,1,.39a.51.51,0,0,1,.58.24c.06.73.67.45,1.06.57a17.37,17.37,0,0,1,3,4.36c1.2,2.23,2.43,4.44,3.67,6.65.07.14.14.3.32.35.49.79.92,1.62,1.42,2.42a2.68,2.68,0,0,0,.49.57c.14.28,0,.59.13.86a2.78,2.78,0,0,1,.34,1.09.91.91,0,0,0,.08.72,16.48,16.48,0,0,1,1.54,3.66c.2-.49.4-.93,1-1,.55.22.57,1,1.17,1.17a3.13,3.13,0,0,0,.71,1c.12.4.76.14.82.63a3.8,3.8,0,0,0,1.46,2,12,12,0,0,0,4.48,2.67,8.9,8.9,0,0,1,5.2,4.17,1.47,1.47,0,0,0,.44,1,11.56,11.56,0,0,1,1.13,5.16c.16,2.81-.08,5.6-.2,8.4a8,8,0,0,0-.81,2.68c-.16,1.72-1,3.32-.76,5.14a3,3,0,0,1-.43,2.69c.55,1-.47,1.41-.73,2.11a7.35,7.35,0,0,0-.27,1c-.1.41-.09.78-.5,1.08s.15.9-.19,1.3a1.78,1.78,0,0,0-.35.65,2.56,2.56,0,0,1-.11.24.51.51,0,0,0-.07.6c0,.13.09.31,0,.37-.92.53-.85,1.52-1,2.34-.11.5-.14,1-.6,1.26s-.18.67-.34,1c-.31.3-.06.61,0,.91s.16.85-.35,1.08a3.31,3.31,0,0,0-.94.23c.31-.05.51,0,.59.31a10.83,10.83,0,0,0-.7,2.77,3.25,3.25,0,0,1-1,2.34,1.11,1.11,0,0,0-.3.6,1,1,0,0,1-.14.24c-.38.34-.06.91-.42,1.25-.37.08-.45.35-.45.68-.06,1.38-1,2.34-1.59,3.49-.11.4-.63.44-.76.83-.16.23-.48.36-.44.71-.13.55-.56,1-.6,1.58a1,1,0,0,1-.09.27,32.69,32.69,0,0,0-2.54,9.15c-.27,2.32-1.63,4.08-3.06,5.79a43.42,43.42,0,0,1-13,10.17,54.12,54.12,0,0,1-14.85,5.47,35,35,0,0,1-7.36.87C520.87,563.59,520.53,563.48,520.22,563.69Z"/><path class="cls-6" d="M455.85,480a2.74,2.74,0,0,1,0-2.34,4.9,4.9,0,0,0,.39-2.18c-.18-.29,0-.47.19-.66,0-.32,0-.65,0-1s-.43-.86.32-1.06c.1,0,.19-.63.07-.82-.38-.59-.14-1.11,0-1.66a34,34,0,0,1,4.3-10.27,28.73,28.73,0,0,1,2.72-3.1c.11-.14.46-.92.69,0a2.09,2.09,0,0,0,.35-.13c.48-.23.51-.74.7-1.14-.08-.15-.32-.23-.21-.47.78-2.13,2.61-3.05,4.51-3.89,2.66-1.18,5.36-2.43,8.36-1.95,1.87.3,3.73,0,5.58.33a1,1,0,0,0,.89-.26,17.8,17.8,0,0,1,3.39-2.36c1.39-.68,2.21-2,3.49-2.64,1.89-1,3.1-2.75,4.76-4a1.78,1.78,0,0,1,.32-.24c2-.86,3.45-2.59,5.36-3.6.85-.46,1.61-1.33,2.81-.59.43.26.67-.6,1.08-.84h.6a3.38,3.38,0,0,0,2.41,1.25,12.3,12.3,0,0,1,2.8.76c.4.13.82.72,1.23,0,.09-.15.3,0,.44.07,1.25.42,2.48.9,3.73,1.27a46.75,46.75,0,0,1,5.37,2,12.84,12.84,0,0,1,2.88,1.84c.1.18.32.32.18.57.48.48,1.19.72,1.47,1.42,0,.09.21.17.32.17,1.07,0,1.77.4,1.74,1.62,0,.19.17.39.5.31a4.07,4.07,0,0,0,2-.73,4.08,4.08,0,0,1,1.34-.59c2.5-.93,5-2,7.71-2a46.38,46.38,0,0,1,6.66.44h.09c.24,1.45,1.9.71,2.57,1.7a5.52,5.52,0,0,0,1.92,1.49,7.89,7.89,0,0,1,3.08,3.62c.15.32.18.68.72.59s.92.31.89.93c-.24.17-.24.17.15.81a11.93,11.93,0,0,0,1.29,3.3,17.47,17.47,0,0,1,2.1,7,3.7,3.7,0,0,0,2.92,2.8c3.1.57,6.14,1.46,8.4,3.79,1,1,1.88,2.07,2.82,3.11,0,.24.31.35.19.61.41.88.83,1.74,1.21,2.64a42.23,42.23,0,0,1,2,7.21,8.79,8.79,0,0,1,0,2.94c-.05.5-.51.94-.57,1.62s.2,1.56.1,2.34c-.07.52.74.56.61,1.12a32.54,32.54,0,0,0-.64,5.74c-.18.05-.27,0-.2-.19-.07-.67-.13-1.35-.2-2-.15,2.07-.71,4.09-.55,6.16a1.33,1.33,0,0,1,.12.4,3.65,3.65,0,0,0-.85,3c-.14.45.59.38.48.8s-.21.65-.56.82c-.15.1-.37.13-.39.37-.4,1-1.11,1.91-1.07,3a7.48,7.48,0,0,1-1.11,3.49c-.36.79-.23,1.81-1,2.5a.21.21,0,0,0,0,.19c.53.59.18,1.06-.24,1.44-.74.69.05,1.6-.4,2.31-.34.34-.82,0-1.18.22a5.45,5.45,0,0,0-1,2.53c-.06.33,0,.66-.33.88s-.28.35,0,.47c.94.49.14.87-.12,1.12-.47.45-.9.84-.74,1.56,0,.2,0,.49-.36.36a.86.86,0,0,0-.78.76c-.13.78-.7,1.44-.59,2.28-.35.26.09.71-.23,1s-.53.62-.27,1.07c.09.15.08.4-.08.43-1.13.23-.53,1-.42,1.5a1.33,1.33,0,0,1-.32,1.34,4,4,0,0,0-1.23,3.07,1.71,1.71,0,0,1-.47,1.14c0-.06-.13-.06-.13,0a.46.46,0,0,0,.14.22c0,.14.18.27,0,.41s-.22.68-.4,1c-.28-.15-.27-.57-.62-.65a.4.4,0,0,1-.36-.15c.29-.46.87-.89-.27-1.14-.57-.13.13-.66.09-1,.2-.12.27.11.41.16.7.2,1,.26.65-.72-.2-.52.11-1.21-.7-1.44-.12-.22.1-.29.19-.42a3.38,3.38,0,0,1,.42-.66c.28-.3.38-.56,0-.77s-.33-.59-.38-.93c.08-.18.19-.32.41-.2s.56.51,1,.37c.25-.18.19-.36,0-.54a5.93,5.93,0,0,0-1.56-.44.48.48,0,0,1,0-.17c.21-.21.24-.52.42-.74a6,6,0,0,0,.64-.29c-.19-.12-.34.17-.51,0a.42.42,0,0,1,0-.39c-.38-.57,0-.69.45-.8a.2.2,0,0,1,.24-.07,12.25,12.25,0,0,0,1,.93c-.24-.36-.87-.48-.93-1.07a.45.45,0,0,1,.32-.14s.18.11.16-.07a.47.47,0,0,1-.07-.38c-.18-.76.58-1.12.84-1.67s.48-1.3.78-1.92a1.51,1.51,0,0,1,.4-.6c.41-.38-.17-1,.39-1.39.15.09.16.31.33.37a.71.71,0,0,1-.06-.38c0-.24-.36-.51,0-.71.58-.36,1-.74.64-1.49,1-.58.26-1.67.69-2.45a3.43,3.43,0,0,1,.66-1.1c.13-.26-.19-.73.36-.78.45-.23.07-.67.25-1s-.21-.55,0-.83c.09-.45-.15-.93.56-1.25s.33-1.2.52-1.81.2-1.28,1-1.55a1.64,1.64,0,0,0,0-.35c-.12-.26.06-.44.19-.63s0-.11,0-.17a1.49,1.49,0,0,1,.39-.6c0-.24.26-.5,0-.73a.46.46,0,0,1-.06-.63c.88-.58.66-1.58,1-2.38a1.31,1.31,0,0,1,1-.92c-.24-.49-1.06-.94,0-1.3.18-.07.2-.22.13-.29-.66-.69.26-1.35.05-2s0-1.52-.13-2.24c-.09-.41.29-.46.34-.75.19-1.08.54-2.15.62-3.24a1.69,1.69,0,0,1,.85-1.44c1.69-.56,1.35-1.81,1-3.05a2.25,2.25,0,0,1-.06-.36c-.06.08,0,.18-.07.26s-.19.24-.36.14a2.12,2.12,0,0,1-.34-1.8c.08-.82.08-1.65.1-2.47a1.21,1.21,0,0,1,.29-.91c.94-.29,1-.42.81-1.4a6.5,6.5,0,0,0-.47-1.3,9.93,9.93,0,0,1-.88-3.23,3.91,3.91,0,0,0-2.3-3.23c-.32-.15-.57-.25-.7-.61-.73-2.06-2.36-3.37-4-4.7a1,1,0,0,0-.94-.22c-1.19.5-2.33-.05-3.49-.11a3.23,3.23,0,0,1-.69-.07c-.3-.08-.57-.2-.56-.58s-.36-.18-.58-.17c-.64,0-.15-.25-.11-.41.27-.26.52-.52.08-.87-.22-.18-.42-.41-.63-.62-.35-.39-.62-.93-1.3-.76a1.75,1.75,0,0,0-.88,1.55c-.83-1.39-1.07-3-1.9-4.28-.11-.21.06-.41,0-.61l-.36-1.18c.45-.2.64-.46.34-1a7.82,7.82,0,0,0-1-1.64c.15.43.46.73.39,1.14-.05.14-.11.27-.3.23a10.34,10.34,0,0,1-1.41-2.59c-.36-.37,0-.82-.12-1.23,0-.18-.07-.42.16-.52s.38.06.53.19c.82.72,1.55,1.53,2.44,2.39a4.42,4.42,0,0,0-2.09-2.59c-.32-.23-.69-.38-1-.59s-.69-.7-.4-1.09c.59-.79,0-1.14-.46-1.49a7.88,7.88,0,0,1-2.42-2.32c-.12-.19-.33-.37-.34-.59,0-.61-.48-.9-.8-1.34-.59-.81-1.68-1-2.08-2a.21.21,0,0,0-.32-.11c-.53.43-.87-.09-1.26-.27-.1-.05.2-.18.27-.31.36-1.07.36-1.07-.62-1a4.21,4.21,0,0,1-1.41.14c-.41,0-.82.33-1.23-.09a.59.59,0,0,0-.79.06,35.63,35.63,0,0,1-4.82.8,6.38,6.38,0,0,0-2.68.88,3,3,0,0,0-1.4.5c-.72.25-1,1.13-1.85,1.24-.3,0-.59,0-.78-.28s.2-.33.17-.59c-1.1.44-1.8,1.48-2.92,1.83-.49.45-.79.35-1.23-.19a28.92,28.92,0,0,1-2.32-4,2.5,2.5,0,0,0-.62-.71c-.08,0-.18,0-.2-.08s.08-.2.17-.26c.32-.19.66.15,1-.05s.4,0,.51.22c.07,0,0,.26.15.12-.13-.3-.26-.62-.67-.32a.48.48,0,0,1-.37,0c-.55-.08-1-.55-1.58-.47a2.25,2.25,0,0,0-1.61-1c-1.49-.21-2.65-1.16-3.9-1.87a3.76,3.76,0,0,0-2.73-.73c-1.07.19-2.12-.66-3.27-.63a6.87,6.87,0,0,1-.78-.08c-.31.26-.62.11-.94,0s-.57-.22-.81.09a.38.38,0,0,1-.45.11c-1.74-.83-3.49-.33-5.23,0-.61-.06-1,.34-1.39.71-.64.55-1.17,1.29-2.19,1.14-.21,0-.34.16-.49.29a19.6,19.6,0,0,1-3.79,2.81,1.94,1.94,0,0,0-.74.65,16.43,16.43,0,0,1-4.11,4,3.56,3.56,0,0,1-.89.34c-.55-.09-.8.33-1.13.64s-.51.68-.93.85l-.56.22a3,3,0,0,0-1.81,1c.19.3,0,.39-.25.4h-1.33a4.79,4.79,0,0,1-3.19.24,9.64,9.64,0,0,0-5.57.36,11,11,0,0,1-2.72.43A3.51,3.51,0,0,0,470.4,455a4.53,4.53,0,0,1-1.43,1.19c-.44.2-.45.18-.69-.41a6.64,6.64,0,0,1-2.79,3c-.24.15-.43.27-.5.56a1.44,1.44,0,0,1-.47.85,2.5,2.5,0,0,0-1,2,1.7,1.7,0,0,1-.46,1,3.45,3.45,0,0,0-.69,1.41,3.14,3.14,0,0,1-1.05,1.53c-.44.45-.77.91-.48,1.58a1,1,0,0,1,0,.78c-.42,1.13-.93,2.24-1.25,3.41-.13.2-.47.16-.51.45a1.72,1.72,0,0,1-.16.59c-.16.16-.46.2-.44.51a.93.93,0,0,1,0,.29c-.2.55.09.33.33.21a.29.29,0,0,1,.27,0,1.43,1.43,0,0,1,.16,1.19c-.36,2.13-.41,4.33-1.34,6.35a2.16,2.16,0,0,0,0,.88,3.37,3.37,0,0,1,0-.55c0-.2.13-.39.37-.39a.37.37,0,0,1,.36.48c-.31,1,0,2.1-.13,3.13v1.23c0,.31.3.65-.31.78-.21.05-.11.54,0,.83.17.77.23,1.55.36,2.32l.35,1.77a4.3,4.3,0,0,0-.09,2.11c.18,1.55.12,3.13.31,4.68a69.86,69.86,0,0,1,.95,7.62c.13,1.19.64,2.28.72,3.47,0,.28.22.57-.09.81-.59.58-.05,1.2,0,1.76a5.34,5.34,0,0,1,.17.9,17.74,17.74,0,0,0,.89,5.77,29.14,29.14,0,0,1,.5,4.32,37.74,37.74,0,0,0,1.21,6.68c.41,1.27,0,2.62.42,3.92.14.52-.47,1.25-.77,1.88a.49.49,0,0,1-.49.27c-.22,0-.16-.25-.19-.4-.31-1.3-1-2.54-.79-3.94,0-.1,0-.24,0-.29-1.56-1.55-.88-3.65-1.28-5.47-.65-2.9-1.06-5.85-1.54-8.77a27.56,27.56,0,0,1-.51-4.53,2.41,2.41,0,0,0-.27-1.24,2.67,2.67,0,0,1-.26-2.52c.19-.56-.53-.65-.53-1.22,0-1.75-.18-3.49-.34-5.23-.17-2-.25-4-.49-5.94a4.79,4.79,0,0,1,.48-3.51.47.47,0,0,0,0-.47c-1.22-3.71-.88-7.53-.72-11.33a9.34,9.34,0,0,0-.18-1.42h-.08A1.34,1.34,0,0,0,455.85,480Z"/><path class="cls-7" d="M578,488.4c-.33-.2-.67-.4-.47-.89.38,0,.2.44.47.49Z"/><path class="cls-6" d="M537.51,535.67c-.57.48-1.29.18-1.94.34a12,12,0,0,0-2.19.66c-.65.29-1.3.86-1.77-.25-.1-.23-.35,0-.51.07s-.49.25-.59-.18a.3.3,0,0,0-.47-.19c-.73.8-1.31,0-1.86-.23a12,12,0,0,0-1.42-.63,2.46,2.46,0,0,1-1.27-.76,2.74,2.74,0,0,0-2.4-.59c-.25,0-.27.25-.38.4-.29.45-.6.88-1.24.68-.19-.07-.54-.13-.52,0,.11,1.2-1.13.72-1.52,1.27-.09-.12-.24-.09-.35-.14.1.1.26,0,.36.13a2.63,2.63,0,0,1-3,.9c-.34-.13-.73-.18-.85.18s.51.11.58.47a7.8,7.8,0,0,1-1.26.25c-.35,0-.8.25-.94-.47-.08-.39-.73-.25-1.1-.1s-.71.18-1.11-.31a4.77,4.77,0,0,0-1.73-1.37,4.31,4.31,0,0,1-1.88-1.8,7.57,7.57,0,0,0-1-1.37.4.4,0,0,1-.07-.58.73.73,0,0,0-.61-1.09c-1.46,0-2.75-.6-4.12-.86-.19.19-.18.65-.64.44a.58.58,0,0,1-.14-.42c.3-.89,1.27-1.35,1.52-2.27a2.82,2.82,0,0,1,2.39-.15c.49.16.78.07.75-.51a18.78,18.78,0,0,1,.19-2.26,2,2,0,0,1,2-1.84c.86,0,1.05.26,1.07,1.12,0,1.22-.41,2.4-.3,3.62,0,.82.54,1.16,1.17,1.46.33.15.23-.23.38-.28a1.11,1.11,0,0,1,.82-.09c.27.08.55.14.81.24a.39.39,0,0,1,.17.21.34.34,0,0,1-.11.25c-.29.22-.66.51-.42.86.36.55.8,0,1.21-.06s1-.35,1.48-.48c1.8.41,3.64.48,5.47.72a4.59,4.59,0,0,1,1,.33,2.58,2.58,0,0,0,2.8-.31,1.64,1.64,0,0,1,.88-.41c1-.14,1.23-.71.81-1.57-.09-.18-.22-.34-.31-.51a3.14,3.14,0,0,1,.54-3.84,4.94,4.94,0,0,0,.56-.56.84.84,0,0,0-.21-1.15c-.42-.33-.54.21-.67.46a7.23,7.23,0,0,1-3.57,3.29,20.46,20.46,0,0,1-3,1.37,2.85,2.85,0,0,1-3.44-1.58,4.45,4.45,0,0,1-.13-3.47c.39-1.14,0-1.85-1.13-2.08-.24,0-.53-.27-.57.31,0,.3-.57.14-.87,0-1.52-.7-3-1.47-3.49-3.27,0-.06-.08-.09-.17-.1-.39.23-.23.62-.24,1a2.7,2.7,0,0,1-.35,1.08c-.14.2-.31.33-.56.15,0-.23-.17-.33-.27-.48-.25-.36-.61-.07-.9-.16a1.53,1.53,0,0,1-.38-.12c-1.63-.08-2.27.56-2.2,2.21,0,.34-.37.78.22,1a.36.36,0,0,1,.2.33,1.17,1.17,0,0,1-1,1.36c-.51.09-.29.85-.73,1.1a.9.9,0,0,1-.27.07,2.33,2.33,0,0,1-1.2-.65c0-.39-.82-.64-.19-1.13a1,1,0,0,1,.25,0h-.29c-.86-.51-.86-.57,0-1.08.08,0,0-.17,0-.26a.44.44,0,0,1,.07-.37c.4,0,.7.27,1.08.29a10,10,0,0,1-1-.39c-.45-.4-.51-.66.22-.7.18,0,.18,0-.07-.3-.58-.11-.73-.37-.32-.87a1.64,1.64,0,0,0,.42-.72,3.29,3.29,0,0,1-1.71-.7.83.83,0,0,0-1,0,8.63,8.63,0,0,1-3,.89,1.6,1.6,0,0,1-1.14-.2,4.41,4.41,0,0,1-2.35-3.68,8.52,8.52,0,0,1,.05-2.08c.07-.43,0-.66-.49-.54a12.28,12.28,0,0,0-2.5.54,2.81,2.81,0,0,1-2.67-.11,1.33,1.33,0,0,0-1.49,0,33.44,33.44,0,0,0-3.21,2.1,3.48,3.48,0,0,1-4.49-1.26,5.71,5.71,0,0,1-.79-5.88,2.92,2.92,0,0,0,.37-1.2c-1.25,1.1-2.41,2.35-4.16,2.6-.78-.38-1.13-1.16-1.66-1.77a.64.64,0,0,1,0-.83c.38-.47.63-1.08,1.27-1.32.3.33.47,0,.68-.14a2,2,0,0,0,.72-1.19c.08-.53.74-.89,1.21-1.25a20.76,20.76,0,0,1,3.59-2.46,6,6,0,0,0,2.76-2.57c2.21-2.93,5.26-4.72,8.46-6.32a13.36,13.36,0,0,1,5.55-1.33,2.28,2.28,0,0,0,1.26-.49,11.62,11.62,0,0,1,4.72-2.2,31,31,0,0,1,3.43-.1c-.69-.4-.75-.63-.11-1.15a3.18,3.18,0,0,1,1.64-.88c.16,0,.38,0,.46-.15.6-.95,1.59-.84,2.49-.93,2.36-.23,4.73-.6,7.09.05.52.14.68,0,.58-.53a1.33,1.33,0,0,1,.06-.45,1.09,1.09,0,0,1,.27-.51,4.92,4.92,0,0,0,1.56-2.57c.32.46,1.08.64,1.28.48.89-.7,1.74-.15,2.59-.05,1,.12,2.05.37,3.08.57.24.12.51.05.76.11a1.24,1.24,0,0,0,.72.21,1.41,1.41,0,0,1-.72-.22.64.64,0,0,1-.57-.26,5,5,0,0,0-1.94-.61,2.59,2.59,0,0,1-2-1.42,3.89,3.89,0,0,0-2.19,0,6.47,6.47,0,0,0-3.31-.94c.74-.47,1.67.12,1.86-.93,0-.16.45.06.62.27a1.24,1.24,0,0,0,2.21-.06c.19-.28.52-.14.78,0l2.19.92c0,.17,0,.28-.2.17a.61.61,0,0,0-.55.7.68.68,0,0,0,.81.57,3.27,3.27,0,0,1,2.79.72,1.75,1.75,0,0,0,1.9-.06c.48-.29.58,0,.91.2,1.13.8,1.72,2.19,3.09,2.74a3,3,0,0,0,3.56-1.06c.38-.62,2-.84,2.36-.19.49,1,1.56,1.7,1.56,2.84s.39,2.38.47,3.58a2.83,2.83,0,0,1,0,.29,2.57,2.57,0,0,0,1.92,2.61,7.76,7.76,0,0,1,4.13,2.79c1.17,1.67,2.72,3.21,2.66,5.46a14.57,14.57,0,0,0,.27,2.4,14.74,14.74,0,0,1,0,4.09,3.2,3.2,0,0,0,.41,1.7,26.23,26.23,0,0,0,3.71,6.29c0,.05.1.1.11.16.62,2.22,1.79,4.27,1.88,6.64,0,1.08.26,2.15.39,3.22a.17.17,0,0,1-.08.23c-.19.1-.47.12-.31.45s.38,0,.57.08a.73.73,0,0,1,.31,1.21.76.76,0,0,1-1.25-.21.73.73,0,0,0-1.19-.3l1.5,1.28c-.25.45-.63.07-.89.22,0,.06-.07.14,0,.18.7,1.42.73,1.45-.5,2.52-.27.24-.23,1-.9.7-.1.14-.19.3-.4.19s-.37-.41-.69-.32c0,.07-.07.13-.06.18.22.63.3,1.17-.41,1.62s-1,.93-1.8.78c-.63-.12-1.17.39-1.85.41a4.94,4.94,0,0,1-1.82,0c.36-.28,1.26-.09,1-.74-.15-.45-.82,0-1.2.19-.67.27-1.26.46-1.72-.3,0-.08-.16-.21-.21-.2a6.47,6.47,0,0,0-2.53.85,14.72,14.72,0,0,0-1.42,1.17,3.05,3.05,0,0,1-2.43.91C538,535.42,537.72,535.43,537.51,535.67Z"/><path class="cls-8" d="M548.63,474.06a9.2,9.2,0,0,1-5.43,2,.27.27,0,0,0-.17.08s0,.1,0,.16.1.06.07.1,0,0-.07,0l-1.17.06a2.2,2.2,0,0,0-.37,0,2.37,2.37,0,0,0-.84,0c-.23,0-.27.26-.4.39a6.25,6.25,0,0,1-1.66.26c-.17,0-.06.62-.52.57-.2-.49-.7-.2-1-.39a4,4,0,0,1-1.48-.92,2.24,2.24,0,0,0-1.06-.47c-.38.09-.28-.28-.41-.43a4.45,4.45,0,0,1-2.18-3.38c.19-.33-.12-.53-.19-.8-.17-1.85-.39-3.71-.51-5.57a10.11,10.11,0,0,1,1.5-5.64,5.69,5.69,0,0,1,2.77-2.47,20.09,20.09,0,0,1,4.86-1.66,7.63,7.63,0,0,1,6.77,2.25,6.23,6.23,0,0,0,2.09,1.41.32.32,0,0,1,.2.16c.23.27.45.55.7.82a6,6,0,0,1,1.72,5.41c-.14.74-.2,1.5-.31,2.24a5.68,5.68,0,0,1-1.13,3.21,2.08,2.08,0,0,0-.61,1.62C549.48,473.49,549.22,474,548.63,474.06Z"/><path class="cls-9" d="M497.93,458.56a6.49,6.49,0,0,1,2.85-5.46c1.3-.85,1.83-2.3,2.76-3.43,1.43-1.74,3.25-2.94,5.52-2.18a33,33,0,0,0,4.32.67,8.75,8.75,0,0,1,6.37,5.17c1.91,4,1.81,7.95-.92,11.63a7.48,7.48,0,0,1-3.32,2.58,5.33,5.33,0,0,0-1.32.85,7.91,7.91,0,0,1-9.23.73,16.51,16.51,0,0,1-3.33-1.93,5.11,5.11,0,0,1-2.11-3.61,1,1,0,0,0-.22-.65C498.08,461.75,498.05,460.21,497.93,458.56Z"/><path class="cls-10" d="M469.41,477.44c-1.21-3-.51-5.63,1.25-8.21a14.86,14.86,0,0,1,5.7-4.75,6.9,6.9,0,0,1,6.57-.19c1.39.71,2.94,1.12,4.14,2.28a5,5,0,0,1,1.27,2.89,13.78,13.78,0,0,1,.07,6.57c-1.38,4.44-3.66,6.62-8.19,6.93-1.38.09-2.79-.51-4.19-.54-3-.07-4.39-2.27-6.07-4.15C469.81,478,469.81,477.57,469.41,477.44Z"/><path class="cls-6" d="M503.14,527.92c.12.65-.29,1-.69,1.41s-.47.53-.71.8a.92.92,0,0,1-.27.16,2.56,2.56,0,0,1-1.1-.15,10.69,10.69,0,0,0-4-.94,17.21,17.21,0,0,1-4.83-.86,8.71,8.71,0,0,0-3.32-.3c-2.86.18-5.77.7-8.65-.1a6.19,6.19,0,0,0-1.37-.11c-2.06-.11-3.62-1.5-5.47-2.12a.76.76,0,0,1-.55-.75.86.86,0,0,0-.31-.6c-2.38-2.41-3-5.52-3.23-8.7a7,7,0,0,1,.44-3.28,1.67,1.67,0,0,0-1.06-1.91c-.41-.06-.6-.23-.61-.62a.54.54,0,0,0-.37-.62,6.43,6.43,0,0,1-.55-5.36c0-.08.21-.12.32-.18a1.58,1.58,0,0,1,.09,1.37c.24-.41-.1-1.05.47-1.38a7.79,7.79,0,0,0,1.2-1.79c.7-1.73,2.37-2.36,3.85-3.16,2.14-1.17,4.46-2,6.54-3.3a19.94,19.94,0,0,0,5.34-4.63c.57-.74,1-1.53,1.92-1.78.57-.14.13-.71.47-.95.55-.41,1.07-.88,1.62-1.29a25.47,25.47,0,0,1,5-2.89c2-.87,3.93-2.2,6.29-2.09a7.81,7.81,0,0,0,4-2.39,2.29,2.29,0,0,1,1.32-.55c.3,0,.34-.25.47-.43l.22-.14a3.88,3.88,0,0,0,2.57-.8l.43-.15s.08,0,.09,0c.45.88.89,1,1.64.19.4-.43.84.18,1.17.5a14.32,14.32,0,0,0,3.05.39l.18,0c.56.49.74,1.45,1.74,1.39a2.37,2.37,0,0,1,1.05.17h0a.94.94,0,0,0,.78.25l.8,0a2.21,2.21,0,0,1-.92,2.24c-.3.23-.66.48-.67.94-.18.11-.33,0-.47-.09a2.12,2.12,0,0,0-.67-.38,2.37,2.37,0,0,0-1.21.11c-.74.08-1.48,0-2.22.09-.28,0-.66.16-.75-.2s.26-.47.53-.58a1.87,1.87,0,0,1,.66.14,4.31,4.31,0,0,0-.52-.18c-1-.22-2-.73-3-.26-.22.09-.31.34-.5.47a3.87,3.87,0,0,1-3.16.08,1.13,1.13,0,0,0-1.35.24,4.21,4.21,0,0,1-3.39,1c-.26,0-.54-.15-.78,0-1.47.6-3.13.78-4.44,1.63a44.07,44.07,0,0,0-4.94,3.28,8.48,8.48,0,0,0-2.54,2.16,3.79,3.79,0,0,1-2.14,1.66c-.27.05-.42.3-.58.51-1.45,1.8-3.44,3-5.18,4.44a14,14,0,0,1-3,1.65,11.64,11.64,0,0,0-2.95,1.25,4.26,4.26,0,0,1-.88.44,5.06,5.06,0,0,0-2.74,2.11c-.47.69-1.31,1-1.72,1.73a4.41,4.41,0,0,0-.46.82,8.25,8.25,0,0,1-1.38,1.12l-.17.07a.47.47,0,0,0-.31.33c.14,0,.14-.24.3-.25.81.11.44.89.74,1.29a1.21,1.21,0,0,1,.08.25c.05.2-.12.5.24.56a1.51,1.51,0,0,1,.38.1c1.18.39,1.49,1.4,1.77,2.44a10.05,10.05,0,0,1,.26,1.05,7.93,7.93,0,0,0,.08,1,2.45,2.45,0,0,1,0,.27,4.82,4.82,0,0,0,0,.93c0,.18,0,.36-.06.54s0,.47,0,.7.2.69-.25.7-.7-.3-.69-.79.34-1,0-1.51a1.54,1.54,0,0,0-.35,1.8,16.51,16.51,0,0,1,.88,3.95,3.47,3.47,0,0,0,2.55,2.61,1,1,0,0,1,.75.42,5.68,5.68,0,0,0,3.8,2.29c.32.12.66.12,1,.22a1.57,1.57,0,0,0,1.66-.32,1.83,1.83,0,0,1,1.82-.44,1.14,1.14,0,0,0,.68-.05,3.83,3.83,0,0,1,2.32,0c.25.07.49.28.33.47-.8.94.05,1,.61,1.25l.25.1c1.12.36,1.2.29,1.2-.92a2.3,2.3,0,0,0-.12-.58c-.14-.54.09-.85.59-.58,1.36.73,2.9.48,4.33.83.65.15,1,.38,1.07,1a2.66,2.66,0,0,0,1.76,0l.43-.09c-.69-.19-1.46.18-2.2-.52,1.43-.32,2.68-.86,4-.18.26.16.28.58.67.57a1,1,0,0,1,.71.45.5.5,0,0,1-.39.41c-1.26.35-2.49.8-3.63,1,1.58.49,3.06-.3,4.55-1a.9.9,0,0,1,1.29.28c.09.68.44.87,1.1.68C502.19,527.81,502.67,527.54,503.14,527.92Z"/><path class="cls-8" d="M563.31,501.29a13.27,13.27,0,0,0-2.36.2c-.13-.12-.29-.07-.45-.07a3,3,0,0,0-.71.14,1,1,0,0,0-.63.34c-1,.92-1.88.57-2.74-.33-.56-.59-1.33-1-1.95-1.51a3.83,3.83,0,0,1-1.28-2.62,35.42,35.42,0,0,1-.38-6.74c.27-3.14,1.54-5.67,4.71-6.63.79-.23,1.49-.68,2.31-.86,2.07-.44,3.68.49,5.16,1.69.63.51,1.16,1.15,1.82,1.65a4.66,4.66,0,0,1,2.12,4.23,26.06,26.06,0,0,1-.48,4.81,10.51,10.51,0,0,1-2.92,4.35c-.22.41-.66.53-1,.77l-.79.27C563.56,501,563.26,500.93,563.31,501.29Z"/><path class="cls-11" d="M503.54,479.47c.28.38,0,.66-.25.8a17.69,17.69,0,0,0-2.81,1.68c-.32.24-.62-.13-.94-.15a22.19,22.19,0,0,1,4-2.54c0,.05.07.09,0,.14S503.56,479.47,503.54,479.47Z"/><path class="cls-12" d="M459.05,498.72a2.6,2.6,0,0,1-.39-1.67,14.8,14.8,0,0,0-.23-3.7,1.35,1.35,0,0,1,.4-1.42c.08,1.73.16,3.46.38,5.18A2.07,2.07,0,0,1,459.05,498.72Z"/><path class="cls-13" d="M511.29,478.26c-.36-.18-.47-1.2-1.18-.16-.49.71-1.24.31-1.58-.76l2.3-.09a.61.61,0,0,1,.86.2l.39,0C512.14,478.08,511.58,478,511.29,478.26Z"/><path class="cls-14" d="M556.59,460.17c-.1-.61-.67-1-.74-1.69a4.44,4.44,0,0,1,2,2.86c-.06.68-.59,0-.83.25-.39-.26.07-.56,0-.84C556.67,460.66,556.68,460.39,556.59,460.17Z"/><path class="cls-15" d="M511.29,478.26c0-.52.71-.33.79-.78h.21a.24.24,0,0,1,.38,0l1.81,1c-.35.14-.63.72-1.11.09a1.78,1.78,0,0,0-1.13,0A.81.81,0,0,1,511.29,478.26Z"/><path class="cls-14" d="M458.48,490.16c-.66-.86-.4-2-.74-2.9a.41.41,0,0,1,.38-.49c.65.12.13-.43.35-.54A9.64,9.64,0,0,1,458.48,490.16Z"/><path class="cls-16" d="M530.16,449.26l-.21.22c-.35-.1-.57.47-1,.19l-.23-.22a18.42,18.42,0,0,1,2.59-2c.14-.1.33-.52.59-.05s0,.57-.36.68a2.48,2.48,0,0,1-.79.65A5.12,5.12,0,0,0,530.16,449.26Z"/><path class="cls-11" d="M517.45,480c-.51-.11-1,.24-1.53.09-.85-.25-1.07-.93-1.26-1.65A11.08,11.08,0,0,1,517.45,480Z"/><path class="cls-17" d="M514.67,477.48c-.07-.22-.15-.43-.2-.66-.13-.58-.2-1.15.71-.81.45.17,1-.37,1.41.24a1.62,1.62,0,0,1-1.61.42c.61.64-.12.69-.32,1-.07,0-.09-.07-.07-.11S514.64,477.48,514.67,477.48Z"/><path class="cls-18" d="M490.23,449.67c0,.12,0,.25,0,.37-.53-.13-.54.46-.85.63a1.88,1.88,0,0,1-1.17.37,6.66,6.66,0,0,1,1.37-1.62c.25-.24.47-.36.69,0A.14.14,0,0,1,490.23,449.67Z"/><path class="cls-19" d="M561.54,466.76c.27.23.56.44.82.69s.57.32.42.66-.51.21-.79.25c-.6-.08-.75-.52-.84-1C561.26,467.13,561.29,466.87,561.54,466.76Z"/><path class="cls-20" d="M546.44,444.72c.4,0,.9-.48,1.15,0a.83.83,0,0,1-.5,1.19l-.63-.23a.48.48,0,0,1-.36-.54A.54.54,0,0,1,546.44,444.72Z"/><path class="cls-14" d="M561.54,466.76a.58.58,0,0,1-.39.58,1.86,1.86,0,0,1-1-1.23C561.14,465.16,561.12,466.45,561.54,466.76Z"/><path class="cls-21" d="M520,479.06c.73-.79,1.46-.53,2.19,0A1.69,1.69,0,0,1,520,479.06Z"/><path class="cls-22" d="M508.1,477.49a2.09,2.09,0,0,1-2.57.8A11.61,11.61,0,0,1,508.1,477.49Z"/><path class="cls-23" d="M556.78,524.92c-.31.09.22.66-.26.54a1,1,0,0,1-.74-.94c0-.33.19-.37.46-.33a1.5,1.5,0,0,0,.36,0C556.87,524.37,556.75,524.66,556.78,524.92Z"/><path class="cls-12" d="M485.83,452.26l-.25-.1a2.59,2.59,0,0,1,2.06-.9C487.22,451.92,486.38,451.83,485.83,452.26Z"/><path class="cls-24" d="M524.6,444.28c-.12.07-.14.15,0,.23-.72.19-.56-.68-1-.83.69-.44,1.14.07,1.64.41C525.06,444.29,524.77,444.1,524.6,444.28Z"/><path class="cls-25" d="M503.54,479.47v-.21a4.65,4.65,0,0,1,1.77-.83c.05.22.1.43.17.75A2.27,2.27,0,0,0,503.54,479.47Z"/><path class="cls-26" d="M512.67,477.48h-.38c-.37-.3-.28-.59,0-.87s.52-.22.6-.05A.88.88,0,0,1,512.67,477.48Z"/><path class="cls-27" d="M537.51,535.67c.07-.53.48-.36.8-.39-.69.66.36.51.32,1C538.19,536.27,537.67,536.44,537.51,535.67Z"/><path class="cls-28" d="M546.25,445.09l.21.59c-.38.72-.89-.34-1.32.07l.36-.44C545.7,445.06,545.92,444.9,546.25,445.09Z"/><path class="cls-29" d="M467.35,503.68c-.23.5-.08,1.11-.56,1.72v-1.71Z"/><path class="cls-30" d="M537.08,477.31c.34.12,1.13-.93,1,.39C537.67,477.79,537.29,477.77,537.08,477.31Z"/><path class="cls-31" d="M529.35,479.82c-.63.38-.93,0-1.42-.25A1.34,1.34,0,0,1,529.35,479.82Z"/><path class="cls-32" d="M568.68,516.62l-.36.78c-.2-.32-.55-.12-.88-.29C567.87,516.89,568.15,516.47,568.68,516.62Z"/><path class="cls-33" d="M548.63,474.06a3.93,3.93,0,0,1,1.18-1C549.6,473.63,549.43,474.23,548.63,474.06Z"/><path class="cls-34" d="M566.38,523.15a1,1,0,0,1,.43.93c-.69,0-.7-.45-.7-.92Z"/><path class="cls-35" d="M553.41,530.71l.4-.19c.69.67.15.94-.4,1.21a.29.29,0,0,1,0-.42C553.76,531.11,553.44,530.91,553.41,530.71Z"/><path class="cls-36" d="M562.49,530.34l.07.33c.13.25-.11.32-.21.46.21.42,0,.55-.39.59C561.82,531.13,562.25,530.77,562.49,530.34Z"/><path class="cls-37" d="M529,449.67c.34,0,.56-.5,1-.19a4.4,4.4,0,0,1-1.18.78C528.56,450,528.83,449.84,529,449.67Z"/><path class="cls-38" d="M564.52,500.71c.22-.41.64-.55,1-.77C565.64,500.78,565,500.63,564.52,500.71Z"/><path class="cls-39" d="M501.75,530.51c.31,0,.39-.3.62-.39-.2.83-.57,1.09-1.25.4A.44.44,0,0,1,501.75,530.51Z"/><path class="cls-40" d="M543.06,476.46v-.15h2v.15Z"/><path class="cls-31" d="M524.18,478.47l.2-.17,1,.46C524.76,479.24,524.54,478.62,524.18,478.47Z"/><path class="cls-41" d="M563.7,528.74l.26.36c0,.19,0,.29-.24.23h-.35c-.08.07-.12.19-.24.21h-.19C562.75,528.85,563.53,529.08,563.7,528.74Z"/><path class="cls-12" d="M546.25,445.09l-.75.22a.51.51,0,0,1-.44-.21,4.17,4.17,0,0,1,1.38-.38Z"/><path class="cls-42" d="M511.69,477.45l-.86-.2c-.07-.28-.44-.07-.55-.35C510.85,476.89,511.43,476.75,511.69,477.45Z"/><path class="cls-43" d="M568.89,514.82c0,.28.82.52,0,.83C568.86,515.38,568.26,515.12,568.89,514.82Z"/><path class="cls-44" d="M510,476.22c.31-.38.54-.41.79-.25a.19.19,0,0,1,0,.17C510.55,476.35,510.3,476.27,510,476.22Z"/><path class="cls-41" d="M565.72,524.55c0,.3,0,.57-.4.6C565,524.67,565.27,524.54,565.72,524.55Z"/><path class="cls-45" d="M559.16,501.9c0-.45.2-.57.61-.39a.34.34,0,0,1,.38-.06.2.2,0,0,1,0,.25C559.77,501.5,559.55,502.09,559.16,501.9Z"/><path class="cls-46" d="M477.49,483.08h1.61A2.39,2.39,0,0,1,477.49,483.08Z"/><path class="cls-47" d="M467,509.23c.17,0,.37-.24.5,0a.45.45,0,0,1-.13.6A.86.86,0,0,1,467,509.23Z"/><path class="cls-35" d="M468.18,511.64c-.11.14-.21.29-.34.47-.21-.59-.16-.91.55-.68A.25.25,0,0,1,468.18,511.64Z"/><path class="cls-45" d="M531.76,471.31c.2.24.88.35.19.8C531.85,471.85,531.56,471.64,531.76,471.31Z"/><path class="cls-48" d="M541.64,476.29l.25.23c-.39.18-.76.53-1.23.16.08-.17.25-.21.4-.28S541.47,476.47,541.64,476.29Z"/><path class="cls-49" d="M469.41,477.44c.78-.13.47.48.55.83A2,2,0,0,1,469.41,477.44Z"/><path class="cls-50" d="M566.78,499.27c0,.4-.3.51-.6.92C566.19,499.58,566.55,499.47,566.78,499.27Z"/><path class="cls-51" d="M563.31,501.29l-.46-.35c.32.06.61-.3.88,0C563.73,501.27,563.53,501.31,563.31,501.29Z"/><path class="cls-52" d="M556.35,528.07a.27.27,0,0,1-.16-.31c0-.17.12-.31.29-.26s.1.22.1.34S556.52,528.08,556.35,528.07Z"/><path class="cls-53" d="M517.94,477.39c-.36.11-.6.13-.79-.19C517.45,477,517.65,477.19,517.94,477.39Z"/><path class="cls-54" d="M519.5,477.21c.39-.23.54,0,.89.11A.64.64,0,0,1,519.5,477.21Z"/><path class="cls-55" d="M528,479a1.13,1.13,0,0,1-.32.06c-.12,0-.27,0-.24-.21s.17-.16.3-.13A.3.3,0,0,1,528,479Z"/><path class="cls-56" d="M518.23,480.29c-.38.32-.6.09-.78-.25A.65.65,0,0,1,518.23,480.29Z"/><path class="cls-57" d="M468.18,511.64l.21-.21c.16.15.39.34.17.52S468.27,511.8,468.18,511.64Z"/><path class="cls-58" d="M560.16,501.7a1,1,0,0,1,0-.17.42.42,0,0,1,.43-.22c.23-.15.36-.13.35.18A1.07,1.07,0,0,1,560.16,501.7Z"/><path class="cls-59" d="M571.48,508.46c.07.05.32.08.18.14s-.38.31-.57.46C571.07,508.77,571.07,508.48,571.48,508.46Z"/><path class="cls-60" d="M549.44,459.79l-.2-.16-.07-.36c.09,0,.21,0,.26.05S549.7,459.63,549.44,459.79Z"/><path class="cls-61" d="M573.86,477.88c.11.25.28.48.2.78C573.75,478.47,573.46,478.26,573.86,477.88Z"/><path class="cls-62" d="M541.1,476.49l-.44.19-.38.19c0-.21-.09-.47.23-.57C540.67,476.47,541,476.28,541.1,476.49Z"/><path class="cls-63" d="M501.75,530.51h-.63a.4.4,0,0,1-.38-.21c.23-.2.55,0,.78-.17h.22C501.75,530.26,501.75,530.38,501.75,530.51Z"/><path class="cls-21" d="M501.52,530.14c-.21.29-.51.13-.78.17a.38.38,0,0,1-.37-.17Z"/><path class="cls-64" d="M534.13,475.49l.41.43a.32.32,0,0,1-.49.06C533.87,475.81,534.07,475.65,534.13,475.49Z"/><path class="cls-65" d="M507.64,476.62a1.66,1.66,0,0,1-.46,0,.11.11,0,0,1-.09-.19.32.32,0,0,1,.25-.06C507.43,476.43,507.49,476.51,507.64,476.62Z"/><path class="cls-66" d="M571.07,509.23c-.06.21-.13.42-.19.63C570.54,509.53,570.66,509.34,571.07,509.23Z"/><path class="cls-67" d="M514.06,477.67l-.5-.28a.52.52,0,0,1,.72.07A.24.24,0,0,1,514.06,477.67Z"/><path class="cls-68" d="M553.4,531.31v.42c-.41.06-.37-.28-.33-.47S553.29,531.27,553.4,531.31Z"/><path class="cls-69" d="M557.36,462.77c.36.2.07.4,0,.61C557.14,463.17,557.08,463,557.36,462.77Z"/><path class="cls-70" d="M556.59,460.17l.36.58c-.31.05-.46-.11-.53-.39Z"/><path class="cls-71" d="M526.78,481.44c-.28,0-.58.06-.8-.19l.19-.16.6.18c.07,0,.09.07.07.11S526.8,481.44,526.78,481.44Z"/><path class="cls-6" d="M514.06,477.67l.22-.21.39,0a.86.86,0,0,0,0,.16C514.47,477.76,514.28,477.94,514.06,477.67Z"/><path class="cls-72" d="M556.76,452.66a1.64,1.64,0,0,1-.74-1c.34-.23.27.46.59.23C556.87,452.08,556.76,452.38,556.76,452.66Z"/><path class="cls-73" d="M574.48,473.31c0-.21-.65-.25-.19-.61C574.51,472.86,574.76,473,574.48,473.31Z"/><path class="cls-74" d="M525.56,442.88l-.18-.57c.22.09.43.22.47.45S525.68,442.88,525.56,442.88Z"/><path class="cls-16" d="M575.41,504.32c-.12,0-.36,0-.32-.07.42-.94-.09-2.23,1.1-2.87,0,0,0-.05,0-.08.32.36.32.36,0,1.42,0,.27.1.57-.2.78s0,.45-.16.65S575.62,504.42,575.41,504.32Z"/><path class="cls-75" d="M562.32,541.82c0-1-.7-.56-1.09-.5s-.35,0-.23-.29a.41.41,0,0,1,.58,0,.88.88,0,0,0,.28-.06.79.79,0,0,1,.9.15c.32.26-.34.4-.21.71A.15.15,0,0,1,562.32,541.82Z"/><path class="cls-76" d="M571.35,521.44a2.22,2.22,0,0,1-.24-1.08c.24.06.63.06.68.19C572,520.93,571.6,521.16,571.35,521.44Z"/><path class="cls-77" d="M575.68,508.1l.25-1.62a4.72,4.72,0,0,1,0,2.39C575.59,508.67,575.87,508.33,575.68,508.1Z"/><path class="cls-78" d="M570.08,519.38c.34-.39.8-.08,1.18-.22a5.48,5.48,0,0,0-.41,1.65C570.25,520.46,571.5,519.27,570.08,519.38Z"/><path class="cls-79" d="M573,516.14a1.6,1.6,0,0,1,.27-1.53C573.12,515.21,573.6,515.66,573,516.14Z"/><path class="cls-80" d="M576.24,502.72c-.15-.47.31-1,0-1.42l0-.43A1.19,1.19,0,0,1,576.24,502.72Z"/><path class="cls-81" d="M561.58,541H561c0-.25-.36-.65.1-.71A.47.47,0,0,1,561.58,541Z"/><path class="cls-82" d="M575.41,504.32c.14-.08.28-.16.43-.23.15.08.06.29.2.38s.34.43,0,.62C575.76,504.88,575.28,504.83,575.41,504.32Z"/><path class="cls-83" d="M575.06,507.48c.07-.41.13-.81.2-1.21,0-.19,0-.28.2-.2a1.58,1.58,0,0,1-.2,1.4C575.2,507.56,575.13,507.56,575.06,507.48Z"/><path class="cls-76" d="M566.84,529.82c-.41-.64,0-.91.32-1.33A3.26,3.26,0,0,1,566.84,529.82Z"/><path class="cls-84" d="M562.74,540.45c0-.38-.09-.8.4-1,.19.45-.3.82-.16,1.27C562.71,540.8,562.78,540.57,562.74,540.45Z"/><path class="cls-85" d="M570.17,522.92c-.15-.44.08-.71.27-1.12C570.75,522.36,570.51,522.62,570.17,522.92Z"/><path class="cls-86" d="M574.66,510.25c-.31-.44-.15-.72.12-1.12A1.26,1.26,0,0,1,574.66,510.25Z"/><path class="cls-87" d="M563.14,539.05c-.22-.11-.55-.13-.51-.47,0-.1.17-.26.26-.25.33,0,.2.33.24.54A.55.55,0,0,1,563.14,539.05Z"/><path class="cls-88" d="M565.92,530.32c.05-.33-.18-.73.23-1-.13.41.13.65.58.93Z"/><path class="cls-37" d="M562.32,541.82h.23c-.13.46-.13.46-.76,0C562,541.63,562.14,541.88,562.32,541.82Z"/><path class="cls-89" d="M574.16,511.76v.78c-.36,0-.28-.22-.29-.39A.4.4,0,0,1,574.16,511.76Z"/><path class="cls-79" d="M573,514.4a.61.61,0,0,1,.22-.83C573.28,513.88,573.36,514.15,573,514.4Z"/><path class="cls-26" d="M575.06,507.48a.45.45,0,0,1,.2,0c0,.35.14.8-.49,1Z"/><path class="cls-90" d="M575.46,506.07l-.2.2h-.19c0-.22-.5-.22-.3-.47s.45.12.69.1Z"/><path class="cls-91" d="M562.22,544.87c.09.11.2.19.19.24a.68.68,0,0,1-.19.41c-.12.09-.25,0-.21-.18A2.29,2.29,0,0,1,562.22,544.87Z"/><path class="cls-92" d="M563.09,543.27c-.3.17-.51.32-.92.12C562.49,543.23,562.7,543.05,563.09,543.27Z"/><path class="cls-93" d="M561.76,539.65l.36.15c0,.19,0,.49-.18.45S561.82,539.85,561.76,539.65Z"/><path class="cls-94" d="M562.13,535.06c-.07.14-.13.28-.19.42s-.42.2-.43,0C561.47,535.11,561.89,535.17,562.13,535.06Z"/><path class="cls-89" d="M567.52,526.3l.36-.36c.34.21.15.47,0,.61S567.59,526.46,567.52,526.3Z"/><path class="cls-95" d="M561.43,546.85a1.37,1.37,0,0,1-.07-.34c0-.15.1-.26.25-.19a.3.3,0,0,1,.09.25A.26.26,0,0,1,561.43,546.85Z"/><path class="cls-96" d="M575.68,508.1c.29.2.12.52.2.77-.23.24-.4.26-.37-.13A3.2,3.2,0,0,1,575.68,508.1Z"/><path class="cls-35" d="M562,537.64l-.41-.16c.06-.19.07-.53.31-.47S561.87,537.44,562,537.64Z"/><path class="cls-97" d="M563.52,532.33c.19.08.5.06.47.33s-.27.22-.47.21Z"/><path class="cls-98" d="M577,496.73l.2.19c0,.22-.05.55-.28.45S576.83,496.93,577,496.73Z"/><path class="cls-99" d="M576.7,500.26a.92.92,0,0,1,.25.76C576.59,500.83,576.63,500.57,576.7,500.26Z"/><path class="cls-85" d="M567.41,528a.36.36,0,0,1,.14-.54C567.78,527.7,567.41,527.8,567.41,528Z"/><path class="cls-100" d="M562.54,532.5l-.41.2c-.11-.09-.19-.22-.07-.31S562.41,532.32,562.54,532.5Z"/><path class="cls-101" d="M570.63,523c0,.31-.08.48-.26.59C570.22,523.37,570.32,523.2,570.63,523Z"/><path class="cls-102" d="M576,504.47c-.17-.07-.18-.23-.2-.38s0-.45.2-.59Z"/><path class="cls-103" d="M574.68,512.22v-.84C574.94,511.63,574.88,511.83,574.68,512.22Z"/><path class="cls-91" d="M461.74,535.55c.34.34.31.57,0,.79A.67.67,0,0,1,461.74,535.55Z"/><path class="cls-104" d="M456.44,474.84c-.06.22-.13.44-.19.66a1.44,1.44,0,0,1-.22-1.28C456.38,474.34,456.13,474.76,456.44,474.84Z"/><path class="cls-70" d="M465.37,455.19l.21.47-.65.1C465,455.46,465.19,455.34,465.37,455.19Z"/><path class="cls-76" d="M503.75,439.33c-.17.24-.18.41.17.41.12.25.64-.17.58.36a11.43,11.43,0,0,0-1.32.27.69.69,0,0,1-.83-.25C502.73,439.72,503,439.16,503.75,439.33Z"/><path class="cls-92" d="M459.26,473.09a2.83,2.83,0,0,1-.25,2c0-.38.19-.79-.14-1.14-.31-.11-.39-.43-.6-.62-.07-.48.06-.69.55-.43a.32.32,0,0,1,.25.15C459.1,473.14,459.16,473.18,459.26,473.09Z"/><path class="cls-105" d="M563.13,529.54l.24-.21c.35.67,1.26.84,1.56,1.92A7.26,7.26,0,0,1,563.13,529.54Z"/><path class="cls-92" d="M562.35,531.13l.21-.46c.25-.08.09-.53.36-.49s.51.42.56.89A1.47,1.47,0,0,0,562.35,531.13Z"/><path class="cls-14" d="M458.27,473.31c.41,0,.54.27.6.62s-.42.2-.54.47A2.4,2.4,0,0,1,458.27,473.31Z"/><path class="cls-106" d="M535.33,446.67c-.36.26-.6.88-1.2.39C534.51,446.86,534.79,446.36,535.33,446.67Z"/><path class="cls-107" d="M525.56,444.07a1.72,1.72,0,0,1-.1-.42c.42.24,1.13.25.92,1-.23.09-.35,0-.43-.23s-.23-.22-.34-.34Z"/><path class="cls-108" d="M530.74,448.66l.84-.55c.22.25.52.12.77.17-.43.27-1,.18-1.4.57C530.87,448.8,530.75,448.78,530.74,448.66Z"/><path class="cls-70" d="M575.83,485.24a3.18,3.18,0,0,1-.16-1.62.18.18,0,0,1,.21,0c.09.13,0,.31.14.44l0,.4C575.75,484.64,575.9,485,575.83,485.24Z"/><path class="cls-109" d="M459.42,471.89c0,.24,0,.47-.2.61a.16.16,0,0,1-.2.06c-.11-.12,0-.31-.16-.43C458.83,471.55,459.17,471.81,459.42,471.89Z"/><path class="cls-110" d="M567.36,522.1c.17.23.55.14.56.5,0,0-.21.15-.31.14C567.26,522.68,567.29,522.42,567.36,522.1Z"/><path class="cls-111" d="M572.47,505.31c.2-.25.38-.44.65-.2.06.05.09.23.06.25C573,505.52,572.73,505.38,572.47,505.31Z"/><path class="cls-112" d="M526,444.46c.14.08.28.16.43.23s0,.43-.27.33S525.68,444.74,526,444.46Z"/><path class="cls-113" d="M576.45,489.38l-.44.18c0-.26,0-.52.06-.8C576.41,488.86,576.4,489.14,576.45,489.38Z"/><path class="cls-114" d="M490.23,449.67l0-.24c.26-.11.44-.4.77-.36A1,1,0,0,1,490.23,449.67Z"/><path class="cls-115" d="M563.72,529.33l.24-.23c.15.1.41.27.29.41S563.88,529.47,563.72,529.33Z"/><path class="cls-116" d="M458.86,472.13c.07.13.14.26.2.39s.14.4-.05.57l-.19-.21C458.84,472.63,458.85,472.38,458.86,472.13Z"/><path class="cls-117" d="M564.83,527a.38.38,0,0,1,.59.15C565.14,527.45,565,527.16,564.83,527Z"/><path class="cls-107" d="M524.6,444.28c.16-.23.4-.17.62-.19l.34,0,.05.05C525.31,444.4,524.94,444.23,524.6,444.28Z"/><path class="cls-118" d="M539.69,495.76c0,.32-.06.71.2.92.58.46.75,1.53,1.82,1.27a14.81,14.81,0,0,1,2.91,2.79,6.9,6.9,0,0,0,1.6,1.59c.45.26.24.72.43,1a9.37,9.37,0,0,1,.82,3.32c-.38-.13-.1-.46-.33-.6-.19.15,0,.38-.1.57-.52.07-.14-.46-.38-.57a3,3,0,0,1-.18-.3,2,2,0,0,0,.18.32c.14.23.05.52.18.76a17.7,17.7,0,0,0,1.46,3.7c.52,1.26,1.85,1.65,2.22,2.85s1.2,2.18,1.61,3.34c.09.25.75.5.17.88a.93.93,0,0,1-1.24-.21c-.21-.69-.66-.55-1.13-.64-.92-.19-.53-.6-.11-1,.4,0,.36-.14.2-.38s-.44-.39-.67-.57-.58-.77-.86.06a.57.57,0,0,1-.85.19c-.21-.12-.58-.1-.38-.6.11-.25-.12-.8-.56-.18-.16.21-.43.07-.65.1s-.17-.1-.25,0,0,.16.05.23c.64.29.74,1.12,1.39,1.39.4.27,1,.16,1.2.79a7,7,0,0,0,1.35.93,4.87,4.87,0,0,1,2.25,3.39c.25,1.07.56,2-.59,2.64.12,1-.28,1.58-1.32,1.65,0,0-.12.07-.14.13a5,5,0,0,1-3.15,3.13.86.86,0,0,0-.4.27c-1.23,1.7-3.14,1.23-4.81,1.53a4,4,0,0,0-1.47.54,4,4,0,0,1-2.65.5.2.2,0,0,1-.23,0c-.15-.11-.28-.24-.16-.45,1.49,0,2.46-1,3.37-2a2.59,2.59,0,0,0-.65-4c-.72-.44-.58-.81-.16-1.26a18.81,18.81,0,0,0,2.1-2.6,2.57,2.57,0,0,0,.23-2.66c-.14-.33-.22-.68-.33-1-.65-.4.22-.79,0-1.19a11.41,11.41,0,0,1-.89-2.64A2.91,2.91,0,0,0,538.7,512c.13-.63-.33,0-.4-.19v0a.89.89,0,0,1-.35-.23c-.55-1.27-1.51-2.35-1.83-3.74l-2.67-4.71c-.11-.19-.34-.34-.21-.61a4.36,4.36,0,0,0-.45-4.12,1.42,1.42,0,0,1-.08-.18c-.09-.27-.44-.52-.22-.79s.54,0,.81.07.23.14.37,0c-.17-.47-.66-.46-1-.66-.13-.07-.71-.2-.12-.51a2.93,2.93,0,0,1,1.67.72c-.4-.47-1.08-.46-1.48-.92-.31-.07-.73-.12-.75-.5-.13-1.86-1.47-3-2.52-4.31a1.4,1.4,0,0,1-.1-.16c.22-.2.38,0,.55.07s.09.08.11.08a.38.38,0,0,0-.13-.12c-.21-.2-.55-.17-.72-.43-.81-.74-1.84-.55-2.91-.62a3.5,3.5,0,0,1,1.48-1.24c.27-.15,1.24-.25.3-.9-.32-.22-.08-.44.08-.54s.44-.59.71-.16.59.45,1,.14.7-.53,1-.18a1.06,1.06,0,0,1,.17,1.19,4.66,4.66,0,0,0,.3,4.08,2.58,2.58,0,0,0,3.12,1.16c.35-.13,1-.49,1-.39,0,.61.53,1.13.32,1.76-.16.46-.35.92-.51,1.39s-.07.63.45.48c.91-.27,1.83-.52,2.76-.72.37-.07.42-.2.32-.52-.19-.58.07-.57.48-.37C539.51,495.38,539.61,495.56,539.69,495.76Z"/><path class="cls-118" d="M497.58,525.75a6.54,6.54,0,0,0-3.74.15h2.67a1.21,1.21,0,0,1-1.29.64,4.35,4.35,0,0,1-2,0c-.74-.18-.18-.5-.06-.82-1,.09-1.8-.55-2.77-.38s-1.81-.46-2.79-.76c0,.43.36.75.28,1.14-.6.24-1-.2-1.53-.37s-.63-.46-1.05-.41c-1.19-.28-2.37.31-3.56,0a1.06,1.06,0,0,0-.95.31c-.58.47-1.23,1-2.06.45-.17-.18-.43-.18-.64-.29a18.88,18.88,0,0,1-5.47-6.12,8.41,8.41,0,0,1-.59-3.47,12.42,12.42,0,0,0,.06-2.28c.08-1.19.29-2.35.42-3.53a.87.87,0,0,1,.45-.82c1.84-.58,3.14-2,4.69-3.29a5.78,5.78,0,0,1-.8,2.61c-.79,1.79.42,5.3,2.25,6.28s3.13,0,4.33-1.1c.72-.68,1.87-.58,2.42-1.51.16-.27.38.1.55.22a3.1,3.1,0,0,0,3.35.22,8.17,8.17,0,0,1,2.79-.46c.54-.06.21.4.19.64-.09,1.24-.36,2.5.27,3.68,1.33,2.46,2,2.43,4.42,2a1.55,1.55,0,0,0,.56-.19c.92-.59,1.79-.91,2.71,0,.4.42,1.06.19,1.79.4a3.72,3.72,0,0,0-1.34,1.46h.63c0,.06.05.15,0,.17-.91.35-.74.95-.39,1.6.19,0,.5.08.43.27-.16.45-.64.18-1,.21a.86.86,0,0,0,.54.73c.07,0,.1.08.07.13s0,.06-.07.06c-.41.43.53.58.2,1l-.13.06a1.74,1.74,0,0,1-1.26-.37,1.62,1.62,0,0,1-.18-.19c0,.06.06.06.07.11.18.26.54.28.69.57.08,1-.81.85-1.33,1.14-.42,0-.84-.2-1.26,0a3.61,3.61,0,0,1-1.7-1.54C496.56,524.78,497.49,525,497.58,525.75Z"/><path class="cls-118" d="M508.94,528.16a7,7,0,0,1,.2-2.54c.16-.57,0-1.22.11-1.84.08-.43-1.11-.65-1.65-.24a2,2,0,0,0-.93,1.45c0,.78-.11,1.56-.16,2.34a17.68,17.68,0,0,1-3.78-.35,1.33,1.33,0,0,1-.28-.1c-.1-.08-.22-.24-.11-.31.51-.33.41-.8.38-1.28a.81.81,0,0,1,.21-.34,2.56,2.56,0,0,0,.27-.74c0-.48.05-.72.65-.58.36.08.45-.16.38-.61s.23-.41.5-.46c.21-.27.56-.24.69-.29-.18.08-.55,0-.89.09s-.79,0-.54-.62a1.41,1.41,0,0,0,.07-.85,1.91,1.91,0,0,1,1.74-2.09c.31,0,.61-.37.91,0-.1.15,0,.38-.24.5.18,0,.26-.23.45-.19a.42.42,0,0,1,.33.2c.06.12.11.25.16.37.2.38.45.6.92.4a1.18,1.18,0,0,1,1-.1.57.57,0,0,1,.09.4c-.38.42-.76.84-1.12,1.2.36-.31.87-.24,1.47-.23-.36-.09-.81.08-.84-.19-.05-.52.59-.48.86-.77.28-.46.09-.76-.34-1a1.27,1.27,0,0,1-.43-.46c-.06-.11-.06-.24-.14-.34-.42-.49-.18-1,.12-1.35s.51-.37.68.16c.57,1.89,1.75,2.92,4,3.53,0-.31-.39-.21-.39-.49,1-.39,1.77.21,2.63.47-.09.42-.43-.1-.55.28.91.14.78.67.49,1.31a4.11,4.11,0,0,0-.21,3.08c.57,1.73,1.92,2.52,3.59,1.88a20.28,20.28,0,0,0,4-2.07,6.21,6.21,0,0,0,2.21-2.61c.14-.31.3-.65.66-.66s.4.45.56.7c.37.59.29,1-.33,1.48a2.8,2.8,0,0,0-.48,4.19c.47.61.19,1.11.05,1.67s-.61.32-1,.34a.92.92,0,0,0-.71.27,2.6,2.6,0,0,1-3.24.41,10.91,10.91,0,0,0-2.71-.46,15.39,15.39,0,0,0-2.55-.2c-.43,0-.61-.54-1.06-.41a1.09,1.09,0,0,1-.64-.13c-.52-.24-1.24,0-1.59-.66h0c-.27-.16-.62-.09-.87-.3-.28,0-.54-.12-.82-.11A4.34,4.34,0,0,1,508.94,528.16Z"/><path class="cls-118" d="M491,488.6a37.66,37.66,0,0,1,5.06-3.41c1.28-.87,3-1.07,4.52-1.63.51-.19,1.18.18,1.82.08a3.47,3.47,0,0,0,2.09-.95,1.25,1.25,0,0,1,1.8-.25c.87.57,2,.16,3,0,.33-.31.74-.13,1.08-.2-.29-.1-.79.25-.88-.39a4,4,0,0,1,3.37.4c0,.05.07.09,0,.14s0,.07,0,.07l-.62.44a21.51,21.51,0,0,1,3-.05c.79,0,1.35.48,2,.79.13.31.59.54.28.95s-.64.1-1,0a13.26,13.26,0,0,0-4.61-.32c-1.18.07-2.36.25-3.53.35-.45,0-.86.05-1,.59s-.49.4-.81.4a1.48,1.48,0,0,0-1,.4c-1.14.89-1.16.87.33,1.66a24.5,24.5,0,0,0-3.53,0,6.8,6.8,0,0,0-4.22,1.48,6.74,6.74,0,0,1-4,1.45,10.91,10.91,0,0,0-4.16,1.18A4,4,0,0,1,491,488.6Z"/><path class="cls-118" d="M507.91,514.82c.06-.47.13-.93.19-1.39a.72.72,0,0,1,.07-.38c-.16,0-.17.15-.25.23s-.07.39-.21.55c-.07.35-.11.74-.59.78s-.58-.3-.71-.59c-.33-.79.62-.4.75-.89-.27-.21-.59-.46-.13-.93,2.69-2.75,4.58-6.08,6.7-9.24a3,3,0,0,1,3.21-.72c.41.23.08.62.31.85.72.73.62,1.7.78,2.6a2.56,2.56,0,0,1-.47,2.45,6.24,6.24,0,0,1-3.2,3,9.08,9.08,0,0,0-3.74,2.67,4.63,4.63,0,0,1-2.31,1.44C507.89,515.37,507.75,515.25,507.91,514.82Z"/><path class="cls-118" d="M533.13,506.47a33.73,33.73,0,0,0,2.66,5,16.13,16.13,0,0,1-1.91-.17c-1.89.06-3.81,0-5.53,1a5.78,5.78,0,0,1-1.59.49.61.61,0,0,1-.7-.25,6.6,6.6,0,0,0-3.32-2.54,13.19,13.19,0,0,0,5.45-2.78,3.14,3.14,0,0,1,1.38-.46c1.17-.28,1.62-1.54,2.7-1.93.08,0-.2-.28,0-.43a1.71,1.71,0,0,1,.84,1.47C533.25,506.08,533,506.27,533.13,506.47Z"/><path class="cls-118" d="M523.6,489.79l1.06.6c-.4.53-1.09.25-1.64.54.43.47.88-.22,1.22.19a2,2,0,0,1-1.37.79,6.46,6.46,0,0,0-4.51,3.08.74.74,0,0,1-1.13.32c-.62-.31-.23-.66-.07-1.05a8.75,8.75,0,0,0,.63-4.85,3.09,3.09,0,0,0-2.73-2.41c-.06,0-.09-.08-.06-.13s0-.06.06-.06a6.23,6.23,0,0,1,3.07,1c.33.18.75.8,1.16-.11.14-.3,1,.13,1.47.18a2.51,2.51,0,0,1,.46.16c.2,0,.39.08.69.05a2.15,2.15,0,0,0-1.09-.63c-.74-.64-.36-1.46-.31-2.21,0-.27.52-.5.71-.3s1.17.3.91.84c-.36.78.17,1,.52,1.38.51.53,1.05,1,1,1.86.09.17,0,.29-.11.41C523.23,489.6,523.61,489.65,523.6,489.79Z"/><path class="cls-5" d="M472.93,509.24c-.2,1.47-.4,2.93-.61,4.39-.2.26.1.68-.28.87s-.52-.12-.73-.31a1.56,1.56,0,0,1-.35-.56h0c-.22-.3,0-.69-.18-1s-.24-.82-.33-1.23a3.05,3.05,0,0,0-1.7-2.34c-.29-.2-.26-.62-.57-.8-.58-.3-.12-1-.61-1.39a.28.28,0,0,1,0-.4,5.66,5.66,0,0,1,1.38-1c.14-.07.23,0,.3.12s.07.15.08.07a3.24,3.24,0,0,0,0-.62c0-.12,0-.24,0-.36,1.44-1.42,2.39-3.41,4.57-4a.7.7,0,0,1,.2.71,18.5,18.5,0,0,1-.57,3.55,1.4,1.4,0,0,1-.81.51c-.54.3-.75.9-1.18,1.3s-.19.57.06.86C472.08,508.17,472.5,508.71,472.93,509.24Z"/><path class="cls-118" d="M515.26,514c.27,0,.43-.25.65-.31.39-.1.14.17.13.3a6.07,6.07,0,0,1-.5.81,2.5,2.5,0,0,1,.72-.8,2.65,2.65,0,0,0,1.38-.58,1.26,1.26,0,0,1,1.14-.2,5.35,5.35,0,0,0,1.74.08c.34,0,.88-.4,1.11.25s.44,1.22,0,1.69a27.49,27.49,0,0,0-3.4,4,1.74,1.74,0,0,1-.86.46c-.56.18-.57-.1-.36-.5-.55.21-.82-.42-1.29-.41a4.17,4.17,0,0,1-2.63-1.2h0c.4-.74.17-1.7.87-2.35a5.34,5.34,0,0,0,.72-1A3.25,3.25,0,0,0,515.26,514Z"/><path class="cls-118" d="M534.23,515.78c-.17-.45-.71-.42-.74-.86a2.58,2.58,0,0,1,2.64,1.27.82.82,0,0,1-.51,1.14,15.57,15.57,0,0,0-6.82,3.91,5.48,5.48,0,0,1-.44.4s-.12,0-.39.1c.41-1.06,0-2.13,1-3.08.7-.67,1.17-1.64,1.84-2.42a2,2,0,0,1,2.77-.66A2.71,2.71,0,0,0,534.23,515.78Z"/><path class="cls-119" d="M506.91,503.09a3.16,3.16,0,0,0-1.69,1.66c-.06.14-.15.36-.26.39-.94.24-1.29,1.25-2,1.63a14,14,0,0,0-2.89,2.5,6.13,6.13,0,0,1-2.1,1.2c-.36.15-.81.22-.88-.23s.52-.68.74-.64c1.38.27,2.1-.78,2.91-1.48a42.15,42.15,0,0,0,4.36-5c1-1.15,1.3-2.65,2.22-3.86s2-1.27,3.14-1.7c.31-.12.4.1.29.39a20,20,0,0,1-2.71,5.26c-.23.33-.79.2-.94.65h0c-.05-.13-.71.23-.24-.29a.76.76,0,0,0,.24-.5,30.92,30.92,0,0,0,2.23-3.51C508.53,500.63,508.16,502.17,506.91,503.09Z"/><path class="cls-5" d="M510.41,531.55c.62,0,1.23-.3,1.6.42.1.19.28.15.44.14a14,14,0,0,1,6.17,1.11c-.77.57-1.14,1.78-2.46,1.63-.53,1.43-1.72.58-2.6.73a1,1,0,0,1-.81-.26c-.61-1.1-1.9-1.72-2.17-3.06C510.54,532,510.48,531.82,510.41,531.55Z"/><path class="cls-5" d="M546.65,503.37c-1.37-1.58-2.76-3.13-4.24-4.6-.25-.26-.47-.55-.7-.82.39,0,1.06.26.7-.68a5.94,5.94,0,0,0,.23-1.29c0-.31.47-.54.86-.38,1.15.48,2.24,1,2.58,2.37.26,1,1,2,.39,3.19a.38.38,0,0,0,0,.37C547.5,502.42,547.52,502.61,546.65,503.37Z"/><path class="cls-118" d="M527.54,499a.39.39,0,0,1,.44.19c.52.82,1.25,1.58.64,2.68-.18.32-.27.68-.43,1-1,2-1.77,2.24-3.69,1.05a1.6,1.6,0,0,1-.09-2.77,12.83,12.83,0,0,0,2-1.48A3.78,3.78,0,0,1,527.54,499Z"/><path class="cls-120" d="M473.33,505.08c.2-1.45.4-2.9.59-4.35.2-.29.57-.22.81-.42A34.16,34.16,0,0,1,478,499c.91-.34,1.82-.69,2.74-1,.32-.12.65-.37,1-.06-.56,1.47-1.87,2.1-3.12,2.83a15.3,15.3,0,0,0-4.12,3.15c-.38.45-.47,1.19-1.09,1.54A.28.28,0,0,1,473.33,505.08Z"/><path class="cls-118" d="M481.49,508.86a3.67,3.67,0,0,0,2.18.8c.27,0,.72-.05.41.46a7.47,7.47,0,0,1-2.67,2.85,1.33,1.33,0,0,1-2.08-.75,4.86,4.86,0,0,1-.22-3.38c.25-.78,1.05-.52,1.57-.77C481.11,508.18,481.28,508.53,481.49,508.86Z"/><path class="cls-121" d="M481.69,498l-3.75,1.19c-.22.09-.25,0-.21-.2,2.19-.62,3.74-2.21,5.43-3.59A10,10,0,0,1,485,494a1.1,1.1,0,0,0,.49-.55c.32-.59.56-1.19,1.51-1.26.64,0,1.1-.88,1.53-1.46A7.52,7.52,0,0,1,491,488.6a21.88,21.88,0,0,0-1,3.16A23.28,23.28,0,0,0,481.69,498Z"/><path class="cls-118" d="M496.38,503.89c-.62,1.31-1.23,2.61-1.87,3.91-.08.16-.33.4-.42.36-.91-.31-1.36.43-1.89.85a4,4,0,0,1-3.09,1c-.13,0-.27-.13-.36,0s-.24.6-.63.24a1,1,0,0,1-.25-1c.06-.42.42-.35.7-.34,1.81,0,3.11-1,4.27-2.18S495.29,505,496.38,503.89Z"/><path class="cls-118" d="M498.59,512.68a7.6,7.6,0,0,1-.19,1.85,1.49,1.49,0,0,1-1.45,1.25c-.76,0-.73-.69-.85-1.3-.61.28-.72.94-1.16,1.3-.28.23-.53.52-.95.38s-.33-.49-.41-.81a3.7,3.7,0,0,1,.05-1.37c.15-1.26.62-1.65,1.73-1.33A7.64,7.64,0,0,0,498.59,512.68Z"/><path class="cls-119" d="M505.33,495.35l1.25-1.08c-.57,1.46-.72,3.17-2.5,3.84-1,.39-1.67,1.38-2.87,1.84a25.81,25.81,0,0,1,2.73-5.89c.24-.37.56-.2.88-.11a.59.59,0,0,1,.48.74,5.46,5.46,0,0,1-.19.66,2.36,2.36,0,0,1-.86.86,1.64,1.64,0,0,0-1.37,1.43c-.12.22.1.21,0,.18s0,0,0-.1a3,3,0,0,1,1.42-1.54C504.68,496,504.94,495.58,505.33,495.35Z"/><path class="cls-118" d="M525.19,494.56l1.56,2.64c.18.29.39.77-.15.69-1.41-.23-2.2.79-3.21,1.38-.45.26-.66.17-.56-.3.35-1.65.71-3.31,2.17-4.41A.11.11,0,0,1,525.19,494.56Z"/><path class="cls-119" d="M512.09,492.24c-.16,1-.28,1.84-.45,2.7-.07.33-1.61.92-1.91.77s-.15-.33-.07-.5A7.55,7.55,0,0,0,510,492c0-.85.76-.8.84-1.34a1.61,1.61,0,0,1,1.1,1C512,491.89,512.05,492.1,512.09,492.24Z"/><path class="cls-119" d="M534.61,529.37c-.74,1-1.33.34-1.92.12a.38.38,0,0,1,.25-.43c1.28-.45,2.3-1.4,3.59-1.8.53-.17,1.25-.48,1.63.45h-2.1c.55.75,1.42,1.4.9,2.32-.33.6-1.14.29-1.74.2C534.82,530.17,534.29,530.08,534.61,529.37Z"/><path class="cls-119" d="M506.62,487.66c2.55-.39,4.74-1.68,7.33-.67-1.77,0-2.89,1.31-4.38,1.84a1.27,1.27,0,0,1-1.48-.23A13.88,13.88,0,0,0,506.62,487.66Z"/><path class="cls-121" d="M548.31,530.82c.25-.37.6-.42.87-.59s.76-.24.71-.86c0-.35.55-.51.88-.7.69-.39,1.45-.68,1.82-1.45.1-.22.23-.3.47-.18s.21.22.18.46c-.12,1.37-1.1,2.15-2,3A4.3,4.3,0,0,1,548.31,530.82Z"/><path class="cls-119" d="M523.5,484c.6.15,1.07.55,1.53-.15.19-.28.78,0,1.11.17a12.27,12.27,0,0,1,1.53,1.06c.15.13.37.38.17.59s-.36.53-.58.05a5.57,5.57,0,0,0-.86.51c-.14.12-.13.27-.4.38-.7.27-.89,0-1.09-.58C524.64,485.31,523.81,484.93,523.5,484Z"/><path class="cls-119" d="M507.11,510.24c1.28-2.07,1.78-4.62,3.49-6.45l.45.26c-.61,2-1.23,3.92-2.78,5.41a5.29,5.29,0,0,0-1,1C507.13,510.49,507,510.45,507.11,510.24Z"/><path class="cls-71" d="M502.57,526.76a18.1,18.1,0,0,1,3.94.57c.05.69-.08,1.06-.9.68a3.93,3.93,0,0,0-2.47-.09,5.07,5.07,0,0,0-1.54.3c-1,.21-1.14.14-1.06-.88A.47.47,0,0,1,501,527C501.51,527,502.1,527.25,502.57,526.76Z"/><path class="cls-119" d="M521.22,505.83a1.23,1.23,0,0,1,.52-.94c.42-.28.58.21.76.41a3,3,0,0,0,1.36.73c.29.12.76.18.78.52s-.45.39-.72.55a3.61,3.61,0,0,1-.65.24C522,507.78,521.27,507.26,521.22,505.83Z"/><path class="cls-119" d="M525.19,494.56H525c.2-.32.72-.36.71-.88,0-.24.22-.28.42-.32a2.49,2.49,0,0,1,2.91,2Z"/><path class="cls-122" d="M538.11,511.64l.19.19a1,1,0,0,1-1.44-.29,11,11,0,0,1-1.67-2.79c-.1-.24-.37-.57-.07-.81a.61.61,0,0,1,.81.12c.61.42.75,1.14,1.07,1.74A15.49,15.49,0,0,0,538.11,511.64Z"/><path class="cls-123" d="M515.06,500.76a20.72,20.72,0,0,1,1.36-3.41c.19.42-.29.65-.07,1,.13-.16.23-.3.35-.43s.15-.43.42-.23.33.27.25.49a4.5,4.5,0,0,0-.13,1.46c0,.46-.3.59-.7.64A3,3,0,0,0,515.06,500.76Z"/><path class="cls-119" d="M501.35,511.25c.29-.48.84-.61,1.23-.95s.46.09.67.16.05.32,0,.44a6.34,6.34,0,0,1-2.23,2.37c-.24.16-.35-.06-.45-.23a.27.27,0,0,1-.08-.23,6.92,6.92,0,0,1,.36-.83A2.12,2.12,0,0,1,501.35,511.25Z"/><path class="cls-122" d="M519.83,523.56c-.13-.24.43-.35,0-.72-.63-.59-.24-1,.46-1a11.69,11.69,0,0,0,2.6-.35c-.5.6-.63,1.51-1.74,1.37-.53-.06-.65.77-1.16.94C519.91,523.74,519.89,523.64,519.83,523.56Z"/><path class="cls-124" d="M528.4,532.31c-.31-.32-.07-.39.2-.39a11.92,11.92,0,0,0,1.78-.12c-.75-.58-1.73.34-2.52-.35,1.49-.8,2.89-.43,4.38.15a11.79,11.79,0,0,1-2.48.9C529.32,532.29,528.81,532.69,528.4,532.31Z"/><path class="cls-122" d="M532.62,521.05a9.93,9.93,0,0,1,2.46-1.61.4.4,0,0,1,.54.09c.1.16-.07.29-.15.43A2.17,2.17,0,0,1,532.62,521.05Z"/><path class="cls-122" d="M502.64,494l-2.35,3.2C500.06,495.64,500.64,494.82,502.64,494Z"/><path class="cls-122" d="M502.93,491a9.54,9.54,0,0,0-2.37,1.38c-.24.15-.58.54-.85.18s.22-.5.4-.74c.67-.91,1.72-.77,2.63-1C503,490.7,503,490.8,502.93,491Z"/><path class="cls-122" d="M528.37,497.73c-.14-.46-.59-.77-.66-1.27,1.46-.24,1.66-.07,1.65,1.47A.6.6,0,0,1,528.37,497.73Z"/><path class="cls-123" d="M501,517.6c-.26,0-.57,0-.68-.27s.27-.39.44-.55a3.27,3.27,0,0,1,.65-.45c.31-.18.61-.42,1-.26-.18.27,0,.58-.06.85-.16.44-.55.26-.85.26a3.13,3.13,0,0,1-.56-.12c0,.33.26.31.45.35C501.37,517.78,501.17,517.71,501,517.6Z"/><path class="cls-125" d="M513.27,530.69a1.47,1.47,0,0,1-.47.14c-.37,0-.83.65-1.07,0s-.17-1.28.74-1.37c.58.06.64.58.86,1A.31.31,0,0,1,513.27,530.69Z"/><path class="cls-126" d="M506.91,503.09c1.11-1.3,1.76-2.9,2.84-4.22-.74,1.49-1.31,3.09-2.63,4.23Z"/><path class="cls-127" d="M500.56,512.83V513c-.31.31-.51.76-1.08,1,.31-1.24.45-2.44,1.88-2.78a1.12,1.12,0,0,1-.39.79C500.68,512.23,500.72,512.58,500.56,512.83Z"/><path class="cls-128" d="M508.94,528.16c.71,0,1.27.46,1.94.58.13.22-.11.28-.17.42.09.2.34.33.25.8C510.24,529.31,509.13,529.33,508.94,528.16Z"/><path class="cls-129" d="M509.1,518.79l.4.4c.16.32.33.65-.21.8-.37.24-.84.24-1.24.47-.64.36-.51-.58-.93-.68.29-.24.6-.45,1-.2q.19.31.39,0C508.73,519.34,508.88,519,509.1,518.79Z"/><path class="cls-130" d="M538.11,511.64c-1.33-.82-1.35-2.45-2.18-3.58l.19-.2A21,21,0,0,1,538.11,511.64Z"/><path class="cls-123" d="M514.16,497.13a6.13,6.13,0,0,1-1,2.81C512.81,498.78,513.83,498.06,514.16,497.13Z"/><path class="cls-131" d="M510.13,503.94c0-1,.74-1.43,1.25-2.08C511.54,503,511.45,503.14,510.13,503.94Z"/><path class="cls-132" d="M523.4,489.38l.21-.39c.44.2.44-.1.35-.36a13.6,13.6,0,0,0-.58-1.34c1,.46,1.12,1.28,1.21,2.1a.68.68,0,0,1-.59.2h-.4A.26.26,0,0,1,523.4,489.38Z"/><path class="cls-133" d="M513.32,489.7c1-.82,1.09-.81,1.41.2.09.3.4.54.24,1C514.51,490.33,514.22,489.62,513.32,489.7Z"/><path class="cls-127" d="M495.78,498.73a5.83,5.83,0,0,1-1,1.72C494.42,499.17,494.54,499,495.78,498.73Z"/><path class="cls-132" d="M504.86,492.35c-.3,1-1.09,1.26-1.74,1.76C503.17,493.33,503.17,493.33,504.86,492.35Z"/><path class="cls-127" d="M528.62,514.86a2.65,2.65,0,0,1-1.1,1.4C527.19,515.27,527.37,515,528.62,514.86Z"/><path class="cls-134" d="M528.37,497.73a1.58,1.58,0,0,0,1,.2v1.71C528.85,498.88,528.3,498.48,528.37,497.73Z"/><path class="cls-135" d="M501.36,522c-.73-1-.7-1.18.38-1.77.31.11.55.4.45.66s-.47.12-.75.1c-.51,0-.05.28-.09.42s.1.09.07.14,0,.06-.07.06Z"/><path class="cls-127" d="M495,495.74a.66.66,0,0,0-.4.4c0,.24-.23.31-.4.41s-.3.57-.7.73c-.15-.59-.18-1.12.52-1.21.37,0,.46-.83,1-.32Z"/><path class="cls-132" d="M548.44,516.8c-.32-.39-1-.17-1.2-.79.15-.43.42-.52.8-.27S548.83,516.25,548.44,516.8Z"/><path class="cls-127" d="M495,495.75l1.68-1.51a1.52,1.52,0,0,1-1.67,1.5Z"/><path class="cls-136" d="M516.84,501.46l-2.27.17A1.75,1.75,0,0,1,516.84,501.46Z"/><path class="cls-126" d="M520.82,487.42c.79-.26,1.12.29,1.69,1-.6-.13-1,.18-1.29-.38Z"/><path class="cls-135" d="M517.24,483.63c-.88.29-1.26-.68-2-.79.4-.18.8-.38,1.2,0,.14.23.43.22.6.4l.39.2Z"/><path class="cls-136" d="M520,500.09l.43,1.86-.26.06C519.91,501.41,519.52,500.83,520,500.09Z"/><path class="cls-137" d="M532.73,496.15a3.86,3.86,0,0,1,2.24,1.43l-2.43-1.23Z"/><path class="cls-138" d="M513.27,530.48c-.52-.14-.32-.84-.8-1a.66.66,0,0,1,0-.14c.5.15,1,.5,1.56.23.12,0,.08.19,0,.3C513.94,530.25,513.58,530.34,513.27,530.48Z"/><path class="cls-135" d="M518,505.69l-.78-2.6.2-.19c.6.28.16,1,.59,1.38l.2.41c-.2.15,0,.44-.2.59Z"/><path class="cls-139" d="M535.52,531.51c-.81.38-1.57-.1-2.36-.2h2.76C535.93,531.68,535.74,531.63,535.52,531.51Z"/><path class="cls-140" d="M507.91,514.82a.37.37,0,0,0,.4.4c-.28.17-.55.34-.84.5s-.35.13-.44,0a.67.67,0,0,1,.08-.45c.06-.13.2-.42.32-.24C507.9,515.66,507.66,514.61,507.91,514.82Z"/><path class="cls-123" d="M538.83,522.26c-.12.31-.23.64-.57.77-.19.07-.32-.12-.29-.28a.81.81,0,0,1,.55-.74C538.71,522,538.83,522.05,538.83,522.26Z"/><path class="cls-141" d="M513.27,530.48a1.31,1.31,0,0,1,.8-.62c.23.06.48,0,.64.26a5.92,5.92,0,0,1-1.44.57Z"/><path class="cls-133" d="M507,508c-.4-.81.33-1.1.54-1.58A2.52,2.52,0,0,1,507,508Z"/><path class="cls-122" d="M518,504.28c-.54-.31-.22-1-.59-1.38,0-.25-.1-.62.39-.4a.53.53,0,0,1,.2.8C517.69,503.63,518.17,504,518,504.28Z"/><path class="cls-136" d="M541.68,516.41c.56.4-.38.79,0,1.19-.21.08-.53.18-.51-.14S541.12,516.56,541.68,516.41Z"/><path class="cls-142" d="M516.26,514a2.51,2.51,0,0,1-1.23,1.3c.33-.45.47-1,1-1.31Z"/><path class="cls-143" d="M502.93,525v.4c-.29.11-.32.59-.74.5a1.45,1.45,0,0,1-.68-.46.33.33,0,0,1,.12-.37c.34-.39.74,0,1.1-.07Z"/><path class="cls-144" d="M537.12,531.11c.06.13.12.27.19.4s-.17.24-.2.4a.87.87,0,0,1-.47.47c-.21-.2.24-.51-.13-.68-.12-.23.1-.29.2-.4A.41.41,0,0,1,537.12,531.11Z"/><path class="cls-145" d="M502.74,525c-.28.35-.72-.16-1,.19a.55.55,0,0,1-.31-.27.46.46,0,0,1,.12-.52h0Z"/><path class="cls-146" d="M507.71,513.83c0-.48,0-1,.55-1.12a.56.56,0,0,1-.16.72Z"/><path class="cls-146" d="M501,517.6a.43.43,0,0,0,.4-.19l1,.08A1.11,1.11,0,0,1,501,517.6Z"/><path class="cls-147" d="M535.49,532.5c.16,0,.34,0,.28.26a.37.37,0,0,1-.42.3c-.18,0-.34-.1-.31-.28S535.28,532.5,535.49,532.5Z"/><path class="cls-148" d="M536.62,483.51c.15.1.42.07.41.33s-.25.28-.42.3-.14-.21-.19-.33S536.37,483.49,536.62,483.51Z"/><path class="cls-149" d="M512.21,489.93c0,.24-.2.26-.35.21s-.41-.08-.41-.31.2-.23.36-.22A.42.42,0,0,1,512.21,489.93Z"/><path class="cls-150" d="M502.93,491l-.19-.19a2.25,2.25,0,0,1,1.46-.43Z"/><path class="cls-151" d="M507.12,519.39l-.21-.2c-.05-.05-.07-.09-.05-.13s0-.07.06-.07c.33,0,.79-.49,1,.2C507.71,519.51,507.46,519.65,507.12,519.39Z"/><path class="cls-152" d="M519.44,536.27l-.38.1a.42.42,0,0,1-.55-.27c0-.08.09-.25.18-.31.25-.17.33.1.46.21l.28.28Z"/><path class="cls-153" d="M528.4,532.31c.45.07.94-.18,1.36.19C529.29,532.53,528.76,533,528.4,532.31Z"/><path class="cls-129" d="M506.92,519a1.34,1.34,0,0,0,0,.2c-.09.08-.22.14-.27.25s0,.44-.33.29-.19-.35,0-.53l.4-.41Z"/><path class="cls-154" d="M501.35,521.57v-.2a3.09,3.09,0,0,1,1.26.5C502.08,522.12,501.75,521.7,501.35,521.57Z"/><path class="cls-127" d="M536.71,531.3l-.2.4c-.32-.1-.76.37-1-.19a.43.43,0,0,0,.4-.2Z"/><path class="cls-126" d="M507.12,519.39a1.39,1.39,0,0,0,.79-.2c0,.18.4.13.2.39l-1,.2Z"/><path class="cls-155" d="M550,515.42a1.55,1.55,0,0,1,.7.69c-.43.23-.61-.22-.9-.3Z"/><path class="cls-118" d="M513.08,517.6c-.59-.08-.7-.36-.33-1l.32,1Z"/><path class="cls-135" d="M481.49,508.86a2.19,2.19,0,0,1-.81-.79C481.45,507.83,481.45,508.36,481.49,508.86Z"/><path class="cls-156" d="M473.33,505.08l0,.4c-.2.1-.39.65-.62,0A.6.6,0,0,1,473.33,505.08Z"/><path class="cls-126" d="M509.1,518.79c.08.47-.24.65-.6.79.13-.32.27-.65.4-1Z"/><path class="cls-157" d="M538.3,511.85c.23-.14.19-.39.22-.64.42.23.59.47.18.83A.43.43,0,0,1,538.3,511.85Z"/><path class="cls-145" d="M506.89,492.9c.17,0,.22.09.19.23s-.24.29-.42.32a.19.19,0,0,1-.22-.23C506.5,493,506.71,493,506.89,492.9Z"/><path class="cls-134" d="M507.11,510.24l.2.21-.61.72-.17-.12Z"/><path class="cls-140" d="M537,523.44a.5.5,0,0,1-.35.59s-.19-.12-.18-.16A.5.5,0,0,1,537,523.44Z"/><path class="cls-154" d="M504.53,522.36c.29-.3.64-.18,1-.05l-.81.25Z"/><path class="cls-158" d="M530,491.38l-.6-.2c-.12-.11-.45-.12-.19-.4a1.06,1.06,0,0,1,.79.4c.06,0,.08.09.06.13S530,491.38,530,491.38Z"/><path class="cls-159" d="M505.33,495.35c-.25.37-.5.75-1,.79h0a2.14,2.14,0,0,1,.78-.8Z"/><path class="cls-150" d="M500.9,500.13c0,.18-.14.31-.33.3s-.15-.15-.14-.19.14-.33.26-.37S500.89,500,500.9,500.13Z"/><path class="cls-158" d="M505.83,518.35l1.09-.52C506.76,518.22,506.48,518.38,505.83,518.35Z"/><path class="cls-122" d="M518,503.3a1.33,1.33,0,0,0-.2-.8c.7,0,.29.51.36.8,0,0-.05,0-.07,0A.18.18,0,0,1,518,503.3Z"/><path class="cls-160" d="M515.06,486.81V487c-.31,0-.65,0-.72-.42C514.67,486.39,514.78,486.9,515.06,486.81Z"/><path class="cls-145" d="M531,503.13a.6.6,0,0,1,0-.63.32.32,0,0,1,.22.05C531.37,502.8,531.24,503,531,503.13Z"/><path class="cls-160" d="M533.13,506.47c-.42-.2-.47-.4,0-.59C533.39,506.08,533.4,506.28,533.13,506.47Z"/><path class="cls-161" d="M510.71,529.16l.17-.42.79.2c.07,0,.09.08.07.12s0,.07-.06.07Z"/><path class="cls-162" d="M545.85,514.62c-.3,0-.46-.17-.44-.5a.65.65,0,0,1,.64.3Z"/><path class="cls-159" d="M494.2,496.55a.68.68,0,0,1,.4-.41c.14,0,.35,0,.22.25A.41.41,0,0,1,494.2,496.55Z"/><path class="cls-139" d="M501.35,523.36v-.19c.29,0,.68-.15.81.37C501.82,523.71,501.64,523.26,501.35,523.36Z"/><path class="cls-160" d="M524,489.59c.14-.23.37-.19.59-.2,0,.15,0,.41-.1.44S524.12,489.77,524,489.59Z"/><path class="cls-163" d="M523.4,489.38l.2.21v.2c-.14-.08-.3-.14-.44-.22s-.29-.15-.19-.27S523.25,489.36,523.4,489.38Z"/><path class="cls-164" d="M539.22,486.52c0,.2-.07.24-.17.21s-.17-.18-.16-.3a1,1,0,0,1,.1-.24Z"/><path class="cls-151" d="M519.83,523.56l.2.2c-.18.19-.45.46-.62.18S519.79,523.82,519.83,523.56Z"/><path class="cls-118" d="M537.11,531.91c-.3-.32-.06-.36.2-.4h.2A.37.37,0,0,1,537.11,531.91Z"/><path class="cls-165" d="M539.69,495.76l-.42-.42c.1-.14.24-.24.37-.08S539.87,495.57,539.69,495.76Z"/><path class="cls-162" d="M486.2,501.2a1,1,0,0,1-.24.21.21.21,0,0,1-.21-.09c0-.16.12-.2.23-.25S486.15,501,486.2,501.2Z"/><path class="cls-166" d="M517.8,499.37v.81C517.52,499.87,517.72,499.6,517.8,499.37Z"/><path class="cls-134" d="M502.67,512.84a.83.83,0,0,1,.36-.73C503.11,512.45,503,512.62,502.67,512.84Z"/><path class="cls-135" d="M530.47,527.49a.89.89,0,0,1-.26.16c-.1,0-.21-.06-.15-.16a.65.65,0,0,1,.28-.21C530.46,527.24,530.51,527.31,530.47,527.49Z"/><path class="cls-167" d="M517.82,500.86a.34.34,0,0,1,.19.39c0,.1-.11.17-.19.09a.63.63,0,0,1-.15-.32C517.65,500.92,517.7,500.84,517.82,500.86Z"/><path class="cls-168" d="M511.68,529.13a1.15,1.15,0,0,0,0-.19c.26.16.61.11.81.38C512.2,529.3,511.9,529.41,511.68,529.13Z"/><path class="cls-154" d="M515.26,514c-.12.32-.33.34-.6.2C514.83,514.05,515,513.82,515.26,514Z"/><path class="cls-169" d="M526.78,481.44a1,1,0,0,0,0-.17l.75.27C527.17,481.68,527,481.67,526.78,481.44Z"/><path class="cls-170" d="M546.65,506.08l.39.58-.2.21c-.28-.21-.17-.52-.19-.79Z"/><path class="cls-171" d="M507.11,503.89c.14,0,.36,0,.22.25s-.16.32-.33.16.07-.27.12-.41Z"/><path class="cls-136" d="M518,505.28c0-.22,0-.45.2-.59C518,504.82,518.86,505.33,518,505.28Z"/><path class="cls-172" d="M549.58,466.94a15.57,15.57,0,0,0-.73-2.66c-.06-.2-.17-.51.1-.6s.4.16.51.38A3.53,3.53,0,0,1,549.58,466.94Z"/><path class="cls-173" d="M542.9,463.9a.79.79,0,0,1-.32,1.16C542.31,464.49,543.1,464.39,542.9,463.9Z"/><path class="cls-174" d="M535.89,466c0,.19-.12.3-.32.26s-.21-.14-.21-.28.1-.35.27-.34S535.89,465.85,535.89,466Z"/><path class="cls-175" d="M537.65,475.93a.57.57,0,0,1-.62-.35C537.38,475.43,537.56,475.55,537.65,475.93Z"/><path class="cls-176" d="M541.1,476.49c-.2,0-.45,0-.59-.19a2.16,2.16,0,0,1,1.13,0C541.52,476.53,541.3,476.46,541.1,476.49Z"/><path class="cls-177" d="M541.09,469.16c0,.15,0,.3-.21.26a.27.27,0,0,1-.14-.2c0-.12,0-.27.19-.23S541,469.11,541.09,469.16Z"/><path class="cls-178" d="M542.41,466.42c-.25-.25-.1-.46-.15-.88A.92.92,0,0,1,542.41,466.42Z"/><path class="cls-5" d="M509.9,455.62a5.58,5.58,0,0,1-.8,3c-.22.26-.56.26-.79.44.14.1.56-.5.6.15a11,11,0,0,0-.37,1.68c-.3,1.42-1.54,2.18-2.55,3-.67.52-1.2-.46-1.58-1a2.8,2.8,0,0,1,.32-3.08c.41,0,.27.25.27.25a7.06,7.06,0,0,1,.12-2.83,3.33,3.33,0,0,1,.6-1.39,2.88,2.88,0,0,1,1.15-.84,1.87,1.87,0,0,1,1.41-.36c1,.43,1,.49.54,1.22a19,19,0,0,0-1.65,1.18,16.34,16.34,0,0,1,1.63-1.13C509.13,455.67,509.36,455,509.9,455.62Z"/><path class="cls-179" d="M516.07,452c1,1.7,2.12,3.32,2.35,5.34,0,.17.08.4-.22.55-.54-.64-.45-1.51-.78-2.23a14.16,14.16,0,0,0-1.49-2.66c-.2-.27-.3-.49-.08-.78C515.8,452.06,515.87,452,516.07,452Z"/><path class="cls-180" d="M512.28,460.79a4.66,4.66,0,0,1-1.77,1.55l1-3.15c.36-.49.75-.45,1,.11A1.83,1.83,0,0,1,512.28,460.79Z"/><path class="cls-179" d="M516.07,452l-.22.22a15.75,15.75,0,0,1-3.29-2.58C514.54,449.62,515.08,451.14,516.07,452Z"/><path class="cls-181" d="M507.1,453.83c.61-.42,1.19-.85,2-.33.56.38,1.16.68,1,1.51-.25.22-.46.07-.67-.05a2,2,0,0,0-1.65-.68C507.49,454.21,507.11,454.29,507.1,453.83Z"/><path class="cls-182" d="M512.28,460.79c0-.57.49-1.16-.17-1.7-.33-.26-.43,0-.61.1,0-.66.62-1.05.65-1.73A2.74,2.74,0,0,1,512.28,460.79Z"/><path class="cls-183" d="M505.12,457.21a19.74,19.74,0,0,1,0,3.17c-.31-.09-.09-.5-.37-.59C504,458.8,504.73,458,505.12,457.21Z"/><path class="cls-181" d="M506.12,455.22a1.8,1.8,0,0,1,.6-1c.35-.23.75,0,1.12-.1.54,0,1.08,0,1.31.66-.31.32-.56-.08-.85-.07s-.78-.14-1.12.17C506.83,455,506.54,455.33,506.12,455.22Z"/><path class="cls-184" d="M508.31,454.63l.79.19a.29.29,0,0,1,.41,0l.58.19c0,.22.05.46-.19.61-.49-.27-.68.23-1,.39-.08-.06-.19-.08-.2-.2.59-.61.06-.79-.39-1-.07,0-.09-.08-.07-.13A.1.1,0,0,1,508.31,454.63Z"/><path class="cls-185" d="M514.39,461.72c.1-1.21.86-2,.9-3.19C515.74,459.93,515.08,460.7,514.39,461.72Z"/><path class="cls-186" d="M506.12,455.22c.33-.12.61-.39,1-.39.12.22-.09.28-.2.39l-1.19.6A.59.59,0,0,1,506.12,455.22Z"/><path class="cls-187" d="M508.91,459.19c-.39-.41-.66.25-1.17.06a3.34,3.34,0,0,1,1.36-.65C509.1,458.81,509.13,459,508.91,459.19Z"/><path class="cls-188" d="M508.13,448c.41-.05.85-.21,1.28.18C508.9,448.42,508.52,448.17,508.13,448Z"/><path class="cls-189" d="M508.1,448.48c.06,0,.2.1.23.19s-.12.19-.22.18-.26-.07-.29-.15S507.92,448.51,508.1,448.48Z"/><path class="cls-190" d="M507.91,454.21l-1.19,0,.38-.4c.21.29.53.16.81.2q.09.06.06.12S507.93,454.21,507.91,454.21Z"/><path class="cls-191" d="M517.44,464.16a1.36,1.36,0,0,1,.61-1c-.13.53-.25.83-.61,1Z"/><path class="cls-192" d="M517.44,464.17c0,.32-.17.53-.53.71a.83.83,0,0,1,.53-.72Z"/><path class="cls-193" d="M511.56,452.76c.18.16.29.29.24.5a.25.25,0,0,1-.15,0A.4.4,0,0,1,511.56,452.76Z"/><path class="cls-194" d="M475.48,469.68a16.17,16.17,0,0,0-.39,4.7c0,1.81.18,3.55,1.66,4.88C473.28,477.56,472.73,473.57,475.48,469.68Z"/><path class="cls-121" d="M481,472.23a35,35,0,0,0-.17,5c0,.32-.19.71-.56.72s-.63-.42-.74-.81A5.4,5.4,0,0,1,481,472.23Z"/><path class="cls-195" d="M480.66,466.45a2.19,2.19,0,0,1,2.45,1.14c.07.16.16.32,0,.41s-.25,0-.34-.09c-.32-.23-.62-.49-.94-.72S481.16,466.77,480.66,466.45Z"/><path class="cls-196" d="M477,474.1A5.17,5.17,0,0,1,478,471c-.16,1.16-.77,2.25-.51,3.46a.28.28,0,0,1-.25,0C477.09,474.43,477,474.25,477,474.1Z"/><path class="cls-197" d="M479.54,468.55c-.15.85-.89,1.12-1.51,1.49-.24.14-.29-.12-.34-.31.07-.57.73-.57,1-1C478.93,468.61,479.2,468.4,479.54,468.55Z"/><path class="cls-198" d="M479.54,468.55c-.27.13-.62.11-.84.37-.18,0-.34.45-.56,0a2.27,2.27,0,0,1,2.53-.61c.05.17,0,.26-.19.21Z"/><path class="cls-199" d="M477.33,474.51l.18,0c.35.28.16.66.2,1s-.06.29-.19.38c-.4-.15-.45-.41-.2-.75A.42.42,0,0,1,477.33,474.51Z"/><path class="cls-200" d="M478.14,469c.2.15.37-.08.56,0-.14.52-.73.46-1,.81C477.36,469.19,477.86,469.14,478.14,469Z"/><path class="cls-201" d="M478.67,473.38v1.67A2.4,2.4,0,0,1,478.67,473.38Z"/><path class="cls-128" d="M477.33,474.51v.61c-.6-.17-.37-.64-.37-1C477.07,474.24,477.2,474.37,477.33,474.51Z"/><path class="cls-202" d="M480.48,468.56l.19-.21c.23.08.42.2.39.48,0,.07-.1.2-.15.2C480.63,469,480.63,468.71,480.48,468.56Z"/><path class="cls-203" d="M484.12,469.88a.51.51,0,0,1-.38-.54s.18-.12.2-.1A.52.52,0,0,1,484.12,469.88Z"/><path class="cls-204" d="M477.17,477.48c-.36-.35-.46-.55-.42-.86C477.06,476.78,477.07,477,477.17,477.48Z"/><path class="cls-205" d="M477.52,475.87l.19-.38a.48.48,0,0,1,0,.8.17.17,0,0,1-.06-.15c0-.05,0-.08.05-.08Z"/><path class="cls-206" d="M477.7,476.06v.23a.87.87,0,0,1,.13.36c0,.12-.13.1-.2,0A.39.39,0,0,1,477.7,476.06Z"/><path class="cls-5" d="M472.17,516c.11,4.38,3.14,6.85,6.11,9.36,0,.49-.36.22-.58.19a5.16,5.16,0,0,1-4-2.39c-.09-.14-.14-.27-.33-.3a3.49,3.49,0,0,1-3.07-3.68,8.88,8.88,0,0,0-.64-2.37,3.49,3.49,0,0,1-.15-2.4c.1-.29.17-.63.56-.56a.59.59,0,0,1,.44.68,4.36,4.36,0,0,1-.18,1.07c-.12.47,0,.75.61.89a2.75,2.75,0,0,1-.19-1.45c.29-.14.37.15.52.26A2.4,2.4,0,0,0,472.17,516Z"/><path class="cls-121" d="M501,527.14l-.41.2a.87.87,0,0,0-1.22-.06,13.47,13.47,0,0,1-2.55,1c-.86.34-1.59-.15-2.51-.24a20.21,20.21,0,0,1,3.52-1.13c.34-.09.72-.08,1-.4a1.53,1.53,0,0,1,1.7-.17,1.31,1.31,0,0,1,.43.38C501,526.87,501,527,501,527.14Z"/><path class="cls-121" d="M485.27,524.94c.32-.4.59,0,.86.07.58.22,1.15.47,1.72.71,0,1.58-.15,1.69-1.62,1a.23.23,0,0,1,0-.14c-.12-.05-.07.11-.15.12l-.45-.18c-1.08-.4-1.08-.42-.31-1.22C485.41,525.19,485.44,525.07,485.27,524.94Z"/><path class="cls-207" d="M500.55,526.57a4.55,4.55,0,0,0-1.8,0l-.77-.2c-.48-.43-.17-.58.25-.69a3.3,3.3,0,0,1,1,0,4.24,4.24,0,0,0,1.72-.8.51.51,0,0,1,.56.11l.19.19-.19.21a1.19,1.19,0,0,1-.1.32c0,.3.23.54.15.84a.41.41,0,0,1-.21.18A.9.9,0,0,1,500.55,526.57Z"/><path class="cls-208" d="M472.17,516c-.62.28-.74-.28-1-.59-.1-.26,0-.56-.21-.8a.87.87,0,0,1,0-1,.64.64,0,0,1,.4.4,4.5,4.5,0,0,0,.39.5c.19.2.13-.07.19-.1.33-.17.09-.61.38-.8A6.35,6.35,0,0,1,472.17,516Z"/><path class="cls-137" d="M498.17,525.74c-.31.12-.36.32-.19.6-.48,0-.68-.12-.4-.59-.43-.8-1.51-1.16-1.58-2.5.79.92,1.14,2,2.17,2.3.07,0,.09.08.07.12S498.2,525.74,498.17,525.74Z"/><path class="cls-209" d="M477.73,499l.21.2a14.66,14.66,0,0,1-3.21,1.16C475.56,499.48,476.71,499.37,477.73,499Z"/><path class="cls-210" d="M509.5,481.84c.46.48,1.31-.1,1.7.59h-1.9C509.31,482.21,509.27,482,509.5,481.84Z"/><path class="cls-69" d="M467.59,506.48c0,.14,0,.27,0,.4-.25.12-.11.43-.28.62C466.75,507,467.07,506.69,467.59,506.48Z"/><path class="cls-211" d="M493.19,526.54h2A2.33,2.33,0,0,1,493.19,526.54Z"/><path class="cls-153" d="M469.18,505.69l-.21-.21a.71.71,0,0,1,.38-.79l.23.17C469.36,505.1,469.69,505.59,469.18,505.69Z"/><path class="cls-212" d="M468.18,508.27c0-.21.09-.47.29-.13a3.74,3.74,0,0,1,.28.93h-.36c-.32-.2,0-.59-.22-.81Z"/><path class="cls-213" d="M471,514.62c.42.18.41.47.21.8l-.39-.37Z"/><path class="cls-145" d="M512.87,482.45v-.21l1,.29C513.39,482.64,513.12,482.73,512.87,482.45Z"/><path class="cls-148" d="M468.17,508.26c.31.2.17.53.22.81C468,509,468,509,468.17,508.26Z"/><path class="cls-214" d="M477.7,525.56c.2,0,.45,0,.58-.19a.56.56,0,0,1,.42.38C478.36,525.71,478,525.85,477.7,525.56Z"/><path class="cls-215" d="M486,526.73c.06-.23-.09-.52.22-.73.3.27-.1.51,0,.75Z"/><path class="cls-208" d="M470.78,512.64c.3.28.14.65.18,1C470.66,513.34,470.79,513,470.78,512.64Z"/><path class="cls-216" d="M517.05,483.23c-.26,0-.57,0-.6-.4A.62.62,0,0,1,517.05,483.23Z"/><path class="cls-217" d="M561.36,491.4c.12-.2.23-.67.44-.47s.19.78-.24,1.05C561.35,491.84,561.54,491.55,561.36,491.4Z"/><path class="cls-218" d="M567.05,491.75c-.15-.24-.45-.48-.12-.86C567.26,491.15,567,491.48,567.05,491.75Z"/><path class="cls-219" d="M558.05,500.8a.45.45,0,0,1-.69.08.16.16,0,0,1,0-.15A.47.47,0,0,1,558.05,500.8Z"/><path class="cls-220" d="M560.6,501.31l-.43.22-.4,0C560,501.24,560.24,501,560.6,501.31Z"/><path class="cls-221" d="M561.36,491.4c.23.14.18.37.2.58-.06.06,0,.41-.19.06A1.71,1.71,0,0,1,561.36,491.4Z"/><path class="cls-222" d="M459,473.09c0-.19,0-.38.05-.57l.16,0c0,.2,0,.39,0,.59s-.05.24-.09.25S459.06,473.18,459,473.09Z"/><path class="cls-223" d="M576,484l-.18-.4c-.26-.28.11-.7-.21-1s-.13-.81-.19-1.28C576.29,482.17,576,483.13,576,484Z"/><path class="cls-224" d="M573.29,475.66a1.77,1.77,0,0,1,.63,1.69c-.29-.49-.57-1-.85-1.47C573,475.68,573.09,475.61,573.29,475.66Z"/><path class="cls-225" d="M573.29,475.66c-.07.08-.15.15-.22.22l-.52-.41C572.84,475.44,573.18,475.19,573.29,475.66Z"/><path class="cls-7" d="M575.63,482.66c.06-.06.08-.43.19-.07a3.53,3.53,0,0,1,0,1h-.17C575.66,483.3,575.65,483,575.63,482.66Z"/><path class="cls-226" d="M576.18,491.47c-.22-.28-.09-.5-.13-.82A.75.75,0,0,1,576.18,491.47Z"/><path class="cls-227" d="M504.5,440.1l-.58-.36a6.4,6.4,0,0,1,.76,0c.13,0,.36.07.25.27S504.65,440.08,504.5,440.1Z"/><path class="cls-39" d="M553.58,453.84a1.34,1.34,0,0,1-.31-.22c-.16-.19-.42-.46-.13-.66s.42.18.58.36a1.11,1.11,0,0,1,.12.27C553.88,453.8,553.79,453.88,553.58,453.84Z"/><path class="cls-228" d="M553.58,453.84l.26-.25c.31.17.26.45.21.75C553.71,454.34,553.76,454,553.58,453.84Z"/><path class="cls-37" d="M530.74,448.66l.21.19c-.25.16-.45.41-.79.41C530.17,448.88,530.48,448.8,530.74,448.66Z"/><path class="cls-229" d="M534.73,500.31c.2-.61-.54-1.32.21-1.93.35.36,0,.91.4,1.2.46-.21.31-.67.44-1a.33.33,0,0,1,.12.47c-.3.71.07,1.13.64,1.4,1,.47,1.06,1.51,1.57,2.28.07,0,.15.14.21.09s0-.2,0-.29l-.21-.79c-.08-.21,0-.25.2-.2a1.39,1.39,0,0,0,.6.6,2.41,2.41,0,0,1,0,1.59c0,.24-.09.5-.35.52s-.57-.31-.68-.62a4.3,4.3,0,0,0-1.39-2.21,4.88,4.88,0,0,1-1.36-1.28C535,500.14,535,500.45,534.73,500.31Z"/><path class="cls-210" d="M536.32,503.3c.64.43.54,1.18.77,1.79,0,.1,0,.3-.17.29s-.3-.3-.41-.49C535.6,504.4,535.53,503.83,536.32,503.3Z"/><path class="cls-154" d="M536.32,503.3c-.82.64-.23,1.1.19,1.59-.39.45.31.74.17,1.14-1-1-1.11-1.34-.89-3.53C536.05,502.72,535.76,503.3,536.32,503.3Z"/><path class="cls-230" d="M544.65,512.43c.41-.49.77-1.13,1.44-.24.14.19.55.31.34.55s-.73.22-.87-.06c-.5-1-.46.19-.7.15S544.54,512.66,544.65,512.43Z"/><path class="cls-137" d="M538.9,503.7v-1.59a2.44,2.44,0,0,1,1.19,2.18c.06.24.3.53-.19.59a7.22,7.22,0,0,0-.64-2C539,503.09,539.23,503.52,538.9,503.7Z"/><path class="cls-231" d="M544.06,511.64c-.77-.63-.32-1.44-.36-2.19.21.48,0,1.15.82,1.28.18,0,.23.45-.15.44s-.26.28-.31.47Z"/><path class="cls-155" d="M536.63,499.16c-.46-.67-.18-1.38-.19-2.07A2,2,0,0,1,536.63,499.16Z"/><path class="cls-154" d="M544.65,512.43l.21.4c-.67.63-.78,0-.91-.44-.07-.22.07-.5.11-.75h0C544.35,511.83,544.24,512.33,544.65,512.43Z"/><path class="cls-232" d="M534.73,500.31c.18,0,.13-.4.39-.2a14.09,14.09,0,0,0,.16,2.34C534.86,501.8,535,501,534.73,500.31Z"/><path class="cls-154" d="M539.57,502a2,2,0,0,1-1.29-1.14A3.48,3.48,0,0,1,539.57,502Z"/><path class="cls-233" d="M539.9,504.88c.23-.14.18-.38.19-.59a2.25,2.25,0,0,1,0,2h0A4.12,4.12,0,0,0,539.9,504.88Z"/><path class="cls-167" d="M543.87,507.27c.29-.07.44.47.79.2.07,0,.09.08.07.13s-.05.07-.07.07c-.66.68-.76,0-1-.4C543.74,507.17,543.8,507.17,543.87,507.27Z"/><path class="cls-143" d="M544,502.41a1.09,1.09,0,0,1,.62,1.26Z"/><path class="cls-142" d="M538.57,505.74a2.48,2.48,0,0,1,.22.36c.07.16.06.31-.16.34s-.27,0-.26-.19A2.35,2.35,0,0,1,538.57,505.74Z"/><path class="cls-234" d="M546.65,506.08c-.36-.2-.52-.46-.29-.87.4.21.25.57.29.87Z"/><path class="cls-235" d="M543.06,509.82c0,.11,0,.29-.15.25s-.17-.16-.2-.27,0-.26.17-.26S543.05,509.69,543.06,509.82Z"/><path class="cls-145" d="M538.31,502.5c.26.16.16.44.33.71-.41,0-.41-.33-.53-.51A1.89,1.89,0,0,1,538.31,502.5Z"/><path class="cls-134" d="M530,491.38v-.2a.86.86,0,0,1,.54.66C530.19,491.8,530.08,491.59,530,491.38Z"/><path class="cls-166" d="M538.3,501.51l-.2.2a.77.77,0,0,1-.32-.65C538.09,501.06,538.18,501.31,538.3,501.51Z"/><path class="cls-135" d="M544.66,509.62c-.08-.11-.15-.17-.16-.25s0-.26.21-.21a.31.31,0,0,1,.11.22C544.81,509.45,544.73,509.52,544.66,509.62Z"/><path class="cls-140" d="M540.09,506.28a.8.8,0,0,1-.84.32.88.88,0,0,1,.84-.32Z"/><path class="cls-145" d="M537.37,507.41a.51.51,0,0,1-.37-.61C537.3,506.91,537.36,507.12,537.37,507.41Z"/><path class="cls-154" d="M543.87,507.27h-.2l-.27-.36c.07,0,.17-.13.22-.11C543.82,506.88,543.85,507.07,543.87,507.27Z"/><path class="cls-142" d="M544.66,507.67v-.2c.11-.11.23-.21.35-.31s.11.08.11.1A.45.45,0,0,1,544.66,507.67Z"/><path class="cls-134" d="M534.16,495.2c.15-.12.21-.19.23-.18a.86.86,0,0,1,.26.24c.05.1,0,.2-.14.14Z"/><path class="cls-231" d="M546.24,514.07c0-.06-.1-.12-.12-.2a.12.12,0,0,1,.15-.15.32.32,0,0,1,.15.19C546.44,514,546.4,514.09,546.24,514.07Z"/><path class="cls-155" d="M486.06,523.56c0-.16.05-.37.28-.21a8.84,8.84,0,0,0,2.33,1,4.48,4.48,0,0,1-2.61-.76Z"/><path class="cls-6" d="M501.55,525H501c-.12-.14-.21-.32-.39-.41s-.4-.4-.61-.59q.1-.13.21,0l1.39.39Z"/><path class="cls-130" d="M500.23,522.62c-.29-.24-.33-.26-.34-.29-.12-.38-.45-.72-.23-1.17,0,0,.19,0,.25,0C500.38,521.53,500.06,522,500.23,522.62Z"/><path class="cls-158" d="M500.56,524.55a.36.36,0,0,1,.39.41c-.37.58-1,.6-1.59.78-.06,0-.09-.09-.06-.13s0-.06.07-.06C499.67,525.1,500.61,525.42,500.56,524.55Z"/><path class="cls-145" d="M480.3,519.59c.11.24.41.13.62.32l-1.68.23c.1-.54.69-.2.85-.55A.13.13,0,0,1,480.3,519.59Z"/><path class="cls-236" d="M481.24,519.16c-.53,0-.89.14-1.18-.17C480.52,518.84,480.52,518.84,481.24,519.16Z"/><path class="cls-210" d="M499.37,525.55a1.21,1.21,0,0,1,0,.19h-1.19v-.19C498.57,525,499,525.53,499.37,525.55Z"/><path class="cls-155" d="M487.14,517.92c-.12-.34,0-.52.2-.63a.3.3,0,0,1,.22.09C487.55,517.63,487.5,517.88,487.14,517.92Z"/><path class="cls-234" d="M475.61,518.7s.06-.55.43-.27c.06.05.14.2.12.23C475.93,518.94,475.62,518.69,475.61,518.7Z"/><path class="cls-134" d="M483.08,520c.38-.65.68,0,1.22.06-.53.2-.92-.17-1.22.14-.07,0-.1-.09-.07-.13S483.05,520,483.08,520Z"/><path class="cls-236" d="M483.08,520v.2h-.94C482.46,519.61,482.78,519.86,483.08,520Z"/><path class="cls-166" d="M480.3,519.59h-.21c-.09,0-.22,0-.28,0-.25-.19,0-.16.09-.17h1C480.74,519.7,480.49,519.53,480.3,519.59Z"/><path class="cls-126" d="M474.93,519.78c-.44.06-.66-.16-.77-.75a1.87,1.87,0,0,1,.77.76Z"/><path class="cls-158" d="M474.94,518.88c-.35,0-.56-.1-.69-.39C474.6,518.33,474.76,518.49,474.94,518.88Z"/><path class="cls-150" d="M494.79,519a1.36,1.36,0,0,1,.6,1A1.44,1.44,0,0,1,494.79,519Z"/><path class="cls-236" d="M476.36,520c-.14-.1-.26-.14-.28-.21-.07-.24.17-.23.29-.3s.23,0,.21.08A2.19,2.19,0,0,1,476.36,520Z"/><path class="cls-230" d="M474.93,519.79c.25,0,.52,0,.66.24,0,0-.1.16-.17.18-.39.12-.34-.27-.49-.43Z"/><path class="cls-154" d="M500.16,524H500a1.19,1.19,0,0,1-.61-.76A1.75,1.75,0,0,1,500.16,524Z"/><path class="cls-162" d="M486.06,523.56c-.31.33-.41,0-.63-.19.34-.14.43.17.63.19Z"/><path class="cls-135" d="M473.58,517.31a.26.26,0,0,1,.29.22c0,.12,0,.18-.16.14a.52.52,0,0,1-.22-.16S473.55,517.37,473.58,517.31Z"/><path class="cls-145" d="M473.24,516.45c.1.07.25.11.3.21s-.09.15-.15.12a1.34,1.34,0,0,1-.31-.22Z"/><path class="cls-145" d="M501.55,526.53c0-.34-.65-.55-.2-1a5.18,5.18,0,0,1,.8.19l.79-.39c-.29.43.37.45.34.79a2.68,2.68,0,0,0-.93.59C502.05,526.8,501.74,526.9,501.55,526.53Z"/><path class="cls-166" d="M510.09,520.58c-.31.22-.76.18-1,.5.44.24.78,0,1.16-.07-.62.81-1.79.25-2.52.85l1.62-1.48C509.6,520.31,510,520,510.09,520.58Z"/><path class="cls-237" d="M501.55,526.53l.8.2.22,0c-.31,1.14-1,.44-1.62.39l-.18-.21c-.1-.34.15-.28.33-.26a.49.49,0,0,0,.45-.11Z"/><path class="cls-145" d="M510.09,520.58c-.2-.34-.57,0-.79-.2V520c.3-.21.18-.52.21-.8C510.33,519.38,510.29,520,510.09,520.58Z"/><path class="cls-150" d="M506.58,522.23c.14-.41.29-.56.62-.62C507.14,521.92,506.94,522,506.58,522.23Z"/><path class="cls-160" d="M504.1,486.93a1.6,1.6,0,0,1-.33.2s-.16-.11-.16-.17a.22.22,0,0,1,.24-.23C503.92,486.74,504,486.83,504.1,486.93Z"/><path class="cls-150" d="M504.65,486.08a.68.68,0,0,1-.21.1c-.09,0-.2,0-.15-.14a.34.34,0,0,1,.21-.16C504.6,485.86,504.66,485.93,504.65,486.08Z"/><path class="cls-238" d="M515.19,509.55c-.06.06-.13.17-.23.21s-.27,0-.22-.18a.49.49,0,0,1,.26-.25C515.1,509.29,515.17,509.38,515.19,509.55Z"/><path class="cls-239" d="M471.94,514.43c.09.21.35.41.07.72a2.65,2.65,0,0,1-.65-1.12Z"/><path class="cls-240" d="M469.18,505.69c.3-.2.07-.64.4-.83a1.51,1.51,0,0,1-.4,1.4Z"/><path class="cls-126" d="M516.56,514.79c-.48.74-.69,1.73-1.8,1.88C515.44,516.12,515.75,515.22,516.56,514.79Z"/><path class="cls-159" d="M514,516.54a.57.57,0,0,1,.36-.61C514.51,516.28,514.19,516.33,514,516.54Z"/><path class="cls-160" d="M535.64,516.29c0,.15,0,.25-.14.22s-.12-.13-.15-.21.06-.1.09-.16Z"/><path class="cls-210" d="M504.33,496.14a14.07,14.07,0,0,0-1.74,2.38c.12-2,.33-2.28,1.74-2.37Z"/><path class="cls-151" d="M500.56,512.83c0-.6.06-.65.4-.79A1.15,1.15,0,0,1,500.56,512.83Z"/><path class="cls-119" d="M502.15,525.74c-.33.18-.61.2-.8-.19l.2-.2A.6.6,0,0,1,502.15,525.74Z"/><path class="cls-241" d="M508.7,455.81l.2.2c-.82.39-1.43,1.07-2.22,1.5A4.77,4.77,0,0,1,508.7,455.81Z"/><path class="cls-242" d="M506.91,455.22l.2-.39c.35-.37.8-.14,1.2-.2v.19C507.76,454.68,507.36,455,506.91,455.22Z"/><path class="cls-243" d="M507.91,454.21V454a1.63,1.63,0,0,1,1.6.79h-.41A1.4,1.4,0,0,0,507.91,454.21Z"/><path class="cls-80" d="M472,520.79a3.41,3.41,0,0,1,1.06,1.46A1.45,1.45,0,0,1,472,520.79Z"/><path class="cls-244" d="M471.55,521.38a1.81,1.81,0,0,1-.63-1.08A1.12,1.12,0,0,1,471.55,521.38Z"/><path class="cls-65" d="M471.76,519.6c.42,0,.6.28.56.8Z"/><path class="cls-245" d="M501.55,526.56c0,.65-.64,0-.78.37a.36.36,0,0,1-.22-.36Z"/></g></g></svg>