<svg xmlns="http://www.w3.org/2000/svg" viewBox="0 0 1074.18 613.56"><defs><style>.cls-1{fill:#fff;}.cls-1,.cls-3{stroke:#5996bf;}.cls-1,.cls-2,.cls-3{stroke-miterlimit:10;}.cls-2{fill:#7fbbdd;stroke:#fff;stroke-width:8px;}.cls-3{fill:none;}.cls-4{fill:#f7e3e2;}.cls-5{fill:#efefef;}.cls-6{fill:#c69e99;}.cls-7{fill:#c7a09b;}.cls-8{fill:#eb817c;}.cls-9{fill:#f7baa6;}.cls-10{fill:#dd8c8f;}.cls-11{fill:#faa0a0;}.cls-12{fill:#f6f3f3;}.cls-13{fill:#f69f9f;}.cls-14{fill:#fbf9f9;}.cls-15{fill:#f79f9f;}.cls-16{fill:#f9f7f7;}.cls-17{fill:#c9a4a0;}.cls-18{fill:#f9f7f6;}.cls-19{fill:#faf8f7;}.cls-20{fill:#f8f6f6;}.cls-21{fill:#ede9e8;}.cls-22{fill:#f4a2a1;}.cls-23{fill:#e9e4e3;}.cls-24{fill:#f3ebea;}.cls-25{fill:#f7a2a2;}.cls-26{fill:#caa4a1;}.cls-27{fill:#d5bcb9;}.cls-28{fill:#cfb0ac;}.cls-29{fill:#e6dedd;}.cls-30{fill:#eeafaa;}.cls-31{fill:#cca9a5;}.cls-32{fill:#cfafac;}.cls-33{fill:#eebab6;}.cls-34{fill:#f1e6e5;}.cls-35{fill:#cfafab;}.cls-36{fill:#f8f6f5;}.cls-37{fill:#d0afab;}.cls-38{fill:#efe2e1;}.cls-39{fill:#cca9a4;}.cls-40{fill:#eda09a;}.cls-41{fill:#fbfbfb;}.cls-42{fill:#cfb2ad;}.cls-43{fill:#e7dfde;}.cls-44{fill:#d6bcb9;}.cls-45{fill:#eda29e;}.cls-46{fill:#e1a0a3;}.cls-47{fill:#d0b2ae;}.cls-48{fill:#ec8e86;}.cls-49{fill:#e4b2b3;}.cls-50{fill:#eecfcd;}.cls-51{fill:#eecbc8;}.cls-52{fill:#caa7a2;}.cls-53{fill:#cba8a4;}.cls-54{fill:#e6dddc;}.cls-55{fill:#d1b4b1;}.cls-56{fill:#eca7a7;}.cls-57{fill:#ccaba7;}.cls-58{fill:#ec857f;}.cls-59{fill:#e2d6d4;}.cls-60{fill:#eeaaa6;}.cls-61{fill:#d1b3af;}.cls-62{fill:#eed2d0;}.cls-63{fill:#d7c0be;}.cls-64{fill:#eebbb8;}.cls-65{fill:#ceada9;}.cls-66{fill:#cdaca9;}.cls-67{fill:#d4bab7;}.cls-68{fill:#c9a29f;}.cls-69{fill:#d6bdba;}.cls-70{fill:#d3b5b1;}.cls-71{fill:#eeeded;}.cls-72{fill:#f2eae9;}.cls-73{fill:#dac0bd;}.cls-74{fill:#e3d1ce;}.cls-75{fill:#d6bbb7;}.cls-76{fill:#d1b2ad;}.cls-77{fill:#e7d8d6;}.cls-78{fill:#eadddb;}.cls-79{fill:#ddc6c3;}.cls-80{fill:#cba7a3;}.cls-81{fill:#ceaca7;}.cls-82{fill:#f1e9e8;}.cls-83{fill:#e8d8d6;}.cls-84{fill:#ece0df;}.cls-85{fill:#cfada9;}.cls-86{fill:#ece0de;}.cls-87{fill:#e4d4d2;}.cls-88{fill:#d9bfbc;}.cls-89{fill:#f0e7e6;}.cls-90{fill:#ede2e0;}.cls-91{fill:#e2cfcc;}.cls-92{fill:#ede2e1;}.cls-93{fill:#d6b9b5;}.cls-94{fill:#d6bbb8;}.cls-95{fill:#e1cdca;}.cls-96{fill:#c9a29e;}.cls-97{fill:#eee3e2;}.cls-98{fill:#dec8c5;}.cls-99{fill:#dac3c0;}.cls-100{fill:#e7d7d6;}.cls-101{fill:#e1ccca;}.cls-102{fill:#dfc9c6;}.cls-103{fill:#e6d6d4;}.cls-104{fill:#cfaea9;}.cls-105{fill:#f6f2f1;}.cls-106{fill:#f1e8e7;}.cls-107{fill:#efe4e3;}.cls-108{fill:#d4b6b2;}.cls-109{fill:#e4d2d0;}.cls-110{fill:#d8bdb9;}.cls-111{fill:#e8dddc;}.cls-112{fill:#f7f3f3;}.cls-113{fill:#e8d9d8;}.cls-114{fill:#dbc4c1;}.cls-115{fill:#e8dbda;}.cls-116{fill:#fcfcfc;}.cls-117{fill:#f5f1f1;}.cls-118{fill:#fc9e9e;}.cls-119{fill:#fb9e9e;}.cls-120{fill:#fc9f9f;}.cls-121{fill:#eee;}.cls-122{fill:#fa9e9e;}.cls-123{fill:#f59e9e;}.cls-124{fill:#f8a09f;}.cls-125{fill:#edecec;}.cls-126{fill:#cd9e9a;}.cls-127{fill:#f69e9e;}.cls-128{fill:#eeeaea;}.cls-129{fill:#df9e9c;}.cls-130{fill:#cf9e9a;}.cls-131{fill:#f49e9e;}.cls-132{fill:#f39e9e;}.cls-133{fill:#f19e9d;}.cls-134{fill:#e69e9c;}.cls-135{fill:#d79e9b;}.cls-136{fill:#ee9e9d;}.cls-137{fill:#d09e9a;}.cls-138{fill:#d0aca8;}.cls-139{fill:#ef9e9d;}.cls-140{fill:#ed9e9d;}.cls-141{fill:#e9e0df;}.cls-142{fill:#d29e9a;}.cls-143{fill:#db9e9c;}.cls-144{fill:#e79f9d;}.cls-145{fill:#eb9e9d;}.cls-146{fill:#e49e9c;}.cls-147{fill:#e8e1e1;}.cls-148{fill:#ece8e7;}.cls-149{fill:#f09e9d;}.cls-150{fill:#e59e9c;}.cls-151{fill:#ea9e9d;}.cls-152{fill:#e7e0df;}.cls-153{fill:#dececc;}.cls-154{fill:#dc9e9c;}.cls-155{fill:#d29e9b;}.cls-156{fill:#e5dcdb;}.cls-157{fill:#d99e9b;}.cls-158{fill:#da9e9b;}.cls-159{fill:#e09e9c;}.cls-160{fill:#e19e9c;}.cls-161{fill:#eddede;}.cls-162{fill:#d69e9b;}.cls-163{fill:#db9e9b;}.cls-164{fill:#eae5e5;}.cls-165{fill:#f0dfdf;}.cls-166{fill:#de9e9c;}.cls-167{fill:#e99e9d;}.cls-168{fill:#e7c3c1;}.cls-169{fill:#e4dbda;}.cls-170{fill:#dc9e9b;}.cls-171{fill:#f19e9e;}.cls-172{fill:#f0e8e8;}.cls-173{fill:#ed9993;}.cls-174{fill:#edada8;}.cls-175{fill:#ee9a94;}.cls-176{fill:#efeae9;}.cls-177{fill:#f0ecec;}.cls-178{fill:#eebdba;}.cls-179{fill:#f0eae8;}.cls-180{fill:#f1eded;}.cls-181{fill:#f0eceb;}.cls-182{fill:#f0e7e4;}.cls-183{fill:#f4cfc3;}.cls-184{fill:#f3d2c8;}.cls-185{fill:#f3d7ce;}.cls-186{fill:#f4cbbe;}.cls-187{fill:#f5c9bb;}.cls-188{fill:#f1e5e1;}.cls-189{fill:#f3d6cc;}.cls-190{fill:#f4d0c5;}.cls-191{fill:#f2e3df;}.cls-192{fill:#f4d0c4;}.cls-193{fill:#f3d7cd;}.cls-194{fill:#efeded;}.cls-195{fill:#ede6e6;}.cls-196{fill:#ede5e5;}.cls-197{fill:#ebd5d5;}.cls-198{fill:#ece0e0;}.cls-199{fill:#e2a7a9;}.cls-200{fill:#e8d0d0;}.cls-201{fill:#e6bcbd;}.cls-202{fill:#e5b9ba;}.cls-203{fill:#efebeb;}.cls-204{fill:#e3afb1;}.cls-205{fill:#e7c1c2;}.cls-206{fill:#e4b2b2;}.cls-207{fill:#fa9f9f;}.cls-208{fill:#e9e2e1;}.cls-209{fill:#ece1e0;}.cls-210{fill:#c99e9a;}.cls-211{fill:#deccca;}.cls-212{fill:#d3b8b5;}.cls-213{fill:#d4b9b6;}.cls-214{fill:#ebcfce;}.cls-215{fill:#d4bab8;}.cls-216{fill:#f39e9d;}.cls-217{fill:#ed9892;}.cls-218{fill:#eeb7b3;}.cls-219{fill:#ed938d;}.cls-220{fill:#eed4d2;}.cls-221{fill:#eec6c3;}.cls-222{fill:#cba6a2;}.cls-223{fill:#d7bcb8;}.cls-224{fill:#cca8a3;}.cls-225{fill:#d2b4b0;}.cls-226{fill:#d4b7b3;}.cls-227{fill:#e8dad8;}.cls-228{fill:#d5b7b3;}.cls-229{fill:#c89e9a;}.cls-230{fill:#cb9e9a;}.cls-231{fill:#d49e9b;}.cls-232{fill:#e89e9d;}.cls-233{fill:#e39e9c;}.cls-234{fill:#d59e9b;}.cls-235{fill:#d19e9b;}.cls-236{fill:#cc9e9a;}.cls-237{fill:#d2b0ac;}.cls-238{fill:#d19e9a;}.cls-239{fill:#cba7a2;}.cls-240{fill:#c8a19c;}.cls-241{fill:#f5cabc;}.cls-242{fill:#f2dbd3;}.cls-243{fill:#f6c6b6;}.cls-244{fill:#d2b7b3;}.cls-245{fill:#ecdad9;}</style></defs><g id="Layer_2" data-name="Layer 2"><g id="Layer_1-2" data-name="Layer 1"><path class="cls-1" d="M1047.87,5.07S37.59-6.38,23,7,.5,174.32.5,174.32V613.06H1073.68V174.32C1072.89,89.1,1047.87,5.07,1047.87,5.07Z"/><path class="cls-2" d="M909.59,74.63h-745a24.07,24.07,0,0,0-24,24v32.56L535.44,523.12,933.59,131V98.63A24.07,24.07,0,0,0,909.59,74.63Z"/><path class="cls-3" d="M535.44,516.12,1048.75,10.54c.26-1.11.52-2.22.77-3.32L24.66,9.11Z"/><circle class="cls-4" cx="515.82" cy="484.25" r="85.11" transform="translate(-191.34 506.57) rotate(-45)"/><path class="cls-5" d="M520.22,563.66h-6.15c-1.47-.2-3-.11-4.43-.29a62.54,62.54,0,0,1-17.85-5.18,84.84,84.84,0,0,1-15.31-9.13,30.22,30.22,0,0,1-11.81-18c-1.36-5.7-2.66-11.41-3.59-17.19-.18-1.11-.43-2.19-.63-3.29,0-1.65-.71-3.15-.8-4.78-.15-2.37-.56-4.72-.78-7.08.26-1.52-.16-3-.19-4.53,0-.68-.09-1.38-.12-2.06s-.27-1.32-.25-2a22.62,22.62,0,0,0-.05-3.86,2.83,2.83,0,0,1,0-1.16c.2-1.21.24-2.43.33-3.64.41-5.57,1.24-11,3.92-16a15.39,15.39,0,0,1,8.9-7.7c4.35-1.48,8.55-3.35,12.76-5.18.51-.31,1.19.09,1.65-.4s1.26-.57,1.79-1a3.19,3.19,0,0,1,.66-.28,2,2,0,0,0,1.18-.64.87.87,0,0,1,.78-.33,30.72,30.72,0,0,0,4.55-1.89c.7-.28,1.34-.72,2.05-1a6.33,6.33,0,0,0,3.42-3.4c.1-.21.21-.41.31-.62,1.16-2.2,2.37-2.79,4.85-2.41a11.28,11.28,0,0,0,2.95.28,4.17,4.17,0,0,0,3-1.59,4.39,4.39,0,0,1,2.85.4,2.37,2.37,0,0,0,1.51.07,3,3,0,0,1,2,.48,15.51,15.51,0,0,0,4.77,2.31,2.18,2.18,0,0,1,1.27.9c.34.34.5.87,1,1a6.5,6.5,0,0,1,1.62,2.52,16.2,16.2,0,0,0,1.26,2,1,1,0,0,0,1.08.47.44.44,0,0,1,.32.24c.06.24-.41.44,0,.7a3.7,3.7,0,0,0,2,1.82c.49.23.84.2.8-.49a3.92,3.92,0,0,1,2.79-4.1,75,75,0,0,1,7.64-2.36c.28-.08.66.14.85-.24.65-.6,1.29.18,1.93,0a.86.86,0,0,1,.49.25c.18.6.59.56,1,.38a.53.53,0,0,1,.58.24c.06.73.67.46,1.06.58a17.19,17.19,0,0,1,3,4.36c1.2,2.22,2.43,4.44,3.67,6.65.08.14.14.3.32.34.49.8.92,1.63,1.42,2.42a2.74,2.74,0,0,0,.49.58c.14.27,0,.58.13.86a2.78,2.78,0,0,1,.34,1.08.9.9,0,0,0,.08.72,16.55,16.55,0,0,1,1.54,3.67c.2-.49.4-.93,1-1,.55.23.57,1,1.17,1.17a3,3,0,0,0,.71,1c.12.4.76.15.82.64a3.8,3.8,0,0,0,1.46,2,12,12,0,0,0,4.48,2.66,8.94,8.94,0,0,1,5.2,4.17,1.45,1.45,0,0,0,.44,1,11.6,11.6,0,0,1,1.13,5.17c.16,2.8-.08,5.6-.2,8.4a7.94,7.94,0,0,0-.81,2.67c-.16,1.73-1,3.32-.76,5.14a3,3,0,0,1-.43,2.69c.55,1-.47,1.41-.73,2.11a7.7,7.7,0,0,0-.27,1.05c-.1.41-.09.79-.5,1.09s.15.89-.19,1.3a1.71,1.71,0,0,0-.35.65,1.63,1.63,0,0,1-.11.23.53.53,0,0,0-.07.61c0,.13.09.31,0,.37-.92.53-.85,1.51-1,2.34-.11.5-.14,1-.6,1.26s-.18.67-.34,1c-.31.31-.06.61,0,.92s.16.85-.35,1.08a3,3,0,0,0-.94.22c.31,0,.51,0,.59.32a10.73,10.73,0,0,0-.7,2.77,3.23,3.23,0,0,1-1,2.33,1.14,1.14,0,0,0-.3.61,1.16,1.16,0,0,1-.14.24c-.38.33-.06.91-.42,1.25-.37.08-.45.35-.44.68-.07,1.37-1,2.34-1.6,3.48-.11.41-.63.44-.76.84-.16.23-.48.35-.44.7-.13.56-.56,1-.6,1.58a.92.92,0,0,1-.09.28,32.62,32.62,0,0,0-2.54,9.14c-.27,2.32-1.63,4.09-3.06,5.8a43.23,43.23,0,0,1-13,10.16,53.48,53.48,0,0,1-14.85,5.47,34.36,34.36,0,0,1-7.36.88C520.87,563.57,520.53,563.46,520.22,563.66Z"/><path class="cls-6" d="M455.85,480a2.76,2.76,0,0,1,0-2.35,4.85,4.85,0,0,0,.39-2.17c-.18-.29,0-.48.19-.66,0-.33,0-.66,0-1s-.43-.86.32-1.05a1,1,0,0,0,.07-.82c-.38-.59-.14-1.11,0-1.67a34,34,0,0,1,4.3-10.26,29.83,29.83,0,0,1,2.72-3.11c.11-.13.46-.91.69,0l.35-.13c.48-.24.51-.74.7-1.15-.08-.15-.32-.23-.21-.46.78-2.13,2.61-3.05,4.51-3.89,2.66-1.18,5.36-2.44,8.36-2,1.87.3,3.73,0,5.58.34a1,1,0,0,0,.89-.26A16.94,16.94,0,0,1,488.1,447c1.39-.69,2.21-2,3.49-2.64,1.89-1,3.1-2.75,4.76-4a1.78,1.78,0,0,1,.32-.24c2-.86,3.45-2.59,5.36-3.61.85-.46,1.61-1.33,2.82-.58.42.25.66-.6,1.07-.85h.6a3.39,3.39,0,0,0,2.41,1.26,12.29,12.29,0,0,1,2.8.75c.4.13.82.73,1.23,0,.09-.16.3,0,.44.07,1.25.42,2.48.89,3.73,1.26a50.81,50.81,0,0,1,5.37,2,12.88,12.88,0,0,1,2.88,1.85c.1.18.32.32.18.57.48.48,1.19.72,1.47,1.42,0,.09.21.17.32.17,1.07,0,1.77.39,1.74,1.61,0,.19.17.39.5.31a4.06,4.06,0,0,0,2-.72,4.08,4.08,0,0,1,1.34-.59c2.5-.93,5-2,7.71-2a46.37,46.37,0,0,1,6.66.43h.09c.24,1.44,1.9.71,2.57,1.69a5.54,5.54,0,0,0,1.92,1.5,7.79,7.79,0,0,1,3.08,3.62c.15.32.18.68.72.59s.92.3.89.92c-.24.18-.24.18.15.82a11.75,11.75,0,0,0,1.29,3.29,17.52,17.52,0,0,1,2.1,7,3.71,3.71,0,0,0,2.92,2.81c3.1.57,6.14,1.46,8.4,3.79,1,1,1.88,2.07,2.82,3.1,0,.24.31.36.19.62.41.88.83,1.74,1.21,2.64a42.12,42.12,0,0,1,2,7.2,8.85,8.85,0,0,1,0,2.95c-.05.49-.51.94-.57,1.62s.2,1.56.1,2.34c-.07.52.74.56.61,1.11a32.65,32.65,0,0,0-.64,5.74c-.18.06-.27,0-.2-.18-.07-.68-.13-1.35-.2-2-.15,2.07-.71,4.08-.55,6.15a1.48,1.48,0,0,1,.12.41,3.64,3.64,0,0,0-.85,3c-.14.44.59.37.48.8s-.21.65-.56.81c-.15.1-.37.14-.39.38-.4,1-1.11,1.9-1.07,2.95a7.41,7.41,0,0,1-1.11,3.48c-.36.79-.23,1.82-1,2.51a.21.21,0,0,0,0,.19c.53.58.18,1.06-.24,1.44-.74.69.05,1.6-.4,2.31-.34.33-.82-.06-1.18.22a5.41,5.41,0,0,0-1,2.53c-.06.32,0,.66-.33.88s-.28.34,0,.47c.94.49.14.86-.12,1.12-.47.44-.9.84-.74,1.55,0,.21,0,.5-.36.37a.84.84,0,0,0-.78.75c-.13.79-.7,1.45-.59,2.29-.35.26.09.71-.23,1s-.53.62-.27,1.07c.09.16.08.41-.08.44-1.13.23-.53,1-.42,1.49a1.32,1.32,0,0,1-.32,1.34,4,4,0,0,0-1.23,3.07,1.71,1.71,0,0,1-.47,1.14c0-.05-.13-.06-.13,0a.59.59,0,0,0,.14.22c0,.14.18.27,0,.41s-.22.68-.4,1c-.28-.14-.26-.57-.62-.64a.41.41,0,0,1-.36-.16c.29-.46.87-.88-.27-1.13-.57-.13.13-.66.09-1,.2-.12.27.1.41.16.7.19,1,.26.65-.72-.2-.52.11-1.21-.7-1.44-.12-.22.1-.29.19-.43a4.1,4.1,0,0,1,.42-.66c.28-.29.38-.55,0-.76s-.33-.59-.38-.94c.08-.17.19-.31.41-.19s.56.5,1,.37c.25-.18.19-.36,0-.54a5.93,5.93,0,0,0-1.56-.44.54.54,0,0,1,0-.18c.21-.2.24-.51.42-.73a6.13,6.13,0,0,0,.64-.3c-.19-.11-.34.18-.51.05a.43.43,0,0,1,0-.4c-.38-.56,0-.68.45-.79a.19.19,0,0,1,.24-.07,12.25,12.25,0,0,0,1,.93c-.24-.36-.87-.48-.93-1.07a.45.45,0,0,1,.32-.14s.18.11.16-.08a.47.47,0,0,1-.07-.38c-.18-.75.58-1.11.84-1.66s.48-1.3.78-1.93a1.48,1.48,0,0,1,.4-.59c.41-.39-.17-1,.39-1.39.15.09.16.3.33.37a.73.73,0,0,1-.06-.39c0-.23-.36-.5,0-.7.58-.36,1-.75.64-1.49,1-.59.26-1.67.69-2.46a3.5,3.5,0,0,1,.66-1.09c.13-.26-.19-.73.36-.78.45-.23.07-.67.25-1s-.21-.55,0-.84c.08-.45-.16-.93.55-1.24s.34-1.2.52-1.81.2-1.28,1-1.55a1.64,1.64,0,0,0,0-.35c-.12-.27.06-.44.19-.63s0-.11,0-.17a1.49,1.49,0,0,1,.39-.6c0-.25.26-.51,0-.74a.45.45,0,0,1-.06-.62c.88-.58.66-1.59,1-2.38a1.32,1.32,0,0,1,1-.93c-.24-.48-1.06-.93,0-1.3.18-.06.21-.21.13-.29-.66-.68.26-1.34.05-1.95-.26-.77,0-1.52-.13-2.25-.09-.4.29-.45.34-.74.19-1.09.54-2.16.62-3.25a1.68,1.68,0,0,1,.85-1.43c1.69-.56,1.35-1.81,1-3.05a2.25,2.25,0,0,1-.06-.36c-.06.07,0,.17-.07.26s-.19.23-.36.13a2.1,2.1,0,0,1-.34-1.79c.08-.83.08-1.65.1-2.48a1.23,1.23,0,0,1,.29-.9c.94-.29,1-.43.81-1.41a6.73,6.73,0,0,0-.47-1.3,9.81,9.81,0,0,1-.88-3.22,3.93,3.93,0,0,0-2.3-3.24c-.32-.14-.57-.25-.7-.6-.73-2.07-2.36-3.38-4-4.71a1,1,0,0,0-.94-.22c-1.19.5-2.33,0-3.49-.1a3.25,3.25,0,0,1-.69-.08c-.3-.07-.57-.19-.56-.58s-.36-.18-.58-.17c-.64,0-.15-.25-.11-.4.27-.27.52-.52.08-.87-.22-.19-.42-.41-.63-.62-.35-.4-.62-.93-1.3-.76a1.73,1.73,0,0,0-.88,1.55c-.83-1.39-1.07-3-1.9-4.29-.11-.2.06-.4,0-.61l-.36-1.17c.46-.2.64-.47.34-1a7.88,7.88,0,0,0-1-1.65c.15.43.46.73.39,1.15-.05.14-.11.26-.3.22a10.11,10.11,0,0,1-1.41-2.58c-.36-.37,0-.82-.12-1.23,0-.19-.07-.42.16-.52s.38.05.53.18c.82.73,1.55,1.54,2.44,2.4a4.39,4.39,0,0,0-2.09-2.59c-.32-.24-.69-.38-1-.6s-.69-.7-.4-1.08c.59-.79,0-1.14-.46-1.5a7.74,7.74,0,0,1-2.42-2.31c-.12-.2-.33-.37-.34-.6,0-.6-.48-.9-.8-1.33-.59-.81-1.68-1-2.08-2a.22.22,0,0,0-.32-.12c-.53.44-.87-.09-1.26-.27-.1,0,.2-.17.27-.3.36-1.07.36-1.07-.62-1a4.21,4.21,0,0,1-1.41.15c-.41.05-.82.32-1.23-.1a.6.6,0,0,0-.79.07,35.61,35.61,0,0,1-4.82.79,6.68,6.68,0,0,0-2.68.88,3,3,0,0,0-1.4.51c-.72.25-1,1.12-1.85,1.24-.3,0-.59,0-.78-.29s.2-.32.17-.58c-1.1.43-1.8,1.48-2.92,1.83-.49.45-.79.35-1.23-.19a30.12,30.12,0,0,1-2.32-4,2.5,2.5,0,0,0-.62-.71c-.08,0-.18,0-.2-.09s.08-.19.17-.26c.32-.18.66.16,1,0s.4,0,.51.21c.07,0,0,.27.15.13-.13-.3-.26-.62-.67-.32a.48.48,0,0,1-.37,0c-.55-.08-1-.56-1.58-.47a2.26,2.26,0,0,0-1.61-1c-1.49-.2-2.65-1.15-3.9-1.86a3.77,3.77,0,0,0-2.73-.74c-1.07.19-2.12-.65-3.27-.63a5.14,5.14,0,0,1-.78-.07c-.31.26-.62.1-.94,0s-.57-.22-.81.08a.37.37,0,0,1-.45.12c-1.74-.83-3.49-.33-5.23,0-.61-.06-1,.35-1.39.71-.64.55-1.17,1.3-2.19,1.14-.21,0-.34.16-.49.3A20,20,0,0,1,496,444.5a1.79,1.79,0,0,0-.74.65,16.61,16.61,0,0,1-4.11,4,3.56,3.56,0,0,1-.89.34c-.55-.1-.8.33-1.13.63s-.51.69-.93.85l-.56.23a2.94,2.94,0,0,0-1.81,1c.19.3,0,.39-.25.4h-1.33a4.79,4.79,0,0,1-3.19.24,9.64,9.64,0,0,0-5.57.35,11.44,11.44,0,0,1-2.72.44,3.43,3.43,0,0,0-2.37,1.25,4.67,4.67,0,0,1-1.43,1.19c-.44.2-.45.18-.69-.42a6.59,6.59,0,0,1-2.79,3,.92.92,0,0,0-.5.56,1.44,1.44,0,0,1-.47.86,2.48,2.48,0,0,0-1,2,1.76,1.76,0,0,1-.46,1,3.39,3.39,0,0,0-.69,1.41,3.14,3.14,0,0,1-1.05,1.53,1.33,1.33,0,0,0-.48,1.58,1,1,0,0,1,0,.77c-.42,1.14-.93,2.24-1.25,3.41-.13.2-.47.16-.51.46a1.61,1.61,0,0,1-.16.58c-.16.16-.45.2-.44.51a1,1,0,0,1,0,.3c-.2.55.09.32.33.21a.27.27,0,0,1,.27,0,1.4,1.4,0,0,1,.16,1.18c-.36,2.14-.41,4.34-1.34,6.36a2.15,2.15,0,0,0,0,.88,3.33,3.33,0,0,1,0-.55c0-.21.13-.4.37-.39a.37.37,0,0,1,.36.48c-.31,1,0,2.09-.13,3.13v1.22c0,.32.3.66-.31.79-.21.05-.11.54,0,.82.17.77.23,1.56.36,2.33l.35,1.77a4.3,4.3,0,0,0-.09,2.11c.18,1.55.12,3.12.31,4.68a69.56,69.56,0,0,1,.95,7.62c.13,1.19.64,2.28.72,3.47,0,.28.22.57-.09.81-.59.57-.05,1.19,0,1.75a5.67,5.67,0,0,1,.17.91,17.78,17.78,0,0,0,.89,5.77,29.14,29.14,0,0,1,.5,4.32,37.8,37.8,0,0,0,1.21,6.67c.41,1.28,0,2.62.42,3.93.14.51-.47,1.25-.77,1.87a.5.5,0,0,1-.49.28c-.22,0-.16-.26-.19-.4-.31-1.31-1-2.54-.79-3.94,0-.1,0-.25,0-.3-1.56-1.55-.88-3.64-1.28-5.47-.65-2.89-1.06-5.84-1.54-8.77a28.69,28.69,0,0,1-.51-4.52,2.39,2.39,0,0,0-.27-1.24,2.67,2.67,0,0,1-.26-2.52c.19-.57-.53-.66-.53-1.22,0-1.75-.18-3.5-.34-5.24-.17-2-.25-4-.49-5.94a4.79,4.79,0,0,1,.48-3.51.45.45,0,0,0,0-.46c-1.22-3.72-.88-7.53-.72-11.33a9.64,9.64,0,0,0-.18-1.43h-.08A1.34,1.34,0,0,0,455.85,480Z"/><path class="cls-7" d="M578,488.37c-.33-.19-.67-.39-.47-.88.38-.05.2.43.47.49Z"/><path class="cls-6" d="M537.51,535.65c-.57.48-1.29.18-1.94.33a13.82,13.82,0,0,0-2.19.66c-.65.3-1.3.86-1.77-.25-.1-.22-.35,0-.51.08s-.49.25-.59-.18a.3.3,0,0,0-.47-.19c-.73.8-1.31,0-1.86-.24a11.33,11.33,0,0,0-1.42-.63,2.44,2.44,0,0,1-1.27-.75,2.74,2.74,0,0,0-2.4-.59c-.25,0-.27.24-.38.4-.29.45-.6.87-1.24.67-.19-.06-.54-.12-.52,0,.11,1.2-1.13.72-1.52,1.27-.09-.12-.24-.09-.35-.15.1.1.26,0,.36.13a2.6,2.6,0,0,1-3,.9c-.34-.12-.73-.18-.85.19s.51.1.58.47a9,9,0,0,1-1.26.24c-.35,0-.8.26-.94-.46-.08-.39-.73-.26-1.1-.11s-.71.19-1.11-.31a4.87,4.87,0,0,0-1.73-1.37,4.29,4.29,0,0,1-1.88-1.79,7.24,7.24,0,0,0-1-1.37.41.41,0,0,1-.07-.59c.39-.63-.31-1.09-.61-1.08-1.46,0-2.75-.6-4.12-.86-.19.18-.18.65-.64.44a.6.6,0,0,1-.14-.42c.3-.9,1.27-1.35,1.52-2.28a2.86,2.86,0,0,1,2.39-.14c.49.16.78.06.75-.52a19,19,0,0,1,.19-2.26,2,2,0,0,1,2-1.84c.86,0,1.05.26,1.07,1.13,0,1.22-.41,2.39-.3,3.61,0,.82.54,1.16,1.17,1.46.33.16.23-.22.38-.28a1.11,1.11,0,0,1,.82-.08,5.78,5.78,0,0,1,.81.24.39.39,0,0,1,.17.21.35.35,0,0,1-.1.24c-.3.22-.67.51-.43.87.36.54.8-.06,1.21-.06.49-.16,1-.35,1.48-.48,1.8.4,3.64.48,5.47.72a4.59,4.59,0,0,1,1,.33,2.62,2.62,0,0,0,2.8-.31,1.64,1.64,0,0,1,.88-.41c1-.14,1.23-.72.81-1.58-.09-.17-.22-.33-.31-.51a3.13,3.13,0,0,1,.54-3.83,4.94,4.94,0,0,0,.56-.56.86.86,0,0,0-.21-1.16c-.42-.32-.54.22-.67.46a7.25,7.25,0,0,1-3.57,3.3,19.4,19.4,0,0,1-3,1.36,2.83,2.83,0,0,1-3.44-1.57,4.45,4.45,0,0,1-.13-3.47c.39-1.14,0-1.86-1.13-2.09-.24,0-.53-.27-.57.32,0,.29-.57.14-.87,0-1.52-.7-3-1.47-3.49-3.27,0-.07-.08-.1-.17-.1-.39.23-.23.62-.24,1a2.8,2.8,0,0,1-.35,1.08c-.14.2-.31.32-.56.15,0-.23-.17-.33-.27-.48-.25-.36-.61-.08-.9-.16a2.11,2.11,0,0,1-.38-.12c-1.63-.08-2.27.55-2.2,2.2,0,.35-.37.79.22,1a.36.36,0,0,1,.2.33,1.18,1.18,0,0,1-1,1.36c-.51.09-.29.85-.73,1.09a.54.54,0,0,1-.27.07,2.31,2.31,0,0,1-1.2-.64c0-.4-.82-.64-.19-1.13a1,1,0,0,1,.25,0h-.29c-.86-.52-.86-.58,0-1.08.08-.06,0-.17,0-.26a.41.41,0,0,1,.08-.37c.39,0,.69.27,1.07.29a10,10,0,0,1-1-.39c-.45-.4-.51-.67.22-.71.18,0,.18,0-.07-.3-.58-.11-.73-.36-.32-.86a1.62,1.62,0,0,0,.42-.73,3.13,3.13,0,0,1-1.71-.7.83.83,0,0,0-1,0,8.63,8.63,0,0,1-3,.89,1.56,1.56,0,0,1-1.14-.21,4.41,4.41,0,0,1-2.35-3.67,8.52,8.52,0,0,1,.05-2.08c.07-.43,0-.67-.49-.55a11.67,11.67,0,0,0-2.5.55,2.79,2.79,0,0,1-2.67-.12,1.37,1.37,0,0,0-1.49,0,37,37,0,0,0-3.21,2.11,3.48,3.48,0,0,1-4.49-1.26,5.71,5.71,0,0,1-.79-5.88,2.92,2.92,0,0,0,.37-1.2c-1.25,1.09-2.41,2.35-4.16,2.6-.78-.38-1.13-1.17-1.66-1.77a.64.64,0,0,1,0-.83c.39-.47.63-1.09,1.27-1.32.3.33.47,0,.68-.14a2,2,0,0,0,.72-1.19c.08-.53.74-.89,1.21-1.25a20.22,20.22,0,0,1,3.59-2.46,6,6,0,0,0,2.76-2.58c2.21-2.92,5.26-4.72,8.46-6.31a13.36,13.36,0,0,1,5.55-1.33,2.3,2.3,0,0,0,1.26-.5,11.74,11.74,0,0,1,4.72-2.19,31.14,31.14,0,0,1,3.43-.11c-.69-.39-.75-.63-.11-1.15a3.24,3.24,0,0,1,1.64-.87c.16,0,.38,0,.46-.16.6-1,1.6-.83,2.49-.92,2.36-.23,4.73-.61,7.09,0,.52.14.68,0,.58-.53a1.4,1.4,0,0,1,.06-.45,1.2,1.2,0,0,1,.27-.51,4.88,4.88,0,0,0,1.56-2.57,1.24,1.24,0,0,0,1.28.49c.89-.71,1.74-.15,2.59,0,1,.11,2.05.37,3.08.57.24.12.51,0,.76.11a1.24,1.24,0,0,0,.72.21,1.55,1.55,0,0,1-.72-.22.65.65,0,0,1-.57-.27,5.1,5.1,0,0,0-1.94-.6,2.6,2.6,0,0,1-2-1.43,4.07,4.07,0,0,0-2.19,0,6.47,6.47,0,0,0-3.31-.93c.74-.48,1.68.11,1.86-.93,0-.16.45.06.62.27a1.24,1.24,0,0,0,2.21-.07c.19-.27.52-.13.78,0l2.19.93c0,.16,0,.28-.2.17a.6.6,0,0,0-.55.7.69.69,0,0,0,.81.57,3.3,3.3,0,0,1,2.79.71,1.75,1.75,0,0,0,1.9-.05c.48-.29.58,0,.91.2,1.13.8,1.72,2.18,3.09,2.73a3,3,0,0,0,3.56-1.05c.38-.63,2-.85,2.36-.2.49,1,1.56,1.7,1.56,2.85s.39,2.37.47,3.57c0,.1,0,.2,0,.3a2.56,2.56,0,0,0,1.92,2.6,7.78,7.78,0,0,1,4.13,2.8c1.17,1.67,2.72,3.21,2.66,5.46a14.45,14.45,0,0,0,.27,2.39,14.44,14.44,0,0,1,0,4.1,3.16,3.16,0,0,0,.41,1.69,26,26,0,0,0,3.71,6.29c0,.06.1.11.11.17.62,2.21,1.79,4.26,1.88,6.64,0,1.07.26,2.14.39,3.22a.17.17,0,0,1-.08.23c-.19.09-.47.12-.31.45s.38,0,.57.08a.72.72,0,0,1,.31,1.2.75.75,0,0,1-1.25-.21.74.74,0,0,0-1.19-.29l1.5,1.28c-.25.44-.63.07-.89.21,0,.07-.07.15,0,.19.7,1.41.73,1.45-.5,2.52-.27.24-.23,1-.9.69-.1.15-.19.3-.4.19s-.37-.4-.69-.31c0,.06-.07.13-.06.18.22.63.3,1.17-.41,1.61s-1,.94-1.8.79c-.63-.12-1.17.38-1.85.41a4.76,4.76,0,0,1-1.82,0c.36-.28,1.26-.08,1-.74-.15-.44-.82,0-1.2.19-.67.28-1.26.47-1.72-.3,0-.08-.16-.21-.21-.19a6.47,6.47,0,0,0-2.53.85,14.72,14.72,0,0,0-1.42,1.17,3.09,3.09,0,0,1-2.43.91C538,535.4,537.72,535.41,537.51,535.65Z"/><path class="cls-8" d="M548.63,474a9.13,9.13,0,0,1-5.43,2,.24.24,0,0,0-.17.09s0,.1,0,.16.1.06.07.1,0,.05-.06.05l-1.18.06a2.2,2.2,0,0,0-.37-.06,2.37,2.37,0,0,0-.84,0c-.23,0-.27.25-.4.39a6.68,6.68,0,0,1-1.66.26c-.17,0-.06.62-.52.56-.2-.48-.7-.2-1-.39a3.74,3.74,0,0,1-1.48-.92,2.33,2.33,0,0,0-1.06-.46c-.38.08-.28-.29-.41-.44a4.43,4.43,0,0,1-2.18-3.38c.19-.32-.12-.53-.19-.79-.17-1.86-.39-3.71-.51-5.57a10.11,10.11,0,0,1,1.5-5.64,5.76,5.76,0,0,1,2.77-2.48,20.53,20.53,0,0,1,4.86-1.66,7.69,7.69,0,0,1,6.77,2.25,6.26,6.26,0,0,0,2.09,1.42.29.29,0,0,1,.2.16c.23.27.45.55.7.81a6,6,0,0,1,1.72,5.42c-.14.74-.2,1.5-.31,2.24a5.65,5.65,0,0,1-1.13,3.2,2.12,2.12,0,0,0-.61,1.63C549.48,473.46,549.22,474,548.63,474Z"/><path class="cls-9" d="M497.93,458.53a6.46,6.46,0,0,1,2.85-5.45c1.3-.86,1.83-2.3,2.76-3.44,1.43-1.73,3.25-2.93,5.52-2.18a33.08,33.08,0,0,0,4.32.68,8.74,8.74,0,0,1,6.37,5.16c1.91,4,1.81,7.95-.92,11.63a7.41,7.41,0,0,1-3.32,2.58,5.36,5.36,0,0,0-1.32.86,7.93,7.93,0,0,1-9.23.73,16.09,16.09,0,0,1-3.33-1.94,5.07,5.07,0,0,1-2.11-3.61.94.94,0,0,0-.22-.64C498.08,461.72,498.05,460.18,497.93,458.53Z"/><path class="cls-10" d="M469.41,477.41c-1.21-3-.51-5.62,1.25-8.2a14.89,14.89,0,0,1,5.7-4.76,6.87,6.87,0,0,1,6.57-.18c1.39.71,2.94,1.12,4.14,2.27a5.05,5.05,0,0,1,1.27,2.9,13.78,13.78,0,0,1,.07,6.57c-1.38,4.44-3.66,6.62-8.19,6.93-1.38.09-2.79-.52-4.19-.55-3-.07-4.39-2.26-6.07-4.15C469.81,477.94,469.81,477.54,469.41,477.41Z"/><path class="cls-6" d="M503.14,527.9c.12.64-.29,1-.69,1.4s-.47.54-.71.81a1.2,1.2,0,0,1-.27.16,2.72,2.72,0,0,1-1.1-.15,10.9,10.9,0,0,0-4-1,17.2,17.2,0,0,1-4.83-.85,8.71,8.71,0,0,0-3.32-.31c-2.86.18-5.77.7-8.65-.1a6.85,6.85,0,0,0-1.37-.11c-2.06-.1-3.62-1.49-5.47-2.11a.76.76,0,0,1-.55-.75.91.91,0,0,0-.31-.61c-2.38-2.41-3-5.51-3.23-8.69a7,7,0,0,1,.44-3.28,1.69,1.69,0,0,0-1.06-1.92c-.41-.06-.6-.22-.61-.61s-.06-.53-.37-.62a6.43,6.43,0,0,1-.55-5.36c0-.08.21-.12.32-.18.34.45.17.92.09,1.37.24-.41-.1-1.05.47-1.38a7.79,7.79,0,0,0,1.2-1.79c.71-1.74,2.37-2.37,3.85-3.17,2.14-1.16,4.46-2,6.54-3.3a19.9,19.9,0,0,0,5.34-4.62c.57-.74,1-1.54,1.92-1.78.57-.14.13-.71.47-1,.55-.41,1.07-.88,1.62-1.29a25.42,25.42,0,0,1,5-2.88c2-.88,3.93-2.2,6.29-2.09a7.88,7.88,0,0,0,4-2.39,2.23,2.23,0,0,1,1.32-.55c.3,0,.34-.26.47-.43l.22-.14a4,4,0,0,0,2.57-.81l.43-.14s.08,0,.09,0c.45.89.89,1,1.64.2.4-.44.84.18,1.17.5a14.3,14.3,0,0,0,3.05.38l.18,0c.56.5.74,1.45,1.74,1.4a2.37,2.37,0,0,1,1.05.17h0a.94.94,0,0,0,.78.25l.8,0a2.19,2.19,0,0,1-.92,2.24c-.3.24-.66.48-.67,1-.18.1-.33,0-.47-.09a1.94,1.94,0,0,0-.67-.38,2.37,2.37,0,0,0-1.21.11c-.74.08-1.48,0-2.22.09-.28,0-.66.15-.75-.21s.26-.46.53-.57a1.66,1.66,0,0,1,.66.14,3,3,0,0,0-.52-.18c-1-.22-2-.73-3-.26-.22.09-.31.34-.5.47a3.91,3.91,0,0,1-3.16.08,1.11,1.11,0,0,0-1.35.23,4.18,4.18,0,0,1-3.39,1c-.26,0-.54-.15-.78-.05-1.47.61-3.13.78-4.44,1.63a47,47,0,0,0-4.94,3.28,8.77,8.77,0,0,0-2.54,2.16,3.71,3.71,0,0,1-2.14,1.66c-.27.06-.42.3-.58.51-1.45,1.81-3.44,3-5.18,4.45a14.44,14.44,0,0,1-3,1.65,11.64,11.64,0,0,0-2.95,1.25,4.26,4.26,0,0,1-.88.44,5,5,0,0,0-2.74,2.11c-.47.68-1.31,1-1.72,1.73a4.33,4.33,0,0,0-.46.81,8.84,8.84,0,0,1-1.38,1.13l-.17.06a.51.51,0,0,0-.31.33c.14,0,.14-.23.3-.24.81.11.44.89.74,1.29a1,1,0,0,1,.08.25c.05.2-.12.49.24.56a1.18,1.18,0,0,1,.38.1c1.18.39,1.49,1.4,1.77,2.43a9.64,9.64,0,0,1,.26,1.06c0,.32,0,.65.08,1a2.45,2.45,0,0,1,0,.27,4.94,4.94,0,0,0,0,.94c0,.18,0,.36-.06.54s0,.46,0,.69.2.7-.25.71-.7-.3-.69-.8.34-.95,0-1.5a1.52,1.52,0,0,0-.35,1.79,16.62,16.62,0,0,1,.88,3.95,3.5,3.5,0,0,0,2.55,2.62,1,1,0,0,1,.75.41,5.7,5.7,0,0,0,3.8,2.3c.32.11.66.11,1,.22a1.57,1.57,0,0,0,1.66-.33,1.85,1.85,0,0,1,1.82-.43,1.14,1.14,0,0,0,.68,0,3.75,3.75,0,0,1,2.32,0c.25.07.49.28.33.47-.8.93.05,1,.61,1.24l.25.1c1.12.36,1.2.3,1.2-.91a2.3,2.3,0,0,0-.12-.58c-.14-.54.09-.86.59-.59,1.36.74,2.9.48,4.33.83.65.16,1,.38,1.07,1a2.66,2.66,0,0,0,1.76,0,2.89,2.89,0,0,1,.43-.09c-.69-.2-1.46.18-2.2-.52,1.43-.32,2.68-.86,4-.18.26.15.28.58.67.57a1,1,0,0,1,.71.45.48.48,0,0,1-.39.4c-1.26.35-2.49.8-3.63,1,1.58.48,3.06-.3,4.55-1a.9.9,0,0,1,1.29.28c.09.67.44.86,1.1.67C502.19,527.78,502.67,527.51,503.14,527.9Z"/><path class="cls-8" d="M563.31,501.27a14.27,14.27,0,0,0-2.36.19c-.13-.11-.29-.06-.45-.06a2.55,2.55,0,0,0-.71.14.92.92,0,0,0-.63.34c-1,.92-1.88.57-2.74-.34-.56-.58-1.33-1-1.95-1.5a3.83,3.83,0,0,1-1.28-2.62,35.46,35.46,0,0,1-.38-6.74c.27-3.14,1.54-5.67,4.71-6.63.79-.24,1.49-.69,2.31-.86,2.07-.44,3.68.49,5.16,1.69.63.51,1.16,1.15,1.82,1.65a4.64,4.64,0,0,1,2.12,4.22,26.25,26.25,0,0,1-.48,4.82,10.51,10.51,0,0,1-2.92,4.35c-.22.41-.66.52-1,.77l-.79.27C563.56,501,563.26,500.91,563.31,501.27Z"/><path class="cls-11" d="M503.54,479.44c.28.38,0,.67-.25.81a17.64,17.64,0,0,0-2.81,1.67c-.32.25-.62-.13-.94-.14a21.14,21.14,0,0,1,4-2.54s.07.09,0,.13S503.56,479.44,503.54,479.44Z"/><path class="cls-12" d="M459.05,498.7a2.6,2.6,0,0,1-.39-1.67,14.91,14.91,0,0,0-.23-3.71,1.34,1.34,0,0,1,.4-1.41c.08,1.72.16,3.45.38,5.17A2.09,2.09,0,0,1,459.05,498.7Z"/><path class="cls-13" d="M511.29,478.24c-.36-.18-.47-1.21-1.18-.17-.49.72-1.24.31-1.58-.75l2.3-.1c.36-.22.63-.07.87.21l.38,0C512.14,478.05,511.58,478,511.29,478.24Z"/><path class="cls-14" d="M556.59,460.15c-.1-.62-.67-1-.74-1.7a4.46,4.46,0,0,1,2,2.87c-.06.68-.59,0-.83.25-.39-.26.07-.57,0-.84C556.67,460.63,556.68,460.36,556.59,460.15Z"/><path class="cls-15" d="M511.29,478.24c0-.53.71-.34.79-.78l.21,0a.25.25,0,0,1,.38,0l1.81,1c-.35.14-.63.73-1.11.1a1.76,1.76,0,0,0-1.13,0A.81.81,0,0,1,511.29,478.24Z"/><path class="cls-14" d="M458.48,490.14c-.66-.86-.4-2-.74-2.91a.41.41,0,0,1,.38-.48c.65.11.13-.44.35-.55A9.68,9.68,0,0,1,458.48,490.14Z"/><path class="cls-16" d="M530.16,449.24l-.21.21c-.35-.09-.57.48-1,.2l-.23-.22a17.75,17.75,0,0,1,2.59-2c.14-.09.33-.51.59-.05s0,.58-.36.69a2.62,2.62,0,0,1-.79.65A5.12,5.12,0,0,0,530.16,449.24Z"/><path class="cls-11" d="M517.45,480c-.51-.12-1,.24-1.53.09-.85-.25-1.07-.93-1.26-1.66A11.12,11.12,0,0,1,517.45,480Z"/><path class="cls-17" d="M514.67,477.46c-.07-.22-.15-.44-.2-.66-.13-.58-.2-1.15.71-.81.45.17,1-.37,1.41.24a1.6,1.6,0,0,1-1.61.41c.61.64-.12.69-.32,1-.07,0-.09-.08-.07-.11S514.64,477.46,514.67,477.46Z"/><path class="cls-18" d="M490.23,449.64c0,.13,0,.25,0,.38-.53-.13-.54.45-.85.63a1.81,1.81,0,0,1-1.17.36,7.06,7.06,0,0,1,1.37-1.62c.25-.24.47-.36.69,0C490.34,449.5,490.33,449.58,490.23,449.64Z"/><path class="cls-19" d="M561.54,466.74c.27.22.56.44.82.68s.57.33.42.67-.51.21-.79.25c-.6-.08-.75-.53-.84-1C561.26,467.11,561.29,466.85,561.54,466.74Z"/><path class="cls-20" d="M546.44,444.7c.4.05.9-.48,1.15,0a.83.83,0,0,1-.5,1.19l-.63-.23a.49.49,0,0,1-.36-.55A.53.53,0,0,1,546.44,444.7Z"/><path class="cls-14" d="M561.54,466.74a.56.56,0,0,1-.39.57,1.84,1.84,0,0,1-1-1.22C561.14,465.14,561.12,466.43,561.54,466.74Z"/><path class="cls-21" d="M520,479c.73-.78,1.46-.52,2.19,0A1.68,1.68,0,0,1,520,479Z"/><path class="cls-22" d="M508.1,477.46a2.09,2.09,0,0,1-2.57.81A11.13,11.13,0,0,1,508.1,477.46Z"/><path class="cls-23" d="M556.78,524.9c-.31.08.22.65-.26.54a1,1,0,0,1-.74-1c0-.33.19-.36.46-.32a2.28,2.28,0,0,0,.36,0C556.87,524.34,556.75,524.64,556.78,524.9Z"/><path class="cls-12" d="M485.83,452.24l-.25-.11a2.61,2.61,0,0,1,2.06-.89C487.22,451.9,486.38,451.81,485.83,452.24Z"/><path class="cls-24" d="M524.6,444.26c-.12.07-.14.15,0,.23-.72.19-.56-.69-1-.83.69-.45,1.14.06,1.64.4C525.06,444.26,524.77,444.08,524.6,444.26Z"/><path class="cls-25" d="M503.54,479.44v-.2a4.65,4.65,0,0,1,1.77-.83l.17.74A2.34,2.34,0,0,0,503.54,479.44Z"/><path class="cls-26" d="M512.67,477.45h-.38c-.37-.29-.28-.59,0-.87s.52-.22.6-.05A.87.87,0,0,1,512.67,477.45Z"/><path class="cls-27" d="M537.51,535.65c.07-.53.48-.36.8-.39-.69.66.36.51.32,1C538.19,536.24,537.67,536.42,537.51,535.65Z"/><path class="cls-28" d="M546.25,445.06l.21.6c-.38.72-.89-.35-1.32.07l.36-.44C545.7,445,545.92,444.87,546.25,445.06Z"/><path class="cls-29" d="M467.35,503.66c-.23.5-.08,1.1-.56,1.71v-1.7Z"/><path class="cls-30" d="M537.08,477.28c.34.13,1.13-.92,1,.39C537.67,477.77,537.29,477.75,537.08,477.28Z"/><path class="cls-31" d="M529.35,479.8c-.63.38-.93,0-1.42-.26A1.36,1.36,0,0,1,529.35,479.8Z"/><path class="cls-32" d="M568.68,516.6l-.36.78c-.2-.32-.55-.12-.88-.3C567.87,516.87,568.15,516.45,568.68,516.6Z"/><path class="cls-33" d="M548.63,474a3.9,3.9,0,0,1,1.18-1C549.6,473.61,549.43,474.21,548.63,474Z"/><path class="cls-34" d="M566.38,523.12a1.06,1.06,0,0,1,.43.93c-.69,0-.7-.44-.7-.91Z"/><path class="cls-35" d="M553.41,530.68l.4-.19c.69.68.15,1-.4,1.21a.28.28,0,0,1,0-.41C553.76,531.09,553.44,530.89,553.41,530.68Z"/><path class="cls-36" d="M562.49,530.31l.07.34c.13.24-.11.32-.21.46.21.42,0,.54-.39.58C561.82,531.11,562.25,530.75,562.49,530.31Z"/><path class="cls-37" d="M529,449.65c.34,0,.56-.51,1-.2a4.21,4.21,0,0,1-1.18.79C528.56,449.93,528.83,449.81,529,449.65Z"/><path class="cls-38" d="M564.52,500.69c.22-.42.65-.55,1-.77C565.64,500.76,565,500.61,564.52,500.69Z"/><path class="cls-39" d="M501.75,530.49c.31,0,.39-.3.62-.39-.2.82-.57,1.08-1.25.39A.44.44,0,0,1,501.75,530.49Z"/><path class="cls-40" d="M543.07,476.44a.76.76,0,0,1,0-.15h2v.15Z"/><path class="cls-31" d="M524.18,478.45l.2-.17,1,.45C524.76,479.21,524.54,478.6,524.18,478.45Z"/><path class="cls-41" d="M563.7,528.71l.26.36c0,.2,0,.29-.24.24h-.35c-.08.07-.12.18-.24.21h-.19C562.75,528.83,563.53,529.06,563.7,528.71Z"/><path class="cls-12" d="M546.25,445.06l-.75.23c-.17,0-.34,0-.44-.21a4,4,0,0,1,1.38-.39Z"/><path class="cls-42" d="M511.7,477.43l-.87-.21c-.07-.27-.44-.07-.55-.34C510.85,476.87,511.43,476.72,511.7,477.43Z"/><path class="cls-43" d="M568.9,514.79c0,.28.81.53,0,.84C568.86,515.35,568.26,515.1,568.9,514.79Z"/><path class="cls-44" d="M510,476.2c.31-.39.54-.42.79-.25a.19.19,0,0,1,0,.17C510.55,476.33,510.3,476.25,510,476.2Z"/><path class="cls-41" d="M565.72,524.53c0,.29,0,.56-.4.59C565,524.64,565.27,524.51,565.72,524.53Z"/><path class="cls-45" d="M559.16,501.88c0-.45.2-.58.61-.4a.34.34,0,0,1,.38-.05.17.17,0,0,1,0,.24C559.77,501.48,559.55,502.07,559.16,501.88Z"/><path class="cls-46" d="M477.49,483.06h1.61A2.39,2.39,0,0,1,477.49,483.06Z"/><path class="cls-47" d="M467,509.21c.17,0,.37-.25.5,0a.46.46,0,0,1-.13.61A.88.88,0,0,1,467,509.21Z"/><path class="cls-35" d="M468.18,511.61l-.34.48c-.21-.6-.16-.91.55-.68A.24.24,0,0,1,468.18,511.61Z"/><path class="cls-45" d="M531.76,471.29c.2.23.88.35.19.79C531.85,471.83,531.56,471.62,531.76,471.29Z"/><path class="cls-48" d="M541.64,476.27l.25.23c-.39.17-.76.53-1.23.15.08-.16.25-.2.4-.28S541.47,476.45,541.64,476.27Z"/><path class="cls-49" d="M469.41,477.41c.78-.12.47.48.55.83A2,2,0,0,1,469.41,477.41Z"/><path class="cls-50" d="M566.78,499.25c0,.4-.3.51-.6.91C566.19,499.55,566.55,499.45,566.78,499.25Z"/><path class="cls-51" d="M563.31,501.27l-.46-.35c.33.06.61-.3.88,0C563.73,501.25,563.53,501.28,563.31,501.27Z"/><path class="cls-52" d="M556.35,528a.26.26,0,0,1-.16-.3c0-.17.12-.31.29-.26s.1.22.1.34S556.52,528.06,556.35,528Z"/><path class="cls-53" d="M517.94,477.37c-.36.11-.6.13-.79-.19C517.45,477,517.65,477.17,517.94,477.37Z"/><path class="cls-54" d="M519.5,477.19c.39-.24.54,0,.89.11A.65.65,0,0,1,519.5,477.19Z"/><path class="cls-55" d="M528,479a1.65,1.65,0,0,1-.32.06c-.12,0-.27-.05-.24-.21s.17-.16.3-.13A.28.28,0,0,1,528,479Z"/><path class="cls-56" d="M518.23,480.26c-.38.32-.6.1-.78-.25A.65.65,0,0,1,518.23,480.26Z"/><path class="cls-57" d="M468.18,511.61l.21-.2c.16.14.39.33.17.51S468.27,511.78,468.18,511.61Z"/><path class="cls-58" d="M560.16,501.67a.86.86,0,0,1,0-.16.45.45,0,0,1,.43-.23c.23-.14.36-.12.35.18A1,1,0,0,1,560.16,501.67Z"/><path class="cls-59" d="M571.48,508.44c.07,0,.32.07.18.13s-.38.32-.57.47C571.07,508.74,571.07,508.46,571.48,508.44Z"/><path class="cls-60" d="M549.44,459.77l-.2-.16-.07-.36c.09,0,.21,0,.26.05S549.7,459.61,549.44,459.77Z"/><path class="cls-61" d="M573.86,477.86c.11.25.28.48.2.78C573.75,478.44,573.46,478.24,573.86,477.86Z"/><path class="cls-62" d="M541.1,476.47l-.44.18-.38.2c0-.22-.09-.47.23-.57C540.67,476.44,541,476.25,541.1,476.47Z"/><path class="cls-63" d="M501.75,530.49h-.63a.39.39,0,0,1-.38-.2c.23-.2.55,0,.78-.17h.22C501.75,530.23,501.75,530.36,501.75,530.49Z"/><path class="cls-21" d="M501.52,530.12c-.21.28-.51.13-.78.17a.38.38,0,0,1-.37-.17Z"/><path class="cls-64" d="M534.13,475.46l.41.44a.32.32,0,0,1-.49.06C533.87,475.78,534.07,475.62,534.13,475.46Z"/><path class="cls-65" d="M507.64,476.6a3.15,3.15,0,0,1-.46,0c-.11,0-.16-.11-.09-.19a.28.28,0,0,1,.25-.06C507.43,476.41,507.49,476.49,507.64,476.6Z"/><path class="cls-66" d="M571.07,509.21c-.06.21-.13.42-.19.63C570.54,509.5,570.66,509.31,571.07,509.21Z"/><path class="cls-67" d="M514.06,477.65l-.5-.29a.54.54,0,0,1,.72.07A.25.25,0,0,1,514.06,477.65Z"/><path class="cls-68" d="M553.4,531.29v.41c-.41.06-.37-.28-.33-.47S553.29,531.25,553.4,531.29Z"/><path class="cls-69" d="M557.36,462.74c.36.21.07.41,0,.61C557.14,463.15,557.08,463,557.36,462.74Z"/><path class="cls-70" d="M556.59,460.15l.36.58c-.31,0-.46-.11-.53-.4Z"/><path class="cls-71" d="M526.78,481.42c-.28,0-.58.05-.8-.19l.19-.17.6.19c.07,0,.09.07.07.11S526.8,481.42,526.78,481.42Z"/><path class="cls-6" d="M514.06,477.65l.22-.22.39,0a.81.81,0,0,0,0,.16C514.47,477.73,514.28,477.91,514.06,477.65Z"/><path class="cls-72" d="M556.76,452.64a1.64,1.64,0,0,1-.74-1c.34-.23.27.45.59.22C556.87,452.05,556.76,452.36,556.76,452.64Z"/><path class="cls-73" d="M574.48,473.29c0-.22-.65-.25-.19-.62C574.51,472.83,574.76,473,574.48,473.29Z"/><path class="cls-74" d="M525.56,442.86l-.18-.57c.22.09.43.22.47.45S525.68,442.86,525.56,442.86Z"/><path class="cls-16" d="M575.41,504.3c-.12,0-.36,0-.32-.07.42-.94-.09-2.24,1.1-2.87,0,0,0-.06,0-.09.32.37.32.37,0,1.43,0,.27.1.57-.2.77s0,.46-.16.66S575.62,504.4,575.41,504.3Z"/><path class="cls-75" d="M562.32,541.8c0-1-.7-.56-1.09-.5s-.35,0-.23-.29a.41.41,0,0,1,.58,0,1.27,1.27,0,0,0,.28-.06.79.79,0,0,1,.9.14c.32.26-.34.41-.21.72A.16.16,0,0,1,562.32,541.8Z"/><path class="cls-76" d="M571.35,521.41a2.16,2.16,0,0,1-.24-1.07c.24.06.63,0,.68.18C572,520.91,571.6,521.14,571.35,521.41Z"/><path class="cls-77" d="M575.68,508.08l.25-1.62a4.72,4.72,0,0,1,0,2.39C575.59,508.65,575.87,508.3,575.68,508.08Z"/><path class="cls-78" d="M570.08,519.36c.34-.39.8-.09,1.18-.22a5.49,5.49,0,0,0-.41,1.64C570.25,520.43,571.5,519.25,570.08,519.36Z"/><path class="cls-79" d="M573,516.11a1.58,1.58,0,0,1,.27-1.52C573.12,515.19,573.6,515.64,573,516.11Z"/><path class="cls-80" d="M576.24,502.7c-.15-.48.31-.95,0-1.43l0-.43A1.2,1.2,0,0,1,576.24,502.7Z"/><path class="cls-81" d="M561.58,541H561c0-.26-.36-.65.1-.72S561.77,540.53,561.58,541Z"/><path class="cls-82" d="M575.41,504.3l.43-.24c.15.09.06.3.2.39s.34.43,0,.62C575.76,504.86,575.28,504.81,575.41,504.3Z"/><path class="cls-83" d="M575.06,507.45c.07-.4.13-.8.2-1.21,0-.18,0-.27.2-.19a1.56,1.56,0,0,1-.2,1.39C575.2,507.54,575.13,507.54,575.06,507.45Z"/><path class="cls-76" d="M566.84,529.79c-.41-.63,0-.9.32-1.32A3.17,3.17,0,0,1,566.84,529.79Z"/><path class="cls-84" d="M562.74,540.42c0-.37-.09-.8.4-1,.19.45-.3.82-.16,1.27C562.71,540.78,562.78,540.55,562.74,540.42Z"/><path class="cls-85" d="M570.17,522.9c-.15-.45.08-.71.27-1.12C570.75,522.33,570.51,522.6,570.17,522.9Z"/><path class="cls-86" d="M574.66,510.22c-.31-.43-.15-.71.12-1.12A1.26,1.26,0,0,1,574.66,510.22Z"/><path class="cls-87" d="M563.14,539c-.22-.11-.55-.13-.51-.48,0-.09.17-.25.26-.24.33,0,.21.33.24.53A.61.61,0,0,1,563.14,539Z"/><path class="cls-88" d="M565.92,530.29c.05-.33-.18-.73.23-1-.13.41.13.65.58.92Z"/><path class="cls-37" d="M562.32,541.8h.23c-.13.45-.13.45-.76,0C562,541.61,562.14,541.86,562.32,541.8Z"/><path class="cls-89" d="M574.16,511.74v.77c-.36,0-.28-.22-.29-.38A.4.4,0,0,1,574.16,511.74Z"/><path class="cls-79" d="M573,514.38a.61.61,0,0,1,.22-.83C573.28,513.85,573.36,514.13,573,514.38Z"/><path class="cls-26" d="M575.06,507.45h.2c0,.36.14.81-.49,1Z"/><path class="cls-90" d="M575.46,506.05l-.2.19-.19,0c0-.22-.5-.22-.3-.47s.45.11.69.09Z"/><path class="cls-91" d="M562.22,544.85c.09.11.2.19.19.24a.68.68,0,0,1-.19.4c-.12.09-.25,0-.21-.17A2.29,2.29,0,0,1,562.22,544.85Z"/><path class="cls-92" d="M563.09,543.25c-.3.17-.51.32-.92.12C562.49,543.2,562.7,543,563.09,543.25Z"/><path class="cls-93" d="M561.76,539.62l.36.16c0,.18,0,.48-.18.45S561.82,539.83,561.76,539.62Z"/><path class="cls-94" d="M562.13,535c-.07.14-.13.29-.19.43s-.42.2-.43,0C561.47,535.08,561.89,535.15,562.13,535Z"/><path class="cls-89" d="M567.52,526.28l.36-.37c.34.21.15.48,0,.62S567.59,526.43,567.52,526.28Z"/><path class="cls-95" d="M561.43,546.83a1.36,1.36,0,0,1-.07-.35c0-.14.1-.25.25-.18a.29.29,0,0,1,.09.25A.26.26,0,0,1,561.43,546.83Z"/><path class="cls-96" d="M575.68,508.08c.29.2.12.52.2.77-.23.24-.4.26-.37-.13A2.88,2.88,0,0,1,575.68,508.08Z"/><path class="cls-35" d="M562,537.62l-.41-.16c.06-.19.07-.54.31-.48S561.87,537.41,562,537.62Z"/><path class="cls-97" d="M563.52,532.31c.19.07.5.05.47.33s-.27.21-.47.21Z"/><path class="cls-98" d="M577,496.71l.2.18c0,.23-.05.55-.28.45S576.83,496.91,577,496.71Z"/><path class="cls-99" d="M576.7,500.24a.91.91,0,0,1,.25.76C576.59,500.81,576.63,500.55,576.7,500.24Z"/><path class="cls-85" d="M567.41,528c-.12-.26-.07-.43.14-.55C567.78,527.68,567.41,527.78,567.41,528Z"/><path class="cls-100" d="M562.54,532.48l-.41.19c-.11-.08-.19-.21-.07-.31S562.41,532.3,562.54,532.48Z"/><path class="cls-101" d="M570.63,523c0,.32-.08.49-.26.6C570.22,523.34,570.32,523.18,570.63,523Z"/><path class="cls-102" d="M576,504.45c-.17-.08-.18-.23-.2-.39s0-.45.2-.59Z"/><path class="cls-103" d="M574.68,512.2v-.85C574.94,511.6,574.88,511.81,574.68,512.2Z"/><path class="cls-91" d="M461.74,535.52c.34.35.31.57,0,.8A.69.69,0,0,1,461.74,535.52Z"/><path class="cls-104" d="M456.44,474.82c-.06.22-.13.44-.19.66a1.45,1.45,0,0,1-.22-1.28C456.38,474.32,456.13,474.74,456.44,474.82Z"/><path class="cls-70" d="M465.37,455.17l.21.46-.65.11C465,455.44,465.19,455.32,465.37,455.17Z"/><path class="cls-76" d="M503.75,439.31c-.17.23-.18.4.17.41.12.25.64-.17.58.36a9.65,9.65,0,0,0-1.32.27.72.72,0,0,1-.83-.25C502.73,439.7,503,439.14,503.75,439.31Z"/><path class="cls-92" d="M459.26,473.07a2.84,2.84,0,0,1-.25,2c0-.38.19-.8-.14-1.15-.31-.1-.39-.43-.6-.62-.07-.47.06-.68.55-.42a.32.32,0,0,1,.25.15C459.1,473.12,459.16,473.16,459.26,473.07Z"/><path class="cls-105" d="M563.13,529.52l.24-.21c.35.66,1.26.84,1.56,1.92A7.64,7.64,0,0,1,563.13,529.52Z"/><path class="cls-92" d="M562.35,531.11l.21-.46c.25-.08.09-.54.36-.5s.51.43.56.9A1.47,1.47,0,0,0,562.35,531.11Z"/><path class="cls-14" d="M458.27,473.28c.41,0,.54.28.6.62s-.42.21-.54.47A2.39,2.39,0,0,1,458.27,473.28Z"/><path class="cls-106" d="M535.33,446.65c-.36.25-.6.88-1.2.39C534.51,446.84,534.79,446.34,535.33,446.65Z"/><path class="cls-107" d="M525.56,444a1.68,1.68,0,0,1-.1-.41c.42.24,1.13.25.92,1-.23.09-.35,0-.43-.23l-.34-.34Z"/><path class="cls-108" d="M530.74,448.63l.84-.54c.22.24.52.11.77.16-.43.27-1,.19-1.4.58C530.87,448.77,530.75,448.75,530.74,448.63Z"/><path class="cls-70" d="M575.83,485.22a3.2,3.2,0,0,1-.16-1.62.18.18,0,0,1,.21,0c.09.13,0,.31.14.43l0,.41C575.75,484.62,575.9,485,575.83,485.22Z"/><path class="cls-109" d="M459.42,471.87c0,.23,0,.47-.2.61a.16.16,0,0,1-.2,0c-.11-.12,0-.3-.16-.42C458.83,471.53,459.17,471.78,459.42,471.87Z"/><path class="cls-110" d="M567.36,522.07c.17.24.55.15.56.5,0,0-.21.16-.31.14C567.26,522.65,567.29,522.39,567.36,522.07Z"/><path class="cls-111" d="M572.47,505.29c.2-.25.38-.44.65-.2.06,0,.09.22.06.24C573,505.5,572.73,505.36,572.47,505.29Z"/><path class="cls-112" d="M526,444.44l.43.23c0,.2,0,.42-.27.33S525.68,444.72,526,444.44Z"/><path class="cls-113" d="M576.45,489.36l-.44.18c0-.26,0-.52.06-.8C576.41,488.84,576.4,489.12,576.45,489.36Z"/><path class="cls-114" d="M490.23,449.64l0-.23c.26-.11.44-.41.77-.36A1,1,0,0,1,490.23,449.64Z"/><path class="cls-115" d="M563.72,529.31l.24-.24c.15.11.41.28.29.42S563.88,529.45,563.72,529.31Z"/><path class="cls-116" d="M458.86,472.11c.07.13.14.26.2.39s.14.39-.05.57l-.19-.21C458.84,472.61,458.85,472.36,458.86,472.11Z"/><path class="cls-117" d="M564.83,527a.38.38,0,0,1,.59.15C565.14,527.43,565,527.13,564.83,527Z"/><path class="cls-107" d="M524.6,444.26c.16-.23.4-.18.62-.2l.34,0,.05.06C525.31,444.38,524.94,444.21,524.6,444.26Z"/><path class="cls-118" d="M539.69,495.73c0,.33-.06.72.2.93.58.45.75,1.52,1.82,1.27a14.52,14.52,0,0,1,2.91,2.79,7.1,7.1,0,0,0,1.6,1.59c.45.26.24.72.43,1a9.32,9.32,0,0,1,.82,3.32c-.37-.14-.1-.46-.33-.6-.19.14,0,.38-.1.57-.52.07-.14-.46-.38-.57a3.14,3.14,0,0,1-.18-.31,1.65,1.65,0,0,0,.18.32c.14.24.05.53.18.77a17.92,17.92,0,0,0,1.46,3.7c.52,1.26,1.85,1.64,2.22,2.85s1.2,2.17,1.61,3.34c.09.24.75.5.17.87s-1.15.08-1.24-.2c-.21-.69-.66-.55-1.13-.65-.92-.18-.53-.6-.11-1,.4,0,.36-.15.2-.39s-.44-.38-.67-.56-.58-.77-.86.06a.59.59,0,0,1-.85.19c-.21-.12-.58-.1-.38-.6.11-.25-.12-.8-.56-.18-.16.21-.43.06-.65.09a.19.19,0,0,0-.25,0c-.09.08,0,.16.05.23.64.28.74,1.12,1.39,1.39.4.27,1,.15,1.2.79a7.52,7.52,0,0,0,1.35.93A4.85,4.85,0,0,1,552,521.1c.25,1.07.56,2-.59,2.63.12,1-.28,1.58-1.32,1.65a.25.25,0,0,0-.14.13,5,5,0,0,1-3.15,3.13.88.88,0,0,0-.4.28c-1.23,1.7-3.14,1.23-4.81,1.52a4,4,0,0,0-1.47.54,4,4,0,0,1-2.65.5.2.2,0,0,1-.23.06c-.15-.12-.28-.24-.16-.45,1.49,0,2.46-1,3.37-2a2.59,2.59,0,0,0-.65-4c-.72-.45-.58-.82-.16-1.26a18.81,18.81,0,0,0,2.1-2.6,2.57,2.57,0,0,0,.23-2.66c-.14-.33-.22-.69-.33-1-.65-.4.22-.8,0-1.2a11.1,11.1,0,0,1-.89-2.64A3,3,0,0,0,538.7,512c.13-.62-.33,0-.4-.19h0a.89.89,0,0,1-.35-.23c-.55-1.28-1.51-2.35-1.83-3.74l-2.67-4.71c-.11-.2-.34-.34-.21-.62a4.34,4.34,0,0,0-.45-4.11,1.42,1.42,0,0,1-.08-.18c-.09-.27-.44-.52-.22-.8s.54,0,.81.07.23.15.37,0c-.17-.48-.66-.46-1-.66-.13-.08-.71-.21-.12-.52a2.94,2.94,0,0,1,1.67.73c-.4-.48-1.08-.46-1.48-.92-.31-.07-.73-.12-.75-.51-.13-1.86-1.47-3-2.52-4.3a1,1,0,0,1-.1-.17c.22-.19.38,0,.55.08s.09.08.11.08a.38.38,0,0,0-.13-.12c-.21-.2-.55-.17-.72-.44-.81-.73-1.84-.55-2.91-.62a3.47,3.47,0,0,1,1.48-1.23c.27-.16,1.24-.26.31-.9-.33-.22-.09-.45.07-.55s.44-.58.71-.15.59.45,1,.13.7-.52,1-.18a1.07,1.07,0,0,1,.17,1.2,4.64,4.64,0,0,0,.3,4.07,2.59,2.59,0,0,0,3.12,1.17c.35-.14,1-.5,1-.39,0,.61.53,1.13.32,1.75-.16.47-.35.93-.51,1.4s-.07.62.45.47c.91-.26,1.83-.51,2.76-.71.37-.08.42-.21.32-.53-.19-.57.07-.57.48-.37A.59.59,0,0,1,539.69,495.73Z"/><path class="cls-118" d="M497.58,525.72a6.62,6.62,0,0,0-3.74.16h2.67a1.22,1.22,0,0,1-1.29.64,4.63,4.63,0,0,1-2,0c-.74-.18-.18-.5-.06-.82-1,.09-1.8-.55-2.77-.38s-1.81-.47-2.79-.76c0,.43.36.74.28,1.14-.6.23-1-.21-1.53-.38s-.63-.45-1.05-.4c-1.19-.28-2.37.31-3.56.05a1,1,0,0,0-.95.31c-.58.46-1.23,1-2.06.45-.17-.19-.43-.19-.64-.3a18.67,18.67,0,0,1-5.47-6.12,8.36,8.36,0,0,1-.59-3.46,12.5,12.5,0,0,0,.06-2.29c.08-1.18.29-2.35.42-3.52a.87.87,0,0,1,.45-.82c1.84-.58,3.14-2,4.69-3.3a5.78,5.78,0,0,1-.8,2.61c-.79,1.8.43,5.31,2.25,6.29s3.13,0,4.33-1.1c.72-.68,1.87-.58,2.42-1.52.16-.27.38.1.55.22a3.08,3.08,0,0,0,3.35.22,7.93,7.93,0,0,1,2.79-.45c.54-.06.21.39.19.64-.09,1.24-.36,2.5.27,3.68,1.33,2.46,2,2.42,4.42,2a1.77,1.77,0,0,0,.56-.19c.92-.6,1.79-.91,2.71,0,.4.41,1.06.19,1.79.39a3.79,3.79,0,0,0-1.34,1.46h.63c0,.07.05.16,0,.18-.91.34-.74.95-.39,1.6.19,0,.5.08.43.27-.16.44-.64.18-1,.21a.86.86,0,0,0,.54.72c.07.05.1.09.07.13s0,.07-.07.07c-.41.42.53.58.2,1l-.13.06a1.74,1.74,0,0,1-1.26-.37c-.06-.07-.13-.13-.18-.2s.06.07.07.12c.18.26.54.28.69.57.08,1-.81.84-1.33,1.13-.42,0-.84-.19-1.26,0a3.61,3.61,0,0,1-1.7-1.54C496.56,524.75,497.49,525,497.58,525.72Z"/><path class="cls-118" d="M508.94,528.14a7.11,7.11,0,0,1,.2-2.55c.16-.57,0-1.21.11-1.84.08-.42-1.1-.64-1.65-.23a1.91,1.91,0,0,0-.92,1.45c0,.78-.12,1.56-.17,2.34a17.68,17.68,0,0,1-3.78-.35l-.28-.1c-.1-.08-.22-.24-.11-.31.51-.33.41-.81.38-1.28a.84.84,0,0,1,.21-.35,2.37,2.37,0,0,0,.27-.74c0-.48.05-.72.65-.57.36.08.45-.17.38-.61s.23-.41.5-.46c.21-.28.56-.25.69-.29-.18.07-.55,0-.89.09s-.79,0-.54-.62a1.41,1.41,0,0,0,.07-.85,1.91,1.91,0,0,1,1.74-2.09c.31,0,.61-.37.91,0-.1.15,0,.38-.24.5.18,0,.26-.23.45-.19a.4.4,0,0,1,.33.2c.06.12.11.24.16.37.2.38.45.6.92.39a1.21,1.21,0,0,1,1-.09.54.54,0,0,1,.09.39c-.38.43-.76.84-1.12,1.2.36-.31.87-.23,1.47-.22-.36-.09-.81.07-.84-.19-.05-.53.59-.48.86-.77.28-.46.09-.76-.34-1a1.45,1.45,0,0,1-.43-.46c-.06-.11-.06-.25-.14-.34-.42-.49-.18-1,.12-1.35s.51-.38.68.15c.57,1.89,1.75,2.93,4,3.53,0-.3-.39-.2-.39-.48,1-.39,1.77.2,2.63.47-.09.41-.43-.1-.55.27.91.15.78.68.49,1.32a4.11,4.11,0,0,0-.21,3.08c.57,1.72,1.92,2.52,3.59,1.88a20.32,20.32,0,0,0,4-2.08,6.12,6.12,0,0,0,2.21-2.6c.14-.31.3-.65.66-.67s.4.45.56.71c.37.59.29,1-.33,1.48a2.8,2.8,0,0,0-.48,4.19c.47.61.19,1.11.05,1.67s-.61.31-1,.33a1,1,0,0,0-.71.28,2.6,2.6,0,0,1-3.24.41,10.47,10.47,0,0,0-2.71-.46,15.39,15.39,0,0,0-2.55-.21c-.43,0-.61-.53-1.06-.4a1.17,1.17,0,0,1-.64-.13c-.52-.24-1.24,0-1.59-.66h0c-.27-.17-.62-.1-.87-.3a7.68,7.68,0,0,0-.82-.11A4.47,4.47,0,0,1,508.94,528.14Z"/><path class="cls-118" d="M491,488.57a37.66,37.66,0,0,1,5.06-3.41c1.28-.86,3-1.06,4.52-1.62.51-.2,1.18.18,1.82.08a3.53,3.53,0,0,0,2.09-.95,1.25,1.25,0,0,1,1.8-.25c.87.56,2,.15,3,0,.33-.31.74-.12,1.08-.19-.29-.11-.79.24-.88-.39a3.93,3.93,0,0,1,3.37.4s.07.09,0,.13,0,.07,0,.07l-.63.45a21.51,21.51,0,0,1,3-.05c.79-.05,1.35.47,2,.79.13.31.59.53.28.95s-.64.1-1,0a13,13,0,0,0-4.61-.32c-1.18.07-2.36.25-3.53.35-.45,0-.86.05-1,.59s-.49.4-.81.4a1.47,1.47,0,0,0-1,.39c-1.14.9-1.16.88.33,1.67a23.14,23.14,0,0,0-3.53,0,6.73,6.73,0,0,0-4.22,1.47,6.68,6.68,0,0,1-4,1.46,11.08,11.08,0,0,0-4.16,1.17A4,4,0,0,1,491,488.57Z"/><path class="cls-118" d="M507.91,514.79c.06-.46.13-.92.19-1.38a.74.74,0,0,1,.07-.39c-.16,0-.17.16-.25.24s-.07.39-.21.54c-.07.36-.11.75-.59.78s-.58-.29-.71-.58c-.33-.79.62-.41.75-.9-.27-.21-.59-.46-.13-.92,2.69-2.75,4.58-6.08,6.7-9.24a3,3,0,0,1,3.21-.73c.41.24.08.63.31.86.72.72.62,1.7.78,2.59a2.58,2.58,0,0,1-.47,2.46,6.28,6.28,0,0,1-3.2,3,9.08,9.08,0,0,0-3.74,2.67,4.63,4.63,0,0,1-2.31,1.44C507.89,515.35,507.75,515.22,507.91,514.79Z"/><path class="cls-118" d="M533.13,506.45a34.76,34.76,0,0,0,2.66,5,16.13,16.13,0,0,1-1.91-.17c-1.89.06-3.81-.06-5.53,1a5.78,5.78,0,0,1-1.59.49.61.61,0,0,1-.7-.25,6.67,6.67,0,0,0-3.32-2.55,13.05,13.05,0,0,0,5.45-2.77,3.14,3.14,0,0,1,1.38-.47c1.17-.27,1.62-1.54,2.7-1.93.08,0-.2-.27,0-.43a1.74,1.74,0,0,1,.84,1.47C533.25,506.05,533,506.25,533.13,506.45Z"/><path class="cls-118" d="M523.6,489.76l1.06.61c-.4.52-1.09.24-1.64.54.43.46.88-.23,1.22.19a2.06,2.06,0,0,1-1.37.78,6.5,6.5,0,0,0-4.51,3.09.74.74,0,0,1-1.13.32c-.62-.31-.23-.66-.07-1.06a8.72,8.72,0,0,0,.63-4.85,3.1,3.1,0,0,0-2.73-2.4c-.06,0-.09-.09-.06-.13s0-.06.06-.06a6.32,6.32,0,0,1,3.07.95c.33.18.75.8,1.16-.1.14-.31,1,.12,1.47.18a1.57,1.57,0,0,1,.46.16c.2,0,.39.07.69,0a2.16,2.16,0,0,0-1.08-.63c-.75-.64-.37-1.47-.32-2.21,0-.28.52-.51.71-.3s1.17.3.91.84c-.36.77.17,1,.52,1.38.51.53,1.05,1,1,1.85.09.17,0,.3-.11.42C523.23,489.58,523.61,489.62,523.6,489.76Z"/><path class="cls-5" d="M472.93,509.22c-.2,1.46-.4,2.93-.61,4.39-.2.26.1.67-.28.87s-.52-.13-.73-.31a1.6,1.6,0,0,1-.35-.57h0c-.22-.3,0-.68-.18-1s-.24-.81-.33-1.23a3.08,3.08,0,0,0-1.7-2.34c-.29-.19-.26-.62-.57-.79-.58-.3-.12-1.06-.61-1.39a.28.28,0,0,1,0-.4,5.7,5.7,0,0,1,1.38-1c.14-.07.23,0,.3.12s.07.16.08.08a3.35,3.35,0,0,0,0-.63c0-.12,0-.24,0-.36,1.44-1.42,2.39-3.4,4.57-4a.73.73,0,0,1,.2.72,18.4,18.4,0,0,1-.57,3.54,1.37,1.37,0,0,1-.81.52c-.54.3-.75.9-1.18,1.3s-.19.57.06.85C472.08,508.15,472.5,508.69,472.93,509.22Z"/><path class="cls-118" d="M515.26,514c.27,0,.43-.25.65-.31.39-.11.14.17.13.3a6.07,6.07,0,0,1-.5.81,2.5,2.5,0,0,1,.72-.8,2.75,2.75,0,0,0,1.38-.59,1.29,1.29,0,0,1,1.14-.2,5.35,5.35,0,0,0,1.74.09c.34,0,.88-.41,1.11.24s.44,1.23,0,1.7a27.41,27.41,0,0,0-3.4,4,1.67,1.67,0,0,1-.86.46c-.56.19-.57-.09-.36-.49-.55.21-.82-.42-1.29-.42a4.07,4.07,0,0,1-2.63-1.2h0c.4-.74.17-1.7.87-2.35a5.42,5.42,0,0,0,.72-1A3.22,3.22,0,0,0,515.26,514Z"/><path class="cls-118" d="M534.23,515.76c-.17-.45-.71-.42-.74-.86a2.57,2.57,0,0,1,2.64,1.26.83.83,0,0,1-.51,1.15,15.48,15.48,0,0,0-6.82,3.91c-.14.14-.29.27-.44.4s-.12,0-.39.1c.41-1.07,0-2.14,1-3.08.7-.68,1.17-1.65,1.84-2.42a2,2,0,0,1,2.77-.66A4,4,0,0,0,534.23,515.76Z"/><path class="cls-119" d="M506.91,503.07a3.14,3.14,0,0,0-1.69,1.65c-.06.15-.15.37-.26.39-.94.24-1.29,1.25-2,1.64a13.66,13.66,0,0,0-2.89,2.5,6.3,6.3,0,0,1-2.1,1.2c-.36.15-.81.21-.88-.24s.52-.68.74-.63c1.38.26,2.1-.79,2.91-1.48a43,43,0,0,0,4.36-5c1-1.16,1.3-2.65,2.22-3.86s2-1.27,3.14-1.7c.31-.13.4.09.29.39a20,20,0,0,1-2.71,5.25c-.23.33-.79.2-.94.66h0c-.05-.12-.71.24-.24-.29a.76.76,0,0,0,.24-.49,31.92,31.92,0,0,0,2.23-3.52C508.53,500.61,508.16,502.14,506.91,503.07Z"/><path class="cls-5" d="M510.41,531.52c.62,0,1.23-.29,1.6.43.1.19.28.15.44.14a14,14,0,0,1,6.17,1.11c-.77.56-1.14,1.78-2.46,1.62-.53,1.44-1.72.59-2.6.73a.94.94,0,0,1-.81-.25c-.61-1.11-1.9-1.72-2.17-3.07C510.54,532,510.48,531.8,510.41,531.52Z"/><path class="cls-5" d="M546.65,503.35c-1.37-1.58-2.76-3.13-4.24-4.61-.25-.25-.47-.54-.7-.81.39,0,1.06.26.7-.68a5.94,5.94,0,0,0,.23-1.3c0-.3.47-.53.86-.37a3.7,3.7,0,0,1,2.58,2.37c.26,1,1,2,.39,3.19a.36.36,0,0,0,0,.36C547.5,502.4,547.52,502.59,546.65,503.35Z"/><path class="cls-118" d="M527.54,498.94a.38.38,0,0,1,.44.2c.52.82,1.25,1.58.64,2.68-.18.31-.27.67-.43,1-1,2-1.77,2.24-3.69,1a1.6,1.6,0,0,1-.09-2.77,12.83,12.83,0,0,0,2-1.48A4,4,0,0,1,527.54,498.94Z"/><path class="cls-120" d="M473.33,505.06c.2-1.45.4-2.91.59-4.36.2-.28.57-.22.81-.42A34.08,34.08,0,0,1,478,499l2.74-1c.32-.11.65-.36,1-.06-.56,1.47-1.87,2.11-3.12,2.83a15.72,15.72,0,0,0-4.12,3.15c-.38.46-.47,1.2-1.09,1.55A.28.28,0,0,1,473.33,505.06Z"/><path class="cls-118" d="M481.49,508.83a3.61,3.61,0,0,0,2.18.81c.27,0,.72-.06.41.46a7.44,7.44,0,0,1-2.67,2.84,1.32,1.32,0,0,1-2.08-.75,4.78,4.78,0,0,1-.21-3.37c.24-.78,1-.52,1.56-.77C481.11,508.15,481.28,508.51,481.49,508.83Z"/><path class="cls-121" d="M481.69,497.93l-3.75,1.19c-.22.09-.25,0-.21-.19,2.19-.62,3.74-2.22,5.43-3.59A10,10,0,0,1,485,494a1.15,1.15,0,0,0,.49-.55c.32-.6.56-1.19,1.51-1.26.64,0,1.1-.88,1.53-1.46a7.67,7.67,0,0,1,2.52-2.15,21.62,21.62,0,0,0-1,3.17A23.37,23.37,0,0,0,481.69,497.93Z"/><path class="cls-118" d="M496.38,503.87c-.62,1.3-1.23,2.61-1.87,3.9-.08.16-.33.4-.42.37-.91-.32-1.36.43-1.89.85a4,4,0,0,1-3.09,1c-.13,0-.27-.14-.36,0s-.24.6-.63.24a1,1,0,0,1-.25-1c.06-.43.42-.35.7-.35,1.81,0,3.11-1,4.27-2.18S495.29,505,496.38,503.87Z"/><path class="cls-118" d="M498.59,512.66a7.6,7.6,0,0,1-.19,1.85,1.49,1.49,0,0,1-1.45,1.25c-.76,0-.73-.7-.85-1.3-.61.27-.72.93-1.16,1.3-.28.23-.53.52-.95.38s-.33-.5-.41-.82a3.71,3.71,0,0,1,.05-1.37c.15-1.25.62-1.64,1.73-1.32A7.81,7.81,0,0,0,498.59,512.66Z"/><path class="cls-119" d="M505.33,495.33l1.25-1.09c-.57,1.47-.72,3.17-2.5,3.85-1,.38-1.67,1.38-2.87,1.83a25.54,25.54,0,0,1,2.73-5.88c.24-.38.56-.2.88-.11a.58.58,0,0,1,.48.73,5.12,5.12,0,0,1-.19.67,2.34,2.34,0,0,1-.86.85,1.65,1.65,0,0,0-1.37,1.43c-.12.22.1.22,0,.18s0,0,0-.09a3,3,0,0,1,1.42-1.54C504.68,495.94,504.94,495.56,505.33,495.33Z"/><path class="cls-118" d="M525.19,494.53l1.56,2.64c.18.3.39.78-.15.69-1.41-.23-2.2.8-3.21,1.39-.45.26-.66.17-.56-.31.35-1.64.71-3.3,2.17-4.41A.11.11,0,0,1,525.19,494.53Z"/><path class="cls-119" d="M512.09,492.22c-.16,1-.28,1.83-.45,2.7-.07.33-1.61.92-1.91.77s-.15-.33-.07-.5A7.6,7.6,0,0,0,510,492c0-.84.76-.79.84-1.33a1.57,1.57,0,0,1,1.1,1C512,491.86,512.05,492.08,512.09,492.22Z"/><path class="cls-119" d="M534.61,529.35c-.74,1-1.33.34-1.92.12a.38.38,0,0,1,.25-.43c1.28-.45,2.3-1.4,3.59-1.81.53-.17,1.25-.47,1.63.46h-2.1c.55.74,1.42,1.4.9,2.32-.33.59-1.14.28-1.74.19C534.82,530.14,534.29,530.05,534.61,529.35Z"/><path class="cls-119" d="M506.62,487.64c2.55-.39,4.74-1.68,7.33-.67-1.77,0-2.89,1.31-4.38,1.84a1.27,1.27,0,0,1-1.48-.23A12.44,12.44,0,0,0,506.62,487.64Z"/><path class="cls-121" d="M548.31,530.79c.25-.36.6-.42.87-.59s.76-.23.71-.86c0-.34.55-.5.88-.69.69-.39,1.45-.68,1.82-1.46.1-.21.23-.29.47-.17s.21.22.18.46c-.12,1.37-1.1,2.14-2,3A4.3,4.3,0,0,1,548.31,530.79Z"/><path class="cls-119" d="M523.5,484c.6.14,1.07.54,1.53-.15.19-.28.78,0,1.11.16a11.37,11.37,0,0,1,1.53,1.07c.15.12.37.37.17.59s-.36.52-.58.05a4.34,4.34,0,0,0-.86.51c-.14.12-.13.27-.4.38-.7.27-.89,0-1.09-.59C524.64,485.29,523.81,484.91,523.5,484Z"/><path class="cls-119" d="M507.11,510.22c1.28-2.08,1.78-4.63,3.49-6.45l.45.26a12,12,0,0,1-2.78,5.41,5.56,5.56,0,0,0-1,1C507.13,510.47,507,510.43,507.11,510.22Z"/><path class="cls-71" d="M502.57,526.73a18.11,18.11,0,0,1,3.94.58c.05.69-.08,1.06-.9.67a3.93,3.93,0,0,0-2.47-.08,5.38,5.38,0,0,0-1.54.29c-1,.21-1.14.14-1.06-.87A.5.5,0,0,1,501,527C501.51,527,502.1,527.22,502.57,526.73Z"/><path class="cls-119" d="M521.22,505.81a1.22,1.22,0,0,1,.52-.94c.42-.28.58.2.76.41a3,3,0,0,0,1.36.72c.29.12.76.19.78.52s-.45.4-.72.56a4.57,4.57,0,0,1-.65.24C522,507.75,521.27,507.24,521.22,505.81Z"/><path class="cls-119" d="M525.19,494.53H525c.2-.32.72-.36.71-.87,0-.25.22-.28.42-.32a2.49,2.49,0,0,1,2.91,2Z"/><path class="cls-122" d="M538.11,511.62l.19.19a1,1,0,0,1-1.44-.3,10.71,10.71,0,0,1-1.67-2.79c-.1-.23-.37-.57-.07-.8a.59.59,0,0,1,.81.12c.61.42.75,1.14,1.07,1.73A15.62,15.62,0,0,0,538.11,511.62Z"/><path class="cls-123" d="M515.06,500.74a20.72,20.72,0,0,1,1.36-3.41c.19.42-.29.65-.07,1.05.13-.16.23-.31.35-.43s.15-.43.42-.24.33.28.25.49a4.5,4.5,0,0,0-.13,1.46c0,.46-.3.59-.7.65A2.84,2.84,0,0,0,515.06,500.74Z"/><path class="cls-119" d="M501.35,511.22c.29-.47.84-.61,1.23-1s.46.1.67.17.05.32,0,.44a6.42,6.42,0,0,1-2.23,2.37c-.24.15-.35-.06-.45-.23a.31.31,0,0,1-.08-.24,8.67,8.67,0,0,1,.36-.83A2.32,2.32,0,0,1,501.35,511.22Z"/><path class="cls-122" d="M519.83,523.54c-.13-.24.43-.36,0-.73-.63-.58-.24-1,.46-1a11.71,11.71,0,0,0,2.6-.36c-.5.6-.63,1.52-1.74,1.38-.53-.07-.65.77-1.16.94C519.91,523.72,519.89,523.61,519.83,523.54Z"/><path class="cls-124" d="M528.4,532.29c-.31-.32-.07-.39.2-.4a10.71,10.71,0,0,0,1.78-.11c-.75-.58-1.73.33-2.52-.35,1.49-.81,2.89-.44,4.38.15a11.74,11.74,0,0,1-2.48.89C529.32,532.26,528.81,532.66,528.4,532.29Z"/><path class="cls-122" d="M532.62,521a10.22,10.22,0,0,1,2.46-1.61.42.42,0,0,1,.54.09c.1.17-.07.3-.15.44A2.16,2.16,0,0,1,532.62,521Z"/><path class="cls-122" d="M502.64,494l-2.35,3.21C500.06,495.61,500.64,494.8,502.64,494Z"/><path class="cls-122" d="M502.93,491a9.54,9.54,0,0,0-2.37,1.38c-.24.15-.58.54-.85.18s.22-.5.4-.74c.67-.91,1.72-.78,2.63-1C503,490.68,503,490.77,502.93,491Z"/><path class="cls-122" d="M528.37,497.71c-.14-.46-.59-.77-.66-1.28,1.46-.24,1.66-.06,1.65,1.48A.6.6,0,0,1,528.37,497.71Z"/><path class="cls-123" d="M501,517.58c-.26,0-.57,0-.68-.28s.27-.39.44-.55a3.54,3.54,0,0,1,.65-.44c.31-.18.61-.43,1-.27-.18.28,0,.59-.06.86-.16.44-.55.26-.85.26a2.5,2.5,0,0,1-.56-.13c0,.33.26.31.45.35C501.37,517.76,501.17,517.69,501,517.58Z"/><path class="cls-125" d="M513.27,530.66a1.51,1.51,0,0,1-.47.15c-.37,0-.83.64-1.07,0s-.17-1.28.74-1.38c.58.06.64.58.86,1A.3.3,0,0,1,513.27,530.66Z"/><path class="cls-126" d="M506.91,503.07c1.11-1.3,1.76-2.9,2.84-4.22-.74,1.49-1.31,3.08-2.63,4.23Z"/><path class="cls-127" d="M500.56,512.81V513c-.31.31-.51.75-1.08,1,.31-1.25.45-2.45,1.88-2.79a1.1,1.1,0,0,1-.39.79C500.68,512.21,500.72,512.56,500.56,512.81Z"/><path class="cls-128" d="M508.94,528.14c.71,0,1.27.45,1.94.57.13.22-.11.29-.17.43.09.2.34.33.25.79C510.24,529.29,509.13,529.31,508.94,528.14Z"/><path class="cls-129" d="M509.1,518.77l.4.4c.16.32.33.65-.21.8-.37.24-.84.23-1.24.47-.64.36-.51-.59-.93-.68.29-.25.6-.45,1-.2.13.21.26.2.39,0S508.88,519,509.1,518.77Z"/><path class="cls-130" d="M538.11,511.62c-1.33-.83-1.35-2.46-2.18-3.58l.19-.2A20.66,20.66,0,0,1,538.11,511.62Z"/><path class="cls-123" d="M514.16,497.11a6.17,6.17,0,0,1-1,2.81C512.81,498.76,513.83,498,514.16,497.11Z"/><path class="cls-131" d="M510.13,503.92c0-1,.75-1.43,1.25-2.09C511.54,503,511.45,503.12,510.13,503.92Z"/><path class="cls-132" d="M523.4,489.36l.21-.4c.44.21.44-.09.35-.36s-.34-.81-.58-1.34a2.16,2.16,0,0,1,1.21,2.1.68.68,0,0,1-.59.21h-.4A.23.23,0,0,1,523.4,489.36Z"/><path class="cls-133" d="M513.32,489.68c1-.82,1.09-.81,1.41.2.09.3.4.54.24,1C514.52,490.31,514.22,489.59,513.32,489.68Z"/><path class="cls-127" d="M495.78,498.71a5.66,5.66,0,0,1-1,1.71C494.42,499.15,494.54,499,495.78,498.71Z"/><path class="cls-132" d="M504.86,492.33c-.3,1-1.09,1.25-1.74,1.75C503.17,493.3,503.17,493.3,504.86,492.33Z"/><path class="cls-127" d="M528.62,514.83a2.68,2.68,0,0,1-1.1,1.41C527.19,515.24,527.37,515,528.62,514.83Z"/><path class="cls-134" d="M528.37,497.71a1.65,1.65,0,0,0,1,.2v1.7C528.85,498.85,528.3,498.46,528.37,497.71Z"/><path class="cls-135" d="M501.36,521.94c-.73-1-.7-1.18.38-1.78.31.12.55.4.45.67s-.47.11-.75.1c-.51,0-.05.27-.09.42s.1.09.07.13,0,.07-.07.07Z"/><path class="cls-127" d="M495,495.72a.64.64,0,0,0-.4.4c0,.24-.23.3-.4.4-.19.25-.3.58-.7.73-.15-.58-.18-1.11.52-1.2.37,0,.46-.84,1-.32Z"/><path class="cls-132" d="M548.44,516.78c-.32-.39-1-.17-1.2-.79.15-.43.42-.52.8-.28S548.83,516.23,548.44,516.78Z"/><path class="cls-127" d="M495,495.73l1.68-1.51a1.53,1.53,0,0,1-1.67,1.5Z"/><path class="cls-136" d="M516.84,501.43l-2.27.17A1.76,1.76,0,0,1,516.84,501.43Z"/><path class="cls-126" d="M520.83,487.4c.78-.26,1.11.28,1.68,1-.6-.13-1,.19-1.29-.37Z"/><path class="cls-135" d="M517.24,483.61c-.88.28-1.26-.68-2-.79.4-.19.8-.38,1.2,0,.14.23.43.23.6.41l.39.2Z"/><path class="cls-136" d="M520,500.06l.43,1.87-.26.06C519.91,501.38,519.52,500.81,520,500.06Z"/><path class="cls-137" d="M532.73,496.13a3.81,3.81,0,0,1,2.24,1.43l-2.43-1.24Z"/><path class="cls-138" d="M513.27,530.45c-.52-.14-.32-.84-.8-1a.57.57,0,0,1,0-.13c.5.15,1,.5,1.56.23.12-.06.08.18,0,.3C513.94,530.22,513.58,530.31,513.27,530.45Z"/><path class="cls-135" d="M518,505.66l-.78-2.59.2-.2c.6.29.16,1,.59,1.39l.2.4c-.2.16,0,.45-.2.59Z"/><path class="cls-139" d="M535.52,531.48c-.81.39-1.57-.09-2.36-.19h2.76C535.93,531.65,535.74,531.6,535.52,531.48Z"/><path class="cls-140" d="M507.91,514.79a.38.38,0,0,0,.4.41c-.28.16-.55.34-.84.5s-.35.13-.44,0a.69.69,0,0,1,.08-.45c.06-.13.2-.41.32-.24C507.9,515.64,507.66,514.59,507.91,514.79Z"/><path class="cls-123" d="M538.83,522.24c-.12.31-.23.64-.57.76-.19.07-.32-.11-.29-.28.06-.32.18-.64.55-.73C538.71,521.94,538.83,522,538.83,522.24Z"/><path class="cls-141" d="M513.27,530.45a1.33,1.33,0,0,1,.8-.61c.23,0,.48,0,.64.26a5.52,5.52,0,0,1-1.44.56Z"/><path class="cls-133" d="M507,508c-.4-.8.33-1.09.54-1.57A2.47,2.47,0,0,1,507,508Z"/><path class="cls-122" d="M518,504.26c-.54-.32-.22-1-.59-1.39,0-.25-.1-.62.39-.39a.52.52,0,0,1,.2.8C517.69,503.61,518.17,503.93,518,504.26Z"/><path class="cls-136" d="M541.68,516.38c.56.4-.38.8,0,1.2-.21.08-.53.18-.51-.14S541.12,516.54,541.68,516.38Z"/><path class="cls-142" d="M516.26,514A2.49,2.49,0,0,1,515,515.3c.33-.44.47-1,1-1.3Z"/><path class="cls-143" d="M502.93,524.92v.4c-.29.11-.32.59-.74.51a1.47,1.47,0,0,1-.68-.47.32.32,0,0,1,.12-.36c.34-.4.74,0,1.1-.07Z"/><path class="cls-144" d="M537.12,531.09l.19.39c0,.15-.17.25-.2.4a.88.88,0,0,1-.47.48c-.21-.2.24-.52-.13-.68-.12-.23.1-.29.2-.4A.41.41,0,0,1,537.12,531.09Z"/><path class="cls-145" d="M502.74,524.93c-.28.34-.72-.16-1,.19a.55.55,0,0,1-.31-.27.46.46,0,0,1,.12-.52h0Z"/><path class="cls-146" d="M507.71,513.8c0-.47,0-.94.55-1.11a.56.56,0,0,1-.16.72Z"/><path class="cls-146" d="M501,517.58a.43.43,0,0,0,.4-.2l1,.08A1.11,1.11,0,0,1,501,517.58Z"/><path class="cls-147" d="M535.49,532.47c.16,0,.34,0,.28.27a.36.36,0,0,1-.42.3c-.18,0-.34-.11-.31-.29S535.28,532.47,535.49,532.47Z"/><path class="cls-148" d="M536.62,483.48c.15.1.42.08.41.33s-.25.28-.42.31-.14-.22-.19-.33S536.37,483.47,536.62,483.48Z"/><path class="cls-149" d="M512.21,489.9c0,.25-.2.26-.35.22s-.41-.08-.41-.31.2-.23.36-.22A.42.42,0,0,1,512.21,489.9Z"/><path class="cls-150" d="M502.93,491l-.19-.19a2.32,2.32,0,0,1,1.46-.44Z"/><path class="cls-151" d="M507.12,519.37l-.21-.21c-.05,0-.07-.08-.05-.13s0-.06.06-.06c.33,0,.79-.49,1,.2C507.71,519.49,507.46,519.62,507.12,519.37Z"/><path class="cls-152" d="M519.44,536.24l-.38.11a.44.44,0,0,1-.55-.27c0-.08.09-.25.18-.32.25-.17.33.11.46.22a2.47,2.47,0,0,1,.28.28Z"/><path class="cls-153" d="M528.4,532.29c.45.06.94-.18,1.36.18C529.29,532.51,528.76,533,528.4,532.29Z"/><path class="cls-129" d="M506.92,519a1.21,1.21,0,0,0,0,.19c-.09.08-.22.15-.27.25s0,.44-.33.3-.19-.36,0-.54l.4-.4Z"/><path class="cls-154" d="M501.35,521.55v-.2a3,3,0,0,1,1.26.5C502.08,522.09,501.75,521.68,501.35,521.55Z"/><path class="cls-127" d="M536.71,531.28l-.2.4c-.32-.11-.76.37-1-.2a.41.41,0,0,0,.4-.19Z"/><path class="cls-126" d="M507.12,519.37a1.48,1.48,0,0,0,.79-.2c0,.18.4.13.2.39l-1,.2Z"/><path class="cls-155" d="M550,515.39a1.58,1.58,0,0,1,.7.7c-.43.23-.61-.23-.9-.31Z"/><path class="cls-118" d="M513.08,517.57c-.59-.07-.7-.36-.33-1l.32,1Z"/><path class="cls-135" d="M481.49,508.83a2.09,2.09,0,0,1-.81-.78C481.45,507.8,481.45,508.34,481.49,508.83Z"/><path class="cls-156" d="M473.33,505.06l0,.4c-.2.09-.39.64-.62,0A.58.58,0,0,1,473.33,505.06Z"/><path class="cls-126" d="M509.1,518.77c.08.47-.24.65-.6.79.14-.33.27-.66.4-1Z"/><path class="cls-157" d="M538.3,511.82c.23-.14.19-.39.22-.64.42.24.59.48.18.83A.41.41,0,0,1,538.3,511.82Z"/><path class="cls-145" d="M506.89,492.88c.17,0,.22.09.19.22s-.24.29-.42.33a.19.19,0,0,1-.22-.23C506.5,493,506.71,493,506.89,492.88Z"/><path class="cls-134" d="M507.11,510.22l.2.2c-.2.24-.4.49-.61.73l-.17-.13Z"/><path class="cls-140" d="M537,523.42a.5.5,0,0,1-.35.59s-.19-.12-.18-.16A.5.5,0,0,1,537,523.42Z"/><path class="cls-154" d="M504.53,522.34c.29-.31.64-.18,1-.05l-.81.25Z"/><path class="cls-158" d="M530,491.36l-.6-.21c-.12-.1-.45-.11-.19-.4a1.13,1.13,0,0,1,.79.4c.06.05.08.09.06.14S530,491.36,530,491.36Z"/><path class="cls-159" d="M505.33,495.33c-.25.37-.5.74-1,.79h0a2.11,2.11,0,0,1,.78-.79Z"/><path class="cls-150" d="M500.9,500.11c0,.18-.14.31-.33.3a.29.29,0,0,1-.14-.19c.07-.14.14-.33.26-.37S500.89,500,500.9,500.11Z"/><path class="cls-158" d="M505.83,518.33l1.09-.52C506.76,518.2,506.48,518.35,505.83,518.33Z"/><path class="cls-122" d="M518,503.28a1.33,1.33,0,0,0-.2-.8c.7,0,.29.51.36.8,0,0-.05,0-.07,0S518.07,503.29,518,503.28Z"/><path class="cls-160" d="M515.06,486.79V487c-.31,0-.65,0-.72-.42C514.67,486.36,514.78,486.88,515.06,486.79Z"/><path class="cls-145" d="M531,503.11a.62.62,0,0,1,0-.64s.19,0,.22.06C531.37,502.78,531.24,503,531,503.11Z"/><path class="cls-160" d="M533.13,506.45c-.42-.21-.47-.41,0-.6C533.39,506.06,533.4,506.26,533.13,506.45Z"/><path class="cls-161" d="M510.71,529.14c.06-.14.11-.28.17-.43l.8.2c.06,0,.08.08.06.13s0,.06-.06.06Z"/><path class="cls-162" d="M545.85,514.6a.43.43,0,0,1-.44-.51.69.69,0,0,1,.64.3Z"/><path class="cls-159" d="M494.2,496.52a.69.69,0,0,1,.4-.4c.14,0,.35,0,.22.25A.4.4,0,0,1,494.2,496.52Z"/><path class="cls-139" d="M501.35,523.34v-.2c.29,0,.68-.14.81.38C501.82,523.69,501.64,523.24,501.35,523.34Z"/><path class="cls-160" d="M524,489.57c.14-.24.37-.2.59-.21,0,.16,0,.42-.1.45A.45.45,0,0,1,524,489.57Z"/><path class="cls-163" d="M523.4,489.36l.2.2v.2a4.51,4.51,0,0,1-.44-.22c-.1-.06-.29-.14-.19-.26S523.25,489.34,523.4,489.36Z"/><path class="cls-164" d="M539.22,486.49c0,.2-.07.25-.17.22s-.17-.18-.16-.31a.94.94,0,0,1,.1-.23Z"/><path class="cls-151" d="M519.83,523.54l.2.2c-.18.18-.45.45-.62.18S519.79,523.8,519.83,523.54Z"/><path class="cls-118" d="M537.11,531.88c-.3-.31-.06-.36.2-.4h.2A.36.36,0,0,1,537.11,531.88Z"/><path class="cls-165" d="M539.69,495.73l-.42-.42c.1-.14.24-.23.37-.07S539.87,495.55,539.69,495.73Z"/><path class="cls-162" d="M486.2,501.18a1,1,0,0,1-.24.21s-.2,0-.21-.09.12-.2.23-.25S486.15,501,486.2,501.18Z"/><path class="cls-166" d="M517.8,499.35v.81C517.52,499.84,517.72,499.57,517.8,499.35Z"/><path class="cls-134" d="M502.67,512.81a.82.82,0,0,1,.36-.72C503.11,512.43,503,512.6,502.67,512.81Z"/><path class="cls-135" d="M530.47,527.46a.73.73,0,0,1-.26.17c-.1,0-.21-.07-.15-.16a.56.56,0,0,1,.29-.21C530.46,527.21,530.51,527.29,530.47,527.46Z"/><path class="cls-167" d="M517.82,500.84a.33.33,0,0,1,.19.38c0,.1-.11.17-.19.09a.6.6,0,0,1-.15-.32C517.65,500.9,517.7,500.82,517.82,500.84Z"/><path class="cls-168" d="M511.68,529.1v-.19c.25.16.6.12.8.39C512.2,529.28,511.9,529.38,511.68,529.1Z"/><path class="cls-154" d="M515.26,514c-.12.31-.33.34-.6.19C514.83,514,515,513.8,515.26,514Z"/><path class="cls-169" d="M526.78,481.42a1.09,1.09,0,0,0,0-.18l.75.28C527.17,481.66,527,481.64,526.78,481.42Z"/><path class="cls-170" d="M546.65,506.05l.39.59-.2.21c-.28-.21-.17-.52-.19-.8Z"/><path class="cls-171" d="M507.11,503.87c.14,0,.36,0,.22.24s-.16.33-.33.17.07-.27.12-.42Z"/><path class="cls-136" d="M518,505.25c0-.21,0-.45.2-.59C518,504.79,518.86,505.31,518,505.25Z"/><path class="cls-172" d="M549.58,466.92a15.94,15.94,0,0,0-.73-2.67c-.06-.19-.17-.51.1-.6s.4.16.51.38A3.55,3.55,0,0,1,549.58,466.92Z"/><path class="cls-173" d="M542.9,463.87a.8.8,0,0,1-.32,1.17C542.31,464.47,543.1,464.36,542.9,463.87Z"/><path class="cls-174" d="M535.89,466c0,.19-.12.3-.32.27s-.21-.14-.21-.28.1-.35.27-.35S535.89,465.83,535.89,466Z"/><path class="cls-175" d="M537.65,475.91a.57.57,0,0,1-.62-.35C537.38,475.4,537.56,475.52,537.65,475.91Z"/><path class="cls-176" d="M541.1,476.47c-.2,0-.45,0-.59-.19a2.07,2.07,0,0,1,1.13,0C541.52,476.51,541.3,476.44,541.1,476.47Z"/><path class="cls-177" d="M541.09,469.14c0,.14,0,.3-.21.25a.24.24,0,0,1-.14-.19c0-.12,0-.27.19-.23S541,469.09,541.09,469.14Z"/><path class="cls-178" d="M542.41,466.39c-.25-.24-.1-.46-.15-.87A.9.9,0,0,1,542.41,466.39Z"/><path class="cls-5" d="M509.9,455.59a5.58,5.58,0,0,1-.8,3c-.22.27-.56.27-.79.45.14.1.56-.5.6.15a10.72,10.72,0,0,0-.37,1.68c-.3,1.41-1.54,2.17-2.55,3-.67.53-1.2-.45-1.58-1a2.8,2.8,0,0,1,.32-3.08c.41,0,.27.25.27.24a7.07,7.07,0,0,1,.12-2.83,3.29,3.29,0,0,1,.6-1.38,2.79,2.79,0,0,1,1.15-.84,1.83,1.83,0,0,1,1.41-.36c1,.43,1,.48.54,1.22a18.93,18.93,0,0,0-1.65,1.17,18.2,18.2,0,0,1,1.63-1.13C509.14,455.64,509.36,455,509.9,455.59Z"/><path class="cls-179" d="M516.07,452c1,1.7,2.12,3.32,2.35,5.34,0,.17.08.39-.22.55-.54-.64-.45-1.52-.78-2.24a14.08,14.08,0,0,0-1.49-2.65c-.2-.27-.3-.49-.08-.78C515.8,452,515.87,452,516.07,452Z"/><path class="cls-180" d="M512.28,460.76a4.58,4.58,0,0,1-1.77,1.55l1-3.14c.36-.49.75-.45,1,.1A1.82,1.82,0,0,1,512.28,460.76Z"/><path class="cls-179" d="M516.07,452l-.22.22a16.09,16.09,0,0,1-3.29-2.58C514.54,449.6,515.08,451.12,516.07,452Z"/><path class="cls-181" d="M507.1,453.8c.61-.42,1.19-.84,2-.32.56.37,1.16.68,1,1.51-.25.22-.46.07-.67-.06a2,2,0,0,0-1.65-.68C507.49,454.19,507.11,454.27,507.1,453.8Z"/><path class="cls-182" d="M512.28,460.76c0-.56.49-1.15-.17-1.69-.33-.26-.43-.06-.61.1,0-.66.62-1.05.65-1.74A2.74,2.74,0,0,1,512.28,460.76Z"/><path class="cls-183" d="M505.12,457.18a19.87,19.87,0,0,1,0,3.18c-.31-.09-.09-.5-.37-.59C504,458.78,504.74,458,505.12,457.18Z"/><path class="cls-181" d="M506.12,455.2a1.76,1.76,0,0,1,.6-1c.35-.24.75,0,1.12-.1.54,0,1.08,0,1.31.65-.31.33-.56-.08-.85-.06s-.78-.14-1.12.17C506.83,455,506.54,455.31,506.12,455.2Z"/><path class="cls-184" d="M508.31,454.61l.79.19a.29.29,0,0,1,.41,0l.58.19c0,.22.05.46-.19.6-.49-.26-.68.24-1,.39-.08-.05-.19-.07-.2-.19.59-.62.06-.79-.39-1-.07-.05-.09-.09-.07-.13A.1.1,0,0,1,508.31,454.61Z"/><path class="cls-185" d="M514.39,461.69c.1-1.21.86-1.95.9-3.18C515.74,459.9,515.08,460.68,514.39,461.69Z"/><path class="cls-186" d="M506.12,455.2c.33-.13.61-.4,1-.39.12.22-.09.28-.2.39l-1.19.6A.59.59,0,0,1,506.12,455.2Z"/><path class="cls-187" d="M508.91,459.17c-.39-.41-.66.25-1.17.06a3.5,3.5,0,0,1,1.36-.66C509.1,458.79,509.14,459,508.91,459.17Z"/><path class="cls-188" d="M508.13,447.92c.41,0,.85-.2,1.28.18C508.9,448.39,508.52,448.14,508.13,447.92Z"/><path class="cls-189" d="M508.1,448.45c.06.05.2.11.23.2s-.12.19-.22.18-.26-.08-.29-.16S507.92,448.49,508.1,448.45Z"/><path class="cls-190" d="M507.91,454.19l-1.19,0c.13-.14.26-.27.38-.41.21.3.53.17.81.21q.09.06.06.12S507.93,454.19,507.91,454.19Z"/><path class="cls-191" d="M517.44,464.14a1.33,1.33,0,0,1,.61-1c-.13.52-.25.83-.61,1Z"/><path class="cls-192" d="M517.44,464.14c0,.32-.17.53-.53.71a.82.82,0,0,1,.53-.71Z"/><path class="cls-193" d="M511.56,452.73c.18.16.29.3.24.5a.16.16,0,0,1-.15,0C511.52,453.13,511.47,453,511.56,452.73Z"/><path class="cls-194" d="M475.48,469.65a16.24,16.24,0,0,0-.39,4.71c0,1.81.18,3.55,1.66,4.88C473.28,477.53,472.73,473.54,475.48,469.65Z"/><path class="cls-121" d="M481,472.21a35,35,0,0,0-.17,5c0,.31-.19.71-.56.72s-.63-.42-.74-.81A5.4,5.4,0,0,1,481,472.21Z"/><path class="cls-195" d="M480.67,466.43a2.18,2.18,0,0,1,2.44,1.13c.07.16.16.33,0,.42s-.25,0-.34-.1c-.32-.23-.62-.48-.94-.71S481.16,466.75,480.67,466.43Z"/><path class="cls-196" d="M477,474.08A5.15,5.15,0,0,1,478,471c-.16,1.16-.77,2.25-.51,3.46a.28.28,0,0,1-.25,0C477.09,474.41,477,474.23,477,474.08Z"/><path class="cls-197" d="M479.54,468.53c-.15.85-.89,1.11-1.51,1.48-.24.15-.29-.12-.34-.3.07-.57.73-.58,1-1C478.93,468.58,479.2,468.37,479.54,468.53Z"/><path class="cls-198" d="M479.54,468.53c-.27.13-.62.11-.84.36-.18,0-.34.46-.56.05a2.28,2.28,0,0,1,2.53-.62c.05.18,0,.26-.19.21Z"/><path class="cls-199" d="M477.33,474.49l.18,0c.35.27.16.66.2,1s-.06.28-.19.38c-.4-.16-.45-.42-.2-.75A.42.42,0,0,1,477.33,474.49Z"/><path class="cls-200" d="M478.14,468.94c.2.14.37-.09.56-.05-.14.52-.73.47-1,.82C477.36,469.17,477.86,469.12,478.14,468.94Z"/><path class="cls-201" d="M478.67,473.36V475A2.37,2.37,0,0,1,478.67,473.36Z"/><path class="cls-128" d="M477.33,474.49v.61c-.6-.17-.37-.64-.37-1Z"/><path class="cls-202" d="M480.48,468.53l.19-.21c.23.08.42.21.39.48,0,.08-.1.21-.15.2C480.63,469,480.63,468.69,480.48,468.53Z"/><path class="cls-203" d="M484.12,469.85a.51.51,0,0,1-.38-.54s.18-.11.2-.09A.51.51,0,0,1,484.12,469.85Z"/><path class="cls-204" d="M477.17,477.46c-.36-.35-.46-.56-.42-.86C477.06,476.76,477.07,477,477.17,477.46Z"/><path class="cls-205" d="M477.52,475.85l.19-.38a.47.47,0,0,1,0,.79.14.14,0,0,1-.06-.14c0-.05,0-.08.05-.08Z"/><path class="cls-206" d="M477.7,476v.22a.93.93,0,0,1,.13.36c0,.13-.13.11-.2,0A.39.39,0,0,1,477.7,476Z"/><path class="cls-5" d="M472.17,516c.11,4.37,3.14,6.84,6.11,9.35,0,.49-.36.23-.58.2a5.21,5.21,0,0,1-4-2.39c-.09-.15-.14-.27-.33-.31a3.49,3.49,0,0,1-3.07-3.67,8.78,8.78,0,0,0-.64-2.37,3.51,3.51,0,0,1-.15-2.41c.1-.29.17-.62.56-.55a.59.59,0,0,1,.44.68,4.2,4.2,0,0,1-.18,1.06c-.12.47,0,.76.61.9a2.78,2.78,0,0,1-.19-1.46c.29-.13.37.15.52.27A2.6,2.6,0,0,0,472.17,516Z"/><path class="cls-121" d="M501,527.11l-.41.21a.87.87,0,0,0-1.22-.07,13.51,13.51,0,0,1-2.55,1c-.86.34-1.59-.16-2.51-.25a19.34,19.34,0,0,1,3.52-1.12c.34-.09.72-.09,1-.41a1.55,1.55,0,0,1,1.7-.17,1.47,1.47,0,0,1,.43.39C501,526.85,501,527,501,527.11Z"/><path class="cls-121" d="M485.27,524.92c.32-.4.59,0,.86.07.58.21,1.15.47,1.72.71,0,1.58-.15,1.69-1.62,1a.25.25,0,0,1,0-.14c-.12-.06-.07.11-.15.11l-.45-.17c-1.08-.4-1.08-.43-.31-1.23C485.41,525.16,485.44,525,485.27,524.92Z"/><path class="cls-207" d="M500.55,526.55a4.55,4.55,0,0,0-1.8,0l-.77-.2c-.48-.43-.17-.58.25-.68a3,3,0,0,1,1,0,4.38,4.38,0,0,0,1.72-.8.51.51,0,0,1,.56.1l.19.2-.19.2a1.26,1.26,0,0,1-.1.33c0,.3.23.54.15.84a.46.46,0,0,1-.21.18A.9.9,0,0,1,500.55,526.55Z"/><path class="cls-208" d="M472.17,516c-.62.27-.74-.28-1-.59-.1-.26,0-.56-.21-.8a.89.89,0,0,1,0-1,.69.69,0,0,1,.4.4,3.83,3.83,0,0,0,.39.51c.19.2.13-.07.19-.11.33-.16.09-.6.38-.79A6.37,6.37,0,0,1,472.17,516Z"/><path class="cls-137" d="M498.17,525.72c-.31.11-.36.32-.19.59-.48,0-.68-.11-.4-.59-.43-.79-1.51-1.15-1.58-2.5.79.93,1.14,2,2.17,2.3.07.05.09.09.07.13S498.2,525.72,498.17,525.72Z"/><path class="cls-209" d="M477.73,498.93l.21.19a14.17,14.17,0,0,1-3.21,1.16C475.56,499.46,476.72,499.35,477.73,498.93Z"/><path class="cls-210" d="M509.5,481.82c.46.48,1.31-.1,1.7.58h-1.9C509.31,482.19,509.27,482,509.5,481.82Z"/><path class="cls-69" d="M467.59,506.46c0,.13,0,.26,0,.4-.25.12-.11.42-.28.61C466.75,506.93,467.07,506.67,467.59,506.46Z"/><path class="cls-211" d="M493.19,526.52h2A2.4,2.4,0,0,1,493.19,526.52Z"/><path class="cls-153" d="M469.18,505.67l-.21-.22a.72.72,0,0,1,.38-.79l.23.18C469.36,505.07,469.69,505.57,469.18,505.67Z"/><path class="cls-212" d="M468.18,508.25c0-.22.09-.48.29-.14a4,4,0,0,1,.28.93h-.36c-.32-.2,0-.59-.22-.81Z"/><path class="cls-213" d="M471,514.6c.42.18.41.46.21.8l-.39-.38Z"/><path class="cls-145" d="M512.88,482.42v-.2l1,.29C513.39,482.62,513.12,482.71,512.88,482.42Z"/><path class="cls-148" d="M468.17,508.23c.31.21.17.54.22.81C468,509,468,509,468.17,508.23Z"/><path class="cls-214" d="M477.7,525.54c.2,0,.45,0,.58-.2a.59.59,0,0,1,.42.39C478.36,525.69,478,525.83,477.7,525.54Z"/><path class="cls-215" d="M486,526.7c.06-.23-.09-.51.22-.72.3.27-.1.51,0,.75A1.25,1.25,0,0,1,486,526.7Z"/><path class="cls-208" d="M470.78,512.61c.3.29.14.66.18,1C470.66,513.31,470.79,513,470.78,512.61Z"/><path class="cls-216" d="M517.05,483.21c-.26,0-.57,0-.6-.41A.64.64,0,0,1,517.05,483.21Z"/><path class="cls-217" d="M561.36,491.38c.12-.21.23-.67.44-.47s.19.77-.24,1C561.35,491.81,561.54,491.53,561.36,491.38Z"/><path class="cls-218" d="M567.05,491.73c-.15-.25-.45-.49-.12-.86C567.26,491.13,567,491.45,567.05,491.73Z"/><path class="cls-219" d="M558.05,500.78a.44.44,0,0,1-.69.07.17.17,0,0,1,0-.15A.48.48,0,0,1,558.05,500.78Z"/><path class="cls-220" d="M560.6,501.28l-.43.23-.4,0C560,501.21,560.24,501,560.6,501.28Z"/><path class="cls-221" d="M561.36,491.38c.23.13.18.37.2.58s0,.41-.19.06A1.71,1.71,0,0,1,561.36,491.38Z"/><path class="cls-222" d="M459,473.07c0-.19,0-.38.05-.57l.16,0c0,.2,0,.39,0,.59s-.05.24-.09.25S459.06,473.16,459,473.07Z"/><path class="cls-223" d="M576,484l-.18-.4c-.26-.28.11-.69-.21-.95s-.13-.82-.19-1.29C576.29,482.15,576,483.1,576,484Z"/><path class="cls-224" d="M573.29,475.64a1.76,1.76,0,0,1,.63,1.69c-.29-.49-.57-1-.85-1.47C573,475.66,573.09,475.58,573.29,475.64Z"/><path class="cls-225" d="M573.29,475.64l-.22.22-.52-.42C572.84,475.42,573.18,475.17,573.29,475.64Z"/><path class="cls-7" d="M575.63,482.64c.06-.06.08-.44.2-.08a3.94,3.94,0,0,1,0,1h-.17C575.66,483.28,575.65,483,575.63,482.64Z"/><path class="cls-226" d="M576.18,491.44c-.22-.28-.09-.49-.13-.82A.76.76,0,0,1,576.18,491.44Z"/><path class="cls-227" d="M504.5,440.08l-.58-.36a6.4,6.4,0,0,1,.76,0c.13,0,.36.07.25.27S504.65,440.06,504.5,440.08Z"/><path class="cls-39" d="M553.58,453.82a1.73,1.73,0,0,1-.31-.22c-.16-.2-.42-.46-.13-.66s.42.18.58.36a1,1,0,0,1,.12.26C553.88,453.78,553.79,453.85,553.58,453.82Z"/><path class="cls-228" d="M553.58,453.82l.26-.26c.31.18.26.46.21.75C553.71,454.32,553.76,454,553.58,453.82Z"/><path class="cls-37" d="M530.74,448.63l.21.2c-.25.16-.45.41-.79.41C530.17,448.86,530.48,448.77,530.74,448.63Z"/><path class="cls-229" d="M534.73,500.28c.2-.6-.54-1.32.21-1.92.35.36,0,.91.4,1.2.46-.22.31-.68.44-1a.32.32,0,0,1,.12.46c-.3.72.07,1.13.64,1.41,1,.47,1.06,1.51,1.57,2.27.07,0,.15.15.21.09s0-.19,0-.29l-.21-.78c-.08-.21,0-.25.2-.2a1.32,1.32,0,0,0,.6.59,2.41,2.41,0,0,1,0,1.59c0,.25-.09.51-.35.52s-.57-.31-.68-.61a4.29,4.29,0,0,0-1.39-2.22,4.61,4.61,0,0,1-1.36-1.28C535,500.12,535,500.42,534.73,500.28Z"/><path class="cls-210" d="M536.32,503.27c.64.43.54,1.19.77,1.8,0,.1,0,.3-.17.28s-.3-.3-.41-.48C535.6,504.38,535.53,503.8,536.32,503.27Z"/><path class="cls-154" d="M536.32,503.27c-.82.64-.23,1.11.19,1.6-.39.45.31.74.17,1.14-1-1-1.11-1.34-.89-3.54C536.05,502.7,535.76,503.27,536.32,503.27Z"/><path class="cls-230" d="M544.65,512.4c.41-.48.77-1.12,1.44-.23.14.18.55.3.34.54a.6.6,0,0,1-.87-.05c-.5-1-.46.19-.7.15S544.54,512.63,544.65,512.4Z"/><path class="cls-137" d="M538.9,503.67v-1.59a2.47,2.47,0,0,1,1.19,2.18c.06.24.3.54-.19.6a7.38,7.38,0,0,0-.64-2.05C539,503.07,539.23,503.5,538.9,503.67Z"/><path class="cls-231" d="M544.06,511.61c-.77-.62-.32-1.43-.36-2.19.21.49,0,1.16.82,1.29.18,0,.23.44-.15.44s-.26.27-.31.47Z"/><path class="cls-155" d="M536.63,499.13c-.46-.66-.18-1.38-.19-2.06A2,2,0,0,1,536.63,499.13Z"/><path class="cls-154" d="M544.65,512.4l.21.41c-.67.63-.78,0-.91-.44-.07-.22.07-.5.11-.76h0C544.35,511.81,544.24,512.31,544.65,512.4Z"/><path class="cls-232" d="M534.73,500.28c.18,0,.13-.39.39-.2a14.28,14.28,0,0,0,.16,2.35C534.86,501.77,535,501,534.73,500.28Z"/><path class="cls-154" d="M539.57,501.92a1.93,1.93,0,0,1-1.29-1.13A3.54,3.54,0,0,1,539.57,501.92Z"/><path class="cls-233" d="M539.9,504.86c.23-.15.18-.38.19-.6a2.25,2.25,0,0,1,0,2h0A4.1,4.1,0,0,0,539.9,504.86Z"/><path class="cls-167" d="M543.87,507.25c.29-.07.44.46.79.19.07.05.09.09.07.14a.1.1,0,0,1-.07.06c-.66.69-.76,0-1-.4C543.74,507.15,543.8,507.15,543.87,507.25Z"/><path class="cls-143" d="M544,502.39a1.07,1.07,0,0,1,.62,1.25C544.4,503.21,544.26,502.92,544,502.39Z"/><path class="cls-142" d="M538.57,505.71a3.18,3.18,0,0,1,.22.36c.07.17.06.32-.16.35s-.27,0-.26-.19A2.6,2.6,0,0,1,538.57,505.71Z"/><path class="cls-234" d="M546.65,506.05c-.36-.2-.52-.46-.29-.86.4.2.25.56.29.86Z"/><path class="cls-235" d="M543.06,509.79c0,.11,0,.29-.15.26s-.17-.16-.2-.27,0-.26.17-.26S543.05,509.67,543.06,509.79Z"/><path class="cls-145" d="M538.31,502.47c.26.16.16.45.33.72-.41,0-.41-.33-.53-.52Z"/><path class="cls-134" d="M530,491.36v-.21c.24.15.49.29.54.66C530.19,491.78,530.08,491.57,530,491.36Z"/><path class="cls-166" d="M538.3,501.49l-.2.2a.77.77,0,0,1-.32-.65C538.09,501,538.18,501.29,538.3,501.49Z"/><path class="cls-135" d="M544.66,509.6c-.08-.11-.15-.18-.16-.25s0-.26.21-.21.11.14.11.22S544.73,509.49,544.66,509.6Z"/><path class="cls-140" d="M540.09,506.25a.8.8,0,0,1-.84.33.9.9,0,0,1,.84-.33Z"/><path class="cls-145" d="M537.37,507.39a.52.52,0,0,1-.37-.62C537.3,506.89,537.36,507.09,537.37,507.39Z"/><path class="cls-154" d="M543.87,507.25h-.2l-.27-.35c.07,0,.17-.14.22-.12C543.82,506.85,543.85,507.05,543.87,507.25Z"/><path class="cls-142" d="M544.66,507.64v-.2c.11-.1.23-.21.35-.3s.11.07.11.1A.43.43,0,0,1,544.66,507.64Z"/><path class="cls-134" d="M534.16,495.17c.15-.11.21-.18.23-.17a.86.86,0,0,1,.26.24c.05.1,0,.2-.14.13A2.57,2.57,0,0,1,534.16,495.17Z"/><path class="cls-231" d="M546.24,514a.69.69,0,0,1-.12-.19c0-.11.06-.19.15-.15a.29.29,0,0,1,.15.19C546.44,514,546.4,514.07,546.24,514Z"/><path class="cls-155" d="M486.06,523.54c0-.17.05-.38.28-.21a8.49,8.49,0,0,0,2.33,1,4.48,4.48,0,0,1-2.61-.76Z"/><path class="cls-6" d="M501.55,524.92H501c-.13-.14-.22-.32-.4-.4l-.61-.6a.12.12,0,0,1,.21,0l1.39.4Z"/><path class="cls-130" d="M500.23,522.6c-.29-.25-.33-.26-.34-.29-.12-.38-.45-.73-.23-1.17,0,0,.19,0,.25,0C500.38,521.51,500.06,522,500.23,522.6Z"/><path class="cls-158" d="M500.56,524.53a.37.37,0,0,1,.4.4c-.38.58-1,.61-1.6.79-.06-.05-.09-.09-.06-.13s0-.07.07-.07C499.67,525.08,500.61,525.4,500.56,524.53Z"/><path class="cls-145" d="M480.3,519.57c.11.24.41.12.62.32l-1.68.23c.1-.54.69-.2.85-.56A.13.13,0,0,1,480.3,519.57Z"/><path class="cls-236" d="M481.24,519.14c-.53,0-.89.14-1.18-.17C480.52,518.82,480.52,518.82,481.24,519.14Z"/><path class="cls-210" d="M499.37,525.52a1.34,1.34,0,0,1,0,.2h-1.19v-.2C498.57,524.94,499,525.51,499.37,525.52Z"/><path class="cls-155" d="M487.14,517.9c-.12-.34,0-.52.2-.63a.3.3,0,0,1,.22.09C487.55,517.61,487.5,517.85,487.14,517.9Z"/><path class="cls-234" d="M475.61,518.67s.06-.54.43-.27c.06.05.14.21.12.24C475.93,518.92,475.62,518.67,475.61,518.67Z"/><path class="cls-134" d="M483.08,520c.38-.65.68,0,1.22.06-.53.19-.92-.18-1.22.14-.07,0-.1-.09-.07-.14S483.05,520,483.08,520Z"/><path class="cls-236" d="M483.08,520v.2h-.94C482.46,519.59,482.78,519.84,483.08,520Z"/><path class="cls-166" d="M480.3,519.57h-.21c-.09,0-.22,0-.28,0-.25-.18,0-.16.09-.16h1C480.74,519.68,480.49,519.51,480.3,519.57Z"/><path class="cls-126" d="M474.93,519.76c-.44.06-.66-.17-.77-.76a1.87,1.87,0,0,1,.77.76Z"/><path class="cls-158" d="M474.94,518.85c-.35,0-.56-.1-.69-.39C474.6,518.31,474.76,518.47,474.94,518.85Z"/><path class="cls-150" d="M494.79,519a1.4,1.4,0,0,1,.6,1A1.47,1.47,0,0,1,494.79,519Z"/><path class="cls-236" d="M476.36,520c-.14-.09-.26-.13-.28-.2-.07-.25.17-.23.29-.31s.23,0,.21.09A1.89,1.89,0,0,1,476.36,520Z"/><path class="cls-230" d="M474.93,519.76c.25,0,.52,0,.66.25,0,0-.1.16-.17.18-.39.12-.34-.27-.49-.43Z"/><path class="cls-154" d="M500.16,523.93H500a1.17,1.17,0,0,1-.61-.75A1.79,1.79,0,0,1,500.16,523.93Z"/><path class="cls-162" d="M486.06,523.53c-.31.34-.41,0-.63-.18.34-.15.43.17.63.19Z"/><path class="cls-135" d="M473.58,517.29a.26.26,0,0,1,.29.22c0,.12,0,.18-.16.13a.44.44,0,0,1-.22-.15S473.55,517.35,473.58,517.29Z"/><path class="cls-145" d="M473.24,516.43c.1.06.25.11.3.21s-.09.14-.15.11a1.3,1.3,0,0,1-.31-.21Z"/><path class="cls-145" d="M501.55,526.51c0-.34-.65-.55-.2-1a4.26,4.26,0,0,1,.8.2l.79-.4c-.29.44.37.46.34.79a2.7,2.7,0,0,0-.93.6C502.05,526.78,501.74,526.88,501.55,526.51Z"/><path class="cls-166" d="M510.09,520.56c-.31.21-.76.17-1,.5.44.23.78,0,1.16-.08-.62.82-1.79.26-2.52.86l1.62-1.48C509.6,520.29,510,519.94,510.09,520.56Z"/><path class="cls-237" d="M501.55,526.51l.8.2.22,0c-.31,1.13-1,.43-1.62.38l-.18-.2c-.1-.34.15-.28.33-.26a.52.52,0,0,0,.45-.11Z"/><path class="cls-145" d="M510.09,520.56c-.2-.34-.57,0-.79-.2V520c.3-.21.18-.53.21-.8C510.33,519.36,510.29,519.92,510.09,520.56Z"/><path class="cls-150" d="M506.58,522.21c.14-.42.29-.56.62-.63C507.14,521.9,507,522,506.58,522.21Z"/><path class="cls-160" d="M504.1,486.91a3.64,3.64,0,0,1-.33.2s-.16-.11-.16-.17a.22.22,0,0,1,.24-.23C503.92,486.71,504,486.81,504.1,486.91Z"/><path class="cls-150" d="M504.65,486.05a1,1,0,0,1-.21.11c-.09,0-.2,0-.15-.15a.33.33,0,0,1,.21-.15C504.6,485.83,504.66,485.91,504.65,486.05Z"/><path class="cls-238" d="M515.19,509.53c-.06.05-.13.17-.23.21s-.27,0-.22-.19a.51.51,0,0,1,.26-.24C515.1,509.26,515.17,509.36,515.19,509.53Z"/><path class="cls-239" d="M471.94,514.4c.09.22.35.41.07.73a2.62,2.62,0,0,1-.65-1.13Z"/><path class="cls-240" d="M469.18,505.67c.3-.2.07-.65.4-.83a1.51,1.51,0,0,1-.4,1.4Z"/><path class="cls-126" d="M516.56,514.76c-.48.75-.69,1.74-1.8,1.89C515.44,516.09,515.75,515.2,516.56,514.76Z"/><path class="cls-159" d="M514,516.52a.57.57,0,0,1,.36-.61C514.51,516.25,514.19,516.31,514,516.52Z"/><path class="cls-160" d="M535.64,516.27c0,.14,0,.24-.14.21s-.12-.12-.15-.2.06-.11.09-.16Z"/><path class="cls-210" d="M504.33,496.12a13.68,13.68,0,0,0-1.74,2.38c.12-2,.33-2.28,1.74-2.38Z"/><path class="cls-151" d="M500.56,512.81c0-.6.06-.65.4-.8A1.11,1.11,0,0,1,500.56,512.81Z"/><path class="cls-119" d="M502.15,525.72c-.33.17-.61.2-.8-.2l.2-.2A.62.62,0,0,1,502.15,525.72Z"/><path class="cls-241" d="M508.7,455.79l.2.19c-.82.39-1.43,1.08-2.22,1.51A4.7,4.7,0,0,1,508.7,455.79Z"/><path class="cls-242" d="M506.91,455.2l.2-.39c.35-.38.8-.14,1.2-.2v.19C507.76,454.66,507.36,455,506.91,455.2Z"/><path class="cls-243" d="M507.91,454.19V454a1.59,1.59,0,0,1,1.6.79h-.41A1.36,1.36,0,0,0,507.91,454.19Z"/><path class="cls-80" d="M472,520.77a3.41,3.41,0,0,1,1.06,1.46A1.46,1.46,0,0,1,472,520.77Z"/><path class="cls-244" d="M471.55,521.36a1.76,1.76,0,0,1-.62-1.09A1.13,1.13,0,0,1,471.55,521.36Z"/><path class="cls-65" d="M471.76,519.58c.42,0,.6.27.56.8Z"/><path class="cls-245" d="M501.55,526.54c0,.64-.64,0-.78.37a.38.38,0,0,1-.22-.36Z"/></g></g></svg>