<?xml version="1.0" encoding="UTF-8"?><svg xmlns="http://www.w3.org/2000/svg" viewBox="0 0 242.78 43.51"><defs><style>.d{fill:#f9b438;}.e{fill:#ef9d26;}.f{fill:#ed8db4;}.g{fill:#e4c9c5;}.h{fill:#e8f0f3;}.i{fill:#fff;}.j{fill:#fcc670;}.k{fill:#e74041;}.l{fill:#e5cac6;}.m{fill:#b76b18;}.n{fill:#e29734;}.o{fill:#d5d5d5;}.p{fill:#2382a1;}.q{fill:#1d1e1c;}.r{fill:#1d1d1b;}.s{fill:#30211f;}.t{fill:#593e39;}.u{fill:#4c4f4f;}</style></defs><g id="a"/><g id="b"><g id="c"><path class="p" d="M218.69,12.31l-5.62,25.03c-.24,.89-.4,1.81-.47,2.73,.01,.46,.12,.91,.32,1.33-1.44,.69-3.01,1.08-4.61,1.13-.86,0-1.3-.31-1.3-.93,.11-.93,.27-1.84,.5-2.75l5.93-26.53h-3.46c-3.43-.05-6.85,.28-10.21,1,.55-1.96,1.29-3.19,2.22-3.68,.93-.49,2.96-.73,6.1-.73h16.87c4.53,0,7.53-1.46,9-4.37,.58,.87,.87,1.57,.87,2.1,0,1.92-1.33,3.47-4,4.63-1.6,.7-4.65,1.04-9.15,1.04h-2.98Z"/><path class="p" d="M25.17,34.48c0,3.84,1.83,5.75,5.48,5.75,3.17,0,6.66-1.34,10.48-4.02,4.03-2.9,7.52-6.48,10.31-10.58l1.88,.92c-2.84,4.75-6.69,8.81-11.27,11.91-4.62,3.15-9,4.72-13.14,4.72-2.67,0-4.76-.76-6.29-2.28-1.53-1.52-2.3-3.6-2.31-6.24-.02-1.83,.34-3.64,1.06-5.32,.72-1.68,1.79-3.19,3.13-4.44,1.33-1.32,2.9-2.36,4.64-3.06,1.74-.7,3.59-1.04,5.47-1.01,1.9,0,3.42,.43,4.57,1.28,.55,.39,.99,.9,1.29,1.5,.3,.6,.45,1.26,.43,1.93,0,2.35-1.59,4.43-4.77,6.23-3.18,1.81-6.83,2.71-10.95,2.72Zm.18-1.89c3.08-.14,5.72-.92,7.92-2.35,2.2-1.43,3.31-3.07,3.31-4.95,0-1.68-.84-2.51-2.52-2.51-2.01,0-3.86,.95-5.55,2.86-1.72,1.95-2.82,4.37-3.16,6.94Z"/><path class="p" d="M71.71,26.63c-3.05,5.15-6.12,9.2-9.2,12.13-3.08,2.93-5.8,4.4-8.18,4.4-.78,.03-1.57-.12-2.29-.42-.72-.31-1.37-.77-1.89-1.36-1.07-1.19-1.6-2.74-1.6-4.65,.06-1.54,.28-3.07,.66-4.57l4.4-19.71c-.5,.07-1,.11-1.5,.12-3.39,0-5.09-1.26-5.09-3.78v-.45c1.87,.91,3.92,1.37,6,1.34,2.04,.05,4.06-.46,5.84-1.48l-5.13,23.67c-.36,1.44-.59,2.91-.69,4.4,0,2.22,.91,3.33,2.74,3.33s3.55-.89,5.34-2.67c1.79-1.78,4.72-5.56,8.8-11.36l1.79,1.07Z"/><path class="p" d="M131.52,41.55c.37-1.23,.54-2.52,.52-3.8,0-3.49-.48-6.97-1.44-10.33-.96-3.39-2.13-5.77-3.52-7.14,1-.44,2.08-.7,3.17-.76,1.49,0,2.76,1.56,3.8,4.67,1.04,3.11,1.76,7.47,2.15,13.07,2.01-2.3,3.76-4.83,5.2-7.52,1.42-2.67,2.13-4.75,2.13-6.26v-.61c.89-.33,1.82-.53,2.77-.6,1.21,0,1.81,.41,1.81,1.23,0,.27-.24,1.62-.73,4.06-.11,.6-.2,1.12-.25,1.58l-.12,1.26c-.1,.98-.14,2.08-.14,3.3,0,3.46,.89,5.19,2.66,5.18,1.63,0,3.07-1.26,4.31-3.77,1.29-2.72,1.93-5.7,1.86-8.7,0-2.34-.66-3.74-1.97-4.21,1.26-.87,2.42-1.3,3.49-1.3,1.67,0,2.51,1.15,2.51,3.45,0,3.38-1.33,7.28-4,11.71-2.33,3.86-4.9,5.79-7.69,5.79-3.16,0-4.74-2.37-4.73-7.12l.14-4.33c-1.37,2.85-3.06,5.53-5.05,8-.82,1.03-1.88,1.85-3.07,2.4-1.2,.55-2.5,.82-3.82,.78Z"/><path class="p" d="M165.11,33.42c0,3.61,1.72,5.42,5.17,5.43,2.99,0,6.28-1.27,9.88-3.8,3.81-2.74,7.1-6.12,9.74-9.99l1.77,.87c-2.68,4.48-6.31,8.31-10.63,11.24-4.36,2.97-8.49,4.45-12.4,4.45-2.5,0-4.48-.72-5.93-2.15-1.45-1.43-2.18-3.39-2.18-5.88-.02-1.72,.32-3.43,1-5.02,.68-1.58,1.68-3.01,2.95-4.18,1.25-1.24,2.74-2.22,4.38-2.87,1.64-.66,3.39-.98,5.15-.95,1.79,0,3.23,.4,4.31,1.2,.51,.37,.92,.85,1.2,1.41,.28,.56,.41,1.19,.4,1.81,0,2.21-1.5,4.18-4.49,5.88-3.16,1.74-6.72,2.62-10.32,2.55Zm.17-1.78c2.65-.06,5.23-.82,7.48-2.22,2.08-1.35,3.12-2.9,3.12-4.67,0-1.58-.8-2.37-2.4-2.37-1.89,0-3.64,.9-5.23,2.7-1.61,1.84-2.64,4.12-2.96,6.55Z"/><path class="p" d="M189.1,33.42c0,3.61,1.72,5.42,5.17,5.43,2.99,0,6.28-1.27,9.88-3.8,3.81-2.74,7.1-6.12,9.74-9.99l1.78,.87c-2.68,4.48-6.31,8.31-10.63,11.24-4.36,2.97-8.49,4.45-12.4,4.45-2.5,0-4.48-.72-5.93-2.15-1.45-1.43-2.18-3.4-2.18-5.88-.02-1.72,.32-3.43,1-5.02,.68-1.58,1.68-3.01,2.95-4.18,1.25-1.24,2.74-2.22,4.38-2.87,1.63-.66,3.39-.98,5.15-.95,1.79,0,3.23,.4,4.31,1.2,.51,.37,.92,.85,1.2,1.41,.28,.56,.42,1.19,.4,1.81,0,2.21-1.5,4.18-4.49,5.88-3.16,1.74-6.71,2.62-10.32,2.55Zm.17-1.78c2.65-.06,5.23-.82,7.48-2.22,2.08-1.35,3.12-2.9,3.12-4.67,0-1.58-.8-2.37-2.4-2.37-1.89,0-3.64,.9-5.23,2.7-1.61,1.84-2.64,4.12-2.96,6.55Z"/><path class="p" d="M9.61,25.3l-3.05,13.59c-.2,.79-.33,1.6-.4,2.42,0,.42,.11,.83,.29,1.2-1.28,.62-2.67,.96-4.09,1-.77,0-1.15-.27-1.15-.82,.09-.82,.24-1.64,.44-2.44l3.34-14.93h-.33c-1.47,.03-2.92,.31-4.29,.84,.72-1.39,1.36-2.28,1.91-2.68,.56-.4,1.43-.6,2.64-.6h.6l2.65-11.77h-.5c-3.21,0-5.77,.78-7.67,2.34,.58-2.07,1.57-3.46,2.98-4.15,1-.48,4.12-.72,9.33-.73h5.81c4.33,0,7.93-.34,10.79-1.02-.92,1.43-1.87,2.39-2.86,2.86-.99,.48-2.52,.72-4.59,.72l-1.95-.02h-6.74l-2.63,11.77h4.78c2.96,0,5.41-.33,7.34-1-.71,1.48-1.52,2.43-2.44,2.83-.92,.4-2.73,.61-5.43,.61l-4.78-.02Z"/><path class="i" d="M15.66,7.81l.17,.05c1.73,.49,3.51,.81,5.3,.97,.94,.09,1.89,.11,2.83,.08,.34,0,.96,.08,.88-.48-.03-.16-.11-.31-.23-.42-.95-1-2.98-1.22-4.28-1.39-.86-.13-1.74-.1-2.59,.08-.39,.09-.76,.22-1.12,.4-.13,.08-.92,.73-.98,.71Z"/><path d="M19.18,6.74c.38,0,.76,.03,1.14,.08h.16c1.25,.16,3.14,.4,4,1.32,.09,.09,.16,.2,.18,.33,0,.03,.01,.06,0,.09,0,.03-.02,.06-.03,.09-.08,.09-.34,.09-.46,.09h-.96c-.66,0-1.36-.03-2.08-.1-1.71-.16-3.41-.47-5.07-.92l.26-.2c.14-.11,.34-.26,.4-.28,.34-.18,.7-.31,1.08-.4,.46-.1,.92-.15,1.39-.15v.05Zm0-.22c-.48,0-.96,.05-1.43,.15-.39,.09-.76,.22-1.12,.4-.13,.07-.9,.69-.97,.69l.17,.05c1.73,.5,3.5,.84,5.29,1.02,.7,.06,1.4,.1,2.1,.1h.96c.33,0,.72-.03,.66-.48-.03-.16-.11-.31-.23-.42-.95-1-2.98-1.22-4.28-1.39-.38-.05-.77-.07-1.16-.08v-.04Z"/><path class="i" d="M23,1.27c-1.23,.53-2.43,1.18-3.63,1.78,.72,.15,1.47,.06,2.12-.27,.66-.32,1.19-.86,1.51-1.52Z"/><path d="M31.8,3.6c-.3-1.13-.97-2.12-1.9-2.82-1.23-.85-2.75-.73-4.12-.44-.25,.06-.5,.12-.74,.19-.7,.2-1.38,.45-2.05,.74-.32,.66-.85,1.19-1.51,1.52-.66,.32-1.41,.42-2.12,.27-.67,.34-1.34,.66-2.02,.95-1.83,.73-3.77,1.14-5.74,1.2-.1,.01-.2,.06-.28,.13-.08,.07-.13,.16-.15,.27-.02,.1,0,.21,.04,.3,.04,.09,.12,.17,.21,.22,.4,.21,.8,.4,1.2,.59,.99,.45,2.01,.82,3.05,1.11,2.21-2.1,6.07-1.16,8.83,.07,.12,.13,.22,.29,.28,.46,.06,.17,.08,.36,.06,.54,1.88-.16,3.63-.62,4.97-1.53,.75-.5,1.38-1.16,1.84-1.94,.28-.56,.34-1.22,.16-1.82Z"/><path d="M24.82,8.97s-.02,0-.03,0c-.01,0-.02-.01-.03-.02,0,0-.02-.02-.02-.03,0-.01,0-.02,0-.03,.02-.17,0-.34-.05-.5-.05-.16-.14-.31-.25-.43-1.82-.8-6.28-2.4-8.72-.08-.01,0-.03,.01-.04,.01s-.03,0-.04-.01c-1.05-.29-2.07-.67-3.07-1.12-.4-.18-.8-.4-1.2-.59-.11-.06-.2-.16-.25-.28-.05-.12-.06-.25-.03-.37,.02-.12,.08-.23,.17-.3,.09-.08,.2-.13,.32-.13,1.96-.06,3.89-.47,5.71-1.2,.99-.4,1.97-.92,2.92-1.4,1.53-.85,3.13-1.54,4.8-2.07,.29-.08,.52-.14,.74-.19,1.16-.25,2.85-.48,4.19,.45,.95,.71,1.63,1.73,1.94,2.87,.18,.63,.12,1.3-.18,1.88-.46,.79-1.1,1.47-1.86,1.97-1.26,.85-2.95,1.37-5.01,1.54v.04Zm-5.63-2.48c2.07,0,4.21,.8,5.34,1.31h.03c.12,.13,.22,.28,.28,.45,.06,.17,.09,.34,.08,.52,2-.18,3.63-.69,4.84-1.51,.74-.49,1.36-1.14,1.81-1.91,.28-.54,.34-1.17,.17-1.75-.3-1.1-.95-2.07-1.86-2.77-1.26-.88-2.83-.69-4.05-.42-.22,.04-.45,.1-.73,.18-1.65,.53-3.25,1.22-4.77,2.06-.95,.49-1.93,.99-2.93,1.41-1.84,.73-3.79,1.14-5.77,1.2-.08,0-.16,.04-.22,.09-.06,.05-.1,.13-.12,.21-.03,.09-.02,.18,.02,.27,.04,.08,.1,.15,.18,.2,.4,.21,.8,.4,1.18,.59,.97,.44,1.97,.8,2.99,1.09,.98-.85,2.25-1.29,3.54-1.22Z"/><path d="M14.5,5.5c.1-.73,1.01-.9-.19-4.12,.1,.28-1.46,1.76-1.73,1.86-.26,.1-3.2,.14-3.13,.28-.51-.51-.89-1.12-1.14-1.79-.22,.44-.45,.87-.72,1.29-.34,.97-.45,2.02-.31,3.04,0,0-.59,1.73,.46,2.61,1.48-.23,2.4-1.6,2.92-3.15,.76,1.02,1.52,2.03,2.57,2.33,.65-.64,1.09-1.46,1.27-2.35Z"/><path d="M7.74,8.75s-.04,0-.06-.02c-1.04-.87-.56-2.48-.49-2.69-.14-1.03-.03-2.08,.32-3.07,.08-.16,.17-.32,.27-.48,.16-.25,.31-.51,.44-.78,0-.02,0-.04,.01-.06s.03-.03,.04-.04c.01,0,.02,0,.03,0,.01,0,.02,0,.03,0,.01,0,.02,.01,.03,.02,0,0,.01,.02,.02,.03,.19,.58,.51,1.1,.94,1.54l.15,.16c.62-.1,1.25-.16,1.87-.16,.53-.03,1.13-.06,1.2-.09,.29-.11,1.71-1.52,1.68-1.74,0-.01,0-.02,0-.03s0-.02,0-.03c0-.01,.01-.02,.02-.03,0,0,.02-.01,.03-.02,.01,0,.02,0,.03,0,.01,0,.02,0,.03,0,.01,0,.02,.01,.03,.02,0,0,.01,.02,.02,.03,.94,2.51,.6,3.2,.35,3.73-.07,.13-.13,.28-.15,.43-.18,.91-.63,1.75-1.3,2.4-.01,.01-.02,.02-.04,.02-.01,0-.03,0-.05,0-1.03-.29-1.79-1.26-2.52-2.23-.45,1.28-1.32,2.8-2.93,3.05h-.01Zm.56-6.79c-.07,.13-.18,.33-.37,.64-.12,.19-.24,.4-.26,.44-.34,.96-.44,1.99-.31,3,0,.01,0,.03,0,.04,0,0-.55,1.65,.4,2.49,1.56-.27,2.4-1.82,2.8-3.08,0-.02,.01-.03,.03-.04,.01-.01,.03-.02,.04-.02,.02,0,.03,0,.04,0s.03,.01,.04,.03c.73,.97,1.48,1.97,2.48,2.28,.61-.62,1.03-1.41,1.2-2.26,.03-.17,.09-.33,.17-.48,.23-.47,.53-1.11-.28-3.37-.47,.65-1.05,1.22-1.7,1.68-.42,.06-.84,.09-1.26,.1-.61,.02-1.23,.07-1.83,.15,0,.01-.02,.02-.03,.03-.02,.01-.04,.01-.07,0-.02,0-.04-.02-.05-.04-.05-.08-.1-.14-.17-.2-.38-.4-.68-.87-.87-1.39h0Z"/><path class="i" d="M10.67,5.52c-.52,1.56-1.44,2.91-2.92,3.15,.42,.32,.93,.49,1.46,.5,.99,.08,1.99-.1,2.89-.52,.42-.2,.8-.47,1.14-.8-1.06-.29-1.83-1.31-2.57-2.32Z"/><path d="M9.61,9.29h-.42c-.55,0-1.09-.19-1.52-.52-.02-.01-.03-.03-.04-.06,0-.02,0-.05,0-.07,0-.02,.02-.04,.04-.06,.02-.02,.04-.03,.06-.03,1.57-.25,2.4-1.8,2.8-3.07,0-.02,.02-.04,.04-.05,.02-.01,.04-.02,.06-.03,.02,0,.04,0,.06,0,.02,0,.04,.02,.05,.04,.74,.98,1.5,2,2.51,2.28,.02,0,.04,.02,.06,.03,.02,.01,.03,.03,.03,.05,0,.02,0,.04,0,.06,0,.02-.02,.04-.03,.06-.34,.33-.74,.6-1.17,.8-.79,.37-1.65,.56-2.51,.55Zm-1.57-.57c.36,.2,.76,.3,1.16,.32,.97,.07,1.95-.1,2.83-.51,.35-.17,.67-.38,.96-.64-.92-.35-1.63-1.23-2.3-2.12-.42,1.2-1.22,2.58-2.66,2.95Z"/><path d="M12.56,8.54l3.95-.06c-.08-.09-.15-.2-.2-.31l-3.75,.37Z"/><path d="M12.57,8.62s-.04,0-.06-.02c-.02-.01-.03-.04-.03-.06,0-.01,0-.02,0-.03,0-.01,0-.02,.02-.03s.02-.02,.03-.02,.02,0,.03,0l3.75-.36s.08,.02,.09,.06c.04,.11,.11,.2,.18,.29,0,.01,.02,.03,.02,.04,0,.02,0,.03,0,.05,0,.01-.02,.03-.03,.04-.01,0-.03,.01-.04,.01l-3.95,.05Zm3.69-.36l-1.63,.16,1.71-.02s-.05-.09-.07-.14h-.01Z"/><path class="i" d="M20.58,7.76l-4.27,.4c.05,.11,.12,.22,.2,.31l4.11-.06h.04s.09-.02,.13-.04c.04-.02,.07-.05,.1-.08,.03-.03,.05-.07,.06-.12,.01-.04,.02-.09,.01-.13,0-.04-.02-.09-.04-.13-.02-.04-.05-.07-.08-.1-.03-.03-.07-.05-.12-.06-.04-.01-.09-.02-.13-.01l-.02,.02Z"/><path d="M16.51,8.57s-.03,0-.04,0-.02-.01-.03-.02c-.09-.1-.16-.22-.22-.34,0-.01,0-.02,0-.04s0-.03,0-.04c0-.01,.02-.02,.03-.03,.01,0,.02,0,.04,0l4.27-.4c.11,0,.22,.03,.31,.1,.04,.03,.08,.08,.11,.13,.03,.05,.04,.1,.05,.16,0,.06,0,.12-.01,.17-.02,.06-.04,.11-.08,.15-.04,.04-.09,.08-.14,.1-.05,.02-.11,.04-.17,.04h-.04l-4.11,.06,.03-.02Zm-.07-.32s.07,.1,.11,.15l4.07-.06s.07-.01,.11-.03c.03-.02,.06-.04,.09-.07,.02-.03,.04-.05,.05-.09,0-.03,.01-.07,0-.1,0-.07-.04-.13-.09-.17-.05-.04-.12-.06-.18-.06l-4.15,.41Z"/><path class="i" d="M13.64,9.37c.22-.22,.52-.67-.19-1.09-.3-.21-.77-.94-1.2,.07-.02,.04-.02,.09,0,.13,.01,.04,.04,.08,.08,.1l.04,.02s0,.02,0,.03,0,.02,0,.03l-.11,.22s0,.01,0,.02c0,0,0,.02,.01,.02,0,0,.01,0,.02,0,0,0,.02,0,.02-.01l.21-.14h.03l.12,.04s0,.02,0,.02,0,.02,0,.02l-.17,.3s0,.01,0,.02c0,0,0,.01,.01,.02,0,0,.01,0,.02,0,0,0,.02,0,.02,0l.26-.2s.02,0,.02,0,.02,0,.02,0l.18,.15s0,.01,0,.02,0,.02,0,.02l-.2,.36s.03,.07,.06,.04l.28-.26s.01,0,.02,0,.02,0,.02,0l.11,.06c.05,.04,.11,.05,.17,.04,.06,0,.12-.04,.16-.09Z"/><path d="M12.88,9.71s-.05,0-.08-.02c-.02-.02-.04-.04-.04-.07,0-.03,0-.06,.01-.08l.18-.32-.12-.1-.22,.18s-.05,.03-.08,.03-.06-.01-.08-.03c-.02-.02-.04-.04-.04-.07,0-.03,0-.06,.02-.08l.14-.24h-.04l-.18,.12s-.05,.03-.07,.03-.05,0-.07-.03c-.02-.02-.03-.04-.04-.07,0-.03,0-.05,.01-.08l.1-.18c-.06-.03-.1-.09-.12-.15-.02-.06-.01-.13,.02-.19,.14-.34,.31-.52,.51-.56,.2-.04,.48,.15,.66,.32,.05,.05,.1,.09,.16,.14,.12,.05,.23,.14,.31,.24,.08,.1,.14,.22,.17,.35,0,.12-.02,.24-.07,.35-.05,.11-.12,.21-.21,.29-.05,.05-.12,.08-.19,.09-.07,.01-.15,0-.21-.04l-.08-.04-.25,.24s-.06,.01-.09,0Zm.33-.45s.04,0,.06,0l.12,.06s.07,.03,.1,.02c.04,0,.07-.02,.09-.05,.07-.06,.13-.13,.17-.22,.04-.08,.06-.18,.06-.27-.03-.1-.08-.2-.15-.28-.07-.08-.16-.14-.25-.18h-.02c-.06-.04-.12-.09-.17-.14-.16-.14-.34-.31-.51-.27-.17,.04-.26,.18-.4,.46,0,.02-.01,.05,0,.07,0,.02,.02,.04,.04,.06l.04,.02s.03,.02,.04,.03c0,.01,.02,.03,.02,.04,0,.02,0,.03,0,.05s0,.03-.02,.04l-.02,.04,.04-.02s.04-.01,.06-.01,.04,0,.06,.01l.12,.04s.03,.02,.04,.03c.01,.01,.02,.03,.03,.05,0,.02,.01,.03,.01,.05s0,.03-.01,.05l-.03,.06,.04-.04s.05-.03,.08-.03,.05,0,.08,.03l.18,.15s.04,.04,.04,.07c0,.03,0,.06,0,.08l-.05,.08,.05-.04s.02-.02,.04-.03c.02,0,.03-.01,.05-.02Z"/><path d="M26.53,8.38s-.03-.08-.05-.12c-.02-.04-.06-.07-.09-.09-.04-.02-.08-.04-.12-.05s-.09,0-.13,0l-1.46,.31-6.4,1.36,6.58-.83,1.42-.18c.09-.02,.16-.07,.21-.15,.05-.07,.07-.17,.05-.25Z"/><path class="i" d="M19.4,10.71c.19-.24,.45-.73-.31-1.06-.32-.18-.87-.84-1.2,.2-.01,.04-.01,.09,0,.13,.02,.04,.05,.07,.09,.09h.04s.02,.01,.02,.02c0,0,0,.02,0,.03l-.09,.23s0,.02,0,.02c0,0,0,.01,.01,.02,0,0,.01,0,.02,0,0,0,.02,0,.02,0l.19-.16s.01,0,.02,0,.01,0,.02,0l.12,.03h.01v.02h.01s0,.02,0,.03l-.14,.31s0,.02,0,.03c0,0,0,.02,.01,.02,0,0,.02,0,.03,0,0,0,.02,0,.02-.01l.23-.23s.01,0,.02,0,.02,0,.02,0l.2,.13s0,.01,0,.02,0,.02,0,.02l-.16,.38s0,.02,0,.02c0,0,0,.01,.02,.02,0,0,.02,0,.02,0,0,0,.02,0,.02-.01l.25-.29s.01,0,.02,0,.01,0,.02,0l.12,.05c.05,.02,.11,.03,.17,.02,.06-.01,.11-.05,.14-.09Z"/><path d="M19.39,10.7c.1-.09,.16-.22,.18-.35,.02-.13-.01-.27-.08-.39-.16-.22-.47-.27-.68-.45-.21-.18-.51-.28-.66-.04-.08,.11-.14,.23-.17,.35-.03,.07-.03,.1,0,.15,0,.02,.02,.04,.04,.05h.04s.04,.02,.05,.04c.01,.02,.02,.04,.02,.06-.02,.08-.04,.15-.07,.22v.01s-.05,0-.05,0l.04-.04c.06-.06,.12-.1,.19-.14,.03-.01,.06-.01,.09,0h.05s.05,.01,.08,.02c.02,.02,.04,.04,.05,.07,0,.03,0,.06,0,.08l-.08,.19-.04,.1v.02s0-.02,0-.04c0,0,0-.01,0-.02,0,0,0,0-.01-.01s-.01,0-.02,0-.01,0-.02,0l.18-.18s.04-.04,.06-.05c.02-.01,.04-.02,.06-.02s.04,0,.06,.02l.17,.12s.08,.07,.06,.12c0,.02-.02,.05-.03,.07l-.04,.09-.09,.19v.05h-.02l.03-.04,.14-.15,.07-.08s.02-.02,.03-.03c.01,0,.02-.01,.04-.01,.02,0,.04,.01,.06,.02,.04,.02,.09,.04,.14,.04,.05,0,.1-.01,.14-.04Zm0,0c-.05,.06-.11,.1-.19,.11-.07,.01-.15,0-.21-.05-.05,0-.04-.03-.06,0l-.06,.08-.12,.16-.04,.04s-.04,.02-.06,.02-.04,0-.06-.02c-.02-.01-.03-.03-.03-.05,0-.02,0-.04,0-.06v-.05l.07-.2s.05-.19,.06-.09l-.18-.1c.09-.03,0,.04-.05,.08l-.11,.11s0,.03-.08,.06c-.03,0-.06,0-.09-.01-.03-.02-.05-.04-.05-.07-.01-.03-.01-.06,0-.08v-.02l.04-.1,.08-.19s-.01,.02-.01,.03,0,.02,.01,.03h-.08l-.14,.11-.04,.03s-.05,.03-.07,.03-.05,0-.07-.03c-.05-.02-.04-.12-.03-.13v-.05s.06-.16,.07-.16c.01,0,0,0-.04,0,0-.03,0-.07,0-.1-.02-.04-.03-.08-.03-.13s0-.09,.03-.13c.04-.14,.11-.28,.2-.4,.04-.06,.11-.11,.18-.14,.07-.03,.15-.03,.22-.02,.15,.04,.28,.11,.4,.2,.2,.19,.49,.26,.66,.5,.08,.12,.11,.27,.08,.42-.02,.14-.09,.28-.2,.37h-.01Z"/><path d="M22.06,13.04c-.73,.04-1.46-.09-2.12-.4-.32-.17-.6-.4-.83-.68-.22-.28-.38-.61-.47-.96-.09-.35-.09-.72,0-1.07,.1-.35,.28-.67,.54-.93,.24-.27,.56-.46,.91-.54,.35-.07,.72,0,1.03,.2,.31,.18,.56,.46,.71,.78,.15,.33,.21,.69,.15,1.05-.04,.17-.12,.34-.23,.48-.11,.14-.26,.25-.42,.32-.33,.15-.7,.2-1.06,.13-.18-.02-.35-.09-.49-.19-.14-.11-.24-.26-.26-.44-.03-.18-.02-.36,.04-.53,.05-.17,.15-.33,.27-.45,.12-.13,.29-.21,.46-.23,.09,0,.17,0,.25,.04s.15,.08,.21,.15c.06,.06,.1,.14,.12,.23,.02,.08,.03,.17,.01,.26-.05,.17-.16,.31-.32,.4l.04,.06c.19-.09,.33-.25,.4-.44,.03-.1,.03-.21,.01-.32-.02-.11-.07-.2-.14-.29-.07-.09-.16-.16-.26-.21s-.22-.07-.33-.07c-.23,.01-.44,.1-.6,.26-.17,.15-.29,.34-.37,.55-.08,.21-.1,.43-.07,.65,.03,.25,.16,.48,.35,.64,.1,.08,.2,.14,.32,.19,.1,.04,.2,.07,.31,.1,.43,.1,.89,.06,1.3-.12,.22-.1,.42-.24,.58-.43,.16-.18,.27-.4,.33-.64,.1-.46,.04-.93-.16-1.35-.19-.42-.49-.77-.88-1.02-.41-.28-.92-.39-1.41-.3-.47,.09-.9,.33-1.23,.69-.33,.32-.57,.73-.7,1.17-.13,.45-.14,.92-.04,1.38,.1,.44,.3,.86,.57,1.22,.28,.36,.63,.66,1.03,.87,.76,.37,1.6,.54,2.44,.5,.79-.03,1.58-.16,2.34-.4,.5-.15,.98-.33,1.46-.53-.1-.18-.26-.35-.4-.54-1.08,.46-2.23,.72-3.4,.78Z"/><path d="M21.98,13.8c-.83,.03-1.65-.15-2.4-.52-.42-.22-.78-.52-1.07-.89-.29-.37-.49-.8-.59-1.26-.1-.47-.09-.96,.04-1.42,.13-.45,.38-.87,.72-1.2,.34-.37,.78-.61,1.27-.71,.51-.09,1.04,.02,1.48,.32,.4,.26,.71,.63,.91,1.06,.21,.44,.26,.94,.16,1.41-.06,.25-.18,.48-.35,.67s-.37,.35-.61,.45c-.42,.19-.9,.23-1.35,.13-.11-.03-.22-.06-.32-.1-.12-.05-.24-.12-.34-.2-.21-.18-.34-.42-.38-.69-.03-.23,0-.47,.08-.69,.08-.22,.22-.42,.39-.58,.18-.17,.42-.27,.66-.28,.13,0,.25,.02,.37,.07,.12,.05,.22,.13,.29,.23,.08,.1,.13,.21,.16,.33,.03,.12,.02,.24-.01,.36-.07,.21-.23,.39-.43,.49-.02,.01-.04,.01-.06,0-.02,0-.04-.02-.05-.04l-.04-.06s-.02-.04-.01-.07c0-.02,.02-.04,.04-.05,.13-.08,.23-.21,.28-.36,.01-.07,0-.15-.01-.22-.02-.07-.06-.13-.11-.19-.05-.05-.11-.1-.18-.12-.07-.03-.14-.04-.21-.03-.15,.02-.29,.09-.4,.2-.12,.12-.2,.26-.25,.42-.05,.16-.06,.32-.04,.49,.02,.16,.1,.3,.23,.4,.14,.1,.29,.16,.46,.18,.34,.06,.69,.02,1-.12,.15-.07,.28-.17,.39-.3,.1-.13,.18-.28,.22-.44,.05-.34,0-.69-.15-1-.15-.31-.39-.57-.68-.75-.28-.18-.63-.25-.96-.18-.34,.07-.64,.25-.87,.51-.25,.25-.42,.56-.51,.89-.09,.34-.1,.69-.01,1.03,.08,.34,.24,.66,.45,.94,.22,.28,.49,.5,.8,.66,.65,.3,1.36,.44,2.08,.4,1.17-.06,2.32-.33,3.39-.8,.02,0,.04,0,.06,0,.02,0,.04,.02,.05,.04,.06,.08,.12,.16,.18,.23,.08,.1,.15,.2,.22,.31,0,.01,0,.02,0,.04s0,.02,0,.04c0,.02-.03,.04-.05,.05-.47,.19-.97,.37-1.47,.53-.77,.24-1.56,.37-2.36,.4h-.09Zm-1.67-5.86c-.1,0-.21,0-.31,.03-.46,.08-.88,.31-1.2,.66-.32,.32-.55,.71-.68,1.14-.12,.43-.14,.89-.04,1.34,.1,.43,.29,.84,.56,1.19,.27,.35,.61,.64,1.01,.84,.72,.35,1.51,.52,2.31,.49h.09c.79-.03,1.56-.16,2.31-.4,.46-.15,.92-.31,1.36-.49-.04-.06-.1-.13-.15-.2l-.14-.19c-1.07,.47-2.22,.74-3.39,.8-.75,.04-1.49-.1-2.16-.42-.33-.17-.63-.41-.86-.7-.23-.29-.4-.63-.49-1-.09-.37-.09-.75,0-1.12,.1-.36,.29-.69,.56-.96,.25-.29,.59-.48,.96-.56,.38-.07,.76,0,1.09,.2,.33,.19,.59,.48,.75,.82,.16,.34,.22,.73,.16,1.1-.04,.19-.13,.36-.25,.51-.12,.15-.27,.27-.45,.35-.35,.16-.74,.21-1.11,.14-.19-.03-.37-.1-.53-.2-.16-.12-.26-.3-.29-.5-.03-.19-.02-.39,.04-.57,.06-.18,.16-.35,.3-.49,.14-.14,.32-.23,.52-.25,.1,0,.2,0,.29,.04-.09-.04-.19-.06-.29-.06-.21,.01-.4,.1-.55,.24-.15,.14-.27,.32-.34,.51-.07,.19-.09,.4-.06,.61,.03,.23,.15,.43,.32,.58,.09,.07,.19,.13,.3,.18,.1,.04,.2,.07,.3,.09,.41,.1,.85,.06,1.24-.12,.21-.09,.4-.23,.55-.4,.15-.17,.26-.38,.31-.6,.1-.44,.05-.9-.15-1.3-.18-.4-.47-.75-.84-.99-.3-.21-.65-.32-1.02-.33Z"/><path class="i" d="M31.65,3.31c-.24-.72-.59-1.39-1.04-2l-.06,.04c.78,1.26,1.18,2.72,1.15,4.2-.08,1.48-.7,2.88-1.75,3.93-.06,.06-.12,.12-.18,.18-1.03,.94-2.2,1.7-3.48,2.25-.27,.12-.54,.23-.8,.34,.13,.19,.29,.36,.4,.54,.23-.1,.46-.2,.68-.3,.69-.33,1.36-.71,2-1.13,.56-.37,1.08-.8,1.56-1.28,.08-.08,.15-.15,.22-.23,1.09-1.16,1.71-2.69,1.74-4.28-.02-.77-.17-1.53-.43-2.25Z"/><path d="M25.86,12.86s-.03,0-.04-.01c-.01,0-.02-.02-.03-.03-.06-.1-.13-.2-.21-.29-.06-.08-.12-.16-.18-.24,0-.01,0-.02,0-.04s0-.02,0-.04c0-.01,0-.02,.02-.03,0,0,.02-.02,.03-.02,.27-.11,.54-.22,.8-.34,1.27-.54,2.44-1.3,3.45-2.23l.06-.06,.12-.12c1.04-1.03,1.66-2.41,1.73-3.87,.03-1.46-.36-2.91-1.13-4.15-.01-.02-.01-.04-.01-.06,0-.02,.02-.04,.03-.05l.06-.04s.04-.02,.06-.01,.04,.02,.05,.03c.45,.61,.8,1.28,1.05,2,.25,.74,.39,1.51,.4,2.29-.02,1.62-.64,3.17-1.76,4.34-.05,.06-.1,.11-.16,.16l-.06,.07c-.47,.49-1,.92-1.57,1.29-.64,.43-1.31,.81-2,1.14-.24,.12-.49,.22-.68,.3l-.04,.02Z"/><path d="M20.5,10.73c.22,0,.39-.18,.39-.4,0-.22-.18-.4-.39-.39-.22,0-.39,.18-.39,.4,0,.22,.18,.4,.39,.39Z"/><path d="M20.49,10.11s.06,0,.08,.02c.03,.01,.05,.03,.07,.05,.02,.02,.04,.05,.05,.07,.01,.03,.02,.06,.02,.08,0,.03,0,.06-.02,.08-.01,.03-.03,.05-.05,.07-.02,.02-.04,.04-.07,.05-.03,.01-.05,.02-.08,.02-.03,0-.06,0-.08-.02-.03-.01-.05-.03-.07-.05-.02-.02-.04-.04-.05-.07-.01-.03-.02-.06-.02-.08,0-.06,.02-.11,.06-.16,.04-.04,.1-.07,.15-.07h0Zm0-.17c-.11,0-.21,.04-.28,.12-.07,.08-.12,.18-.12,.28s.04,.21,.12,.28c.08,.07,.18,.12,.28,.12s.21-.04,.28-.12c.07-.07,.12-.18,.12-.28s-.04-.21-.12-.28c-.08-.07-.18-.12-.28-.12Z"/><path class="i" d="M12.35,5.74c.14,.03,.28,.04,.42,.01,.14-.03,.27-.08,.38-.17,.23-.17,.4-.41,.49-.68,.05-.13,.08-.27,.07-.4,0-.14-.04-.27-.1-.4,0,.11-.02,.22-.07,.32-.15,.34-.43,.62-.78,.77-.17,.07-.37,.08-.55,.03-.18-.05-.34-.16-.45-.3,.07,.11,.06,.34,.14,.47,.1,.17,.27,.3,.46,.35Z"/><path d="M12.59,5.86c-.09,0-.18-.01-.26-.04-.21-.06-.38-.2-.5-.38-.04-.09-.07-.18-.08-.28,0-.07-.03-.13-.06-.19l.15-.1c.11,.13,.25,.22,.41,.26,.16,.04,.33,.03,.49-.02,.33-.14,.59-.4,.73-.73,.05-.08,.07-.17,.07-.26l-.08-.46,.24,.4c.07,.13,.11,.28,.11,.43,0,.15-.02,.3-.07,.43-.09,.29-.27,.55-.52,.73-.18,.13-.4,.2-.63,.21Zm-.66-.66c0,.05,.03,.1,.05,.15,.09,.15,.23,.26,.4,.3,.13,.03,.26,.04,.39,.01,.13-.02,.25-.08,.35-.16,.22-.16,.37-.38,.46-.64,.04-.13,.06-.26,.06-.4-.17,.36-.46,.64-.82,.8-.14,.06-.3,.08-.45,.07-.15-.01-.3-.06-.43-.14Z"/><path class="i" d="M7.87,6.03c.09,.09,.2,.17,.33,.21,.12,.05,.26,.06,.39,.05,.26-.03,.51-.13,.71-.31,.1-.07,.18-.17,.25-.28,.06-.11,.1-.23,.11-.36-.05,.09-.12,.17-.21,.22-.29,.2-.64,.28-.98,.24-.17-.03-.33-.11-.45-.24-.12-.13-.19-.29-.21-.46,0,.12-.12,.3-.12,.44,0,.18,.07,.35,.19,.49Z"/><path d="M8.53,6.4c-.13,0-.26-.02-.39-.07-.12-.05-.23-.13-.33-.22-.14-.15-.21-.34-.21-.55,0-.09,.03-.18,.07-.26,.02-.05,.04-.11,.05-.17h.17c.02,.15,.09,.29,.2,.4,.11,.11,.25,.18,.4,.21,.32,.04,.65-.03,.92-.22,.08-.04,.14-.1,.18-.18l.18-.44v.47c-.01,.14-.06,.27-.12,.39-.07,.12-.16,.23-.27,.31-.21,.19-.48,.3-.76,.32h-.06Zm-.72-.97s-.03,.08-.03,.13c0,.16,.06,.31,.17,.42,.08,.09,.18,.15,.29,.19,.11,.04,.23,.06,.35,.05,.18-.02,.36-.08,.52-.18,.16-.1,.29-.23,.39-.39-.3,.21-.67,.3-1.04,.24-.14-.03-.26-.08-.38-.16-.11-.08-.2-.19-.27-.31Z"/><path class="i" d="M13.47,6.22c.56-.14,1.14-.2,1.72-.18,.58,.02,1.15,.13,1.7,.3,.31,.1,.62,.22,.91,.37,.05,.02,.09-.05,.04-.08-.52-.27-1.08-.46-1.66-.57-.58-.11-1.17-.14-1.76-.1-.33,.03-.66,.08-.98,.16-.06,0-.03,.1,.02,.08Z"/><path class="i" d="M13.47,6.58c1.17,.04,2.32,.39,3.31,1.02,.28,.17,.55,.37,.8,.58,.04,.04,.1-.03,.06-.06-.45-.38-.96-.71-1.5-.96-.84-.4-1.75-.62-2.68-.66-.06,0-.05,.08,0,.09h0Z"/><path class="i" d="M13.26,6.88c.96,.39,1.84,.98,2.55,1.73,.2,.22,.4,.44,.58,.68,.03,.04,.1,0,.07-.04-.81-1.09-1.9-1.93-3.16-2.44-.05-.02-.09,.06-.04,.08Z"/><path d="M7.96,6.66c-.98-.63-2.11-.97-3.28-1-.33,0-.66,.01-.98,.06-.05,0-.06-.08,0-.09,.58-.08,1.18-.08,1.76,0,.58,.08,1.15,.25,1.69,.48,.3,.13,.59,.29,.87,.47,.05,.03,0,.1-.05,.07h-.01Z"/><path d="M7.81,7c-.56-.17-1.14-.26-1.72-.28-.58-.02-1.17,.04-1.74,.16-.32,.07-.64,.17-.95,.28-.01,0-.02,0-.03,0-.01,0-.02-.01-.02-.02,0-.01,0-.02,0-.03,0-.01,.01-.02,.02-.02,.55-.21,1.13-.34,1.72-.4,.59-.06,1.19-.05,1.78,.03,.33,.05,.65,.12,.97,.22,.05,0,0,.1-.03,.08v-.02Z"/><path d="M7.92,7.36c-1.04,.05-2.05,.32-2.98,.8-.26,.14-.52,.29-.76,.46-.04,.03-.1-.04-.05-.07,.87-.59,1.87-.99,2.91-1.18,.29-.05,.58-.08,.88-.1,.06,0,.07,.08,0,.08h.01Z"/><path class="o" d="M14.36,2.14c.19,.77,.25,1.57,.17,2.36l-1.31-1.18,1.14-1.18Z"/><path class="o" d="M8.3,2.48s-.86,.33-.6,2c.45-.18,.87-.41,1.27-.67,0,0-.67-.66-.67-1.33Z"/><path d="M10.09,8.27s-.04,0-.05-.02c-.02-.01-.03-.03-.03-.05,0-.02,0-.05,.01-.06,.01-.02,.03-.03,.05-.04,.11-.02,.21-.06,.29-.13,.09-.06,.16-.14,.22-.23,.35-.56,.11-1.54,.11-1.55l.17-.05c.18,.62,.59,1.6,.87,1.66,0,0,.07,0,.15-.1,.01-.02,.03-.03,.06-.03,.02,0,.05,0,.06,.01,0,0,.02,.01,.02,.02,0,0,.01,.02,.01,.03,0,.01,0,.02,0,.03,0,.01,0,.02-.01,.03-.03,.06-.07,.1-.13,.13-.06,.03-.12,.04-.18,.03-.29-.04-.56-.58-.76-1.06,.01,.32-.06,.64-.22,.92-.07,.11-.16,.21-.26,.28-.11,.07-.23,.13-.36,.15h-.02Z"/><path class="f" d="M11.24,5.44c.08,0,.14,.05,.19,.1,.03,.05,.04,.11,.03,.17-.03,.18-.11,.34-.24,.47-.13,.12-.24,.26-.35,.4-.19-.1-.37-.22-.54-.36-.07-.06-.13-.12-.18-.2-.03-.04-.05-.09-.06-.14,0-.05,0-.1,0-.15,.04-.09,.12-.16,.21-.2,.09-.04,.19-.05,.28-.02,.08,.02,.15,.06,.21,.11,.05-.07,.12-.12,.2-.15,.08-.03,.16-.05,.25-.04Z"/><path class="i" d="M230.41,42.17c.25-.32,.58-.99-.44-1.41-.44-.22-1.2-1.11-1.6,.31-.02,.06-.01,.12,.01,.17,.02,.05,.07,.1,.12,.12l.06,.02s.01,0,.02,.01c0,0,0,.01,.01,.02,0,0,0,.01,0,.02s0,.01,0,.02l-.11,.32s0,.02,0,.03c0,0,0,.02,.02,.02,0,0,.02,0,.03,0,0,0,.02,0,.03-.01l.25-.22s.01,0,.02,0,.01,0,.02,0l.16,.04s.01,0,.02,0c0,0,.01,0,.01,.02,0,0,0,.01,0,.02,0,0,0,.01,0,.02l-.18,.4s0,.02,0,.03c0,.01,.01,.02,.02,.03,.01,0,.02,0,.03,0,.01,0,.02,0,.03-.02l.3-.32s.02-.01,.03-.01,.02,0,.03,.01l.27,.16s.02,.02,.02,.03c0,.01,0,.02,0,.03l-.2,.52s0,.02,0,.03c0,0,.01,.02,.02,.02,0,0,.02,0,.03,0,.01,0,.02,0,.03-.01l.32-.4s.02,0,.03,0c.01,0,.02,0,.03,0l.16,.06c.07,.02,.15,.03,.21,0,.07-.02,.13-.07,.17-.13Z"/><path d="M229.44,42.72s-.04,0-.06,0c-.02-.01-.04-.04-.05-.06,0-.03,0-.05,0-.08l.19-.5-.25-.15-.29,.31s-.05,.03-.07,.03-.05,0-.07-.03c-.02-.01-.04-.04-.05-.06,0-.02,0-.05,0-.08l.16-.4-.14-.03-.24,.22s-.04,.03-.07,.03-.05,0-.07-.03c-.02-.01-.04-.03-.04-.06s0-.05,0-.07l.11-.32h-.05c-.07-.03-.12-.09-.15-.16-.03-.07-.04-.14-.02-.22,.13-.46,.31-.72,.54-.8,.31-.11,.64,.12,.89,.3,.09,.06,.18,.12,.25,.16,.16,.05,.31,.13,.44,.25,.12,.11,.22,.26,.28,.41,.03,.15,.02,.31-.03,.45s-.12,.28-.22,.4c-.05,.07-.13,.12-.21,.14-.08,.02-.17,.02-.25-.01l-.15-.06-.32,.4s-.03,.01-.04,.02c-.01,0-.03,0-.04,0Zm-.16-.94s.04,0,.06,.02l.27,.16s.04,.04,.05,.06c0,.02,0,.05,0,.08l-.16,.4,.26-.31s.03-.03,.06-.04c.02,0,.05,0,.07,0l.16,.06c.06,.02,.12,.02,.17,0,.06-.02,.11-.05,.14-.1,.09-.1,.16-.22,.19-.35,.04-.13,.05-.26,.03-.4-.06-.23-.28-.42-.64-.57h-.02c-.09-.05-.17-.1-.25-.16-.25-.17-.54-.37-.78-.28-.24,.09-.35,.31-.46,.72-.01,.04,0,.09,0,.13,.02,.04,.05,.07,.09,.09l.06,.03s.03,.01,.04,.02c0,.01,.02,.02,.02,.04,0,.01,0,.03,0,.04s0,.03,0,.04l-.09,.25,.2-.18s.03-.02,.05-.03c.02,0,.04,0,.05,0l.16,.04s.03,.01,.04,.02c.01,0,.02,.02,.03,.04,0,.02,.01,.03,.01,.05s0,.03-.01,.05l-.14,.34,.24-.26s.03-.02,.04-.03c.02,0,.03,0,.05,0Z"/><path d="M234.52,40.03c-1.04,0-2.06-.17-3.04-.51-.03-.01-.06-.03-.09-.05-.02-.02-.04-.05-.06-.08-.01-.03-.02-.06-.02-.1,0-.03,0-.07,.02-.1,.01-.03,.03-.06,.05-.08,.02-.02,.05-.04,.08-.06,.03-.01,.06-.02,.1-.02,.03,0,.07,0,.1,.02,.26,.1,6.5,2.47,9.28-4.05,.68-1.64,1.1-3.38,1.26-5.15,.1-1.06,.12-3.04-.86-4.45-.24-.35-.57-.64-.96-.84-.38-.2-.81-.3-1.24-.3-.38,0-.74,.11-1.07,.3-.32,.19-.59,.46-.78,.78-.12,.18-.2,.38-.24,.59-.04,.21-.03,.43,.02,.64,.15,.42,.45,.76,.84,.98,.39,.21,.85,.27,1.28,.16,.17-.04,.32-.12,.45-.24,.13-.11,.23-.26,.29-.42,.08-.24,.11-.5,.08-.76-.03-.26-.12-.5-.26-.72-.06-.1-.15-.18-.25-.23-.1-.05-.22-.07-.33-.05-.18,.02-.35,.08-.49,.18-.15,.1-.26,.24-.34,.4-.04,.08-.06,.16-.05,.25,0,.09,.03,.17,.08,.24,.04,.06,.11,.11,.18,.14,.07,.03,.15,.04,.22,.02,.08-.02,.16-.06,.22-.12,.06-.06,.11-.14,.13-.22,.01-.03,.03-.06,.05-.09,.02-.02,.05-.04,.08-.06,.03-.01,.06-.02,.1-.02,.03,0,.07,0,.1,.02,.03,.01,.06,.03,.08,.05,.03,.02,.04,.05,.06,.08,.01,.03,.02,.06,.02,.1,0,.03,0,.07-.02,.1-.05,.17-.15,.32-.28,.44-.13,.12-.29,.2-.47,.23-.16,.02-.33,0-.49-.06-.15-.06-.29-.16-.39-.29-.11-.14-.17-.31-.19-.49-.02-.18,.01-.36,.09-.52,.11-.25,.29-.46,.51-.62,.22-.16,.48-.25,.75-.28,.21-.02,.42,.01,.6,.1,.19,.09,.34,.24,.45,.42,.18,.28,.3,.61,.34,.94,.04,.34,0,.67-.11,.99-.09,.24-.24,.45-.43,.61-.19,.17-.42,.29-.66,.35-.56,.14-1.16,.07-1.67-.21-.51-.28-.9-.74-1.09-1.28-.07-.28-.08-.57-.03-.85,.05-.28,.15-.55,.3-.79,.24-.4,.57-.72,.96-.96,.4-.23,.85-.36,1.31-.37,.52,0,1.03,.11,1.49,.35,.46,.24,.85,.59,1.15,1.01,1.07,1.54,1.05,3.66,.94,4.8-.16,1.83-.6,3.62-1.31,5.31-1.69,3.95-4.65,4.82-6.9,4.82Z"/><path class="i" d="M228.91,36.21c-.49-4.4-3.77-6.5-5.87-10.23-.6-.51-1.13-1.11-1.56-1.77-1.2-1.88-2.47-5.5-3.03-7.2,.05-.16,.07-.33,.06-.5,0-.49,.51-1.54-.95-1.32-.06,0-.11,.04-.15,.08s-.06,.1-.06,.16v.06s0,.03-.01,.04c-.01,0-.02,.02-.04,.02l-.33,.03s-.02,0-.02,.02c0,0,0,.02,0,.03s0,.02,0,.03c0,0,.01,.01,.02,.02l.3,.14s.02,.02,.03,.03l.03,.17s0,.01,0,.02c0,0,0,.01,0,.02,0,0,0,0-.02,.01,0,0-.01,0-.02,0h-.46s-.02,0-.02,.02c0,0,0,.02,0,.03s0,.02,0,.03c0,0,.01,.01,.02,.02l.4,.15s.02,0,.02,.02c0,0,0,.02,0,.03l-.04,.32s0,.02-.02,.03c0,0-.02,.01-.03,.01l-.55,.04s-.02,0-.02,.02c0,0-.01,.02-.01,.03s0,.02,.01,.03c0,0,.01,.01,.02,.02l.5,.13s.02,0,.02,.01c0,0,.01,.02,.01,.03v.18c0,.07,.03,.14,.08,.2,.05,.06,.11,.09,.18,.11,.2,.06,.41,.06,.62,0,.14,.58,.36,1.48,.67,2.8,.51,2.18,1.6,4.25,2.65,6.23,.9,1.73,2.58,2.76,3.71,4.29,1.28,1.74,1.78,4.03,2.54,6.03,.74,1.93,2.71,6.89,5.48,4.69,.34-.29,.59-.67,.71-1.1-2.31,0-4.44-1.89-4.89-4.21Z"/><path d="M231.68,42.14c-.16,0-.32-.02-.48-.06-1.88-.51-3.2-3.93-3.68-5.2-.21-.55-.4-1.14-.59-1.7-.5-1.5-1.02-3.06-1.94-4.31-.49-.62-1.02-1.2-1.6-1.73-.84-.74-1.56-1.61-2.12-2.57l-.15-.29c-1-1.9-2.02-3.87-2.51-5.96-.24-1.05-.46-1.96-.65-2.71-.19,.04-.39,.04-.58,0-.09-.02-.16-.07-.22-.13s-.09-.15-.09-.24v-.16l-.48-.13s-.05-.02-.07-.04c-.02-.02-.02-.05-.02-.07,0-.03,.02-.05,.03-.07,.02-.02,.04-.03,.07-.03l.54-.03,.04-.28-.4-.14s-.04-.03-.06-.05c-.01-.02-.02-.05-.01-.08,0-.03,.02-.05,.04-.07,.02-.02,.04-.03,.07-.03h.44l-.03-.14-.3-.13s-.04-.03-.05-.05c-.01-.02-.02-.05-.01-.07,0-.02,.01-.05,.03-.07,.02-.02,.04-.03,.07-.03l.34-.03v-.05c0-.08,.03-.15,.08-.2,.05-.06,.12-.09,.19-.1,.16-.05,.33-.06,.5-.03,.17,.03,.32,.09,.46,.19,.23,.23,.16,.62,.1,.94-.02,.1-.03,.19-.04,.29,0,.17-.01,.34-.06,.5,.51,1.54,1.8,5.27,3.02,7.15,.43,.65,.95,1.25,1.55,1.76v.02c.72,1.22,1.55,2.39,2.46,3.48,1.6,2,3.09,3.89,3.42,6.8,.46,2.33,2.57,4.14,4.8,4.14h.1l-.03,.08c-.14,.47-.42,.89-.81,1.2-.39,.31-.86,.48-1.35,.51v-.06Zm-13.62-24.72v.07c.2,.77,.42,1.7,.67,2.8,.48,2.07,1.5,4.03,2.49,5.93l.15,.28c.56,.95,1.27,1.81,2.1,2.53,.58,.54,1.11,1.12,1.6,1.75,.93,1.27,1.46,2.83,1.96,4.34,.19,.57,.4,1.15,.6,1.7,.48,1.27,1.78,4.64,3.6,5.13,.31,.07,.64,.07,.95-.02,.31-.08,.6-.24,.84-.46,.31-.26,.54-.6,.66-.99-2.26-.05-4.37-1.9-4.85-4.25-.32-2.85-1.81-4.73-3.39-6.71-.92-1.09-1.74-2.26-2.47-3.49-.6-.52-1.13-1.12-1.56-1.78-1.2-1.84-2.4-5.3-3.04-7.2v-.04c.05-.15,.07-.32,.06-.48,0-.1,.02-.21,.04-.32,.06-.3,.12-.64-.06-.82-.12-.08-.26-.14-.41-.16-.15-.02-.3,0-.44,.03-.04,0-.08,.03-.11,.06-.03,.03-.04,.08-.04,.12v.06s-.01,.06-.03,.08c-.02,.02-.05,.03-.08,.04l-.27,.02,.24,.11s.03,.02,.04,.03c.01,.01,.02,.03,.02,.05l.04,.16s0,.03,0,.05c0,.02-.01,.03-.02,.04,0,.01-.02,.02-.04,.03-.01,0-.03,.01-.05,.01h-.36l.33,.12s.04,.03,.06,.05c.01,.02,.02,.05,.01,.07l-.04,.32s-.02,.05-.04,.07c-.02,.02-.04,.03-.07,.03l-.45,.03,.4,.1s.04,.02,.06,.04c.01,.02,.02,.04,.02,.07v.17c0,.06,.03,.11,.07,.16,.04,.04,.09,.08,.15,.09,.19,.05,.39,.05,.58,0l.07-.04Z"/><path class="q" d="M233.98,38.04c-.23-2.36-1.21-4.58-2.8-6.33-.37-.42-.77-.81-1.2-1.16-2.14-1.75-4.89-2.8-6.93-4.57,.69,.6,1.2,1.88,1.79,2.63,.65,.85,1.35,1.67,1.97,2.54,.63,.85,1.15,1.78,1.55,2.76,.28,.74,.19,2.08,.98,2.3h-.4c.42,2.31,2.55,4.2,4.85,4.2,.1-.33,.17-.68,.2-1.02,.04-.45,.04-.9,0-1.35Zm-4.02-1.79c.2,0,.39,.06,.57,.14,.06,.03,.11,.07,.16,.11-.22-.14-.47-.22-.72-.25Zm1,1.81c.04,.11,.11,.2,.21,.27-.07-.02-.14-.04-.21-.06v-.21Zm1.11,.4c.24,0,.53-.03,.82-.06-.27,.04-.55,.06-.82,.05h0Z"/><path d="M233.77,40.48c-2.29,0-4.45-1.87-4.93-4.25v-.08h.22c-.36-.27-.47-.85-.57-1.41-.04-.27-.1-.54-.19-.8-.4-.98-.91-1.9-1.54-2.74-.4-.56-.82-1.1-1.24-1.6-.24-.3-.49-.62-.73-.93-.25-.34-.47-.69-.67-1.06-.29-.58-.67-1.12-1.12-1.59l.08-.1c1.11,.9,2.31,1.7,3.57,2.37,1.18,.64,2.3,1.37,3.36,2.19,.43,.35,.83,.75,1.2,1.17,1.61,1.76,2.6,3.99,2.83,6.36,.04,.45,.04,.91,0,1.36-.03,.35-.09,.7-.2,1.04v.05h-.05l-.02,.02Zm-4.8-4.2c.5,2.27,2.56,4.05,4.75,4.07,.09-.31,.15-.63,.18-.96,.03-.45,.03-.9,0-1.34-.23-2.35-1.21-4.55-2.8-6.3-.37-.42-.77-.8-1.2-1.15-1.05-.81-2.17-1.54-3.34-2.17-1.04-.57-2.04-1.21-3-1.91,.22,.31,.43,.67,.63,1.02,.2,.36,.42,.71,.66,1.04,.24,.31,.49,.62,.73,.93,.4,.52,.85,1.06,1.24,1.62,.63,.85,1.16,1.79,1.56,2.77,.09,.27,.15,.54,.2,.82,.12,.64,.24,1.3,.74,1.44l.47,.13h-.82Zm3.09,2.24v-.11c.28,0,.57-.03,.8-.06v.13c-.23,.03-.46,.04-.69,.04h-.11Zm-.53-.03l-.42-.11-.16-.04h-.04v-.62l.13,.34c.03,.1,.1,.18,.18,.24l.32,.2Zm-.88-1.94c-.21-.13-.45-.22-.7-.24v-.13c.21,0,.41,.06,.6,.15,.06,.03,.12,.07,.17,.12l-.07,.1Z"/><path class="i" d="M225.08,28.98c-.15-.28-.32-.54-.51-.8-.28-.38-.59-.74-.93-1.08-.8-.8-1.7-1.43-2.48-2.22-.71-.81-1.33-1.7-1.85-2.64-.32-.5-.64-1.4-1.08-1.9,0-.06,.02-.12,.03-.19,.07-.55,.73-1.68-.96-1.58-.07,0-.13,.03-.18,.08-.05,.05-.08,.11-.09,.18v.07s0,.03-.02,.04c-.01,.01-.03,.02-.04,.02h-.4s-.02,0-.04,0c0,0-.02,.02-.02,.03,0,.01,0,.02,0,.04,0,.01,.01,.02,.03,.02l.34,.18s.02,.02,.03,.04v.19s0,.02,0,.02c0,0,0,.01-.01,.02,0,0-.01,.01-.02,.01,0,0-.02,0-.02,0l-.52-.02s-.02,0-.03,0c-.01,0-.02,.02-.02,.03,0,.01,0,.02,0,.04,0,.01,.01,.02,.03,.02l.46,.2s.02,.01,.03,.02c0,.01,0,.02,0,.04l-.07,.35s0,.02-.02,.03c0,0-.02,.01-.04,0h-.63s-.03,0-.04,.02c0,0-.01,.02-.01,.04s0,.03,.01,.04c0,0,.02,.02,.04,.02l.56,.19s.02,.01,.03,.02c0,0,0,.02,0,.03v.2c0,.08,.03,.16,.08,.23,.05,.07,.12,.12,.19,.14,.26,.09,.54,.1,.8,.02,.22,.33,.47,.64,.62,.86,.47,.63,.9,1.28,1.3,1.96,.81,1.43,1.8,2.75,2.94,3.92,.4,.43,.86,.8,1.31,1.2,.27,.24,.74,.9,1.13,.9,.58-.01,.22-.81,.09-1.05Z"/><path d="M225.03,30.07c-.31,0-.65-.37-.92-.66-.09-.1-.18-.19-.25-.25l-.18-.16c-.4-.33-.77-.68-1.13-1.05-1.15-1.18-2.15-2.5-2.95-3.94-.29-.5-.6-.98-.94-1.44l-.36-.51c-.06-.08-.13-.18-.21-.29-.08-.11-.25-.34-.38-.52-.26,.07-.54,.05-.8-.04-.09-.03-.17-.08-.23-.16s-.09-.17-.09-.27v-.2l-.55-.18s-.05-.03-.06-.05c-.01-.02-.02-.05-.02-.08,0-.03,.02-.05,.04-.07,.02-.02,.05-.03,.08-.02h.64l.06-.34-.46-.19s-.05-.03-.06-.06c-.01-.03-.01-.05,0-.08,0-.01,0-.03,.01-.04,0-.01,.02-.02,.03-.03,.01,0,.02-.01,.04-.02,.01,0,.03,0,.04,0l.51,.02v-.17l-.33-.18s-.04-.03-.05-.05c-.01-.02-.01-.05,0-.07,0-.03,.02-.05,.04-.07,.02-.02,.05-.03,.07-.03h.4v-.04c0-.08,.05-.16,.11-.22,.06-.06,.14-.09,.22-.09,.55-.03,.9,.06,1.08,.28,.18,.22,.12,.7,.02,1.05-.03,.11-.05,.21-.07,.32v.13s0,.02,0,.03c.28,.37,.51,.77,.69,1.2,.11,.24,.24,.48,.38,.71l.38,.6c.41,.73,.9,1.41,1.47,2.03,.4,.4,.83,.77,1.26,1.13,.42,.36,.84,.7,1.22,1.09,.34,.34,.65,.7,.93,1.08,.19,.26,.36,.54,.52,.82,.14,.26,.34,.72,.2,.97-.04,.06-.1,.1-.17,.12-.07,.02-.14,.02-.21,0Zm-7.26-8.98l.03,.04c.13,.2,.28,.4,.4,.56,.08,.11,.16,.21,.22,.29,.12,.17,.24,.34,.36,.51,.35,.47,.66,.95,.95,1.46,.8,1.43,1.79,2.74,2.93,3.91,.35,.37,.74,.71,1.12,1.04l.18,.16c.09,.08,.18,.17,.26,.26,.24,.26,.57,.62,.83,.62,.04,0,.08,0,.11-.02s.07-.04,.09-.07c.1-.16-.04-.54-.2-.84-.15-.28-.32-.54-.51-.8-.27-.38-.58-.74-.91-1.07-.4-.4-.8-.74-1.2-1.08-.4-.34-.87-.74-1.27-1.14-.57-.62-1.07-1.31-1.49-2.05-.12-.2-.25-.4-.38-.6-.13-.2-.25-.45-.4-.72-.18-.42-.41-.82-.69-1.18v-.24c.02-.12,.04-.23,.08-.35,.09-.33,.19-.7,0-.93-.19-.23-.48-.26-.97-.23-.05,0-.1,.02-.14,.06-.04,.04-.06,.08-.07,.14v.07s-.02,.06-.04,.08c-.02,.02-.05,.03-.08,.03h-.34l.3,.16s.03,.02,.04,.04c.01,.02,.02,.03,.02,.05l.02,.19s0,.03,0,.05c0,.02-.01,.03-.02,.04-.01,.01-.03,.02-.04,.03-.02,0-.04,.01-.05,0l-.46-.02,.4,.18s.04,.03,.06,.05c.01,.02,.02,.05,.01,.08l-.08,.35s-.02,.05-.04,.07c-.02,.02-.05,.03-.08,.03h-.56l.49,.17s.04,.02,.06,.04c.01,.02,.02,.04,.02,.07v.2c0,.07,.02,.14,.06,.19,.04,.06,.1,.1,.16,.12,.25,.09,.52,.1,.78,.02l.07-.04Z"/><path d="M231.04,39.05c-1.01-2.8-2.49-6.68-2.56-5.15,.38,1.16,.94,2.82,1.45,4.3,.53,.02,.83,.45,1.11,.86Z"/><path d="M231.27,39.51l-.28-.42c-.27-.4-.55-.8-1.06-.83h-.04v-.04c-.66-1.93-1.13-3.33-1.45-4.3v-.02c0-.18,.03-.4,.17-.4s.5-.08,2.51,5.54l.16,.47Zm-1.29-1.37c.17,.02,.33,.08,.48,.16,.15,.09,.27,.2,.37,.34-1.76-4.87-2.15-5.05-2.21-5.03-.06,.02-.05,.03-.06,.27,.32,.96,.78,2.35,1.43,4.25Z"/><path class="i" d="M231.91,41.56c-.12-.36-.46-1.35-.87-2.51-.28-.4-.57-.83-1.11-.86,.61,1.79,1.13,3.3,1.13,3.3-.48,.07-1.6-.21-1.12,1.2,.02,.06,.06,.1,.11,.13,.05,.03,.11,.04,.17,.03h.06s.01,0,.02,0c0,0,.01,0,.02,0,0,0,0,0,.01,.01,0,0,0,.01,0,.02l.1,.32s0,.02,.02,.02c0,0,.02,0,.03,0s.02,0,.03,0c0,0,.01-.01,.02-.02l.07-.32s.02-.02,.03-.03l.16-.06s.01,0,.02,0c0,0,.01,0,.02,0,0,0,.01,0,.02,.01,0,0,0,.01,0,.02l.1,.44s0,.02,.01,.03c0,0,.02,.01,.03,.01s.02,0,.03-.01c0,0,.01-.02,.01-.03l.06-.44s0-.02,.02-.03c0,0,.02-.01,.03-.01l.32-.02s.02,0,.03,0c0,0,.01,.02,.02,.03l.14,.54s0,.02,.02,.02c0,0,.02,0,.03,0,.01,0,.02,0,.03,0,0,0,.01-.01,.02-.02l.04-.51s0-.02,.01-.03c0,0,.01-.01,.02-.01l.17-.04c.07-.02,.13-.06,.18-.12,.04-.06,.07-.13,.07-.2,.03-.16,.01-.33-.04-.48-.06-.15-.16-.29-.29-.39Z"/><path d="M231.7,43.41s-.05,0-.07-.02c-.02-.02-.03-.04-.04-.06l-.14-.52h-.29l-.06,.42s-.02,.05-.04,.07-.04,.03-.07,.03c-.03,0-.05,0-.07-.02-.02-.02-.03-.04-.04-.06l-.1-.42-.13,.05-.07,.32s-.02,.05-.04,.06-.04,.03-.07,.03c-.02,0-.05,0-.07-.02-.02-.02-.03-.04-.04-.06l-.09-.32h-.05c-.07,.01-.15,0-.22-.04-.07-.04-.11-.1-.14-.17-.08-.15-.12-.31-.12-.48,0-.17,.03-.34,.1-.49,.19-.27,.58-.28,.9-.28,.07,0,.15,0,.22,0-.12-.33-.58-1.67-1.11-3.22l-.03-.09h.09c.58,.02,.89,.48,1.16,.88,.2,.55,.51,1.43,.87,2.49,.12,.11,.22,.24,.28,.4,.06,.15,.08,.32,.06,.48,0,.09-.03,.17-.09,.24-.05,.07-.13,.11-.21,.14l-.16,.04-.03,.5s-.01,.05-.03,.07-.04,.03-.07,.03v.05Zm-.24-.74s.05,0,.07,.02c.02,.02,.03,.04,.04,.06l.11,.44,.03-.4s.01-.05,.03-.06c.01-.02,.04-.03,.06-.04l.17-.04c.06-.01,.11-.05,.15-.09,.04-.05,.06-.1,.06-.16,.02-.14,0-.29-.05-.43-.05-.14-.14-.26-.25-.35v-.02c-.36-1.06-.67-1.95-.87-2.5-.25-.37-.51-.75-.96-.8,.6,1.75,1.1,3.2,1.1,3.2l.02,.07h-.07c-.11,0-.21,0-.32,0-.3,0-.65,0-.8,.22-.06,.14-.08,.28-.08,.43,0,.15,.05,.29,.12,.42,.01,.04,.04,.08,.08,.1,.04,.02,.08,.03,.13,.02h.06s.06,0,.08,.02c.02,.02,.04,.04,.05,.07l.08,.26,.06-.26s0-.03,.02-.05c.01-.01,.03-.02,.04-.03l.16-.06s.03-.01,.05-.01,.03,0,.05,.01c.01,0,.03,.02,.04,.03,.01,.01,.02,.03,.02,.04l.08,.36,.05-.34s.02-.05,.04-.07c.02-.02,.04-.03,.07-.03l.32-.02h-.02Z"/><path class="i" d="M223.23,26.74c.93,1.08,2.36,2.04,3.8,2.08,.19-1.49,.65-2.93,1.36-4.25-.61-.72-1.25-1.42-1.93-2.07v-.18c-.96-.12-1.9-.32-2.83-.6-1.31,1.59-1.88,3.32-.39,5.04Z"/><path d="M227.14,28.95h-.12c-1.55-.04-3.03-1.12-3.89-2.12-1.34-1.54-1.2-3.25,.38-5.2l.06-.06,.08,.02c.91,.28,1.85,.48,2.8,.6h.1v.24c.2,.2,1.2,1.2,1.91,2.05l.06,.06-.04,.08c-.69,1.31-1.13,2.73-1.32,4.2v.13Zm-3.83-2.29c.8,.93,2.16,1.94,3.6,2.03,.2-1.43,.65-2.82,1.32-4.1-.76-.93-1.86-2-1.88-2l-.04-.03v-.13c-.9-.12-1.79-.31-2.66-.57-1.45,1.82-1.55,3.39-.33,4.8h-.02Z"/><path d="M223.9,21.34c-.1,.12-.2,.24-.3,.36,.92,.28,1.87,.48,2.83,.6l-.29-3.82-2.23,2.86Z"/><path d="M226.5,22.38h-.08c-.96-.12-1.91-.32-2.84-.61l-.09-.03,.06-.07c.1-.12,.2-.24,.3-.36l2.33-2.99,.32,4.05Zm-2.8-.71c.87,.26,1.75,.45,2.64,.57l-.28-3.57-2.13,2.73-.24,.28Z"/><path d="M228.91,28.23l3.96-2.86s-4-.8-4.43-.73c-.02-.02-.04-.05-.06-.08-.7,1.33-1.16,2.77-1.36,4.26,.68,.02,1.34-.19,1.88-.59Z"/><path d="M227.11,28.88h-.16v-.07c.19-1.49,.65-2.94,1.36-4.27l.04-.09,.1,.13h.02c.64,0,4.23,.7,4.4,.74l.14,.03-.12,.08c-.16,.12-3.93,2.84-3.96,2.86-.53,.39-1.18,.6-1.83,.6Zm0-.13c.63,0,1.25-.2,1.75-.57l3.84-2.77c-1.42-.28-3.94-.74-4.26-.7h-.04v-.02c-.67,1.27-1.12,2.65-1.32,4.07h.02Z"/><path class="q" d="M228.38,24.56s-2.71-.58-2.64,4l1.18,.38,1.74-1.17,.46-1.1-.73-2.11Z"/><path class="q" d="M226.45,22.49s-1.38,2.99-3.84,2.94c-.28-.6-.18-2.26,1-3.73,.81-.36,2.44-.56,2.84,.79Z"/><path class="h" d="M227.39,25.14c-.06,.06-.11,.12-.16,.19-.14,.2-.21,.44-.2,.68,0,.24,.1,.48,.26,.66,.16,.18,.37,.31,.61,.36,.24,.05,.49,.01,.7-.1-.2,.18-.45,.28-.71,.29-.27,0-.52-.09-.72-.26-.2-.17-.33-.41-.37-.67-.04-.26,.02-.53,.17-.75,.11-.16,.25-.3,.43-.39Z"/><path d="M227.86,27.27c-.23,0-.45-.07-.64-.2-.13-.08-.23-.19-.32-.32s-.14-.27-.17-.42c-.03-.15-.03-.3,0-.45,.03-.15,.09-.29,.18-.41,.11-.17,.27-.31,.45-.4l.4-.18-.31,.29c-.06,.05-.1,.11-.15,.18-.07,.11-.13,.24-.15,.37-.03,.13-.03,.27,0,.4,.03,.15,.09,.3,.19,.42,.09,.12,.22,.23,.36,.3s.29,.11,.45,.11c.16,0,.31-.03,.45-.1l.38-.18-.3,.29c-.22,.21-.51,.33-.81,.32Zm-.78-1.81l-.07,.09c-.12,.18-.18,.39-.18,.61,0,.22,.08,.43,.22,.6,.13,.17,.32,.29,.53,.35,.21,.06,.43,.05,.63-.03-.25,.01-.5-.05-.71-.19-.22-.15-.39-.38-.46-.64-.07-.26-.05-.54,.06-.79h-.02Z"/><path class="i" d="M226.93,25.54c-.12,.18-.18,.39-.19,.6,0,.22,.06,.43,.18,.61s.29,.32,.49,.4c.2,.08,.42,.1,.63,.06,.21-.04,.41-.14,.56-.3,.15-.15,.26-.35,.3-.56,.04-.21,.02-.43-.06-.63-.08-.2-.22-.37-.4-.49-.24-.16-.53-.22-.82-.16-.28,.06-.53,.22-.69,.46Z"/><path d="M227.83,27.29c-.21,0-.41-.06-.59-.17-.18-.11-.32-.26-.42-.45-.1-.18-.14-.39-.13-.6,.01-.21,.08-.41,.19-.58,.11-.16,.26-.3,.44-.38,.18-.09,.37-.13,.57-.12,.2,.01,.39,.07,.56,.18,.17,.11,.3,.25,.4,.43s.14,.37,.13,.57c0,.2-.06,.39-.16,.56-.1,.17-.25,.31-.42,.41-.17,.1-.37,.15-.56,.15Zm-.84-1.72c-.11,.17-.17,.36-.17,.57s.06,.4,.17,.57,.27,.3,.46,.38c.19,.08,.39,.1,.59,.06,.2-.04,.38-.14,.52-.28,.14-.14,.24-.32,.28-.52,.04-.2,.02-.4-.06-.59-.08-.19-.21-.35-.38-.46-.11-.07-.24-.13-.37-.15-.13-.03-.27-.03-.4,0-.13,.03-.26,.08-.37,.15-.11,.07-.21,.17-.28,.28Z"/><path class="u" d="M226.9,25.52c.12-.18,.3-.33,.5-.41,.21-.08,.43-.11,.65-.06,.22,.04,.41,.15,.57,.31s.26,.36,.3,.57c.04,.22,.02,.44-.07,.65-.09,.2-.23,.38-.41,.5-.18,.12-.4,.19-.62,.19-.22,0-.44-.07-.62-.19-.12-.08-.23-.19-.31-.31-.08-.12-.14-.26-.17-.4-.03-.14-.03-.29,0-.44,.03-.14,.09-.28,.17-.4Zm.06,.04c-.12,.17-.18,.37-.18,.58s.06,.41,.18,.58,.28,.31,.47,.39c.19,.08,.4,.1,.6,.06,.2-.04,.39-.14,.54-.29,.15-.15,.25-.33,.29-.54,.04-.2,.02-.41-.06-.6-.08-.19-.21-.36-.38-.47-.11-.08-.24-.13-.38-.16-.14-.03-.28-.03-.41,0-.14,.03-.26,.08-.38,.16-.11,.08-.21,.18-.29,.29h0Z"/><path d="M227.83,27.33c-.24,0-.46-.07-.66-.2-.13-.09-.24-.2-.33-.33s-.14-.28-.17-.43c-.03-.15-.03-.31,0-.46,.03-.15,.09-.3,.18-.43,.11-.17,.25-.31,.43-.41,.17-.1,.37-.15,.57-.15,.2,0,.4,.05,.58,.14,.18,.09,.33,.23,.44,.4,.11,.17,.18,.36,.19,.56,.02,.2-.02,.4-.1,.58-.08,.18-.21,.34-.37,.47-.16,.12-.35,.2-.55,.23-.07,.02-.15,.02-.22,.02Zm0-2.17c-.16,0-.32,.04-.46,.12-.14,.08-.26,.19-.35,.32-.14,.22-.2,.48-.15,.74,.05,.26,.2,.48,.41,.63,.16,.11,.35,.17,.55,.17,.19,0,.38-.06,.55-.16,.16-.11,.29-.26,.36-.44,.07-.18,.09-.38,.06-.57-.05-.25-.19-.48-.4-.63-.16-.11-.36-.17-.56-.17h0Z"/><path class="t" d="M227.16,25.75c-.08,.12-.12,.25-.12,.4s.04,.28,.12,.4c.08,.12,.19,.21,.32,.26,.13,.05,.27,.07,.41,.04,.14-.03,.26-.1,.36-.19,.1-.1,.17-.23,.19-.36,.03-.14,.01-.28-.04-.41-.05-.13-.15-.24-.26-.32-.08-.05-.16-.09-.26-.11-.09-.02-.19-.02-.28,0-.09,.02-.18,.05-.26,.11-.08,.05-.14,.12-.2,.2Z"/><path d="M227.76,26.92c-.15,0-.31-.05-.43-.14-.08-.06-.16-.13-.21-.21-.06-.08-.09-.18-.11-.28-.02-.1-.02-.2,0-.3,.02-.1,.06-.19,.12-.28,.07-.1,.17-.18,.28-.24,.11-.06,.24-.09,.36-.08,.12,0,.25,.03,.36,.09,.11,.06,.2,.15,.27,.25,.07,.1,.11,.22,.12,.35,.01,.12,0,.25-.05,.37-.05,.12-.12,.22-.22,.3-.1,.08-.21,.14-.33,.17-.05,0-.11,0-.16,0Zm0-1.42c-.1,0-.19,.02-.28,.06-.09,.04-.16,.1-.22,.17-.06,.07-.1,.16-.13,.25-.02,.09-.03,.19,0,.28,.04,.16,.13,.31,.27,.4,.14,.09,.32,.13,.48,.1,.17-.03,.32-.13,.41-.27,.05-.07,.08-.15,.1-.23,.02-.08,.02-.17,0-.25-.02-.08-.05-.16-.1-.23-.05-.07-.11-.13-.18-.18-.11-.07-.23-.1-.36-.1Z"/><path class="s" d="M227.38,26.66c.04-.22,.12-.43,.22-.64,.1-.2,.26-.37,.46-.48v.11c0,.06-.02,.12-.05,.17-.09,.23-.23,.44-.4,.61-.04,.04-.09,.09-.13,.13-.04,.04-.1,.08-.11,.1Z"/><path d="M227.44,26.69l-.03-.03-.09-.02c.04-.23,.12-.45,.23-.65,.11-.21,.28-.39,.49-.5l.03,.06h.09s0,.04,0,.06v.05c0,.06-.01,.11-.04,.16v.03c-.04,.12-.1,.23-.17,.33-.06,.11-.14,.21-.23,.3-.04,.04-.09,.09-.14,.13l-.05,.03-.09,.05Zm.58-1.04c-.15,.1-.27,.24-.36,.4-.07,.14-.13,.29-.17,.44l.12-.11c.08-.08,.15-.18,.21-.28,.06-.1,.11-.2,.16-.31v-.04s.03-.07,.03-.11h.01Z"/><path class="i" d="M228.22,26.5s-.03,.03-.05,.04c-.01,0-.02,0-.04,0-.01,0-.02,0-.04,0-.01-.01-.02-.03-.03-.04s0-.03,0-.05c.01-.03,.03-.07,.04-.1,.05-.08,.07-.17,.08-.27,0-.16,.16-.02,.16,.07,0,.06,0,.13-.03,.18-.02,.06-.05,.11-.1,.16Z"/><path class="i" d="M228.18,25.93s-.02-.02-.03-.03c0-.01-.02-.03-.02-.04,0-.03,0-.06,0-.08,0,0,0-.03,.02-.03,.03,0,.05,.03,.07,.05,.02,.02,.03,.05,.04,.08,0,0,0,.02,0,.03,0,0-.01,.02-.02,.02,0,0-.02,0-.03,.01,0,0-.02,0-.03,0Z"/><path class="h" d="M224.21,21.76c-.06,.06-.11,.12-.16,.18-.14,.2-.21,.44-.2,.68,.01,.24,.1,.47,.26,.66,.16,.18,.37,.31,.61,.36,.24,.05,.48,.01,.7-.09-.19,.19-.45,.29-.72,.3-.27,0-.53-.08-.73-.26-.2-.17-.34-.42-.37-.68-.03-.27,.03-.54,.18-.76,.1-.17,.25-.3,.43-.39Z"/><path d="M224.69,23.88c-.23,0-.45-.07-.64-.2-.17-.11-.31-.27-.4-.45-.09-.18-.13-.39-.11-.59,.01-.2,.08-.4,.2-.57,.12-.17,.27-.3,.46-.39l.38-.18-.3,.29c-.11,.1-.2,.23-.26,.38-.06,.14-.08,.3-.07,.45,.01,.15,.06,.3,.14,.44,.08,.13,.19,.25,.32,.33,.15,.1,.32,.16,.5,.17,.18,.01,.36-.02,.52-.1l.38-.18-.3,.29c-.21,.2-.49,.31-.79,.31Zm-.78-1.82s-.05,.06-.07,.1c-.15,.22-.2,.5-.15,.76,.05,.26,.21,.5,.43,.65,.13,.09,.29,.15,.45,.17,.16,.02,.32,0,.47-.06-.25,.02-.51-.05-.72-.19-.12-.08-.23-.19-.32-.32-.08-.13-.14-.27-.17-.41-.04-.24-.02-.48,.08-.7Z"/><path class="i" d="M223.76,22.15c-.12,.18-.18,.39-.18,.6,0,.21,.06,.42,.18,.6,.12,.18,.29,.32,.48,.4,.2,.08,.41,.11,.62,.06,.21-.04,.4-.14,.56-.29,.15-.15,.26-.34,.3-.55,.04-.21,.02-.43-.06-.63-.08-.2-.22-.37-.4-.49-.12-.08-.25-.14-.39-.16-.14-.03-.28-.03-.42,0s-.27,.08-.39,.16c-.12,.08-.22,.18-.3,.3Z"/><path d="M224.65,23.9c-.23,0-.45-.07-.64-.2-.13-.08-.24-.19-.32-.32-.09-.13-.14-.27-.17-.42-.03-.15-.03-.3,0-.45,.03-.15,.09-.29,.18-.41,.17-.25,.44-.43,.74-.49,.3-.06,.61,0,.86,.17,.12,.08,.23,.19,.32,.32,.08,.13,.14,.27,.17,.42,.03,.15,.03,.3,0,.45-.03,.15-.09,.29-.17,.41-.08,.13-.19,.23-.32,.32-.13,.08-.27,.14-.42,.17-.07,.01-.15,.02-.22,.02Zm0-2.17c-.07,0-.13,0-.2,.02-.13,.03-.26,.08-.37,.15-.11,.07-.21,.17-.28,.28-.09,.14-.15,.3-.17,.47-.02,.17,0,.33,.07,.49,.06,.16,.16,.29,.29,.4,.13,.11,.28,.18,.45,.21,.16,.03,.33,.03,.49-.02,.16-.05,.31-.13,.43-.25,.12-.12,.21-.26,.26-.42,.05-.16,.06-.33,.03-.49-.05-.23-.17-.44-.35-.59-.18-.15-.41-.23-.65-.24Z"/><path class="u" d="M223.73,22.13c.12-.18,.3-.33,.5-.41,.21-.08,.43-.11,.65-.06,.22,.04,.42,.15,.57,.31,.16,.16,.26,.36,.3,.57,.04,.22,.02,.44-.07,.65-.09,.2-.23,.38-.41,.5-.18,.12-.4,.19-.62,.19-.22,0-.44-.07-.62-.19-.25-.17-.42-.42-.47-.71-.06-.29,0-.59,.17-.84Zm.06,.04c-.12,.17-.18,.37-.18,.58,0,.21,.06,.41,.17,.58,.11,.17,.28,.31,.47,.39,.19,.08,.4,.1,.6,.06,.2-.04,.39-.14,.54-.28,.15-.15,.25-.33,.29-.53,.04-.2,.02-.41-.06-.61-.08-.19-.21-.36-.38-.47-.11-.08-.24-.13-.38-.16-.14-.03-.27-.03-.41,0-.13,.03-.26,.08-.38,.16-.11,.08-.21,.17-.29,.29Z"/><path d="M224.65,23.94c-.23,0-.46-.07-.66-.2-.26-.18-.44-.45-.5-.76-.06-.31,0-.63,.18-.89,.11-.17,.25-.31,.43-.41,.18-.1,.37-.15,.57-.15,.2,0,.4,.05,.57,.14,.18,.09,.33,.23,.44,.4,.11,.17,.18,.36,.19,.56,.02,.2-.02,.4-.1,.58-.08,.18-.21,.34-.37,.47-.16,.12-.35,.2-.54,.23-.07,.01-.15,.02-.22,.02Zm-.8-1.74c-.13,.19-.2,.41-.18,.64,.02,.23,.11,.44,.27,.61,.16,.17,.37,.27,.6,.3,.23,.03,.46-.02,.65-.15,.19-.12,.34-.31,.41-.53,.07-.22,.06-.45-.02-.67-.08-.21-.24-.39-.44-.5s-.43-.15-.66-.11c-.13,.02-.25,.07-.36,.14-.11,.07-.2,.16-.28,.26h.01Z"/><path class="t" d="M223.99,22.36c-.08,.12-.12,.25-.12,.39,0,.14,.04,.28,.12,.4,.08,.12,.19,.21,.32,.26,.13,.05,.27,.07,.41,.04,.14-.03,.26-.09,.36-.19,.1-.1,.17-.23,.2-.36,.03-.14,.01-.28-.04-.41-.05-.13-.15-.24-.26-.32-.16-.11-.35-.14-.53-.11-.18,.04-.35,.14-.45,.3Z"/><path d="M224.56,23.53c-.18,0-.35-.05-.5-.16-.14-.11-.25-.26-.29-.44s-.03-.36,.04-.52c.07-.16,.2-.3,.36-.38,.16-.08,.34-.11,.52-.08,.18,.03,.34,.12,.46,.26,.12,.13,.19,.3,.2,.48s-.04,.36-.14,.5c-.06,.09-.13,.16-.21,.21s-.18,.09-.28,.11c-.05,.01-.1,.02-.15,.02Zm0-1.42s-.08,0-.13,0c-.16,.03-.31,.13-.4,.27-.09,.14-.13,.32-.1,.48,.02,.08,.05,.16,.1,.23,.05,.07,.11,.13,.18,.17,.11,.07,.23,.11,.36,.11,.13,0,.25-.04,.36-.11,.11-.07,.19-.17,.24-.29,.05-.12,.06-.25,.04-.37-.03-.15-.11-.28-.22-.37-.12-.09-.26-.15-.41-.15v.02Z"/><path class="s" d="M224.21,23.27c.05-.22,.12-.43,.22-.63,.1-.2,.26-.37,.46-.48v.1c0,.06-.02,.12-.05,.17-.04,.11-.09,.22-.16,.32-.06,.1-.14,.2-.22,.28-.04,.05-.09,.09-.14,.13,0,.02-.12,.08-.12,.1Z"/><path d="M224.27,23.3l-.03-.02-.09-.02c.05-.23,.12-.45,.23-.65,.11-.21,.28-.39,.49-.51l.03,.06h.06s0,.03,0,.05v.06c0,.06-.01,.11-.04,.16v.03c-.04,.12-.1,.23-.16,.33-.07,.1-.14,.2-.23,.29-.04,.05-.09,.09-.14,.13l-.05,.04s-.05,.03-.07,.05Zm.58-1.04c-.15,.1-.27,.24-.36,.4-.07,.14-.13,.29-.17,.44l.12-.11c.08-.09,.15-.18,.21-.27,.06-.1,.11-.2,.15-.31v-.03s.03-.07,.03-.11h.02Z"/><path class="i" d="M225.04,23.12s-.04,.03-.06,.04c-.01,0-.02,0-.03,0-.01,0-.02,0-.03,0-.01,0-.03-.02-.03-.04,0-.02,0-.03,0-.05,0-.03,.02-.07,.04-.1,.04-.08,.07-.18,.08-.27,0-.16,.16-.02,.16,.07,0,.06,0,.12-.03,.18-.02,.06-.05,.11-.09,.16Z"/><path class="i" d="M225,22.54s-.02-.02-.03-.03c0-.01-.01-.02-.02-.04,0-.03,0-.06,0-.08,0,0,0-.01,0-.02s0-.01,0-.02c.03,.01,.05,.03,.07,.05,.02,.02,.03,.05,.04,.07,0,.02,0,.03-.02,.04-.01,.01-.03,.02-.04,.02Z"/><path class="g" d="M225.93,25.14s.03,.05,.04,.08c0,.03,0,.06,0,.09-.01,.05-.04,.09-.08,.11-.12,.08-.27,.13-.42,.12-.15-.01-.29-.01-.44,0-.04-.17-.07-.35-.08-.53-.01-.07-.01-.15,0-.22,0-.04,.03-.08,.05-.11,.03-.03,.06-.06,.09-.08,.08-.02,.16-.01,.23,.02,.07,.03,.13,.09,.17,.16,.04,.06,.05,.12,.05,.19,.07,0,.15,0,.22,.03,.07,.03,.13,.08,.17,.15Z"/><path d="M224.98,25.62v-.06c-.04-.18-.07-.36-.08-.54,0-.08,0-.17,.02-.25,.01-.05,.04-.1,.07-.14,.03-.04,.07-.07,.12-.1,.09-.03,.19-.03,.28,.01,.09,.04,.16,.11,.2,.2,.02,.05,.04,.1,.05,.15,.07,0,.14,.02,.2,.06,.06,.03,.11,.08,.16,.14,.02,.03,.04,.06,.05,.09,.01,.03,.01,.07,0,.11,0,.04-.02,.07-.04,.1-.02,.03-.04,.06-.08,.08-.13,.09-.29,.14-.46,.13h-.14c-.1,0-.19,0-.29,0l-.07,.02Zm.21-.97h-.06c-.05,.04-.09,.09-.11,.15-.01,.07-.01,.14,0,.2,0,.16,.03,.31,.06,.46,.09,0,.17,0,.26,0h.14c.14,.02,.28-.02,.4-.1,.03-.02,.05-.05,.06-.08,0-.02,0-.04,0-.07,0-.02-.01-.04-.03-.06-.04-.05-.08-.08-.13-.11-.05-.02-.11-.04-.17-.03h-.08v-.08c0-.05-.01-.1-.04-.14-.03-.05-.07-.09-.12-.12s-.11-.03-.17-.03h0Z"/><path class="g" d="M223.79,25.67s.01,0,.02,0,.02,0,.02,0c.11,.15,.28,.26,.47,.29,.1,0,.2,0,.29-.05,.09-.04,.18-.1,.24-.17l.03-.03v-.02c.08-.13,.16-.25,.26-.36,.03-.03,.08,0,.05,.04l-.04,.05s0,.01,0,.02,0,.01,0,.02c-.07,.1-.14,.2-.22,.29-.05,.09-.09,.18-.13,.27-.02,.05-.04,.11-.04,.17,0,.06,0,.11,0,.17,.03,.11,.08,.22,.14,.32,.07,.11,.16,.2,.26,.28,0,0,0,.01,0,.02s0,.02,0,.02h-.04c-.19-.15-.33-.35-.4-.58-.02-.06-.03-.12-.04-.18,0-.06,0-.12,.03-.18,.02-.06,.04-.12,.07-.18-.05,.04-.1,.07-.15,.1-.1,.05-.21,.07-.32,.06-.1,0-.2-.04-.28-.09-.1-.06-.19-.14-.26-.23,0,0,0-.02,0-.02,0,0,.01,0,.02-.01Z"/><path d="M225.16,27.07s-.02,0-.03,0c-.01,0-.02,0-.03-.02-.21-.15-.36-.37-.43-.62-.02-.06-.04-.13-.04-.19,0-.07,0-.14,.03-.2-.11,.05-.22,.07-.34,.06-.11,0-.22-.04-.31-.1-.11-.06-.2-.15-.28-.24,0-.02,0-.05,0-.07,0-.03,.02-.05,.04-.07,.02-.01,.05-.02,.07-.01,.02,0,.05,.02,.06,.04,.1,.14,.26,.23,.43,.26,.09,0,.18-.01,.27-.05,.09-.04,.16-.09,.22-.16l.03-.03c.08-.14,.17-.28,.28-.4,0,0,.02-.02,.03-.02,.01,0,.03,0,.04,0,.01,0,.02,0,.04,0,.01,0,.02,.01,.03,.02,0,0,.01,.02,.02,.03,0,.01,0,.02,0,.04s0,.02,0,.04c0,.01-.01,.02-.02,.03l-.02,.03s0,.04,0,.06c-.07,.1-.14,.2-.23,.3-.04,.08-.08,.17-.12,.25-.02,.05-.03,.1-.04,.15,0,.05,0,.1,.02,.15,.03,.1,.07,.2,.13,.3,.07,.1,.15,.19,.25,.26,.02,.02,.03,.04,.04,.06,0,.01,0,.03,0,.04,0,.01,0,.03-.02,.04-.01,.01-.03,.03-.04,.03-.02,0-.04,0-.05,0Z"/><path d="M227.71,27.46c.55,.18,1.08,.43,1.56,.76,.48,.32,.92,.71,1.3,1.15,.21,.25,.41,.52,.58,.8,0,0,.02,.01,.03,.01,0,0,.02,0,.03,0,0,0,.01-.01,.02-.02,0,0,0-.02,0-.03-.8-1.3-2.04-2.28-3.5-2.75,0,0-.02,0-.03,0,0,0-.02,.01-.02,.02,0,.01,0,.02,0,.03,0,0,.01,.02,.02,.02Z"/><path d="M227.55,27.79c.98,.66,1.77,1.56,2.3,2.61,.16,.3,.29,.6,.4,.92,0,0,.01,.02,.02,.02,0,0,.02,0,.03,0,0,0,.02,0,.02-.02,0,0,0-.02,0-.03-.38-1.14-1.05-2.16-1.94-2.97-.25-.22-.52-.43-.8-.62-.05-.03-.09,.04-.04,.08h0Z"/><path d="M227.2,27.93c.62,.84,1.06,1.8,1.28,2.83,.06,.29,.11,.59,.13,.88,0,.06,.09,.06,.09,0-.09-1.06-.41-2.09-.94-3.01-.15-.26-.31-.51-.48-.74-.03-.04-.11,0-.08,.04Z"/><path d="M223.39,23.76c-.04-1.17-.4-2.31-1.04-3.28-.18-.28-.38-.54-.61-.78-.04-.04,.03-.1,.06-.06,.4,.44,.73,.93,1,1.46,.26,.53,.46,1.09,.56,1.68,.06,.33,.1,.66,.11,.99,0,.06-.08,.06-.08,0Z"/><path d="M223.03,23.83c-.18-.56-.43-1.1-.75-1.6-.32-.5-.69-.95-1.12-1.35-.25-.23-.52-.44-.8-.62-.04-.03,0-.1,.05-.07,.49,.34,.94,.74,1.33,1.2,.39,.45,.72,.95,.98,1.49,.15,.3,.27,.61,.37,.93,.02,.05-.06,.07-.08,.02h.02Z"/><path d="M222.79,24.12c-.64-.83-1.44-1.51-2.36-2-.26-.14-.53-.27-.8-.38-.05,0-.03-.1,.02-.08,.99,.38,1.89,.97,2.63,1.74,.21,.21,.4,.44,.58,.67,.03,.04-.03,.1-.06,.06h-.01Z"/><path class="o" d="M229.11,25.26l2.49,.28-1.86,1.33-.63-1.61Z"/><path class="o" d="M225.71,19.71l-1.46,1.62,1.83,.39-.36-2.01Z"/><path class="p" d="M75.14,39.86c-.48,.16-.98,.25-1.49,.26-1.53,0-2.29-.8-2.29-2.4,.11-1.2,.32-2.38,.63-3.55l.85-3.78c.36-1.4,.57-2.84,.63-4.29,0-1.34-.54-2-1.6-2-1.2,.11-2.38,.3-3.55,.58,.25,.23,.44,.51,.57,.82,.13,.31,.19,.65,.18,.98,0,1.24-.36,3.41-1.07,6.48l-.48,2.13c-.24,.91-.38,1.84-.44,2.77-.03,.69,.09,1.38,.35,2.03,.26,.64,.65,1.22,1.15,1.71,1.07,.97,2.49,1.48,3.94,1.42,1.54,0,3.2-.5,4.98-1.46-.49-.09-.96-.29-1.37-.59-.41-.3-.74-.68-.98-1.12Z"/><path class="p" d="M72.47,20.26c.87,0,2.54-.92,5.02-2.75,1.56-1.12,2.75-2.68,3.4-4.49-1.31,1.04-2.75,1.9-4.29,2.55-1.82,.84-3.23,1.28-4.2,1.31l-.3-.02c-.35,.77-.52,1.6-.5,2.45,0,.63,.29,.95,.87,.95Z"/><path class="d" d="M82.44,41.19c-1.05,.22-2.12,.33-3.2,.33-.44,0-2.89-.28-3.04,.07-.12,.29-.07,.46,.07,.56,.26,.19,.8,.16,1.14,.18l1.29,.07,3.69,.19,2.8,.12c-.86-.54-1.79-1.04-2.69-1.54h-.06Z"/><path class="d" d="M92.08,42.98h.64c3.79,.12,7.6,.19,11.37,.17,2.6,0,5.23-.04,7.83-.28-5.91-2.91-13.8-2.26-19.85,.12Z"/><path class="m" d="M93.58,39.7c1.01,1.27,2.8,.76,3.8-.26,1.1-.73,.88-2,.86-3.3-.4,.18-.8,.35-1.2,.51-1.24,.5-2.5,.98-3.76,1.43-.06,.56,.04,1.12,.3,1.62Z"/><path class="m" d="M119.81,35.81c-.49-1.1-1.58-2.12-3.38-2.89-.34-.14-.68-.26-1.03-.36-.3,2.78,1.91,3.09,4.41,3.26Z"/><path class="e" d="M115.39,32.55c-1.52-.42-3.1-.59-4.68-.5-4.44,.17-8.46,2.37-12.47,4.1,0,1.31,.24,2.57-.86,3.3-1.01,1.02-2.8,1.52-3.8,.26-.27-.5-.38-1.06-.32-1.62l-1.14,.4c.2-.24,.36-.51,.49-.8,.4-.9-.03-1.93,.26-2.74,.58-1.62,1.82-5.53,1.82-5.53l-4.82,2.71s-2.57-1.05-4.33-.62c-.24-.72-3.69-3.93-3.69-3.93,0,0,.45,5.15,.45,5.17,0,.12-.72,.78-.8,.9-.53,.67-.82,1.5-.8,2.35,.22,2.77,3.67,3.91,6.12,4.12-1.43,.4-2.87,.75-4.33,1.06,.91,.5,1.84,1,2.69,1.54,2.3,.1,4.59,.19,6.89,.26,6.05-2.37,13.93-3.02,19.85-.1,.4-.04,.8-.08,1.2-.13,.83-.07,1.65-.24,2.45-.49,3.47-1.24,5.32-4.03,4.24-6.46-2.49-.16-4.71-.47-4.42-3.25Z"/><path class="j" d="M105.47,15.5c1-1.36,2.33-2.46,3.85-3.2,.57-.27,1.17-.45,1.79-.54,.3-1.53,.77-3.01,1.41-4.43-2.91-.14-5.81,.31-8.54,1.31-.3,2.54-.16,5.25,1.49,6.86Z"/><path class="j" d="M106.07,26.05c-1.5-1.33-2.34-3.48-2.33-5.62-3.04,.4-6-.29-8.2-2.57-.06,.34-.1,.68-.12,1.03-.16,3.69,2.45,6.18,5.73,7.8,1.72,.05,3.43-.03,4.92-.63Z"/><path class="e" d="M111.23,28.1c-1.27-.24-2.51-.61-3.7-1.11-.53-.23-1.03-.54-1.46-.93-1.49,.6-3.2,.68-4.92,.63,2.58,1.22,5.33,2.05,8.16,2.45l.86,.14c.39-.36,.74-.75,1.05-1.18Z"/><path class="d" d="M117.1,28.74c-1.97-.1-3.93-.32-5.87-.65-.31,.43-.67,.82-1.05,1.18,2.29,.4,4.56,.97,6.8,1.56l.13,.03c.48-.64,.91-1.32,1.28-2.03-.42-.02-.86-.06-1.28-.1Z"/><path class="e" d="M126.36,30.29c-2.54-.95-5.28-1.24-7.98-1.45-.37,.71-.8,1.39-1.28,2.03,2.14,.56,4.12,.99,5.66,2.63,1.46-.74,2.7-1.85,3.59-3.21Z"/><path class="d" d="M129.57,38.42c2.91-3.13,.28-6.74-2.89-8l-.32-.12c-.9,1.36-2.14,2.47-3.6,3.2,.09,.1,.18,.21,.28,.31,1.26,1.53,1.18,2.99,.37,4.24,.91,1.01,2.1,1.74,3.42,2.08,1.03-.36,1.97-.95,2.75-1.71Z"/><path class="e" d="M123.41,38.06c-.58,.83-1.34,1.53-2.22,2.04-1.39,.86-3.48,2.03-5.16,2.17,2.95-.19,5.88-.68,8.74-1.45,.66-.19,1.36-.4,2.06-.68-1.32-.34-2.51-1.06-3.42-2.07Z"/><path class="d" d="M103.74,20.42c0-.83,.14-1.66,.4-2.44,.31-.89,.76-1.73,1.33-2.48-1.64-1.62-1.79-4.32-1.49-6.85-1.1,.42-2.14,.97-3.11,1.63-2.49,1.72-4.8,4.51-5.32,7.57,2.19,2.29,5.15,2.97,8.19,2.57Z"/><path class="d" d="M115.7,13.08c1.18-1.77,3.35-2.9,5.6-4-.52-.24-1.05-.45-1.6-.63-2.12-.64-4.31-1.01-6.53-1.1l-.64-.02c-.64,1.42-1.11,2.9-1.41,4.43,1.79-.24,3.32,.43,4.57,1.32Z"/><path class="j" d="M115.7,13.08c.97,.75,1.89,1.57,2.74,2.46,2.08,1.43,4.43-.03,5.82-1.72,1.66-2.03-.88-3.77-2.96-4.73-2.24,1.08-4.42,2.21-5.59,3.98Z"/><path class="m" d="M85.55,31.74c.02-.07,.04-.14,.07-.2h-.06c-.28,.04-.56,.11-.83,.22,0,.41,.05,.82,.13,1.22,.07,.42,.21,.82,.4,1.2-.24-.8,.02-1.65,.28-2.44Z"/><path class="m" d="M86.77,34.82c.09-1.04,.66-2,.76-3.02,0-.09,0-.19,.02-.28-.4-.04-.8-.04-1.2,0,.49,.98,.1,2.22,.42,3.31Z"/><path class="m" d="M103.35,37.68c-.38-.97-.28-2.07-.65-3.05-.03-.09-.07-.18-.1-.27-.38,.14-.74,.32-1.09,.53,.89,.68,1.08,1.96,1.84,2.79Z"/><path class="m" d="M106.64,37.49c-.34-1.36-.03-2.8-.36-4.17-.03-.12-.07-.25-.1-.38-.53,.13-1.04,.3-1.53,.53,1.07,1.06,1.12,2.79,1.99,4.01Z"/><path class="m" d="M88.94,32.02c-.18-.1-.36-.2-.54-.28-.14-.07-.29-.12-.44-.15,0,.05,0,.09,0,.14,0,.24-.05,.49-.12,.72-.21,.82-.32,1.67-.32,2.52,.55-.82,.99-1.71,1.32-2.64,.04-.12,.07-.22,.1-.3Z"/><path class="m" d="M90.31,32.74c.02-.06,.04-.13,.06-.2-.2-.15-.4-.3-.6-.43-.05,.76-.22,1.51-.52,2.21,.45-.45,.81-.99,1.05-1.59Z"/><path class="m" d="M109.66,32.64c-.06-.14-.12-.27-.18-.4-.47,.06-.93,.15-1.39,.25,.98,1.26,1.75,2.66,2.31,4.15,0-1.37-.26-2.72-.74-4Z"/><path class="l" d="M91.24,32.55l2.74-2.26-1.37,3.35-1.37-1.1Z"/><path class="l" d="M82.18,28.55l.48,3.71,1.85-.83-2.33-2.88Z"/><path class="t" d="M82.42,36.3c-.18-.14-.38-.26-.58-.34l-.61-.26c-.4-.17-.82-.34-1.24-.48-.82-.29-1.7-.43-2.57-.4-.49,.03-.97,.11-1.44,.26-.07,0-.03,.12,.04,.1,.82-.25,1.69-.32,2.55-.2,.85,.15,1.68,.4,2.46,.76l.67,.29c.24,.09,.46,.22,.66,.37,.05,.04,.12-.04,.07-.08h0Z"/><path class="t" d="M82.34,37c-.34-.22-.73-.35-1.13-.4-.44-.07-.88-.11-1.32-.12-.45-.02-.91-.02-1.36,.03-.93,.1-1.84,.37-2.67,.8-.06,.03-.02,.14,.04,.1,.77-.39,1.6-.65,2.45-.76,.44-.06,.89-.08,1.33-.06,.44,0,.88,.04,1.32,.1,.45,.04,.89,.18,1.28,.42,.06,.04,.13-.04,.07-.08v-.02Z"/><path class="t" d="M82.06,37.49c-.71-.12-1.43-.11-2.13,.04-.76,.16-1.49,.44-2.16,.84-.4,.23-.78,.49-1.14,.77-.06,.04,0,.13,.06,.09,.63-.49,1.32-.9,2.05-1.2,.67-.28,1.38-.44,2.1-.48,.4-.02,.8,0,1.2,.08,.01,0,.03,0,.04-.01,0,0,.02-.02,.02-.03,0-.01,0-.03,0-.04,0-.01-.02-.02-.03-.02l-.02-.02Z"/><path class="n" d="M86.82,40.12c.94-.25,1.81-.46,2.68-.74,.43-.13,.86-.28,1.3-.43,.43-.15,.86-.33,1.33-.47-.65,.72-1.5,1.25-2.43,1.52-.46,.14-.94,.23-1.43,.26-.49,.04-.98,0-1.44-.14Z"/><path class="t" d="M90.69,36.89c.22-.06,.44-.09,.67-.09h.66c.44,0,.88,0,1.33,.04,.88,.05,1.73,.26,2.53,.62,.44,.22,.85,.48,1.23,.8,.05,.04,0,.12-.08,.08-.66-.56-1.44-.96-2.27-1.17-.84-.2-1.7-.28-2.56-.26h-.73c-.25,0-.51,.02-.75,.08-.01,0-.02,0-.04,0-.01,0-.02-.02-.02-.03,0-.01,0-.02,0-.04s.01-.02,.02-.03Z"/><path class="t" d="M90.5,37.56c.4-.07,.81-.05,1.2,.06,.43,.11,.85,.24,1.26,.4,.43,.15,.84,.34,1.24,.56,.82,.45,1.55,1.05,2.15,1.77,.04,.06-.03,.13-.08,.08-.55-.66-1.22-1.22-1.96-1.66-.38-.22-.78-.41-1.2-.57-.4-.16-.83-.3-1.26-.42-.43-.14-.89-.18-1.34-.1-.07,0-.1-.09-.03-.11h0Z"/><path class="t" d="M90.56,38.13c.7,.16,1.36,.45,1.94,.86,.63,.44,1.2,.98,1.66,1.6,.28,.37,.53,.75,.75,1.15,.04,.06-.06,.12-.09,.06-.39-.7-.86-1.35-1.42-1.92-.51-.52-1.1-.94-1.75-1.26-.36-.18-.74-.31-1.12-.4-.07,0-.04-.12,.03-.1h0Z"/><path class="r" d="M84.43,35.87c0-.18-.06-.36-.17-.5-.11-.14-.27-.25-.44-.3-.15-.03-.31,0-.45,.08-.14,.08-.24,.2-.3,.35-.03,.08-.09,.15-.17,.19-.08,.04-.17,.04-.25,.02-.08-.03-.15-.09-.19-.17-.04-.08-.04-.17-.02-.25,.1-.31,.31-.56,.6-.71,.28-.15,.62-.18,.93-.09,.14,.05,.26,.12,.37,.22,.11,.1,.19,.22,.25,.35,.06,.13,.09,.28,.09,.42,0,.14-.02,.29-.08,.42,0,.02-.02,.04-.04,.05-.02,.01-.04,.01-.06,0-.02,0-.04-.02-.05-.03s-.02-.04-.02-.06h0Z"/><path class="r" d="M87.79,36.28c.15-.3,.4-.55,.7-.7,.3-.15,.64-.2,.97-.15,.14,.03,.27,.09,.39,.17,.12,.08,.22,.19,.3,.31,.08,.12,.13,.26,.15,.4,.02,.14,.02,.29-.01,.43-.1,.36-.65,.17-.55-.19,.1-.36-.27-.6-.56-.63-.47-.04-.8,.32-1.2,.53-.1,.06-.26-.06-.2-.18h0Z"/><path class="k" d="M85.19,37.66c-.08,.25-.09,.51-.04,.77,.05,.26,.16,.5,.33,.7,.16-.05,.3-.16,.38-.31,.08-.15,.1-.32,.05-.49-.13-.35-.24-.7-.34-1.06-.26,.19-.12,.19-.38,.39Z"/><path class="r" d="M85.8,36.65c-.07,.21-.09,.43-.06,.65,.03,.22,.1,.43,.22,.62,.1,.13,.25,.22,.41,.25,.16,.03,.33,0,.47-.09,.16-.13,.4,.1,.22,.24-.19,.15-.43,.22-.67,.2-.24-.02-.47-.14-.63-.32-.4-.44-.3-1.11-.03-1.6h0v-.02s.02,0,.03,0h.03v.02s0,0,0,.01h0v.03Z"/><path class="r" d="M85.72,36.71c0,.22-.06,.44-.17,.63-.1,.19-.25,.36-.43,.49-.17,.1-.36,.13-.55,.09-.19-.04-.35-.15-.46-.31-.12-.2,.2-.37,.32-.17,.12,.2,.47,.18,.67,.06,.24-.22,.42-.49,.53-.8,0,0,.01-.02,.02-.02,0,0,.02,0,.03,0,.01,0,.02,0,.03,.02,0,0,0,.02,0,.03h0Z"/><path class="r" d="M85.6,36.13c.31-.12,1.14-.02,.97,.49-.04,.1-.11,.19-.2,.24-.09,.05-.2,.07-.31,.05-.25-.05-.48-.19-.64-.4-.04-.05-.05-.1-.05-.16,0-.06,.03-.11,.08-.15,.07-.07,.16-.11,.25-.14,.09-.03,.19-.03,.29-.01,.1,.02,.19,.06,.27,.12,.08,.06,.14,.13,.19,.22,.02,.05,.02,.1,0,.15-.02,.05-.05,.09-.09,.12-.04,.03-.1,.04-.15,.03-.05,0-.1-.03-.13-.07-.02-.03-.04-.06-.07-.07-.03-.02-.06-.03-.09-.04-.03,0-.07,0-.1,0-.03,0-.06,.02-.09,.04l.03-.31c.07,.1,.16,.18,.26,.24,.03,0,.2,.09,.21,0,0-.09-.22-.12-.26-.14-.12-.03-.24-.05-.36-.05-.1,0-.11-.15-.02-.18v.02Z"/></g></g></svg>