<svg width="213" height="203" viewBox="0 0 213 203" fill="none" xmlns="http://www.w3.org/2000/svg">
<path d="M82.0152 109.468L43.0039 141.356C39.0002 127.357 33.3216 114.025 30.4458 100.292C28.2966 90.0246 28.4428 79.3867 31.2501 69.2929C32.6001 64.4354 34.3779 60.2487 36.3918 56.6461C43.8979 43.2198 60.3306 37.6768 74.6119 43.5091C85.5137 47.9601 97.8115 49.8009 102.745 50.4004C102.769 50.4039 102.795 50.4087 102.819 50.4101C104.03 50.5906 104.768 50.6333 104.933 50.6401C104.955 50.6422 104.967 50.6413 104.967 50.6413C104.967 50.6413 101.796 64.6984 99.6573 78.6004C97.8014 90.6516 91.5039 101.71 82.0144 109.465L82.0152 109.468Z" fill="white"/>
<path d="M43.006 141.358L58.5179 93.4232C62.2895 81.7659 70.2974 71.8763 80.8525 65.7618C93.0266 58.709 104.969 50.6427 104.969 50.6427C104.969 50.6427 109.824 61.8912 125.095 72.3179C128.06 74.3419 131.206 76.4776 134.312 78.8911C160.202 99.0058 153.929 139.697 123.236 151.038C81.0446 166.628 59.5959 150.78 43.0039 141.356L43.006 141.358Z" fill="#F2F2F2"/>
<path d="M43.006 141.358L58.52 93.4243C62.2928 81.765 70.2974 71.8761 80.8546 65.7629C92.8379 58.8215 104.596 50.8967 104.962 50.6494C91.63 61.6651 68.7576 66.5191 58.6156 102.294C54.8295 115.645 49.7613 128.593 43.2747 140.855L43.0093 141.357L43.006 141.358Z" fill="#DDDDDD"/>
<g style="mix-blend-mode:screen" opacity="0.8">
<path d="M132.69 146.14C151.273 129.688 152.015 98.6643 130.457 81.9145C127.352 79.4989 124.204 77.3652 121.239 75.3412C105.968 64.9145 101.112 53.668 101.112 53.668C101.112 53.668 101.098 53.6677 101.078 53.6668C100.915 53.6493 100.167 53.5806 98.9644 53.4368L98.8903 53.4272C93.9565 52.8276 81.6587 50.9869 70.7569 46.5358C61.0757 42.5808 50.4062 43.8547 42.2 49.2686C50.7024 41.3971 63.3298 38.9066 74.6126 43.5124C85.5144 47.9635 97.8122 49.8042 102.746 50.4037C102.77 50.4072 102.795 50.412 102.82 50.4134C104.022 50.5538 104.77 50.6258 104.934 50.6434C104.956 50.6456 104.968 50.6446 104.968 50.6446C104.968 50.6446 109.821 61.8952 125.092 72.3219C128.057 74.3458 131.204 76.4816 134.311 78.8931C157.277 96.7323 154.935 130.77 132.689 146.142L132.69 146.14Z" fill="white"/>
</g>
<path d="M114.552 80.2149L114.538 80.2374C113.958 81.0822 112.792 81.2957 111.949 80.7006C102.528 74.0503 96.9252 66.3598 94.3636 62.235C93.5989 61.008 92.4734 60.0798 91.154 59.5587C92.3901 58.7907 93.5783 58.0441 94.7067 57.3284C95.815 58.1113 96.763 59.1163 97.5017 60.2982C99.9124 64.1761 105.184 71.4144 114.069 77.6832C114.889 78.2607 115.104 79.3814 114.552 80.2149Z" fill="#A6A6A6"/>
<path d="M94.7067 57.3285C93.5783 58.0441 92.3901 58.7907 91.154 59.5587C90.6699 59.3674 90.1596 59.2312 89.6321 59.1586C84.9202 58.4845 78.337 57.1782 72.5986 54.7111C71.6232 54.2898 71.1954 53.1467 71.6611 52.1958C72.0865 51.3224 73.1303 50.9225 74.0282 51.312C79.7209 53.7561 86.4478 54.9756 90.145 55.5041C91.8168 55.7441 93.3736 56.375 94.7067 57.3285Z" fill="#DDDDDD"/>
<path d="M67.3961 88.6024C67.5918 88.1336 68.1333 87.9117 68.6049 88.1092L115.708 107.837C116.179 108.035 116.4 108.575 116.206 109.045C116.011 109.514 115.469 109.736 114.998 109.538L67.8948 89.8103C67.4233 89.6128 67.2024 89.0726 67.3961 88.6024Z" fill="#DDDDDD"/>
<path d="M116.045 109.292C115.791 109.585 115.37 109.688 114.996 109.537L67.8928 89.8091C67.5164 89.6515 67.299 89.2738 67.3282 88.8916L116.045 109.292Z" fill="white"/>
<path d="M55.1051 128.902C55.1412 128.396 55.5811 128.012 56.0916 128.048L92.8982 132.7C93.4073 132.738 93.7917 133.178 93.7542 133.687C93.7181 134.194 93.2782 134.577 92.7678 134.541L55.9612 129.889C55.452 129.851 55.0677 129.411 55.1051 128.902Z" fill="#DDDDDD"/>
<path d="M93.6843 133.975C93.5388 134.332 93.1737 134.566 92.7691 134.539L55.9625 129.887C55.557 129.857 55.2297 129.568 55.1335 129.198L93.6823 133.974L93.6843 133.975Z" fill="white"/>
<path d="M60.5451 83.3433C60.9577 83.0486 61.0696 82.481 60.7984 82.075L43.2113 55.3081C42.9402 54.9022 42.3873 54.8107 41.9747 55.1054C41.5621 55.4001 41.4502 55.9678 41.7214 56.3737L59.3085 83.1406C59.5797 83.5465 60.1325 83.638 60.5451 83.3433Z" fill="#DDDDDD"/>
<path d="M41.7689 55.3132C41.5369 55.6217 41.5108 56.0489 41.7248 56.3729L59.3118 83.1398C59.5291 83.4631 59.9262 83.5879 60.285 83.4738L41.7689 55.3132Z" fill="white"/>
<path d="M24.8146 85.1327C25.0973 84.2265 25.435 83.3921 25.8278 82.6384C29.0431 76.4658 36.1029 75.8005 42.579 81.4353C49.741 87.6864 52.3013 98.5192 48.3384 105.662C44.6728 112.126 37.7361 114.063 32.1954 110.57C31.6509 110.229 31.1206 109.834 30.5994 109.379C24.7418 104.272 22.161 93.426 24.8133 85.1348L24.8146 85.1327Z" fill="#F2F2F2"/>
<path d="M23.2336 85.5166C25.3592 78.0778 32.2775 77.0283 39.2494 82.4953C47.3326 88.8359 48.526 98.0241 45.1954 104.447C41.8046 110.83 34.6462 112.191 29.196 107.479C23.6732 102.718 21.0122 92.8893 23.2336 85.5166Z" fill="#A6A6A6"/>
<path d="M23.2334 85.5165C25.2923 78.3103 31.8595 76.6727 37.9137 81.8723C43.8927 87.0186 46.2003 96.3037 43.0828 102.621C39.9071 108.899 33.3228 110.523 28.3778 106.25C23.3747 101.937 21.0814 92.6611 23.2321 85.5185L23.2334 85.5165Z" fill="#DDDDDD"/>
<path d="M24.8532 86.9058C25.9237 83.3944 28.2305 81.4393 30.9873 81.314C32.2714 81.269 33.6513 81.608 35.0307 82.3474C35.7553 82.7391 36.4792 83.2362 37.1864 83.846C42.1399 88.1101 44.083 95.9114 41.5285 101.273C39.7967 104.842 36.7174 106.604 33.6265 106.31C32.1115 106.18 30.5812 105.535 29.1769 104.322C28.5679 103.797 28.0127 103.191 27.5129 102.521C24.4714 98.4796 23.2519 92.0025 24.8512 86.9045L24.8532 86.9058Z" fill="#F2F2F2"/>
<path d="M35.0307 82.3473C35.7553 82.739 36.4792 83.2361 37.1864 83.8459C42.1399 88.11 44.083 95.9112 41.5285 101.273C39.7967 104.842 36.7174 106.604 33.6265 106.31C35.3153 105.819 36.9564 105.041 38.4884 103.99C39.5828 103.256 40.6843 102.274 41.0237 100.72C41.2133 99.8292 41.1212 98.8265 41.2842 97.9191C41.3761 97.3876 41.556 96.903 41.6595 96.3759C41.7926 95.6929 41.7952 94.9532 41.7359 94.2117C41.3714 90.1806 39.1115 86.0002 36.1145 83.75C35.8336 83.5411 35.5393 83.3353 35.3166 83.0115C35.1776 82.8093 35.085 82.5791 35.032 82.3452L35.0307 82.3473Z" fill="#FEFEFE"/>
<path d="M24.8532 86.9058C25.9237 83.3944 28.2305 81.4393 30.9873 81.314C29.8446 82.3927 28.4713 83.1055 27.396 84.2955C24.9742 87.0366 24.2252 92.6858 26.1076 97.0599C26.3331 97.5973 26.5976 98.1135 26.7534 98.6841C26.9311 99.3516 26.951 100.051 27.0518 100.736C27.1375 101.354 27.2975 101.959 27.5129 102.521C24.4714 98.4796 23.2519 92.0025 24.8512 86.9045L24.8532 86.9058Z" fill="#FEFEFE"/>
<path d="M27.0629 88.8047C27.8995 86.2448 29.6304 84.8248 31.6626 84.7256C32.6074 84.6868 33.6138 84.9272 34.6183 85.4613C35.1457 85.7429 35.6698 86.1024 36.1826 86.5436C39.7765 89.6372 41.2125 95.4039 39.388 99.4237C38.1551 102.103 35.9014 103.424 33.6006 103.191C32.4686 103.086 31.3207 102.593 30.2594 101.676C29.7989 101.28 29.3812 100.824 29.002 100.321C26.7112 97.2979 25.8229 92.521 27.0621 88.8014L27.0629 88.8047Z" fill="#A6A6A6"/>
<path d="M27.9501 89.5654C28.6828 87.3834 30.1777 86.1693 31.9199 86.0844C32.727 86.0503 33.5879 86.2533 34.4437 86.705C34.8914 86.9448 35.3382 87.2498 35.7746 87.6255C38.8326 90.2605 40.0668 95.2071 38.5246 98.6754C37.484 100.986 35.5584 102.129 33.5783 101.923C32.6052 101.83 31.6122 101.4 30.6932 100.608C30.2959 100.266 29.931 99.872 29.606 99.4378C27.6256 96.8307 26.8676 92.7371 27.9514 89.5633L27.9501 89.5654Z" fill="#E3E3E3"/>
<path d="M142.435 110.618C142.19 110.583 142.005 110.367 142.023 110.12C142.075 109.389 141.996 108.661 141.789 107.949C141.708 107.669 141.605 107.392 141.484 107.124L141.248 106.603C141.139 106.362 141.247 106.078 141.488 105.97C141.728 105.861 142.013 105.969 142.122 106.21L142.357 106.731C142.496 107.038 142.614 107.359 142.708 107.682C142.946 108.499 143.036 109.334 142.978 110.174C142.961 110.452 142.708 110.656 142.431 110.618L142.435 110.618Z" fill="#9C9B9B"/>
<path d="M119.052 147.843C119.033 147.597 119.208 147.373 119.454 147.339C120.182 147.238 120.878 147.013 121.533 146.665C121.792 146.528 122.314 146.214 122.549 146.042L123.01 145.706C123.223 145.551 123.523 145.598 123.68 145.812C123.838 146.026 123.79 146.324 123.577 146.479L123.116 146.815C122.845 147.013 122.284 147.351 121.986 147.51C121.235 147.908 120.437 148.169 119.601 148.285C119.324 148.325 119.072 148.12 119.053 147.841L119.052 147.843Z" fill="#9C9B9B"/>
<path d="M159.681 143.958C146.075 149.005 132.59 150.095 121.01 147.285C120.631 147.444 120.253 147.598 119.87 147.742C131.605 150.77 145.362 149.745 159.244 144.595C167.918 141.378 175.734 136.896 182.477 131.274C185.58 128.685 189.848 124.705 192.838 120.242C189.877 124.446 185.866 128.173 182.912 130.636C176.171 136.259 168.353 140.739 159.679 143.957L159.681 143.958Z" fill="#A17828"/>
<path d="M167.733 107.084C169.48 106.71 171.374 106.14 173.382 105.539C179.116 103.813 185.611 101.867 190.153 104.105C192.55 105.284 194.212 107.57 194.383 109.922C194.605 112.89 193.247 116.062 191.267 119.03C193.477 115.884 195.056 112.467 194.82 109.285C194.65 106.93 192.988 104.645 190.589 103.468C186.05 101.231 179.553 103.176 173.818 104.902C171.812 105.501 169.916 106.069 168.17 106.447C160.173 108.169 151.048 109.843 142.336 108.503C142.391 108.744 142.447 108.986 142.495 109.228C151.028 110.402 159.921 108.768 167.735 107.085L167.733 107.084Z" fill="#A17828"/>
<path d="M196.381 109.686C196.153 106.611 194.125 103.765 191.086 102.267C185.867 99.6956 178.971 101.764 172.892 103.59C170.921 104.182 169.063 104.738 167.397 105.097C159.485 106.798 150.448 108.456 141.97 107.076C142.107 107.549 142.224 108.023 142.333 108.499C151.047 109.836 160.172 108.165 168.167 106.442C169.914 106.068 171.808 105.498 173.816 104.897C179.55 103.171 186.045 101.225 190.587 103.463C192.984 104.642 194.646 106.928 194.817 109.28C195.053 112.462 193.476 115.88 191.264 119.026L191.225 119.087C188.198 123.604 183.738 127.639 181.244 129.714C174.684 135.186 167.078 139.548 158.628 142.684C146.13 147.317 133.765 148.524 122.992 146.356C122.342 146.687 121.68 146.996 121.008 147.279C132.589 150.086 146.075 148.997 159.679 143.951C168.354 140.734 176.169 136.252 182.913 130.63C185.867 128.168 189.878 124.439 192.838 120.237L192.904 120.142C195.134 116.792 196.637 113.177 196.381 109.683L196.381 109.686Z" fill="#FFCD4F"/>
<path d="M54.3205 46.0144C54.3804 46.2554 54.2456 46.5052 54.0096 46.5794C53.3081 46.8004 52.6601 47.1411 52.0761 47.5938C51.846 47.772 51.6259 47.9707 51.4235 48.1778L51.0266 48.5883C50.8433 48.7788 50.5402 48.7821 50.3493 48.5986C50.1584 48.4151 50.1547 48.1122 50.3381 47.9217L50.7349 47.5112C50.9701 47.2704 51.2224 47.0433 51.4901 46.8374C52.1624 46.3174 52.9046 45.9275 53.7087 45.671C53.9741 45.5867 54.2591 45.7438 54.3259 46.0149L54.3205 46.0144Z" fill="#9C9B9B"/>
<path d="M97.113 45.1954C95.7888 46.4343 94.4352 47.6518 93.0642 48.8468C92.9128 48.8142 92.7568 48.7843 92.5987 48.7532C91.9879 48.6308 91.3648 48.5007 90.7241 48.3623C92.4567 46.8804 94.1516 45.3632 95.808 43.8161C99.7049 40.169 103.511 36.1438 105.318 31.2746C105.321 31.2705 105.323 31.2631 105.324 31.2611C105.53 30.7039 105.715 30.1339 105.864 29.5526C106.596 26.7352 106.333 24.6054 105.068 23.2258C103.113 21.0869 98.5438 20.4598 92.2018 21.4639C81.7846 23.1147 71.7022 26.2649 62.2441 30.8281C58.7891 32.4904 55.3096 34.4549 53.2407 37.5361C52.9111 38.0263 52.6387 38.5212 52.4162 39.019C51.7543 40.4986 51.5402 41.9863 51.6634 43.3348C51.7178 43.9388 51.8381 44.5156 52.013 45.0468C52.2135 45.66 52.4905 46.2156 52.8208 46.696C52.4555 46.8975 52.1211 47.1185 51.8169 47.3414C51.6203 47.4892 51.4385 47.632 51.2766 47.7702C50.781 47.0795 50.421 46.3284 50.1732 45.5451C50.0255 45.0797 49.9225 44.6026 49.853 44.1179C49.5706 42.1135 49.9401 40.0028 50.7294 38.1943C50.7333 38.1881 50.7351 38.1807 50.7416 38.1705C51.0038 37.569 51.3186 36.9979 51.6671 36.4823C53.9814 33.0351 57.7137 30.9155 61.399 29.1382C71.0318 24.4935 81.2896 21.288 91.8841 19.6061C96.8343 18.8222 103.38 18.5937 106.464 21.969C108.186 23.8549 108.601 26.5755 107.697 30.046C107.524 30.6923 107.326 31.3231 107.103 31.9404C107.101 31.9479 107.097 31.954 107.093 31.9602C105.156 37.171 101.183 41.3916 97.1138 45.1987L97.113 45.1954Z" fill="#A17828"/>
<path d="M97.4146 44.4413C95.8435 45.9078 94.2394 47.3449 92.6023 48.7526C91.9915 48.6302 91.3684 48.5001 90.7276 48.3616C92.4603 46.8798 94.1551 45.3626 95.8115 43.8154C99.7085 40.1683 103.514 36.1432 105.322 31.274C105.324 31.2699 105.326 31.2624 105.328 31.2604C105.665 30.463 105.945 29.6468 106.166 28.8018C106.9 25.9824 106.635 23.8546 105.373 22.4709C103.418 20.332 98.8475 19.707 92.5054 20.7111C82.0929 22.3591 72.0059 25.512 62.5457 30.074C59.0928 31.7376 55.6153 33.7033 53.5477 36.7825C53.0489 37.518 52.6823 38.2711 52.4231 39.0176C51.9184 40.4706 51.8335 41.9081 52.0464 43.1874C52.1503 43.8082 52.3286 44.3931 52.5613 44.9235C52.8052 45.4725 53.1094 45.9623 53.4635 46.3777C53.2449 46.4743 53.031 46.5768 52.8256 46.6933C52.4604 46.8948 52.1259 47.1158 51.8217 47.3387C51.3384 46.733 50.9667 46.0776 50.691 45.3883C50.5015 44.9166 50.3572 44.4277 50.2572 43.9323L50.2551 43.931C49.8657 42.0279 50.0921 39.9985 50.7363 38.1929C50.7402 38.1867 50.742 38.1793 50.7485 38.1691C51.0107 37.5676 51.3255 36.9965 51.674 36.4809C53.9883 33.0337 57.7206 30.9141 61.4059 29.1368C71.032 24.4936 81.2898 21.2881 91.8843 19.6062C96.8345 18.8223 103.381 18.5938 106.464 21.9691C108.186 23.855 108.601 26.5756 107.697 30.0461C107.524 30.6924 107.326 31.3232 107.103 31.9405C107.101 31.948 107.097 31.9541 107.093 31.9603C105.065 36.8301 101.285 40.823 97.4153 44.4446L97.4146 44.4413Z" fill="#FFCD4F"/>
</svg>
