<?xml version="1.0" encoding="UTF-8"?><svg xmlns="http://www.w3.org/2000/svg" xmlns:xlink="http://www.w3.org/1999/xlink" viewBox="0 0 73.63 70.18"><defs><style>.w{fill:url(#u);}.x{fill:url(#t);}.y{fill:url(#v);}.a`{fill:url(#g);}.aa{fill:url(#f);}.ab{fill:url(#p);}.ac{fill:url(#o);}.ad{fill:url(#s);}.ae{fill:url(#q);}.af{fill:url(#r);}.ag{fill:url(#i);}.ah{fill:url(#h);}.ai{fill:url(#k);}.aj{fill:url(#j);}.ak{fill:url(#m);}.al{fill:url(#l);}.am{fill:url(#n);}</style><linearGradient id="f" x1="-1314.28" y1="-575.24" x2="-1313.28" y2="-575.24" gradientTransform="translate(35194.69 -15358.37) scale(26.76 -26.76)" gradientUnits="userSpaceOnUse"><stop offset="0" stop-color="#ffc696"/><stop offset=".1" stop-color="#ffc696"/><stop offset=".66" stop-color="#ee9c26"/><stop offset="1" stop-color="#ee9c26"/></linearGradient><linearGradient id="g" x1="-1816.09" y1="-486.7" x2="-1815.09" y2="-486.7" gradientTransform="translate(7126.12 -1887.7) scale(3.91 -3.91)" xlink:href="#f"/><linearGradient id="h" x1="-1953.19" y1="-462.51" x2="-1952.19" y2="-462.51" gradientTransform="translate(6220.73 -1406.53) scale(3.17 -3.17)" xlink:href="#f"/><linearGradient id="i" x1="-1411.27" y1="-558.13" x2="-1410.27" y2="-558.13" gradientTransform="translate(17728.96 -6974.05) scale(12.56 -12.56)" xlink:href="#f"/><linearGradient id="j" x1="-1438.67" y1="-553.29" x2="-1437.67" y2="-553.29" gradientTransform="translate(15764.14 -6007.46) scale(10.92 -10.92)" xlink:href="#f"/><linearGradient id="k" x1="-1443.83" y1="-552.38" x2="-1442.83" y2="-552.38" gradientTransform="translate(15402.3 -5871.21) scale(10.66 -10.66)" xlink:href="#f"/><linearGradient id="l" x1="-1469.97" y1="-547.77" x2="-1468.97" y2="-547.77" gradientTransform="translate(14019.17 -5189.83) scale(9.5 -9.5)" xlink:href="#f"/><linearGradient id="m" x1="-1535.31" y1="-536.24" x2="-1534.31" y2="-536.24" gradientTransform="translate(11500.15 -3956.38) scale(7.48 -7.48)" xlink:href="#f"/><linearGradient id="n" x1="-1436.66" y1="-553.65" x2="-1435.66" y2="-553.65" gradientTransform="translate(15891.2 -6052.35) scale(11.03 -11.03)" xlink:href="#f"/><linearGradient id="o" x1="-1352.75" y1="-568.45" x2="-1351.75" y2="-568.45" gradientTransform="translate(24989.06 -10453.48) scale(18.47 -18.47)" xlink:href="#f"/><linearGradient id="p" x1="-1354.48" y1="-568.15" x2="-1353.48" y2="-568.15" gradientTransform="translate(24677.87 -10329.37) scale(18.22 -18.22)" xlink:href="#f"/><linearGradient id="q" x1="-1492.9" y1="-543.72" x2="-1491.9" y2="-543.72" gradientTransform="translate(12979.42 -4710.12) scale(8.68 -8.68)" xlink:href="#f"/><linearGradient id="r" x1="-1507.32" y1="-541.18" x2="-1506.32" y2="-541.18" gradientTransform="translate(12448.95 -4445.36) scale(8.23 -8.23)" xlink:href="#f"/><linearGradient id="s" x1="-1360.66" y1="-567.06" x2="-1359.66" y2="-567.06" gradientTransform="translate(23683.58 -9821.94) scale(17.37 -17.37)" xlink:href="#f"/><linearGradient id="t" x1="-1359.77" y1="-567.21" x2="-1358.77" y2="-567.21" gradientTransform="translate(23832.63 -9872.33) scale(17.49 -17.49)" xlink:href="#f"/><linearGradient id="u" x1="-1491.02" y1="-544.05" x2="-1490.02" y2="-544.05" gradientTransform="translate(13077.04 -4696.05) scale(8.74 -8.74)" xlink:href="#f"/><linearGradient id="v" x1="-1497.51" y1="-542.91" x2="-1496.51" y2="-542.91" gradientTransform="translate(12799.64 -4569.58) scale(8.53 -8.53)" xlink:href="#f"/></defs><g id="a"/><g id="b"><g id="c"><g id="d"><g id="e"><path class="aa" d="M48.28,33.4c-2.71-.17-5.46-.04-8.2,.1,1.47-1.67,2.85-3.48,3.45-5.42,.17-.57-.49-1.05-.98-.75-2.13,1.26-3.86,3.34-5.55,5.28-.21-2.23-.49-4.46-.9-6.67-.24-1.32-2.17-.92-2.23,.3-.07,1.41-.09,2.82-.08,4.23-1.59-1.24-3.21-2.42-4.86-3.54-1.1-.74-2.2,.86-1.36,1.76,1.62,1.75,3.34,3.44,5.11,5.09-3.04,.1-6.1,.28-9.08,.85-.73,.14-.73,1.32,0,1.46,2.79,.53,5.8,.86,8.86,1.04-2.06,1.84-4.19,3.7-5.73,5.81-.92,1.26,.79,2.5,1.94,1.94,1.96-.95,3.76-2.73,5.4-4.58,.07,1.75,.24,3.49,.82,4.98,.46,1.19,2.41,1.5,2.73,0,.48-2.25,.15-4.76-.13-7.15,2.25,1.97,4.51,3.91,6.73,5.86,1.58,1.39,3.87-.85,2.33-2.33-1.58-1.51-3.19-3.03-4.84-4.52,2.41-.13,4.77-.35,6.99-.71,1.82-.29,1.23-2.94-.41-3.04Z"/><path class="a`" d="M36.87,17.95c-.81-3.48-.92-6.86-1.29-10.39-.11-1.09-1.62-1.4-1.96-.27-1.1,3.62-.55,7.84,.34,11.46,.46,1.89,3.36,1.09,2.91-.8Z"/><path class="ah" d="M38.29,58.61c-.19-1.62-.32-3.24-.6-4.85-.18-1.02-1.9-1.03-2.06,0-.25,1.61-.2,3.23-.19,4.85,.01,1.35-.13,2.76,.46,4,.57,1.19,2.08,.63,2.48-.32,.46-1.11,.04-2.54-.09-3.68Z"/><path class="ag" d="M18.36,33.16c-3.46-.47-7.57,.19-10.96,1.03-.75,.18-.77,1.35,0,1.53,3.38,.77,7.55,.71,10.96,.2,1.36-.2,1.38-2.57,0-2.75Z"/><path class="aj" d="M63.53,32.99c-1.26-.5-2.73,.26-4.01,.5-1.64,.32-3.35,.46-5.02,.43-1.16-.02-1.42,1.76-.27,2.03,1.89,.44,3.75,.59,5.68,.4,1.56-.16,3.4-.22,4.33-1.63,.46-.69-.04-1.47-.71-1.73Z"/><path class="ai" d="M23.12,19.85c-2.95-2.9-5.81-5.78-8.6-8.83-.75-.83-2.12,.25-1.54,1.19,2.23,3.59,5.08,7.25,8.44,9.84,1.28,.99,2.8-1.11,1.7-2.2Z"/><path class="al" d="M55.52,11.9c-2.58,2.25-4.86,4.82-7.45,7.07-1.44,1.26,.64,3.28,2.08,2.08,2.63-2.18,5.05-5.12,6.8-8.05,.55-.92-.67-1.76-1.43-1.1Z"/><path class="ak" d="M22.89,51.64c-.18-.47-.61-.95-1.18-.89-1.63,.17-2.11,1.96-2.98,3.16-.96,1.34-2.28,2.46-3.13,3.87-.35,.58,.23,1.45,.92,1.2,1.59-.57,2.86-1.94,3.98-3.16,.92-.99,2.94-2.71,2.37-4.18Z"/><path class="am" d="M61.7,53.92c-1.49-1.14-3.07-2.15-4.6-3.23-1.3-.92-2.72-2.64-4.33-2.86-.87-.12-1.92,.54-1.56,1.56,.58,1.69,2.45,2.56,3.89,3.47,1.84,1.17,3.74,2.23,5.76,3.06,1.26,.52,1.75-1.33,.85-2.01Z"/><path class="ac" d="M16.38,42.35c-5.26,2.75-10.82,5.31-15.8,8.53-.72,.47-.27,1.68,.6,1.42,5.75-1.73,11.49-4.45,16.75-7.31,1.74-.95,.2-3.55-1.54-2.64Z"/><path class="ab" d="M17.52,24.48c-2.85-2.08-6.08-3.69-9.24-5.25-2-.98-5.6-3.43-7.87-2.65-.26,.09-.5,.38-.38,.67,.86,2.12,3.95,2.98,5.85,4.01,3.43,1.86,6.71,3.94,10.08,5.9,1.77,1.03,3.16-1.53,1.57-2.69Z"/><path class="ae" d="M29.39,17.13c-1.52-5.7-4.08-11.48-6.87-16.67-.5-.94-2.01-.29-1.71,.72,1.68,5.6,3.46,11.34,5.67,16.75,.71,1.75,3.42,1.13,2.9-.8Z"/><path class="af" d="M48.45,1.79c-1.15,2.24-2.18,4.52-3.24,6.81-1.04,2.25-2.47,4.35-3.46,6.61-.57,1.3,.93,2.71,2.06,1.59,1.48-1.49,2.32-3.72,3.11-5.63,1.19-2.87,2.21-5.76,2.92-8.78,.19-.81-.98-1.38-1.39-.58Z"/><path class="ad" d="M69.03,23.17c-2.19-.23-5,1.21-7.11,1.78-2.85,.77-5.75,1.33-8.62,1.99-1.84,.42-1.02,3.04,.76,2.76,3.21-.49,6.37-1.48,9.44-2.51,1.89-.63,4.89-1.37,6.04-3.14,.26-.4-.09-.84-.5-.88Z"/><path class="x" d="M73.41,47.83c-1.95-1.39-4.76-1.88-7.02-2.6-2.75-.88-6.08-2.5-8.99-2.43-1.29,.03-1.74,1.71-.65,2.39,2.46,1.54,6.16,1.85,8.97,2.45,2.35,.51,5.15,1.46,7.57,1.04,.44-.08,.4-.65,.11-.85Z"/><path class="w" d="M48.62,60.46c-1.07-2.51-2.31-5.94-4.4-7.75-.99-.86-2.45-.04-2.17,1.26,.53,2.49,2.42,4.84,3.6,7.1,1.18,2.27,2.09,4.85,3.71,6.83,.46,.56,1.41,.09,1.39-.58-.06-2.4-1.21-4.68-2.14-6.87Z"/><path class="y" d="M29.05,55.31c-2.05,4.26-4.87,9.18-5.57,13.89-.1,.66,.71,1.37,1.26,.73,3.11-3.64,4.9-8.76,7.08-13,.94-1.84-1.87-3.47-2.77-1.62Z"/></g></g></g></g></svg>