<svg width="978" height="674" viewBox="0 0 978 674" fill="none" xmlns="http://www.w3.org/2000/svg">
<g clip-path="url(#clip0_1085_5904)">
<g opacity="0.5">
<g opacity="0.5">
<path d="M318.426 281.062C313.248 283.244 313.87 288.821 310.813 295.309C306.329 304.826 309.77 310.22 314.458 309.789C319.146 309.358 320.969 302.953 325.612 301.25C325.626 301.244 325.641 301.24 325.655 301.234C325.669 301.228 325.682 301.222 325.698 301.217C330.274 299.326 335.68 302.911 339.489 300.029C343.299 297.147 342.504 290.722 333.133 286.607C326.745 283.801 323.706 279.169 318.426 281.064V281.062Z" fill="#2782A1"/>
<path d="M304.357 281.939C308.735 284.959 310.772 289.793 308.906 292.738C307.039 295.683 301.977 295.62 297.599 292.601C293.221 289.581 291.184 284.747 293.05 281.802C294.917 278.857 299.979 278.92 304.357 281.939Z" fill="#2782A1"/>
<path d="M329.596 272.097C328.19 277.372 329.694 282.414 332.954 283.36C336.215 284.304 339.997 280.795 341.403 275.52C342.808 270.245 341.305 265.204 338.044 264.257C334.784 263.313 331.002 266.822 329.596 272.097Z" fill="#2782A1"/>
<path d="M311.882 267.112C314.699 272.081 314.493 277.646 311.421 279.541C308.349 281.436 303.575 278.941 300.757 273.972C297.94 269.003 298.146 263.438 301.218 261.544C304.29 259.649 309.064 262.143 311.882 267.112Z" fill="#2782A1"/>
<path d="M314.591 266.056C315.591 271.735 319.246 275.795 322.755 275.123C326.265 274.45 328.3 269.303 327.302 263.624C326.302 257.946 322.647 253.886 319.138 254.558C315.628 255.23 313.593 260.378 314.591 266.056Z" fill="#2782A1"/>
<path d="M924.204 39.9764C927.907 35.6186 924.972 30.9139 924.939 23.6855C924.892 13.0809 919.506 9.84981 915.495 12.4128C911.481 14.9757 912.583 21.5575 909.152 25.2393C909.142 25.2511 909.131 25.2629 909.121 25.2726C909.111 25.2844 909.101 25.2962 909.089 25.3079C905.799 29.1269 899.427 28.4254 897.247 32.7734C895.067 37.1234 898.522 42.508 908.668 41.8418C915.585 41.3872 920.282 44.1245 924.202 39.9764H924.204Z" fill="#2782A1"/>
<path d="M936.426 32.6578C931.217 31.9876 927.329 28.6037 927.745 25.1021C928.158 21.5986 932.719 19.3021 937.928 19.9742C943.137 20.6444 947.025 24.0283 946.609 27.5299C946.196 31.0334 941.635 33.3279 936.426 32.6578V32.6578Z" fill="#2782A1"/>
<path d="M918.028 53.1889C917.034 47.8122 913.536 43.9951 910.213 44.6633C906.89 45.3315 905.002 50.2301 905.994 55.6068C906.988 60.9836 910.485 64.7986 913.809 64.1324C917.132 63.4642 919.02 58.5656 918.028 53.1889Z" fill="#2782A1"/>
<path d="M936.018 49.4268C931.374 46.2858 929.184 41.2069 931.125 38.0835C933.066 34.9601 938.406 34.9758 943.049 38.1168C947.694 41.2578 949.884 46.3367 947.943 49.4601C946.002 52.5834 940.661 52.5678 936.018 49.4248V49.4268Z" fill="#2782A1"/>
<path d="M934.042 51.6312C930.723 47.0108 925.717 45.0729 922.861 47.3047C920.004 49.5366 920.38 55.0916 923.698 59.712C927.017 64.3324 932.023 66.2703 934.879 64.0385C937.736 61.8066 937.359 56.2516 934.042 51.6312Z" fill="#2782A1"/>
<path d="M951.693 336.224C946.192 335.232 943.9 340.311 938.024 344.146C929.403 349.769 929.603 356.243 933.803 358.456C938.004 360.666 942.792 356.226 947.598 357.331C947.613 357.335 947.627 357.339 947.643 357.341C947.658 357.343 947.672 357.347 947.688 357.349C952.533 358.256 955.315 364.277 960.006 363.921C964.7 363.566 967.272 357.668 961.389 349.019C957.379 343.123 957.138 337.515 951.693 336.224V336.224Z" fill="#2782A1"/>
<path d="M939.295 329.234C941.49 334.207 940.777 339.435 937.703 340.911C934.628 342.386 930.358 339.551 928.162 334.578C925.966 329.605 926.68 324.377 929.754 322.901C932.829 321.426 937.099 324.261 939.295 329.234Z" fill="#2782A1"/>
<path d="M965.716 334.746C961.855 338.456 960.585 343.568 962.879 346.164C965.173 348.76 970.161 347.857 974.021 344.146C977.881 340.437 979.152 335.324 976.858 332.728C974.566 330.132 969.576 331.035 965.716 334.746Z" fill="#2782A1"/>
<path d="M953.182 320.773C953.064 326.546 950.078 331.161 946.51 331.082C942.941 331.004 940.146 326.26 940.261 320.487C940.379 314.715 943.367 310.1 946.933 310.179C950.501 310.257 953.297 315.001 953.182 320.773Z" fill="#2782A1"/>
<path d="M956.019 321.365C953.997 326.74 955.054 332.199 958.375 333.559C961.698 334.917 966.029 331.662 968.049 326.285C970.07 320.911 969.013 315.452 965.692 314.094C962.369 312.736 958.038 315.99 956.019 321.367V321.365Z" fill="#2782A1"/>
<path d="M698.716 235.953C701.773 240.828 706.896 239.111 713.591 240.983C723.412 243.728 727.82 239.16 726.506 234.448C725.192 229.735 718.814 229.108 716.313 224.688C716.305 224.674 716.297 224.66 716.289 224.647C716.281 224.633 716.274 224.619 716.264 224.608C713.597 220.293 715.925 214.066 712.476 210.727C709.027 207.388 703.137 209.445 701.081 219.83C699.679 226.91 695.911 230.917 698.714 235.953H698.716Z" fill="#2782A1"/>
<path d="M702.267 250.176C704.259 245.111 708.412 242.092 711.543 243.43C714.674 244.77 715.597 249.961 713.605 255.026C711.613 260.091 707.461 263.111 704.33 261.772C701.198 260.432 700.275 255.242 702.267 250.176Z" fill="#2782A1"/>
<path d="M688.123 226.259C693.358 226.677 697.809 224.161 698.065 220.642C698.322 217.122 694.289 213.932 689.054 213.515C683.82 213.098 679.369 215.614 679.112 219.133C678.855 222.652 682.888 225.842 688.123 226.259Z" fill="#2782A1"/>
<path d="M686.865 245.35C690.994 241.504 696.268 240.638 698.644 243.414C701.02 246.191 699.601 251.558 695.472 255.404C691.343 259.251 686.069 260.117 683.692 257.34C681.316 254.564 682.736 249.197 686.865 245.35Z" fill="#2782A1"/>
<path d="M685.347 242.781C690.496 240.659 693.605 236.133 692.293 232.671C690.982 229.21 685.745 228.125 680.596 230.247C675.448 232.369 672.338 236.895 673.65 240.358C674.962 243.818 680.198 244.904 685.347 242.781Z" fill="#2782A1"/>
<path d="M245.407 169.028C246.076 163.246 241.094 161.12 237.124 155.194C231.299 146.502 225.109 147.041 223.207 151.53C221.306 156.019 225.803 160.779 224.99 165.842C224.988 165.858 224.984 165.873 224.982 165.889C224.982 165.905 224.978 165.92 224.976 165.936C224.354 171.029 218.733 174.234 219.312 179.104C219.892 183.973 225.67 186.352 233.65 179.782C239.09 175.302 244.447 174.765 245.405 169.028H245.407Z" fill="#2782A1"/>
<path d="M251.464 155.757C246.815 158.298 241.772 157.822 240.202 154.697C238.631 151.569 241.127 146.976 245.778 144.435C250.428 141.894 255.469 142.37 257.04 145.495C258.61 148.62 256.114 153.215 251.464 155.757Z" fill="#2782A1"/>
<path d="M247.537 183.559C243.788 179.729 238.828 178.667 236.459 181.187C234.091 183.708 235.21 188.858 238.961 192.689C242.71 196.519 247.67 197.581 250.038 195.061C252.407 192.54 251.287 187.39 247.537 183.559Z" fill="#2782A1"/>
<path d="M260.277 169.788C254.744 169.961 250.172 167.086 250.064 163.365C249.956 159.644 254.355 156.49 259.888 156.315C265.421 156.143 269.993 159.017 270.101 162.738C270.209 166.459 265.809 169.614 260.277 169.788Z" fill="#2782A1"/>
<path d="M259.855 172.773C254.605 170.943 249.433 172.322 248.301 175.851C247.17 179.382 250.509 183.726 255.759 185.556C261.01 187.386 266.182 186.007 267.313 182.478C268.445 178.947 265.106 174.603 259.855 172.773Z" fill="#2782A1"/>
<path d="M116.845 359.397C121.246 362.98 125.565 359.632 132.48 359.148C142.625 358.438 145.381 352.631 142.68 348.614C139.978 344.597 133.747 346.153 130.01 342.81C129.998 342.8 129.987 342.788 129.975 342.778C129.963 342.769 129.951 342.759 129.939 342.749C126.081 339.563 126.354 332.887 122.058 330.889C117.76 328.89 112.823 332.821 114.092 343.343C114.957 350.514 112.631 355.578 116.845 359.399V359.397Z" fill="#2782A1"/>
<path d="M136.856 372.415C137.156 366.95 134.659 362.369 131.279 362.183C127.899 361.998 124.916 366.279 124.616 371.744C124.316 377.209 126.813 381.79 130.193 381.976C133.572 382.161 136.556 377.88 136.856 372.415Z" fill="#2782A1"/>
<path d="M103.816 353.791C108.898 352.423 112.333 348.543 111.486 345.126C110.639 341.709 105.834 340.047 100.752 341.417C95.6699 342.786 92.235 346.666 93.0819 350.083C93.927 353.501 98.7344 355.162 103.816 353.793V353.791Z" fill="#2782A1"/>
<path d="M108.537 372.282C111.255 367.252 115.978 364.656 119.087 366.482C122.197 368.308 122.515 373.867 119.797 378.899C117.08 383.929 112.357 386.525 109.247 384.699C106.138 382.873 105.82 377.314 108.537 372.284V372.282Z" fill="#2782A1"/>
<path d="M106.306 370.364C110.521 366.621 112.063 361.289 109.749 358.456C107.435 355.623 102.144 356.359 97.9285 360.102C93.7132 363.845 92.1722 369.176 94.4857 372.01C96.7992 374.843 102.091 374.106 106.306 370.364V370.364Z" fill="#2782A1"/>
<path d="M630.205 310.028C631.775 304.439 627.195 301.489 624.213 294.964C619.837 285.392 613.645 284.863 611.061 288.964C608.479 293.065 612.165 298.532 610.565 303.387C610.561 303.403 610.555 303.417 610.55 303.432C610.546 303.448 610.54 303.464 610.536 303.477C609.12 308.394 603.07 310.592 602.876 315.497C602.682 320.399 608.005 323.736 616.914 318.622C622.986 315.136 628.354 315.524 630.205 310.028V310.028Z" fill="#2782A1"/>
<path d="M638.271 297.975C633.285 299.684 628.385 298.351 627.328 294.999C626.272 291.646 629.458 287.541 634.443 285.833C639.429 284.124 644.329 285.456 645.386 288.809C646.442 292.162 643.256 296.267 638.271 297.975Z" fill="#2782A1"/>
<path d="M630.018 324.726C626.923 320.303 622.2 318.406 619.466 320.487C616.733 322.568 617.027 327.839 620.123 332.262C623.219 336.684 627.944 338.581 630.675 336.5C633.408 334.419 633.114 329.148 630.018 324.726Z" fill="#2782A1"/>
<path d="M644.752 313.326C639.267 312.548 635.21 308.929 635.69 305.241C636.171 301.553 641.008 299.192 646.491 299.97C651.977 300.748 656.034 304.367 655.553 308.057C655.073 311.744 650.236 314.104 644.752 313.328V313.326Z" fill="#2782A1"/>
<path d="M643.868 316.198C638.978 313.494 633.657 313.966 631.987 317.254C630.314 320.542 632.924 325.402 637.816 328.106C642.705 330.81 648.027 330.338 649.697 327.048C651.369 323.76 648.76 318.9 643.868 316.196V316.198Z" fill="#2782A1"/>
<path d="M531.327 355.838C528.847 361.056 532.86 364.795 534.705 371.763C537.413 381.985 543.42 383.633 546.649 380.065C549.878 376.497 547.165 370.444 549.553 365.955C549.561 365.941 549.568 365.927 549.574 365.914C549.58 365.9 549.588 365.884 549.594 365.871C551.811 361.287 558.136 360.223 559.148 355.433C560.16 350.64 555.476 346.386 545.849 349.799C539.287 352.127 534.066 350.767 531.325 355.84L531.327 355.838Z" fill="#2782A1"/>
<path d="M521.369 366.239C526.565 365.463 531.166 367.667 531.644 371.161C532.123 374.655 528.3 378.115 523.104 378.891C517.908 379.667 513.307 377.463 512.829 373.969C512.35 370.475 516.173 367.015 521.369 366.239Z" fill="#2782A1"/>
<path d="M533.972 341.401C536.279 346.319 540.614 349.047 543.653 347.495C546.692 345.943 547.286 340.699 544.979 335.781C542.671 330.863 538.336 328.136 535.297 329.687C532.258 331.239 531.664 336.483 533.972 341.401Z" fill="#2782A1"/>
<path d="M517.554 349.942C522.824 351.706 526.214 356.009 525.123 359.553C524.033 363.098 518.877 364.54 513.605 362.777C508.335 361.013 504.945 356.71 506.035 353.165C507.125 349.621 512.281 348.179 517.554 349.942Z" fill="#2782A1"/>
<path d="M518.908 347.275C523.271 350.83 528.588 351.331 530.784 348.398C532.979 345.465 531.225 340.206 526.86 336.651C522.498 333.097 517.181 332.595 514.983 335.528C512.787 338.462 514.542 343.721 518.906 347.275H518.908Z" fill="#2782A1"/>
<path d="M705.004 541.47C707.031 536.043 702.716 532.69 700.285 525.922C696.718 515.99 690.595 514.904 687.682 518.758C684.769 522.611 687.986 528.389 685.99 533.082C685.984 533.096 685.978 533.111 685.972 533.125C685.966 533.139 685.961 533.154 685.955 533.17C684.137 537.941 677.926 539.583 677.326 544.453C676.724 549.32 681.753 553.125 691.052 548.834C697.391 545.908 702.706 546.78 705.006 541.472L705.004 541.47Z" fill="#2782A1"/>
<path d="M714.04 530.19C708.931 531.442 704.161 529.672 703.386 526.237C702.612 522.801 706.127 519.001 711.237 517.747C716.346 516.495 721.116 518.265 721.891 521.699C722.665 525.136 719.15 528.936 714.04 530.19Z" fill="#2782A1"/>
<path d="M703.598 556.096C700.881 551.411 696.332 549.095 693.436 550.921C690.541 552.747 690.395 558.026 693.113 562.711C695.83 567.396 700.379 569.712 703.275 567.886C706.171 566.059 706.316 560.781 703.598 556.096Z" fill="#2782A1"/>
<path d="M719.224 546.069C713.825 544.799 710.082 540.826 710.868 537.197C711.652 533.566 716.666 531.651 722.067 532.921C727.467 534.191 731.208 538.165 730.423 541.794C729.639 545.424 724.624 547.339 719.224 546.069Z" fill="#2782A1"/>
<path d="M718.103 548.85C713.454 545.712 708.116 545.705 706.178 548.83C704.239 551.955 706.437 557.03 711.084 560.167C715.733 563.304 721.071 563.312 723.008 560.187C724.947 557.062 722.75 551.987 718.103 548.85Z" fill="#2782A1"/>
<path d="M395.455 371.947C398.931 376.504 403.881 374.3 410.714 375.515C420.737 377.296 424.717 372.323 422.989 367.757C421.262 363.192 414.855 363.186 411.971 359.026C411.961 359.012 411.953 359.001 411.943 358.987C411.934 358.975 411.924 358.962 411.916 358.95C408.877 354.911 410.64 348.486 406.909 345.496C403.178 342.506 397.496 345.124 396.374 355.666C395.61 362.851 392.214 367.205 395.455 371.947V371.947Z" fill="#2782A1"/>
<path d="M400.256 385.767C401.788 380.531 405.654 377.122 408.891 378.15C412.128 379.181 413.508 384.262 411.977 389.498C410.444 394.733 406.579 398.143 403.342 397.112C400.105 396.081 398.725 391.002 400.256 385.765V385.767Z" fill="#2782A1"/>
<path d="M384.042 363.321C389.291 363.229 393.498 360.294 393.441 356.765C393.384 353.236 389.083 350.45 383.836 350.542C378.588 350.634 374.38 353.569 374.437 357.098C374.494 360.627 378.796 363.413 384.042 363.321Z" fill="#2782A1"/>
<path d="M384.491 382.453C388.259 378.225 393.433 376.851 396.047 379.385C398.66 381.918 397.725 387.401 393.957 391.629C390.188 395.858 385.014 397.232 382.401 394.698C379.787 392.164 380.723 386.682 384.491 382.453Z" fill="#2782A1"/>
<path d="M382.75 380.043C387.687 377.431 390.379 372.623 388.765 369.303C387.152 365.984 381.84 365.41 376.903 368.022C371.967 370.634 369.275 375.442 370.888 378.762C372.502 382.081 377.813 382.655 382.75 380.043Z" fill="#2782A1"/>
<path d="M596.747 200.216C598.421 194.659 593.9 191.616 591.042 185.031C586.846 175.371 580.666 174.714 578.008 178.762C575.347 182.811 578.929 188.352 577.239 193.172C577.233 193.188 577.229 193.202 577.223 193.217C577.219 193.233 577.213 193.247 577.21 193.262C575.702 198.149 569.61 200.222 569.324 205.121C569.036 210.019 574.296 213.464 583.299 208.534C589.436 205.174 594.796 205.671 596.749 200.216H596.747Z" fill="#2782A1"/>
<path d="M605.038 188.33C600.021 189.937 595.147 188.505 594.155 185.13C593.163 181.756 596.425 177.72 601.443 176.113C606.46 174.506 611.334 175.939 612.326 179.313C613.32 182.687 610.056 186.725 605.038 188.33Z" fill="#2782A1"/>
<path d="M596.28 214.906C593.269 210.421 588.581 208.428 585.811 210.452C583.038 212.477 583.233 217.753 586.244 222.238C589.256 226.724 593.943 228.716 596.714 226.692C599.486 224.668 599.292 219.391 596.28 214.906Z" fill="#2782A1"/>
<path d="M611.23 203.812C605.76 202.922 601.772 199.219 602.323 195.541C602.874 191.863 607.754 189.604 613.222 190.493C618.692 191.383 622.68 195.086 622.129 198.764C621.578 202.442 616.698 204.701 611.23 203.812Z" fill="#2782A1"/>
<path d="M610.289 206.665C605.45 203.861 600.123 204.223 598.39 207.478C596.657 210.731 599.174 215.643 604.011 218.447C608.85 221.251 614.177 220.888 615.91 217.634C617.643 214.381 615.126 209.469 610.287 206.665H610.289Z" fill="#2782A1"/>
<path d="M754.672 338.638C755.313 344.424 760.63 345.282 765.814 350.081C773.417 357.121 779.319 355.095 780.166 350.267C781.015 345.439 775.578 341.902 775.239 336.78C775.239 336.765 775.237 336.749 775.235 336.733C775.235 336.718 775.231 336.702 775.229 336.686C774.698 331.582 779.45 327.101 777.799 322.506C776.148 317.909 769.998 317 763.702 325.327C759.411 331.004 754.321 332.826 754.668 338.64L754.672 338.638Z" fill="#2782A1"/>
<path d="M751.741 353.014C755.695 349.415 760.707 348.653 762.93 351.311C765.155 353.97 763.752 359.045 759.797 362.645C755.842 366.244 750.831 367.007 748.608 364.348C746.383 361.689 747.786 356.614 751.741 353.014Z" fill="#2782A1"/>
<path d="M749.357 325.022C753.858 327.837 758.919 327.667 760.66 324.64C762.401 321.612 760.162 316.876 755.66 314.06C751.158 311.245 746.098 311.415 744.359 314.443C742.618 317.47 744.857 322.206 749.359 325.022H749.357Z" fill="#2782A1"/>
<path d="M740.04 341.506C745.383 339.996 750.47 341.683 751.406 345.274C752.339 348.866 748.765 353.004 743.424 354.515C738.081 356.026 732.993 354.339 732.058 350.747C731.125 347.156 734.699 343.017 740.04 341.506Z" fill="#2782A1"/>
<path d="M739.783 338.501C745.298 339.006 750.021 336.41 750.333 332.703C750.645 328.995 746.43 325.58 740.914 325.075C735.399 324.569 730.676 327.165 730.364 330.873C730.053 334.58 734.268 337.995 739.783 338.501Z" fill="#2782A1"/>
<path d="M100.269 559.329C101.491 565.012 106.865 565.282 112.506 569.485C120.777 575.651 126.44 572.988 126.796 568.094C127.153 563.201 121.391 560.28 120.536 555.222C120.534 555.206 120.53 555.191 120.528 555.175C120.524 555.159 120.523 555.144 120.519 555.128C119.476 550.112 123.75 545.133 121.644 540.744C119.538 536.355 113.331 536.123 107.91 545.096C104.216 551.211 99.3381 553.584 100.269 559.325V559.329Z" fill="#2782A1"/>
<path d="M98.8068 573.949C102.377 569.936 107.283 568.627 109.763 571.027C112.243 573.427 111.361 578.628 107.79 582.641C104.22 586.654 99.3146 587.963 96.8344 585.562C94.3543 583.162 95.2365 577.962 98.8068 573.949V573.949Z" fill="#2782A1"/>
<path d="M93.6113 546.373C98.3716 548.679 103.387 547.954 104.812 544.753C106.238 541.551 103.534 537.087 98.7735 534.781C94.0132 532.475 88.9979 533.2 87.5726 536.402C86.1472 539.603 88.8509 544.067 93.6113 546.373V546.373Z" fill="#2782A1"/>
<path d="M86.008 563.789C91.1684 561.7 96.3993 562.819 97.6893 566.289C98.9814 569.759 95.8444 574.266 90.6841 576.355C85.5238 578.444 80.2929 577.325 79.0028 573.855C77.7108 570.384 80.8477 565.878 86.008 563.789Z" fill="#2782A1"/>
<path d="M85.4512 560.828C90.986 560.726 95.4209 557.624 95.3582 553.903C95.2954 550.182 90.7566 547.249 85.2218 547.351C79.687 547.453 75.2521 550.555 75.3149 554.276C75.3776 557.997 79.9164 560.93 85.4512 560.828Z" fill="#2782A1"/>
<path d="M593.653 504.874C593.898 499.054 588.777 497.33 584.389 491.734C577.951 483.525 571.816 484.554 570.245 489.18C568.675 493.807 573.504 498.198 573.063 503.31C573.063 503.326 573.061 503.341 573.059 503.357C573.059 503.373 573.059 503.388 573.057 503.404C572.806 508.532 567.434 512.171 568.365 516.981C569.296 521.792 575.231 523.706 582.711 516.525C587.811 511.628 593.112 510.67 593.653 504.872V504.874Z" fill="#2782A1"/>
<path d="M598.729 491.16C594.276 494.059 589.216 493.985 587.422 490.991C585.628 487.997 587.785 483.22 592.235 480.32C596.688 477.42 601.75 477.494 603.542 480.486C605.336 483.48 603.18 488.258 598.729 491.158V491.16Z" fill="#2782A1"/>
<path d="M596.833 519.193C592.816 515.67 587.795 515.002 585.616 517.704C583.438 520.404 584.928 525.452 588.946 528.975C592.963 532.5 597.984 533.166 600.162 530.464C602.34 527.762 600.85 522.716 596.833 519.193Z" fill="#2782A1"/>
<path d="M608.536 504.456C603.031 505.066 598.264 502.56 597.886 498.858C597.51 495.157 601.666 491.661 607.171 491.052C612.677 490.442 617.443 492.948 617.821 496.65C618.198 500.351 614.041 503.845 608.538 504.456H608.536Z" fill="#2782A1"/>
<path d="M608.332 507.464C602.964 506.055 597.906 507.838 597.035 511.448C596.165 515.057 599.809 519.127 605.178 520.536C610.546 521.944 615.604 520.161 616.475 516.552C617.345 512.943 613.7 508.873 608.332 507.464Z" fill="#2782A1"/>
<path d="M942.11 553.762C938.648 549.192 933.691 551.379 926.862 550.143C916.844 548.326 912.85 553.288 914.562 557.859C916.275 562.431 922.68 562.458 925.553 566.628C925.561 566.641 925.57 566.653 925.58 566.667C925.59 566.679 925.6 566.692 925.608 566.704C928.633 570.752 926.851 577.171 930.572 580.175C934.293 583.179 939.983 580.579 941.138 570.043C941.926 562.862 945.335 558.518 942.108 553.764L942.11 553.762Z" fill="#2782A1"/>
<path d="M937.352 539.926C935.803 545.158 931.927 548.554 928.694 547.513C925.461 546.473 924.094 541.388 925.643 536.156C927.192 530.925 931.068 527.529 934.301 528.569C937.534 529.61 938.901 534.695 937.352 539.926Z" fill="#2782A1"/>
<path d="M953.495 562.427C948.247 562.501 944.029 565.423 944.075 568.952C944.122 572.481 948.413 575.281 953.662 575.206C958.91 575.132 963.128 572.21 963.083 568.681C963.036 565.152 958.744 562.352 953.495 562.427Z" fill="#2782A1"/>
<path d="M953.107 543.294C949.325 547.511 944.147 548.867 941.541 546.324C938.936 543.78 939.889 538.302 943.671 534.085C947.453 529.868 952.631 528.512 955.236 531.056C957.842 533.599 956.889 539.078 953.107 543.294Z" fill="#2782A1"/>
<path d="M954.84 545.711C949.896 548.307 947.188 553.105 948.792 556.431C950.396 559.756 955.705 560.348 960.65 557.751C965.594 555.155 968.302 550.356 966.698 547.031C965.094 543.706 959.785 543.114 954.84 545.711Z" fill="#2782A1"/>
<path d="M884.556 189.6C884.901 195.414 890.17 196.564 895.1 201.643C902.335 209.095 908.331 207.396 909.423 202.623C910.515 197.849 905.268 194.015 905.19 188.883C905.19 188.867 905.19 188.852 905.19 188.836C905.19 188.82 905.19 188.805 905.188 188.789C904.917 183.663 909.889 179.45 908.476 174.771C907.06 170.09 900.967 168.842 894.255 176.809C889.681 182.24 884.505 183.779 884.556 189.602V189.6Z" fill="#2782A1"/>
<path d="M880.9 203.796C885.033 200.42 890.073 199.936 892.159 202.717C894.246 205.495 892.587 210.484 888.454 213.86C884.321 217.236 879.28 217.72 877.194 214.94C875.108 212.161 876.767 207.172 880.9 203.796Z" fill="#2782A1"/>
<path d="M879.943 175.711C884.295 178.772 889.356 178.882 891.248 175.956C893.14 173.031 891.146 168.177 886.793 165.115C882.441 162.054 877.38 161.944 875.488 164.87C873.596 167.795 875.59 172.649 879.943 175.711Z" fill="#2782A1"/>
<path d="M869.799 191.656C875.21 190.443 880.206 192.408 880.957 196.047C881.705 199.685 877.927 203.62 872.516 204.833C867.105 206.046 862.109 204.08 861.358 200.442C860.609 196.803 864.387 192.868 869.799 191.656V191.656Z" fill="#2782A1"/>
<path d="M869.697 188.642C875.177 189.451 880.027 187.121 880.527 183.436C881.027 179.75 876.99 176.107 871.51 175.296C866.029 174.487 861.18 176.817 860.68 180.502C860.18 184.188 864.217 187.831 869.697 188.642Z" fill="#2782A1"/>
<path d="M384.111 191.591C380.609 187.055 375.672 189.289 368.833 188.115C358.801 186.393 354.848 191.391 356.599 195.945C358.352 200.499 364.757 200.467 367.665 204.61C367.675 204.623 367.683 204.635 367.692 204.649C367.702 204.661 367.712 204.674 367.722 204.686C370.782 208.707 369.055 215.142 372.804 218.11C376.55 221.079 382.219 218.426 383.281 207.88C384.007 200.691 387.379 196.315 384.112 191.593L384.111 191.591Z" fill="#2782A1"/>
<path d="M379.233 177.801C377.729 183.046 373.882 186.479 370.639 185.468C367.396 184.457 365.989 179.386 367.49 174.14C368.994 168.895 372.841 165.462 376.084 166.473C379.327 167.484 380.734 172.555 379.231 177.801H379.233Z" fill="#2782A1"/>
<path d="M395.568 200.148C390.32 200.272 386.128 203.232 386.204 206.761C386.281 210.29 390.596 213.049 395.845 212.926C401.093 212.802 405.285 209.842 405.209 206.313C405.132 202.784 400.817 200.025 395.568 200.148Z" fill="#2782A1"/>
<path d="M395.015 181.02C391.271 185.272 386.104 186.677 383.475 184.157C380.848 181.639 381.754 176.151 385.499 171.899C389.243 167.647 394.409 166.242 397.039 168.762C399.666 171.28 398.76 176.768 395.015 181.02V181.02Z" fill="#2782A1"/>
<path d="M396.77 183.42C391.849 186.062 389.181 190.886 390.814 194.195C392.447 197.505 397.76 198.046 402.683 195.404C407.605 192.763 410.273 187.939 408.64 184.629C407.007 181.32 401.693 180.777 396.77 183.42Z" fill="#2782A1"/>
<path d="M410.198 86.3727C409.832 92.1844 414.918 94.0244 419.19 99.7166C425.46 108.066 431.612 107.176 433.277 102.587C434.941 97.9962 430.204 93.4992 430.751 88.3968C430.751 88.3811 430.755 88.3655 430.757 88.3498C430.757 88.3341 430.759 88.3184 430.761 88.3028C431.116 83.1827 436.563 79.6635 435.731 74.8335C434.898 70.0035 429.005 67.9558 421.378 74.9707C416.178 79.7517 410.857 80.5923 410.198 86.3747V86.3727Z" fill="#2782A1"/>
<path d="M404.842 99.9673C409.353 97.1672 414.412 97.3554 416.143 100.389C417.874 103.422 415.621 108.15 411.11 110.95C406.599 113.75 401.54 113.562 399.809 110.529C398.078 107.496 400.331 102.767 404.842 99.9673V99.9673Z" fill="#2782A1"/>
<path d="M407.315 71.9844C411.257 75.5976 416.265 76.3775 418.498 73.7244C420.731 71.0733 419.345 65.9944 415.4 62.3812C411.457 58.7679 406.45 57.9881 404.217 60.6412C401.984 63.2923 403.37 68.3712 407.315 71.9844Z" fill="#2782A1"/>
<path d="M395.312 86.455C400.827 85.9691 405.542 88.581 405.844 92.2903C406.144 95.9995 401.917 99.3992 396.402 99.8871C390.886 100.373 386.171 97.7611 385.869 94.0518C385.569 90.3426 389.796 86.9429 395.312 86.455V86.455Z" fill="#2782A1"/>
<path d="M395.576 83.4511C400.913 84.9814 406.007 83.312 406.954 79.7222C407.899 76.1325 404.338 71.9844 399.002 70.454C393.665 68.9237 388.571 70.5932 387.624 74.1829C386.679 77.7726 390.24 81.9207 395.576 83.4511V83.4511Z" fill="#2782A1"/>
<path d="M871.789 295.389C873.473 289.836 868.958 286.783 866.111 280.193C861.933 270.523 855.755 269.857 853.089 273.9C850.42 277.942 853.992 283.489 852.295 288.307C852.289 288.323 852.285 288.337 852.279 288.352C852.275 288.368 852.269 288.382 852.265 288.398C850.748 293.281 844.654 295.342 844.358 300.24C844.062 305.139 849.316 308.594 858.327 303.681C864.47 300.333 869.83 300.842 871.793 295.389H871.789Z" fill="#2782A1"/>
<path d="M880.104 283.521C875.083 285.117 870.213 283.675 869.226 280.299C868.24 276.923 871.508 272.892 876.53 271.296C881.551 269.699 886.421 271.141 887.407 274.517C888.393 277.893 885.125 281.924 880.104 283.521Z" fill="#2782A1"/>
<path d="M871.299 310.079C868.295 305.588 863.611 303.585 860.837 305.604C858.061 307.622 858.245 312.901 861.249 317.39C864.252 321.881 868.936 323.883 871.71 321.865C874.485 319.845 874.302 314.568 871.299 310.079Z" fill="#2782A1"/>
<path d="M886.266 299.014C880.798 298.113 876.818 294.403 877.375 290.725C877.932 287.05 882.815 284.798 888.284 285.699C893.752 286.601 897.732 290.31 897.175 293.988C896.618 297.664 891.734 299.915 886.266 299.014Z" fill="#2782A1"/>
<path d="M885.321 301.865C880.488 299.051 875.159 299.404 873.42 302.655C871.681 305.905 874.189 310.82 879.021 313.635C883.854 316.449 889.183 316.096 890.922 312.846C892.661 309.595 890.154 304.681 885.321 301.865Z" fill="#2782A1"/>
<path d="M650.042 413.836C647.178 418.836 650.901 422.89 652.221 429.987C654.156 440.4 660.022 442.53 663.508 439.236C666.996 435.94 664.741 429.686 667.456 425.404L667.482 425.365C667.49 425.351 667.498 425.338 667.505 425.324C670.058 420.935 676.444 420.39 677.812 415.693C679.181 410.998 674.828 406.374 664.974 408.996C658.259 410.783 653.154 409.002 650.042 413.838V413.836Z" fill="#2782A1"/>
<path d="M639.335 423.396C644.574 423.045 648.995 425.618 649.213 429.139C649.429 432.66 645.358 435.801 640.12 436.15C634.881 436.501 630.46 433.928 630.244 430.407C630.028 426.886 634.099 423.745 639.337 423.396H639.335Z" fill="#2782A1"/>
<path d="M653.758 399.657C655.691 404.748 659.808 407.82 662.955 406.521C666.102 405.222 667.084 400.041 665.151 394.95C663.218 389.86 659.1 386.787 655.954 388.088C652.807 389.388 651.825 394.568 653.758 399.659V399.657Z" fill="#2782A1"/>
<path d="M636.753 406.838C641.876 409.025 644.933 413.591 643.58 417.035C642.227 420.48 636.979 421.499 631.856 419.312C626.733 417.126 623.676 412.558 625.029 409.115C626.382 405.671 631.63 404.652 636.753 406.838Z" fill="#2782A1"/>
<path d="M638.3 404.289C642.384 408.187 647.648 409.121 650.056 406.374C652.466 403.629 651.107 398.242 647.023 394.345C642.939 390.448 637.675 389.513 635.267 392.26C632.858 395.005 634.216 400.392 638.3 404.289V404.289Z" fill="#2782A1"/>
<path d="M43.2846 35.3956C40.6633 40.5372 44.5727 44.3934 46.2275 51.4141C48.6547 61.713 54.6149 63.5372 57.9401 60.067C61.2653 56.5949 58.7165 50.4637 61.2261 46.0471C61.234 46.0334 61.2418 46.0197 61.2496 46.006C61.2575 45.9923 61.2634 45.9786 61.2712 45.9648C63.6122 41.4483 69.9626 40.5744 71.1056 35.8129C72.2487 31.0515 67.6824 26.6603 57.9656 29.7876C51.3427 31.9195 46.1608 30.4048 43.2826 35.3975L43.2846 35.3956Z" fill="#2782A1"/>
<path d="M33.0462 45.4985C38.2614 44.8773 42.8002 47.2169 43.1845 50.7243C43.5688 54.2317 39.6515 57.5765 34.4363 58.1977C29.2211 58.8188 24.6823 56.4792 24.298 52.9718C23.9137 49.4644 27.831 46.1196 33.0462 45.4985Z" fill="#2782A1"/>
<path d="M46.3216 21.0426C48.4939 26.0274 52.7524 28.8823 55.8325 27.4206C58.9126 25.9588 59.6478 20.7349 57.4755 15.752C55.3031 10.7692 51.0447 7.91228 47.9646 9.37403C44.8844 10.8358 44.1492 16.0597 46.3216 21.0426Z" fill="#2782A1"/>
<path d="M29.678 29.094C34.8991 31.0142 38.1693 35.4152 36.9832 38.9265C35.797 42.4359 30.6034 43.7271 25.3823 41.8069C20.1612 39.8866 16.8909 35.4857 18.077 31.9744C19.2632 28.463 24.4569 27.1737 29.678 29.094Z" fill="#2782A1"/>
<path d="M31.1033 26.4682C35.3677 30.15 40.6691 30.8104 42.9454 27.9417C45.2217 25.0751 43.6081 19.7649 39.3438 16.0851C35.0794 12.4033 29.778 11.7429 27.5017 14.6116C25.2254 17.4783 26.839 22.7884 31.1033 26.4682V26.4682Z" fill="#2782A1"/>
<path d="M26.1214 148.219C29.923 152.484 34.6951 149.892 41.5964 150.558C51.721 151.534 55.3246 146.257 53.2679 141.843C51.2113 137.428 44.8216 137.936 41.6415 134.019C41.6317 134.007 41.6219 133.995 41.6121 133.981C41.6023 133.97 41.5906 133.958 41.5808 133.946C38.2556 130.162 39.5398 123.616 35.6009 120.931C31.662 118.247 26.188 121.312 25.843 131.912C25.6077 139.137 22.5413 143.749 26.1214 148.219V148.219Z" fill="#2782A1"/>
<path d="M31.9227 161.614C33.0658 156.27 36.6713 152.563 39.973 153.331C43.2747 154.099 45.0255 159.055 43.8824 164.398C42.7394 169.741 39.1339 173.449 35.8322 172.681C32.5305 171.912 30.7797 166.957 31.9227 161.614Z" fill="#2782A1"/>
<path d="M14.1108 140.53C19.3378 140.018 23.3178 136.756 23.0021 133.241C22.6865 129.727 18.1928 127.292 12.9677 127.803C7.74076 128.315 3.76073 131.577 4.07639 135.092C4.39205 138.606 8.88576 141.041 14.1108 140.53V140.53Z" fill="#2782A1"/>
<path d="M15.9594 159.568C19.4062 155.051 24.4646 153.266 27.2565 155.584C30.0484 157.902 29.517 163.444 26.0703 167.96C22.6235 172.477 17.5652 174.262 14.7733 171.944C11.9814 169.626 12.5127 164.084 15.9594 159.568V159.568Z" fill="#2782A1"/>
<path d="M14.0479 157.305C18.7789 154.307 21.11 149.296 19.2573 146.116C17.4045 142.936 12.0658 142.787 7.33678 145.787C2.60583 148.785 0.274669 153.795 2.12744 156.975C3.98022 160.156 9.31895 160.305 14.0479 157.305Z" fill="#2782A1"/>
<path d="M821.635 101.585C823.325 107.137 828.703 106.919 834.669 110.595C843.423 115.989 848.842 112.823 848.791 107.916C848.738 103.01 842.754 100.619 841.484 95.66C841.48 95.6444 841.476 95.6287 841.472 95.613C841.468 95.5973 841.462 95.5817 841.458 95.5679C840.002 90.6654 843.844 85.318 841.382 81.1366C838.919 76.9551 832.716 77.2863 828.063 86.7171C824.891 93.1441 820.229 95.9481 821.635 101.585V101.585Z" fill="#2782A1"/>
<path d="M821.393 116.281C824.617 111.959 829.393 110.213 832.065 112.38C834.735 114.547 834.288 119.806 831.067 124.129C827.844 128.452 823.068 130.197 820.395 128.03C817.725 125.863 818.172 120.604 821.393 116.281Z" fill="#2782A1"/>
<path d="M813.924 89.2821C818.859 91.1494 823.793 89.9718 824.948 86.6544C826.101 83.3371 823.037 79.1341 818.102 77.2667C813.167 75.3993 808.232 76.577 807.079 79.8943C805.926 83.2117 808.991 87.4147 813.926 89.2821H813.924Z" fill="#2782A1"/>
<path d="M807.799 107.319C812.765 104.77 818.07 105.412 819.645 108.751C821.219 112.092 818.47 116.865 813.504 119.412C808.538 121.962 803.232 121.319 801.658 117.98C800.084 114.641 802.832 109.866 807.799 107.319Z" fill="#2782A1"/>
<path d="M806.997 104.421C812.502 103.817 816.662 100.327 816.29 96.6261C815.917 92.9247 811.151 90.4126 805.646 91.0161C800.14 91.6197 795.98 95.1094 796.353 98.8108C796.725 102.512 801.491 105.024 806.997 104.421Z" fill="#2782A1"/>
<path d="M614.538 41.2049C611.103 45.7959 614.314 50.3006 614.779 57.5134C615.461 68.0944 621.029 70.9689 624.88 68.1493C628.73 65.3296 627.238 58.8321 630.442 54.9347C630.452 54.923 630.462 54.9112 630.471 54.8995C630.481 54.8877 630.491 54.874 630.499 54.8622C633.554 50.8375 639.955 51.1217 641.87 46.6384C643.786 42.1552 640.016 37.0058 629.928 38.3323C623.053 39.2356 618.2 36.8098 614.536 41.2068L614.538 41.2049Z" fill="#2782A1"/>
<path d="M602.778 49.3053C608.017 49.6345 612.099 52.7579 611.897 56.281C611.693 59.8041 607.279 62.3925 602.041 62.0633C596.802 61.7341 592.718 58.6108 592.922 55.0877C593.126 51.5646 597.539 48.9761 602.778 49.3053Z" fill="#2782A1"/>
<path d="M619.91 27.6161C621.223 32.9165 624.942 36.4983 628.219 35.6146C631.495 34.7329 633.087 29.7186 631.773 24.4183C630.46 19.118 626.74 15.5361 623.464 16.4198C620.188 17.3036 618.596 22.3158 619.91 27.6161Z" fill="#2782A1"/>
<path d="M602.182 32.5422C607.005 35.3755 609.495 40.3016 607.744 43.5445C605.993 46.7874 600.664 47.1205 595.839 44.2871C591.016 41.4538 588.526 36.5277 590.277 33.2848C592.028 30.0419 597.357 29.7088 602.18 32.5422H602.182Z" fill="#2782A1"/>
<path d="M604.021 30.2144C607.611 34.6094 612.722 36.2162 615.439 33.8041C618.157 31.3901 617.449 25.8722 613.859 21.4752C610.269 17.0782 605.158 15.4734 602.441 17.8855C599.723 20.2996 600.431 25.8193 604.021 30.2144Z" fill="#2782A1"/>
<path d="M144.448 644.853C139.868 641.52 135.729 645.108 128.847 645.978C118.754 647.255 116.301 653.208 119.205 657.068C122.111 660.928 128.251 659.026 132.155 662.153C132.167 662.163 132.178 662.173 132.19 662.183C132.202 662.192 132.216 662.2 132.227 662.21C136.245 665.177 136.315 671.858 140.709 673.612C145.103 675.368 149.832 671.165 148.02 660.729C146.787 653.616 148.849 648.431 144.444 644.851L144.448 644.853Z" fill="#2782A1"/>
<path d="M136.062 633.038C136.027 638.512 133.257 642.931 129.873 642.907C126.489 642.884 123.773 638.426 123.808 632.951C123.844 627.477 126.614 623.058 129.998 623.082C133.382 623.105 136.096 627.563 136.062 633.038Z" fill="#2782A1"/>
<path d="M157.747 649.72C152.743 651.372 149.512 655.438 150.534 658.804C151.555 662.169 156.439 663.558 161.442 661.906C166.446 660.254 169.677 656.189 168.655 652.822C167.634 649.458 162.75 648.069 157.747 649.72Z" fill="#2782A1"/>
<path d="M152.078 631.519C149.624 636.694 145.042 639.553 141.844 637.903C138.644 636.253 138.041 630.72 140.495 625.545C142.95 620.37 147.532 617.511 150.73 619.161C153.927 620.811 154.533 626.344 152.078 631.519Z" fill="#2782A1"/>
<path d="M154.408 633.31C150.392 637.284 149.128 642.694 151.582 645.394C154.039 648.094 159.286 647.061 163.301 643.088C167.316 639.114 168.581 633.704 166.126 631.004C163.67 628.304 158.423 629.336 154.408 633.31Z" fill="#2782A1"/>
<path d="M126.038 175.532C131.527 176.597 133.88 171.548 139.803 167.794C148.493 162.286 148.373 155.81 144.199 153.543C140.025 151.275 135.184 155.653 130.39 154.483C130.375 154.479 130.361 154.475 130.345 154.471C130.329 154.467 130.316 154.465 130.3 154.462C125.467 153.488 122.76 147.433 118.064 147.725C113.366 148.017 110.721 153.88 116.499 162.607C120.436 168.556 120.609 174.166 126.038 175.532V175.532Z" fill="#2782A1"/>
<path d="M138.35 182.685C136.217 177.683 136.994 172.465 140.086 171.031C143.177 169.596 147.412 172.488 149.547 177.491C151.681 182.493 150.904 187.711 147.812 189.146C144.72 190.58 140.486 187.688 138.35 182.685Z" fill="#2782A1"/>
<path d="M112 176.821C115.905 173.163 117.239 168.07 114.978 165.442C112.717 162.817 107.718 163.651 103.812 167.31C99.9069 170.968 98.5737 176.063 100.834 178.688C103.095 181.314 108.094 180.477 112 176.821Z" fill="#2782A1"/>
<path d="M137.283 191.4C137.462 185.629 134.715 180.862 131.147 180.752C127.58 180.642 124.544 185.23 124.365 191.001C124.187 196.772 126.934 201.539 130.501 201.649C134.069 201.759 137.105 197.171 137.283 191.4Z" fill="#2782A1"/>
<path d="M121.532 190.331C123.618 184.984 122.63 179.511 119.327 178.108C116.021 176.705 111.651 179.903 109.563 185.25C107.477 190.598 108.465 196.07 111.769 197.473C115.074 198.876 119.444 195.679 121.532 190.331Z" fill="#2782A1"/>
<path d="M26.2507 623.726C20.9257 625.476 21.1217 631.086 17.5848 637.301C12.3951 646.421 15.4183 652.08 20.1238 652.037C24.8292 651.993 27.1329 645.757 31.8894 644.442C31.9051 644.438 31.9188 644.434 31.9345 644.43C31.9482 644.426 31.9639 644.42 31.9776 644.416C36.6811 642.907 41.8003 646.926 45.8136 644.367C49.8289 641.808 49.5231 635.336 40.4925 630.463C34.3362 627.142 31.658 622.273 26.2507 623.726V623.726Z" fill="#2782A1"/>
<path d="M12.1598 623.444C16.2967 626.815 17.9613 631.801 15.8771 634.582C13.795 637.362 8.7523 636.886 4.61542 633.516C0.478534 630.146 -1.18602 625.159 0.898104 622.376C2.98027 619.596 8.02295 620.072 12.1598 623.442V623.444Z" fill="#2782A1"/>
<path d="M38.0634 615.71C36.2636 620.854 37.3811 626.003 40.5593 627.214C43.7374 628.425 47.7743 625.237 49.5742 620.094C51.374 614.95 50.2564 609.801 47.0783 608.59C43.9002 607.379 39.8633 610.567 38.0634 615.71Z" fill="#2782A1"/>
<path d="M20.7825 609.285C23.2156 614.472 22.5882 620.002 19.3826 621.638C16.177 623.274 11.6068 620.395 9.17372 615.209C6.74061 610.022 7.368 604.492 10.5736 602.856C13.7792 601.22 18.3494 604.099 20.7825 609.285Z" fill="#2782A1"/>
<path d="M23.5628 608.454C24.1294 614.198 27.4664 618.546 31.017 618.164C34.5677 617.783 36.9851 612.818 36.4185 607.075C35.8519 601.332 32.515 596.986 28.9643 597.366C25.4136 597.746 22.9962 602.711 23.5628 608.454V608.454Z" fill="#2782A1"/>
<path d="M534.787 633.963C530.301 630.494 526.065 633.955 519.163 634.617C509.039 635.591 506.421 641.467 509.219 645.412C512.017 649.358 518.208 647.641 522.022 650.884C522.034 650.894 522.045 650.904 522.057 650.914C522.069 650.924 522.081 650.933 522.094 650.943C526.027 654.029 525.914 660.709 530.258 662.596C534.601 664.483 539.444 660.425 537.924 649.938C536.887 642.79 539.093 637.67 534.789 633.959L534.787 633.963Z" fill="#2782A1"/>
<path d="M526.731 621.9C526.545 627.371 523.653 631.705 520.271 631.58C516.889 631.454 514.299 626.918 514.485 621.446C514.672 615.975 517.563 611.64 520.945 611.766C524.328 611.891 526.917 616.427 526.731 621.9Z" fill="#2782A1"/>
<path d="M547.945 639.228C542.896 640.729 539.555 644.696 540.483 648.09C541.41 651.484 546.255 653.02 551.301 651.519C556.35 650.018 559.691 646.05 558.763 642.657C557.836 639.263 552.991 637.727 547.945 639.228Z" fill="#2782A1"/>
<path d="M542.784 620.864C540.189 625.962 535.528 628.682 532.378 626.936C529.225 625.19 528.776 619.641 531.372 614.542C533.968 609.444 538.628 606.724 541.779 608.47C544.931 610.216 545.38 615.765 542.784 620.864Z" fill="#2782A1"/>
<path d="M545.061 622.725C540.938 626.575 539.522 631.946 541.902 634.719C544.282 637.492 549.555 636.618 553.68 632.767C557.803 628.917 559.218 623.546 556.838 620.774C554.458 618.001 549.186 618.875 545.061 622.725Z" fill="#2782A1"/>
<path d="M852.226 410.311C850.305 404.842 844.942 405.306 838.825 401.907C829.851 396.918 824.572 400.329 824.83 405.23C825.089 410.13 831.167 412.243 832.647 417.139C832.651 417.155 832.657 417.171 832.661 417.184C832.667 417.2 832.671 417.214 832.677 417.229C834.339 422.061 830.724 427.579 833.361 431.643C835.998 435.709 842.18 435.092 846.432 425.459C849.33 418.893 853.871 415.877 852.228 410.311H852.226Z" fill="#2782A1"/>
<path d="M851.847 395.617C848.81 400.082 844.111 402.046 841.35 400.004C838.59 397.962 838.815 392.685 841.852 388.222C844.889 383.756 849.589 381.793 852.349 383.835C855.11 385.876 854.884 391.153 851.847 395.617Z" fill="#2782A1"/>
<path d="M860.449 422.25C855.439 420.611 850.559 422.012 849.546 425.381C848.532 428.749 851.771 432.807 856.78 434.445C861.788 436.083 866.67 434.682 867.683 431.316C868.697 427.948 865.458 423.89 860.449 422.252V422.25Z" fill="#2782A1"/>
<path d="M865.807 403.95C860.953 406.723 855.628 406.325 853.912 403.061C852.199 399.796 854.743 394.902 859.6 392.129C864.454 389.354 869.779 389.754 871.495 393.019C873.208 396.283 870.664 401.178 865.807 403.952V403.95Z" fill="#2782A1"/>
<path d="M866.73 406.809C861.256 407.663 857.247 411.341 857.774 415.021C858.302 418.703 863.17 420.994 868.644 420.139C874.118 419.285 878.127 415.607 877.6 411.925C877.073 408.243 872.206 405.953 866.73 406.807V406.809Z" fill="#2782A1"/>
<path d="M170.404 44.3365C172.928 49.531 178.202 48.4141 184.66 51.0417C194.134 54.896 198.992 50.8615 198.184 46.0255C197.375 41.1916 191.101 39.8376 189.081 35.1565C189.075 35.1427 189.069 35.1271 189.062 35.1133C189.054 35.0996 189.048 35.084 189.042 35.0702C186.846 30.4753 189.814 24.5539 186.738 20.8388C183.662 17.1256 177.592 18.4952 174.453 28.5825C172.314 35.4582 168.146 39.0087 170.404 44.3365V44.3365Z" fill="#2782A1"/>
<path d="M172.436 58.8815C174.949 54.0749 179.394 51.5492 182.366 53.2383C185.336 54.9293 185.707 60.1943 183.193 65.0008C180.68 69.8074 176.235 72.3331 173.263 70.6441C170.293 68.955 169.922 63.688 172.436 58.8815Z" fill="#2782A1"/>
<path d="M160.896 33.487C166.054 34.5001 170.744 32.5112 171.369 29.043C171.995 25.5748 168.322 21.9419 163.164 20.9269C158.006 19.9139 153.316 21.9028 152.69 25.371C152.063 28.8392 155.737 32.472 160.896 33.487V33.487Z" fill="#2782A1"/>
<path d="M157.635 52.3193C162.144 48.9706 167.477 48.712 169.548 51.7432C171.618 54.7745 169.642 59.9474 165.132 63.2981C160.623 66.6468 155.29 66.9054 153.22 63.8722C151.149 60.8409 153.126 55.668 157.635 52.3173V52.3193Z" fill="#2782A1"/>
<path d="M156.396 49.5917C161.737 48.0712 165.303 43.9289 164.364 40.3372C163.425 36.7455 158.333 35.0683 152.994 36.5868C147.654 38.1074 144.087 42.2496 145.026 45.8413C145.965 49.433 151.057 51.1103 156.396 49.5917V49.5917Z" fill="#2782A1"/>
<path d="M291.852 99.4461C291.852 99.4461 287.317 101.386 283.694 99.1561C279.157 96.3639 278.253 91.0616 280.363 87.225C282.447 83.4335 286.982 81.8307 290.378 80.9568C294.993 79.7693 301.02 79.4695 304.31 79.6655C305.788 82.7359 307.919 88.6241 308.707 93.5129C309.288 97.1105 309.678 102.087 307.17 105.589C304.633 109.134 299.608 110.374 295.35 107.141C291.948 104.558 291.854 99.4461 291.854 99.4461H291.852Z" fill="#2782A1"/>
<path d="M384.965 627.218C384.965 627.218 382.042 623.113 383.217 618.9C384.689 613.625 389.391 611.402 393.476 612.585C397.515 613.755 400.125 617.94 401.776 621.156C404.021 625.527 405.789 631.545 406.42 634.917C403.934 637.17 398.992 640.78 394.643 642.786C391.445 644.261 386.918 645.886 383.044 644.218C379.125 642.529 376.729 637.758 378.68 632.656C380.238 628.58 384.963 627.22 384.963 627.22L384.965 627.218Z" fill="#2782A1"/>
<path d="M293.936 543.246C293.936 543.246 295.409 548.123 292.974 551.701C289.925 556.18 284.784 556.674 281.296 554.16C277.848 551.675 276.699 546.828 276.148 543.226C275.401 538.33 275.62 532.04 276.085 528.638C279.142 527.359 284.947 525.638 289.684 525.231C293.17 524.931 297.956 524.943 301.091 527.845C304.263 530.78 305.026 536.106 301.581 540.26C298.828 543.577 293.936 543.248 293.936 543.248V543.246Z" fill="#2782A1"/>
<path d="M743.277 449.895C743.277 449.895 740.061 446.037 740.922 441.742C742.002 436.365 746.527 433.771 750.688 434.625C754.799 435.468 757.709 439.434 759.593 442.508C762.152 446.688 764.357 452.547 765.234 455.858C762.92 458.303 758.256 462.299 754.068 464.644C750.988 466.371 746.592 468.353 742.608 466.998C738.575 465.628 735.838 461.062 737.409 455.819C738.663 451.63 743.275 449.897 743.275 449.897L743.277 449.895Z" fill="#2782A1"/>
<path d="M480.014 23.9622C480.014 23.9622 475.937 21.1229 475.685 16.7435C475.369 11.259 479.078 7.51453 483.309 7.19514C487.489 6.87966 491.297 9.90506 493.891 12.3524C497.416 15.6815 501.021 20.7271 502.704 23.68C501.09 26.674 497.598 31.8097 494.152 35.2231C491.614 37.7351 487.878 40.8546 483.692 40.641C479.457 40.4274 475.661 36.775 475.851 31.2846C476.004 26.8994 480.016 23.9602 480.016 23.9602L480.014 23.9622Z" fill="#2782A1"/>
<path d="M162.676 457.927C162.676 457.927 163.526 452.892 167.269 450.889C171.955 448.381 176.735 450.415 178.717 454.326C180.678 458.19 179.554 463.044 178.449 466.504C176.947 471.209 173.969 476.683 172.053 479.478C168.775 479.14 162.864 477.875 158.48 475.958C155.255 474.548 151.012 472.233 149.514 468.152C147.997 464.021 149.675 458.929 154.57 456.901C158.48 455.28 162.676 457.927 162.676 457.927V457.927Z" fill="#2782A1"/>
<path d="M495.583 448.352C495.583 448.352 500.194 446.62 503.721 449.012C508.137 452.008 508.819 457.346 506.551 461.082C504.31 464.776 499.714 466.171 496.285 466.89C491.624 467.868 485.59 467.891 482.312 467.546C480.963 464.411 479.079 458.433 478.496 453.511C478.067 449.89 477.886 444.901 480.537 441.517C483.221 438.092 488.291 437.081 492.411 440.504C495.701 443.239 495.583 448.35 495.583 448.35V448.352Z" fill="#2782A1"/>
<path d="M828.967 530.836C828.967 530.836 829.902 535.855 827.095 539.125C823.579 543.216 818.419 543.103 815.225 540.191C812.069 537.314 811.451 532.365 811.294 528.72C811.083 523.767 811.983 517.543 812.812 514.218C815.988 513.307 821.942 512.282 826.693 512.435C830.189 512.547 834.943 513.125 837.745 516.376C840.58 519.666 840.76 525.048 836.886 528.769C833.79 531.742 828.967 530.836 828.967 530.836V530.836Z" fill="#2782A1"/>
<path d="M856.478 620.062C856.478 620.062 860.68 617.426 864.586 619.059C869.475 621.1 871.14 626.199 869.613 630.326C868.103 634.403 863.854 636.706 860.625 638.107C856.235 640.011 850.322 641.259 847.042 641.587C845.134 638.786 842.172 633.304 840.682 628.593C839.586 625.129 838.476 620.272 840.447 616.413C842.441 612.508 847.226 610.488 851.904 613.01C855.641 615.024 856.478 620.062 856.478 620.062V620.062Z" fill="#2782A1"/>
<path d="M389.702 493.509C389.702 493.509 391.471 488.74 395.513 487.529C400.576 486.012 404.889 488.975 406.109 493.209C407.314 497.397 405.313 501.931 403.587 505.103C401.24 509.416 397.303 514.185 394.906 516.542C391.751 515.551 386.187 513.117 382.242 510.351C379.338 508.317 375.605 505.189 374.894 500.883C374.172 496.523 376.762 491.865 381.94 490.864C386.077 490.064 389.7 493.507 389.7 493.507L389.702 493.509Z" fill="#2782A1"/>
<path d="M191.614 567.811C191.614 567.811 189.144 563.395 190.759 559.345C192.781 554.272 197.69 552.604 201.625 554.252C205.515 555.88 207.666 560.34 208.966 563.726C210.734 568.329 211.854 574.513 212.122 577.938C209.413 579.891 204.117 582.909 199.582 584.4C196.247 585.497 191.575 586.591 187.903 584.484C184.186 582.354 182.311 577.336 184.791 572.491C186.772 568.619 191.612 567.813 191.612 567.813L191.614 567.811Z" fill="#2782A1"/>
<path d="M520.245 134.256C520.245 134.256 524.978 132.927 528.303 135.614C532.468 138.98 532.725 144.357 530.168 147.886C527.643 151.373 522.951 152.369 519.477 152.79C514.754 153.362 508.738 152.869 505.5 152.242C504.404 149.003 503 142.881 502.808 137.926C502.666 134.281 502.88 129.292 505.792 126.148C508.737 122.965 513.871 122.393 517.704 126.159C520.767 129.167 520.245 134.252 520.245 134.252V134.256Z" fill="#2782A1"/>
<path d="M320.41 4.73608C320.41 4.73608 323.028 0.413536 327.22 0.0392814C332.468 -0.429027 336.15 3.34487 336.564 7.74776C336.974 12.0977 334.17 16.146 331.888 18.9107C328.786 22.669 324.041 26.5565 321.253 28.3867C318.342 26.7799 313.333 23.2705 309.974 19.7612C307.502 17.1806 304.418 13.3616 304.516 8.99201C304.614 4.56953 308.019 0.521306 313.285 0.582049C317.493 0.631035 320.41 4.73804 320.41 4.73804V4.73608Z" fill="#2782A1"/>
<path d="M480.414 262.803C480.414 262.803 483.766 266.532 483.06 270.859C482.174 276.275 477.747 279.043 473.557 278.354C469.419 277.672 466.366 273.825 464.374 270.827C461.666 266.752 459.251 260.985 458.255 257.709C460.478 255.173 464.993 251 469.095 248.49C472.111 246.644 476.43 244.49 480.461 245.688C484.539 246.899 487.44 251.354 486.06 256.655C484.958 260.889 480.412 262.803 480.412 262.803H480.414Z" fill="#2782A1"/>
<path d="M473.553 564.044C473.553 564.044 470.148 560.366 470.793 556.031C471.601 550.602 475.988 547.764 480.188 548.389C484.337 549.007 487.442 552.806 489.477 555.775C492.244 559.807 494.74 565.539 495.783 568.797C493.595 571.366 489.138 575.61 485.074 578.181C482.084 580.074 477.796 582.292 473.749 581.157C469.654 580.009 466.689 575.6 467.995 570.278C469.038 566.026 473.555 564.044 473.555 564.044H473.553Z" fill="#2782A1"/>
<path d="M800.399 221.077C800.399 221.077 804.917 223.061 805.96 227.312C807.263 232.635 804.299 237.042 800.203 238.19C796.157 239.325 791.869 237.105 788.879 235.212C784.814 232.639 780.36 228.395 778.172 225.826C779.215 222.568 781.711 216.838 784.477 212.806C786.512 209.839 789.618 206.04 793.767 205.423C797.964 204.797 802.352 207.637 803.16 213.064C803.805 217.401 800.399 221.079 800.399 221.079V221.077Z" fill="#2782A1"/>
<path d="M639.565 619.259C639.565 619.259 644.133 617.403 647.717 619.698C652.205 622.572 653.02 627.89 650.846 631.687C648.697 635.442 644.139 636.96 640.729 637.771C636.094 638.875 630.064 639.065 626.778 638.808C625.35 635.712 623.319 629.785 622.613 624.882C622.094 621.275 621.788 616.292 624.354 612.837C626.95 609.34 631.995 608.192 636.198 611.501C639.555 614.146 639.565 619.259 639.565 619.259V619.259Z" fill="#2782A1"/>
<path d="M225.627 364.282C225.627 364.282 220.743 364.716 217.926 361.458C214.398 357.378 215.057 352.037 218.171 349.035C221.249 346.066 226.033 345.953 229.524 346.178C234.269 346.484 240.106 348.081 243.188 349.294C243.719 352.684 244.062 358.967 243.411 363.88C242.933 367.493 241.878 372.364 238.481 374.921C235.042 377.512 229.893 377.126 226.756 372.713C224.25 369.186 225.627 364.28 225.627 364.28V364.282Z" fill="#2782A1"/>
<path d="M764.544 23.8951C764.544 23.8951 767.335 28.0981 766.026 32.2678C764.387 37.4878 759.617 39.5492 755.57 38.2246C751.57 36.9157 749.096 32.6421 747.547 29.3718C745.443 24.9258 743.867 18.8495 743.344 15.4577C745.9 13.2906 750.957 9.85565 755.366 8.00201C758.611 6.63823 763.187 5.17061 767.004 6.9733C770.869 8.79755 773.109 13.6491 770.998 18.681C769.31 22.7018 764.544 23.8971 764.544 23.8971V23.8951Z" fill="#2782A1"/>
<path d="M24.1 496.16C24.1 496.16 20.4199 492.782 20.7277 488.405C21.114 482.926 25.2685 479.728 29.5015 479.999C33.6854 480.265 37.0733 483.79 39.332 486.577C42.4003 490.364 45.3314 495.864 46.6235 499.025C44.6413 501.77 40.5279 506.375 36.6773 509.281C33.8442 511.419 29.7407 513.993 25.6195 513.202C21.4493 512.402 18.1535 508.256 19.0416 502.842C19.7514 498.518 24.102 496.16 24.102 496.16H24.1Z" fill="#2782A1"/>
<path d="M955.513 640.415C955.513 640.415 960.067 642.306 961.189 646.534C962.592 651.829 959.712 656.298 955.638 657.529C951.613 658.745 947.284 656.615 944.259 654.783C940.147 652.295 935.613 648.143 933.377 645.619C934.358 642.339 936.746 636.561 939.436 632.471C941.414 629.463 944.447 625.601 948.584 624.898C952.77 624.187 957.211 626.936 958.12 632.346C958.848 636.668 955.511 640.415 955.511 640.415H955.513Z" fill="#2782A1"/>
<path d="M952.576 175.608C952.576 175.608 947.709 174.996 945.586 171.209C942.93 166.465 944.616 161.376 948.252 159.097C951.844 156.846 956.552 157.749 959.926 158.711C964.512 160.02 969.915 162.822 972.695 164.664C972.552 168.097 971.662 174.322 970.066 178.992C968.892 182.428 966.908 186.972 963.081 188.755C959.208 190.56 954.242 189.091 952.035 184.104C950.27 180.12 952.576 175.608 952.576 175.608V175.608Z" fill="#2782A1"/>
<path d="M929.723 460.972C929.723 460.972 925.927 457.737 926.078 453.354C926.27 447.863 930.307 444.509 934.546 444.615C938.736 444.719 942.247 448.112 944.602 450.809C947.804 454.475 950.927 459.859 952.331 462.967C950.448 465.787 946.502 470.546 942.755 473.599C939.998 475.844 935.991 478.574 931.844 477.945C927.647 477.308 924.208 473.291 924.902 467.846C925.457 463.496 929.721 460.972 929.721 460.972H929.723Z" fill="#2782A1"/>
<path d="M34.6871 264.783C34.6871 264.783 35.0283 259.682 38.5495 257.282C42.9589 254.276 47.9153 255.781 50.2798 259.453C52.6169 263.082 51.9856 268.031 51.2327 271.594C50.2092 276.435 47.7957 282.204 46.1704 285.194C42.8766 285.218 36.8712 284.602 32.3187 283.172C28.97 282.12 24.5194 280.282 22.6196 276.384C20.6982 272.442 21.8569 267.193 26.5212 264.643C30.2483 262.607 34.6832 264.783 34.6832 264.783H34.6871Z" fill="#2782A1"/>
<path d="M179.733 262.694C179.733 262.694 176.337 259.006 176.994 254.674C177.818 249.248 182.213 246.423 186.409 247.059C190.556 247.688 193.651 251.498 195.679 254.47C198.433 258.51 200.915 264.248 201.949 267.51C199.755 270.073 195.287 274.304 191.216 276.865C188.221 278.75 183.927 280.956 179.884 279.81C175.792 278.65 172.84 274.231 174.157 268.913C175.21 264.665 179.733 262.694 179.733 262.694Z" fill="#2782A1"/>
<path d="M298.773 438.735C298.773 438.735 300.563 443.494 298.371 447.239C295.624 451.928 290.529 452.788 286.884 450.529C283.28 448.297 281.814 443.543 281.028 439.989C279.959 435.157 279.765 428.867 280.002 425.44C282.969 423.945 288.645 421.811 293.344 421.064C296.801 420.516 301.579 420.185 304.896 422.853C308.255 425.553 309.366 430.813 306.204 435.204C303.677 438.711 298.773 438.733 298.773 438.733V438.735Z" fill="#2782A1"/>
<path d="M758.244 636.067C758.244 636.067 760.242 640.736 758.217 644.581C755.682 649.395 750.627 650.5 746.887 648.419C743.189 646.362 741.513 641.684 740.571 638.173C739.291 633.398 738.819 627.124 738.905 623.689C741.801 622.053 747.379 619.65 752.041 618.679C755.47 617.963 760.228 617.403 763.66 619.911C767.134 622.449 768.477 627.647 765.51 632.185C763.14 635.81 758.244 636.067 758.244 636.067V636.067Z" fill="#2782A1"/>
<path d="M273.674 646.103C273.674 646.103 269.578 648.913 265.613 647.447C260.649 645.613 258.789 640.589 260.155 636.402C261.506 632.264 265.661 629.785 268.833 628.249C273.144 626.16 279.006 624.665 282.269 624.199C284.284 626.916 287.457 632.27 289.127 636.913C290.356 640.329 291.652 645.135 289.835 649.074C287.994 653.059 283.29 655.279 278.518 652.957C274.705 651.102 273.674 646.103 273.674 646.103Z" fill="#2782A1"/>
<path d="M27.729 386.18C27.729 386.18 32.2404 384.182 35.8911 386.363C40.4612 389.094 41.4298 394.383 39.3653 398.249C37.3262 402.067 32.8129 403.731 29.4289 404.65C24.8273 405.898 18.8044 406.278 15.5145 406.125C13.9989 403.075 11.7952 397.216 10.9482 392.337C10.3247 388.747 9.87379 383.776 12.3402 380.241C14.8341 376.663 19.8435 375.358 24.1411 378.533C27.5742 381.07 27.731 386.18 27.731 386.18H27.729Z" fill="#2782A1"/>
<path d="M703.439 120.868C703.439 120.868 708.257 119.916 711.376 122.859C715.283 126.543 715.15 131.926 712.344 135.245C709.572 138.525 704.824 139.146 701.33 139.293C696.579 139.491 690.617 138.523 687.433 137.645C686.574 134.328 685.617 128.114 685.786 123.159C685.91 119.512 686.484 114.557 689.615 111.651C692.784 108.71 697.944 108.545 701.492 112.603C704.328 115.844 703.439 120.874 703.439 120.874V120.868Z" fill="#2782A1"/>
</g>
</g>
</g>
<defs>
<clipPath id="clip0_1085_5904">
<rect width="978" height="674" fill="white"/>
</clipPath>
</defs>
</svg>
