<svg width="334" height="80" viewBox="0 0 334 80" fill="none" xmlns="http://www.w3.org/2000/svg">
<g clip-path="url(#clip0_1085_3828)">
<path d="M47.6018 2.82133C46.0094 20.9968 45.7136 39.3126 46.7259 57.5582C46.8738 60.2529 50.2862 60.2669 50.1383 57.5582C49.126 39.3126 49.4103 20.9968 51.0141 2.82133C51.253 0.126594 47.8406 0.154664 47.6018 2.82133V2.82133Z" fill="#5385BC"/>
<path d="M50.7297 4.99677C81.1792 4.89852 111.629 4.80028 142.078 4.688C172.528 4.58975 202.977 4.49151 233.426 4.37923C250.636 4.32309 267.846 4.26695 285.055 4.21081C287.25 4.21081 287.25 -0.0137561 285.055 0.000279034C254.606 0.0985246 224.156 0.19677 193.707 0.309051C163.257 0.421332 132.808 0.505542 102.358 0.617823C85.1489 0.673963 67.9393 0.730104 50.7297 0.786244C48.5344 0.786244 48.5344 5.01081 50.7297 4.99677V4.99677Z" fill="#5385BC"/>
<path d="M48.4433 59.6634C79.3478 62.302 110.309 63.902 141.293 64.4213C172.277 64.9406 203.273 64.3792 234.223 62.6389C251.557 61.6704 268.869 60.3231 286.158 58.5687C288.331 58.3441 288.354 54.1336 286.158 54.3582C255.288 57.4739 224.338 59.3266 193.365 60.0424C162.381 60.7582 131.386 60.3652 100.425 58.9055C83.09 58.0915 65.7553 56.9406 48.4547 55.4529C46.2594 55.2704 46.2708 59.481 48.4547 59.6634H48.4433Z" fill="#5385BC"/>
<path d="M283.679 2.13362C284.816 20.1827 286.136 38.4003 284.441 56.4634C284.191 59.1441 287.603 59.1301 287.853 56.4634C289.548 38.4003 288.229 20.1827 287.091 2.13362C286.921 -0.547087 283.508 -0.575157 283.679 2.13362V2.13362Z" fill="#5385BC"/>
<path d="M47.3178 20.2948C33.4523 19.0878 19.5755 17.8668 5.70999 16.6598C4.15169 16.5194 3.57159 19.0036 4.5043 20.2527C11.3631 29.4317 18.2219 38.6106 25.0807 47.7896C26.5708 49.7826 28.9822 46.8071 27.4921 44.8141C20.6333 35.6352 13.7745 26.4562 6.91569 17.2773L5.70999 20.8703C19.5755 22.0773 33.4523 23.2984 47.3178 24.5054C49.5131 24.7019 49.5017 20.4913 47.3178 20.2948Z" fill="#5385BC"/>
<path d="M25.081 44.8143C16.7094 53.4459 8.87237 62.8213 0.50076 71.4529C-0.477445 72.4494 0.0571556 74.6529 1.25148 74.9757C9.75958 77.2634 18.6203 77.9792 27.2876 78.695C37.5133 79.5231 47.7731 79.9862 58.0215 79.9582C62.412 79.9582 66.8139 79.8599 71.1931 79.4248C73.3656 79.2003 73.3884 74.9897 71.1931 75.2143C62.6281 76.0704 53.9722 75.8318 45.3958 75.5231C35.1588 75.1722 24.9104 74.4985 14.7302 73.1933C10.5217 72.6599 6.30174 72.0283 2.16143 70.9196L2.91215 74.4424C11.2838 65.8108 19.1208 56.4354 27.4924 47.8038C29.1758 46.0634 26.753 43.102 25.081 44.8283V44.8143Z" fill="#5385BC"/>
<path d="M47.2377 59.0458C50.7865 63.102 54.6993 66.709 58.7259 69.9932C62.5477 73.109 66.5629 76.0423 70.8852 77.9932C72.9554 78.9195 73.8426 74.8634 71.7952 73.9371C67.7686 72.1125 64.015 69.2634 60.4548 66.3581C56.6558 63.2704 52.9932 59.888 49.6604 56.0704C48.0453 54.2318 45.6339 57.2073 47.2491 59.0458H47.2377Z" fill="#5385BC"/>
<path d="M72.9098 76.8565C73.1828 71.481 73.4444 66.0915 73.7174 60.7161C73.7743 59.5793 72.8985 58.6108 72.0113 58.6108C71.0444 58.6108 70.362 59.5793 70.3051 60.7161C70.0321 66.0915 69.7705 71.481 69.4975 76.8565C69.4406 77.9933 70.3165 78.9617 71.2037 78.9617C72.1705 78.9617 72.853 77.9933 72.9098 76.8565Z" fill="#5385BC"/>
<path d="M286.682 24.5055C300.547 23.2985 314.424 22.0774 328.29 20.8704L327.084 17.2774C320.225 26.4564 313.366 35.6353 306.508 44.8143C305.018 46.8072 307.429 49.7827 308.919 47.7897C315.778 38.6108 322.637 29.4318 329.495 20.2529C330.428 19.0037 329.848 16.5195 328.29 16.6599C314.424 17.8669 300.547 19.088 286.682 20.295C284.509 20.4915 284.487 24.702 286.682 24.5055V24.5055Z" fill="#5385BC"/>
<path d="M306.507 47.7897C314.879 56.4213 322.716 65.7967 331.088 74.4283L331.838 70.9055C323.501 73.1511 314.822 73.8108 306.325 74.4985C296.111 75.3125 285.874 75.7757 275.637 75.7196C271.36 75.7055 267.061 75.6213 262.795 75.1862C260.611 74.9617 260.623 79.1722 262.795 79.3967C271.485 80.2669 280.278 80.0143 288.979 79.6915C299.194 79.3266 309.431 78.6529 319.599 77.3336C324.001 76.7581 328.415 76.1125 332.737 74.9476C333.931 74.6248 334.466 72.4353 333.488 71.4248C325.116 62.7932 317.279 53.4178 308.907 44.7862C307.235 43.0599 304.801 46.0213 306.496 47.7617L306.507 47.7897Z" fill="#5385BC"/>
<path d="M284.35 56.0704C281.006 59.888 277.343 63.2564 273.556 66.3581C269.995 69.2634 266.242 72.1125 262.215 73.9371C260.168 74.8634 261.055 78.9336 263.125 77.9932C267.447 76.0423 271.463 73.109 275.284 69.9932C279.311 66.709 283.224 63.102 286.773 59.0458C288.388 57.2073 285.976 54.2318 284.361 56.0704H284.35Z" fill="#5385BC"/>
<path d="M264.502 76.8565C264.229 71.481 263.967 66.0915 263.694 60.7161C263.637 59.5793 262.955 58.6108 261.988 58.6108C261.112 58.6108 260.225 59.5793 260.282 60.7161C260.543 66.0915 260.816 71.481 261.089 76.8565C261.146 77.9933 261.829 78.9617 262.795 78.9617C263.671 78.9617 264.558 77.9933 264.502 76.8565Z" fill="#5385BC"/>
<path d="M49.5018 12.8C52.8118 12.7439 56.1445 12.9544 59.4544 13.0386C62.7644 13.1228 66.0971 13.3755 69.4071 13.2632C70.1237 13.2351 70.1123 11.9579 69.4071 11.8878C66.1085 11.6211 62.7644 11.7053 59.4544 11.6351C56.1445 11.565 52.8118 11.6071 49.5018 11.3965C48.7738 11.3544 48.7738 12.8 49.5018 12.786V12.8Z" fill="#5385BC"/>
<path d="M49.877 18.0351C56.1216 18.2316 62.4003 18.5966 68.6449 18.5966C69.3842 18.5966 69.3729 17.2351 68.6449 17.193C62.4117 16.8281 56.133 16.8141 49.877 16.6316C49.1491 16.6036 49.1491 18.0071 49.877 18.0211V18.0351Z" fill="#5385BC"/>
<path d="M49.6609 26.1474C50.6618 26.2176 51.6514 26.4422 52.6524 26.5685C53.6533 26.6948 54.6543 26.779 55.6552 26.8352C56.6562 26.8913 57.6571 26.9334 58.6581 26.9334C59.6591 26.9334 60.6486 27.0317 61.5813 26.8352C62.2524 26.6948 62.0249 25.5299 61.4335 25.4738C60.4894 25.3615 59.4884 25.5439 58.5444 25.5439C57.6003 25.5439 56.6107 25.5159 55.6552 25.4597C53.733 25.3615 51.6969 25.2913 49.8088 24.786C49.0126 24.5755 48.8306 26.0913 49.6609 26.1474V26.1474Z" fill="#5385BC"/>
<path d="M49.5018 32.5755C50.8895 32.4492 52.3568 32.6597 53.7445 32.7159C55.1322 32.772 56.4744 32.8141 57.8507 32.8562C60.6261 32.9545 63.4128 33.0948 66.1882 33.151C66.9503 33.165 66.9503 31.7334 66.1882 31.6913C63.4128 31.565 60.6261 31.5369 57.8507 31.4527C56.4857 31.4106 55.1208 31.3685 53.7445 31.3264C52.3682 31.2843 50.8781 31.3966 49.5018 31.186C48.7852 31.0738 48.7625 32.6457 49.5018 32.5755Z" fill="#5385BC"/>
<path d="M49.3311 39.4808C51.4354 39.6772 53.5396 40.1123 55.6325 40.4351C56.6449 40.5895 57.6458 40.7439 58.6581 40.8983C59.1586 40.9825 59.6705 41.0527 60.1709 41.1369C60.7624 41.2211 61.4563 41.2351 62.025 41.4878C62.9236 41.8808 63.1283 39.8316 62.1956 39.9439C61.1947 40.0702 60.0458 39.6913 59.0449 39.5509C58.0439 39.4106 56.9406 39.2422 55.8941 39.0878C53.7671 38.779 51.606 38.5685 49.4903 38.1334C48.6827 37.965 48.5235 39.4246 49.3425 39.4948L49.3311 39.4808Z" fill="#5385BC"/>
<path d="M49.1151 50.1334C52.3682 50.3018 55.6213 50.4703 58.8744 50.6387C60.4782 50.7229 62.082 50.765 63.6858 50.8633C64.4934 50.9054 65.2896 50.9615 66.0858 51.0176C66.882 51.0738 67.8147 51.2001 68.6337 51.1159C69.2365 51.0597 69.4867 49.8387 68.7929 49.6983C68.0422 49.544 67.2687 49.6282 66.518 49.558C65.6763 49.4878 64.8232 49.4738 63.9701 49.4457C62.3208 49.3896 60.6715 49.2773 59.0222 49.2071C55.7236 49.0387 52.4137 48.8983 49.1151 48.7439C48.3871 48.7159 48.3871 50.1054 49.1151 50.1334V50.1334Z" fill="#5385BC"/>
<path d="M286.898 10.3018C286.432 10.386 285.852 10.2176 285.374 10.2035C284.862 10.1895 284.35 10.1474 283.839 10.1334C282.769 10.0913 281.7 10.0632 280.62 10.0351C278.481 9.97898 276.331 10.007 274.193 10.0632C272.055 10.1193 269.905 10.2316 267.766 10.386C266.743 10.4562 265.719 10.5404 264.695 10.6386C263.672 10.7369 262.534 10.7649 261.488 11.0176C260.885 11.172 261.044 12.3088 261.636 12.3228C262.693 12.3509 263.785 12.1263 264.843 12.0281C265.901 11.9299 266.891 11.8456 267.914 11.7614C270.007 11.607 272.1 11.5088 274.204 11.4386C276.309 11.3685 278.299 11.3825 280.358 11.3965C281.382 11.3965 282.405 11.4386 283.429 11.4667C283.986 11.4807 284.544 11.5088 285.101 11.5369C285.658 11.5649 286.375 11.4667 286.91 11.6351C287.763 11.9158 287.876 10.1053 286.91 10.2877L286.898 10.3018Z" fill="#5385BC"/>
<path d="M285.897 15.6211C284.589 15.7474 283.27 15.6351 281.95 15.6492H278.288C275.797 15.6492 273.306 15.6632 270.826 15.6632C268.347 15.6632 265.844 15.6632 263.364 15.6632C260.885 15.6632 258.269 15.5229 255.755 15.7053C255.038 15.7615 255.038 17.0387 255.755 17.0808C258.269 17.2632 260.839 17.1088 263.364 17.0808C265.89 17.0527 268.347 17.0527 270.826 17.0387C273.306 17.0246 275.808 17.0246 278.288 17.0106H281.95C283.258 16.9966 284.589 16.8702 285.897 16.9966C286.625 17.0667 286.625 15.5369 285.897 15.6071V15.6211Z" fill="#5385BC"/>
<path d="M286.091 22.2036C284.123 22.4843 282.132 22.5545 280.165 22.7229L274.238 23.2141C272.305 23.3685 270.383 23.5369 268.449 23.6913C266.515 23.8457 264.388 23.9299 262.386 24.2247C261.692 24.3229 261.658 25.6141 262.386 25.6001C264.354 25.544 266.345 25.2773 268.312 25.1229C270.28 24.9685 272.259 24.7861 274.238 24.6177L280.028 24.1124C282.041 23.944 284.077 23.6633 286.091 23.6212C286.83 23.6071 286.796 22.1334 286.091 22.2317V22.2036Z" fill="#5385BC"/>
<path d="M286.136 31.2843C286 31.3404 285.693 31.2282 285.556 31.2282C285.363 31.2282 285.17 31.2001 284.976 31.1861C284.544 31.1439 284.1 31.1439 283.668 31.1299C282.826 31.1159 281.996 31.1159 281.154 31.1299C279.448 31.1861 277.742 31.3404 276.047 31.6071C275.331 31.7194 275.331 33.1089 276.047 32.9966C277.742 32.7299 279.448 32.5615 281.154 32.5053C281.996 32.4773 282.826 32.4632 283.668 32.4913C284.066 32.4913 284.476 32.5194 284.874 32.5334C285.317 32.5475 285.772 32.6457 286.205 32.5194L285.829 32.4632L285.988 32.5615C287.024 33.179 287.058 30.9054 286.125 31.2843H286.136Z" fill="#5385BC"/>
<path d="M286.091 38.1475C283.372 38.4422 280.597 38.3299 277.878 38.4001C275.16 38.4703 272.396 38.4983 269.666 38.6387L269.814 40.0141C269.95 39.9861 270.087 39.958 270.223 39.9299C271.167 40.1825 271.031 38.3018 270.223 38.6387C270.075 38.7089 269.814 38.6387 269.666 38.6387C268.938 38.5966 268.927 40.0562 269.666 40.0422C272.407 40.0141 275.148 39.8738 277.878 39.7896C280.608 39.7054 283.372 39.4106 286.091 39.551C286.83 39.5931 286.807 38.0773 286.091 38.1615V38.1475Z" fill="#5385BC"/>
<path d="M286.273 44.7159C284.965 44.8282 283.623 44.6878 282.314 44.6597C281.006 44.6317 279.585 44.6036 278.22 44.5755C275.535 44.5334 272.84 44.5615 270.167 44.4071C269.404 44.365 269.404 45.8808 270.167 45.8668C272.851 45.8106 275.535 45.9369 278.22 45.979C279.539 46.0071 280.859 46.0211 282.178 46.0352C283.497 46.0492 284.931 45.951 286.273 46.1054C286.989 46.1896 287.001 44.6457 286.273 44.7159V44.7159Z" fill="#5385BC"/>
<path d="M285.943 49.3054C285.75 49.3756 285.306 49.2212 285.101 49.1791C284.771 49.137 284.441 49.0948 284.112 49.0527C283.475 48.9826 282.838 48.9124 282.212 48.8703C280.915 48.772 279.63 48.5756 278.322 48.5334C278.015 48.5334 277.765 48.8563 277.765 49.2212C277.765 49.6282 278.026 49.8668 278.322 49.9089C279.585 50.1054 280.87 50.1054 282.121 50.3019C282.724 50.4001 283.338 50.4001 283.952 50.4703C284.259 50.5124 284.567 50.5264 284.874 50.5545C285.056 50.5545 285.226 50.5826 285.408 50.5826C285.499 50.5826 285.761 50.5405 285.806 50.5826C286.159 50.7791 286.591 50.5826 286.648 50.0773C286.705 49.6001 286.33 49.1791 285.943 49.3194V49.3054Z" fill="#5385BC"/>
<path d="M28.8457 67.3825C27.9812 67.4948 27.0258 67.2983 26.1613 67.2281C25.2969 67.1579 24.4665 67.1158 23.6134 67.0597C21.8163 66.9334 20.0305 66.8211 18.2333 66.6948C14.6958 66.4562 11.1584 66.2176 7.62093 65.979C6.89296 65.9369 6.89296 67.3263 7.62093 67.3684C11.1129 67.593 14.6049 67.8176 18.0968 68.0562C19.7916 68.1684 21.4978 68.2807 23.1926 68.393C24.0912 68.4491 24.9897 68.5193 25.877 68.5755C26.7642 68.6316 27.8106 68.5193 28.6978 68.7579C29.585 68.9965 29.6192 67.2983 28.8457 67.3965V67.3825Z" fill="#5385BC"/>
<path d="M29.9718 59.6212C25.0466 59.3124 20.1101 58.8913 15.185 58.6387C14.4115 58.5966 14.4229 60.0563 15.185 60.1124C20.1101 60.4913 25.0466 60.6878 29.9718 61.0106C30.6998 61.0527 30.6998 59.6633 29.9718 59.6212V59.6212Z" fill="#5385BC"/>
<path d="M34.7605 52.2387C32.6562 52.744 30.404 52.744 28.2656 52.7299C26.1272 52.7159 23.9206 52.5615 21.7822 52.1545C20.9405 52.0001 20.7699 53.4598 21.6229 53.572C23.8296 53.8808 26.0362 54.1054 28.2543 54.1054C30.4723 54.1054 32.6789 53.7685 34.8969 53.6141C35.7045 53.558 35.568 52.0562 34.7491 52.2527L34.7605 52.2387Z" fill="#5385BC"/>
<path d="M32.622 27.5088C26.1727 27.186 19.7347 26.8211 13.2854 26.4983C12.512 26.4562 12.512 27.9439 13.2854 27.972C19.7234 28.2948 26.1727 28.5755 32.622 28.8843C33.35 28.9264 33.35 27.5229 32.622 27.4948V27.5088Z" fill="#5385BC"/>
<path d="M29.221 33.8527C28.675 33.9369 28.1063 33.7966 27.5603 33.7545C27.0143 33.7123 26.457 33.6843 25.8996 33.6422C24.8645 33.572 23.8408 33.5018 22.8058 33.4176C21.7707 33.3334 20.747 33.2773 19.7119 33.2071C19.1546 33.165 18.6086 33.1369 18.0512 33.1088C17.5735 33.0808 17.2095 33.0106 16.8228 33.4036C16.6522 33.572 16.6863 33.9229 16.8228 34.0913C17.1754 34.5404 17.5735 34.4702 18.0512 34.5124C18.529 34.5545 19.0067 34.5825 19.473 34.6106C20.5422 34.6808 21.6114 34.7509 22.6806 34.8211C23.7498 34.8913 24.7394 34.9474 25.7745 35.0176C26.2864 35.0457 26.8096 35.0878 27.3214 35.1159C27.8902 35.1439 28.5158 35.0738 29.0731 35.2281C29.9376 35.4667 29.9944 33.7545 29.221 33.8667V33.8527Z" fill="#5385BC"/>
<path d="M320.999 27.7475C320.544 27.8878 320.009 27.8598 319.532 27.8878C319.1 27.9159 318.667 27.958 318.235 28.0001C317.336 28.0843 316.438 28.1545 315.539 28.2387C313.742 28.4071 311.945 28.5615 310.148 28.7299C309.431 28.8001 309.431 30.1756 310.148 30.1054C311.979 29.937 313.81 29.7685 315.642 29.6001C316.54 29.5159 317.439 29.4177 318.337 29.3475C318.77 29.3054 319.202 29.2633 319.634 29.2352C320.135 29.1931 320.646 29.0527 321.147 29.1229C321.92 29.2212 321.852 27.4808 320.999 27.7615V27.7475Z" fill="#5385BC"/>
<path d="M314.425 33.9649L314.265 34.0491L314.652 33.993C314.254 33.9088 313.867 33.993 313.458 34.0351C313.048 34.0772 312.616 34.1193 312.207 34.1474C311.399 34.2176 310.591 34.2737 309.795 34.3719C308.157 34.5544 306.508 34.6807 304.87 34.8351C304.153 34.9053 304.153 36.2807 304.87 36.2105C306.508 36.0562 308.157 35.8597 309.795 35.7333C310.603 35.6632 311.41 35.579 312.207 35.4948C312.582 35.4526 312.946 35.4105 313.321 35.3825C313.526 35.3684 313.742 35.3263 313.947 35.3123C314.106 35.3123 314.413 35.2 314.572 35.2562C315.528 35.5509 315.471 33.4456 314.436 33.979L314.425 33.9649Z" fill="#5385BC"/>
<path d="M312.059 51.2842C311.24 51.3825 310.375 51.2141 309.545 51.186C308.715 51.1579 307.93 51.1158 307.134 51.0737L304.722 50.9755C303.971 50.9474 303.005 50.7088 302.277 51.0176L302.641 51.0737L302.481 50.9895C301.446 50.4421 301.515 52.5614 302.356 52.1965C302.459 52.1544 302.72 52.2527 302.834 52.2667C303.05 52.2948 303.255 52.3088 303.471 52.3088L304.631 52.3509L307.043 52.4491C307.816 52.4772 308.589 52.5053 309.363 52.5334C309.75 52.5474 310.136 52.5614 310.523 52.5614C310.967 52.5614 311.479 52.5474 311.922 52.6316C312.787 52.8 312.843 51.172 312.07 51.2702L312.059 51.2842Z" fill="#5385BC"/>
<path d="M317.769 57.6562C317.598 57.6562 317.325 57.5018 317.154 57.4456C317.006 57.3895 316.859 57.3333 316.699 57.2912C316.347 57.193 315.983 57.0947 315.63 57.0105C314.936 56.8561 314.242 56.7579 313.537 56.6877C312.104 56.5614 310.671 56.6456 309.249 56.8842C308.942 56.9404 308.783 57.4035 308.862 57.7404C308.942 58.1333 309.249 58.2737 309.556 58.2176C310.876 57.993 312.218 57.9369 313.549 58.0632C314.208 58.1193 314.845 58.2316 315.494 58.3719C315.801 58.4421 316.108 58.5123 316.415 58.6105C316.563 58.6526 316.722 58.6807 316.87 58.7369C317.052 58.793 317.325 58.8351 317.484 58.9614C318.235 59.607 318.758 57.6281 317.769 57.6702V57.6562Z" fill="#5385BC"/>
<path d="M322.296 62.9054H305.234C304.495 62.8913 304.495 64.3089 305.234 64.3089H322.296C323.024 64.2949 323.024 62.9054 322.296 62.9054Z" fill="#5385BC"/>
<path d="M69.7024 72.8702C69.8957 69.0246 70.0891 65.193 70.2711 61.3474C64.6635 60.9544 59.0559 60.5193 53.4482 60.0702C55.7004 62.3018 58.0435 64.393 60.4435 66.3579C63.3782 68.7579 66.4493 71.1018 69.691 72.8842L69.7024 72.8702Z" fill="#FCF9F1"/>
<path d="M47.2382 59.0456C46.7832 58.5263 46.6581 57.9369 46.7264 57.3755C46.1235 46.4 45.9984 35.4105 46.3283 24.4351C34.1803 23.3684 22.021 22.3158 9.87307 21.2491C11.1925 23.0176 12.5119 24.786 13.8314 26.5544C20.0873 26.8632 26.3547 27.2141 32.622 27.5369C33.35 27.579 33.35 28.9684 32.622 28.9263C26.7414 28.6316 20.8608 28.379 14.9802 28.0842C16.2541 29.7825 17.5167 31.4807 18.7907 33.179C19.0978 33.193 19.4049 33.2211 19.712 33.2351C20.7471 33.3053 21.7708 33.3755 22.8058 33.4456C23.8409 33.5158 24.8646 33.586 25.8997 33.6702C26.457 33.7123 27.003 33.7404 27.5604 33.7825C28.1063 33.8246 28.6751 33.9509 29.221 33.8807C29.9945 33.7684 29.9263 35.4948 29.0732 35.2421C28.5158 35.0877 27.8902 35.1579 27.3215 35.1298C26.8097 35.1018 26.2864 35.0597 25.7746 35.0316C24.7395 34.9614 23.7158 34.9053 22.6807 34.8351C21.748 34.779 20.8153 34.7088 19.894 34.6527C22.4305 38.0491 24.967 41.4316 27.4921 44.8281C27.64 45.0246 27.731 45.2211 27.8106 45.4316C28.1746 46.1474 28.186 47.0737 27.4921 47.8035C26.0362 49.3053 24.6144 50.8491 23.1926 52.379C24.876 52.6176 26.5822 52.7158 28.2656 52.7299C30.3926 52.7439 32.6561 52.7299 34.7604 52.2386C35.5794 52.0421 35.7159 53.5439 34.9083 53.6C32.6903 53.7544 30.495 54.0913 28.2656 54.0913C26.1727 54.0913 24.1025 53.8807 22.021 53.6141C20.44 55.3263 18.8703 57.0527 17.312 58.779C21.5319 59.0316 25.7518 59.3544 29.9718 59.6211C30.6997 59.6632 30.6997 61.0527 29.9718 61.0106C25.331 60.7158 20.6788 60.5053 16.0494 60.1684C14.2409 62.1755 12.4323 64.1684 10.6238 66.1614C13.1603 66.3299 15.6968 66.4983 18.2333 66.6807C20.0305 66.807 21.8163 66.9193 23.6134 67.0456C24.4665 67.1018 25.3196 67.1299 26.1613 67.2141C27.0258 67.2983 27.9926 67.4807 28.8457 67.3684C29.6192 67.2702 29.5509 68.9685 28.6978 68.7299C27.8106 68.4913 26.7869 68.6035 25.877 68.5474C24.9784 68.4913 24.0798 68.4211 23.1926 68.3649L18.0968 68.0281C15.2077 67.8456 12.33 67.6492 9.44084 67.4667C8.13277 68.8842 6.81334 70.2877 5.4939 71.6772C8.55363 72.3228 11.6475 72.772 14.7413 73.1649C24.9329 74.4702 35.1813 75.1439 45.4069 75.4948C52.3795 75.7334 59.4089 75.9299 66.3928 75.5369C63.7426 73.8948 61.1947 71.972 58.7378 69.9649C54.7112 66.6807 50.7984 63.0737 47.2496 59.0176L47.2382 59.0456Z" fill="#FCF9F1"/>
<path d="M313.594 35.3404C313.503 35.3404 313.412 35.3684 313.309 35.3684C312.934 35.3965 312.57 35.4386 312.195 35.4807C311.387 35.5649 310.58 35.6632 309.783 35.7193C308.134 35.8456 306.496 36.0421 304.858 36.1965C304.142 36.2667 304.142 34.8772 304.858 34.8211C306.496 34.6667 308.145 34.5404 309.783 34.3579C310.591 34.2737 311.399 34.2035 312.195 34.1334C312.616 34.1053 313.036 34.0491 313.446 34.0211C313.764 34.007 314.083 33.9649 314.39 33.979H314.413C314.504 33.9228 314.572 33.9228 314.652 33.9088C315.778 32.407 316.904 30.8913 318.03 29.3895C317.234 29.4597 316.437 29.5439 315.641 29.6141C313.81 29.7825 311.979 29.9509 310.147 30.1193C309.431 30.1895 309.431 28.8 310.147 28.7439C311.945 28.5755 313.742 28.4211 315.539 28.2527C316.437 28.1684 317.336 28.0983 318.235 28.0141C318.53 27.986 318.826 27.9579 319.11 27.9439C320.782 25.7123 322.443 23.4807 324.115 21.2491C312.195 22.2877 300.274 23.3404 288.354 24.379C288.797 35.0877 288.854 45.8106 287.853 56.4772C287.808 56.9404 287.671 57.3193 287.467 57.6141C287.41 57.7263 287.342 57.8246 287.273 57.9228C287.228 58.3158 287.069 58.7088 286.761 59.0597C283.213 63.1158 279.3 66.7228 275.273 70.007C272.816 72 270.291 73.9228 267.652 75.5649C270.314 75.6913 272.976 75.7474 275.637 75.7474C285.874 75.7895 296.111 75.3404 306.326 74.5263C313.708 73.9369 321.215 73.3474 328.529 71.7334C326.231 69.2913 323.945 66.8211 321.681 64.3228C316.199 64.3228 310.716 64.3228 305.234 64.3369C304.494 64.3369 304.494 62.9053 305.234 62.9053H320.419C319.133 61.5018 317.848 60.0842 316.563 58.6667C316.517 58.6667 316.46 58.6386 316.415 58.6246C316.108 58.5263 315.8 58.4562 315.493 58.386C314.845 58.2456 314.197 58.1334 313.548 58.0772C312.218 57.9649 310.875 58.007 309.556 58.2316C309.26 58.2877 308.953 58.1474 308.862 57.7544C308.794 57.4316 308.953 56.9544 309.249 56.8983C310.671 56.6597 312.104 56.5755 313.537 56.7018C314.015 56.7439 314.492 56.8141 314.959 56.8983C313.651 55.4527 312.32 54.0211 311 52.5895C310.83 52.5895 310.659 52.5895 310.5 52.5895C310.113 52.5895 309.727 52.5755 309.34 52.5614C308.566 52.5193 307.793 52.5053 307.019 52.4772C306.212 52.4491 305.404 52.407 304.608 52.379C304.221 52.3649 303.835 52.3509 303.448 52.3369C303.232 52.3369 303.027 52.3088 302.811 52.2948C302.686 52.2948 302.435 52.1825 302.333 52.2246C301.503 52.5755 301.435 50.5544 302.413 51.0035C303.118 50.779 303.994 50.9755 304.699 51.0035L307.11 51.1018C307.918 51.1439 308.726 51.186 309.522 51.2141C309.579 51.2141 309.636 51.2141 309.681 51.2141C308.612 50.0772 307.565 48.9263 306.473 47.8035C305.768 47.0877 305.791 46.1474 306.155 45.4316C306.235 45.2211 306.326 45.0246 306.473 44.8281C308.839 41.6702 311.194 38.5123 313.56 35.3404H313.594Z" fill="#FCF9F1"/>
<path d="M284.873 50.5544C284.566 50.5264 284.259 50.5123 283.952 50.4702C283.349 50.4 282.723 50.4 282.121 50.3018C280.858 50.1053 279.584 50.1053 278.322 49.9088C278.026 49.8667 277.753 49.6281 277.764 49.2211C277.764 48.8562 278.014 48.5193 278.322 48.5334C279.618 48.5755 280.915 48.786 282.212 48.8702C282.849 48.9123 283.486 48.9825 284.111 49.0527C284.396 49.0807 284.68 49.1228 284.976 49.1509C285.032 48.0983 285.078 47.0597 285.112 46.0071C284.134 45.979 283.144 46.0071 282.177 46.0071C280.858 46.0071 279.539 45.979 278.219 45.9509C275.535 45.9088 272.839 45.7825 270.166 45.8386C269.404 45.8527 269.404 44.3369 270.166 44.379C272.839 44.5334 275.535 44.5053 278.219 44.5474C279.584 44.5755 280.949 44.6035 282.314 44.6316C283.247 44.6597 284.202 44.7299 285.146 44.7299C285.203 42.9895 285.237 41.2492 285.249 39.4948C282.792 39.4386 280.312 39.6632 277.867 39.7474C275.125 39.8457 272.384 39.972 269.654 40C268.915 40 268.926 38.5544 269.654 38.5965C272.395 38.4562 275.137 38.4281 277.867 38.3579C280.312 38.2878 282.803 38.3579 285.249 38.1755C285.249 36.2948 285.249 34.4141 285.203 32.5193C285.089 32.5193 284.987 32.5053 284.873 32.4913C284.475 32.4913 284.066 32.4632 283.668 32.4492C282.826 32.4351 281.995 32.4492 281.154 32.4632C279.448 32.5193 277.741 32.6878 276.047 32.9544C275.33 33.0667 275.33 31.6632 276.047 31.565C277.741 31.3123 279.448 31.1439 281.154 31.0878C281.995 31.0597 282.826 31.0597 283.668 31.0878C284.1 31.0878 284.543 31.0878 284.976 31.1439C285.044 31.1439 285.101 31.1439 285.169 31.1439C285.112 28.6316 285.021 26.1193 284.919 23.6071C283.281 23.7053 281.654 23.9018 280.016 24.0421C278.083 24.2106 276.16 24.379 274.227 24.5474C272.248 24.7158 270.28 24.8843 268.301 25.0527C266.333 25.2211 264.354 25.4878 262.375 25.5299C261.647 25.5439 261.681 24.2527 262.375 24.1544C264.388 23.8737 266.424 23.8035 268.437 23.6211C270.371 23.4527 272.293 23.2983 274.227 23.1439L280.153 22.6527C281.711 22.5264 283.292 22.4281 284.85 22.2597C284.771 20.4632 284.68 18.6807 284.577 16.8842C283.702 16.8842 282.814 16.9264 281.95 16.9404C280.733 16.9404 279.504 16.9404 278.287 16.9404C275.796 16.9404 273.305 16.9544 270.826 16.9685C268.335 16.9685 265.844 16.9965 263.364 17.0106C260.85 17.0246 258.268 17.179 255.755 17.0106C255.038 16.9544 255.038 15.6772 255.755 15.6351C258.268 15.4386 260.839 15.579 263.364 15.593C265.855 15.593 268.346 15.593 270.826 15.593C273.317 15.593 275.808 15.593 278.287 15.593C279.504 15.593 280.733 15.593 281.95 15.593C282.803 15.593 283.656 15.6351 284.509 15.6351C284.43 14.2457 284.35 12.8562 284.259 11.4667C283.975 11.4667 283.69 11.4386 283.406 11.4246C282.382 11.3965 281.359 11.3544 280.335 11.3544C278.287 11.3544 276.24 11.3544 274.181 11.3965C272.088 11.4527 269.984 11.565 267.891 11.7193C266.867 11.7895 265.844 11.8878 264.82 11.986C263.762 12.0842 262.67 12.3088 261.612 12.2807C261.021 12.2807 260.862 11.1299 261.465 10.9755C262.511 10.7088 263.614 10.6948 264.672 10.5965C265.696 10.4983 266.72 10.4141 267.743 10.3439C269.882 10.1895 272.02 10.0772 274.17 10.0211C276.308 9.96495 278.458 9.93688 280.596 9.99302C281.666 10.0211 282.735 10.0492 283.815 10.0913C283.929 10.0913 284.054 10.0913 284.168 10.1053C284.043 8.12635 283.918 6.14741 283.793 4.1825C266.993 4.23864 250.192 4.29478 233.392 4.35092C202.943 4.44916 172.493 4.54741 142.044 4.65969C111.64 4.75793 81.2247 4.85618 50.8207 4.96846C50.6387 7.11583 50.4795 9.2632 50.343 11.4246C53.3686 11.579 56.4056 11.5509 59.4198 11.6211C62.7298 11.6913 66.0739 11.6071 69.3725 11.8737C70.0777 11.9299 70.0891 13.2211 69.3725 13.2492C66.0625 13.3614 62.7298 13.1088 59.4198 13.0246C56.3715 12.9404 53.3117 12.772 50.252 12.786C50.1724 14.0772 50.0814 15.3544 50.0245 16.6457C56.2122 16.8281 62.4341 16.8281 68.6104 17.193C69.3384 17.2351 69.3497 18.5965 68.6104 18.5965C62.3999 18.5965 56.1667 18.2316 49.9563 18.0351C49.8539 20.2807 49.7629 22.5264 49.6946 24.772C49.7174 24.772 49.7401 24.772 49.7743 24.772C51.6624 25.2772 53.6985 25.3334 55.6207 25.4457C56.5876 25.5018 57.5544 25.5299 58.5099 25.5299C59.4539 25.5299 60.4663 25.3614 61.399 25.4597C61.9904 25.5299 62.2179 26.6807 61.5468 26.8211C60.6028 27.0176 59.5677 26.9334 58.6236 26.9193C57.6227 26.9193 56.6217 26.8772 55.6207 26.8211C54.6198 26.765 53.6188 26.6667 52.6179 26.5544C51.6397 26.4421 50.6501 26.2176 49.6719 26.1474C49.6264 27.8316 49.5923 29.5018 49.5695 31.186C50.9231 31.3825 52.3563 31.2702 53.7098 31.3123C55.0748 31.3544 56.4397 31.3965 57.816 31.4386C60.5914 31.5228 63.3781 31.5509 66.1535 31.6772C66.9156 31.7053 66.9156 33.1509 66.1535 33.1369C63.3781 33.0807 60.5914 32.9404 57.816 32.8421L53.7098 32.7018C52.3449 32.6597 50.9117 32.4632 49.5581 32.5614C49.5354 34.4141 49.5354 36.2667 49.5354 38.1193C51.6283 38.5544 53.7553 38.7509 55.8596 39.0597C56.9061 39.2141 57.9639 39.3685 59.0103 39.5228C60.0113 39.6632 61.1601 40.0421 62.1611 39.9158C63.0938 39.8035 62.889 41.8527 61.9904 41.4597C61.4331 41.2071 60.7393 41.193 60.1364 41.1088C59.6359 41.0386 59.1241 40.9544 58.6236 40.8702C57.6113 40.7158 56.6103 40.5614 55.598 40.4071C53.5847 40.0983 51.5601 39.6913 49.5468 39.4807C49.5695 42.5685 49.6378 45.6562 49.7401 48.7299C52.8226 48.8702 55.9051 49.0106 58.9876 49.165C60.6369 49.2492 62.2862 49.3614 63.9355 49.4035C64.7886 49.4316 65.6417 49.4457 66.4834 49.5158C67.2455 49.586 68.0189 49.5158 68.7583 49.6562C69.4635 49.7965 69.2132 51.0176 68.599 51.0737C67.7801 51.1579 66.8815 51.0176 66.0511 50.9755C65.2549 50.9334 64.4473 50.8772 63.6511 50.8211C62.0473 50.7228 60.4435 50.6667 58.8397 50.5965C55.8141 50.4421 52.7999 50.2878 49.7743 50.1334C49.8425 51.9439 49.9221 53.7404 50.0131 55.5509C66.7905 56.9685 83.5678 58.0772 100.368 58.8772C131.329 60.3369 162.336 60.7299 193.309 60.0141C223.758 59.3123 254.196 57.5018 284.555 54.4843C284.657 53.165 284.759 51.8597 284.839 50.5404H284.816L284.873 50.5544Z" fill="#FCF9F1"/>
<path d="M281.632 58.9895C275.649 59.5649 269.666 60.0983 263.683 60.5895C263.683 60.6316 263.683 60.6597 263.694 60.7018C263.899 64.7579 264.092 68.8141 264.297 72.8702C267.539 71.1018 270.61 68.7439 273.544 66.3439C276.331 64.0702 279.05 61.6281 281.62 58.9895H281.632Z" fill="#FCF9F1"/>
<path d="M47.3173 24.5053L46.3278 24.4211C45.9865 35.3966 46.1117 46.4001 46.7259 57.3615C46.7486 57.1509 46.7941 56.9545 46.8737 56.772C47.0557 55.986 47.5676 55.3685 48.4434 55.4387C48.978 55.4808 49.524 55.5229 50.0586 55.565C49.9676 53.7545 49.8766 51.958 49.8197 50.1474C49.5922 50.1474 49.3534 50.1194 49.1259 50.1053C48.3979 50.0632 48.3979 48.6738 49.1259 48.7159C49.342 48.7159 49.5581 48.7299 49.7856 48.7439C49.6832 45.6562 49.6264 42.5825 49.5922 39.4948C49.5126 39.4948 49.4216 39.4667 49.342 39.4667C48.523 39.3966 48.6823 37.9369 49.4899 38.1053C49.5126 38.1053 49.5467 38.1053 49.5695 38.1194C49.5695 36.2667 49.5695 34.4141 49.5922 32.5615C49.5581 32.5615 49.5354 32.5615 49.5012 32.5615C48.7619 32.6316 48.7847 31.0597 49.5012 31.172C49.5354 31.172 49.5695 31.172 49.6036 31.172C49.6264 29.4878 49.6605 27.8176 49.706 26.1334H49.6719C48.8756 26.0632 49.0235 24.6738 49.7401 24.758C49.8084 22.5123 49.8993 20.2667 50.0017 18.0211H49.888C49.16 17.9931 49.16 16.6036 49.888 16.6176C49.9448 16.6176 50.0017 16.6176 50.07 16.6176C50.1382 15.3264 50.2178 14.0492 50.2975 12.758C50.0358 12.758 49.7742 12.758 49.5126 12.758C48.7846 12.758 48.7846 11.3123 49.5126 11.3685C49.797 11.3825 50.0927 11.3966 50.3884 11.4106C50.5249 9.26323 50.6842 7.10182 50.8662 4.95445H50.7411C48.7847 4.95445 48.5799 1.6141 50.1155 0.884279C49.1486 0.477261 47.7723 1.10884 47.6245 2.77902C47.1126 8.57551 46.76 14.372 46.5098 20.1825C46.7827 20.2106 47.0557 20.2246 47.3401 20.2527C49.524 20.4492 49.5354 24.6597 47.3401 24.4632L47.3173 24.5053Z" fill="#5385BC"/>
<path d="M51.0141 2.82111C50.9459 3.55093 50.9004 4.26672 50.8435 4.99655C81.2474 4.8983 111.663 4.80005 142.067 4.68777C172.516 4.58953 202.966 4.49128 233.415 4.379C250.215 4.32286 267.015 4.26672 283.815 4.21058C283.77 3.52286 283.724 2.82111 283.679 2.13339C283.577 0.491283 284.805 -0.140296 285.817 0.210581C285.601 0.0702301 285.34 -0.0139805 285.044 5.46234e-05C254.594 0.0983002 224.145 0.196546 193.695 0.308827C163.246 0.421107 132.797 0.505318 102.347 0.617598L50.7184 0.78602C50.4795 0.78602 50.2748 0.84216 50.0928 0.92637C50.6729 1.179 51.1051 1.79655 51.0141 2.82111V2.82111Z" fill="#5385BC"/>
<path d="M50.7297 4.99657H50.8548C50.9117 4.26674 50.9572 3.55095 51.0254 2.82113C51.1164 1.8106 50.6842 1.17902 50.1041 0.926392C48.5685 1.65622 48.7733 4.99657 50.7297 4.99657V4.99657Z" fill="#5385BC"/>
<path d="M287.285 57.8527C287.285 57.8527 287.285 57.8948 287.285 57.9089C287.353 57.8106 287.422 57.7124 287.479 57.6001C287.422 57.6843 287.353 57.7685 287.285 57.8527Z" fill="#5385BC"/>
<path d="M261.988 58.5965C262.921 58.5965 263.592 59.5088 263.683 60.5895C269.666 60.0983 275.649 59.565 281.632 58.9895C282.553 58.0351 283.463 57.0667 284.35 56.0562C284.396 56 284.441 55.972 284.487 55.9299C284.532 55.4527 284.566 54.9755 284.612 54.4983C254.253 57.5158 223.815 59.3264 193.366 60.0281C162.382 60.7439 131.386 60.3509 100.425 58.8913C83.6248 58.1053 66.836 56.9825 50.0701 55.565C50.0814 55.8878 50.0928 56.2106 50.1156 56.5474C51.1961 57.7685 52.3222 58.9193 53.4597 60.0562C59.0673 60.5193 64.6749 60.9404 70.2825 61.3334L70.3166 60.7018C70.3735 59.565 71.056 58.5965 72.0228 58.5965C72.91 58.5965 73.7858 59.565 73.729 60.7018L73.6835 61.572C96.2049 63.0737 118.749 64.0281 141.293 64.4071C172.277 64.9264 203.273 64.365 234.223 62.6246C242.924 62.1334 251.614 61.5579 260.304 60.8702V60.7018C260.236 59.565 261.123 58.5965 261.999 58.5965H261.988Z" fill="#5385BC"/>
<path d="M46.8738 56.772C47.3401 55.6352 48.6482 54.9194 49.6492 56.0562C49.797 56.2246 49.9563 56.379 50.1041 56.5474C50.0814 56.2246 50.07 55.9018 50.0586 55.565C49.524 55.5229 48.9781 55.4808 48.4435 55.4387C47.579 55.3685 47.0558 55.986 46.8738 56.772V56.772Z" fill="#5385BC"/>
<path d="M287.478 57.6C287.671 57.2913 287.819 56.9264 287.865 56.4632C288.866 45.7965 288.809 35.0737 288.365 24.365C287.808 24.4071 287.25 24.4632 286.682 24.5053C285.988 24.5614 285.522 24.1825 285.26 23.6351C285.146 23.6351 285.032 23.6351 284.919 23.6492C285.032 26.1614 285.112 28.6737 285.169 31.186C285.294 31.186 285.419 31.2 285.544 31.2141C285.681 31.2141 285.988 31.3264 286.124 31.2702C287.057 30.8913 287.023 33.1369 285.999 32.5474C285.738 32.5895 285.465 32.5755 285.192 32.5474C285.226 34.4281 285.237 36.3088 285.237 38.2036C285.522 38.1755 285.795 38.1755 286.079 38.1474C286.796 38.0632 286.818 39.579 286.079 39.5369C285.806 39.5369 285.522 39.5369 285.237 39.5369C285.226 41.2772 285.192 43.0176 285.135 44.772C285.51 44.772 285.886 44.772 286.261 44.7299C286.989 44.6737 286.978 46.2036 286.261 46.1193C285.874 46.0772 285.487 46.0492 285.089 46.0351C285.055 47.0878 284.998 48.1264 284.953 49.179C284.998 49.179 285.044 49.179 285.078 49.193C285.283 49.2211 285.726 49.3755 285.92 49.3193C286.306 49.179 286.682 49.6 286.625 50.0772C286.568 50.5965 286.147 50.793 285.783 50.5825C285.726 50.5544 285.476 50.5825 285.385 50.5825C285.214 50.5825 285.044 50.5685 284.873 50.5544C284.794 51.8737 284.703 53.179 284.589 54.4983C285.101 54.4422 285.613 54.4 286.136 54.3439C287.705 54.1895 288.138 56.2948 287.455 57.586L287.478 57.6Z" fill="#5385BC"/>
<path d="M285.044 4.21057H283.815C283.941 6.18952 284.066 8.16847 284.191 10.1474C284.589 10.1615 284.976 10.1895 285.374 10.2036C285.851 10.2176 286.432 10.4 286.898 10.3018C287.865 10.1193 287.751 11.9158 286.898 11.6492C286.363 11.4808 285.647 11.579 285.089 11.5509C284.816 11.5509 284.543 11.5229 284.27 11.5229C284.35 12.9123 284.441 14.3018 284.521 15.6913C284.987 15.6913 285.442 15.6913 285.897 15.6351C286.625 15.565 286.625 17.0948 285.897 17.0246C285.465 16.9825 285.021 16.9685 284.589 16.9685C284.691 18.765 284.782 20.5474 284.862 22.3439C284.93 22.3439 284.987 22.3439 285.055 22.3299C285.135 21.3474 285.669 20.4071 286.682 20.3088L288.172 20.1825C287.865 14.1615 287.478 8.1404 287.103 2.14742C287.034 1.09478 286.477 0.463206 285.829 0.224609C287.205 1.08075 286.943 4.21057 285.055 4.22461L285.044 4.21057Z" fill="#5385BC"/>
<path d="M283.679 2.13333C283.724 2.82105 283.77 3.5228 283.815 4.21052H285.044C286.943 4.21052 287.194 1.06666 285.817 0.210524C284.805 -0.154388 283.576 0.477191 283.679 2.13333V2.13333Z" fill="#5385BC"/>
<path d="M287.285 57.8526C287.353 57.7825 287.421 57.6982 287.478 57.6C288.149 56.3088 287.717 54.2035 286.159 54.3579C285.647 54.414 285.135 54.4561 284.612 54.5123C284.578 54.9895 284.532 55.4667 284.487 55.9439C285.761 54.7228 287.433 56.2667 287.285 57.8526V57.8526Z" fill="#5385BC"/>
<path d="M27.8106 45.4317C27.731 45.2212 27.64 45.0247 27.4921 44.8282C24.9556 41.4317 22.4191 38.0492 19.894 34.6527C19.7575 34.6527 19.621 34.6387 19.4731 34.6247C18.9954 34.5966 18.5176 34.5685 18.0513 34.5264C17.5622 34.4843 17.1755 34.5545 16.8229 34.1054C16.6864 33.9369 16.6522 33.5861 16.8229 33.4177C17.2096 33.0247 17.5736 33.0948 18.0513 33.1229C18.3015 33.1229 18.5404 33.151 18.7906 33.165C17.5167 31.4668 16.2541 29.7685 14.9802 28.0703C14.4115 28.0422 13.8541 28.0141 13.2854 27.9861C12.5119 27.944 12.5119 26.4703 13.2854 26.5124C13.4674 26.5124 13.6494 26.5264 13.8314 26.5405C12.5119 24.772 11.1925 23.0036 9.87305 21.2352C8.48536 21.1089 7.09768 20.9966 5.70999 20.8703C6.1081 19.6773 6.51758 18.4703 6.91569 17.2773C7.90526 18.5966 8.88347 19.9159 9.87305 21.2352C22.021 22.3019 34.1803 23.3545 46.3282 24.4212C46.3737 23.0177 46.4306 21.6282 46.4875 20.2247C32.895 19.0317 19.3025 17.8527 5.70999 16.6598C4.15169 16.5194 3.57159 19.0036 4.5043 20.2527C10.9536 28.8843 17.3916 37.5019 23.8409 46.1334C24.2618 45.6984 24.6599 45.2492 25.0807 44.8141C26.0589 43.8036 27.2987 44.4071 27.8106 45.4177V45.4317Z" fill="#5385BC"/>
<path d="M5.70996 20.8702C7.09765 20.9965 8.48533 21.1088 9.87302 21.2351C8.88344 19.9158 7.90523 18.5965 6.91565 17.2772C6.51755 18.4702 6.10807 19.6772 5.70996 20.8702Z" fill="#5385BC"/>
<path d="M47.3175 24.5053C49.5127 24.7018 49.5014 20.4913 47.3175 20.2948C47.0445 20.2667 46.7715 20.2527 46.4871 20.2246C46.4303 21.6281 46.3734 23.0176 46.3279 24.4211L47.3175 24.5053V24.5053Z" fill="#5385BC"/>
<path d="M2.92332 74.4281C3.78778 73.5298 4.62949 72.6035 5.49395 71.6912C4.37925 71.4526 3.27593 71.2 2.17261 70.9053C2.42285 72.0842 2.67308 73.2491 2.92332 74.4281V74.4281Z" fill="#5385BC"/>
<path d="M71.2045 78.9613C70.4538 78.9613 69.703 78.2596 69.5324 77.3473C68.4632 76.814 67.4054 76.2105 66.3817 75.5649C59.3978 75.9578 52.3683 75.7613 45.3958 75.5228C35.1588 75.1719 24.9104 74.4982 14.7302 73.1929C11.6477 72.7999 8.55389 72.3508 5.48278 71.7052C4.62969 72.6175 3.78798 73.5438 2.91215 74.442C2.66191 73.2631 2.41167 72.0982 2.16143 70.9192C3.26476 71.214 4.36808 71.4666 5.48278 71.7052C6.80222 70.3017 8.13303 68.9122 9.42972 67.4947C8.82687 67.4526 8.21265 67.4105 7.6098 67.3824C6.88184 67.3403 6.88184 65.9368 7.6098 65.9929C8.61076 66.0631 9.61171 66.1333 10.624 66.1894C12.4326 64.1964 14.2411 62.2034 16.0497 60.1964C15.7653 60.1824 15.4809 60.1684 15.1852 60.1403C14.4231 60.0841 14.4117 58.6245 15.1852 58.6666C15.8904 58.7087 16.607 58.7649 17.3122 58.807C18.8705 57.0806 20.4402 55.3543 22.0213 53.642C21.8961 53.628 21.7596 53.614 21.6345 53.5859C20.7814 53.4736 20.9521 51.9999 21.7938 52.1684C22.2601 52.2526 22.7265 52.3368 23.1928 52.3929C24.6146 50.8631 26.0364 49.3192 27.4924 47.8175C28.1862 47.1017 28.1748 46.1754 27.8109 45.4456C28.5047 47.3684 26.4232 49.614 25.081 47.8175C24.6715 47.2701 24.2507 46.7087 23.8412 46.1613C15.9359 54.3999 8.46289 63.2561 0.50076 71.4526C-0.477445 72.4491 0.0571556 74.6526 1.25148 74.9754C9.75958 77.2631 18.6203 77.9789 27.2876 78.6947C37.5133 79.5227 47.7731 79.9859 58.0215 79.9578C62.412 79.9578 66.8139 79.8596 71.1931 79.4245C72.1827 79.3263 72.7173 78.414 72.8083 77.4596C72.5922 78.3157 71.9893 78.9754 71.1931 78.9754L71.2045 78.9613Z" fill="#5385BC"/>
<path d="M27.8105 45.4316C27.2873 44.4071 26.0588 43.8176 25.0806 44.8281C24.6598 45.2632 24.2617 45.7124 23.8408 46.1474C24.2503 46.6948 24.6712 47.2562 25.0806 47.8036C26.4228 49.6001 28.5044 47.3545 27.8105 45.4316Z" fill="#5385BC"/>
<path d="M47.2833 58.9755C46.9876 58.6386 46.7715 58.1755 46.7373 57.5439C46.7373 57.4878 46.7373 57.4176 46.7373 57.3615C46.6691 57.9229 46.7942 58.5264 47.2492 59.0316C50.798 63.0878 54.7109 66.6948 58.7374 69.979C61.1943 71.986 63.7422 73.9088 66.3924 75.5509C67.4616 75.4948 68.5195 75.4106 69.5887 75.3264C69.6342 74.4983 69.6683 73.6843 69.7138 72.8562C66.4721 71.0878 63.4009 68.7299 60.4663 66.3299C58.0663 64.365 55.7232 62.2737 53.471 60.0422C51.799 59.9018 50.1383 59.7755 48.4663 59.6351C47.9658 59.593 47.5791 59.3264 47.3061 58.9614L47.2833 58.9755Z" fill="#5385BC"/>
<path d="M47.2833 58.9755C46.851 58.386 46.7146 57.5018 46.8852 56.772C46.8056 56.9544 46.7601 57.1509 46.7373 57.3614C46.7373 57.4176 46.7373 57.4878 46.7373 57.5439C46.7714 58.1614 46.9875 58.6386 47.2833 58.9755V58.9755Z" fill="#5385BC"/>
<path d="M47.2832 58.9754C47.5562 59.3403 47.9429 59.607 48.4434 59.6491C50.1154 59.7895 51.7761 59.9158 53.4482 60.0561C52.3107 58.9193 51.1846 57.7544 50.1041 56.5474C50.1268 56.8842 50.1268 57.207 50.1496 57.5439C50.2633 59.6351 48.2728 60.0842 47.2832 58.9754Z" fill="#5385BC"/>
<path d="M46.8738 56.772C46.7032 57.5018 46.8397 58.386 47.2719 58.9755C48.2615 60.0983 50.252 59.6351 50.1383 57.5439C50.1156 57.2071 50.1042 56.8843 50.0928 56.5474C49.9449 56.379 49.7857 56.2246 49.6378 56.0562C48.6369 54.9193 47.3288 55.6211 46.8625 56.772H46.8738Z" fill="#5385BC"/>
<path d="M69.5771 75.3405C68.5193 75.4247 67.4501 75.5089 66.3809 75.565C67.4159 76.2106 68.4624 76.8001 69.5316 77.3475C69.4975 77.1931 69.4861 77.0247 69.4975 76.8562L69.5771 75.3405Z" fill="#5385BC"/>
<path d="M69.7024 72.8702C70.3962 73.2492 71.0901 73.6141 71.7953 73.9228C72.8872 74.4141 73.1375 75.8036 72.8304 76.8562C72.8531 77.0527 72.8531 77.2492 72.8304 77.4316C72.8759 77.2492 72.91 77.0527 72.9214 76.8422C73.1716 71.7474 73.4332 66.6527 73.6835 61.572C72.546 61.5018 71.4199 61.4176 70.2825 61.3474C70.0891 65.193 69.8958 69.0246 69.7138 72.8702H69.7024Z" fill="#5385BC"/>
<path d="M72.0113 58.5966C71.0445 58.5966 70.362 59.565 70.3051 60.7018L70.271 61.3334C71.4084 61.4176 72.5345 61.4878 73.672 61.558L73.7175 60.6878C73.7743 59.5509 72.8985 58.5825 72.0113 58.5825V58.5966Z" fill="#5385BC"/>
<path d="M72.8188 76.8562C72.5458 77.7685 71.8406 78.4141 70.8852 77.993C70.4302 77.7825 69.9866 77.572 69.543 77.3474C69.7136 78.2597 70.4643 78.9615 71.215 78.9615C72.0112 78.9615 72.6027 78.3018 72.8302 77.4457C72.8529 77.2492 72.8529 77.0527 72.8302 76.8702L72.8188 76.8562Z" fill="#5385BC"/>
<path d="M71.2038 75.2001C72.2048 75.1018 72.7394 75.9159 72.819 76.8562C73.1375 75.8036 72.8873 74.4281 71.7839 73.9229C71.0787 73.6001 70.3849 73.2492 69.691 72.8702C69.6455 73.6983 69.6114 74.5123 69.5659 75.3404C70.1119 75.2983 70.6465 75.2562 71.1925 75.2001H71.2038Z" fill="#5385BC"/>
<path d="M71.2037 75.2001C70.6578 75.2562 70.1232 75.2983 69.5772 75.3404L69.4976 76.8562C69.4976 77.0246 69.4976 77.1931 69.5317 77.3474C69.9753 77.572 70.4189 77.7966 70.8739 77.9931C71.8407 78.4281 72.5345 77.7685 72.8075 76.8562C72.7165 75.9159 72.1819 75.1018 71.1924 75.2001H71.2037Z" fill="#5385BC"/>
<path d="M324.126 21.2352C325.116 19.9159 326.094 18.5966 327.084 17.2773C327.482 18.4703 327.891 19.6773 328.289 20.8703C326.902 20.9966 325.514 21.1089 324.126 21.2352C322.454 23.4668 320.794 25.6984 319.122 27.9299C319.258 27.9299 319.395 27.9019 319.531 27.9019C320.009 27.8598 320.532 27.9019 320.998 27.7615C321.851 27.4948 321.92 29.2212 321.146 29.1229C320.657 29.0668 320.134 29.1931 319.633 29.2352C319.201 29.2773 318.769 29.3194 318.337 29.3475C318.234 29.3475 318.132 29.3615 318.03 29.3755C316.904 30.8773 315.778 32.3931 314.651 33.8948C315.436 33.7826 315.425 35.4948 314.549 35.2282C314.401 35.1861 314.083 35.2703 313.923 35.2843C313.81 35.2843 313.696 35.3124 313.571 35.3264C311.205 38.4843 308.85 41.6422 306.485 44.8141C306.337 45.0106 306.246 45.2071 306.166 45.4177C306.689 44.4071 307.918 43.8036 308.896 44.8141C309.317 45.2492 309.715 45.6984 310.136 46.1334C316.585 37.5019 323.023 28.8843 329.472 20.2527C330.405 19.0036 329.825 16.5194 328.267 16.6598C314.89 17.8247 301.525 19.0036 288.149 20.1685C288.217 21.572 288.285 22.9615 288.342 24.365C300.263 23.3264 312.183 22.2738 324.104 21.2352H324.126Z" fill="#5385BC"/>
<path d="M327.084 17.2772C326.094 18.5965 325.116 19.9158 324.126 21.2351C325.514 21.1088 326.902 20.9965 328.29 20.8702C327.891 19.6772 327.482 18.4702 327.084 17.2772Z" fill="#5385BC"/>
<path d="M285.055 22.3158C285.396 22.2737 285.749 22.2597 286.09 22.2176C286.795 22.1193 286.83 23.593 286.09 23.6071C285.817 23.6071 285.544 23.6351 285.271 23.6492C285.522 24.1965 285.999 24.5755 286.693 24.5193C287.25 24.4772 287.808 24.4211 288.377 24.379C288.32 22.9755 288.251 21.586 288.183 20.1825L286.693 20.3088C285.681 20.393 285.146 21.3474 285.067 22.3299L285.055 22.3158Z" fill="#5385BC"/>
<path d="M310.159 46.1334C309.749 46.6808 309.328 47.2422 308.919 47.7895C307.577 49.586 305.495 47.3404 306.189 45.4176C305.825 46.1334 305.802 47.0737 306.508 47.7895C307.588 48.8983 308.646 50.0632 309.715 51.2001C310.489 51.2422 311.296 51.3825 312.07 51.2843C312.843 51.2001 312.775 52.8281 311.922 52.6457C311.637 52.5895 311.33 52.5755 311.023 52.5755C312.354 54.0071 313.673 55.4387 314.982 56.8843C315.209 56.9264 315.425 56.9544 315.641 57.0106C315.994 57.0948 316.358 57.179 316.71 57.2913C316.858 57.3334 317.006 57.4036 317.165 57.4457C317.336 57.5018 317.598 57.6562 317.78 57.6562C318.769 57.6281 318.246 59.6071 317.495 58.9474C317.347 58.8211 317.063 58.779 316.881 58.7229C316.779 58.6948 316.676 58.6667 316.574 58.6387C317.859 60.0562 319.145 61.4737 320.43 62.8913H322.307C323.035 62.8913 323.035 64.2808 322.307 64.2808H321.692C323.956 66.779 326.231 69.2492 328.54 71.6913C329.643 71.4527 330.747 71.186 331.85 70.8913C331.6 72.0702 331.349 73.2351 331.099 74.4141C330.235 73.5299 329.393 72.6036 328.551 71.7053C321.237 73.3194 313.73 73.9088 306.348 74.4983C296.134 75.3123 285.897 75.7755 275.66 75.7194C272.998 75.7194 270.337 75.6632 267.675 75.5369C266.629 76.1825 265.571 76.786 264.479 77.3334C264.308 78.2457 263.558 78.9474 262.807 78.9474C262.011 78.9474 261.419 78.2878 261.192 77.4316C261.283 78.386 261.817 79.3123 262.807 79.4106C271.497 80.2808 280.289 80.0281 288.991 79.7053C299.205 79.3404 309.442 78.6667 319.611 77.3474C324.013 76.772 328.426 76.1264 332.748 74.9615C333.943 74.6387 334.477 72.4492 333.499 71.4387C325.548 63.2422 318.064 54.386 310.159 46.1194V46.1334Z" fill="#5385BC"/>
<path d="M331.838 70.9053C330.746 71.2 329.643 71.4667 328.528 71.7053C329.381 72.6035 330.223 73.5298 331.076 74.414C331.326 73.2351 331.577 72.0702 331.827 70.8912L331.838 70.9053Z" fill="#5385BC"/>
<path d="M306.189 45.4176C305.495 47.3404 307.577 49.586 308.919 47.7895C309.328 47.2422 309.749 46.6808 310.159 46.1334C309.738 45.6983 309.34 45.2492 308.919 44.8141C307.941 43.8036 306.712 44.4071 306.189 45.4176Z" fill="#5385BC"/>
<path d="M286.761 59.0457C287.068 58.6948 287.228 58.3018 287.273 57.9088C287 58.2597 286.625 58.5264 286.147 58.5685C284.646 58.7229 283.133 58.8492 281.631 59.0036C279.061 61.6422 276.342 64.0843 273.556 66.3579C270.621 68.7579 267.55 71.1018 264.308 72.8843C264.354 73.6983 264.388 74.5264 264.433 75.3404C265.514 75.4246 266.583 75.4948 267.664 75.5509C270.302 73.9088 272.839 71.986 275.284 69.993C279.311 66.7088 283.224 63.1018 286.773 59.0457H286.761Z" fill="#5385BC"/>
<path d="M287.285 57.9089C287.285 57.9089 287.285 57.8668 287.285 57.8527C286.261 59.0036 284.248 58.5545 284.441 56.4633C284.452 56.2948 284.464 56.1124 284.487 55.944C284.441 55.9861 284.396 56.0141 284.35 56.0703C283.463 57.0808 282.553 58.0492 281.632 59.0036C283.133 58.8633 284.646 58.7229 286.147 58.5685C286.636 58.5124 287.012 58.2598 287.273 57.9089H287.285Z" fill="#5385BC"/>
<path d="M287.285 57.8527C287.433 56.2668 285.76 54.7229 284.487 55.944C284.475 56.1124 284.464 56.2948 284.441 56.4633C284.248 58.5545 286.25 58.9896 287.285 57.8527Z" fill="#5385BC"/>
<path d="M264.502 76.8562C264.502 77.0247 264.502 77.1931 264.467 77.3475C265.548 76.8001 266.617 76.1966 267.664 75.551C266.583 75.4948 265.514 75.4247 264.433 75.3405C264.456 75.8457 264.479 76.351 264.513 76.8562H264.502Z" fill="#5385BC"/>
<path d="M261.18 76.8561C260.862 75.8035 261.112 74.414 262.215 73.9228C262.921 73.6 263.614 73.2491 264.308 72.8702C264.104 68.814 263.91 64.7579 263.705 60.7018C263.705 60.6597 263.705 60.6316 263.694 60.5895C262.568 60.6877 261.431 60.786 260.304 60.8702C260.566 66.1895 260.839 71.5228 261.101 76.8421C261.101 77.0386 261.146 77.2351 261.192 77.4316C261.169 77.2351 261.169 77.0526 261.192 76.8561H261.18Z" fill="#5385BC"/>
<path d="M261.988 58.5966C261.112 58.5966 260.225 59.565 260.282 60.7018V60.8702C261.419 60.786 262.545 60.6737 263.683 60.5895C263.592 59.5088 262.921 58.5966 261.988 58.5966V58.5966Z" fill="#5385BC"/>
<path d="M262.795 78.9615C263.546 78.9615 264.297 78.2597 264.467 77.3474C264.024 77.572 263.58 77.7966 263.125 77.993C262.158 78.4281 261.465 77.7825 261.192 76.8702C261.169 77.0527 261.169 77.2492 261.192 77.4457C261.419 78.3159 262.011 78.9615 262.807 78.9615H262.795Z" fill="#5385BC"/>
<path d="M262.795 75.2001C263.341 75.2562 263.876 75.2843 264.422 75.3264C264.376 74.5123 264.342 73.6843 264.297 72.8702C263.603 73.2492 262.909 73.6141 262.204 73.9229C261.112 74.4141 260.862 75.8036 261.169 76.8562C261.26 75.9159 261.794 75.1018 262.784 75.2001H262.795Z" fill="#5385BC"/>
<path d="M264.422 75.3264C263.876 75.2843 263.341 75.2422 262.795 75.2001C261.794 75.1018 261.26 75.9159 261.18 76.8562C261.453 77.7685 262.158 78.4141 263.114 77.979C263.569 77.7685 264.012 77.558 264.456 77.3334C264.49 77.179 264.502 77.0106 264.49 76.8422C264.467 76.3369 264.445 75.8317 264.411 75.3264H264.422Z" fill="#5385BC"/>
<path d="M69.4065 13.2632C70.1231 13.2351 70.1117 11.9579 69.4065 11.8877C66.1079 11.6211 62.7638 11.7053 59.4538 11.6351C56.4282 11.5649 53.3912 11.593 50.377 11.4386C50.3429 11.8877 50.3201 12.3368 50.2974 12.786C53.3457 12.7719 56.4168 12.9544 59.4652 13.0246C62.7752 13.1088 66.1079 13.3614 69.4178 13.2491L69.4065 13.2632Z" fill="#5385BC"/>
<path d="M49.5013 11.3965C48.7733 11.3544 48.7733 12.8 49.5013 12.786C49.7629 12.786 50.0245 12.786 50.2861 12.786C50.3089 12.3369 50.343 11.8878 50.3658 11.4386C50.07 11.4246 49.7857 11.4106 49.4899 11.3965H49.5013Z" fill="#5385BC"/>
<path d="M68.6445 17.207C62.4681 16.8421 56.2463 16.8281 50.0586 16.6597C50.0358 17.1228 50.0245 17.586 50.0017 18.0491C56.2122 18.2456 62.4454 18.6105 68.6558 18.6105C69.3952 18.6105 69.3838 17.2491 68.6558 17.207H68.6445Z" fill="#5385BC"/>
<path d="M49.8765 16.6457C49.1486 16.6176 49.1486 18.0211 49.8765 18.0352H49.9903C50.013 17.572 50.0244 17.1088 50.0472 16.6457C49.9903 16.6457 49.9334 16.6457 49.8652 16.6457H49.8765Z" fill="#5385BC"/>
<path d="M55.6548 26.8351C56.6558 26.8913 57.6567 26.9334 58.6577 26.9334C59.6131 26.9334 60.6482 27.0316 61.5809 26.8351C62.252 26.6948 62.0245 25.5299 61.433 25.4737C60.489 25.3614 59.488 25.5439 58.5439 25.5439C57.5771 25.5439 56.6103 25.5158 55.6548 25.4597C53.7325 25.3614 51.6965 25.2913 49.8083 24.786C49.7742 24.786 49.7628 24.786 49.7287 24.786C49.7173 25.2492 49.706 25.6983 49.6946 26.1614C50.6842 26.2457 51.6624 26.4562 52.6406 26.5685C53.6415 26.6807 54.6425 26.779 55.6434 26.8351H55.6548Z" fill="#5385BC"/>
<path d="M49.6606 26.1474H49.6947C49.7061 25.6983 49.7175 25.2351 49.7289 24.772C49.0009 24.6878 48.8644 26.0772 49.6606 26.1474Z" fill="#5385BC"/>
<path d="M53.7438 32.7159L57.85 32.8562C60.6254 32.9545 63.4121 33.0948 66.1875 33.151C66.9496 33.165 66.9496 31.7334 66.1875 31.6913C63.4121 31.565 60.6254 31.5369 57.85 31.4527C56.4851 31.4106 55.1201 31.3685 53.7438 31.3264C52.3789 31.2843 50.9571 31.3825 49.6035 31.2001C49.6035 31.6632 49.6035 32.1264 49.6035 32.5755C50.9685 32.4632 52.3903 32.6597 53.7552 32.7159H53.7438Z" fill="#5385BC"/>
<path d="M49.5013 31.186C48.7847 31.0738 48.762 32.6457 49.5013 32.5755C49.5355 32.5755 49.5582 32.5755 49.5923 32.5755C49.5923 32.1124 49.5923 31.6492 49.5923 31.2001C49.5582 31.2001 49.5241 31.2001 49.49 31.2001L49.5013 31.186Z" fill="#5385BC"/>
<path d="M58.669 40.8983C59.1695 40.9825 59.6813 41.0527 60.1818 41.1369C60.7733 41.2211 61.4671 41.2352 62.0359 41.4878C62.9344 41.8808 63.1392 39.8317 62.2065 39.944C61.2055 40.0703 60.0567 39.6913 59.0557 39.551C58.0093 39.3966 56.9515 39.2422 55.905 39.0878C53.8007 38.779 51.6737 38.5685 49.5808 38.1475C49.5808 38.6106 49.5808 39.0738 49.5922 39.5229C51.6168 39.7334 53.6415 40.1404 55.6434 40.4492C56.6557 40.6036 57.6567 40.758 58.669 40.9124V40.8983Z" fill="#5385BC"/>
<path d="M49.4898 38.1194C48.6822 37.9509 48.523 39.4106 49.342 39.4808C49.4216 39.4808 49.5126 39.4948 49.5922 39.5088C49.5922 39.0457 49.5808 38.5825 49.5808 38.1334C49.5581 38.1334 49.524 38.1334 49.5012 38.1194H49.4898Z" fill="#5385BC"/>
<path d="M63.6852 50.8632C64.4927 50.9053 65.2889 50.9614 66.0852 51.0176C66.9155 51.0597 67.8141 51.2 68.633 51.1158C69.2359 51.0597 69.4861 49.8386 68.7923 49.6983C68.0416 49.5439 67.2681 49.6281 66.5174 49.5579C65.6757 49.4878 64.8226 49.4737 63.9695 49.4457C62.3202 49.3895 60.6709 49.2772 59.0216 49.2071C55.9391 49.0527 52.8567 48.9264 49.7742 48.772C49.7855 49.2351 49.7969 49.6983 49.8197 50.1755C52.8453 50.3299 55.8595 50.4983 58.8851 50.6386C60.4889 50.7229 62.0927 50.765 63.6965 50.8632H63.6852Z" fill="#5385BC"/>
<path d="M49.1146 48.7299C48.3866 48.7018 48.3866 50.0913 49.1146 50.1194C49.3421 50.1194 49.5809 50.1475 49.8084 50.1615C49.797 49.6983 49.7857 49.2352 49.7629 48.758C49.5468 48.758 49.3307 48.7439 49.1032 48.7299H49.1146Z" fill="#5385BC"/>
<path d="M280.619 10.0351C278.481 9.97898 276.331 10.007 274.192 10.0632C272.054 10.1193 269.904 10.2316 267.766 10.386C266.742 10.4562 265.719 10.5404 264.695 10.6386C263.637 10.7369 262.534 10.7649 261.487 11.0176C260.884 11.172 261.044 12.3088 261.635 12.3228C262.693 12.3509 263.785 12.1263 264.843 12.0281C265.866 11.9299 266.89 11.8456 267.914 11.7614C270.007 11.607 272.1 11.5088 274.204 11.4386C276.251 11.3825 278.299 11.3825 280.357 11.3965C281.381 11.3965 282.405 11.4386 283.429 11.4667C283.713 11.4667 283.997 11.4948 284.282 11.5088C284.259 11.0597 284.225 10.5965 284.202 10.1474C284.088 10.1474 283.963 10.1474 283.849 10.1334C282.78 10.0913 281.711 10.0632 280.63 10.0351H280.619Z" fill="#5385BC"/>
<path d="M285.089 11.5369C285.635 11.565 286.363 11.4668 286.898 11.6352C287.751 11.9159 287.865 10.1054 286.898 10.2878C286.431 10.372 285.851 10.2036 285.374 10.1896C284.976 10.1755 284.589 10.1475 284.191 10.1334C284.213 10.5825 284.248 11.0457 284.27 11.4948C284.543 11.4948 284.816 11.5229 285.089 11.5229V11.5369Z" fill="#5385BC"/>
<path d="M281.95 15.6352C280.733 15.6352 279.504 15.6352 278.287 15.6352C275.796 15.6352 273.305 15.6352 270.826 15.6352C268.335 15.6352 265.844 15.6352 263.364 15.6352C260.85 15.6352 258.268 15.4948 255.754 15.6773C255.038 15.7334 255.038 17.0106 255.754 17.0527C258.268 17.2352 260.839 17.0808 263.364 17.0527C265.855 17.0387 268.346 17.0246 270.826 17.0106C273.317 17.0106 275.808 16.9966 278.287 16.9825C279.504 16.9825 280.733 16.9825 281.95 16.9825C282.826 16.9825 283.702 16.9264 284.577 16.9264C284.555 16.5053 284.532 16.0703 284.509 15.6492C283.656 15.6492 282.792 15.6071 281.95 15.6071V15.6352Z" fill="#5385BC"/>
<path d="M285.897 17.0106C286.625 17.0808 286.625 15.5509 285.897 15.6211C285.442 15.6632 284.975 15.6773 284.521 15.6773C284.543 16.0983 284.566 16.5334 284.589 16.9545C285.032 16.9545 285.465 16.9545 285.897 17.0106V17.0106Z" fill="#5385BC"/>
<path d="M274.238 23.2C272.304 23.3544 270.382 23.5228 268.448 23.6772C266.435 23.8456 264.388 23.9158 262.386 24.2105C261.692 24.3088 261.658 25.6 262.386 25.586C264.354 25.5298 266.344 25.2632 268.312 25.1088C270.291 24.9404 272.259 24.7719 274.238 24.6035C276.172 24.4351 278.094 24.2667 280.028 24.0983C281.654 23.9579 283.292 23.7614 284.93 23.6632C284.907 23.2281 284.896 22.779 284.873 22.3439C283.303 22.5123 281.734 22.6105 280.175 22.7369L274.249 23.2281L274.238 23.2Z" fill="#5385BC"/>
<path d="M285.26 23.6351C285.078 23.2421 285.021 22.779 285.055 22.3018C284.987 22.3018 284.93 22.3018 284.862 22.3158C284.885 22.7509 284.896 23.2 284.919 23.6351C285.032 23.6351 285.146 23.6351 285.26 23.6211V23.6351Z" fill="#5385BC"/>
<path d="M285.26 23.6351C285.533 23.6211 285.806 23.6071 286.079 23.593C286.818 23.579 286.784 22.1053 286.079 22.2036C285.738 22.2457 285.396 22.2737 285.044 22.3018C285.01 22.765 285.078 23.2422 285.248 23.6351H285.26Z" fill="#5385BC"/>
<path d="M283.668 31.1299C282.826 31.1018 281.996 31.1158 281.154 31.1299C279.448 31.186 277.742 31.3404 276.047 31.607C275.33 31.7193 275.33 33.1088 276.047 32.9965C277.742 32.7299 279.448 32.5614 281.154 32.5053C281.996 32.4772 282.826 32.4632 283.668 32.4913C284.066 32.4913 284.475 32.5193 284.873 32.5334C284.987 32.5334 285.089 32.5334 285.203 32.5614C285.203 32.1123 285.18 31.6492 285.169 31.2C285.101 31.2 285.044 31.2 284.976 31.2C284.543 31.1579 284.1 31.1579 283.668 31.1439V31.1299Z" fill="#5385BC"/>
<path d="M286.011 32.5615L285.851 32.4632L286.227 32.5194C286.158 32.5474 286.09 32.5474 286.022 32.5615C287.046 33.151 287.08 30.9053 286.147 31.2843C286.011 31.3404 285.704 31.2281 285.567 31.2281C285.442 31.2281 285.317 31.2141 285.192 31.2001C285.192 31.6492 285.214 32.1124 285.226 32.5615C285.499 32.5895 285.76 32.6036 286.033 32.5615H286.011Z" fill="#5385BC"/>
<path d="M285.84 32.4492L285.999 32.5475C286.067 32.5475 286.136 32.5334 286.204 32.5054L285.829 32.4492H285.84Z" fill="#5385BC"/>
<path d="M269.654 38.6247C269.802 38.6247 270.064 38.6948 270.212 38.6247C271.019 38.2878 271.156 40.1685 270.212 39.9159C270.075 39.944 269.939 39.972 269.802 40.0001L269.654 38.6247C268.926 38.5826 268.915 40.0422 269.654 40.0282C272.395 40.0001 275.137 39.8598 277.867 39.7755C280.312 39.6913 282.792 39.4808 285.249 39.5229C285.249 39.0878 285.249 38.6387 285.249 38.2036C282.803 38.4001 280.312 38.3299 277.867 38.3861C275.125 38.4562 272.384 38.4843 269.654 38.6247Z" fill="#5385BC"/>
<path d="M270.212 39.9299C271.156 40.1825 271.019 38.3018 270.212 38.6387C270.064 38.6948 269.802 38.6387 269.654 38.6387L269.802 40.0141C269.939 39.986 270.075 39.958 270.212 39.9299Z" fill="#5385BC"/>
<path d="M285.249 39.5229C285.533 39.5229 285.806 39.5229 286.09 39.5229C286.83 39.565 286.807 38.0492 286.09 38.1334C285.817 38.1615 285.533 38.1755 285.249 38.1895C285.249 38.6246 285.249 39.0737 285.249 39.5088V39.5229Z" fill="#5385BC"/>
<path d="M278.219 44.5615C275.535 44.5194 272.839 44.5475 270.166 44.3931C269.404 44.351 269.404 45.8668 270.166 45.8527C272.85 45.7966 275.535 45.9229 278.219 45.965C279.539 45.9931 280.858 46.0071 282.177 46.0211C283.144 46.0211 284.134 45.9931 285.112 46.0211C285.123 45.6001 285.135 45.179 285.146 44.744C284.202 44.744 283.247 44.6597 282.314 44.6457C280.949 44.6176 279.584 44.5896 278.219 44.5615Z" fill="#5385BC"/>
<path d="M286.272 46.1053C286.989 46.1895 287 44.6456 286.272 44.7158C285.897 44.7439 285.522 44.7579 285.146 44.7579C285.135 45.179 285.123 45.6141 285.112 46.0351C285.499 46.0351 285.897 46.0632 286.284 46.1193L286.272 46.1053Z" fill="#5385BC"/>
<path d="M282.212 48.8703C280.915 48.772 279.63 48.5756 278.322 48.5334C278.014 48.5334 277.764 48.8563 277.764 49.2212C277.764 49.6282 278.026 49.8668 278.322 49.9089C279.584 50.1054 280.869 50.1054 282.121 50.3019C282.723 50.4001 283.338 50.4001 283.952 50.4703C284.259 50.5124 284.566 50.5264 284.873 50.5545H284.896C284.919 50.0913 284.953 49.6282 284.976 49.165C284.691 49.1229 284.407 49.0948 284.111 49.0668C283.474 48.9966 282.837 48.9264 282.212 48.8843V48.8703Z" fill="#5385BC"/>
<path d="M285.408 50.5825C285.499 50.5825 285.76 50.5404 285.806 50.5825C286.159 50.779 286.591 50.5825 286.648 50.0772C286.705 49.6 286.329 49.179 285.942 49.3193C285.749 49.3895 285.305 49.2351 285.101 49.193C285.055 49.193 285.01 49.193 284.976 49.179C284.953 49.6421 284.919 50.1053 284.896 50.5684C285.067 50.5684 285.237 50.5965 285.408 50.5965V50.5825Z" fill="#5385BC"/>
<path d="M23.1812 68.379C24.0798 68.4352 24.9783 68.5054 25.8656 68.5615C26.7755 68.6176 27.7992 68.5054 28.6864 68.744C29.5395 68.9685 29.6078 67.2843 28.8343 67.3826C27.9698 67.4948 27.0144 67.2983 26.1499 67.2282C25.3082 67.144 24.4551 67.1159 23.602 67.0597C21.8049 66.9334 20.0191 66.8211 18.2219 66.6948C15.6854 66.5264 13.1489 66.358 10.6124 66.1755C10.2143 66.6106 9.82755 67.0457 9.42944 67.4808C12.3186 67.6633 15.1963 67.8597 18.0854 68.0422L23.1812 68.379V68.379Z" fill="#5385BC"/>
<path d="M7.6097 65.9649C6.88173 65.9228 6.88173 67.3123 7.6097 67.3544C8.21254 67.3965 8.82676 67.4386 9.42961 67.4667C9.82772 67.0316 10.2144 66.5965 10.6126 66.1614C9.6116 66.0912 8.61065 66.0211 7.59832 65.9649H7.6097Z" fill="#5385BC"/>
<path d="M29.9718 59.6212C25.7519 59.3545 21.532 59.0317 17.312 58.7791C16.8912 59.2422 16.4703 59.7054 16.0381 60.1826C20.6789 60.5194 25.331 60.7299 29.9604 61.0247C30.6884 61.0668 30.6884 59.6773 29.9604 59.6352L29.9718 59.6212Z" fill="#5385BC"/>
<path d="M15.185 58.6527C14.4115 58.6106 14.4229 60.0703 15.185 60.1264C15.4693 60.1545 15.7537 60.1545 16.0494 60.1825C16.4703 59.7194 16.8911 59.2562 17.3234 58.779C16.6182 58.7369 15.9016 58.6808 15.1963 58.6387L15.185 58.6527Z" fill="#5385BC"/>
<path d="M34.9083 53.6001C35.7159 53.5439 35.5794 52.0422 34.7604 52.2387C32.6561 52.7439 30.404 52.7439 28.2656 52.7299C26.5708 52.7159 24.876 52.6176 23.1926 52.379C22.8058 52.8001 22.4077 53.2071 22.021 53.6281C24.1025 53.9088 26.1727 54.1053 28.2656 54.1053C30.495 54.1053 32.6903 53.7685 34.9083 53.6141V53.6001Z" fill="#5385BC"/>
<path d="M21.7937 52.1405C20.9519 51.9861 20.7813 53.4457 21.6344 53.558C21.7595 53.572 21.896 53.5861 22.0211 53.6141C22.4079 53.1931 22.806 52.7861 23.1927 52.365C22.7264 52.2948 22.26 52.2247 21.7937 52.1405Z" fill="#5385BC"/>
<path d="M32.6219 27.5088C26.3546 27.2001 20.0986 26.8492 13.8313 26.5264C14.218 27.0316 14.5934 27.5509 14.9801 28.0562C20.8607 28.3369 26.7413 28.6036 32.6219 28.8983C33.3499 28.9404 33.3499 27.5369 32.6219 27.5088V27.5088Z" fill="#5385BC"/>
<path d="M13.2854 26.4983C12.512 26.4562 12.512 27.9439 13.2854 27.972C13.8541 28.0001 14.4115 28.0281 14.9802 28.0562C14.5935 27.5509 14.2181 27.0316 13.8314 26.5264C13.6494 26.5264 13.4674 26.5123 13.2854 26.4983Z" fill="#5385BC"/>
<path d="M25.7747 35.0176C26.2865 35.0456 26.8098 35.0877 27.3216 35.1158C27.8903 35.1439 28.5159 35.0737 29.0733 35.2281C29.9378 35.4667 29.9946 33.7544 29.2212 33.8667C28.6752 33.9509 28.1065 33.8105 27.5605 33.7684C27.0031 33.7263 26.4572 33.6983 25.8998 33.6561C24.8647 33.586 23.841 33.5158 22.806 33.4316C21.7709 33.3614 20.7472 33.2912 19.7121 33.2211C19.405 33.207 19.0979 33.179 18.7908 33.1649C19.1548 33.6561 19.5301 34.1474 19.8941 34.6386C20.8268 34.6947 21.7595 34.7649 22.6808 34.8211C23.7159 34.8912 24.7396 34.9474 25.7747 35.0176V35.0176Z" fill="#5385BC"/>
<path d="M18.0512 33.1088C17.5735 33.0808 17.2095 33.0106 16.8228 33.4036C16.6522 33.572 16.6863 33.9229 16.8228 34.0913C17.1754 34.5404 17.5735 34.4702 18.0512 34.5124C18.529 34.5545 19.0067 34.5825 19.473 34.6106C19.6095 34.6106 19.7574 34.6246 19.8939 34.6387C19.5299 34.1474 19.1546 33.6562 18.7906 33.165C18.5403 33.1509 18.3015 33.1369 18.0512 33.1229V33.1088Z" fill="#5385BC"/>
<path d="M315.55 28.2387C313.753 28.4071 311.956 28.5615 310.159 28.7299C309.442 28.8001 309.442 30.1755 310.159 30.1054C311.99 29.937 313.821 29.7685 315.652 29.6001C316.449 29.5299 317.245 29.4457 318.041 29.3755C318.405 28.8984 318.758 28.4071 319.122 27.9299C318.826 27.958 318.53 27.972 318.246 28.0001C317.347 28.0843 316.449 28.1545 315.55 28.2387V28.2387Z" fill="#5385BC"/>
<path d="M318.348 29.3475C318.78 29.3054 319.213 29.2633 319.645 29.2352C320.145 29.1931 320.657 29.0527 321.158 29.1229C321.931 29.2212 321.863 27.4808 321.01 27.7615C320.555 27.9019 320.02 27.8738 319.543 27.9019C319.406 27.9019 319.27 27.9299 319.133 27.9299C318.769 28.4071 318.416 28.8984 318.052 29.3756C318.155 29.3756 318.257 29.3615 318.36 29.3475H318.348Z" fill="#5385BC"/>
<path d="M314.596 33.993C314.527 33.9649 314.459 33.979 314.402 33.979L314.265 34.0491L314.596 33.993Z" fill="#5385BC"/>
<path d="M314.401 33.979C314.47 33.979 314.538 33.979 314.595 33.979L314.652 33.8948C314.572 33.8948 314.504 33.9088 314.413 33.9509H314.39L314.401 33.979Z" fill="#5385BC"/>
<path d="M314.265 34.0492L314.401 33.979C314.083 33.965 313.776 34.0071 313.457 34.0211C313.036 34.0492 312.616 34.1053 312.206 34.1334C311.398 34.2036 310.591 34.2597 309.795 34.358C308.157 34.5404 306.507 34.6667 304.869 34.8211C304.153 34.8913 304.153 36.2667 304.869 36.1966C306.507 36.0422 308.157 35.8457 309.795 35.7194C310.602 35.6492 311.41 35.565 312.206 35.4808C312.581 35.4387 312.945 35.3966 313.321 35.3685C313.412 35.3685 313.503 35.3545 313.605 35.3404L314.606 34.0071L314.276 34.0632L314.265 34.0492Z" fill="#5385BC"/>
<path d="M314.652 33.979H314.595L313.594 35.3264C313.707 35.3124 313.821 35.2983 313.946 35.2843C314.106 35.2843 314.413 35.172 314.572 35.2282C315.436 35.4948 315.459 33.7825 314.674 33.8948L314.617 33.979C314.617 33.979 314.652 33.979 314.674 33.979H314.652Z" fill="#5385BC"/>
<path d="M302.629 51.0737L302.469 50.9895C302.469 50.9895 302.435 50.9895 302.424 50.9895C302.378 51.0035 302.322 51.0035 302.265 51.0316L302.629 51.0877V51.0737Z" fill="#5385BC"/>
<path d="M307.133 51.0737L304.722 50.9755C304.016 50.9474 303.129 50.7509 302.435 50.9755C302.458 50.9755 302.469 50.9755 302.481 50.9755L302.64 51.0597L302.276 51.0036C302.276 51.0036 302.378 50.9755 302.435 50.9614C301.457 50.5264 301.525 52.5334 302.356 52.1825C302.458 52.1404 302.72 52.2386 302.833 52.2527C303.05 52.2807 303.254 52.2948 303.47 52.2948C303.857 52.3088 304.244 52.3229 304.631 52.3369C305.438 52.365 306.246 52.4071 307.042 52.4351C307.815 52.4632 308.589 52.4913 309.362 52.5193C309.749 52.5334 310.136 52.5474 310.523 52.5474C310.682 52.5474 310.852 52.5474 311.023 52.5474C310.591 52.0843 310.159 51.6211 309.715 51.1579C309.658 51.1579 309.601 51.1579 309.556 51.1579C308.748 51.1299 307.941 51.0878 307.144 51.0457L307.133 51.0737Z" fill="#5385BC"/>
<path d="M311.91 52.6597C312.775 52.8281 312.832 51.2001 312.058 51.2983C311.285 51.3825 310.488 51.2562 309.704 51.2141C310.136 51.6773 310.579 52.1404 311.012 52.6036C311.319 52.6036 311.626 52.6036 311.91 52.6738V52.6597Z" fill="#5385BC"/>
<path d="M309.26 56.8983C308.953 56.9544 308.794 57.4176 308.873 57.7544C308.953 58.1474 309.26 58.2877 309.567 58.2316C310.887 58.007 312.229 57.9509 313.56 58.0772C314.219 58.1334 314.856 58.2456 315.505 58.386C315.812 58.4562 316.119 58.5263 316.426 58.6246C316.472 58.6386 316.528 58.6526 316.574 58.6667C316.039 58.0772 315.516 57.5018 314.981 56.9123C314.504 56.8281 314.037 56.7579 313.56 56.7158C312.127 56.5895 310.693 56.6737 309.271 56.9123L309.26 56.8983Z" fill="#5385BC"/>
<path d="M316.881 58.7369C317.063 58.793 317.336 58.8352 317.495 58.9615C318.246 59.6071 318.769 57.6281 317.78 57.6702C317.609 57.6702 317.336 57.5159 317.165 57.4597C317.017 57.4036 316.87 57.3474 316.71 57.3053C316.358 57.2071 315.994 57.1088 315.641 57.0246C315.425 56.9685 315.198 56.9404 314.981 56.8983C315.516 57.4878 316.039 58.0632 316.574 58.6527C316.676 58.6808 316.779 58.6948 316.881 58.7369V58.7369Z" fill="#5385BC"/>
<path d="M305.233 64.3229C310.716 64.3229 316.198 64.3229 321.681 64.3089C321.26 63.8457 320.839 63.3826 320.418 62.9194H305.233C304.494 62.9054 304.494 64.337 305.233 64.337V64.3229Z" fill="#5385BC"/>
<path d="M322.295 64.3088C323.023 64.3088 323.023 62.9193 322.295 62.9193H320.418C320.839 63.3825 321.26 63.8456 321.681 64.3088H322.295V64.3088Z" fill="#5385BC"/>
</g>
<defs>
<clipPath id="clip0_1085_3828">
<rect width="334" height="80" fill="white"/>
</clipPath>
</defs>
</svg>
