<svg width="441" height="394" viewBox="0 0 441 394" fill="none" xmlns="http://www.w3.org/2000/svg">
<path d="M50.1801 63.7477C45.3644 69.3773 41.4052 75.8038 38.5502 82.9184C32.5015 98.0186 29.9185 114.257 28.007 130.322C23.3176 169.734 22.0995 209.557 24.367 249.185C25.1552 262.927 26.4472 276.993 32.3421 289.435C38.2363 301.881 49.66 312.553 63.3789 313.88C62.2794 323.489 55.4038 346.11 60.9406 348.703C70.0505 352.388 90.7591 326.995 96.7786 321.303C98.6845 319.502 121.118 321.693 133.683 323.124C174.463 327.773 215.242 332.422 256.021 337.071C280.662 339.88 305.633 342.686 330.173 339.131C354.717 335.576 379.193 324.872 394.272 305.208C408.721 286.362 412.969 261.752 414.997 238.098C417.142 213.108 417.325 187.943 415.538 162.921C413.479 134.114 408.321 104.268 391.241 80.9636C373.498 56.7316 344.651 42.4954 315.221 36.3841C285.791 30.2728 255.393 31.4409 225.358 32.6317C185.391 34.2185 145.42 35.8047 105.453 37.3964C84.2062 38.2421 63.7953 47.8211 50.1801 63.7477V63.7477Z" fill="#81BBDB"/>
<path d="M359.014 251.211C358.986 251.076 358.968 250.942 358.935 250.811C357.404 244.606 350.988 241.118 345.053 243.927C339.253 246.673 338.104 253.984 342.148 258.772C344.175 261.171 346.641 262.091 349.161 262.036C348.244 263.564 347.154 264.983 345.915 266.265C342.645 269.641 348.446 274.09 351.682 270.746C354.887 267.437 357.889 262.538 358.923 257.575C359.061 257.452 359.194 257.327 359.322 257.203C361.29 255.319 360.594 252.545 358.998 251.214L359.014 251.211ZM347.851 254.211C346.094 252.602 347.288 249.982 349.637 250.223C351.501 250.41 352.007 252.132 351.976 253.894C350.586 254.818 349.055 255.323 347.85 254.216L347.851 254.211Z" fill="#FCF9F1"/>
<path d="M338.629 248.503C338.602 248.368 338.584 248.234 338.551 248.103C337.02 241.898 330.604 238.409 324.669 241.219C318.868 243.965 317.72 251.276 321.764 256.063C323.791 258.463 326.257 259.383 328.777 259.328C327.86 260.856 326.775 262.275 325.53 263.557C322.26 266.933 328.062 271.382 331.298 268.037C334.503 264.729 337.504 259.83 338.539 254.866C338.677 254.743 338.81 254.619 338.938 254.494C340.905 252.61 340.21 249.836 338.614 248.506L338.629 248.503ZM327.466 251.503C325.71 249.893 326.904 247.274 329.252 247.515C331.117 247.702 331.623 249.424 331.591 251.186C330.202 252.109 328.671 252.614 327.466 251.508L327.466 251.503Z" fill="#FCF9F1"/>
<path d="M111.325 106.146C108.126 102.356 104.235 100.908 100.247 100.996C101.697 98.5873 103.413 96.341 105.369 94.3188C110.536 88.9838 101.373 81.9624 96.2594 87.2388C91.2038 92.462 86.4581 100.196 84.8239 108.034C84.6107 108.229 84.3974 108.423 84.1935 108.624C81.0884 111.596 82.1881 115.978 84.7003 118.077C84.7429 118.29 84.7706 118.502 84.8238 118.711C87.2401 128.51 97.3745 134.015 106.737 129.582C115.895 125.248 117.712 113.704 111.321 106.14L111.325 106.146ZM99.5074 119.64C96.5636 119.34 95.7645 116.623 95.8143 113.846C98.0085 112.392 100.424 111.595 102.33 113.341C105.102 115.885 103.221 120.017 99.5074 119.64V119.64Z" fill="#FCF9F1"/>
<path d="M143.512 110.423C140.312 106.633 136.422 105.185 132.434 105.272C133.883 102.864 135.6 100.618 137.556 98.5953C142.722 93.2602 133.559 86.2389 128.446 91.5152C123.39 96.7385 118.645 104.472 117.01 112.311C116.797 112.505 116.584 112.699 116.38 112.9C113.275 115.873 114.375 120.254 116.887 122.354C116.929 122.567 116.957 122.778 117.01 122.987C119.427 132.786 129.561 138.292 138.924 133.858C148.081 129.524 149.893 117.98 143.507 110.417L143.512 110.423ZM131.694 123.916C128.75 123.616 127.951 120.899 128.001 118.123C130.195 116.668 132.611 115.871 134.517 117.617C137.289 120.161 135.408 124.293 131.694 123.916Z" fill="#FCF9F1"/>
</svg>
