<svg width="206" height="103" viewBox="0 0 206 103" fill="none" xmlns="http://www.w3.org/2000/svg">
<g clip-path="url(#clip0_1139_10)">
<path d="M189.936 26.2821C188.563 25.5041 186.734 24.7798 184.513 24.1091C184.023 23.957 183.666 23.5278 183.63 23.0091L182.194 1.14467C182.114 -0.107286 180.437 -0.447102 179.875 0.670713L169.921 20.38C169.69 20.8451 169.19 21.1133 168.673 21.0418C121.329 14.8893 19.8811 19.459 7.18894 35.5019C-2.60444 47.8783 -3.1396 83.1297 10.1412 93.6283C28.3187 107.999 175.523 105.745 195.35 87.4132C215.178 69.081 203.752 34.1515 189.936 26.2732V26.2821Z" fill="#81BBDB"/>
<path d="M6.20782 55.3811C8.68739 46.9214 6.20782 33.4898 38.7811 30.2883" stroke="white" stroke-width="2" stroke-linecap="round" stroke-linejoin="round"/>
<path d="M196.697 46.3044C202.566 62.8571 198.124 80.76 184.835 86.3133" stroke="white" stroke-width="2" stroke-linecap="round" stroke-linejoin="round"/>
</g>
<defs>
<clipPath id="clip0_1139_10">
<rect width="206" height="103" fill="white"/>
</clipPath>
</defs>
</svg>
