<svg width="173" height="359" viewBox="0 0 173 359" fill="none" xmlns="http://www.w3.org/2000/svg">
<path d="M4.59 1.55C4.59 1.55 4.51 1.47 4.47 1.43L0 0L0.05 0.09L4.59 1.55Z" fill="#7FBBDD"/>
<path d="M1.79 3.13999L8.55 5.30999C8.55 5.30999 8.46 5.21999 8.41 5.17999L1.74 3.04999L1.79 3.13999Z" fill="#7FBBDD"/>
<path d="M3.64 6.24001L12.55 9.11001C12.55 9.11001 12.45 9.01002 12.4 8.97002L3.58 6.14001L3.64 6.24001Z" fill="#7FBBDD"/>
<path d="M5.67 9.39L16.36 12.83C16.36 12.83 16.27 12.73 16.22 12.68L5.6 9.28C5.6 9.28 5.65 9.35 5.67 9.39Z" fill="#7FBBDD"/>
<path d="M7.85 12.59L19.48 16.33C19.48 16.33 19.4 16.23 19.36 16.18L7.76 12.47C7.76 12.47 7.81 12.55 7.84 12.59H7.85Z" fill="#7FBBDD"/>
<path d="M10.08 15.81L21.96 19.63C21.92 19.58 21.89 19.53 21.85 19.48L10 15.69C10 15.69 10.05 15.77 10.08 15.81Z" fill="#7FBBDD"/>
<path d="M11.58 18.79L24.06 22.8C24.03 22.75 24 22.7 23.96 22.65L11.52 18.67C11.52 18.67 11.56 18.75 11.57 18.78L11.58 18.79Z" fill="#7FBBDD"/>
<path d="M12.39 21.55L25.97 25.92C25.94 25.87 25.91 25.82 25.88 25.76L12.37 21.44C12.37 21.44 12.39 21.51 12.4 21.55H12.39Z" fill="#7FBBDD"/>
<path d="M12.71 24.15L27.73 28.98L27.64 28.82L12.7 24.04C12.7 24.04 12.7 24.11 12.7 24.15H12.71Z" fill="#7FBBDD"/>
<path d="M12.64 26.63L29.44 32.03C29.41 31.97 29.38 31.92 29.35 31.87L12.65 26.53C12.65 26.53 12.65 26.6 12.64 26.63Z" fill="#7FBBDD"/>
<path d="M13.66 29.46L31.15 35.08C31.12 35.02 31.09 34.97 31.05 34.91L13.6 29.33C13.6 29.33 13.64 29.42 13.66 29.46Z" fill="#7FBBDD"/>
<path d="M15 32.39L32.89 38.14L32.79 37.96L14.94 32.25C14.94 32.25 14.98 32.34 15 32.38V32.39Z" fill="#7FBBDD"/>
<path d="M16.15 35.26L34.77 41.25C34.73 41.19 34.69 41.13 34.65 41.06L16.1 35.13C16.1 35.13 16.13 35.22 16.15 35.26Z" fill="#7FBBDD"/>
<path d="M17.14 38.07L36.84 44.41C36.8 44.35 36.75 44.28 36.7 44.22L17.1 37.94C17.1 37.94 17.13 38.03 17.14 38.07Z" fill="#7FBBDD"/>
<path d="M18.14 40.9L39.3 47.7C39.24 47.63 39.19 47.56 39.13 47.49L18.09 40.76C18.09 40.76 18.13 40.85 18.14 40.9Z" fill="#7FBBDD"/>
<path d="M42.18 50.96L19.22 43.62C19.22 43.62 19.26 43.71 19.28 43.76L42.43 51.21C42.35 51.13 42.26 51.05 42.18 50.96Z" fill="#7FBBDD"/>
<path d="M46.42 54.81L20.07 46.38C20.07 46.38 20.07 46.47 20.08 46.51L46.77 55.09C46.65 55 46.53 54.9 46.41 54.8L46.42 54.81Z" fill="#7FBBDD"/>
<path d="M56.82 60.64L19.83 48.81C19.83 48.81 19.8 48.89 19.79 48.92L56.91 60.86C56.88 60.79 56.85 60.71 56.82 60.64Z" fill="#7FBBDD"/>
<path d="M70.68 65.07L67.19 63.95C67.05 63.97 66.9 63.99 66.76 64.03L70.82 65.34C70.78 65.25 70.73 65.16 70.68 65.08V65.07Z" fill="#7FBBDD"/>
<path d="M71.85 67.94L62.33 64.89C61.35 64.83 60.42 64.52 59.59 64.01L19.84 51.3C19.84 51.3 19.84 51.39 19.84 51.43L71.93 68.18C71.9 68.1 71.88 68.01 71.85 67.93V67.94Z" fill="#7FBBDD"/>
<path d="M72.71 70.72L19.44 53.68C19.44 53.68 19.4 53.75 19.39 53.79L72.79 70.96C72.77 70.88 72.74 70.79 72.71 70.71V70.72Z" fill="#7FBBDD"/>
<path d="M71.07 72.69L19.05 56.06C19.05 56.06 19.05 56.15 19.04 56.19L70.87 72.86C70.93 72.8 71 72.75 71.07 72.7V72.69Z" fill="#7FBBDD"/>
<path d="M69.44 74.67L21.41 59.31C21.48 59.38 21.56 59.45 21.63 59.52L69.35 74.87C69.38 74.81 69.4 74.74 69.43 74.67H69.44Z" fill="#7FBBDD"/>
<path d="M68.78 76.95L23.93 62.61C23.96 62.67 23.99 62.72 24.02 62.78L68.76 77.17C68.76 77.1 68.78 77.03 68.79 76.95H68.78Z" fill="#7FBBDD"/>
<path d="M24.95 65.44C24.96 65.49 24.97 65.54 24.98 65.6L68.96 79.74C68.93 79.66 68.9 79.57 68.88 79.49L24.95 65.44Z" fill="#7FBBDD"/>
<path d="M25.22 68.17L70.89 82.86C70.79 82.76 70.7 82.64 70.6 82.54L25.22 68.03C25.22 68.03 25.22 68.13 25.22 68.18V68.17Z" fill="#7FBBDD"/>
<path d="M77.56 87.5C77.45 87.41 77.25 87.25 77.06 87.1L24.99 70.45C25.07 70.52 25.15 70.6 25.23 70.68L77.55 87.51L77.56 87.5Z" fill="#7FBBDD"/>
<path d="M77.83 89.84L27.07 73.61C27.09 73.67 27.12 73.73 27.15 73.79L77.72 90.05C77.76 89.98 77.8 89.91 77.84 89.84H77.83Z" fill="#7FBBDD"/>
<path d="M27.98 76.56L77 92.32C77 92.32 77 92.29 77 92.27C77 92.21 77.03 92.15 77.03 92.08L27.93 76.38C27.94 76.44 27.96 76.49 27.97 76.55L27.98 76.56Z" fill="#7FBBDD"/>
<path d="M76.77 94.5L28.37 79.02C28.37 79.07 28.37 79.13 28.38 79.18L76.75 94.74C76.75 94.66 76.76 94.58 76.76 94.5H76.77Z" fill="#7FBBDD"/>
<path d="M77.18 97.13L28.48 81.56C28.48 81.61 28.48 81.67 28.48 81.72L77.27 97.41C77.24 97.32 77.21 97.22 77.19 97.13H77.18Z" fill="#7FBBDD"/>
<path d="M79.33 100.31L28.33 84C28.33 84.05 28.33 84.1 28.32 84.16L80.16 100.83C79.88 100.68 79.6 100.51 79.33 100.31Z" fill="#7FBBDD"/>
<path d="M32.4 87.8L28 86.39C28 86.44 27.98 86.49 27.98 86.54L31.86 87.79C32.04 87.78 32.23 87.79 32.41 87.79L32.4 87.8Z" fill="#7FBBDD"/>
<path d="M35.77 88.88C35.92 88.98 36.06 89.08 36.19 89.19L89.02 106.18C88.85 106.04 88.68 105.9 88.51 105.75L35.76 88.88H35.77Z" fill="#7FBBDD"/>
<path d="M119.77 115.74L115.57 114.4C115.46 114.47 115.35 114.55 115.24 114.61L119.8 116.08C119.8 115.97 119.77 115.85 119.77 115.74Z" fill="#7FBBDD"/>
<path d="M38.2 92.34L104.13 113.54C104.03 113.41 103.91 113.29 103.82 113.15H103.81L38.15 92.14C38.17 92.2 38.18 92.27 38.2 92.34Z" fill="#7FBBDD"/>
<path d="M112.56 115.93C112.41 115.99 112.25 116.05 112.09 116.1L119.3 118.42C119.34 118.32 119.4 118.23 119.45 118.14L112.57 115.94L112.56 115.93Z" fill="#7FBBDD"/>
<path d="M38.31 94.87L118.6 120.69C118.62 120.59 118.65 120.49 118.67 120.38L38.33 94.69C38.33 94.75 38.33 94.81 38.32 94.87H38.31Z" fill="#7FBBDD"/>
<path d="M37.65 97.16L118.37 123.12C118.37 123.01 118.37 122.9 118.37 122.79L37.71 97C37.69 97.05 37.67 97.11 37.65 97.16Z" fill="#7FBBDD"/>
<path d="M118.55 125.35L36.64 99.16C36.61 99.21 36.58 99.26 36.55 99.31L118.63 125.71C118.61 125.59 118.57 125.47 118.55 125.35Z" fill="#7FBBDD"/>
<path d="M35.19 101.19C35.19 101.19 35.12 101.29 35.07 101.33L119.48 128.48C119.45 128.41 119.41 128.34 119.38 128.27C119.36 128.21 119.34 128.16 119.32 128.1L35.18 101.19H35.19Z" fill="#7FBBDD"/>
<path d="M120.2 130.87L32.87 102.94C32.87 102.94 32.82 102.97 32.79 102.98C32.78 103.01 32.76 103.04 32.75 103.07L120.4 131.26C120.33 131.13 120.26 131 120.2 130.86V130.87Z" fill="#7FBBDD"/>
<path d="M120.07 133.33L31.47 104.99C31.47 104.99 31.38 105.08 31.33 105.12L119.98 133.63C120.01 133.53 120.04 133.43 120.07 133.32V133.33Z" fill="#7FBBDD"/>
<path d="M119.48 135.63L28.85 106.65C28.77 106.68 28.69 106.72 28.6 106.74L119.41 135.94C119.43 135.83 119.45 135.73 119.48 135.62V135.63Z" fill="#7FBBDD"/>
<path d="M119.02 137.99L30.83 109.79C30.91 109.87 30.98 109.96 31.06 110.04L118.97 138.31C118.99 138.2 119 138.1 119.02 137.99Z" fill="#7FBBDD"/>
<path d="M34.45 113.63L118.7 140.72C118.7 140.61 118.72 140.5 118.73 140.39L34.2 113.36C34.28 113.45 34.37 113.54 34.45 113.63Z" fill="#7FBBDD"/>
<path d="M37.71 117.17L118.61 143.19C118.61 143.08 118.61 142.96 118.61 142.85L37.48 116.9C37.56 116.99 37.64 117.08 37.72 117.17H37.71Z" fill="#7FBBDD"/>
<path d="M118.69 145.38L44.82 121.76C44.9 121.85 44.98 121.95 45.06 122.05L118.73 145.74C118.72 145.62 118.7 145.5 118.69 145.39V145.38Z" fill="#7FBBDD"/>
<path d="M119.12 148.36C119.09 148.24 119.07 148.11 119.04 147.99L46.41 124.77C46.43 124.85 46.46 124.92 46.48 125L119.11 148.36H119.12Z" fill="#7FBBDD"/>
<path d="M47.34 127.77L119.88 151.1C119.83 150.97 119.78 150.84 119.74 150.71L47.28 127.54C47.3 127.62 47.33 127.7 47.35 127.78L47.34 127.77Z" fill="#7FBBDD"/>
<path d="M47.83 130.43L121.14 154.01C121.07 153.87 120.99 153.73 120.92 153.59L47.81 130.21C47.81 130.28 47.82 130.36 47.83 130.43Z" fill="#7FBBDD"/>
<path d="M47.61 132.86L122.97 157.1C122.96 157.01 122.94 156.93 122.93 156.85C122.89 156.8 122.86 156.75 122.83 156.7L47.69 132.67C47.67 132.74 47.64 132.8 47.61 132.86Z" fill="#7FBBDD"/>
<path d="M46.73 135.07L124.18 159.98C124.07 159.83 123.97 159.68 123.88 159.52L46.59 134.8C46.64 134.89 46.7 134.98 46.74 135.07H46.73Z" fill="#7FBBDD"/>
<path d="M47.37 137.78L125.78 163C125.75 162.87 125.74 162.75 125.72 162.62L47.37 137.57C47.37 137.64 47.37 137.72 47.37 137.79V137.78Z" fill="#7FBBDD"/>
<path d="M46.99 140.16L126.97 165.88C126.86 165.73 126.76 165.57 126.66 165.41L47.05 139.95C47.03 140.02 47.01 140.09 46.99 140.15V140.16Z" fill="#7FBBDD"/>
<path d="M130.91 169.62C130.89 169.53 130.88 169.47 130.86 169.4C130.75 169.31 130.63 169.23 130.52 169.14L53.85 144.62C53.92 144.73 53.98 144.83 54.04 144.91L130.92 169.64V169.62H130.91Z" fill="#7FBBDD"/>
<path d="M131.38 171.92L55.03 147.5C55.05 147.58 55.06 147.67 55.08 147.75L131.49 172.32C131.45 172.19 131.42 172.05 131.39 171.91L131.38 171.92Z" fill="#7FBBDD"/>
<path d="M55.05 150.24L132.38 175.11C132.33 174.97 132.28 174.82 132.22 174.68L55.07 150.01C55.06 150.09 55.05 150.16 55.04 150.24H55.05Z" fill="#7FBBDD"/>
<path d="M54.08 152.43L133.74 178.05C133.66 177.9 133.57 177.74 133.49 177.59L54.2 152.23C54.16 152.3 54.12 152.36 54.07 152.43H54.08Z" fill="#7FBBDD"/>
<path d="M54.14 154.95L135.68 181.17C135.56 181.01 135.46 180.84 135.34 180.67L54.03 154.67C54.07 154.76 54.1 154.85 54.14 154.94V154.95Z" fill="#7FBBDD"/>
<path d="M137.86 183.98L55.1 157.52C55.13 157.61 55.17 157.7 55.2 157.8L138.31 184.53C138.16 184.35 138.01 184.17 137.86 183.99V183.98Z" fill="#7FBBDD"/>
<path d="M140.16 187.22L59.34 161.38C59.34 161.38 59.35 161.41 59.36 161.43C59.39 161.51 59.4 161.58 59.43 161.66L140.01 187.57C140.05 187.45 140.11 187.34 140.16 187.22Z" fill="#7FBBDD"/>
<path d="M139.64 189.55L60.14 164.13C60.16 164.21 60.19 164.3 60.22 164.41L139.64 189.95C139.64 189.82 139.64 189.68 139.64 189.55Z" fill="#7FBBDD"/>
<path d="M139.98 192.15L60.52 166.74C60.52 166.83 60.52 166.91 60.52 167L140.06 192.58C140.03 192.44 140.01 192.29 139.98 192.15Z" fill="#7FBBDD"/>
<path d="M140.54 194.83L60.23 169.15V169.19C60.22 169.26 60.22 169.33 60.21 169.4L140.65 195.27C140.61 195.12 140.58 194.98 140.54 194.83Z" fill="#7FBBDD"/>
<path d="M141.67 198.1C141.58 197.94 141.5 197.78 141.42 197.61L60.05 171.59C60.05 171.68 60.04 171.76 60.03 171.84L141.66 198.09L141.67 198.1Z" fill="#7FBBDD"/>
<path d="M59.94 174.31L142.73 200.94C142.81 200.83 142.9 200.72 142.99 200.61L59.96 174.06C59.96 174.14 59.95 174.23 59.94 174.31Z" fill="#7FBBDD"/>
<path d="M141.68 202.71L59.39 176.38C59.36 176.46 59.33 176.53 59.29 176.61L141.53 203.06C141.58 202.94 141.62 202.83 141.68 202.71Z" fill="#7FBBDD"/>
<path d="M141.22 205.04L57.98 178.42C57.91 178.49 57.84 178.55 57.77 178.61L141.26 205.46C141.25 205.32 141.23 205.18 141.23 205.04H141.22Z" fill="#7FBBDD"/>
<path d="M141.84 207.74L57.15 180.66C57.19 180.76 57.23 180.86 57.27 180.96L142.05 208.22C141.98 208.06 141.91 207.9 141.85 207.74H141.84Z" fill="#7FBBDD"/>
<path d="M65.19 186C65.34 185.95 65.49 185.91 65.64 185.87L58.39 183.55C58.44 183.65 58.49 183.76 58.54 183.86L65.2 186H65.19Z" fill="#7FBBDD"/>
<path d="M144.23 211.42C144.05 211.24 143.87 211.05 143.7 210.84L142.05 210.31L74.72 188.78C74.8 188.9 74.89 189.02 74.97 189.15L141.93 210.69L144.23 211.43V211.42Z" fill="#7FBBDD"/>
<path d="M148.68 214.94L141.32 212.57L76.17 191.74L76.32 192.09L141.2 212.96L148.76 215.38C148.73 215.23 148.7 215.09 148.68 214.95V214.94Z" fill="#7FBBDD"/>
<path d="M76.96 194.78L140.47 215.21L150.01 218.26C149.89 218.09 149.78 217.92 149.67 217.75L140.59 214.83L76.95 194.48C76.95 194.58 76.95 194.68 76.95 194.78H76.96Z" fill="#7FBBDD"/>
<path d="M155.53 222.14C155.04 222.08 154.56 221.96 154.09 221.78C153.85 221.69 153.63 221.58 153.42 221.46L139.87 217.1L76.68 196.89C76.65 196.98 76.63 197.07 76.6 197.16L139.75 217.47L162.92 224.88C162.99 224.8 163.06 224.73 163.14 224.66C163.06 224.61 162.98 224.56 162.91 224.5L155.54 222.13L155.53 222.14Z" fill="#7FBBDD"/>
<path d="M76.42 199.31C76.47 199.42 76.5 199.54 76.54 199.65L139.02 219.74L161.39 226.89C161.45 226.79 161.52 226.68 161.58 226.58L139.14 219.36L76.42 199.3V199.31Z" fill="#7FBBDD"/>
<path d="M76.92 201.97C76.92 202.07 76.92 202.17 76.92 202.27L138.3 222.01L160.33 229.06C160.37 228.95 160.42 228.84 160.46 228.73L138.42 221.64L76.92 201.97Z" fill="#7FBBDD"/>
<path d="M76.4 204.3C76.36 204.39 76.33 204.48 76.28 204.57L137.57 224.28L159.61 231.33C159.63 231.21 159.67 231.1 159.69 230.98L137.68 223.9L76.39 204.3H76.4Z" fill="#7FBBDD"/>
<path d="M74.96 206.34C74.88 206.42 74.79 206.49 74.7 206.56L136.84 226.55L159.49 233.79C159.48 233.66 159.47 233.53 159.46 233.41L136.96 226.17L74.96 206.34Z" fill="#7FBBDD"/>
<path d="M74.28 208.62C74.25 208.71 74.22 208.8 74.19 208.89L136.12 228.81L158.21 235.88C158.28 235.78 158.34 235.67 158.41 235.57L136.23 228.44L74.27 208.63L74.28 208.62Z" fill="#7FBBDD"/>
<path d="M73.33 210.81C73.28 210.9 73.23 210.98 73.18 211.06L135.39 231.07L157.18 238.04C157.22 237.93 157.26 237.81 157.3 237.7L135.51 230.69L73.33 210.8V210.81Z" fill="#7FBBDD"/>
<path d="M71.96 212.87C71.9 212.95 71.84 213.03 71.77 213.11L134.66 233.34L156.61 240.36C156.63 240.24 156.65 240.12 156.67 240L134.78 232.96L71.96 212.87Z" fill="#7FBBDD"/>
<path d="M70.28 214.83C70.21 214.91 70.14 214.99 70.07 215.06L133.94 235.6L156.38 242.78C156.38 242.66 156.38 242.53 156.4 242.41L134.06 235.23L70.29 214.84L70.28 214.83Z" fill="#7FBBDD"/>
<path d="M68.41 216.73C68.33 216.8 68.26 216.88 68.18 216.95L84.13 222.08C84.54 222.14 84.97 222.24 85.4 222.39C85.75 222.51 86.07 222.67 86.41 222.81L133.2 237.86L156.39 245.28C156.39 245.15 156.38 245.03 156.37 244.9L133.32 237.49L68.41 216.73Z" fill="#7FBBDD"/>
<path d="M66.28 218.84L76.37 222.09C76.71 222.1 77.05 222.1 77.4 222.13C77.4 222.13 77.43 222.13 77.44 222.12L66.5 218.62C66.43 218.69 66.35 218.77 66.28 218.84Z" fill="#7FBBDD"/>
<path d="M91.43 226.59C91.55 226.74 91.67 226.89 91.78 227.04L132.48 240.13L156.63 247.85C156.61 247.72 156.6 247.59 156.58 247.46L132.6 239.75L91.43 226.58V226.59Z" fill="#7FBBDD"/>
<path d="M93.36 229.71C93.42 229.84 93.48 229.98 93.54 230.11L131.76 242.4L157.09 250.5C157.06 250.37 157.03 250.24 157.01 250.1L131.88 242.02L93.36 229.7V229.71Z" fill="#7FBBDD"/>
<path d="M94.88 232.69C95.12 232.88 95.36 233.07 95.59 233.27L131.02 244.66L157.78 253.22C157.74 253.09 157.7 252.95 157.66 252.81L131.14 244.28L94.87 232.68L94.88 232.69Z" fill="#7FBBDD"/>
<path d="M97.85 236.14C97.9 236.27 97.95 236.41 98 236.54L130.31 246.93L158.88 256.07C158.82 255.93 158.76 255.79 158.7 255.65L130.42 246.56L97.85 236.14Z" fill="#7FBBDD"/>
<path d="M98.28 238.78C98.28 238.9 98.26 239.01 98.25 239.13L129.57 249.2L160.11 258.97C160.05 258.83 159.99 258.69 159.93 258.55L129.68 248.82L98.27 238.77L98.28 238.78Z" fill="#7FBBDD"/>
<path d="M97.75 241.1C97.71 241.21 97.66 241.31 97.61 241.41L128.85 251.46L161.29 261.83C161.24 261.69 161.18 261.56 161.13 261.42L128.97 251.08L97.75 241.1Z" fill="#7FBBDD"/>
<path d="M97.82 243.62C97.98 243.79 98.14 243.96 98.29 244.13L128.12 253.72L162.19 264.62C162.16 264.49 162.12 264.36 162.09 264.23L128.24 253.34L97.82 243.61V243.62Z" fill="#7FBBDD"/>
<path d="M100.54 246.99C100.65 247.15 100.76 247.3 100.87 247.46L127.39 255.99L162.74 267.29C162.72 267.17 162.71 267.04 162.69 266.92L127.51 255.61L100.53 246.98L100.54 246.99Z" fill="#7FBBDD"/>
<path d="M102.53 250.13C102.61 250.28 102.69 250.43 102.77 250.58L126.66 258.26L162.87 269.84C162.87 269.72 162.87 269.61 162.87 269.49L126.78 257.88L102.53 250.12V250.13Z" fill="#7FBBDD"/>
<path d="M104.01 253.1C104.07 253.24 104.13 253.39 104.19 253.53L125.94 260.52L162.59 272.24C162.61 272.13 162.63 272.02 162.65 271.91L126.06 260.14L104.01 253.09V253.1Z" fill="#7FBBDD"/>
<path d="M105.05 255.93C105.09 256.07 105.13 256.21 105.17 256.35L125.22 262.8L161.98 274.55C162.01 274.44 162.04 274.34 162.08 274.23L125.34 262.42L105.05 255.93Z" fill="#7FBBDD"/>
<path d="M107.69 259.27C107.95 259.46 108.2 259.67 108.43 259.89L124.49 265.05L161.3 276.82C161.33 276.71 161.36 276.61 161.39 276.5L124.61 264.67L107.69 259.26V259.27Z" fill="#7FBBDD"/>
<path d="M110.02 262.51C110.06 262.65 110.09 262.79 110.13 262.93L123.76 267.31L160.68 279.12C160.71 279.01 160.74 278.91 160.76 278.8L123.87 266.94L110.01 262.51H110.02Z" fill="#7FBBDD"/>
<path d="M110.23 265.08C110.21 265.2 110.18 265.33 110.16 265.45L123.03 269.59L160.14 281.46C160.16 281.35 160.18 281.24 160.21 281.13L123.15 269.21L110.23 265.08Z" fill="#7FBBDD"/>
<path d="M109.48 267.34C109.42 267.45 109.34 267.56 109.28 267.67L122.31 271.86L159.69 283.81C159.71 283.7 159.73 283.59 159.75 283.48L122.43 271.48L109.48 267.34Z" fill="#7FBBDD"/>
<path d="M108.17 269.42C108.09 269.52 108.01 269.63 107.91 269.73L121.58 274.13L159.34 286.21C159.35 286.1 159.37 285.99 159.39 285.88L121.71 273.76L108.17 269.43V269.42Z" fill="#7FBBDD"/>
<path d="M106.89 271.51C106.89 271.64 106.9 271.77 106.91 271.9L120.85 276.38L159.13 288.62C159.13 288.51 159.14 288.39 159.15 288.28L120.98 276L106.9 271.5L106.89 271.51Z" fill="#7FBBDD"/>
<path d="M106.87 274C106.86 274.13 106.87 274.25 106.85 274.38L120.13 278.65L159.06 291.1C159.06 290.99 159.06 290.87 159.06 290.76L120.25 278.28L106.88 274H106.87Z" fill="#7FBBDD"/>
<path d="M119.49 280.53C119.84 280.77 120.18 281.02 120.53 281.28L159.16 293.63C159.16 293.51 159.14 293.4 159.13 293.28L119.53 280.54H119.5L119.49 280.53Z" fill="#7FBBDD"/>
<path d="M124.89 285.17L159.43 296.22C159.41 296.1 159.4 295.98 159.38 295.86L124.29 284.58C124.49 284.78 124.69 284.97 124.88 285.17H124.89Z" fill="#7FBBDD"/>
<path d="M128.13 288.71L159.9 298.87C159.87 298.75 159.84 298.63 159.82 298.51L127.65 288.16C127.81 288.34 127.97 288.53 128.13 288.71Z" fill="#7FBBDD"/>
<path d="M130.22 291.87L160.57 301.57C160.54 301.45 160.5 301.32 160.47 301.2L130.07 291.42C130.13 291.57 130.18 291.71 130.22 291.86V291.87Z" fill="#7FBBDD"/>
<path d="M130.41 294.43L161.41 304.34C161.37 304.22 161.33 304.09 161.29 303.97L130.45 294.05C130.45 294.18 130.43 294.3 130.41 294.43Z" fill="#7FBBDD"/>
<path d="M129.72 296.71L162.32 307.14C162.28 307.02 162.24 306.89 162.2 306.77L129.88 296.38C129.83 296.49 129.78 296.61 129.72 296.72V296.71Z" fill="#7FBBDD"/>
<path d="M128.93 298.96L163.28 309.95C163.24 309.83 163.19 309.7 163.15 309.58L128.83 298.54C128.87 298.68 128.9 298.82 128.93 298.96Z" fill="#7FBBDD"/>
<path d="M133.37 302.87L164.24 312.74C164.2 312.62 164.16 312.5 164.12 312.38L133.06 302.39C133.17 302.55 133.28 302.71 133.37 302.87Z" fill="#7FBBDD"/>
<path d="M134.32 305.67L165.18 315.54C165.14 315.42 165.1 315.3 165.06 315.18L134.27 305.28C134.29 305.41 134.3 305.54 134.32 305.67Z" fill="#7FBBDD"/>
<path d="M134.37 308.19L166.06 318.32C166.02 318.2 165.99 318.08 165.96 317.97L134.42 307.83C134.42 307.95 134.39 308.07 134.38 308.19H134.37Z" fill="#7FBBDD"/>
<path d="M133.56 310.43L166.85 321.07C166.82 320.96 166.79 320.84 166.76 320.73L133.75 310.11C133.69 310.22 133.63 310.33 133.56 310.43Z" fill="#7FBBDD"/>
<path d="M131.53 312.28L167.53 323.79C167.5 323.68 167.48 323.57 167.45 323.45L131.94 312.03C131.81 312.12 131.67 312.2 131.53 312.28Z" fill="#7FBBDD"/>
<path d="M131.18 314.66L168.06 326.45C168.04 326.34 168.01 326.23 167.99 326.12L131.13 314.26C131.15 314.39 131.16 314.52 131.18 314.65V314.66Z" fill="#7FBBDD"/>
<path d="M131.24 317.18L168.49 329.09C168.47 328.98 168.46 328.87 168.44 328.77L131.26 316.81C131.26 316.93 131.26 317.06 131.25 317.18H131.24Z" fill="#7FBBDD"/>
<path d="M130.8 319.54L139.1 322.19C139.3 322.15 139.51 322.09 139.71 322.03L130.9 319.2C130.87 319.32 130.84 319.43 130.8 319.54Z" fill="#7FBBDD"/>
<path d="M149.01 325.36L168.84 331.7C168.83 331.59 168.81 331.49 168.8 331.38L148.73 324.93C148.82 325.07 148.91 325.22 149.01 325.36Z" fill="#7FBBDD"/>
<path d="M152.19 328.88L169.16 334.31C169.15 334.2 169.14 334.1 169.12 333.99L150.66 328.05C151.19 328.29 151.7 328.56 152.18 328.87L152.19 328.88Z" fill="#7FBBDD"/>
<path d="M155.03 332.28L169.45 336.89C169.44 336.79 169.43 336.68 169.42 336.58L154.86 331.9C154.92 332.03 154.97 332.15 155.02 332.28H155.03Z" fill="#7FBBDD"/>
<path d="M155.53 334.94L169.71 339.47C169.71 339.37 169.69 339.26 169.68 339.16L155.52 334.61C155.52 334.72 155.52 334.83 155.52 334.94H155.53Z" fill="#7FBBDD"/>
<path d="M155.29 337.36L169.96 342.05L169.93 341.74L155.36 337.05C155.34 337.15 155.32 337.25 155.29 337.35V337.36Z" fill="#7FBBDD"/>
<path d="M161.8 341.94L170.21 344.63C170.21 344.53 170.19 344.43 170.18 344.32L161.49 341.52C161.6 341.65 161.71 341.79 161.81 341.93L161.8 341.94Z" fill="#7FBBDD"/>
<path d="M162.8 344.76L170.47 347.21C170.46 347.11 170.45 347.01 170.44 346.9L162.78 344.44C162.79 344.54 162.8 344.65 162.8 344.76Z" fill="#7FBBDD"/>
<path d="M163.08 347.35L170.75 349.8C170.74 349.7 170.73 349.6 170.71 349.5L162.91 346.99C162.96 347.11 163.02 347.23 163.08 347.35Z" fill="#7FBBDD"/>
<path d="M165.1 350.49L171.07 352.4C171.06 352.3 171.05 352.2 171.03 352.1L164.82 350.1C164.91 350.23 165.01 350.36 165.1 350.49Z" fill="#7FBBDD"/>
<path d="M167.05 353.61L171.44 355.01C171.42 354.91 171.41 354.81 171.39 354.71L166.89 353.26C166.94 353.38 167 353.49 167.05 353.61Z" fill="#7FBBDD"/>
<path d="M167.89 356.38L171.87 357.65C171.85 357.55 171.84 357.45 171.82 357.34L167.62 355.99C167.71 356.12 167.8 356.25 167.89 356.37V356.38Z" fill="#7FBBDD"/>
<path d="M107.75 273.63C109.07 273.38 110.21 272.65 111.19 271.65C109.99 272.1 108.84 272.75 107.75 273.63Z" fill="#7FBBDD"/>
<path d="M99.25 122.03C100.16 123.05 100.43 124.83 100.85 125.87C97.59 125.35 94.84 130.29 91.8 131.9C91.33 132.15 90.88 132.39 90.42 132.62C90.02 132.34 89.55 132.19 89.13 132.19C88.14 132.22 87.52 132.65 87.14 132.88C86.84 133.07 86.67 133.21 86.59 133.27C86.56 133.28 86.55 133.29 86.55 133.29V133.24C86.57 132.99 86.81 131.79 86.64 129.79C86.48 127.53 85.59 124.33 83.88 120.66C83.04 118.82 82.12 114.54 74.6 117.88C73.46 118.38 80.01 112.58 79.57 111.43L79.4 111C79.33 110.84 79.35 110.77 79.18 110.45L78.71 109.61L77.78 107.87C76.48 105.53 75.14 102.99 72.94 100.7C72.66 100.42 72.36 100.14 72.05 99.88C71.68 99.59 71.54 99.45 71.12 99.12C70.39 98.58 69.52 98.2 68.69 97.96C67.03 97.46 65.32 97.33 64.4 96.73C64.08 96.52 63.86 96.28 63.71 95.92C63.37 95.17 68.63 87.68 68.55 86.43L62.11 93.16C61.71 93.5 61.27 93.85 60.82 94.29C60.2 94.89 60.01 95.07 59.95 95.12C59.94 95.12 59.94 95.13 59.94 95.13C59.94 95.13 59.94 95.12 59.93 95.13C59.79 95.02 59.29 94.51 58.98 94.09L58.36 93.32L58.3 93.27L58.34 93.23C58.34 93.23 58.3 93.25 58.61 93.03C59.05 92.7 59.47 92.29 59.79 91.8C60.12 91.3 60.34 90.73 60.4 90.13C60.44 89.54 60.33 88.95 60.1 88.45C59.63 87.43 58.82 86.74 57.98 86.23C57.56 85.98 57.13 85.77 56.69 85.6L56.36 85.48C56.36 85.48 56.32 85.47 56.31 85.47L56.16 85.43C56.16 85.43 56.17 85.36 56.18 85.28L56.27 84.91L56.53 83.69C56.7 82.89 56.86 82.11 57.05 81.38C57.43 79.91 57.93 78.56 58.71 77.47C59.28 76.56 60 75.83 60.76 75.19C62.72 72.48 65.03 69.99 67.56 67.69C67.43 67.69 67.27 67.7 67.11 67.71C65.29 69.26 63.17 70.5 60.92 71.53C60.89 71.58 60.85 71.64 60.81 71.73C59.59 73.72 57.14 74.73 54.83 74.38C54.65 74.52 54.49 74.65 54.31 74.78C53.82 75.13 53.32 75.49 52.8 75.83C52.54 76 52.26 76.15 52 76.32L51.58 76.55L51.39 76.64L51.21 76.72C51.15 76.76 51.08 76.79 51.06 76.66L50.87 76.2C50.84 76.12 50.63 75.69 50.51 75.41L50.07 74.49C48.83 72.02 47.35 69.44 45.65 66.83C42.26 61.58 37.95 56.21 33.67 50.49C31.53 47.64 29.53 44.81 27.77 41.99C26.03 39.19 24.57 36.3 23.03 33.61C20.03 28.22 17.17 23.41 14.56 19.5C11.95 15.58 9.56 12.57 7.79 10.6C6.66 9.32 5.81 8.48 5.33 8.04C5.13 7.79 5 7.66 5.02 7.76C5.16 8.56 8.09 13.67 8.71 15.09C9.33 16.51 13.15 25.01 14.14 26.97C15.84 32.14 19.83 35.88 22.72 42.82C23.48 44.53 21.14 49.14 22.45 50.74C23.11 51.54 23.88 52.3 24.79 52.96L25.12 53.18L25.15 53.2C25.15 53.2 25.15 53.22 25.15 53.24L25.12 53.94C25.12 54.2 25.12 54.47 25.12 54.72C25.23 58.94 26.88 62.96 28.49 66.82C29.41 69.04 30.3 71.23 30.7 73.37C30.9 74.44 30.94 75.5 30.8 76.5C30.75 76.78 30.73 76.94 30.62 77.31C30.54 77.59 30.44 77.85 30.34 78.14C30.18 78.44 30.08 78.7 29.87 79.03L26.96 83.49C28.46 82.58 30.76 81.05 32.35 80.16C32.76 79.94 33.15 79.75 33.54 79.61C33.84 79.48 33.94 79.46 34.15 79.39C34.51 79.27 34.88 79.19 35.25 79.15C36.71 78.93 38.03 79.42 39.01 80.4C39.99 81.38 40.64 82.71 41.1 84.04C41.54 85.38 41.82 86.77 41.98 88.14C42.56 93.64 41.7 98.66 40.46 102.63C39.2 106.62 37.4 109.58 35.8 111.32C34.42 112.84 33.32 113.51 33.05 113.68C33.02 113.69 33.01 113.7 33 113.7C33 113.7 33.04 113.72 33.11 113.72C33.59 113.78 35.41 113.99 38.35 114.15C40.09 114.2 42.25 114.25 44.73 113.69C45.96 113.42 47.25 112.96 48.51 112.29C49.13 111.96 49.8 111.51 50.31 111.11C50.62 110.89 50.89 110.66 51.13 110.44C51.2 110.31 51.17 110.52 51.18 110.58V110.85L51.16 111.35L51.08 113.27C50.99 114.76 50.83 116.32 50.68 117.94C50.53 119.56 50.36 121.24 50.3 123C50.27 123.88 50.27 124.78 50.32 125.69L50.34 126.04L50.39 126.59C50.42 126.95 50.48 127.36 50.53 127.76C50.65 128.54 50.78 129.36 50.93 130.13L53.07 128.18L54.05 127.33L54.65 126.84L57.12 124.88L59.66 122.89C59.66 122.89 59.74 122.85 59.75 122.84C59.74 122.88 59.72 122.91 59.71 122.92L59.29 124.47C58.81 126.12 58.25 127.78 57.62 129.44C57.11 130.77 56.57 132.07 56 133.35L55.13 135.26L53.6 138.42L55.06 138.55C55.31 138.57 55.57 138.59 55.78 138.63C55.98 138.66 56.3 138.74 56.32 138.75C56.67 138.84 57.02 138.99 57.34 139.15C57.99 139.49 58.57 139.97 59.08 140.5C60.09 141.59 60.78 142.97 61.18 144.39C61.58 145.79 61.68 147.27 61.42 148.63C61.29 149.3 61.07 149.95 60.75 150.55C60.6 150.83 60.42 151.11 60.21 151.36C60.11 151.49 60 151.61 59.89 151.73C59.67 151.92 59.42 152.14 59.14 152.37C59.3 153.64 59.43 154.06 59.67 154.73C59.9 155.36 60.2 155.94 60.55 156.48C61.25 157.56 62.08 158.45 62.83 159.31C64.37 160.99 65.48 162.7 65.88 164.58C66.27 166.44 66.22 168.32 65.75 169.95C65.28 171.6 64.59 173.09 63.91 174.39C62.53 177 61.21 178.97 60.33 180.33L58.98 182.36L58.95 182.4C58.95 182.4 58.96 182.39 58.99 182.37C59.15 182.26 59.83 181.77 61.01 181.12C62.39 180.34 64.5 179.45 67.17 178.32C68.51 177.74 69.98 177.08 71.48 176.15C71.86 175.92 72.23 175.66 72.6 175.38C72.78 175.25 72.97 175.1 73.14 174.95C73.22 174.88 73.34 174.78 73.35 174.78L73.63 174.61C74.42 174.11 75.21 173.54 75.98 172.97L78.38 171.18L79.61 170.29L79.93 170.07C80.06 169.97 79.99 170.02 80.04 170L80.15 169.94C80.39 169.83 80.65 169.77 80.3 170.05L80.18 170.17H80.15V170.19L80.05 170.32L79.32 171.31C78.37 172.63 77.37 173.98 76.18 174.81L76.03 174.91L75.67 175.11L74.93 175.5L75.09 177.22L75.22 178.25C75.32 178.93 75.43 179.59 75.55 180.25C75.8 181.57 76.09 182.86 76.41 184.11C77.06 186.61 78.3 191.83 82.76 189.73C87.31 187.59 78.3 191.83 82.21 203.06C82.25 203.17 82.27 203.28 82.3 203.38C80.57 205.48 79.44 210.04 78.93 213.92C74.85 216.04 69.8 216.88 66.64 220.25C71.57 217.47 74.55 221.29 78.51 218.2C78.55 218.24 78.58 218.28 78.62 218.32C78.62 218.49 78.62 218.67 78.63 218.82C78.76 218.82 78.91 218.85 79.07 218.89C79.13 218.98 79.2 219.06 79.25 219.16C79.4 219.14 79.54 219.12 79.69 219.1C80.03 219.23 80.37 219.38 80.61 219.49C80.95 219.35 81.35 219.2 81.79 219.06C81.93 219.24 82.06 219.44 82.18 219.66C84.15 219.82 86.45 218.71 88.76 217.71C89.72 217.61 90.7 217.54 91.69 217.51C96.44 224.53 109.56 233.76 107.44 239.47C108.79 240.51 109.26 242.63 110.26 243.82C109.6 244.34 108.55 244.71 107.79 245.01C108.39 246.12 108.45 247.71 109.18 248.84C107.43 247.66 105.57 247.19 103.98 245.84C106.12 251.04 112.52 256.23 115.41 261.51C115.1 264.66 113.71 269 111.22 271.54C119.54 268.38 129.95 274.72 133.58 283.41C135.79 288.71 135.87 295.48 138.06 301.36C141.38 310.28 138.93 308.67 134.32 315.74C137.97 313.41 140.6 308.48 145.13 307.67C149.42 325.63 165.5 341.49 172.89 359C166.17 342.5 156.18 326.96 151.64 309.81C150.3 304.74 149.36 301.09 147.98 296.11C147.42 294.08 147.97 292.12 147.37 290.01C146.77 287.87 144.38 285.24 144.03 283.36C143.16 278.75 146.08 274.17 146.44 269.77C146.86 264.8 142.58 264.01 150.24 260.96C147.92 259.88 146.18 259.96 143.62 261.34C142.85 256 139.31 252.62 137.75 248.44C135.95 243.62 136.45 238.53 133.54 233.52C138.66 229.26 144.68 227.08 151.01 224.15C147.16 223.85 142.43 222.29 138.52 222.86C136.45 220.36 133.04 219.55 130.3 220.57C130.34 220.44 131.2 219.29 131.22 219.27C127.55 215.99 121.27 204.36 126.42 201.05C122.05 198.6 123.18 194.62 127.27 193C126.31 190.92 124.69 189.18 122.85 188.27C121.07 186.45 119.11 184.47 117.05 182.39C116.04 181.37 115.07 180.36 114.16 179.37L113.57 178.76L113.49 178.7C113.49 178.7 113.5 178.65 113.53 178.63V178.61L113.72 178.49L114.14 178.2C116.32 176.61 117.96 174.93 119.26 173.47C120.87 171.66 121.99 170.19 122.61 169.36C122.7 169.25 122.76 169.15 122.82 169.08C123.01 168.85 123.12 168.68 123.15 168.61H123.14C123.02 168.71 122.55 169.13 121.82 169.81C121.79 169.81 121.78 169.84 121.76 169.85C121.65 169.95 121.52 170.03 121.39 170.12C120.74 170.53 119.9 170.95 118.85 171.26C118.32 171.42 117.76 171.55 117.14 171.65C116.93 171.68 116.74 171.7 116.54 171.71H116.28C116.19 171.71 116.04 171.77 116.15 171.63C116.24 171.45 116.31 171.27 116.36 171.11C116.38 170.99 116.4 170.99 116.43 170.77L116.53 170.05C116.58 169.78 116.62 169.51 116.73 169.17L117.19 167.99L118.31 165.39L116.29 167.18C115.9 167.53 115.56 167.83 115.19 168.13C114.87 168.35 114.54 168.59 114.24 168.68L114.01 168.78C113.96 168.8 113.92 168.81 113.89 168.82C113.8 168.83 113.72 168.86 113.65 168.87C113.47 168.91 113.31 168.94 113.14 168.94C112.8 168.97 112.45 168.96 112.09 168.91C110.66 168.73 109.19 167.96 107.81 167C105.05 165.04 102.51 162.28 100.14 159.27C98.74 157.47 97.45 155.66 96.32 153.85C95.76 152.95 95.22 152.03 94.81 151.19C94.46 150.39 94.27 149.41 94.12 148.48C93.79 146.25 93.6 144.09 93.39 142.08C94.35 139.54 95.16 136.17 95.68 134.05C100.93 134.34 97.52 125.8 104.66 127.82C104.77 124.32 107.76 124.83 110.14 123.1C113.01 121.01 114.66 118.17 116.93 115.59C111.97 120.27 105.37 126.92 99.29 121.92L99.25 122.03ZM5.92 8.91C6.33 9.41 6.84 10.05 7.43 10.84C7.43 10.95 6.61 9.83 5.92 8.91Z" fill="#7FBBDD"/>
</svg>
