<svg width="194" height="172" viewBox="0 0 194 172" fill="none" xmlns="http://www.w3.org/2000/svg">
<path d="M40.9191 43.1336C40.9191 43.1336 40.2015 -11.8771 108.425 7.06371C122.091 16.4297 136.606 32.3401 133.581 47.5617C137.382 43.6019 147.198 32.807 154.833 47.6616C162.22 46.3765 178.983 40.9849 190.836 65.3236C192.817 79.2819 187.934 115.843 145.008 131.63C115.473 142.536 89.0666 150.608 55.0257 136.918C50.0832 139.653 33.4714 150.111 24.0192 133.909C24.663 122.777 27.4081 120.219 27.4081 120.219C27.4081 120.219 12.5306 116.384 12.4843 110.06C13.0096 103.696 14.5504 96.1393 19.2022 95.8179C15.1808 93.6425 3.94728 90.5782 1.63939 78.7509C1.04513 70.2075 2.07445 61.6075 12.0706 58.9007C15.5417 53.4467 22.7068 43.6067 40.9191 43.1336Z" fill="white"/>
<path d="M191.768 64.3905C187.706 52.4848 172.172 37.8835 156.437 46.9191C155.918 42.4251 151.925 38.7121 146.065 38.4189C141.552 38.1864 137.499 40.1695 134.892 43.1039C133.733 21.0367 114.164 0.672988 85.5422 0.855218C58.3295 1.02676 33.7 20.3886 39.3012 42.8689C27.926 41.6646 15.3202 47.9154 13.0938 57.6383C13.0143 57.9981 13.6891 58.1687 13.8579 57.8092C18.0405 48.9104 28.6572 43.0087 40.2137 45.0027C41.6306 45.2467 42.0954 43.5258 40.9017 43.1092C40.1444 20.7119 61.0562 2.1449 89.5616 4.17058C115.335 5.99408 131.145 25.7739 131.056 45.8041C131.047 45.9717 131.076 46.1404 131.143 46.2998C131.209 46.4593 131.312 46.606 131.443 46.7311C131.575 46.8562 131.733 46.9569 131.909 47.0271C132.084 47.0973 132.272 47.1354 132.462 47.1391C132.284 47.656 133.219 47.9409 133.592 47.5262C136.398 44.4003 138.965 40.964 144.168 40.6184C149.962 40.255 153.642 44.0132 153.781 48.4306C153.785 48.6217 153.859 48.8086 153.993 48.9626C154.127 49.1167 154.312 49.2296 154.521 49.2842C155.253 49.5323 156.281 49.3135 156.464 48.6083C169.982 42.3783 182.154 52.3434 186.72 62.0042C189.928 68.8068 190.444 76.4177 188.965 83.711C185.834 99.1873 173.424 112.423 158.708 122.3C143.674 132.385 125.66 140.075 106.391 141.607C87.8177 143.079 69.7877 139.138 52.4796 134.748C52.1037 134.656 51.7122 134.639 51.3336 134.698C50.955 134.757 50.5987 134.89 50.2906 135.088C49.9826 135.285 49.7305 135.543 49.5525 135.841C49.3746 136.14 49.2754 136.472 49.2621 136.814C47.9413 138.215 46.2592 139.314 44.3493 140.023C42.4393 140.732 40.3539 141.032 38.2583 140.899C36.1628 140.766 34.1148 140.204 32.2765 139.257C30.4383 138.309 28.8605 137.003 27.6681 135.442C24.1433 130.758 24.7702 125.196 27.4 120.203C27.9618 120.102 28.5153 119.973 29.0577 119.815C31.6084 119.069 30.1553 116.044 27.6566 116.704C20.6608 118.536 14.8694 114.195 14.028 108.812C13.4684 105.233 14.6373 98.2039 19.2136 95.8005C19.5603 95.8184 19.912 95.8365 20.2637 95.8546C22.4448 95.9057 23.0435 93.1264 20.8665 93.1019C1.04684 92.8477 -5.26823 67.3364 12.2341 59.4659C12.6008 59.3007 12.519 58.8581 12.0719 58.8789C1.3582 59.3833 -0.388476 72.1691 0.331486 78.7032C1.2459 86.9747 7.25038 94.1582 17.1807 95.5906C11.7845 98.2234 10.0028 106.233 10.8089 110.575C11.9759 116.734 18.6832 121.139 26.0704 120.388C21.8094 126.947 21.5685 134.847 28.1117 140.327C35.0139 146.097 46.5968 145.378 52.8534 138.765C73.8665 144.232 96.1941 148.281 118.53 143.702C141.056 139.084 163.018 126.928 177.458 111.859C190.385 98.3915 197.361 80.7723 191.768 64.3905Z" fill="#2381A0"/>
<path d="M45.5173 150.943C42.4413 152.863 42.2704 157.02 45.9107 158.303C46.1703 158.397 46.45 158.434 46.7252 158.41C46.7654 158.474 46.8194 158.53 46.884 158.576C49.9443 160.754 54.8922 161.694 58.5115 159.477C62.1308 157.261 61.8007 153.48 58.473 151.476C55.2333 149.511 49.0478 148.713 45.5173 150.943ZM54.5802 158.682C52.2693 159.114 50.0372 158.323 47.8966 157.802C48.0402 157.652 48.1403 157.473 48.1884 157.28C48.2366 157.086 48.2315 156.884 48.1735 156.69C48.1155 156.495 48.0064 156.314 47.8551 156.161C47.7038 156.008 47.5146 155.889 47.3033 155.811C46.1662 155.369 46.3603 154.099 46.9902 153.367C47.774 152.447 49.5012 152.16 50.7461 152.114C53.117 152.018 56.3019 152.574 57.6878 154.217C59.3621 156.172 57.1206 158.192 54.5807 158.665L54.5802 158.682Z" fill="#2381A0"/>
<path d="M43.6945 163.848C42.4856 163.567 41.2219 163.602 40.0592 163.95C38.8965 164.297 37.8854 164.942 37.1507 165.805C36.9919 166.002 36.9056 166.24 36.9031 166.486C36.9006 166.733 36.982 166.977 37.1367 167.186C37.2914 167.396 37.5123 167.561 37.7705 167.661C38.0287 167.761 38.3124 167.791 38.5847 167.747C38.2449 169.252 39.4957 170.65 41.2475 171.161C43.6341 171.859 46.0389 170.487 46.6346 168.522C46.7955 168.055 46.8465 167.56 46.7845 167.068C46.7225 166.577 46.5489 166.098 46.274 165.661C45.9991 165.224 45.6288 164.838 45.1854 164.526C44.7421 164.215 44.2349 163.984 43.6945 163.848ZM44.0299 167.642C43.9616 170.082 39.8462 169.646 40.0649 167.503C40.0708 167.39 40.038 167.278 39.9708 167.179C39.9036 167.081 39.8052 167.002 39.6884 166.953C41.0285 165.689 44.0902 165.487 44.0299 167.642Z" fill="#2381A0"/>
<path d="M32.0233 132.739C31.9999 132.511 31.5924 132.56 31.5911 132.782C31.579 135.87 35.3633 138.158 39.0588 137.427C39.7361 137.296 39.5348 136.526 38.8568 136.684C35.5666 137.444 32.2755 135.404 32.0233 132.739Z" fill="#2381A0"/>
<path d="M41.9507 135.369C42.0138 135.355 42.0725 135.33 42.1229 135.294C42.1733 135.259 42.2142 135.215 42.243 135.164C42.2718 135.113 42.2879 135.057 42.29 135C42.2922 134.942 42.2805 134.885 42.2556 134.831C42.2308 134.777 42.1934 134.728 42.1459 134.687C42.0983 134.646 42.0418 134.614 41.98 134.593C41.9181 134.572 41.8524 134.563 41.7871 134.566C41.7217 134.568 41.6583 134.583 41.6009 134.61C39.4354 135.271 37.0441 134.283 36.385 132.559C36.2558 132.228 35.6513 132.44 35.7558 132.77C36.4383 134.894 39.3392 136.055 41.9507 135.369Z" fill="#2381A0"/>
<path d="M19.6114 110.974C19.5332 110.75 19.0785 110.845 19.1118 111.076C19.5104 113.52 21.4098 115.399 24.1446 116.354C24.6858 116.54 25.0831 115.831 24.5368 115.653C23.3602 115.277 22.296 114.654 21.4373 113.838C20.5786 113.022 19.9517 112.039 19.6114 110.974Z" fill="#2381A0"/>
<path d="M29.4159 113.096C27.2452 114.085 24.3984 112.884 24.251 110.903C24.2296 110.606 23.6736 110.665 23.6852 110.957C23.7634 113.291 27.1112 114.804 29.6957 113.71C30.1765 113.509 29.8772 112.885 29.4159 113.096Z" fill="#2381A0"/>
<path d="M10.5651 85.1557L13.8642 88.4835C14.0237 88.6413 14.3621 88.4389 14.1927 88.2806L10.808 84.9967C10.6971 84.8766 10.4395 85.0304 10.5651 85.1557Z" fill="#2381A0"/>
<path d="M15.006 85.7797C14.8562 85.4553 14.2841 85.6632 14.3892 85.9897C14.6635 86.7511 15.1136 87.4581 15.7102 88.0649C16.3068 88.6716 17.0365 89.1645 17.852 89.5114C18.3178 89.729 18.6887 89.0752 18.2127 88.8703C16.7433 88.2378 15.5924 87.1285 15.006 85.7797Z" fill="#2381A0"/>
<path d="M98.7858 10.134C98.5955 10.0097 98.355 10.257 98.5402 10.3854C104.878 14.7811 109.808 19.958 113.216 26.2052C113.424 26.5901 114.206 26.3357 113.974 25.9538C110.476 19.6603 105.247 14.2137 98.7858 10.134Z" fill="#2381A0"/>
<path d="M119.429 36.0229C118.059 26.9405 113.702 18.6073 106.148 11.9957C105.924 11.8024 105.502 12.0464 105.716 12.2613C112.781 19.202 117.183 26.9705 118.457 36.1187C118.527 36.6362 119.505 36.5407 119.429 36.0229Z" fill="#2381A0"/>
<path d="M141.943 127.393C158.574 119.215 171.322 107.692 179.772 93.4503C180.037 93.0238 179.196 92.7117 178.93 93.1558C170.583 107.253 157.906 118.749 141.755 127.181C141.569 127.277 141.781 127.499 141.943 127.393Z" fill="#2381A0"/>
<path d="M153.619 114.829C166.233 107.82 175.336 97.9625 180.077 86.1842C180.116 86.0604 180.101 85.9262 180.034 85.8089C179.966 85.6916 179.852 85.5999 179.714 85.5523C179.576 85.5048 179.425 85.5049 179.291 85.5528C179.157 85.6007 179.05 85.6926 178.992 85.8101C174.241 97.3982 165.487 107.256 153.406 114.61C153.219 114.711 153.422 114.938 153.619 114.829Z" fill="#2381A0"/>
</svg>
