<svg width="109" height="157" viewBox="0 0 109 157" fill="none" xmlns="http://www.w3.org/2000/svg">
<path d="M98.4547 130.134H98.4143L98.3739 130.183L98.4547 130.134Z" fill="black"/>
<path d="M106.087 117.132C104.612 114.211 101.764 113.01 99.2305 114.031C96.8985 114.972 96.1317 117.468 97.0869 120.752C97.5802 122.454 98.1856 124.166 98.356 125.913C98.5937 128.301 97.1676 129.798 94.7998 129.762C91.997 129.726 89.2032 129.457 86.2479 129.278C88.1762 119.963 86.2838 111.186 84.1178 102.396C83.9429 101.697 83.7724 100.994 83.602 100.29C83.2174 100.829 82.7835 101.332 82.306 101.791L82.8441 104.107C82.9573 104.69 83.0411 105.277 83.0953 105.868V105.797C85.3644 113.682 86.3151 121.688 84.5258 129.775C82.6378 138.288 78.1489 144.789 69.3683 147.535C64.9959 148.906 60.8477 147.983 56.6816 146.496C55.6233 146.115 54.556 145.757 53.4842 145.407C51.2095 145.336 48.9513 144.995 46.7574 144.39C49.3405 145.461 51.9236 146.541 54.5695 147.423C58.1032 148.597 60.8477 150.56 63.4084 153.136C64.847 154.518 66.5164 155.639 68.3413 156.447C70.7495 157.526 73.5613 156.702 74.8483 154.964C76.1354 153.225 75.7856 150.931 73.9514 148.615C73.8506 148.484 73.7412 148.36 73.624 148.243C76.2475 145.797 79.0458 143.651 81.2477 141.003C82.7948 139.126 84.3868 138.194 86.6874 138.225C89.3781 138.264 92.0553 138.331 94.7191 138.427C100.863 138.651 105.93 135.403 107.419 129.914C108.612 125.639 108.136 121.07 106.087 117.132ZM74.355 151.321L73.6151 151.666L72.8213 154.771L71.4266 155.38L70.1351 152.692L68.9243 155.501L62.1976 150.241C65.3367 149.699 68.1664 148.897 71.0096 148.862C72.1038 148.853 73.2204 150.457 74.355 151.321ZM103.253 133.848C102.697 134.377 101.791 134.538 101.047 134.869C99.0646 137.213 96.3111 136.783 93.7415 136.791C90.6382 136.791 87.5349 136.63 84.324 136.532L86.1537 130.985C88.6919 131.142 91.2033 131.491 93.6966 131.384C95.2886 131.317 96.8357 130.591 98.4277 130.152C100.047 128.283 100.553 126.209 99.67 123.816C99.1363 122.356 98.6744 120.859 98.2798 119.336C97.8851 117.813 98.0511 116.482 99.513 115.631C101.096 114.735 102.814 114.936 103.666 116.406C104.823 118.4 105.908 120.64 106.204 122.88C106.738 126.836 106.406 130.815 103.267 133.843L103.253 133.848Z" fill="black"/>
<path d="M53.4887 145.434C49.7531 144.211 45.9816 143.077 42.4882 141.361C39.1293 139.713 36.1247 137.329 32.9004 135.004C35.2999 138.086 38.3262 140.626 41.7797 142.455C43.4569 143.069 45.1161 143.736 46.7709 144.422C48.9648 145.026 51.2229 145.368 53.4977 145.439L53.4887 145.434Z" fill="black"/>
<path d="M32.9093 134.999C32.3038 134.551 31.694 134.103 31.0661 133.696C29.8822 134.829 31.9092 135.582 32.4115 136.42C33.0259 137.437 34.2053 138.127 35.2457 139.081C25.1376 138.942 16.5185 132.62 16.3615 121.903C16.2539 114.797 18.9446 108.803 23.0882 103.086C23.1734 104.658 23.2497 106.038 23.3259 107.418L23.9672 107.53L24.0883 107.396C23.9993 102.23 24.6886 97.0794 26.1332 92.118C24.6975 97.0762 24.0158 102.222 24.1107 107.383C24.4067 107.082 24.7968 106.791 24.8327 106.464C25.5502 99.5061 26.178 92.5392 26.8956 85.5812C27.2947 81.6385 25.2587 78.5695 23.3752 75.4422C18.1373 66.7593 12.8636 58.0988 7.65708 49.398C6.93957 48.1973 6.49561 46.8308 5.92608 45.5404L5.97091 45.5987C5.34308 43.7558 4.71675 41.9114 4.09191 40.0655C1.61647 36.302 1.22633 32.0949 1.89003 27.8252C2.04251 26.8395 3.44167 25.4999 4.4462 25.3207C5.9485 25.0518 7.21761 25.7956 7.71538 27.7983C8.13693 29.5143 9.5899 30.9345 10.4061 32.5967C11.1236 34.017 11.4734 35.5493 10.3209 36.9875C10.7424 36.6022 11.1595 36.2124 11.3613 36.0242C14.3345 40.0879 16.8952 44.3442 20.2002 47.9105C23.9179 51.9428 28.3037 55.3345 32.4294 58.9725C32.703 59.2144 33.2142 59.1875 33.6133 59.2816C33.8151 57.4895 35.6269 58.1212 37.174 57.2565C36.2098 56.8085 35.7166 56.338 35.2278 56.3604C30.5818 56.4008 27.5727 53.4348 25.1063 50.2403C18.2943 41.4006 20.4558 30.4148 29.7791 23.775C32.7388 21.6647 35.6807 19.8412 39.3759 19.5545L39.3041 19.6082C49.9324 16.8259 59.2198 20.5043 61.5203 31.5035C61.915 33.3898 61.4082 35.5045 61.0719 37.4803C60.3454 42.1085 59.6817 46.777 56.6367 50.648C56.4035 50.9437 56.5066 51.5127 56.4528 51.9563C56.8551 51.9421 57.2534 51.8728 57.6367 51.7502C57.8796 51.5987 58.0887 51.3989 58.2511 51.1633L64.6325 54.3533L65.0496 53.5826L59.0897 50.4195C63.3276 40.854 64.0989 30.8584 63.8478 20.7731C63.7446 16.6423 62.8253 12.5383 62.3096 8.41635C62.1183 7.24535 62.0491 6.05767 62.1033 4.8724C62.3903 1.62416 65.2424 0.253174 67.6461 2.38133C69.1394 3.69407 70.6463 5.57133 71.0589 7.43515C72.5298 14.0168 73.5253 20.7014 74.7003 27.3503C74.8438 36.9247 75.4043 46.5171 75.0052 56.0737C74.6733 64.0039 74.8437 71.728 76.8931 79.4431C77.7003 82.4808 78.4642 85.5304 79.1847 88.592C79.7592 88.6973 80.3192 88.8703 80.853 89.1072C80.0069 85.523 79.1832 81.9387 78.382 78.3544C77.4537 74.1698 76.4133 69.909 76.3057 65.6616C76.1487 59.2816 76.8797 52.8837 77.0322 46.4902C77.2968 35.164 76.5523 23.8959 74.2832 12.7757C73.5074 8.98086 72.5342 5.19947 69.7987 2.20212C68.0049 0.248697 65.3142 -0.512959 63.35 0.356227C61.4934 1.18957 60.305 3.34013 60.5786 5.98353C61.027 10.1906 61.7535 14.3707 62.1347 18.5822C62.3858 21.3511 62.2378 24.1603 62.2692 26.9515L61.3723 27.077C60.4754 24.3888 59.4978 21.7005 58.6816 18.9675C57.1659 13.8152 55.5066 13.2506 51.058 16.3018C50.1122 16.9127 48.9991 17.2135 47.874 17.162C38.9813 16.6199 31.0841 18.9093 25.0524 25.6746C22.9044 28.0806 21.1375 30.258 17.5947 30.603C15.2314 30.836 14.6036 32.5698 15.5857 34.7652C16.2284 36.1074 16.9876 37.3907 17.8548 38.6004C19.5813 41.1273 19.9132 42.0682 19.819 45.6659C17.3346 41.889 14.9668 38.0493 12.7649 34.0976C11.3478 31.5663 10.2715 28.8467 8.85443 26.3198C8.37615 25.3714 7.5924 24.6113 6.6293 24.1619C5.66619 23.7125 4.57975 23.5998 3.54481 23.8421C1.37432 24.2902 0.499843 26.0823 0.181444 28.1119C0.0478411 28.9188 -0.0122093 29.736 0.00205382 30.5537C0.212825 37.5923 2.72416 43.9947 6.10547 49.976C11.1371 58.865 16.5319 67.5568 21.9267 76.2307C24.2901 80.0301 25.7699 83.8966 25.0659 88.4396C24.6739 90.8423 24.4462 93.2688 24.3842 95.7023C24.3394 98.2292 23.4201 100.183 21.8684 102.145C17.5454 107.642 14.7336 113.794 14.6933 120.962C14.6068 125.643 16.1101 130.215 18.958 133.933C18.1284 134.036 17.5499 134.081 16.9804 134.184C14.8996 134.551 13.6887 135.828 13.312 137.871C12.9533 139.793 14.0026 141.066 15.5543 141.823C16.894 142.454 18.3026 142.928 19.7518 143.234C23.3394 144.023 26.3574 141.733 29.6804 141.249C32.6088 140.801 35.8556 140.555 38.6135 141.375C39.6853 141.697 40.7437 142.065 41.7975 142.45C38.3408 140.622 35.3114 138.083 32.9093 134.999ZM57.4439 20.5625L52.206 17.834C55.4035 14.7874 56.0268 15.0876 57.4439 20.5625ZM19.4065 37.3414L18.9176 37.5565L16.9265 32.7625L21.0029 31.1048L19.4065 37.3414ZM20.5814 142.226C20.3168 141.231 20.1329 140.609 19.8863 139.596C19.1419 140.398 18.68 140.9 18.1284 141.505L16.061 140.38C16.218 139.565 16.3525 138.857 16.5453 137.867L14.4556 138.315C14.9848 137.522 15.3121 136.455 15.8234 136.357C17.5678 136.025 19.5679 135.488 21.1106 136.039C23.577 136.935 25.752 138.615 28.3351 140.129L20.5814 142.226Z" fill="black"/>
<path d="M82.3059 101.813C82.7834 101.354 83.2173 100.852 83.602 100.313C82.6811 96.5759 81.7842 92.8333 80.9113 89.0848C80.3775 88.8478 79.8175 88.6749 79.243 88.5696C80.279 92.9782 81.2924 97.4003 82.3059 101.813Z" fill="black"/>
<path d="M62.4263 40.1461C61.7471 43.3553 60.7713 46.4945 59.5114 49.5235C61.9554 46.665 63.377 43.1659 62.4263 40.1461Z" fill="#EE9C26"/>
<path d="M83.0055 105.823L83.0952 105.891C83.093 105.867 83.093 105.843 83.0952 105.819L83.0055 105.823Z" fill="#EE9C26"/>
<path d="M22.0972 59.0935C22.0344 59.1204 21.9761 59.1517 21.9133 59.1741L21.8057 59.3713L21.994 59.2682L22.0972 59.0935Z" fill="#EE9C26"/>
<path d="M39.4073 19.6218V19.568H39.3311L39.4073 19.6218Z" fill="#EE9C26"/>
<path d="M83.1088 105.819C83.1066 105.843 83.1066 105.867 83.1088 105.891L83.019 105.823L78.3058 106.133C79.8664 104.667 81.445 104.582 83.019 105.823H83.0998C83.0486 105.257 82.9678 104.693 82.8576 104.134L82.3195 101.818C80.3777 103.7 77.8843 104.954 75.9874 106.845C76.1757 106.845 76.382 106.845 76.6018 106.8C74.7541 110.013 73.2384 112.714 71.6419 115.367C71.4446 115.698 70.8392 115.783 70.4221 115.985C70.31 115.595 69.9736 115.089 70.1216 114.838C70.8541 113.551 71.6015 112.275 72.3639 111.012C71.9918 111.195 71.6804 111.481 71.467 111.836C70.1799 114.408 69.0678 117.069 68.0095 119.744C68.274 119.681 68.5969 119.654 68.8525 119.583C68.9377 119.981 69.2248 120.479 69.0857 120.756C66.3188 126.657 63.6057 132.584 60.6369 138.378C59.8207 139.973 58.2063 141.155 56.9597 142.526L56.0628 143.521L55.7847 143.279C55.0763 144.037 54.3279 144.756 53.5425 145.434C54.6143 145.784 55.6816 146.142 56.7399 146.523C60.8836 148.019 65.0542 148.933 69.4266 147.562C78.2072 144.816 82.6961 138.324 84.5841 129.802C86.3286 121.711 85.3779 113.704 83.1088 105.819ZM63.498 145.273L59.3948 142.002L59.8432 141.384L64.0407 144.56L63.498 145.273ZM76.1264 110.635L81.2656 111.083L81.2252 111.881L76.0546 111.491C76.077 111.209 76.0995 110.935 76.1264 110.635ZM68.3593 140.954L76.3909 142.504C74.8797 144.027 70.4266 143.239 68.3593 140.954ZM70.5163 133.436L81.6692 135.591C79.6198 137.405 72.772 136.222 70.5297 133.431L70.5163 133.436ZM68.3233 124.569L81.741 128.543C79.7454 130.089 71.1127 127.79 68.3233 124.565V124.569ZM74.5344 118.476L84.8038 120.456C81.9517 121.823 76.0143 120.658 74.5344 118.471V118.476Z" fill="#EE9C26"/>
<path d="M29.093 89.636C28.1273 90.308 27.1901 91.0219 26.2812 91.7776C25.8059 96.6746 25.3394 101.567 24.8327 106.464C24.7968 106.791 24.3842 107.082 24.1107 107.383C24.1107 108.942 24.2184 110.519 24.3708 112.06C24.6844 112.312 24.9065 112.66 25.0031 113.05C25.2936 118.78 26.8073 124.382 29.4428 129.48C29.4922 129.58 29.5182 129.69 29.519 129.802C29.9181 130.55 30.3487 131.272 30.7926 131.984C28.4921 122.988 28.2095 113.247 27.927 104.206C27.5997 99.2866 27.7566 94.3807 29.093 89.636Z" fill="#EE9C26"/>
<path d="M79.2207 88.5697C79.1444 88.2516 79.0727 87.9335 78.9964 87.6154C77.5721 86.8202 76.1066 86.1008 74.6061 85.4603C76.6376 93.3144 75.0546 101.482 73.2832 109.466C73.7795 108.651 74.2817 107.84 74.79 107.033C74.9111 106.849 75.355 106.867 75.9739 106.84C77.8708 104.941 80.3641 103.704 82.3059 101.813C81.2924 97.4003 80.2745 92.9783 79.2207 88.5697ZM76.9784 102.011L80.1176 97.7409C80.3642 99.4166 79.5884 100.59 76.9919 102.015L76.9784 102.011Z" fill="#EE9C26"/>
<path d="M29.3531 130.985C28.9046 130.707 28.2409 130.537 28.0615 130.138C26.8956 127.58 25.8193 124.977 24.743 122.387H24.7161C22.0254 123.875 19.689 122.248 17.1911 122.042L17.3256 120.958L24.7161 122.387C24.2363 119.332 23.7026 116.263 23.2856 113.176C23.2183 112.665 23.6488 112.082 23.8506 111.531C23.9991 111.716 24.1578 111.893 24.3259 112.06C24.1735 110.505 24.0883 108.924 24.0658 107.383L23.9448 107.517L23.3035 107.405C23.2272 106.025 23.151 104.645 23.0658 103.073C18.9042 108.803 16.2135 114.798 16.3391 121.89C16.496 132.607 25.1152 138.915 35.2233 139.068C34.1649 138.113 32.981 137.423 32.3891 136.406C31.8823 135.568 29.8553 134.816 31.0437 133.682C31.6715 134.13 32.2814 134.547 32.8868 134.986C31.605 133.357 30.4704 131.618 29.4966 129.789C29.4696 130.19 29.4217 130.589 29.3531 130.985ZM18.097 115.38L22.8864 116.312C22.8506 116.505 22.8102 116.702 22.7698 116.899L17.9804 115.971C18.0163 115.77 18.0611 115.577 18.097 115.38ZM26.1018 133.996L22.0119 133.642L22.0747 132.701L26.1646 132.965C26.1332 133.31 26.1332 133.651 26.1018 133.996ZM19.5993 127.065L26.196 127.777C24.9941 129.193 21.5007 128.92 19.5993 127.065Z" fill="#EE9C26"/>
<path d="M26.8956 85.5812C26.6893 87.6481 26.4845 89.7136 26.2812 91.7776C40.9276 79.609 62.6056 78.4441 78.9964 87.6154C78.3372 84.8779 77.651 82.1404 76.9335 79.4208C74.8841 71.7057 74.6912 63.9816 75.0455 56.0514C75.4446 46.4993 74.8841 36.9069 74.7406 27.328C72.3414 27.1711 69.9377 27.0412 67.5385 26.8486C66.8193 26.7921 66.1511 26.4558 65.6775 25.9122C67.7852 25.957 69.9063 25.8808 71.9916 26.1048C72.9423 26.2034 73.8258 26.8978 74.7406 27.328C73.5657 20.6791 72.5701 13.9945 71.0992 7.41286C70.6866 5.54904 69.1798 3.67177 67.6865 2.35904C65.2604 0.230876 62.4307 1.60186 62.1437 4.8501C62.0895 6.03537 62.1586 7.22305 62.35 8.39405C62.8657 12.516 63.785 16.62 63.8881 20.7508C64.054 27.2742 63.7805 33.7438 62.4262 40.1193C63.3769 43.1615 61.9778 46.6606 59.5113 49.4967C59.3857 49.7968 59.2646 50.097 59.1301 50.3927L65.09 53.5558L64.6729 54.3265L58.2915 51.1365C58.1291 51.3721 57.92 51.5719 57.6771 51.7234C57.4689 51.8098 57.2475 51.8598 57.0224 51.8712C55.9409 52.7391 54.7535 53.4663 53.4886 54.0352L52.8249 54.322L53.076 55.1643C50.8338 55.8767 48.6184 56.6831 46.3493 57.27C45.1166 57.5122 43.8603 57.6129 42.6047 57.5702C42.4362 57.5575 42.2775 57.4862 42.1563 57.3686C40.1798 57.6481 38.1811 57.7381 36.1874 57.6374C34.9407 57.9555 33.7793 57.857 33.6223 59.2817C33.2232 59.1876 32.7254 59.2145 32.4384 58.9726C31.4294 58.0765 30.4114 57.2118 29.3845 56.3381C28.5823 56.0628 27.7963 55.7427 27.0301 55.3793C27.7993 55.743 28.5883 56.0631 29.3934 56.3381L26.8911 54.1965C24.5505 52.2327 22.3227 50.1386 20.2182 47.9241C16.9131 44.3398 14.3524 40.1014 11.3792 36.0377C11.1774 36.2259 10.7604 36.6157 10.3388 37.001L4.09192 40.079L5.95299 45.5226H6.02027C6.25795 45.1328 6.43282 44.6265 6.78261 44.4384C8.39255 43.6319 10.0653 42.9419 11.6842 42.1982C11.8725 43.6991 9.52266 45.1149 6.02027 45.5002L5.97541 45.5719V45.5091C6.47012 46.8296 7.04676 48.118 7.70196 49.3667C12.9085 58.0676 18.1822 66.7281 23.4201 75.4109C25.2587 78.5696 27.2947 81.6385 26.8956 85.5812ZM74.2742 72.7451L70.7404 70.8768L71.0902 70.1555L74.7182 71.8939L74.2742 72.7451ZM74.3908 32.9194C70.9647 33.6855 67.5968 33.9812 64.3949 32.776L64.4756 32.0323L74.3908 32.9194ZM71.2113 20.4327C69.4489 21.8888 66.5116 21.7096 64.4846 20.016L71.2113 20.4327ZM70.7629 14.4291C69.2381 16.5034 67.7448 14.7561 66.386 14.4784H65.7133C65.9343 14.4246 66.165 14.4246 66.386 14.4784L70.7629 14.4291ZM65.2738 5.8313C65.6281 6.4003 66.1349 6.93794 66.2649 7.55623C66.3277 7.86537 65.6909 8.31788 64.9868 9.16914C64.5832 8.03561 64.1931 7.43974 64.2289 6.87074C64.2514 6.49887 64.9106 6.1718 65.2783 5.82681L65.2738 5.8313ZM74.4984 40.5942C73.3549 42.0951 65.5563 41.4231 62.9912 39.1695L74.4984 40.5942ZM63.8612 46.3291L71.9961 47.9017C69.8301 49.1069 68.2112 48.7216 63.8612 46.347V46.3291ZM64.6953 57.382L70.1888 61.8982L69.5162 62.6689L64.0944 58.1034L64.6953 57.382ZM20.2226 49.5549C20.3392 51.5576 17.9804 54.2234 15.4422 54.8193L20.2226 49.5549ZM16.4467 62.2477L21.8281 59.3803L21.9357 59.1831C21.9985 59.1607 22.0568 59.1294 22.1196 59.1025L25.0345 54.0218L25.7475 54.5236C24.9493 56.3426 24.1824 58.1885 22.1196 59.1025L22.0164 59.2772L21.8281 59.3803C20.7115 61.3561 18.5096 62.7137 16.4467 62.2387V62.2477ZM21.3438 69.4745L27.788 59.3355L28.3665 59.7118C26.6982 63.4171 24.6802 66.9073 21.3438 69.4655V69.4745ZM26.9359 78.1126L25.9718 77.79C27.4666 73.5456 28.9614 69.3012 30.4563 65.0569L31.4563 65.4019L26.9359 78.1126Z" fill="#EE9C26"/>
<path d="M65.7179 14.4783H66.3906C66.1696 14.4245 65.9389 14.4245 65.7179 14.4783Z" fill="#EE9C26"/>
<path d="M39.6629 21.5975C39.6629 21.6603 39.6136 21.7185 39.5867 21.7768C39.4208 22.083 39.1595 22.3269 38.8423 22.4712L39.8154 22.749C39.7616 22.3368 39.7123 21.956 39.6629 21.5975Z" fill="#EE9C26"/>
<path d="M39.9723 19.8905C39.9723 19.7427 39.9723 19.5904 39.9723 19.4425L39.4163 19.5769V19.6307C39.6114 19.6946 39.7982 19.7818 39.9723 19.8905Z" fill="#EE9C26"/>
<path d="M61.5608 31.4856C59.3185 20.7059 50.3495 16.9649 39.9769 19.4335C39.9769 19.5903 39.9769 19.7427 39.9769 19.8816C40.9007 20.4864 40.9411 21.5214 40.4253 22.3995C40.0621 23.0088 38.7616 23.4121 37.9544 23.318C36.7974 23.1836 35.7122 22.5115 34.5776 22.0724L34.8287 21.3108C34.591 21.2167 34.3533 21.136 34.1157 21.0644C32.612 21.8457 31.1725 22.7446 29.8106 23.7526C20.4873 30.3924 18.3258 41.3782 25.1377 50.2179C25.8767 51.1927 26.6845 52.1135 27.5549 52.9733C30.6178 46.674 31.0662 38.0896 37.793 36.1138C39.2459 35.5941 40.7976 35.1013 42.394 34.6936C42.4692 34.3374 42.6042 33.9966 42.7932 33.6855C43.1654 33.1165 43.5824 32.5788 44.004 32.0412C43.7349 32.0681 43.4569 32.0815 43.1743 32.0815C43.4569 32.0815 43.7349 32.0815 44.004 32.0412C44.2282 31.7544 44.4524 31.4722 44.6721 31.1854L43.8784 30.9749L41.1115 29.8951C41.9635 28.999 42.7035 27.973 43.7035 27.3368C44.2103 27.0142 45.3538 27.2159 45.892 27.6101C46.2238 27.8521 45.8292 28.9542 45.9816 29.5949C46.1026 30.2509 46.3846 30.8667 46.8023 31.3871C47.5557 31.1496 48.2822 30.8942 49.0042 30.715C48.2822 30.8942 47.5557 31.1631 46.8023 31.3871C46.8404 31.4282 46.8808 31.467 46.9234 31.5036C47.4167 31.9202 48.2687 31.9113 48.9145 32.077C48.8428 32.6236 48.7799 33.1434 48.7172 33.6452C52.0985 33.457 55.4439 33.9543 58.4216 35.6434C59.4202 36.1721 60.3174 36.8728 61.072 37.7133L61.1123 37.44C61.4262 35.4866 61.933 33.3718 61.5608 31.4856ZM30.9631 33.9409C30.268 33.7124 29.259 32.8028 29.2993 32.2742C29.4339 30.5896 31.3129 29.689 34.026 30.2625C34.2547 30.491 35.4521 31.1182 35.5552 31.8889C35.6942 33.112 32.6268 34.492 30.9406 33.9409H30.9631ZM54.4573 25.2266C54.1793 26.7275 52.5155 27.6505 49.9324 27.2024C49.78 26.9291 49.1118 26.275 49.1477 25.6612C49.2239 24.2902 51.215 23.1343 52.7622 23.421C53.6994 23.5913 54.695 23.8108 54.4349 25.2266H54.4573Z" fill="#EE9C26"/>
<path d="M34.8242 21.2929L36.9857 21.947C37.5597 22.1128 38.1427 22.2785 38.8423 22.4712C39.1595 22.3269 39.4208 22.083 39.5867 21.7768C39.6136 21.7185 39.6405 21.6603 39.6629 21.5975C39.5732 20.8807 39.488 20.2535 39.4073 19.6218L39.3221 19.5904H39.3984V19.5366C37.5508 19.6979 35.7529 20.22 34.1067 21.0734C34.3444 21.1451 34.582 21.2257 34.8197 21.3198L34.8242 21.2929Z" fill="#B66B18"/>
<path d="M6.01576 45.5226H5.94849V45.5853L6.01576 45.5226Z" fill="#EE9C26"/>
<path d="M37.192 57.2565C36.8785 57.4269 36.5437 57.5549 36.1965 57.6373C38.1901 57.7381 40.1889 57.6481 42.1653 57.3685C42.0295 57.2611 41.9256 57.1185 41.8649 56.9563C41.8111 56.7682 42.1564 56.2843 42.3941 56.226C45.6767 55.4465 48.9728 54.7162 52.2599 53.9859C52.4124 53.9545 52.6187 54.1785 52.8025 54.286L53.4886 54.0352C54.753 53.469 55.9405 52.7448 57.0225 51.8801C56.8431 51.8801 56.6637 51.9115 56.4933 51.9384C56.5471 51.4903 56.444 50.9258 56.6771 50.6301C59.6638 46.8353 60.3589 42.2743 61.072 37.7357C60.3174 36.8952 59.4202 36.1945 58.4216 35.6658C55.4619 33.9767 52.0985 33.4794 48.7172 33.6675C48.6365 34.3261 48.5513 34.9579 48.4436 35.5851C48.1701 37.1398 46.7485 37.8567 45.448 37.0771C44.3889 36.4593 43.3757 35.7661 42.4165 35.0027C42.3716 34.9624 42.3716 34.8414 42.4165 34.6935C40.82 35.1013 39.2773 35.5896 37.8154 36.1138C31.0886 38.0896 30.6402 46.674 27.5638 52.9778C29.5819 54.9312 32.0483 56.3694 35.2682 56.3425C35.7346 56.3381 36.2279 56.7906 37.192 57.2565Z" fill="#F9D6AF"/>
<path d="M99.4995 115.644C98.0375 116.496 97.8851 117.884 98.2662 119.35C98.4008 119.851 98.5398 120.353 98.6878 120.855C100.966 120.662 103.343 120.6 105.509 120.277C105.005 118.939 104.384 117.648 103.652 116.419C102.818 114.968 101.083 114.73 99.4995 115.644Z" fill="#B66B18"/>
<path d="M101.078 134.923C101.163 134.869 101.235 134.811 101.311 134.757C101.221 134.789 101.133 134.825 101.047 134.865L101.078 134.923Z" fill="#EE9C26"/>
<path d="M99.6789 123.812C100.576 126.227 100.047 128.292 98.3964 130.196C99.4457 130.909 100.639 131.496 101.536 132.374C102.316 133.145 102.262 134.072 101.356 134.757C102.042 134.493 102.809 134.309 103.298 133.861C106.468 130.833 106.782 126.854 106.235 122.911C106.099 122.018 105.871 121.141 105.554 120.295C103.388 120.618 101.011 120.68 98.7327 120.873C98.9793 121.85 99.3022 122.84 99.6789 123.812ZM101.809 125.859L105.397 126.124V126.836L101.024 127.065L101.809 125.859Z" fill="#EE9C26"/>
<path d="M10.3389 37.0099L4.09194 40.0879C1.6165 36.3244 1.22636 32.1174 1.89006 27.8476C2.04254 26.8619 3.4417 25.5223 4.44623 25.3431C5.94853 25.0743 7.21763 25.818 7.71541 27.8207C8.13695 29.5367 9.58993 30.957 10.4061 32.6192C11.1416 34.0171 11.4914 35.5493 10.3389 37.0099Z" fill="#F9D6AF"/>
<path d="M98.4547 130.134C96.8627 130.582 95.2886 131.312 93.6831 131.379C91.1898 131.487 88.6785 131.137 86.1403 130.98L84.3105 136.527C87.5349 136.626 90.6382 136.805 93.728 136.787C96.2976 136.787 99.0511 137.208 101.033 134.865L98.4547 130.134Z" fill="#EE9C26"/>
<path d="M15.8189 136.375C15.3077 136.473 14.9803 137.54 14.4512 138.333L16.5409 137.885C16.3481 138.875 16.2136 139.583 16.0566 140.398L18.124 141.523C18.6756 140.918 19.1375 140.416 19.8819 139.614C20.151 140.627 20.3303 141.249 20.577 142.244L28.3307 140.165C25.7476 138.651 23.5726 136.957 21.1061 136.075C19.5545 135.506 17.5544 136.025 15.8189 136.375Z" fill="#F9D6AF"/>
<path d="M73.6151 151.666L72.8213 154.771L71.4266 155.38L70.1351 152.692L68.9243 155.501L62.1976 150.241C65.3367 149.699 68.1664 148.897 71.0096 148.862C72.1083 148.862 73.2518 150.443 74.3594 151.308L73.6151 151.666Z" fill="#F9D6AF"/>
<path d="M20.9895 31.1049L19.4065 37.3414L18.9176 37.5565L16.9265 32.7625L20.9895 31.1049Z" fill="#F9D6AF"/>
<path d="M57.4439 20.5625L52.206 17.834C55.4035 14.7874 56.0268 15.0876 57.4439 20.5625Z" fill="#F9D6AF"/>
<path d="M101.078 134.923L98.4547 130.134L98.3739 130.196C99.4233 130.909 100.616 131.496 101.513 132.374C102.41 133.252 102.213 134.233 101.078 134.923Z" fill="#B66B18"/>
<path d="M83.0863 105.891V105.819H82.9832L83.0863 105.891Z" fill="black"/>
<path d="M78.2924 106.133L83.0055 105.823C81.4225 104.582 79.853 104.663 78.2924 106.133Z" fill="#B66B18"/>
<path d="M45.9816 29.5949C45.8292 28.9408 46.2238 27.8521 45.892 27.6101C45.3538 27.2159 44.2103 27.0142 43.7035 27.3368C42.7035 27.973 41.9635 29.0214 41.1115 29.8951L43.8784 30.9749L44.6721 31.1854C44.4524 31.4722 44.2237 31.7544 44.004 32.0412C44.9565 31.93 45.8944 31.7182 46.8022 31.4095C46.3812 30.8827 46.0991 30.2588 45.9816 29.5949Z" fill="black"/>
<path d="M46.8022 31.4095C45.8944 31.7182 44.9565 31.93 44.004 32.0412C43.5824 32.5788 43.1654 33.1165 42.7932 33.6855C42.542 34.0663 42.273 34.8817 42.4165 35.0027C43.3757 35.7661 44.3889 36.4593 45.448 37.0771C46.7485 37.8567 48.1701 37.1398 48.4436 35.5851C48.6365 34.483 48.744 33.345 48.892 32.0995C48.2463 31.9337 47.3942 31.9427 46.9009 31.526C46.8661 31.4889 46.8331 31.4499 46.8022 31.4095Z" fill="black"/>
<path d="M56.0089 143.516L56.9058 142.522C58.1525 141.151 59.7669 139.968 60.5831 138.373C63.5518 132.58 66.265 126.652 69.0319 120.752C69.1709 120.465 68.8839 119.977 68.7987 119.578C68.5431 119.65 68.2202 119.677 67.9556 119.739C64.6102 128.198 61.7984 136.805 55.7174 143.275L56.0089 143.516Z" fill="black"/>
<path d="M67.5117 119.977C66.9958 120.882 66.562 121.831 66.2156 122.813C63.5788 129.672 61.3141 136.738 55.399 141.733C55.2894 141.859 55.2078 142.007 55.1599 142.167C55.1119 142.327 55.0987 142.495 55.121 142.661C55.121 142.836 55.3766 142.983 55.7309 143.275C61.8119 136.805 64.6237 128.198 67.9691 119.739C67.7919 119.757 67.6283 119.842 67.5117 119.977Z" fill="black"/>
<path d="M23.891 111.531C23.6892 112.082 23.2586 112.665 23.3259 113.176C23.743 116.263 24.2766 119.332 24.7699 122.405L24.734 122.369C25.8283 124.963 26.8911 127.575 28.057 130.138C28.2364 130.532 28.9046 130.707 29.3486 130.985C29.4243 130.594 29.4797 130.199 29.5145 129.802C26.6803 124.506 24.9852 118.341 24.3663 112.06C24.1982 111.893 24.0395 111.716 23.891 111.531Z" fill="black"/>
<path d="M25.0031 113.05C24.9065 112.66 24.6844 112.312 24.3708 112.06C24.9897 118.333 26.6848 124.506 29.519 129.802C29.5182 129.69 29.4922 129.58 29.4428 129.48C26.8073 124.382 25.2936 118.78 25.0031 113.05Z" fill="black"/>
<path d="M34.0034 30.2625C34.2322 30.491 35.4295 31.1183 35.5327 31.8889C35.6941 33.112 32.6268 34.4919 30.9406 33.9409C30.2455 33.7124 29.2364 32.8029 29.2768 32.2742C29.4113 30.5896 31.2903 29.689 34.0034 30.2625Z" fill="black"/>
<path d="M81.741 128.543L68.3233 124.565C71.1127 127.79 79.7454 130.089 81.741 128.543Z" fill="#B66B18"/>
<path d="M72.3459 111.007C71.5865 112.277 70.8391 113.552 70.1036 114.833C69.9646 115.075 70.292 115.591 70.4041 115.98C70.8211 115.779 71.4265 115.694 71.6238 115.362C73.2203 112.71 74.7361 109.986 76.5837 106.796C76.364 106.823 76.1353 106.836 75.9693 106.84C74.9224 107.855 74.1336 109.106 73.6688 110.487C73.21 110.611 72.7663 110.786 72.3459 111.007Z" fill="black"/>
<path d="M72.3459 111.007C72.7735 110.784 73.2248 110.61 73.6913 110.487C74.1574 109.105 74.9477 107.855 75.9963 106.84C75.3774 106.867 74.9335 106.84 74.8124 107.033C73.9693 108.347 73.1471 109.672 72.3459 111.007Z" fill="black"/>
<path d="M25.9718 77.781C27.4666 73.5366 28.9615 69.2922 30.4563 65.0479L31.4563 65.3928L26.936 78.1035L25.9718 77.781Z" fill="black"/>
<path d="M49.901 27.2024C49.7486 26.9291 49.0804 26.275 49.1163 25.6612C49.1925 24.2902 51.1836 23.1342 52.7308 23.421C53.6905 23.5957 54.686 23.8153 54.4259 25.2131C54.1568 26.7275 52.4931 27.6504 49.901 27.2024Z" fill="black"/>
<path d="M53.076 55.1643C50.8338 55.8767 48.6184 56.6831 46.3493 57.27C45.1166 57.5122 43.8603 57.6129 42.6047 57.5702C42.4404 57.538 42.2869 57.4648 42.1583 57.3575C42.0297 57.2502 41.9304 57.1122 41.8694 56.9564C41.8156 56.7682 42.1609 56.2843 42.3985 56.2261C45.6812 55.4465 48.9773 54.7162 52.2644 53.9859C52.4169 53.9545 52.6232 54.1785 52.807 54.2861L53.076 55.1643Z" fill="black"/>
<path d="M62.9912 39.1874L74.4984 40.6121C73.3549 42.113 65.5563 41.441 62.9912 39.1874Z" fill="#B66B18"/>
<path d="M81.6691 135.577L70.5297 133.431C72.772 136.222 79.6197 137.405 81.6691 135.577Z" fill="#B66B18"/>
<path d="M21.3438 69.4655L27.788 59.3264L28.3665 59.7028C26.6982 63.417 24.6802 66.9073 21.3438 69.4655Z" fill="#B66B18"/>
<path d="M84.8039 120.452L74.5344 118.471C76.0143 120.658 81.9517 121.823 84.8039 120.452Z" fill="#B66B18"/>
<path d="M74.3908 32.9194C70.9647 33.6855 67.5968 33.9812 64.3949 32.776L64.4756 32.0323L74.3908 32.9194Z" fill="#B66B18"/>
<path d="M74.7406 27.328C72.3369 27.1711 69.9289 27.0412 67.5297 26.8485C66.8105 26.792 66.1422 26.4558 65.6686 25.9121C67.7763 25.9569 69.8974 25.8807 71.9827 26.1048C72.9334 26.2033 73.8214 26.9023 74.7407 27.3324L74.7406 27.328Z" fill="#B66B18"/>
<path d="M76.3909 142.499L68.3593 140.954C70.4266 143.239 74.8797 144.027 76.3909 142.499Z" fill="#B66B18"/>
<path d="M39.3221 19.5904C40.2684 19.8861 41.6451 20.3475 40.4119 22.4085C40.0486 23.0178 38.7481 23.4211 37.9409 23.327C36.7839 23.1926 35.6987 22.5205 34.5641 22.0814C34.6538 21.8171 34.739 21.5528 34.8242 21.2929L36.9857 21.947L39.8154 22.749C39.6495 21.481 39.5239 20.5089 39.3939 19.5366L39.3221 19.5904Z" fill="black"/>
<path d="M63.8612 46.347L71.9961 47.9195C69.8301 49.1068 68.2112 48.7216 63.8612 46.347Z" fill="#B66B18"/>
<path d="M69.5162 62.6867L64.0945 58.1212L64.6954 57.3999L70.1889 61.9161L69.5162 62.6867Z" fill="black"/>
<path d="M17.1912 122.038C19.689 122.244 22.0344 123.866 24.7072 122.387C22.2407 121.903 19.7802 121.425 17.3257 120.953L17.1912 122.038Z" fill="#B66B18"/>
<path d="M26.1961 127.782L19.5993 127.065C21.5007 128.92 24.9942 129.193 26.1961 127.782Z" fill="#B66B18"/>
<path d="M64.4756 20.0115L71.2023 20.4281C69.4489 21.8843 66.4936 21.705 64.4756 20.0115Z" fill="#B66B18"/>
<path d="M15.4421 54.8102L20.2226 49.5549C20.3392 51.5487 17.9759 54.2144 15.4421 54.8102Z" fill="#B66B18"/>
<path d="M5.95297 45.5987C6.21756 45.2044 6.40141 44.6265 6.76017 44.4428C8.37011 43.6363 10.0428 42.9464 11.6617 42.2026C11.8501 43.717 9.46431 45.1462 5.9126 45.5181L5.95297 45.5987Z" fill="#B66B18"/>
<path d="M22.7699 116.894L17.9805 115.967C18.0163 115.77 18.0566 115.577 18.097 115.38L22.8864 116.312L22.7699 116.894Z" fill="#B66B18"/>
<path d="M21.9313 59.1741C20.864 61.2664 18.5769 62.7315 16.4423 62.2386L22.012 59.2682L21.9313 59.1741Z" fill="#B66B18"/>
<path d="M21.9313 59.1741L22.012 59.2682C23.0225 57.5179 24.0285 55.7661 25.03 54.0128L25.7431 54.5146C24.9224 56.3874 24.1376 58.2914 21.9313 59.1741Z" fill="#B66B18"/>
<path d="M59.3948 142.002L63.498 145.273L64.0631 144.56L59.8656 141.384L59.3948 142.002Z" fill="black"/>
<path d="M76.0546 111.491L81.2252 111.881L81.2656 111.083L76.1264 110.635C76.0995 110.935 76.077 111.209 76.0546 111.491Z" fill="#B66B18"/>
<path d="M22.0119 133.642L26.1018 133.996C26.1242 133.651 26.1422 133.31 26.1646 132.965L22.0747 132.701L22.0119 133.642Z" fill="#B66B18"/>
<path d="M80.1175 97.7454L76.9784 102.015C79.5884 100.59 80.3642 99.4165 80.1175 97.7454Z" fill="black"/>
<path d="M64.9914 9.16464C64.5878 8.03111 64.1976 7.43523 64.2335 6.86622C64.2604 6.49884 64.9106 6.1718 65.2783 5.82681C65.6326 6.39582 66.1394 6.93343 66.2695 7.55172C66.3323 7.86086 65.6955 8.33578 64.9914 9.16464Z" fill="#B66B18"/>
<path d="M65.7179 14.4783L70.7674 14.4246C68.9871 16.8484 67.2471 14.0527 65.7179 14.4783Z" fill="#B66B18"/>
<path d="M74.2742 72.7451L70.7404 70.8768L71.0902 70.1555L74.7182 71.8939L74.2742 72.7451Z" fill="black"/>
<path d="M101.024 127.065L101.769 125.846L105.356 126.11C105.356 126.348 105.356 126.585 105.356 126.823L101.024 127.065Z" fill="#B66B18"/>
<path d="M74.6061 85.4603C60.3006 48.7798 49.901 56.2754 42.6003 57.5702C35.2995 58.8651 29.093 89.636 29.093 89.636C27.7476 94.3807 27.5997 99.2956 27.927 104.215C28.2095 113.247 28.4921 122.988 30.7926 131.993C31.4435 133.035 32.1501 134.042 32.9093 135.008C36.1336 137.334 39.1382 139.717 42.4971 141.366C45.9905 143.082 49.7621 144.215 53.4977 145.439C54.283 144.761 55.0315 144.041 55.7398 143.284C55.3856 142.992 55.1524 142.836 55.13 142.67C55.1076 142.504 55.1209 142.336 55.1688 142.176C55.2168 142.016 55.2983 141.868 55.408 141.742C61.323 136.747 63.5877 129.681 66.2246 122.822C66.571 121.84 67.0047 120.891 67.5206 119.986C67.6351 119.853 67.7951 119.769 67.969 119.748C69.0274 117.06 70.1395 114.412 71.4266 111.841C71.64 111.485 71.9514 111.199 72.3235 111.016C72.6329 110.501 72.9468 109.986 73.2607 109.475C73.754 107.235 74.2339 104.963 74.6061 102.696C77.4717 99.5958 78.0323 94.2373 74.6061 85.4603Z" fill="#F9D6AF"/>
<path d="M38.1023 22.292L39.6629 21.5975L39.8154 22.7445L38.1023 22.292Z" fill="#B66B18"/>
</svg>
