<svg xmlns="http://www.w3.org/2000/svg" xmlns:xlink="http://www.w3.org/1999/xlink" viewBox="0 0 373.51 373.51"><defs><style>.cls-1,.cls-2{fill:#fff;}.cls-1,.cls-6{stroke:#5996bf;stroke-miterlimit:10;}.cls-3{clip-path:url(#clip-path);}.cls-4{opacity:0.2;}.cls-5{opacity:0.1;}.cls-6{fill:none;}.cls-7{fill:#fdd699;}.cls-8{fill:#fcac9c;}.cls-9{fill:#fcdba6;}.cls-10{fill:#b9a492;}.cls-11{fill:#fcdba7;}.cls-12{fill:#fcecd3;}.cls-13{fill:#fcf4e6;}.cls-14{fill:#fcdfb2;}.cls-15{fill:#fcdfb1;}.cls-16{fill:#fce3bb;}.cls-17{fill:#fce2b9;}.cls-18{fill:#fcebd1;}.cls-19{fill:#fcf1df;}.cls-20{fill:#fce4bf;}.cls-21{fill:#fde9ca;}.cls-22{fill:#fbe5c1;}.cls-23{fill:#fcebcf;}.cls-24{fill:#fce1b6;}.cls-25{fill:#fcf1e0;}.cls-26{fill:#fcdca9;}.cls-27{fill:#fce6c3;}.cls-28{fill:#fcebd0;}.cls-29{fill:#fcf6ed;}.cls-30{fill:#fcddac;}.cls-31{fill:#fcf1de;}.cls-32{fill:#fde9cc;}.cls-33{fill:#fddeaf;}.cls-34{fill:#fde9cb;}.cls-35{fill:#fcf2e0;}.cls-36{fill:#fdf0dc;}.cls-37{fill:#fce1b8;}.cls-38{fill:#af9783;}.cls-39{fill:#dcbe95;}.cls-40{fill:#fbfaf6;}.cls-41{fill:#fddaa5;}.cls-42{fill:#cfb594;}.cls-43{fill:#f5d198;}.cls-44{fill:#fddaa3;}.cls-45{fill:#fdf7ef;}.cls-46{fill:#e7c797;}.cls-47{fill:#fcd9a1;}.cls-48{fill:#fcd599;}.cls-49{fill:#e3c497;}.cls-50{fill:#d3b895;}.cls-51{fill:#bea794;}.cls-52{fill:#e6c697;}.cls-53{fill:#dbbe95;}.cls-54{fill:#9e8678;}.cls-55{fill:#9d8778;}.cls-56{fill:#9f8778;}.cls-57{fill:#a08778;}.cls-58{fill:#fcd59a;}.cls-59{fill:#fcd79b;}.cls-60{fill:#fdd69a;}.cls-61{fill:#fcd0a4;}.cls-62{fill:#fcd3a5;}.cls-63{fill:#fcd8a6;}.cls-64{fill:#fccea3;}.cls-65{fill:#fdd6a5;}.cls-66{fill:#fcd4a5;}.cls-67{fill:#db9f8f;}.cls-68{fill:#fccfa4;}.cls-69{fill:#fcd5a5;}.cls-70{fill:#bf9483;}.cls-71{fill:#fcbca0;}.cls-72{fill:#c59686;}.cls-73{fill:#fdc5a2;}.cls-74{fill:#fbf3e4;}.cls-75{fill:#e7cba0;}.cls-76{fill:#b39d8a;}.cls-77{fill:#ebc998;}.cls-78{fill:#efcd98;}.cls-79{fill:#e9c796;}.cls-80{fill:#f4d099;}.cls-81{fill:#eecb97;}.cls-82{fill:#f5aa9a;}.cls-83{fill:#f8ab9b;}.cls-84{fill:#ba9281;}.cls-85{fill:#bf9484;}.cls-86{fill:#b08e7f;}.cls-87{fill:#d49c8c;}.cls-88{fill:#c09584;}</style><clipPath id="clip-path" transform="translate(30.89 49.08)"><circle class="cls-1" cx="146.13" cy="146.13" r="145.63" transform="translate(-60.53 146.13) rotate(-45)"/></clipPath></defs><g id="Layer_2" data-name="Layer 2"><g id="Layer_1-2" data-name="Layer 1"><circle class="cls-2" cx="146.13" cy="146.13" r="145.63" transform="translate(-29.64 195.2) rotate(-45)"/><g class="cls-3"><g class="cls-4"><g class="cls-5"><rect class="cls-1" x="0.52" y="0.5" width="18.62" height="18.62"/><rect class="cls-1" x="19.15" y="19.12" width="18.62" height="18.62"/><rect class="cls-1" x="56.39" y="56.37" width="18.62" height="18.62"/><rect class="cls-1" x="75.02" y="75" width="18.62" height="18.62"/><rect class="cls-1" x="37.77" y="37.75" width="18.62" height="18.62"/></g><g class="cls-5"><rect class="cls-1" x="93.64" y="93.62" width="18.62" height="18.62"/><rect class="cls-1" x="112.27" y="112.25" width="18.62" height="18.62"/><rect class="cls-1" x="149.52" y="149.5" width="18.62" height="18.62"/><rect class="cls-1" x="168.14" y="168.12" width="18.62" height="18.62"/><rect class="cls-1" x="130.89" y="130.87" width="18.62" height="18.62"/></g><g class="cls-5"><rect class="cls-1" x="186.77" y="186.74" width="18.62" height="18.62"/><rect class="cls-1" x="205.39" y="205.37" width="18.62" height="18.62"/><rect class="cls-1" x="242.64" y="242.62" width="18.62" height="18.62"/><rect class="cls-1" x="261.26" y="261.24" width="18.62" height="18.62"/><rect class="cls-1" x="224.01" y="223.99" width="18.62" height="18.62"/></g><g class="cls-5"><rect class="cls-1" x="279.89" y="279.87" width="18.62" height="18.62"/><rect class="cls-1" x="298.51" y="298.49" width="18.62" height="18.62"/><rect class="cls-1" x="335.76" y="335.74" width="18.62" height="18.62"/><rect class="cls-1" x="354.39" y="354.36" width="18.62" height="18.62"/><rect class="cls-1" x="317.14" y="317.12" width="18.62" height="18.62"/></g><g class="cls-5"><rect class="cls-1" x="0.6" y="37.67" width="18.62" height="18.62"/><rect class="cls-1" x="37.85" y="74.91" width="18.62" height="18.62"/><rect class="cls-1" x="56.48" y="93.54" width="18.62" height="18.62"/><rect class="cls-1" x="19.23" y="56.29" width="18.62" height="18.62"/></g><g class="cls-5"><rect class="cls-1" x="75.1" y="112.16" width="18.62" height="18.62"/><rect class="cls-1" x="93.73" y="130.79" width="18.62" height="18.62"/><rect class="cls-1" x="130.98" y="168.04" width="18.62" height="18.62"/><rect class="cls-1" x="149.6" y="186.66" width="18.62" height="18.62"/><rect class="cls-1" x="112.35" y="149.41" width="18.62" height="18.62"/></g><g class="cls-5"><rect class="cls-1" x="168.22" y="205.29" width="18.62" height="18.62"/><rect class="cls-1" x="186.85" y="223.91" width="18.62" height="18.62"/><rect class="cls-1" x="224.1" y="261.16" width="18.62" height="18.62"/><rect class="cls-1" x="242.72" y="279.78" width="18.62" height="18.62"/><rect class="cls-1" x="205.47" y="242.53" width="18.62" height="18.62"/></g><g class="cls-5"><rect class="cls-1" x="261.35" y="298.41" width="18.62" height="18.62"/><rect class="cls-1" x="279.97" y="317.03" width="18.62" height="18.62"/><rect class="cls-1" x="317.22" y="354.28" width="18.62" height="18.62"/><rect class="cls-1" x="298.6" y="335.66" width="18.62" height="18.62"/></g><g class="cls-5"><rect class="cls-1" x="19.19" y="93.58" width="18.62" height="18.62"/><rect class="cls-1" x="37.81" y="112.21" width="18.62" height="18.62"/><rect class="cls-1" x="0.56" y="74.96" width="18.62" height="18.62"/></g><g class="cls-5"><rect class="cls-1" x="56.44" y="130.83" width="18.62" height="18.62"/><rect class="cls-1" x="75.06" y="149.45" width="18.62" height="18.62"/><rect class="cls-1" x="112.31" y="186.7" width="18.62" height="18.62"/><rect class="cls-1" x="130.93" y="205.33" width="18.62" height="18.62"/><rect class="cls-1" x="93.68" y="168.08" width="18.62" height="18.62"/></g><g class="cls-5"><rect class="cls-1" x="149.56" y="223.95" width="18.62" height="18.62"/><rect class="cls-1" x="168.18" y="242.58" width="18.62" height="18.62"/><rect class="cls-1" x="205.43" y="279.83" width="18.62" height="18.62"/><rect class="cls-1" x="224.06" y="298.45" width="18.62" height="18.62"/><rect class="cls-1" x="186.81" y="261.2" width="18.62" height="18.62"/></g><g class="cls-5"><rect class="cls-1" x="242.68" y="317.07" width="18.62" height="18.62"/><rect class="cls-1" x="261.31" y="335.7" width="18.62" height="18.62"/><rect class="cls-1" x="279.93" y="354.32" width="18.62" height="18.62"/></g><g class="cls-5"><rect class="cls-1" x="0.65" y="112.12" width="18.62" height="18.62"/><rect class="cls-1" x="19.27" y="130.75" width="18.62" height="18.62"/></g><g class="cls-5"><rect class="cls-1" x="37.9" y="149.37" width="18.62" height="18.62"/><rect class="cls-1" x="56.52" y="168" width="18.62" height="18.62"/><rect class="cls-1" x="93.77" y="205.24" width="18.62" height="18.62"/><rect class="cls-1" x="112.39" y="223.87" width="18.62" height="18.62"/><rect class="cls-1" x="75.14" y="186.62" width="18.62" height="18.62"/></g><g class="cls-5"><rect class="cls-1" x="131.02" y="242.49" width="18.62" height="18.62"/><rect class="cls-1" x="149.64" y="261.12" width="18.62" height="18.62"/><rect class="cls-1" x="186.89" y="298.37" width="18.62" height="18.62"/><rect class="cls-1" x="205.51" y="316.99" width="18.62" height="18.62"/><rect class="cls-1" x="168.27" y="279.74" width="18.62" height="18.62"/></g><g class="cls-5"><rect class="cls-1" x="224.14" y="335.62" width="18.62" height="18.62"/><rect class="cls-1" x="242.76" y="354.24" width="18.62" height="18.62"/></g><g class="cls-5"><rect class="cls-1" x="0.6" y="149.41" width="18.62" height="18.62"/></g><g class="cls-5"><rect class="cls-1" x="19.23" y="168.04" width="18.62" height="18.62"/><rect class="cls-1" x="37.85" y="186.66" width="18.62" height="18.62"/><rect class="cls-1" x="75.1" y="223.91" width="18.62" height="18.62"/><rect class="cls-1" x="93.73" y="242.53" width="18.62" height="18.62"/><rect class="cls-1" x="56.48" y="205.29" width="18.62" height="18.62"/></g><g class="cls-5"><rect class="cls-1" x="112.35" y="261.16" width="18.62" height="18.62"/><rect class="cls-1" x="130.98" y="279.78" width="18.62" height="18.62"/><rect class="cls-1" x="168.22" y="317.03" width="18.62" height="18.62"/><rect class="cls-1" x="186.85" y="335.66" width="18.62" height="18.62"/><rect class="cls-1" x="149.6" y="298.41" width="18.62" height="18.62"/></g><g class="cls-5"><rect class="cls-1" x="205.47" y="354.28" width="18.62" height="18.62"/></g><g class="cls-5"><rect class="cls-1" x="0.69" y="186.58" width="18.62" height="18.62"/><rect class="cls-1" x="19.31" y="205.2" width="18.62" height="18.62"/><rect class="cls-1" x="56.56" y="242.45" width="18.62" height="18.62"/><rect class="cls-1" x="75.19" y="261.08" width="18.62" height="18.62"/><rect class="cls-1" x="37.94" y="223.83" width="18.62" height="18.62"/></g><g class="cls-5"><rect class="cls-1" x="93.81" y="279.7" width="18.62" height="18.62"/><rect class="cls-1" x="112.43" y="298.32" width="18.62" height="18.62"/><rect class="cls-1" x="149.68" y="335.57" width="18.62" height="18.62"/><rect class="cls-1" x="168.31" y="354.2" width="18.62" height="18.62"/><rect class="cls-1" x="131.06" y="316.95" width="18.62" height="18.62"/></g><g class="cls-5"><rect class="cls-1" x="223.76" y="0.76" width="18.62" height="18.62"/><rect class="cls-1" x="261.01" y="38.01" width="18.62" height="18.62"/><rect class="cls-1" x="279.63" y="56.63" width="18.62" height="18.62"/><rect class="cls-1" x="242.38" y="19.38" width="18.62" height="18.62"/></g><g class="cls-5"><rect class="cls-1" x="298.26" y="75.25" width="18.62" height="18.62"/><rect class="cls-1" x="316.88" y="93.88" width="18.62" height="18.62"/><rect class="cls-1" x="354.13" y="131.13" width="18.62" height="18.62"/><rect class="cls-1" x="335.5" y="112.5" width="18.62" height="18.62"/></g><g class="cls-5"><rect class="cls-1" x="186.59" y="0.67" width="18.62" height="18.62"/><rect class="cls-1" x="205.22" y="19.3" width="18.62" height="18.62"/><rect class="cls-1" x="242.47" y="56.55" width="18.62" height="18.62"/><rect class="cls-1" x="261.09" y="75.17" width="18.62" height="18.62"/><rect class="cls-1" x="223.84" y="37.92" width="18.62" height="18.62"/></g><g class="cls-5"><rect class="cls-1" x="279.71" y="93.8" width="18.62" height="18.62"/><rect class="cls-1" x="298.34" y="112.42" width="18.62" height="18.62"/><rect class="cls-1" x="335.59" y="149.67" width="18.62" height="18.62"/><rect class="cls-1" x="354.21" y="168.29" width="18.62" height="18.62"/><rect class="cls-1" x="316.96" y="131.04" width="18.62" height="18.62"/></g><g class="cls-5"><rect class="cls-1" x="149.3" y="0.72" width="18.62" height="18.62"/></g><g class="cls-5"><rect class="cls-1" x="167.93" y="19.34" width="18.62" height="18.62"/><rect class="cls-1" x="186.55" y="37.96" width="18.62" height="18.62"/><rect class="cls-1" x="223.8" y="75.21" width="18.62" height="18.62"/><rect class="cls-1" x="242.42" y="93.84" width="18.62" height="18.62"/><rect class="cls-1" x="205.17" y="56.59" width="18.62" height="18.62"/></g><g class="cls-5"><rect class="cls-1" x="261.05" y="112.46" width="18.62" height="18.62"/><rect class="cls-1" x="279.67" y="131.09" width="18.62" height="18.62"/><rect class="cls-1" x="316.92" y="168.34" width="18.62" height="18.62"/><rect class="cls-1" x="335.55" y="186.96" width="18.62" height="18.62"/><rect class="cls-1" x="298.3" y="149.71" width="18.62" height="18.62"/></g><g class="cls-5"><rect class="cls-1" x="354.17" y="205.58" width="18.62" height="18.62"/></g><g class="cls-5"><rect class="cls-1" x="335.49" y="0.77" width="18.62" height="18.62"/></g><g class="cls-5"><rect class="cls-1" x="354.12" y="19.39" width="18.62" height="18.62"/></g><g class="cls-5"><rect class="cls-1" x="298.33" y="0.68" width="18.62" height="18.62"/><rect class="cls-1" x="316.95" y="19.31" width="18.62" height="18.62"/></g><g class="cls-5"><rect class="cls-1" x="335.58" y="37.93" width="18.62" height="18.62"/><rect class="cls-1" x="354.2" y="56.56" width="18.62" height="18.62"/></g><g class="cls-5"><rect class="cls-1" x="279.66" y="19.35" width="18.62" height="18.62"/><rect class="cls-1" x="298.29" y="37.97" width="18.62" height="18.62"/><rect class="cls-1" x="261.04" y="0.73" width="18.62" height="18.62"/></g><g class="cls-5"><rect class="cls-1" x="316.91" y="56.6" width="18.62" height="18.62"/><rect class="cls-1" x="335.54" y="75.22" width="18.62" height="18.62"/><rect class="cls-1" x="354.16" y="93.85" width="18.62" height="18.62"/></g><g class="cls-5"><rect class="cls-1" x="112.14" y="0.63" width="18.62" height="18.62"/><rect class="cls-1" x="130.76" y="19.26" width="18.62" height="18.62"/></g><g class="cls-5"><rect class="cls-1" x="149.39" y="37.88" width="18.62" height="18.62"/><rect class="cls-1" x="168.01" y="56.5" width="18.62" height="18.62"/><rect class="cls-1" x="205.26" y="93.75" width="18.62" height="18.62"/><rect class="cls-1" x="223.88" y="112.38" width="18.62" height="18.62"/><rect class="cls-1" x="186.63" y="75.13" width="18.62" height="18.62"/></g><g class="cls-5"><rect class="cls-1" x="242.51" y="131" width="18.62" height="18.62"/><rect class="cls-1" x="261.13" y="149.63" width="18.62" height="18.62"/><rect class="cls-1" x="298.38" y="186.88" width="18.62" height="18.62"/><rect class="cls-1" x="317.01" y="205.5" width="18.62" height="18.62"/><rect class="cls-1" x="279.76" y="168.25" width="18.62" height="18.62"/></g><g class="cls-5"><rect class="cls-1" x="335.63" y="224.12" width="18.62" height="18.62"/><rect class="cls-1" x="354.25" y="242.75" width="18.62" height="18.62"/></g><g class="cls-5"><rect class="cls-1" x="93.47" y="19.3" width="18.62" height="18.62"/><rect class="cls-1" x="112.09" y="37.92" width="18.62" height="18.62"/><rect class="cls-1" x="74.85" y="0.67" width="18.62" height="18.62"/></g><g class="cls-5"><rect class="cls-1" x="130.72" y="56.55" width="18.62" height="18.62"/><rect class="cls-1" x="149.34" y="75.17" width="18.62" height="18.62"/><rect class="cls-1" x="186.59" y="112.42" width="18.62" height="18.62"/><rect class="cls-1" x="205.22" y="131.04" width="18.62" height="18.62"/><rect class="cls-1" x="167.97" y="93.8" width="18.62" height="18.62"/></g><g class="cls-5"><rect class="cls-1" x="223.84" y="149.67" width="18.62" height="18.62"/><rect class="cls-1" x="242.47" y="168.29" width="18.62" height="18.62"/><rect class="cls-1" x="279.71" y="205.54" width="18.62" height="18.62"/><rect class="cls-1" x="298.34" y="224.17" width="18.62" height="18.62"/><rect class="cls-1" x="261.09" y="186.92" width="18.62" height="18.62"/></g><g class="cls-5"><rect class="cls-1" x="316.96" y="242.79" width="18.62" height="18.62"/><rect class="cls-1" x="335.59" y="261.42" width="18.62" height="18.62"/><rect class="cls-1" x="354.21" y="280.04" width="18.62" height="18.62"/></g><g class="cls-5"><rect class="cls-1" x="37.68" y="0.59" width="18.62" height="18.62"/><rect class="cls-1" x="74.93" y="37.84" width="18.62" height="18.62"/><rect class="cls-1" x="93.55" y="56.46" width="18.62" height="18.62"/><rect class="cls-1" x="56.3" y="19.21" width="18.62" height="18.62"/></g><g class="cls-5"><rect class="cls-1" x="112.18" y="75.09" width="18.62" height="18.62"/><rect class="cls-1" x="130.8" y="93.71" width="18.62" height="18.62"/><rect class="cls-1" x="168.05" y="130.96" width="18.62" height="18.62"/><rect class="cls-1" x="186.68" y="149.59" width="18.62" height="18.62"/><rect class="cls-1" x="149.43" y="112.34" width="18.62" height="18.62"/></g><g class="cls-5"><rect class="cls-1" x="205.3" y="168.21" width="18.62" height="18.62"/><rect class="cls-1" x="223.92" y="186.83" width="18.62" height="18.62"/><rect class="cls-1" x="261.17" y="224.08" width="18.62" height="18.62"/><rect class="cls-1" x="279.8" y="242.71" width="18.62" height="18.62"/><rect class="cls-1" x="242.55" y="205.46" width="18.62" height="18.62"/></g><g class="cls-5"><rect class="cls-1" x="298.42" y="261.33" width="18.62" height="18.62"/><rect class="cls-1" x="317.05" y="279.96" width="18.62" height="18.62"/><rect class="cls-1" x="354.3" y="317.21" width="18.62" height="18.62"/><rect class="cls-1" x="335.67" y="298.58" width="18.62" height="18.62"/></g><g class="cls-5"><rect class="cls-1" x="0.5" y="224.01" width="18.62" height="18.62"/><rect class="cls-1" x="37.75" y="261.26" width="18.62" height="18.62"/><rect class="cls-1" x="56.37" y="279.89" width="18.62" height="18.62"/><rect class="cls-1" x="19.12" y="242.64" width="18.62" height="18.62"/></g><g class="cls-5"><rect class="cls-1" x="75" y="298.51" width="18.62" height="18.62"/><rect class="cls-1" x="93.62" y="317.14" width="18.62" height="18.62"/><rect class="cls-1" x="130.87" y="354.39" width="18.62" height="18.62"/><rect class="cls-1" x="112.25" y="335.76" width="18.62" height="18.62"/></g><g class="cls-5"><rect class="cls-1" x="19.21" y="279.8" width="18.62" height="18.62"/><rect class="cls-1" x="37.83" y="298.43" width="18.62" height="18.62"/><rect class="cls-1" x="0.58" y="261.18" width="18.62" height="18.62"/></g><g class="cls-5"><rect class="cls-1" x="56.46" y="317.05" width="18.62" height="18.62"/><rect class="cls-1" x="75.08" y="335.68" width="18.62" height="18.62"/><rect class="cls-1" x="93.71" y="354.3" width="18.62" height="18.62"/></g><g class="cls-5"><rect class="cls-1" x="0.59" y="298.42" width="18.62" height="18.62"/><rect class="cls-1" x="19.22" y="317.04" width="18.62" height="18.62"/></g><g class="cls-5"><rect class="cls-1" x="37.84" y="335.67" width="18.62" height="18.62"/><rect class="cls-1" x="56.47" y="354.29" width="18.62" height="18.62"/></g><g class="cls-5"><rect class="cls-1" x="0.68" y="335.58" width="18.62" height="18.62"/></g><g class="cls-5"><rect class="cls-1" x="19.3" y="354.21" width="18.62" height="18.62"/></g></g></g><circle class="cls-6" cx="146.13" cy="146.13" r="145.63" transform="translate(-29.64 195.2) rotate(-45)"/><path class="cls-7" d="M199.22,187.45q0,16.38,0,32.78c0,2.56,0,2.56-2.64,2.58h-.68c-1,0-1.42-.93-2.39-1.1-4.92-.89-9.89.08-14.82-.57a44.43,44.43,0,0,0-10.05-.05v-6.69c.55.84,0,1.64,1,2.38-.47-1.28-.28-2.26-.58-3.24a16.81,16.81,0,0,1-.11-8.1c.17.25.34.51.52.76l.16-.42c.47-.45.87-.91,0-1.36-.21-.33-.43-.36-.67,0-.74-1.18-.17-2.48-.34-3.71.51.1,1,.2,1.35-.36.75-.29.68-.79.34-1.35-.12-.57-.23-1.14-.35-1.71v-.64c-.2-.8.56-1.84-.58-2.43-.61-1.4-1.32-2.79-.8-4.4l.24-.22a.19.19,0,0,1,.15,0c.33.39-.37.94.27,1.33a10.9,10.9,0,0,0,.73-4.85c0-.49,0-1-.64-1-.29-1.5,1-2.77.65-4.3-.68-3.33,0-6.77-.7-10.1-.57-2.71-1.07-5.39-3-7.59-1.45-1.63-2.95-3.22-4.37-4.89a16,16,0,0,0-5.59-4,23.48,23.48,0,0,0-8.06-1.75,21,21,0,0,0-6.72,0,20,20,0,0,0-13.57,7,29.15,29.15,0,0,0-5.45,10.12c-.31,1-1.22,1.4-1.37,2.43a34.63,34.63,0,0,0,.05,7.82c.35,4.24-.16,8.44.16,12.65.3,3.82-.39,7.63-.33,11.46,0,.8-.12,1.69.39,2.29a2.3,2.3,0,0,1,.25,2.34,18.42,18.42,0,0,0-.29,4.05c-.09,2.83-.2,5.67-.3,8.5h-3c.58.79,1.37.54,1.91,1.07a58,58,0,0,0-14-1.33c.38.49,1.29,0,1.34.8a.41.41,0,0,1-.43.43c-.53,0-1.35.36-1.51-.18-.21-.75-.82-.74-1.18-.8-1.73-.31-3.48-.49-5.24-.65a3.27,3.27,0,0,0-1.92.39c-1.06.57-1.92.33-2.85-.8-1.68-2,0-4.56-1.39-6.51a.18.18,0,0,1,0-.16c1.66-1.84,1.16-3.77.36-5.78-.15-.4-.68-1,0-1.5.58,0,.06,1,.94.82a7.66,7.66,0,0,0-.06-2.75,15.66,15.66,0,0,1-.56-3.6c-.13-.85.76-.87.71-1.59-.18-2.25.29-4.5,0-6.79a13.33,13.33,0,0,1-.32-3.87c.55-2.52-.32-5.09.5-7.54.07-.23.08-.5-.18-.57-1.38-.41-.86-1.49-.49-2.09s.17-1.24.18-1.89c0-.85-1-1.77,0-2.53a1.8,1.8,0,0,0,.58-1.66,30.65,30.65,0,0,0-1.09-8.42,3.69,3.69,0,0,1-.19-1.48,17.67,17.67,0,0,0,0-7.17,1.52,1.52,0,0,1,0-1.14c.62-.78.65-.74.61-1.31a2.92,2.92,0,0,1,.3-1.63,6.81,6.81,0,0,0,.67-3.25c-.72.13-.39,1.09-1.07,1.2a1.33,1.33,0,0,1-.22-1.44c1-2.53-.35-5.32.89-7.81.06-.12,0-.42,0-.46-1-.49-.48-1.39-.51-2.09a29.81,29.81,0,0,0-.7-5.33h23.79c-.75.91.1,1.52.55,2.29l-1.56.15c.54.24,1.12.14,1.59.33.94.37,1.3.06,1.53-.85.29-1.12-1-.13-1-1a4.54,4.54,0,0,0,4-1h12.23c.1.31.35.76-.12.86-1.62.34-3.24,1.18-4.91,0-.56-.4-1.75-.37-1.91-.07-.93,1.74-2.6,1-4.2,1.45.58.18,1,.44,1.29.38a17.51,17.51,0,0,1,6.21.1c.72.11,1.87.31,2.13-.05,1-1.35,2.32-.61,3.47-.87,1.57-.36,2.48,1.05,4,1,2.7,0,5.37-.19,8.05-.42,4-.35,8,.73,12,0a3.2,3.2,0,0,1,1.34.08,53,53,0,0,0,7.62.84c3.58.31,7.15-.56,10.72-.95.76-.09,1.28-.74,2.22-.59a34.19,34.19,0,0,0,9.08.54,26.75,26.75,0,0,1,5.05-.23c1,.09,2.11-.16,3,.64,0,1.36,0,2.71,0,4.07-.5.45-.32,1-.32,1.58q0,4.2,0,8.4c0,.54-.18,1.14.32,1.59,0,.33,0,.67,0,1v3.08c0,2.28,0,4.55,0,6.82,0,1.36.75,2.44,1,3.69-.57.65-.31,1.35-.26,2.2a1.62,1.62,0,0,0,.61-1.51,2.6,2.6,0,0,1,1,2.67c-.59-.17,0-.77-.46-1-1.7.85-1.64.86-1.75,2.91-.3,5.6-.06,11.19-.12,16.79C199.23,187,199.23,187.2,199.22,187.45ZM170,209.87c-1,.54-.48,1-.07,1.78.46-.78-.11-1.27.06-1.79.47-.37.39-.76,0-1.12a.35.35,0,0,0-.57.06C169.13,209.38,169.79,209.5,170,209.87Zm-54.62-76c-1.22-.35-2.23.07-2.67-1-.13-.34-.82.1-1.21.27s-.37.54-.23.87a.76.76,0,0,0,1,.33A16.1,16.1,0,0,1,115.36,133.92Zm-18.84-1.71a2.35,2.35,0,0,0,2.41.21A2.5,2.5,0,0,0,96.52,132.21Zm10,2.71c.62.69,1.26.47,1.9.32C107.88,135.06,107.4,134.51,106.55,134.92Zm19-2.17c-.64,0-1.15-.27-1.4.38C124.77,133.47,125.11,133.21,125.6,132.75Z" transform="translate(30.89 49.08)"/><path class="cls-8" d="M116.92,131.67H90.39l-28.54,0,2-2.36c3-.34,4.92-2.38,6.81-4.32,2.33-2.38,4.71-4.68,7.23-6.85A29.46,29.46,0,0,0,82,114.31a24.39,24.39,0,0,1,3.76-4.21,15.18,15.18,0,0,0,4-3.94c.61.47,1,0,1.37-.35,1.46-.8,1.92-2.49,3.07-3.53,4.51-4.07,8.07-9,12.49-13.2.69-.65.94-1.76,2-2,1.49-.39,2-1.54,2.67-2.79s1.33-2.82,2.62-3.06a4.83,4.83,0,0,0,3.93-3.58,4,4,0,0,1,2.85-3.2,14.06,14.06,0,0,0,5.77-5,1.09,1.09,0,0,0,1.08-.66c.16-.55-.48-.47-.74-.71.32-.73.82-1.87,1.42-1.74,1.95.41,2.74-.94,3.75-2S135,63.17,134.8,61c0-.21.41-.53.69-.69,1.48-.89,2.83-1.94,4.21-3,2-1.51,2.41-4.21,4.62-5.37.34-.19-.33-1.16.68-.78s2.3.2,2.76,1.51c-.36-.07-.62-.56-1.26.18a7.3,7.3,0,0,0,1.84,1.44c2.55.86,3.76,3.17,4.85,5.13,1.34,2.4,3.72,3.45,5.41,5.35,1.91,2.15,4.3,3.94,6,6.36.24.33.44.36.91.38,2.27.06,2,3.23,4.17,3.61a.84.84,0,0,1,.3,1.38,1.56,1.56,0,0,0-1.29-.67c.27.71.79.66,1.3.66a30.08,30.08,0,0,0,6.9,5.67,7.05,7.05,0,0,1,1.81,1.68,54.28,54.28,0,0,0,4,4.16c.33.32,1.29.39,1.24.73-.26,1.67,1.19,1.94,2,2.73a3.48,3.48,0,0,0,1.7,3.07c.09.24.18.49.29.72,0,0,.24,0,.25,0a1.22,1.22,0,0,0-.53-1.06c.13-.33-.58-.93.33-1,.79,1,1.52,2,2.38,2.84.56.57.46,1.67,1.52,1.81s1.35.87,1.56,1.76c.14.58.09,1.55,1.21.9.3-.18.49.12.7.31,2.24,2.1,4.23,4.51,7.08,5.88a3.08,3.08,0,0,1,1.21,1.14,20,20,0,0,0,5.63,5.85c1.3.84,2.82,1.32,4,2.25-.08.6-1.08.23-.76.66,1.3,1.76,2.24,3.83,4.3,5a28.57,28.57,0,0,1,5.46,3.35c.21.19.73.24.4.74a.65.65,0,0,1-1,.18,8.2,8.2,0,0,0-3-2.36c.74,1.28,2.28,1.75,3,3.06,1.78.7,2.74,2.39,4.41,3.45-3.39.18-6.69-.76-9.51,1.46a.63.63,0,0,1-.31.12c-.49,0-1,.7-1.46-.11a1,1,0,0,1,.41-1.54c.33,0,.71-.06.92.26.95,1.37,1.09,0,1.51-.58h-2.43l-2,.05c.38,1.38-.57.69-1,.6-.94-.17-1.89-.8-2.69.32a.39.39,0,0,1-.69-.07c-.32-.91-.86-.44-1.35-.24-.33.13-.66.27-.93,0-.69-.85-1.64-.61-2.52-.61a11.14,11.14,0,0,0-4.49,1.38c-.57.25-1.4.77-1.68-.1-.49-1.5-1.16-1-2-.44-.66.43-1.35.8-2,1.2h-2.71c.94-1,2.49-.94,3.48-1.85-2.35-2-4.64-.9-6.93,0,1.2,0,2.38-.37,3.79-.17a9.45,9.45,0,0,1-4.19,1.36c-1.23.2-1.2-.47-.88-1.15-2.69-.58-5.34.73-8.1-.78.28.89.44,1.41.6,1.93-.09.71-.62.67-1.13.67h-3.31c-.43-.7.73-.76.6-1.19-1.88-1.23-3.69.58-5.53-.14a.85.85,0,0,0-.75.25,3.62,3.62,0,0,1-3.71,1,29.41,29.41,0,0,0-5.54-.28,7.5,7.5,0,0,1-3.43-.68c-.56-.26-1.13-.66-1.7,0a5.54,5.54,0,0,0-2.34.26c.45.52.91.39,1.32.41s1,.08,1.38-.34.76-.06,1,.35l-.68.35h-8.84a74.61,74.61,0,0,0-10.14-.34c-.59,0-1.25-.22-1.76.32H116.92Zm48.3-15-.37.38c-.41-.74-.86-1.46-1.22-2.23-1.08-2.31-5.9-4.35-8.2-3.24a20,20,0,0,0-5.43,3.66c-1.25,1.24-1.05,2.68-.4,4.07a2.59,2.59,0,0,0,3,1.4,2.52,2.52,0,0,1,2.4.72c.85.68,1.84,1.46,2.91.87,1.26-.69,2.07-.21,3,.47,1.42,1,3.56,1,4.56.18,1.76-1.54,1.86-2.21.74-4.57a.66.66,0,0,1,.67-.33,1.54,1.54,0,0,0,2.49-.78c.4-1.07,1.35-2.46.07-3.41-1-.75-2.31-.19-3.25.57A2.48,2.48,0,0,0,165.22,116.69ZM120.64,91.56c.07.9,1,1,1.45,1.54a1.84,1.84,0,0,0,2.21.32,1.91,1.91,0,0,0,1.15-1.91c0-.84,0-1.7,0-2.54a3,3,0,0,0-2.1-2.43c-1.09-.44-1.89.3-2.58,1.14a3.21,3.21,0,0,0-.69,2.83C119.57,91.24,120.43,91.21,120.64,91.56Zm19.73-1a7.83,7.83,0,0,0-7-2c-1.91.28-4.06.31-5.45,1.82a41.38,41.38,0,0,0-3.72,5.15,8.86,8.86,0,0,0-1,2.26,4.51,4.51,0,0,0,1.72,5.07,3.58,3.58,0,0,0,4.29.17,3.38,3.38,0,0,1,3.69-.31,3.67,3.67,0,0,0,4.59-1.42c.44-.59.65-.61,1.29-.41,2,.62,4,1.11,5.95-.12,1-.63,2.48-2.65,2.42-3.79a4.18,4.18,0,0,0-3-3.75,4.07,4.07,0,0,1-2.7-2A.92.92,0,0,0,140.37,90.55Zm-13.27-6.8a3.85,3.85,0,0,0,.33,1.69c.93,2.32,3.21,2.9,4.74,1.25,1-1.11.62-2.3.39-3.5-.29-1.51-1.86-2.94-3.11-2.86S127.12,82,127.1,83.75Zm21.1,5.76c0-2.26-.84-3.69-2.15-3.63-1.71.07-3.61,2.35-3.64,4.37,0,1.67.94,2.25,3.8,2.3C147.58,92.57,148.19,91.64,148.2,89.51Zm-6.78-5.4a6.5,6.5,0,0,0-.71-2.94,1.68,1.68,0,0,0-2.14-.88c-1.57.46-2.8,4.37-1.79,5.7.35.45.31,1.27,1.1,1.35A2.92,2.92,0,0,0,141.42,84.11Zm19.17,23.18c-.18-.94-.49-2-1.91-2.14a2.5,2.5,0,0,0-2.32,2.43c-.08,1.7.66,2.92,1.8,3C159.58,110.62,160.53,109.43,160.59,107.29Zm-6.6,2c-.11-.91-.46-1.94-1.8-2a3,3,0,0,0-2.51,2.36c0,1.48,1.2,3.2,2.25,3.18S154,111,154,109.32Zm8.63,1.41c0,1.23.69,1.9,2,1.89s2.16-1.38,2.23-3.3a1.43,1.43,0,0,0-1.3-1.67C164.42,107.55,162.65,109.5,162.62,110.73Zm35.43,18.71c.92.76,1.57.1,2.56.06C199.58,128.61,198.86,129.15,198.05,129.44ZM118.49,76.57l.22.38c.48-.23,1.18-.18,1.25-1.3Zm32.73,53.58c-.61,0-1,0-1.34.43C150.38,130.62,150.82,130.8,151.22,130.15Z" transform="translate(30.89 49.08)"/><path class="cls-9" d="M156,130.65a7.5,7.5,0,0,0,3.43.68,29.41,29.41,0,0,1,5.54.28,3.62,3.62,0,0,0,3.71-1,.85.85,0,0,1,.75-.25c1.84.72,3.65-1.09,5.53.14.13.43-1,.49-.6,1.19.85.94,2.1.69,3.15,1,1.43.41,1.76-.07,1.29-1.67-.16-.52-.32-1-.6-1.93,2.76,1.51,5.41.2,8.1.78-.32.68-.35,1.35.88,1.15a9.45,9.45,0,0,0,4.19-1.36c-1.41-.2-2.59.22-3.79.17,2.29-.89,4.58-2,6.93,0-1,.91-2.54.84-3.48,1.85a3.33,3.33,0,0,0-1.84.9,4.83,4.83,0,0,0,4.55-.89c.68-.4,1.37-.77,2-1.2.83-.54,1.5-1.06,2,.44.28.87,1.11.35,1.68.1a11.14,11.14,0,0,1,4.49-1.38c.88,0,1.83-.24,2.52.61.27.32.6.18.93,0,.49-.2,1-.67,1.35.24a.39.39,0,0,0,.69.07c.8-1.12,1.75-.49,2.69-.32.45.09,1.4.78,1-.6l2-.05V130a1,1,0,0,0-.41,1.54c.44.81,1,.1,1.46.11a.63.63,0,0,0,.31-.12c2.82-2.22,6.12-1.28,9.51-1.46-1.67-1.06-2.63-2.75-4.41-3.45,0-.24,0-.47,0-.7a.65.65,0,0,0,1-.18c.33-.5-.19-.55-.4-.74a28.57,28.57,0,0,0-5.46-3.35c-2.06-1.13-3-3.2-4.3-5-.32-.43.68-.06.76-.66-1.17-.93-2.69-1.41-4-2.25a20,20,0,0,1-5.63-5.85,3.08,3.08,0,0,0-1.21-1.14c-2.85-1.37-4.84-3.78-7.08-5.88-.21-.19-.4-.49-.7-.31-1.12.65-1.07-.32-1.21-.9-.21-.89-.56-1.61-1.56-1.76s-1-1.24-1.52-1.81c-.86-.88-1.59-1.88-2.38-2.84-.29-1-1.23-1.29-2-1.7-.82-.79-2.27-1.06-2-2.73.05-.34-.91-.41-1.24-.73a54.28,54.28,0,0,1-4-4.16,7.05,7.05,0,0,0-1.81-1.68,30.08,30.08,0,0,1-6.9-5.67h0a.84.84,0,0,0-.3-1.38c-2.18-.38-1.9-3.55-4.17-3.61-.47,0-.67,0-.91-.38-1.69-2.42-4.08-4.21-6-6.36-1.69-1.9-4.07-2.95-5.41-5.35-1.09-2-2.3-4.27-4.85-5.13a7.3,7.3,0,0,1-1.84-1.44c.64-.74.9-.25,1.26-.18-.46-1.31-1.76-1.13-2.76-1.51s-.34.59-.68.78c-2.21,1.16-2.6,3.86-4.62,5.37-1.38,1-2.73,2.07-4.21,3-.28.16-.71.48-.69.69.22,2.13-1.86,2.22-2.84,3.27s-1.8,2.43-3.75,2c-.6-.13-1.1,1-1.42,1.74-.41.39-.81.77-.34,1.37a14.06,14.06,0,0,1-5.77,5,4,4,0,0,0-2.85,3.2,4.83,4.83,0,0,1-3.93,3.58c-1.29.24-2,1.85-2.62,3.06s-1.18,2.4-2.67,2.79c-1,.28-1.27,1.39-2,2-4.42,4.15-8,9.13-12.49,13.2-1.15,1-1.61,2.73-3.07,3.53-.63-.56-1,0-1.37.35a15.18,15.18,0,0,1-4,3.94A24.39,24.39,0,0,0,82,114.31a29.46,29.46,0,0,1-4.07,3.81c-2.52,2.17-4.9,4.47-7.23,6.85-1.89,1.94-3.85,4-6.81,4.32H62.16c.67-.85,1.11-1.54,1.66-2.11,2.94-3,5.61-6.32,8.94-9s5.95-6,8.92-9a90.54,90.54,0,0,0,6.65-6.9,49.73,49.73,0,0,1,7.23-7.12A52.19,52.19,0,0,0,102,88.81a10.93,10.93,0,0,1,4.14-3.06c1.25-.5,1.56-1.81,2.3-2.71a81.33,81.33,0,0,1,8.86-9c.77-.68,1.63-1.19,1.7-2.54,0-.73,1.1-1.6,2-1.94a4.64,4.64,0,0,0,2.44-2.45c.36,0,.75,0,1-.32l.63-1.07c.26-.21.14-.8.74-.66a1.18,1.18,0,0,0,1.32-.93c-.3-1.32.83-1.71,1.46-2.31,3.47-3.33,7.06-6.53,10.48-9.9,1.58-1.55,3.59-2.56,5-4.29.19-.22.38-.5.83-.17s1.16.81,1.7-.11c.18-.31.53,0,.74.12,1.69,1.11,3.57,2,4.81,3.65,2.33,3.22,5.61,5.57,8,8.72a62.3,62.3,0,0,0,5.49,5.65c2.24,2.25,5.13,4,6.75,6.71,1.71,2.9,5,4.13,6.65,7.06.7,1.23,2.23,2.06,3.52,2.86a7.07,7.07,0,0,1,2.18,2.06c1.66,2.55,4.29,3.94,6.55,5.77.79.63,2.06.94,1.65,2.42,0,.11.3.47.4.45,1.84-.44,1.67,1,1.88,2,.27,1.29,1.33,2,2,3.06,1.21,2,3.15,3.1,4.8,4.57a14,14,0,0,1,1.44,1.65c2,2.54,4.77,4.34,7.15,6.52a30.16,30.16,0,0,1,3.52,3.63c.87,1.11,1.63,2.28,3.33,2.19a1.92,1.92,0,0,1,1.66,1,34.16,34.16,0,0,0,5.53,6.84c2.74,2.71,5.2,5.69,8,8.31a3.89,3.89,0,0,1,.48.74c-2.69-.11-5.14.17-7.61-.24a28.36,28.36,0,0,0-9.19.27c-.46.07-.94.45-1.1-.4,0-.25-.44-.28-.75-.26-4.1.3-8.17,1.21-12.32.78-.64-.06-.6.39-.6.77a48.13,48.13,0,0,0,.13,5.24,14.87,14.87,0,0,1-.68,6.54c-.51,1.61-.84,3.55.6,5.3.66.81-.05,2.27-.11,3.44a16,16,0,0,1-.25,1.67c-.12.67.25,1.42-.31,2-.19-.67,0-1.42-1-1.78-.5-.17.09-1.24,0-1.91,1.26-.92.64-2,.34-3.13a3.64,3.64,0,0,0-.94-2.83c0,.46-.09.82-.12,1.18-.5-.45-.32-1.05-.32-1.59q0-4.2,0-8.4c0-.54-.18-1.13.32-1.58a4.44,4.44,0,0,1,.26,2.47c-.2.66-.4,1.31.2,1.87.16.15.39.32.59.14a2.34,2.34,0,0,0,.64-2,3.64,3.64,0,0,0-.11-.66c-.38-1.69-1-3.32-.89-5.1a.66.66,0,0,0-.67-.79c-.86-.8-2-.55-3-.64a26.75,26.75,0,0,0-5.05.23,34.19,34.19,0,0,1-9.08-.54c-.94-.15-1.46.5-2.22.59-3.57.39-7.14,1.26-10.72.95a53,53,0,0,1-7.62-.84,3.2,3.2,0,0,0-1.34-.08c-4,.72-8-.36-12,0-2.68.23-5.35.39-8.05.42-1.5,0-2.41-1.39-4-1-1.15.26-2.46-.48-3.47.87-.26.36-1.41.16-2.13.05a17.51,17.51,0,0,0-6.21-.1c-.32.06-.71-.2-1.29-.38,1.6-.44,3.27.29,4.2-1.45.16-.3,1.35-.33,1.91.07,1.67,1.19,3.29.35,4.91,0,.47-.1.22-.55.12-.86.51-.54,1.17-.32,1.76-.32a74.61,74.61,0,0,1,10.14.34c-1.25,1.2-2.68.07-4,.33-.42.08-1-.1-1,.59s.45.73.93.76a7.8,7.8,0,0,0,3-.34,7.09,7.09,0,0,1,4.1-.53,7.9,7.9,0,0,0,5.82-.81l.68-.35A.68.68,0,0,0,156,130.65Zm57.51-15.37a2.19,2.19,0,0,0,1.55,1.4A2.55,2.55,0,0,0,213.54,115.28Z" transform="translate(30.89 49.08)"/><path class="cls-9" d="M90.39,131.69h2.74a29.81,29.81,0,0,1,.7,5.33c0,.7-.5,1.6.51,2.09.08,0,.11.34,0,.46-1.24,2.49.07,5.28-.89,7.81a1.33,1.33,0,0,0,.22,1.44c.68-.11.35-1.07,1.07-1.2a6.81,6.81,0,0,1-.67,3.25,2.92,2.92,0,0,0-.3,1.63c0,.57,0,.53-.61,1.31a1.52,1.52,0,0,0,0,1.14,17.67,17.67,0,0,1,0,7.17,3.69,3.69,0,0,0,.19,1.48A30.65,30.65,0,0,1,94.48,172a1.8,1.8,0,0,1-.58,1.66c-.94.76,0,1.68,0,2.53,0,.65.25,1.18-.18,1.89s-.89,1.68.49,2.09c.26.07.25.34.18.57-.82,2.45,0,5-.5,7.54a13.33,13.33,0,0,0,.32,3.87c.25,2.29-.22,4.54,0,6.79,0,.72-.84.74-.71,1.59a15.66,15.66,0,0,0,.56,3.6,7.66,7.66,0,0,1,.06,2.75c-.88.14-.36-.8-.94-.82-.65.49-.12,1.1,0,1.5.8,2,1.3,3.94-.36,5.78a.18.18,0,0,0,0,.16c1.37,2-.29,4.49,1.39,6.51.93,1.13,1.79,1.37,2.85.8a3.27,3.27,0,0,1,1.92-.39c1.76.16,3.51.34,5.24.65.36.06,1,0,1.18.8.16.54,1,.17,1.51.18a.41.41,0,0,0,.43-.43c0-.83-1-.31-1.34-.8a58,58,0,0,1,14,1.33c-.54-.53-1.33-.28-1.91-1.07h3v.32c-.26.57-.67,1.14,0,1.72a2,2,0,0,1,.3,1.36c-1.23-.12-2.48-.15-3.7-.37-1.07-.2-1.8.62-2.73.71-2.15.19-4.36-1.05-6.46.27-.51-1.77-2.4.84-2.94-.92a1.15,1.15,0,0,0-.81,0c-3,1.33-6.09.5-9.14.38-1.53-.05-3.06-.08-4.58-.06-.86,0-1.19-.26-1.2-1.17a57.35,57.35,0,0,1,.64-10.63c.06-.38.27-.49.51-.72a1.19,1.19,0,0,0,.34-1.38c-2.36-5.06-2.35-5.06-1.57-10.68a8.77,8.77,0,0,0,0-1.7,41,41,0,0,1,.48-9.89c.23-1.26-.48-2.67-.42-4,.13-2.75-.3-5.52,0-8.24.44-3.75-.33-7.5.37-11.25a12.1,12.1,0,0,0-.45-4,12.43,12.43,0,0,1,0-4.51c.53-2.85-.6-5.58-.76-8.4-.05-.77-.21-1.44.44-2,.38-.33.46-.7,0-1-.86-.52-.61-1.14-.18-1.72,1.7-2.27,1-5,1.52-7.51.13-.59,0-.62-1.89-.9.66-.79,1.73-1.29,1.53-2.5C90.38,132.13,90.38,131.91,90.39,131.69Z" transform="translate(30.89 49.08)"/><path class="cls-10" d="M121.3,224.49a2,2,0,0,0-.3-1.36c.26-.57.62-1.14,0-1.72v-.32c.1-2.83.21-5.67.3-8.5a18.42,18.42,0,0,1,.29-4.05,2.3,2.3,0,0,0-.25-2.34c-.51-.6-.37-1.49-.39-2.29-.06-3.83.63-7.64.33-11.46-.32-4.21.19-8.41-.16-12.65a34.63,34.63,0,0,1-.05-7.82c.15-1,1.06-1.47,1.37-2.43a29.15,29.15,0,0,1,5.45-10.12,20,20,0,0,1,13.57-7,21,21,0,0,1,6.72,0c-.12.22-.23.45-.34.67-.61,1.16-1.62.82-2.61.78a15.31,15.31,0,0,0-8.61,1.94c-.62-.5-1.24-.7-1.85,0-.3.33-.58.68-.87,1-.68,1.25-2,1.67-3.13,2.2-.24.1-.6-.07-.76.24-1,2-2.75,3.47-3.76,5.33-2.24,4.13-2.24,8.9-3,13.43-.56,3.42.91,6.74.34,10.3-.4,2.47.09,5.23.14,7.85,0,1.36.64,2.84-.09,4.13-.88,1.54.45,3.13-.44,4.84-.43.81-.09,2.67.12,4,.41,2.6.11,5.2.24,7.79a32.51,32.51,0,0,1-.26,4.37,1.74,1.74,0,0,0,2,2.07,23.13,23.13,0,0,1,5.64-.21,27.68,27.68,0,0,0,4.45-.09,108.94,108.94,0,0,1,11-.46c3.49.07,7-.09,10.48.28,2,.21,3.94.16,5.91.21a11.31,11.31,0,0,1,4.08.71l0,.36c.08.19.17.38.26.56-4.76.59-9.53-.05-14.3.1-5.3.16-10.62.46-15.9.09-3.37-.23-6.71.16-10.06-.09a8.91,8.91,0,0,0-2.66.23C123.3,225.29,122.14,225.47,121.3,224.49Z" transform="translate(30.89 49.08)"/><path class="cls-11" d="M167.21,224.74l-.27-.56c1.33.17,1.88-.4,1.68-1.73a8.7,8.7,0,0,1,0-1.35,44.43,44.43,0,0,1,10.05.05c4.93.65,9.9-.32,14.82.57,1,.17,1.43,1.11,2.39,1.1l1.06,1.32a15.79,15.79,0,0,1-6,.23,2.89,2.89,0,0,0-2.22.25c-.82.53-1.88.21-2.82.12-6-.59-12.06-.19-18.09-.19A2.66,2.66,0,0,0,167.21,224.74Z" transform="translate(30.89 49.08)"/><path class="cls-12" d="M90.39,131.69c0,.22,0,.44,0,.66-2.83-.77-5.71-.16-8.56-.36-.5,1.42-1.63,1.52-2.87,1.36a5.47,5.47,0,0,1-.76-.2c.59-.75,1.58-.22,2.07-1.07-.51,0-1-.08-1.42-.08-5.08,0-10.16,0-15.24,0-.59,0-1.26.25-1.75-.33Z" transform="translate(30.89 49.08)"/><path class="cls-13" d="M200.26,151.68c.3,1.09.92,2.21-.34,3.13l-.68-.69V151c1.47.41-.23,1.49.48,2.07C200.26,152.79,200.2,152.21,200.26,151.68Z" transform="translate(30.89 49.08)"/><path class="cls-14" d="M201.24,173.15c-1.16.26-.9-.69-1-1.25s0-.86.76-.47c.36.2,0-.58.41-.71.58.77.08,1.61.14,2.41Z" transform="translate(30.89 49.08)"/><path class="cls-15" d="M201,158.5c.56-.61.19-1.36.31-2l.75-1a15.35,15.35,0,0,0-.39,5.18A2.54,2.54,0,0,1,201,158.5Z" transform="translate(30.89 49.08)"/><path class="cls-16" d="M200.55,205.79c.11,1,.23,2.07.4,3.58-1.07-1.39-.57-2.54-.69-3.58h.29Z" transform="translate(30.89 49.08)"/><path class="cls-17" d="M199.22,187.45c0-.25,0-.49,0-.73.6-.43.08-1.39,1.11-1.85C199.66,185.76,200.55,187,199.22,187.45Z" transform="translate(30.89 49.08)"/><path class="cls-18" d="M201.25,175.51a1.71,1.71,0,0,1-.31,2.19c.07-.94-.31-1.78.31-2.52Z" transform="translate(30.89 49.08)"/><path class="cls-19" d="M200.57,165.32a1.62,1.62,0,0,1-.61,1.51c-.05-.85-.31-1.55.26-2.2C200.25,164.9,200.28,165.17,200.57,165.32Z" transform="translate(30.89 49.08)"/><path class="cls-20" d="M201.38,198.17c-.64-.62-.41-1.09.05-1.74A2,2,0,0,1,201.38,198.17Z" transform="translate(30.89 49.08)"/><path class="cls-21" d="M201.92,195.27c-1.14.11-.8-.72-.63-1.18.23-.63.39.2.64.13Z" transform="translate(30.89 49.08)"/><path class="cls-22" d="M124.42,66.75c-.25.36-.64.3-1,.32,0-.7.44-1.06,1-1.37C124.51,66.05,124,66.41,124.42,66.75Z" transform="translate(30.89 49.08)"/><path class="cls-23" d="M87,134.36c-.59,0-1.09.59-1.74.26l1.07-.9Z" transform="translate(30.89 49.08)"/><path class="cls-15" d="M200.47,159.86c-.29-.42-.72-.86-.17-1.5C200.8,158.83,200.44,159.38,200.47,159.86Z" transform="translate(30.89 49.08)"/><path class="cls-24" d="M200.55,205.79h-.29v-2.32h.29Z" transform="translate(30.89 49.08)"/><path class="cls-25" d="M201.6,173.48c1.19.28.42,1.5,1,2.08l-.28,0c-.69-.38-.07-1.31-.72-1.7Z" transform="translate(30.89 49.08)"/><path class="cls-26" d="M202.31,175.53l.28,0c0,.62.2,1.29-.44,1.83C202.2,176.77,202.25,176.15,202.31,175.53Z" transform="translate(30.89 49.08)"/><path class="cls-27" d="M201.25,185.73a3.76,3.76,0,0,1,.74,2.14,2.45,2.45,0,0,1-.73-2.15Z" transform="translate(30.89 49.08)"/><path class="cls-28" d="M201.6,173.48v.35c-.09.56.25,1.22-.34,1.68v-.33c0-.67,0-1.35,0-2l.33,0Z" transform="translate(30.89 49.08)"/><path class="cls-29" d="M124.42,66.75c-.43-.34.09-.7,0-1,.2-.38.44,0,.65,0Z" transform="translate(30.89 49.08)"/><path class="cls-17" d="M201.92,195.27v-1.05c.73.35.29.9.23,1.38Z" transform="translate(30.89 49.08)"/><path class="cls-30" d="M200,177.13a1.75,1.75,0,0,1,.09,1.5A1.37,1.37,0,0,1,200,177.13Z" transform="translate(30.89 49.08)"/><path class="cls-31" d="M71.92,133.21a1.79,1.79,0,0,1,1.26-.35C72.88,133.46,72.46,133.43,71.92,133.21Z" transform="translate(30.89 49.08)"/><path class="cls-26" d="M75.68,133.17a2,2,0,0,1,1.57,0A1.53,1.53,0,0,1,75.68,133.17Z" transform="translate(30.89 49.08)"/><path class="cls-32" d="M201.26,185.72c-1-.17-.17-.67-.51-1.41a1.69,1.69,0,0,1,.5,1.42Z" transform="translate(30.89 49.08)"/><path class="cls-33" d="M200.44,187.91a5.6,5.6,0,0,1,.35.67c.05.15,0,.36-.19.27a.89.89,0,0,1-.34-.49C200.23,188.28,200.34,188.14,200.44,187.91Z" transform="translate(30.89 49.08)"/><path class="cls-34" d="M201.46,183.21c-.07-.2-.18-.34-.15-.45s.19-.2.29-.3c.07.11.21.24.19.33S201.62,183,201.46,183.21Z" transform="translate(30.89 49.08)"/><path class="cls-35" d="M202.43,181.76a.56.56,0,0,1-.37-.87C202.38,181.11,202.6,181.34,202.43,181.76Z" transform="translate(30.89 49.08)"/><path class="cls-21" d="M199.69,204.26c-.14-.57-.26-.91.06-1.23A1.15,1.15,0,0,1,199.69,204.26Z" transform="translate(30.89 49.08)"/><path class="cls-15" d="M201.43,164.9c.2.26.6.57.29.82s-.38-.25-.41-.51C201.3,165.12,201.38,165,201.43,164.9Z" transform="translate(30.89 49.08)"/><path class="cls-36" d="M200.15,211.22c.48.56.55.84.48,1.16,0,0-.24,0-.25,0C200.31,212.12,200.27,211.87,200.15,211.22Z" transform="translate(30.89 49.08)"/><path class="cls-37" d="M87,134.36l-.67-.64c.42,0,.91-.12,1.1.37C87.54,134.32,87.21,134.35,87,134.36Z" transform="translate(30.89 49.08)"/><path class="cls-38" d="M166.92,223.82a11.31,11.31,0,0,0-4.08-.71c-2-.05-3.93,0-5.91-.21-3.47-.37-7-.21-10.48-.28a108.94,108.94,0,0,0-11,.46,27.68,27.68,0,0,1-4.45.09,23.13,23.13,0,0,0-5.64.21,1.74,1.74,0,0,1-2-2.07,32.51,32.51,0,0,0,.26-4.37c-.13-2.59.17-5.19-.24-7.79-.21-1.34-.55-3.2-.12-4,.89-1.71-.44-3.3.44-4.84.73-1.29.11-2.77.09-4.13-.05-2.62-.54-5.38-.14-7.85.57-3.56-.9-6.88-.34-10.3.73-4.53.73-9.3,3-13.43,1-1.86,2.76-3.36,3.76-5.33.16-.31.52-.14.76-.24,1.18-.53,2.45-1,3.13-2.2a5.83,5.83,0,0,0,2.72-1,15.31,15.31,0,0,1,8.61-1.94c1,0,2,.38,2.61-.78.37.78.61,1.63,1.85,1.18a2.59,2.59,0,0,1,1.58.25c2.61,1,5.2,2,7.79,3h0c-.28.63-1,0-1.37.44.29.81,1.11,1.91,1.62,1.44,1-.92,1.16.4,1.72.33-.33,1.57,1.42,1.89,1.81,3s.84.54,1.35.21l.31.35c.78.84-.21,2,.68,2.94a8.64,8.64,0,0,1,2.44,8.17,1.75,1.75,0,0,0,.7,1.77c.08.23.17.47.25.71-.56.61-.21,1.35-.31,2q0,3.07,0,6.15c.17,1.58-.35,3.21.3,4.76-.52,1.61.19,3,.8,4.4-.44.61-1.39,1-.79,2-.51.58-.29,1.29-.29,2q0,12,0,24C168.29,223.14,168.31,224,166.92,223.82Z" transform="translate(30.89 49.08)"/><path class="cls-10" d="M164.22,162.93c-.51.33-1,.81-1.35-.21s-2.14-1.44-1.81-3c-.56.07-.71-1.25-1.72-.33-.51.47-1.33-.63-1.62-1.44.42-.43,1.09.19,1.37-.44.44.05.63.83,1.33.36-.42-.37-.69-.94-1.33-.36-2.59-1-5.18-2-7.79-3a2.59,2.59,0,0,0-1.58-.25c-1.24.45-1.48-.4-1.85-1.18.11-.22.22-.45.34-.67a23.48,23.48,0,0,1,8.06,1.75,16,16,0,0,1,5.59,4c1.42,1.67,2.92,3.26,4.37,4.89,2,2.2,2.47,4.88,3,7.59.7,3.33,0,6.77.7,10.1.32,1.53-.94,2.8-.65,4.3,0,.35,0,.69,0,1l-.33,0c0-.21,0-.42,0-.64a.64.64,0,0,0-.66-.36q0-3.08,0-6.15c.45.38.27.91.34,1.38s-.28,1.13.46,1.46c.38-.58.16-1.19.17-1.78a5.31,5.31,0,0,1-.33-2.4c0-.6,0-1.21-.08-1.8,0-.16-.21-.46-.45-.23s0,.41-.05.62a1.72,1.72,0,0,1-.7-1.76,8.64,8.64,0,0,0-2.44-8.17c-.89-.92.1-2.1-.68-2.94.2,0,.47.33.56,0a.85.85,0,0,0-.3-.72C164.46,162.33,164.34,162.68,164.22,162.93Z" transform="translate(30.89 49.08)"/><path class="cls-39" d="M166.92,223.82c1.39.21,1.37-.68,1.36-1.66q0-12,0-24c0-.66-.22-1.37.29-2,0,1.14,0,2.29,0,3.43a1,1,0,0,1,0,1c.17,1.23-.4,2.53.34,3.71,0,.35,0,.69,0,1a16.81,16.81,0,0,0,.11,8.1c.3,1,.11,2,.58,3.24-1-.74-.46-1.54-1-2.38v6.69a8.7,8.7,0,0,0,0,1.35c.2,1.33-.35,1.9-1.68,1.73C166.94,224.06,166.93,223.94,166.92,223.82Z" transform="translate(30.89 49.08)"/><path class="cls-40" d="M199.22,134.39a.66.66,0,0,1,.67.79c-.15,1.78.51,3.41.89,5.1a3.64,3.64,0,0,1,.11.66,2.34,2.34,0,0,1-.64,2c-.2.18-.43,0-.59-.14-.6-.56-.4-1.21-.2-1.87a4.44,4.44,0,0,0-.26-2.47C199.2,137.1,199.21,135.75,199.22,134.39Z" transform="translate(30.89 49.08)"/><path class="cls-41" d="M116.92,131.67H122a4.54,4.54,0,0,1-4,1c0,.83,1.32-.16,1,1-.23.91-.59,1.22-1.53.85-.47-.19-1-.09-1.59-.33l1.56-.15C117,133.19,116.17,132.58,116.92,131.67Z" transform="translate(30.89 49.08)"/><path class="cls-42" d="M169,186.05l.33,0H170a10.9,10.9,0,0,1-.73,4.85c-.64-.39.06-.94-.27-1.33a.19.19,0,0,0-.15,0l-.24.22c-.65-1.55-.13-3.18-.3-4.76a.64.64,0,0,1,.66.36c-.51.41-.26.85,0,1.3Z" transform="translate(30.89 49.08)"/><path class="cls-43" d="M168.62,199.66c0-1.14,0-2.29,0-3.43-.6-1,.35-1.41.79-2,1.14.59.38,1.63.58,2.43-.78,0-1.3.11-.67,1A1.28,1.28,0,0,1,168.62,199.66Z" transform="translate(30.89 49.08)"/><path class="cls-44" d="M115.36,133.92a16.1,16.1,0,0,0-3.08.42.76.76,0,0,1-1-.33c-.14-.33-.15-.71.23-.87s1.08-.61,1.21-.27C113.13,134,114.14,133.57,115.36,133.92Z" transform="translate(30.89 49.08)"/><path class="cls-45" d="M200.26,151.68c-.06.53,0,1.11-.54,1.43-.71-.58,1-1.66-.48-2.07,0-.34,0-.68,0-1s.07-.72.12-1.18A3.64,3.64,0,0,1,200.26,151.68Z" transform="translate(30.89 49.08)"/><path class="cls-46" d="M168.62,199.66a1.28,1.28,0,0,0,.66-2l.68-.37c.12.57.23,1.14.35,1.71-1.18.18-.17.91-.34,1.35-.33.56-.84.46-1.35.36A1,1,0,0,0,168.62,199.66Z" transform="translate(30.89 49.08)"/><path class="cls-47" d="M96.52,132.21a2.5,2.5,0,0,1,2.41.21A2.35,2.35,0,0,1,96.52,132.21Z" transform="translate(30.89 49.08)"/><path class="cls-48" d="M169,205.45c0-.35,0-.69,0-1,.24-.34.46-.31.67,0v1.36l-.16.42C169.29,206,169.12,205.7,169,205.45Z" transform="translate(30.89 49.08)"/><path class="cls-44" d="M106.55,134.92c.85-.41,1.33.14,1.9.32C107.81,135.39,107.17,135.61,106.55,134.92Z" transform="translate(30.89 49.08)"/><path class="cls-49" d="M170,209.86c-.17.52.4,1-.06,1.79-.41-.75-1-1.24.07-1.78Z" transform="translate(30.89 49.08)"/><path class="cls-50" d="M170,209.87c-.19-.37-.85-.49-.58-1.07a.35.35,0,0,1,.57-.06c.39.36.47.75,0,1.12Z" transform="translate(30.89 49.08)"/><path class="cls-9" d="M125.6,132.75c-.49.46-.83.72-1.4.38C124.45,132.48,125,132.73,125.6,132.75Z" transform="translate(30.89 49.08)"/><path class="cls-39" d="M170,200.34c.17-.44-.84-1.17.34-1.35C170.65,199.55,170.72,200.05,170,200.34Z" transform="translate(30.89 49.08)"/><path class="cls-51" d="M170,197.28l-.68.37c-.63-.9-.11-1,.67-1C170,196.86,170,197.07,170,197.28Z" transform="translate(30.89 49.08)"/><path class="cls-52" d="M170,186.07h-.66c0-.35,0-.69,0-1C170,185.1,170,185.58,170,186.07Z" transform="translate(30.89 49.08)"/><path class="cls-53" d="M169.63,205.79v-1.36C170.5,204.88,170.1,205.34,169.63,205.79Z" transform="translate(30.89 49.08)"/><path class="cls-54" d="M141.41,91.18a4.07,4.07,0,0,0,2.7,2,4.18,4.18,0,0,1,3,3.75c.06,1.14-1.4,3.16-2.42,3.79-2,1.23-4,.74-5.95.12-.64-.2-.85-.18-1.29.41a3.67,3.67,0,0,1-4.59,1.42,3.38,3.38,0,0,0-3.69.31,3.58,3.58,0,0,1-4.29-.17,4.51,4.51,0,0,1-1.72-5.07,8.86,8.86,0,0,1,1-2.26,41.38,41.38,0,0,1,3.72-5.15c1.39-1.51,3.54-1.54,5.45-1.82a7.83,7.83,0,0,1,7,2C140.56,91,140.53,91.85,141.41,91.18ZM132.91,98c-.34-.25.07-1.1-.57-.94s0,.74-.11,1.13c0,0,0,.1,0,.16-.15.39-.54.79-.09,1.21a.54.54,0,0,0,.76-.06C133.42,99,133.23,98.5,132.91,98Zm6.39-6.45c-.11.08-.48-.09-.38.27s.35.36.56.51a.79.79,0,0,0,.29-.31C140,91.6,139.62,91.6,139.3,91.55Zm-6.71,3.94c-.74.35-1.09.51-1.15,1C132,96.53,132.17,96.2,132.59,95.49Zm4.47-5a1.17,1.17,0,0,0-.34-.22c-.19,0-.32.1-.26.27a.53.53,0,0,0,.34.25C137,90.85,137.1,90.77,137.06,90.51Z" transform="translate(30.89 49.08)"/><path class="cls-55" d="M166.23,118.4c1.12,2.36,1,3-.74,4.57-1,.87-3.14.84-4.56-.18-1-.68-1.77-1.16-3-.47-1.07.59-2.06-.19-2.91-.87a2.52,2.52,0,0,0-2.4-.72,2.59,2.59,0,0,1-3-1.4c-.65-1.39-.85-2.83.4-4.07a20,20,0,0,1,5.43-3.66c2.3-1.11,7.12.93,8.2,3.24.36.77.81,1.49,1.22,2.22A2.31,2.31,0,0,0,166.23,118.4Zm-9.52.54c-.07-.32-.14-.72-.57-.64a1,1,0,0,0-.72.82.57.57,0,0,0,.52.71C156.57,119.91,156.5,119.3,156.71,118.94Zm.79,2.7c-.37-.3-.68-.63-1.27-.34C156.67,121.59,157,121.94,157.5,121.64Zm-5.89-1.78c.52,0,.84,0,1.06-.28C152.33,119.34,152,119.35,151.61,119.86Zm13-.26c.07.47.16.76.58,1C165.18,120.14,165.21,119.8,164.59,119.6Z" transform="translate(30.89 49.08)"/><path class="cls-56" d="M127.1,83.75c0-1.75,1.15-3.33,2.35-3.42s2.82,1.35,3.11,2.86c.23,1.2.63,2.39-.39,3.5-1.53,1.65-3.81,1.07-4.74-1.25A3.85,3.85,0,0,1,127.1,83.75Z" transform="translate(30.89 49.08)"/><path class="cls-56" d="M148.2,89.51c0,2.13-.62,3.06-2,3-2.86,0-3.83-.63-3.8-2.3,0-2,1.93-4.3,3.64-4.37C147.36,85.82,148.2,87.25,148.2,89.51Z" transform="translate(30.89 49.08)"/><path class="cls-56" d="M120,90.51a3.21,3.21,0,0,1,.69-2.83c.69-.84,1.49-1.58,2.58-1.14a3,3,0,0,1,2.1,2.43c.07.84,0,1.7,0,2.54a1.91,1.91,0,0,1-1.15,1.91,1.84,1.84,0,0,1-2.21-.32c-.49-.5-1.38-.64-1.45-1.54C120.66,91.08,120.73,90.58,120,90.51Z" transform="translate(30.89 49.08)"/><path class="cls-56" d="M141.42,84.11a2.92,2.92,0,0,1-3.54,3.23c-.79-.08-.75-.9-1.1-1.35-1-1.33.22-5.24,1.79-5.7a1.68,1.68,0,0,1,2.14.88A6.5,6.5,0,0,1,141.42,84.11Z" transform="translate(30.89 49.08)"/><path class="cls-56" d="M160.59,107.29c-.06,2.14-1,3.33-2.43,3.26-1.14,0-1.88-1.27-1.8-3a2.5,2.5,0,0,1,2.32-2.43C160.1,105.26,160.41,106.35,160.59,107.29Z" transform="translate(30.89 49.08)"/><path class="cls-57" d="M154,109.32c0,1.71-1.13,3.52-2.06,3.53s-2.26-1.7-2.25-3.18a3,3,0,0,1,2.51-2.36C153.53,107.38,153.88,108.41,154,109.32Z" transform="translate(30.89 49.08)"/><path class="cls-56" d="M165.22,116.69a2.48,2.48,0,0,1,1-2.24c.94-.76,2.24-1.32,3.25-.57,1.28,1,.33,2.34-.07,3.41a1.54,1.54,0,0,1-2.49.78C166.3,117.66,165.59,117.38,165.22,116.69Z" transform="translate(30.89 49.08)"/><path class="cls-56" d="M162.62,110.73c0-1.23,1.8-3.18,2.95-3.08a1.43,1.43,0,0,1,1.3,1.67c-.07,1.92-1,3.3-2.23,3.3S162.6,112,162.62,110.73Z" transform="translate(30.89 49.08)"/><path class="cls-58" d="M155,131.67a7.9,7.9,0,0,1-5.82.81,7.09,7.09,0,0,0-4.1.53,7.8,7.8,0,0,1-3,.34c-.48,0-.93-.21-.93-.76s.57-.51,1-.59c1.33-.26,2.76.87,4-.33Z" transform="translate(30.89 49.08)"/><path class="cls-59" d="M178.83,131c.47,1.6.14,2.08-1.29,1.67-1-.3-2.3,0-3.15-1h3.31C178.21,131.66,178.74,131.7,178.83,131Z" transform="translate(30.89 49.08)"/><path class="cls-60" d="M193.77,131.67a4.83,4.83,0,0,1-4.55.89,3.33,3.33,0,0,1,1.84-.9Z" transform="translate(30.89 49.08)"/><path class="cls-61" d="M186,91.54c.81.41,1.75.68,2,1.7-.91.08-.2.68-.33,1v.36A3.48,3.48,0,0,1,186,91.54Z" transform="translate(30.89 49.08)"/><path class="cls-61" d="M221.66,125.87c0,.23,0,.46,0,.7-.7-1.31-2.24-1.78-3-3.06A8.2,8.2,0,0,1,221.66,125.87Z" transform="translate(30.89 49.08)"/><path class="cls-62" d="M215.19,130v-.32h2.43c-.42.59-.56,2-1.51.58C215.9,129.89,215.52,130,215.19,130Z" transform="translate(30.89 49.08)"/><path class="cls-63" d="M198.05,129.44c.81-.29,1.53-.83,2.56.06C199.62,129.54,199,130.2,198.05,129.44Z" transform="translate(30.89 49.08)"/><path class="cls-64" d="M156,130.65a.68.68,0,0,1-.35.67c-.23-.41-.5-.84-1-.35s-.9.32-1.38.34l1-.67C154.9,130,155.47,130.39,156,130.65Z" transform="translate(30.89 49.08)"/><path class="cls-65" d="M126.45,69.44c-.47-.6-.07-1,.34-1.37.26.24.9.16.74.71A1.09,1.09,0,0,1,126.45,69.44Z" transform="translate(30.89 49.08)"/><path class="cls-66" d="M154.33,130.64l-1,.67c-.41,0-.87.11-1.32-.41A5.54,5.54,0,0,1,154.33,130.64Z" transform="translate(30.89 49.08)"/><path class="cls-67" d="M165.22,116.69c.37.69,1.08,1,1.68,1.38a.66.66,0,0,0-.67.33,2.31,2.31,0,0,1-1.38-1.34Z" transform="translate(30.89 49.08)"/><path class="cls-68" d="M118.49,76.57l1.47-.92c-.07,1.12-.77,1.07-1.25,1.3Z" transform="translate(30.89 49.08)"/><path class="cls-69" d="M151.22,130.15c-.4.65-.84.47-1.34.43C150.22,130.14,150.61,130.11,151.22,130.15Z" transform="translate(30.89 49.08)"/><path class="cls-70" d="M141.41,91.18c-.88.67-.85-.16-1-.63A.92.92,0,0,1,141.41,91.18Z" transform="translate(30.89 49.08)"/><path class="cls-71" d="M89.72,106.16c.4-.35.74-.91,1.37-.35C90.7,106.21,90.33,106.63,89.72,106.16Z" transform="translate(30.89 49.08)"/><path class="cls-72" d="M120,90.51c.69.07.62.57.6,1C120.43,91.21,119.57,91.24,120,90.51Z" transform="translate(30.89 49.08)"/><path class="cls-61" d="M170,76.57c-.51,0-1,.05-1.3-.66a1.56,1.56,0,0,1,1.29.67Z" transform="translate(30.89 49.08)"/><path class="cls-73" d="M187.65,94.61v-.36a1.22,1.22,0,0,1,.53,1.06s-.24,0-.25,0C187.83,95.1,187.74,94.85,187.65,94.61Z" transform="translate(30.89 49.08)"/><path class="cls-74" d="M213.54,115.28a2.55,2.55,0,0,1,1.55,1.4A2.19,2.19,0,0,1,213.54,115.28Z" transform="translate(30.89 49.08)"/><path class="cls-75" d="M121,221.41c.59.58.23,1.15,0,1.72C120.36,222.55,120.77,222,121,221.41Z" transform="translate(30.89 49.08)"/><path class="cls-76" d="M136.65,155.8a5.83,5.83,0,0,1-2.72,1c.29-.34.57-.69.87-1C135.41,155.1,136,155.3,136.65,155.8Z" transform="translate(30.89 49.08)"/><path class="cls-77" d="M168.63,180.28c-.07-.47.11-1-.34-1.38.1-.68-.25-1.42.31-2a.77.77,0,0,0,.33.69,5.31,5.31,0,0,0,.33,2.4Z" transform="translate(30.89 49.08)"/><path class="cls-78" d="M168.93,177.56a.77.77,0,0,1-.33-.69c-.08-.24-.17-.48-.25-.71s-.06-.51.05-.63.43.07.45.23C168.91,176.35,168.91,177,168.93,177.56Z" transform="translate(30.89 49.08)"/><path class="cls-79" d="M164.22,162.93c.12-.25.24-.6.57-.35a.85.85,0,0,1,.3.72c-.09.31-.36,0-.56,0Z" transform="translate(30.89 49.08)"/><path class="cls-80" d="M168.63,180.28l.63-.32c0,.59.21,1.2-.17,1.78C168.35,181.41,168.69,180.79,168.63,180.28Z" transform="translate(30.89 49.08)"/><path class="cls-81" d="M159.09,157.5c.64-.58.91,0,1.33.36-.7.47-.89-.31-1.33-.36Z" transform="translate(30.89 49.08)"/><path class="cls-78" d="M169,186.05l-.06.66c-.24-.45-.49-.89,0-1.3C169,185.63,169,185.84,169,186.05Z" transform="translate(30.89 49.08)"/><path class="cls-82" d="M132.91,98c.32.5.51,1,0,1.5a.54.54,0,0,1-.76.06c-.45-.42-.06-.82.09-1.21Z" transform="translate(30.89 49.08)"/><path class="cls-83" d="M139.3,91.55c.32,0,.66,0,.47.47a.79.79,0,0,1-.29.31c-.21-.15-.5-.3-.56-.51S139.19,91.63,139.3,91.55Z" transform="translate(30.89 49.08)"/><path class="cls-84" d="M132.91,98l-.68.35c0-.06,0-.12,0-.16.16-.39-.47-1,.11-1.13S132.57,97.75,132.91,98Z" transform="translate(30.89 49.08)"/><path class="cls-85" d="M132.59,95.49c-.42.71-.61,1-1.15,1C131.5,96,131.85,95.84,132.59,95.49Z" transform="translate(30.89 49.08)"/><path class="cls-86" d="M137.06,90.51c0,.26-.1.34-.26.3a.53.53,0,0,1-.34-.25c-.06-.17.07-.31.26-.27A1.17,1.17,0,0,1,137.06,90.51Z" transform="translate(30.89 49.08)"/><path class="cls-87" d="M156.71,118.94c-.21.36-.14,1-.77.89a.57.57,0,0,1-.52-.71,1,1,0,0,1,.72-.82C156.57,118.22,156.64,118.62,156.71,118.94Z" transform="translate(30.89 49.08)"/><path class="cls-88" d="M157.5,121.64c-.53.3-.83,0-1.27-.34C156.82,121,157.13,121.34,157.5,121.64Z" transform="translate(30.89 49.08)"/><path class="cls-86" d="M151.61,119.86c.41-.51.72-.52,1.06-.28C152.45,119.86,152.13,119.83,151.61,119.86Z" transform="translate(30.89 49.08)"/><path class="cls-85" d="M164.59,119.6c.62.2.59.54.58,1C164.75,120.36,164.66,120.07,164.59,119.6Z" transform="translate(30.89 49.08)"/></g></g></svg>