<svg xmlns="http://www.w3.org/2000/svg" viewBox="0 0 1163.63 2144.14"><defs><style>.cls-1{fill:#e5386e;}.cls-2{fill:#ff5783;}.cls-3{fill:#ffc1a6;}.cls-4{fill:#ffdac7;}.cls-5{fill:#9d6843;}.cls-6{fill:#78492d;}.cls-7{fill:#f4a589;}.cls-8{fill:#282827;}.cls-9{fill:#fff;}.cls-10{fill:#efb848;}.cls-11{fill:#ffcf66;}.cls-12{fill:none;}.cls-13{fill:#e2a63b;}.cls-14{fill:#ffe9bd;}.cls-15{fill:#e0aaaa;}</style></defs><g id="Layer_2" data-name="Layer 2"><g id="Layer_1-2" data-name="Layer 1"><ellipse class="cls-1" cx="855.63" cy="262.66" rx="37.17" ry="38.61" transform="translate(401.64 1034) rotate(-76.59)"/><path d="M856.36,300.6a40.65,40.65,0,0,1-9.51-1.13c-21.08-5-34.29-25.63-29.44-45.93h0c4.84-20.3,25.92-32.73,47-27.7a39.79,39.79,0,0,1,24.44,17.22,36.88,36.88,0,0,1-12.42,52.08A39.41,39.41,0,0,1,856.36,300.6Zm-37.63-46.74h0c-4.66,19.57,8.09,39.43,28.43,44.29A38.49,38.49,0,0,0,875.74,294a35.52,35.52,0,0,0,12-50.18,38.44,38.44,0,0,0-23.62-16.62C843.76,222.32,823.4,234.29,818.73,253.86Z"/><ellipse class="cls-2" cx="853.58" cy="246.8" rx="6.51" ry="6.76" transform="translate(415.49 1019.84) rotate(-76.59)"/><path class="cls-1" d="M885.13,114.73c9.53-8.1,10.16-36.18,44.83-36.29s43.12,43.14,14.88,59.23-58.44,8.75-73.14,36.93c-9.75,18.7-7.18,28.67,2.44,33.43s20.08,8.08,28.65-1.38,3.38-19.89,34.67-30.17,57.81-29.9,60.16-66.95S973,38.27,916.65,43.4s-71,52.71-56.69,68.11C866.61,118.69,880,119.09,885.13,114.73Z"/><path d="M889.84,213.35c-5.38,0-10.89-2.18-16-4.71-4.17-2.07-6.93-5-8.17-8.88-2-6.22-.26-14.56,5.44-25.48,9.28-17.8,25-21.73,41.66-25.88,10.4-2.6,21.15-5.28,31.74-11.32A31.81,31.81,0,0,0,960.05,101c-2.83-10.6-12.18-21.9-30-21.9H930c-24.43.08-31.56,14.07-37.29,25.32-2.31,4.52-4.3,8.42-7.1,10.81h0c-5.64,4.78-19.31,4.06-26.11-3.27-6-6.51-7-18.39-2.43-30.27,3.13-8.16,16.67-35.09,59.55-39,27-2.46,49.14,3.89,64,18.35,12.63,12.29,18.93,29.52,17.72,48.5-2,32.29-22.45,55-60.63,67.56-22.24,7.31-25.78,14.61-29.2,21.66a32.9,32.9,0,0,1-5.17,8.32A17.49,17.49,0,0,1,889.84,213.35ZM930.09,77.76c18.55,0,28.32,11.82,31.28,22.91a33.14,33.14,0,0,1-16.19,37.59c-10.76,6.13-21.6,8.84-32.09,11.46-17.05,4.26-31.78,7.93-40.78,25.19-5.44,10.43-7.24,18.65-5.36,24.43,1.15,3.51,3.6,6.16,7.49,8.08,9.59,4.74,19.6,7.88,27.85-1.23a31.23,31.23,0,0,0,5-8c3.54-7.31,7.2-14.88,30-22.36,37.6-12.35,57.68-34.68,59.69-66.36,1.18-18.57-5-35.42-17.31-47.44-14.57-14.17-36.32-20.38-62.92-18-42.1,3.83-55.35,30.15-58.41,38.12-4.37,11.4-3.52,22.72,2.16,28.85,6.22,6.71,19.13,7.48,24.23,3.16,2.59-2.21,4.53-6,6.76-10.39,5.59-11,13.24-26,38.51-26.06Z"/><ellipse class="cls-2" cx="869.14" cy="94.49" rx="4.79" ry="4.98" transform="translate(575.6 917.99) rotate(-76.59)"/><path class="cls-2" d="M893.66,172c1.33,7.42,21.64-4.86,40.45-12.2s19.85-13.82,13.82-14.28-17.52,6.2-33.32,12.36S892.71,166.63,893.66,172Z"/><path class="cls-2" d="M874.67,82c4,3.84,8-5.8,24.3-14.58s37.89-1.47,42.9-3.89,5-8-3.34-10.32-26.36-2.51-39.84,2.49S867.75,75.27,874.67,82Z"/><path class="cls-3" d="M628,407.78c.81-5.32,2.26-11.8,4.82-15.43,4.85-6.9-30.55-9.43-30.55-9.43l-2.58,16.4A50.93,50.93,0,0,0,628,407.78Z"/><path class="cls-4" d="M599.73,399.32,598.05,410l12.88,16.08,16.19-9.66s.2-3.85.92-8.63A50.93,50.93,0,0,1,599.73,399.32Z"/><path class="cls-5" d="M597.64,236.06c20.31,12.52,34.63-23.12,34.63-23.12s1.68,13.42,23.44,11.2,19.56-16.67,19.56-16.67,7.2,32.81,41.1,16.67c9.73-4.63,15.79-12.18,19.51-20.58a24,24,0,0,0-4.69-.35S750.8,184,724,171.59s-54.74,13.22-54.74,13.22S657,167.19,637.91,173.49s-29,37.2-29,37.2-4.26-6.07-10.89-7.71C590.21,212.6,582.8,226.91,597.64,236.06Z"/><path class="cls-6" d="M735.88,203.56c-3.72,8.4-9.78,15.95-19.51,20.58-33.9,16.14-41.1-16.67-41.1-16.67s2.19,14.44-19.56,16.67-23.44-11.2-23.44-11.2S618,248.58,597.64,236.06c-14.84-9.15-7.43-23.46.42-33.08-3.58-.88-7.83-.5-12.49,2.86-13.31,9.6-8,28.4-8,28.4s-15.31-7.21-24.3,3.18-8.88,42.52,17.84,49.12,150.56-24.38,150.56-24.38,24.46,8.73,41.7-13.68C779.14,228,753.83,206.53,735.88,203.56Z"/><path class="cls-3" d="M589.77,280.61s-26.8-6.27-30.4,16.19,15.79,31.43,31.34,21.88S589.77,280.61,589.77,280.61Z"/><path class="cls-7" d="M575.17,306.69s-3.28-6.72,2.6-10.92c0,0-7.59-1.27-8.66,4.8S575.17,306.69,575.17,306.69Z"/><path class="cls-3" d="M701.91,245.4s-3.29,9.34-22,9S652,239.05,652,239.05s1.11,5.81-9.32,14.41-22.88,6.11-22.88,6.11,8.16,6.77,3,14.7-33.07,6.34-33.07,6.34-.44,2.21-1.1,5.9c12.6,3.43,26.91,5.7,36.09,2,19.52-7.82,14.54-20.76,14.54-20.76s12.39,7.84,23-5.18c0,0,15.19,11.58,34,0,0,0,11.36,12,26.07,14.38-.29-9-.7-14.78-.7-14.78C710.16,259.9,701.91,245.4,701.91,245.4Z"/><path class="cls-4" d="M696.27,262.56c-18.77,11.61-34,0-34,0-10.62,13-23,5.18-23,5.18s5,12.94-14.54,20.76c-9.18,3.68-23.49,1.41-36.09-2-3.13,17.69-11.08,70.23,1.81,85.87,24.7,30,88.07,31.61,113.26,12.07,19.25-14.93,19.53-78.36,18.6-107.51C707.63,274.58,696.27,262.56,696.27,262.56Z"/><path class="cls-3" d="M668.52,309.82c2.26-.65,11.47,27.5,7.44,31.78s-16,5.76-16,4.14,9.44-3.35,9.69-8.35S666.1,310.5,668.52,309.82Z"/><ellipse class="cls-8" cx="615.64" cy="310.22" rx="5.82" ry="8.83" transform="translate(-36.57 86.91) rotate(-7.84)"/><ellipse class="cls-8" cx="685.99" cy="312.17" rx="5.82" ry="8.83" transform="translate(-36.18 96.52) rotate(-7.84)"/><path class="cls-9" d="M646.32,372.24s5.34-9.91-6.76-12.73-20.07-1-22.84,2.52C616.72,362,646.78,361.34,646.32,372.24Z"/><path class="cls-5" d="M692,280.87c2.33-5.06,18.86,5.95,14.95,9S690,285.11,692,280.87Z"/><path class="cls-5" d="M611,287.23c.92,4.31,17.61-3.75,16.31-7S610,282.66,611,287.23Z"/><path class="cls-4" d="M845.81,325.65s2.12-8.93,7.46-10,23.11-7.13,36.66-25.36,8.08-30,4.3-30.62-3.41,20.59-17.8,30.54-34.87,8.37-31.65-3.54,11.33-15.23,6.59-22.15-24.28,15.19-25.52,30.62,3.82,18.11-2.08,27.36S845.81,325.65,845.81,325.65Z"/><path class="cls-10" d="M716.73,473.85c-10.26-6-11.09-14.54-8.5-22.53C683.27,457.54,666,449,666,449l-16.81,94.1s45.08,2.08,116.06-39.33c28.44-16.59,48.92-47,63.26-77.56C796.9,460.65,736.65,485.5,716.73,473.85Z"/><path class="cls-11" d="M857.61,334.66c-16.86-19.62-43.13-10.28-43.13-10.28C779.2,415,738.21,443.85,708.23,451.32c-2.59,8-1.76,16.53,8.5,22.53,19.92,11.65,80.17-13.2,111.73-47.68C849.91,380.51,857.61,334.66,857.61,334.66Z"/><path class="cls-4" d="M372.43,642.45l-4.65,9.31s-11.62-6.39-22.71,7.78S326.49,687.83,331,691.8s11.29.7,11.29.7a10.34,10.34,0,0,0,5.17,10.64c6.58,3.92,13.17-.12,13.17-.12s1.91,5.41,10.69,6.38,20.9-30.12,18.75-37.68a19.35,19.35,0,0,0-7.37-10.8l8.47-11.9Z"/><path class="cls-11" d="M544.09,434.12a36.05,36.05,0,0,0-7.94-8.89s-29.66,5.59-86.84,61.07c-13.72,13.32-25.58,28.86-35.7,44.79-32.05,50.43-46.55,104.77-46.55,104.77,13.26,21.6,41.4,13.85,41.4,13.85s7.81-34.3,54.35-81.42,76.11-54.52,76.11-54.52C560.53,471.46,552.11,446.25,544.09,434.12Z"/><path class="cls-12" d="M537.7,429.38C535,453,534.31,481.32,540.31,508c1.79-8,4.67-23.27,4.76-38.69C545.17,452.8,540.28,436.71,537.7,429.38Z"/><path class="cls-11" d="M536.15,425.23s.63,1.53,1.55,4.15c.17-1.5.35-3,.54-4.45Z"/><path class="cls-11" d="M666,449s-18.2-4.28-23.63-12-66.47-17.52-66.47-17.52l-37.61,5.45c-.19,1.46-.37,2.95-.54,4.45,2.58,7.33,7.47,23.42,7.37,39.93-.09,15.42-3,30.68-4.76,38.69,7,31,23,59.84,55.42,76.28,21.72,11,42,14.41,60.48,13.06,2.44-16.14,5.2-35.57,7.93-57.33C672.07,476.82,666,449,666,449Z"/><path class="cls-10" d="M595.73,584.28C563.32,567.84,547.3,539,540.31,508c-.8,3.62-1.39,5.77-1.39,5.77s-29.87,84-47.57,99.3c0,0,35,60.42,56.45,57.21,0,0,23.8-30.48,26.11-29.93s1.62,32.57,5.13,35.58,60.3-16,69-29.1c0,0,3.5-18.76,8.14-49.49C637.76,598.69,617.45,595.3,595.73,584.28Z"/><path class="cls-10" d="M598.05,410l12.68,13,17.85-7.13s10.3,17.46,13.74,21.18l-20.45,21.15L608.4,436.68l-18,14-16.16-34.59Z"/><ellipse class="cls-13" cx="616.83" cy="499.35" rx="4.48" ry="4.66" transform="translate(-12 983.51) rotate(-76.59)"/><ellipse class="cls-13" cx="610.31" cy="544.8" rx="4.48" ry="4.66" transform="translate(-61.22 1012.07) rotate(-76.59)"/><path class="cls-13" d="M604.54,449.68s3.69,40.48-2.51,84.56-22.48,89.56-22.48,89.56,12.58-58.29,17.62-98.31S604.54,449.68,604.54,449.68Z"/><path class="cls-6" d="M439.68,199.24s-4.35-28.1-31.86-19.25c0,0-13.73-16-26.61-11.53s-14,13.48-14,13.48-12.33-.59-19.85,6.48S344,204.29,344,204.29s-17.75-9.24-30.32,3.32-5.19,31.11-5.19,31.11-27.94-5.58-33.15,15.55,9.47,28.6,9.47,28.6-9.51,4.2-9.26,17.43,16.61,22.84,16.61,22.84-26.28,7.29-27.3,27.6,21.26,29,21.26,29-21.67,1.94-21.4,15.93,14.41,17.21,14.41,17.21-18.32-2.71-19,18.58c-.56,17,13.89,20.89,13.89,20.89s-25.68,6-23.45,24.74,21.33,18.63,21.33,18.63-11.69,6.89-9.52,25.3,15.66,19.86,15.66,19.86.48,17.19,18.42,20.68c0,0-.15,14.95,9.35,21.72s23.5,3.42,23.5,3.42-1.05,17.67,12.26,22.78,25.21-4.39,25.21-4.39,23.7,18.09,41,14.82,21.22-20.32,21.22-20.32,17.94,18.29,41.79,11.66,22.53-29.83,22.53-29.83,7.62,4.1,25.41-15.94,7.4-31.27,7.4-31.27,18.28-17.55,18.68-29.48a22.57,22.57,0,0,0-8.08-18.19s13.68-4.23,12.38-17.58-13.09-13.46-13.09-13.46,18.7-9.14,12.57-33.72-28.51-20-28.51-20,13.3-3.23,11.77-19.92-15-16.3-15-16.3,13.54-13.7,6.68-37.22-27.78-20.8-27.78-20.8,16.64-9.86,10-30.71-23.35-19.08-23.35-19.08,13.51-8.87,9.1-22.66-20.47-11-20.47-11,6.79-16.42-4.76-24.12S439.68,199.24,439.68,199.24Z"/><path class="cls-2" d="M456.43,233.63s-30.72-16.16-62.08-7.55-39,25.67-39,25.67-4.39-35.42,38.12-45S456.43,233.63,456.43,233.63Z"/><path class="cls-4" d="M488.9,635.59s-5.89,7.28-9.9,6.15-14.71-7.4-24.37-.1-13.36,17.49-6.3,17.72,17.53-8.85,18.87-7.25-17.78,12.73-12.67,19.33,22.83-11.67,24.18-10.41-17.43,16.07-11.94,21.57,29.68-11.88,29.54-18.21,3.84-11.08,7.13-12.64S488.9,635.59,488.9,635.59Z"/><path class="cls-1" d="M518.79,565.51c.52,9.76-5.3,20-14.58,29.92a45.6,45.6,0,0,0-.18-5.28c-2.57-27.38-40.68-62.09-40.68-62.09l-1.52-44.31C473.31,492.6,516.8,528.47,518.79,565.51Z"/><path class="cls-2" d="M504.21,595.43c9.28-9.95,15.1-20.16,14.58-29.92-2-37-45.48-72.91-57-81.76l-1.57-45.65C485,446.46,557,541,563.21,585.45s-49.09,72.43-49.09,72.43c-24.26-6.8-28.94-33.11-28.94-33.11S503.77,618.46,504.21,595.43Z"/><path class="cls-4" d="M203.87,368.88s6.13-17.09-5.07-24.95-72.59-4.72-72.76.43,16.69,8.87,37.36,9.55c2.32.08,11.13,25.5,11.13,25.5Z"/><path class="cls-1" d="M355.24,469.35c5,18.37-1.72,42.64-1.37,46.12.52,5.24-80.14,19.64-132.07,14.93-24.57-2.23-43-29-54.91-59.07a154.85,154.85,0,0,0,57.66,32.1C277.8,519.56,325.09,493.68,355.24,469.35Z"/><path class="cls-2" d="M152.55,388.06c7.37-23.33,63.18-20.6,68.6-16.43S244,480.21,244,480.21c23-11.88,92-30.81,92-30.81,11.15,2.76,16.75,10.59,19.3,20-30.15,24.33-77.44,50.21-130.69,34.08a154.85,154.85,0,0,1-57.66-32.1C153.69,437.88,148.67,400.35,152.55,388.06Z"/><path class="cls-1" d="M414.32,469.53c-3,.19-28.26-18.91-46.07-32.68,8.27-3.79,15.72-7.89,18.83-11.48,8.66-10,34.53-1.3,34.53-1.3s10.37,4.5,21.77,8.64C434.63,445.42,417.73,469.32,414.32,469.53Z"/><path class="cls-2" d="M390,561.47c-15.76-9-27.25-22.6-35.65-37.4a128.56,128.56,0,0,0-2.42-22.54c-8.41-39.66-16-52.13-16-52.13s17.48-5.77,32.31-12.55c17.81,13.77,43.1,32.87,46.07,32.68,3.41-.21,20.31-24.11,29.06-36.82,5.77,2.1,11.79,4.11,16.88,5.39,0,0,30.15,59.07,17.93,77.67-9.51,14.47-14.84,12.29-14.84,12.29s3.7,18.8,6.2,38.56C448.57,574,419.21,578.14,390,561.47Z"/><path class="cls-1" d="M390,561.47c29.22,16.67,58.58,12.55,79.56,5.15,1.87,14.84,3.06,30.21,1.5,38.58,0,0-19.75,20.31-70,16.66S345,609.69,345,609.69s10.49-47,9.32-85.62C362.74,538.87,374.23,552.49,390,561.47Z"/><path class="cls-4" d="M387.43,417c12.32,4.9,24.36,2.81,31.7.52.57,3,1.38,5.69,2.48,6.54,0,0-10.67,15.18-12.89,15.55s-21.64-14.25-21.64-14.25S387.33,421.73,387.43,417Z"/><path class="cls-3" d="M387.43,417c.15-6.76,0-15.78-1.68-19.71C382.9,390.62,418,408.5,418,408.5a89,89,0,0,0,1.17,9C411.79,419.82,399.75,421.91,387.43,417Z"/><path class="cls-3" d="M354.06,317.78s-21-7.8-25.58,10.47,15,32.93,30,20.65S354.06,317.78,354.06,317.78Z"/><path class="cls-7" d="M347.66,330.88s-1.93,6.09,2.82,9.24c0,0-4.6,2.68-7.4-1.91S347.66,330.88,347.66,330.88Z"/><path class="cls-4" d="M365.61,323.48c17.69-4.57,14.7-24.31,14.7-24.31,19.33-1.86,11.16-17.43,11.16-17.43,13,.59,13.38-11.88,13.38-11.88,12.77,6.58,22.86-2.4,22.86-2.4,9.34,11.62,26.06,4.52,26.06,4.52,4,7.49,12.63,8,18.93,7.3,7.69,32.28,21.12,113.7-34.76,126.91-69.64,16.46-81.5-59.09-83.49-82A25.6,25.6,0,0,0,365.61,323.48Z"/><path class="cls-3" d="M368.63,290.05c20.41-1.13,15.34-23,15.34-23,13.83,1.78,19.26-11.79,19.26-11.79a28,28,0,0,0,25.68-3.15c7.6,15.12,25.17,8.82,25.17,8.82,7,11.1,15.11,5.16,15.11,5.16s1.57,5,3.51,13.17c-6.3.75-14.92.19-18.93-7.3,0,0-16.72,7.1-26.06-4.52,0,0-10.09,9-22.86,2.4,0,0-.38,12.47-13.38,11.88,0,0,8.17,15.57-11.16,17.43,0,0,3,19.74-14.7,24.31a25.6,25.6,0,0,1-11.16.72c-.35-4-.39-6.42-.39-6.42C372.14,317,368.63,290.05,368.63,290.05Z"/><path class="cls-9" d="M395.79,370.42s21-9.09,32.08.92c0,0,1.48-8.29-4.26-10.16S396.24,366.65,395.79,370.42Z"/><path class="cls-3" d="M438.37,317.9,441.76,336s11.15-6.45,14.91,6c0,0,8.67-6.73-1.82-13.21-5.69-3.52-10.8,1.06-10.8,1.06Z"/><ellipse class="cls-8" cx="444.41" cy="308.53" rx="4.67" ry="7.59" transform="translate(-64.86 125.96) rotate(-15.05)"/><ellipse class="cls-8" cx="383.58" cy="326.16" rx="4.67" ry="7.59" transform="translate(-71.53 110.77) rotate(-15.05)"/><path class="cls-8" d="M461.82,281.9c-.2,4.65-21,2.8-21-.7S462,277.24,461.82,281.9Z"/><path class="cls-8" d="M393.06,291.44c-3.37-3.46-19,8-15.83,11.62S395.75,294.19,393.06,291.44Z"/><ellipse class="cls-11" cx="166.02" cy="295.44" rx="28.82" ry="27.62" transform="translate(-62.26 44.97) rotate(-13.01)"/><path d="M165.43,323.82a29.7,29.7,0,0,1-15.21-4.17,27.59,27.59,0,0,1-12.94-17.56c-3.51-15.21,6.52-30.56,22.37-34.22s31.6,5.73,35.11,20.93-6.52,30.56-22.37,34.22A31.1,31.1,0,0,1,165.43,323.82Zm1.13-55.38a28.76,28.76,0,0,0-6.6.76c-15.12,3.49-24.69,18.11-21.35,32.58h0a26.24,26.24,0,0,0,12.31,16.7,28.62,28.62,0,0,0,21.17,3.21c15.11-3.49,24.69-18.11,21.34-32.58C190.58,276.76,179.22,268.44,166.56,268.44Z"/><ellipse class="cls-14" cx="157.96" cy="287.49" rx="6.95" ry="6.66" transform="translate(-60.67 42.95) rotate(-13.01)"/><path class="cls-11" d="M109.1,129.46c6.89-16-9.71-51.24,33.51-72.83S223.15,83.54,197.85,121s-67.55,47-68.45,91.15c-.6,29.27,8.78,40.08,23.73,40s30.08-2.4,34.93-19.45S180,206,212.66,173.81s53.67-72.94,33.67-120.44-74.87-73.28-142-32-56,109.42-28.61,119.72C88.43,145.85,105.39,138.06,109.1,129.46Z"/><path d="M153.05,252.89c-6.4,0-11.6-2-15.46-5.93-6.32-6.42-9.22-17.81-8.87-34.8.56-27.75,16.94-41.66,35.89-57.76,11.39-9.67,23.17-19.68,32.68-33.76,13.55-20.08,8.34-41.91-2.84-54.65-10.18-11.59-29.06-20-51.54-8.75-30.6,15.29-30.84,37.18-31,54.77-.07,7-.14,13.08-2.15,17.72-1.88,4.38-7.13,8.66-13.7,11.19-7.11,2.73-14.61,3-20.58.77-11.44-4.3-19.92-18.36-21.59-35.82-1.15-12.05-1-53.79,50.09-85.12C136.13,1,167.67-4.81,195.13,4c23.24,7.47,41.64,24.9,51.83,49.09,17.38,41.29,6,82.06-33.82,121.2-23.33,22.93-23.22,34.24-23.12,45.18,0,4.22.08,8.59-1.31,13.46-5,17.51-20.77,19.91-35.57,19.95ZM164,50.56a42.09,42.09,0,0,1,31.52,14.53c11.51,13.13,16.89,35.63,2.94,56.31-9.61,14.24-21.47,24.31-32.93,34-18.7,15.89-34.86,29.61-35.41,56.75-.33,16.37,2.52,27.75,8.48,33.82,3.65,3.71,8.39,5.52,14.49,5.52h.08c15-.05,29.56-2.37,34.27-19,1.33-4.68,1.29-8.76,1.25-13.08-.1-11.22-.21-22.83,23.54-46.16,39.38-38.71,50.66-79,33.51-119.7-10-23.82-28.14-41-51-48.32-27.07-8.7-58.21-3-90.06,16.6-50.36,30.92-50.58,72-49.44,83.83,1.62,16.94,9.75,30.55,20.72,34.68,12,4.53,28.82-2.6,32.54-11.23l.63.27-.63-.27c1.9-4.39,2-10.32,2-17.19.19-17,.45-40.32,31.79-56A48.17,48.17,0,0,1,164,50.56Z"/><ellipse class="cls-14" cx="76.61" cy="114.21" rx="6.94" ry="6.65" transform="translate(-23.75 20.18) rotate(-13.01)"/><path class="cls-14" d="M155.18,195.29c6.24,8.39,24-19.43,42.95-40.2s16.22-29.46,8.41-26.29-18,18.54-34,36S150.7,189.27,155.18,195.29Z"/><path class="cls-14" d="M75.79,95.28C83.1,97.62,82.24,83.1,97.1,62.14s46.4-25.29,51.16-31.4,1.26-13-10.56-10.76-34.47,13.2-48.2,27.75S63,91.19,75.79,95.28Z"/><path d="M617.82,1739c29,31.82,100.54,37.88,136.36,69.72,48.15,42.79,172.51,151.17,136.61,226.21-11.26,23.54-38.37,40.38-38.91,66.47-.4,19.51,16.48,36.78,35.68,40.3,65.55,12,86.9-74.45,86.13-122-1-61.58-26.08-123.45-56.59-176,0,0-134.16-231.24-265-221.09S617.68,1738.8,617.82,1739Z"/><path d="M899.59,2144.14a68,68,0,0,1-12.27-1.15c-20.69-3.79-37.19-22.48-36.8-41.67.34-16.53,11.15-29.58,21.61-42.21,6.48-7.82,13.18-15.91,17.43-24.82,34.79-72.71-83.15-177.42-133.51-222.14l-2.77-2.46c-17.17-15.26-43-24.65-67.9-33.73-27.46-10-53.4-19.44-68.57-36.09h0a186.23,186.23,0,0,1-21.22-29.69c-12.82-22.42-16.53-42-10.74-56.55,7.44-18.7,30-29.65,67.16-32.52,30.14-2.34,62.93,7.92,97.44,30.48,27.51,18,56.18,43.79,85.23,76.71,49.33,55.9,83.37,114.14,83.62,114.63,36.78,63.38,55.88,122.84,56.75,176.66.6,37.07-11.32,87.61-38.92,111A55.12,55.12,0,0,1,899.59,2144.14ZM618.82,1738c14.72,16.16,40.35,25.49,67.49,35.37,25.18,9.17,51.22,18.65,68.78,34.25l2.77,2.47c50.82,45.12,169.84,150.79,134.16,225.35-4.4,9.21-11.21,17.43-17.79,25.38-10.63,12.83-20.66,25-21,40.53-.37,17.9,15.13,35.37,34.56,38.92,17.8,3.27,33.47-.7,46.56-11.79,18.87-16,38.8-56.88,38-108.87-.87-53.36-19.84-112.37-56.41-175.4-1.34-2.31-134.88-230.38-263.7-220.41-36,2.79-57.82,13.15-64.83,30.81-13.31,33.47,30.89,82.78,31.43,83.39Z"/><path d="M383.33,710.21c1.28-2.76,6.62-7,7.91-9.76,19.32-40.09,44.21-76.25,49.76-121.4-.15-5.45,6.59-8.37,7.79-13.86.45-3,.92-6,1.39-8.89-37.13,4.72-87.12,24.64-121.92,11-21.67-8.52-19.16-26.64-36.09-42.49-34.84-32.64-39.55-.14-60.09,32.66-48.3,77.14-55.63,275.58-56.61,314.3C257.85,838.06,331.68,789.8,383.33,710.21Z"/><path d="M174.06,873.77l.05-2.09c1-39,8.36-237.61,56.81-315,4-6.34,7.28-12.55,10.48-18.55,7.87-14.76,14.09-26.42,24.24-28.1,7.44-1.23,16.16,3.13,27.46,13.71,7.17,6.71,11,14,14.39,20.35,4.84,9.15,9,17.06,21.27,21.87,24.32,9.57,55.82,2.54,86.28-4.27,12.42-2.77,24.15-5.39,35-6.76l1.81-.23-.29,1.8c-.48,2.92-.94,5.87-1.39,8.87-.65,3-2.5,5.09-4.29,7.15s-3.55,4.06-3.49,6.47v.21C438.11,613.75,423,642.35,407,672.63c-4.87,9.23-9.91,18.78-14.56,28.41-.72,1.56-2.41,3.34-4.19,5.23a23.4,23.4,0,0,0-3.71,4.52l-.09.16C338.18,782.29,271.93,833.78,176,873Zm94.09-361.2a12.73,12.73,0,0,0-2.06.17c-8.83,1.46-14.76,12.59-22.28,26.69-3.07,5.76-6.56,12.3-10.58,18.72C186,633.63,178.08,826.24,176.89,869.66c94.32-38.87,159.58-89.79,205.25-160.11a24.35,24.35,0,0,1,4.15-5.16,23.4,23.4,0,0,0,3.71-4.52c4.67-9.69,9.73-19.26,14.61-28.52,15.85-30,30.83-58.38,35-92.37-.05-3.42,2.08-5.87,4.15-8.24,1.64-1.88,3.19-3.65,3.67-5.84s.71-4.67,1.09-7c-10.21,1.41-21.25,3.88-32.92,6.48-30.86,6.9-62.77,14-87.87,4.15-13.18-5.18-17.8-13.9-22.68-23.14-3.45-6.5-7-13.23-13.84-19.63C281.71,516.82,274.29,512.57,268.15,512.57Z"/><path d="M718.3,868.05c16-87.17-.26-171.86-17.47-257.19-3.92-19.43-17-65.58-38.35-72.67-21.8-7.24-37.34,15.75-55.65,29.51l-.07,0c-1.89,1.42-58.16-13.71-65.61-14.28-28.73-2.17-58.14-.41-86.76,2.35-1.37.13-2.76.3-4.16.47,21,44.29,36.22,90.47,56.67,135.45C545.46,775.16,619.7,860.22,718.3,868.05Z"/><path d="M719.42,869.51l-1.23-.1c-46-3.65-89.39-23.89-129-60.16-42.18-38.6-68.69-84.9-83.5-116.94-9.55-21-18.08-42.57-26.32-63.43-9.41-23.79-19.14-48.4-30.34-72l-.81-1.7,1.87-.24c1.42-.18,2.82-.34,4.19-.48,24.15-2.33,55.86-4.7,87-2.35,3.45.26,16.52,3.43,30.36,6.77,13.46,3.26,31.73,7.69,34.56,7.61,4.44-3.36,8.74-7.27,12.9-11.06,13.1-11.92,26.65-24.24,43.84-18.54,9.67,3.22,18.6,14.14,26.53,32.46a222.74,222.74,0,0,1,12.73,41.24c15.89,78.76,33.89,168,17.47,257.71ZM452.27,557.42c10.9,23.16,20.4,47.2,29.6,70.46,8.24,20.83,16.75,42.36,26.27,63.3,14.7,31.8,41,77.76,82.86,116.06,38.83,35.52,81.27,55.49,126.18,59.35,16-88.76-1.92-177.3-17.69-255.46-4.75-23.57-18-65.19-37.44-71.65-15.68-5.21-28,6-41.15,18-4.27,3.89-8.69,7.91-13.25,11.34-1.31,1-5.06.39-36.69-7.26-13.12-3.17-26.69-6.45-29.91-6.7-30.94-2.34-62.5,0-86.53,2.35Z"/><path class="cls-9" d="M923.94,619.26c0-20.47-33-231.3-70.23-194.39-23.7,23.53-12,71.89-7.74,99.86,9.79,64.58,4.41,133-12.65,196-2.47,9.1-5.13,18.46-8.19,27.76,15.1,25.15,33.17,48.18,48.85,72C903.5,757.44,924,691.07,923.94,619.26Z"/><path d="M874.18,823.24l-1.34-2c-6.24-9.48-13-19-19.51-28.25-10-14.08-20.26-28.64-29.37-43.81l-.32-.54.19-.59c3.28-9.95,6.09-20,8.17-27.68,17.73-65.36,22.09-132.93,12.62-195.41-.49-3.2-1.07-6.67-1.69-10.34-4.92-29.27-11.66-69.36,9.82-90.68,4.59-4.55,9.39-5.83,14.28-3.8,32.2,13.4,58.25,179.51,58.27,199.15.08,64.55-15.84,128.67-50.09,201.78Zm-47.56-75c9,14.89,19.12,29.23,28.93,43.1,6.08,8.59,12.34,17.46,18.22,26.3,33.36-71.82,48.88-134.93,48.81-198.41,0-18.87-26.11-184-56.6-196.64-3.83-1.59-7.53-.54-11.31,3.21-20.48,20.33-13.87,59.62-9,88.3.62,3.68,1.21,7.17,1.69,10.38,9.53,62.85,5.15,130.81-12.68,196.53C832.58,728.59,829.83,738.47,826.62,748.28Z"/><path class="cls-9" d="M1032.45,1660.7c-47.05-37.31-87.65-83.2-125.53-129.52-66.67-81.55-139.72-175.59-176-275.78-35-96.63,7.66-195.67,56.6-280.82-14.25-14.68-23.84-37.75-26.08-57.15a359.3,359.3,0,0,1-1.69-75.56c-17.58,14.41-37.14,26.38-51.2,25.14-12.94-1.14-26.11-5-38.31-9.26-24.64-8.7-47.36-22.27-67.6-38.72-40.73-33.07-72.16-77.34-94.43-124.58-.42-.9-.85-1.8-1.26-2.71-20.45-45-35.66-91.16-56.67-135.45h-.05c-.47,2.93-.94,5.89-1.39,8.89-1.2,5.49-7.94,8.41-7.79,13.86-5.55,45.15-30.44,81.31-49.76,121.4-1.29,2.76-6.63,7-7.91,9.76C331.68,789.8,257.85,838.06,175.47,871.72c-.11,4.27-.14,6.61-.14,6.61,0-2.17,0-4.34-.12-6.51L172.45,873l2.76-1.14c-1.88-43-27.08-86.2-41.5-125.63-21.3-58.23-42-116.55-56.2-177-13.42-57.06-3.18-112.57,6.76-169.38,3.58-20.44-22.95-23-36.89-17-15.27,6.61-21.69,32.64-26.23,46.42C3.29,483.31,2.19,545.63,1.41,602-.36,731.11,44.82,857.88,104.63,970.13c33.28,62.46,73.69,131.49,72.66,204.57-1.64,115.47,31.14,227.48,61.07,337.87,47.28,174.4,183.73,312.47,343,394.54,52.51,27.05,186.83,96.5,250.53,72,55.47-21.35,41.17-76.14,25.75-73.18s-117.73-34.52-189.24-86.82c-122-156-38.51-228,78.11-182.07s317.63,140.16,370.68,134.6C1247.52,1758,1056.07,1679.42,1032.45,1660.7Z"/><path d="M800.06,1985.59c-25.51,0-58.11-7.23-97.47-21.65-48-17.58-93.8-41.18-121.17-55.28l-.65-.34c-174.73-90-300-234.14-343.73-395.39q-2.86-10.58-5.76-21.18c-28-102.64-56.9-208.78-55.36-317.07,1-67.15-34-132.15-64.77-189.49q-3.9-7.26-7.72-14.42C33.28,839.12-1.5,715,.05,602c.76-55.35,1.62-118.09,19.8-173.16.53-1.6,1.09-3.37,1.68-5.26,4.48-14.29,11.25-35.9,25.31-42,9.47-4.08,24.87-4.4,33.22,2.2,4.83,3.81,6.75,9.43,5.55,16.26L85,403.79c-9.87,56.34-19.19,109.55-6.12,165.09C93.05,629.3,113.51,687,135,745.72c4.06,11.1,8.89,22.29,14,34.15,12.62,29.28,25.67,59.53,27.48,90C271,831,336.4,780,382.14,709.54a24.9,24.9,0,0,1,4.15-5.15,23.4,23.4,0,0,0,3.71-4.52c4.67-9.69,9.73-19.26,14.61-28.52,15.85-30,30.83-58.38,35-92.37-.05-3.42,2.08-5.87,4.15-8.24,1.64-1.88,3.19-3.65,3.67-5.84.43-2.92.9-5.89,1.38-8.82l.16-1,2-.28.47.9c11.24,23.69,21,48.34,30.41,72.17,8.24,20.83,16.75,42.36,26.27,63.29.32.72.65,1.42,1,2.13l.26.57c23.85,50.58,56.37,93.5,94.06,124.1,21.33,17.33,43.94,30.29,67.2,38.5,15,5.3,27.08,8.22,38,9.18,14.84,1.31,35.5-12.78,50.21-24.83l2.51-2.05-.28,3.22a358.48,358.48,0,0,0,1.68,75.27c2.38,20.62,12.47,42.74,25.71,56.37l.72.73-.52.9c-19,33.1-45.91,83.2-59.65,135.77-13.82,52.86-12.79,99.94,3.15,143.9,36.28,100,109.78,194.61,175.83,275.39,34.42,42.1,76.24,90.39,125.32,129.31h0c5,4,18.22,10.95,33.54,19,42.51,22.48,100.73,53.27,96.58,74.74-2,10.13-17,16.53-46.05,19.57-40,4.18-162.48-47.45-270.54-93-36.69-15.46-71.33-30.07-100.79-41.68-27.21-10.73-53.31-15.25-75.48-13.07-21.77,2.14-38.77,10.63-49.16,24.55-11.88,15.92-14.68,38.48-8.1,65.25,7.46,30.33,26.33,65,56.09,103.08,69.7,50.93,172.54,89.45,188,86.47,5.73-1.1,11.35,4.37,14,13.6,4.2,14.7,1.46,46.61-39,62.19Q818.84,1985.59,800.06,1985.59ZM62.32,381.32a37.59,37.59,0,0,0-14.4,2.76c-12.91,5.59-19.46,26.48-23.79,40.3-.6,1.9-1.16,3.68-1.69,5.29C4.39,484.35,3.53,546.86,2.78,602,1.23,714.61,35.91,838.25,105.83,969.49q3.81,7.14,7.72,14.41c31,57.63,66.06,123,65.1,190.82-1.53,107.9,27.34,213.85,55.26,316.32q2.88,10.59,5.76,21.18c43.52,160.51,168.3,304,342.35,393.68l.65.34c50.84,26.19,185.9,95.78,248.76,71.58,38.62-14.86,41.33-45,37.36-58.89-2.2-7.68-6.66-12.48-10.86-11.67a11.86,11.86,0,0,1-2.13.16c-21,0-117.89-35.81-188.17-87.22l-.27-.26C610,1746.62,592.45,1684,619.21,1648.15c22.34-29.92,71.32-34.67,127.83-12.39,29.49,11.62,64.15,26.24,100.85,41.71,103.68,43.71,220.67,93,264.38,93a47.89,47.89,0,0,0,4.81-.23c27.3-2.86,42-8.71,43.66-17.38,3.77-19.48-58.17-52.24-95.18-71.81-16.07-8.5-28.77-15.21-34-19.32h0c-49.28-39.08-91.22-87.51-125.73-129.73-66.19-81-139.86-175.73-176.28-276.18-16.14-44.5-17.19-92.1-3.23-145.52,13.7-52.42,40.35-102.31,59.42-135.56-13.28-14.08-23.34-36.4-25.74-57.19a362.39,362.39,0,0,1-2-72.66c-14.89,11.88-34.79,24.76-49.7,23.44-11.12-1-23.4-4-38.64-9.33-23.55-8.32-46.43-21.42-68-38.95-38-30.86-70.79-74.11-94.8-125.06l-.27-.57c-.34-.72-.68-1.43-1-2.16-9.55-21-18.08-42.56-26.32-63.42-8.89-22.48-18.07-45.68-28.5-68.08-.23,1.52-.47,3.05-.7,4.59-.65,3-2.5,5.09-4.29,7.15s-3.55,4.06-3.49,6.47v.21C438.11,613.75,423,642.35,407,672.63c-4.87,9.23-9.91,18.78-14.56,28.41a24.28,24.28,0,0,1-4.19,5.23,23.4,23.4,0,0,0-3.71,4.52l-.09.16c-46.16,71.14-112.16,122.53-207.66,161.69-.08,3.55-.11,5.54-.11,5.7h0l-2.73,0v0h0c0-1.38,0-2.86-.05-4.48l-1,.39-1-2.53,1.86-.76c-1.57-30.27-14.65-60.62-27.31-90-5.13-11.89-10-23.13-14.06-34.3-21.51-58.79-42-116.58-56.25-177.15C63,513.42,72.36,459.94,82.27,403.32l.66-3.75c1-5.86-.51-10.46-4.55-13.65S68.33,381.32,62.32,381.32Z"/><path d="M761.39,917.43c2.24,19.4,11.83,42.47,26.08,57.15,7-12.23,14.19-24.17,21.26-35.78,23.42-38.43,46.2-77.69,65.25-118.34-15.68-23.83-33.75-46.86-48.85-72-6.69,20.29-15.32,40.27-28.22,56.51-7.17,9-21.4,23.95-37.21,36.91A359.3,359.3,0,0,0,761.39,917.43Z"/><path d="M787.78,977.05l-1.38-1.43c-13.65-14-24-36.82-26.5-58a362.17,362.17,0,0,1-1.7-75.87l.06-.63.49-.4c15.52-12.72,29.76-27.59,37-36.68,11.08-13.95,20-31.76,28-56l1-3.11,1.69,2.81c9.05,15.08,19.32,29.59,29.24,43.63,6.55,9.25,13.31,18.81,19.57,28.33l.46.7-.35.76c-20.15,43-44.33,84-65.33,118.48-8.33,13.67-15.08,25-21.24,35.74ZM761.14,842.63a358.39,358.39,0,0,0,1.74,74.61v0c2.29,19.86,11.76,41.12,24.3,54.82,5.9-10.23,12.38-21.11,20.27-34.06,20.83-34.19,44.8-74.85,64.81-117.44-6.1-9.24-12.68-18.54-19-27.54-9.35-13.22-19-26.87-27.69-41-7.85,23.08-16.61,40.27-27.44,53.9C790.84,815,776.65,829.86,761.14,842.63Z"/><path d="M852,1680.06c31.11,14-292.54-835.67-480.06-470.87s296.6,610,296.6,610-105.36-125.32-40.69-178.58C641.37,1630.89,655.75,1591.47,852,1680.06Z"/><path d="M673.9,1823.44l-5.95-3c-.64-.33-64.7-33-136.25-91-42-34.07-78.41-70.08-108.1-107-37.14-46.22-63.89-94.06-79.49-142.18-29-89.43-20-180.81,26.65-271.63,43-83.63,96.64-110.33,159.46-79.38,37.7,18.58,78.53,58,121.37,117.25,35.25,48.73,71,109.41,106.17,180.33,60.24,121.43,102.55,242,97.2,253.31a2.49,2.49,0,0,1-3.49,1.23c-177.92-80.31-205.6-55-218.9-42.88a47.16,47.16,0,0,1-3.89,3.31c-11.87,9.77-18.66,22.87-20.13,38.87-2.77,30.25,13.94,66,28.45,90.74a382.26,382.26,0,0,0,32.61,47Zm-192.28-704c-41.14,0-77.62,30.38-108.44,90.34-46.34,90.15-55.25,180.84-26.48,269.55,15.5,47.8,42.09,95.35,79,141.31,29.57,36.8,65.8,72.67,107.68,106.62,58.89,47.73,112.65,78.25,130,87.63a399,399,0,0,1-28.71-42.15c-14.72-25.06-31.67-61.43-28.83-92.4,1.53-16.76,8.66-30.48,21.17-40.79a41.68,41.68,0,0,0,3.72-3.16c7-6.45,17.73-16.18,49.33-14,37.28,2.58,95.32,21.55,172.51,56.39,3.91-7.34-26.7-101.75-80.26-215.65-30.4-64.63-78.36-157.06-134.2-230.31-56.73-74.41-108.88-112.56-155-113.37Z"/><path d="M218.71,1128.66c35.21-14.91,75.63-33.38,77.88,0,4.34,64.72,212.45-51.8,241-69.36s45.73-122.38-66.5-98.68c-154,32.5-359.8,35.3-429.18-137.09-22-54.72,38.42,109.29,62.72,146.55,24.06,37.72,57.52,103.69,70.91,171.34C185.17,1142.53,201.3,1136,218.71,1128.66Z"/><circle class="cls-9" cx="318.38" cy="705.4" r="17.01"/><circle cx="318.38" cy="705.4" r="10.15"/><path d="M318.37,716.91a11.51,11.51,0,1,1,11.51-12h0a11.52,11.52,0,0,1-11,12Zm0-20.3H318a8.79,8.79,0,1,0,9.13,8.43h0A8.8,8.8,0,0,0,318.38,696.61Z"/><circle class="cls-9" cx="617.37" cy="711.75" r="17.01"/><circle cx="617.37" cy="711.75" r="8.32"/><path d="M617.37,721.42a9.68,9.68,0,1,1,9.68-10.06h0a9.7,9.7,0,0,1-9.29,10.06Zm0-16.63h-.29a7,7,0,1,0,7.23,6.67h0A7,7,0,0,0,617.38,704.79Z"/><path d="M534.28,159.44c13.26-6.59,22-15.61,26.77-28.57,1.79-4.9.66-7.29-3.68-10.54-13.09-9.82-25.85-20.16-38-31.14-4.84-4.39-10-11.28-4.47-18,5.11-6.29,13.15-5.35,19.9-2.35,18.64,8.3,28.9,23.59,31,43.27.91,8.57,4.38,12,11.48,14,3.88,1.08,7.71,2.54,11.66,3.17,11.17,1.77,16.19-2,18-13.25,3.81-23.22-3.42-42.95-19.38-59.67-20.72-21.7-47-34.1-74.76-43.92-3.2-1.14-6.47-2.08-9.67-3.22-.44-.16-.64-1-1.38-2.17,1.65-.17,3.05-.71,4.19-.37,29.1,8.81,56.51,21,79.09,41.94,18.48,17.19,28.72,37.88,26,63.89-1.9,18-9.29,23.66-26.72,19.39-5.7-1.4-11.22-3.53-17-5.37-3.29,6.18-5.28,14.21-10.38,18.73-13.68,12.09-27.89,24-43.52,33.25-6.92,4.08-17.84,2.29-26.81,1.54-3.68-.31-7-4.9-10.09-9,18.62,14.88,34.49,7.35,51.41-4.47-6.46-2-11.87-3-16.59-5.33-8.73-4.37-14.57-11.57-16.53-21.32-2.28-11.34,5.7-18.31,16.63-14.31,11.81,4.33,17.79,13.93,21.15,25.46C533.35,153.35,533.6,155.81,534.28,159.44ZM562.36,119c.25-21.83-14-43.3-31.3-47.34-4.21-1-9.17,1.28-13.79,2,1.15,3.91,1.31,8.57,3.6,11.61C531.64,99.65,546,109.7,562.36,119Zm-36.31,42.24c.7-.82,3.57-2.61,3.8-4.69,1.12-10-11.2-26.15-20.9-28.21-7.06-1.49-11.65,2.6-10.83,9.66C499.45,149.52,512.28,161.13,526.05,161.27Z"/><path d="M344.23,54.39c-3.47,1.24-7,2.43-10.4,3.72-11.11,4.16-21.57,9.49-30.6,17.31-10.35,9-16.38,19.85-14.73,34.06.89,7.71,4,10,11.57,8.16,2.06-.5,4-1.43,6.05-2,3-.81,3.83-2.58,4.06-5.67.66-8.77,4.81-15.89,11.8-21.2,1.9-1.44,4.32-2.94,6.55-3,3-.09,6.05,1.17,9.08,1.85-.66,2.83-.38,6.61-2.13,8.3a196.42,196.42,0,0,1-20.1,17c-2.87,2.11-3.51,3.64-2.22,6.68a26.44,26.44,0,0,0,13,13.85c2-4.3,3.42-8.55,5.91-12a17,17,0,0,1,7.75-5.55c5.24-1.86,9.3,2,8,7.43-2.07,8.71-8.16,12.9-16.93,13.66,6.38,7.91,15.56,8.84,25.94,2.8-1.48,4-4.83,6.45-10.08,6.23-7.23-.31-13.78-2.5-18.4-8.63a6.09,6.09,0,0,0-2.15-1.83,28.13,28.13,0,0,1-16-19.23c-3,1-5.77,2.07-8.68,2.84-9.89,2.62-14.08-.45-15-10.67A36.49,36.49,0,0,1,296,80c12.49-14.12,28.9-21.58,46.58-26.76a3.72,3.72,0,0,1,1.4.19Zm-32,58.28c8.74-5.14,16.5-10.46,22.16-18.24,1.08-1.5,1-3.8,1.52-5.73A37.55,37.55,0,0,0,330,87.33a8.24,8.24,0,0,0-3.71,1.07C318.14,92.11,311.88,102.55,312.28,112.67Zm17.66,21.81c7.72.58,14-3.54,15.74-10.48.42-1.65.2-4.44-.85-5.23a7.1,7.1,0,0,0-5.75-.62C333.16,120.18,329.1,127.65,329.94,134.48Z"/><path class="cls-15" d="M455.73,775.37l-22.82-27.24s7.65-23,47.43-7.26C475.4,753.22,455.73,775.37,455.73,775.37Z"/><path d="M492.13,806.81a315.58,315.58,0,0,1-25.66-18.88q-6.57-5.37-12-10.47l-2.21,2.07c-12.7,11.78-25,21.63-25.08,21.73l-1.71-2.13c.12-.1,12.31-9.89,24.94-21.6l2.08-1.95c-10.27-9.87-17.24-18.88-20.81-26.9l-.22-.49.18-.52a19.55,19.55,0,0,1,11-12c14.92-6.38,37.3,3.54,38.24,4l.66.3.13.71c.66,3.87-2.21,9.63-8.79,17.61a205,205,0,0,1-16.44,17.31,301.51,301.51,0,0,0,37.14,29Zm-57.74-58.73c3.9,8.46,11.55,17.4,20.09,25.61,20.85-19.92,24.58-28.38,24.58-31.88-3.94-1.63-22.93-8.94-35.34-3.64A16.82,16.82,0,0,0,434.39,748.08Z"/><path class="cls-9" d="M173,868.15s.69,4.55,9.9,1.77c9.66-3.56-1.75,10.22-1.75,10.22l-15.37,4,2.2-13Z"/></g></g></svg>