<svg xmlns="http://www.w3.org/2000/svg" viewBox="0 0 525.12 125.71"><defs><style>.cls-1{isolation:isolate;}.cls-2{fill:#fff;}.cls-2,.cls-3,.cls-5,.cls-6{stroke:#000;}.cls-2,.cls-3,.cls-4,.cls-5,.cls-7{stroke-linecap:round;stroke-linejoin:round;}.cls-4,.cls-7{stroke:#fff;}.cls-4{mix-blend-mode:difference;}.cls-5{fill:none;}.cls-6{fill:#e0aaaa;stroke-miterlimit:10;}</style></defs><g class="cls-1"><g id="Layer_2" data-name="Layer 2"><g id="Layer_1-2" data-name="Layer 1"><path d="M457.05,103.11c-2.16-.34-45.61-7.17-58.69-9.36a36.75,36.75,0,0,0,.5-4.72.5.5,0,0,0-.48-.52h0a.5.5,0,0,0-.5.48,33.78,33.78,0,0,1-.48,4.55c-8.82-1.92-13.53-9.21-14.85-11.58l28,1.43c.8,0,76.27-2.43,100.58-2.6h.47c9.53,0,12.26,2,12.88,3.73,1.12,3.07-3.47,7.26-4.22,7.92Z"/><path d="M511.57,81.29c9.72,0,11.95,2.13,12.41,3.4.86,2.37-2.4,5.9-4,7.28l-63,10.63c-2.95-.46-44.63-7-58.12-9.26a33.81,33.81,0,0,0,.43-4.29,1,1,0,0,0-1-1h0a1,1,0,0,0-1,1,33.87,33.87,0,0,1-.4,4c-7.48-1.84-11.84-7.65-13.54-10.43l27.06,1.39h.08c.76,0,76.23-2.43,100.53-2.6h.47m0-1h-.47c-24.61.17-100.56,2.6-100.56,2.6l-28.86-1.48s4.83,10.57,16.1,12.72a34.73,34.73,0,0,0,.58-5.12,34.73,34.73,0,0,1-.58,5.12c.15,0,.29.08.44.1,13.44,2.26,58.83,9.38,58.83,9.38l63.41-10.7s15-12.62-8.89-12.62Z"/><path class="cls-2" d="M262.48,114.24c-18.64-1.35-63.56,6.19-74.85-12.81"/><path class="cls-2" d="M441.41,75.36c-6.17-2.5-14-4-20.64-3.16-9.32,1.24-8.22,1.32-43.55-3.48l9.44,14.66,3,.06c12.9.24,25.76,2.12,38.69,2.13C435.88,85.57,460,82.89,441.41,75.36Z"/><path class="cls-2" d="M219.31,84.94c-11.59-6.17-25.72,3.39-34.48-4.69C167,69,163.48,47.41,161,27.92c-4.43.79-8.61,1.52-12.49,2.17-19-.14-42.19,90.54-42.19,90.54s133.73,4.67,146,4.58,10.16-11,10.16-11c3.67,0,7.34,0,11,0-10.1-7.74-20.22-15.41-31.22-18.5C234.12,92.22,226.16,90.19,219.31,84.94Z"/><path class="cls-3" d="M398.35,89.3c-9.59-4.77-14.46-11.94-21.33-22.09C346.23-6.13,226.2,16.39,161,27.92c2.51,19.49,6,41.07,23.87,52.34,7.87,7.26,19.72.78,29,2.83,11.36,2.51,22,9.41,32.51,14.16,6.44,2.9,21.44,17,27.18,17,40.95.31,82.6,2.8,123.7,2C393.25,106.44,398,98.29,398.35,89.3Z"/><path class="cls-2" d="M444,96.84c-23.3-.67-36.61-3-45.68-7.54-.4,9-5.1,17.14-1.15,27,13.05-.25,26-.83,38.93-1.92C491.47,109.67,455,98.46,444,96.84Z"/><path class="cls-2" d="M262.48,114.24c-18.64-1.35-63.56,6.19-74.85-12.81"/><path class="cls-3" d="M30.16,16c-6-22.29-14.3-15-16.92-11.61C5.11,17.06,2.06,51.52,6.6,79.39c32.12-4.51,61.24-30.47,69.49-60.64L76,18.29C55.42,17.69,34.65,16.89,30.16,16Z"/><path class="cls-2" d="M76,18.29l.09.46c0-.15.09-.3.13-.46Z"/><path class="cls-2" d="M76.09,18.75C67.84,48.92,38.72,74.88,6.6,79.39,8.12,88.66,10.47,97.2,13.75,104s7.34,11.56,12.44,13.8c23.13,10.15,65.14,8.54,88.89,2.65,15.26-3.78,25.66-18.93,30.43-34.12C110.19,84.58,83.35,52.72,76.09,18.75Z"/><path class="cls-3" d="M148.6,48.83c-.77-14.22-2-29.26-5.91-43C134.64-8.54,121.4,19.37,121.4,19.37S99,19,76.22,18.29c0,.16-.09.31-.13.46,7.26,34,34.1,65.83,69.42,67.54a66.59,66.59,0,0,0,2.43-10.62A137.55,137.55,0,0,0,148.6,48.83Z"/><line class="cls-4" x1="143.77" y1="66.44" x2="154.56" y2="66.55"/><line class="cls-4" x1="144.57" y1="72.49" x2="155.35" y2="72.6"/><line class="cls-4" x1="143.65" y1="77.23" x2="155.95" y2="77.14"/><line class="cls-4" x1="0.5" y1="65.34" x2="11.29" y2="65.45"/><line class="cls-4" x1="1.1" y1="69.87" x2="10.37" y2="70.19"/><line class="cls-4" x1="1.7" y1="74.41" x2="12.49" y2="74.53"/><path class="cls-5" d="M61,80.44s7.57-1,13.22-4.82c1.71,1.31,7,6.76,11.58,6.16"/><path class="cls-6" d="M74.26,76.44C72,76.38,69.61,74.67,67.64,70c-3-7,8.73-5,12.1-3.48C83.52,68.26,79.33,76.58,74.26,76.44Z"/><line class="cls-7" x1="99.02" y1="53.87" x2="120.59" y2="54.11"/><line class="cls-7" x1="28.04" y1="52.47" x2="51.13" y2="52.5"/><path class="cls-2" d="M130,20.54s3.14-11.18,6.36-10.07c1.91,2.83,4,7.16,4.42,10.19A53.82,53.82,0,0,1,130,20.54Z"/><path class="cls-2" d="M15.24,18.19S15,4.38,18.38,7c3.62,4.14,5.73,8.48,6.13,11.51C23,18.7,15.24,18.19,15.24,18.19Z"/></g></g></g></svg>